M48
; DRILL file {KiCad 5.1.2-f72e74a~84~ubuntu19.04.1} date Tue 14 May 2019 02:31:23 PM CDT
; FORMAT={-:-/ absolute / inch / decimal}
; #@! TF.CreationDate,2019-05-14T14:31:23-05:00
; #@! TF.GenerationSoftware,Kicad,Pcbnew,5.1.2-f72e74a~84~ubuntu19.04.1
; #@! TF.FileFunction,Plated,1,2,PTH
FMAT,2
INCH
T1C0.0157
T2C0.0394
T3C0.0512
T4C0.0598
T5C0.1181
T6C0.1220
%
G90
G05
T1
X4.6898Y-3.2754
X6.3096Y-3.4684
X6.4198Y-3.6434
T2
X4.0866Y-4.5482
X4.0866Y-4.6482
X4.1866Y-4.5482
X4.1866Y-4.6482
X4.2866Y-4.5482
X4.2866Y-4.6482
X4.3866Y-4.5482
X4.3866Y-4.6482
X4.4866Y-4.5482
X4.4866Y-4.6482
X4.5866Y-4.5482
X4.5866Y-4.6482
X4.6866Y-4.5482
X4.6866Y-4.6482
X4.7866Y-4.5482
X4.7866Y-4.6482
X4.8866Y-4.5482
X4.8866Y-4.6482
X4.9866Y-4.5482
X4.9866Y-4.6482
X5.0866Y-4.5482
X5.0866Y-4.6482
X5.1866Y-4.5482
X5.1866Y-4.6482
X5.2866Y-4.5482
X5.2866Y-4.6482
X5.3866Y-4.5482
X5.3866Y-4.6482
X5.4866Y-4.5482
X5.4866Y-4.6482
X5.5866Y-4.5482
X5.5866Y-4.6482
X5.6866Y-4.5482
X5.6866Y-4.6482
X5.7866Y-4.5482
X5.7866Y-4.6482
X5.8866Y-4.5482
X5.8866Y-4.6482
X5.9866Y-4.5482
X5.9866Y-4.6482
X6.0866Y-4.5482
X6.0866Y-4.6482
X6.1866Y-4.5482
X6.1866Y-4.6482
X6.2866Y-4.5482
X6.2866Y-4.6482
X6.3866Y-4.5482
X6.3866Y-4.6482
X6.4866Y-4.5482
X6.4866Y-4.6482
X6.5866Y-4.5482
X6.5866Y-4.6482
T3
X4.461Y-3.401
X4.461Y-3.501
X4.461Y-3.897
X4.461Y-3.997
X4.561Y-3.401
X4.561Y-3.501
X4.561Y-3.897
X4.561Y-3.997
X4.661Y-3.403
X4.661Y-3.503
X4.661Y-3.899
X4.661Y-3.999
X4.761Y-3.403
X4.761Y-3.503
X4.761Y-3.899
X4.761Y-3.999
X4.861Y-3.403
X4.861Y-3.503
X4.861Y-3.899
X4.861Y-3.999
X4.961Y-3.404
X4.961Y-3.504
X4.961Y-3.9
X4.961Y-4.0
X5.061Y-3.404
X5.061Y-3.504
X5.061Y-3.9
X5.061Y-4.0
X5.161Y-3.404
X5.161Y-3.504
X5.161Y-3.9
X5.161Y-4.0
X5.261Y-3.404
X5.261Y-3.504
X5.261Y-3.9
X5.261Y-4.0
X5.361Y-3.404
X5.361Y-3.504
X5.361Y-3.9
X5.361Y-4.0
T4
X5.58Y-3.3875
X5.58Y-3.7005
X5.581Y-4.0135
X5.7775Y-3.388
X5.7775Y-3.701
X5.7785Y-4.014
X5.9755Y-3.388
X5.9755Y-3.701
X5.9765Y-4.014
X6.1715Y-3.388
X6.1715Y-3.701
X6.1725Y-4.014
T5
X4.0047Y-3.0828
X6.6423Y-3.0828
T6
X4.29Y-3.251
X6.408Y-3.251
T0
M30
