G04 #@! TF.GenerationSoftware,KiCad,Pcbnew,5.1.2-f72e74a~84~ubuntu19.04.1*
G04 #@! TF.CreationDate,2019-05-14T14:31:21-05:00*
G04 #@! TF.ProjectId,Adapter-TE-52,41646170-7465-4722-9d54-452d35322e6b,rev?*
G04 #@! TF.SameCoordinates,Original*
G04 #@! TF.FileFunction,Soldermask,Top*
G04 #@! TF.FilePolarity,Negative*
%FSLAX46Y46*%
G04 Gerber Fmt 4.6, Leading zero omitted, Abs format (unit mm)*
G04 Created by KiCad (PCBNEW 5.1.2-f72e74a~84~ubuntu19.04.1) date 2019-05-14 14:31:21*
%MOMM*%
%LPD*%
G04 APERTURE LIST*
%ADD10C,0.100000*%
G04 APERTURE END LIST*
D10*
G36*
X106450083Y-117169799D02*
G01*
X106516267Y-117176317D01*
X106686106Y-117227837D01*
X106842631Y-117311502D01*
X106878369Y-117340832D01*
X106979826Y-117424094D01*
X107063088Y-117525551D01*
X107092418Y-117561289D01*
X107176083Y-117717814D01*
X107227603Y-117887653D01*
X107244999Y-118064280D01*
X107227603Y-118240907D01*
X107176083Y-118410746D01*
X107092418Y-118567271D01*
X107063088Y-118603009D01*
X106979826Y-118704466D01*
X106878369Y-118787728D01*
X106842631Y-118817058D01*
X106686106Y-118900723D01*
X106516267Y-118952243D01*
X106450082Y-118958762D01*
X106383900Y-118965280D01*
X106295380Y-118965280D01*
X106229198Y-118958762D01*
X106163013Y-118952243D01*
X105993174Y-118900723D01*
X105836649Y-118817058D01*
X105800911Y-118787728D01*
X105699454Y-118704466D01*
X105616192Y-118603009D01*
X105586862Y-118567271D01*
X105503197Y-118410746D01*
X105451677Y-118240907D01*
X105434281Y-118064280D01*
X105451677Y-117887653D01*
X105503197Y-117717814D01*
X105586862Y-117561289D01*
X105616192Y-117525551D01*
X105699454Y-117424094D01*
X105800911Y-117340832D01*
X105836649Y-117311502D01*
X105993174Y-117227837D01*
X106163013Y-117176317D01*
X106229197Y-117169799D01*
X106295380Y-117163280D01*
X106383900Y-117163280D01*
X106450083Y-117169799D01*
X106450083Y-117169799D01*
G37*
G36*
X139470083Y-117169799D02*
G01*
X139536267Y-117176317D01*
X139706106Y-117227837D01*
X139862631Y-117311502D01*
X139898369Y-117340832D01*
X139999826Y-117424094D01*
X140083088Y-117525551D01*
X140112418Y-117561289D01*
X140196083Y-117717814D01*
X140247603Y-117887653D01*
X140264999Y-118064280D01*
X140247603Y-118240907D01*
X140196083Y-118410746D01*
X140112418Y-118567271D01*
X140083088Y-118603009D01*
X139999826Y-118704466D01*
X139898369Y-118787728D01*
X139862631Y-118817058D01*
X139706106Y-118900723D01*
X139536267Y-118952243D01*
X139470082Y-118958762D01*
X139403900Y-118965280D01*
X139315380Y-118965280D01*
X139249198Y-118958762D01*
X139183013Y-118952243D01*
X139013174Y-118900723D01*
X138856649Y-118817058D01*
X138820911Y-118787728D01*
X138719454Y-118704466D01*
X138636192Y-118603009D01*
X138606862Y-118567271D01*
X138523197Y-118410746D01*
X138471677Y-118240907D01*
X138454281Y-118064280D01*
X138471677Y-117887653D01*
X138523197Y-117717814D01*
X138606862Y-117561289D01*
X138636192Y-117525551D01*
X138719454Y-117424094D01*
X138820911Y-117340832D01*
X138856649Y-117311502D01*
X139013174Y-117227837D01*
X139183013Y-117176317D01*
X139249197Y-117169799D01*
X139315380Y-117163280D01*
X139403900Y-117163280D01*
X139470083Y-117169799D01*
X139470083Y-117169799D01*
G37*
G36*
X103910083Y-117169799D02*
G01*
X103976267Y-117176317D01*
X104146106Y-117227837D01*
X104302631Y-117311502D01*
X104338369Y-117340832D01*
X104439826Y-117424094D01*
X104523088Y-117525551D01*
X104552418Y-117561289D01*
X104636083Y-117717814D01*
X104687603Y-117887653D01*
X104704999Y-118064280D01*
X104687603Y-118240907D01*
X104636083Y-118410746D01*
X104552418Y-118567271D01*
X104523088Y-118603009D01*
X104439826Y-118704466D01*
X104338369Y-118787728D01*
X104302631Y-118817058D01*
X104146106Y-118900723D01*
X103976267Y-118952243D01*
X103910082Y-118958762D01*
X103843900Y-118965280D01*
X103755380Y-118965280D01*
X103689198Y-118958762D01*
X103623013Y-118952243D01*
X103453174Y-118900723D01*
X103296649Y-118817058D01*
X103260911Y-118787728D01*
X103159454Y-118704466D01*
X103076192Y-118603009D01*
X103046862Y-118567271D01*
X102963197Y-118410746D01*
X102911677Y-118240907D01*
X102894281Y-118064280D01*
X102911677Y-117887653D01*
X102963197Y-117717814D01*
X103046862Y-117561289D01*
X103076192Y-117525551D01*
X103159454Y-117424094D01*
X103260911Y-117340832D01*
X103296649Y-117311502D01*
X103453174Y-117227837D01*
X103623013Y-117176317D01*
X103689197Y-117169799D01*
X103755380Y-117163280D01*
X103843900Y-117163280D01*
X103910083Y-117169799D01*
X103910083Y-117169799D01*
G37*
G36*
X167410083Y-117169799D02*
G01*
X167476267Y-117176317D01*
X167646106Y-117227837D01*
X167802631Y-117311502D01*
X167838369Y-117340832D01*
X167939826Y-117424094D01*
X168023088Y-117525551D01*
X168052418Y-117561289D01*
X168136083Y-117717814D01*
X168187603Y-117887653D01*
X168204999Y-118064280D01*
X168187603Y-118240907D01*
X168136083Y-118410746D01*
X168052418Y-118567271D01*
X168023088Y-118603009D01*
X167939826Y-118704466D01*
X167838369Y-118787728D01*
X167802631Y-118817058D01*
X167646106Y-118900723D01*
X167476267Y-118952243D01*
X167410082Y-118958762D01*
X167343900Y-118965280D01*
X167255380Y-118965280D01*
X167189198Y-118958762D01*
X167123013Y-118952243D01*
X166953174Y-118900723D01*
X166796649Y-118817058D01*
X166760911Y-118787728D01*
X166659454Y-118704466D01*
X166576192Y-118603009D01*
X166546862Y-118567271D01*
X166463197Y-118410746D01*
X166411677Y-118240907D01*
X166394281Y-118064280D01*
X166411677Y-117887653D01*
X166463197Y-117717814D01*
X166546862Y-117561289D01*
X166576192Y-117525551D01*
X166659454Y-117424094D01*
X166760911Y-117340832D01*
X166796649Y-117311502D01*
X166953174Y-117227837D01*
X167123013Y-117176317D01*
X167189197Y-117169799D01*
X167255380Y-117163280D01*
X167343900Y-117163280D01*
X167410083Y-117169799D01*
X167410083Y-117169799D01*
G37*
G36*
X162330083Y-117169799D02*
G01*
X162396267Y-117176317D01*
X162566106Y-117227837D01*
X162722631Y-117311502D01*
X162758369Y-117340832D01*
X162859826Y-117424094D01*
X162943088Y-117525551D01*
X162972418Y-117561289D01*
X163056083Y-117717814D01*
X163107603Y-117887653D01*
X163124999Y-118064280D01*
X163107603Y-118240907D01*
X163056083Y-118410746D01*
X162972418Y-118567271D01*
X162943088Y-118603009D01*
X162859826Y-118704466D01*
X162758369Y-118787728D01*
X162722631Y-118817058D01*
X162566106Y-118900723D01*
X162396267Y-118952243D01*
X162330082Y-118958762D01*
X162263900Y-118965280D01*
X162175380Y-118965280D01*
X162109198Y-118958762D01*
X162043013Y-118952243D01*
X161873174Y-118900723D01*
X161716649Y-118817058D01*
X161680911Y-118787728D01*
X161579454Y-118704466D01*
X161496192Y-118603009D01*
X161466862Y-118567271D01*
X161383197Y-118410746D01*
X161331677Y-118240907D01*
X161314281Y-118064280D01*
X161331677Y-117887653D01*
X161383197Y-117717814D01*
X161466862Y-117561289D01*
X161496192Y-117525551D01*
X161579454Y-117424094D01*
X161680911Y-117340832D01*
X161716649Y-117311502D01*
X161873174Y-117227837D01*
X162043013Y-117176317D01*
X162109197Y-117169799D01*
X162175380Y-117163280D01*
X162263900Y-117163280D01*
X162330083Y-117169799D01*
X162330083Y-117169799D01*
G37*
G36*
X159790083Y-117169799D02*
G01*
X159856267Y-117176317D01*
X160026106Y-117227837D01*
X160182631Y-117311502D01*
X160218369Y-117340832D01*
X160319826Y-117424094D01*
X160403088Y-117525551D01*
X160432418Y-117561289D01*
X160516083Y-117717814D01*
X160567603Y-117887653D01*
X160584999Y-118064280D01*
X160567603Y-118240907D01*
X160516083Y-118410746D01*
X160432418Y-118567271D01*
X160403088Y-118603009D01*
X160319826Y-118704466D01*
X160218369Y-118787728D01*
X160182631Y-118817058D01*
X160026106Y-118900723D01*
X159856267Y-118952243D01*
X159790082Y-118958762D01*
X159723900Y-118965280D01*
X159635380Y-118965280D01*
X159569198Y-118958762D01*
X159503013Y-118952243D01*
X159333174Y-118900723D01*
X159176649Y-118817058D01*
X159140911Y-118787728D01*
X159039454Y-118704466D01*
X158956192Y-118603009D01*
X158926862Y-118567271D01*
X158843197Y-118410746D01*
X158791677Y-118240907D01*
X158774281Y-118064280D01*
X158791677Y-117887653D01*
X158843197Y-117717814D01*
X158926862Y-117561289D01*
X158956192Y-117525551D01*
X159039454Y-117424094D01*
X159140911Y-117340832D01*
X159176649Y-117311502D01*
X159333174Y-117227837D01*
X159503013Y-117176317D01*
X159569197Y-117169799D01*
X159635380Y-117163280D01*
X159723900Y-117163280D01*
X159790083Y-117169799D01*
X159790083Y-117169799D01*
G37*
G36*
X157250083Y-117169799D02*
G01*
X157316267Y-117176317D01*
X157486106Y-117227837D01*
X157642631Y-117311502D01*
X157678369Y-117340832D01*
X157779826Y-117424094D01*
X157863088Y-117525551D01*
X157892418Y-117561289D01*
X157976083Y-117717814D01*
X158027603Y-117887653D01*
X158044999Y-118064280D01*
X158027603Y-118240907D01*
X157976083Y-118410746D01*
X157892418Y-118567271D01*
X157863088Y-118603009D01*
X157779826Y-118704466D01*
X157678369Y-118787728D01*
X157642631Y-118817058D01*
X157486106Y-118900723D01*
X157316267Y-118952243D01*
X157250082Y-118958762D01*
X157183900Y-118965280D01*
X157095380Y-118965280D01*
X157029198Y-118958762D01*
X156963013Y-118952243D01*
X156793174Y-118900723D01*
X156636649Y-118817058D01*
X156600911Y-118787728D01*
X156499454Y-118704466D01*
X156416192Y-118603009D01*
X156386862Y-118567271D01*
X156303197Y-118410746D01*
X156251677Y-118240907D01*
X156234281Y-118064280D01*
X156251677Y-117887653D01*
X156303197Y-117717814D01*
X156386862Y-117561289D01*
X156416192Y-117525551D01*
X156499454Y-117424094D01*
X156600911Y-117340832D01*
X156636649Y-117311502D01*
X156793174Y-117227837D01*
X156963013Y-117176317D01*
X157029197Y-117169799D01*
X157095380Y-117163280D01*
X157183900Y-117163280D01*
X157250083Y-117169799D01*
X157250083Y-117169799D01*
G37*
G36*
X154710083Y-117169799D02*
G01*
X154776267Y-117176317D01*
X154946106Y-117227837D01*
X155102631Y-117311502D01*
X155138369Y-117340832D01*
X155239826Y-117424094D01*
X155323088Y-117525551D01*
X155352418Y-117561289D01*
X155436083Y-117717814D01*
X155487603Y-117887653D01*
X155504999Y-118064280D01*
X155487603Y-118240907D01*
X155436083Y-118410746D01*
X155352418Y-118567271D01*
X155323088Y-118603009D01*
X155239826Y-118704466D01*
X155138369Y-118787728D01*
X155102631Y-118817058D01*
X154946106Y-118900723D01*
X154776267Y-118952243D01*
X154710082Y-118958762D01*
X154643900Y-118965280D01*
X154555380Y-118965280D01*
X154489198Y-118958762D01*
X154423013Y-118952243D01*
X154253174Y-118900723D01*
X154096649Y-118817058D01*
X154060911Y-118787728D01*
X153959454Y-118704466D01*
X153876192Y-118603009D01*
X153846862Y-118567271D01*
X153763197Y-118410746D01*
X153711677Y-118240907D01*
X153694281Y-118064280D01*
X153711677Y-117887653D01*
X153763197Y-117717814D01*
X153846862Y-117561289D01*
X153876192Y-117525551D01*
X153959454Y-117424094D01*
X154060911Y-117340832D01*
X154096649Y-117311502D01*
X154253174Y-117227837D01*
X154423013Y-117176317D01*
X154489197Y-117169799D01*
X154555380Y-117163280D01*
X154643900Y-117163280D01*
X154710083Y-117169799D01*
X154710083Y-117169799D01*
G37*
G36*
X152170083Y-117169799D02*
G01*
X152236267Y-117176317D01*
X152406106Y-117227837D01*
X152562631Y-117311502D01*
X152598369Y-117340832D01*
X152699826Y-117424094D01*
X152783088Y-117525551D01*
X152812418Y-117561289D01*
X152896083Y-117717814D01*
X152947603Y-117887653D01*
X152964999Y-118064280D01*
X152947603Y-118240907D01*
X152896083Y-118410746D01*
X152812418Y-118567271D01*
X152783088Y-118603009D01*
X152699826Y-118704466D01*
X152598369Y-118787728D01*
X152562631Y-118817058D01*
X152406106Y-118900723D01*
X152236267Y-118952243D01*
X152170082Y-118958762D01*
X152103900Y-118965280D01*
X152015380Y-118965280D01*
X151949198Y-118958762D01*
X151883013Y-118952243D01*
X151713174Y-118900723D01*
X151556649Y-118817058D01*
X151520911Y-118787728D01*
X151419454Y-118704466D01*
X151336192Y-118603009D01*
X151306862Y-118567271D01*
X151223197Y-118410746D01*
X151171677Y-118240907D01*
X151154281Y-118064280D01*
X151171677Y-117887653D01*
X151223197Y-117717814D01*
X151306862Y-117561289D01*
X151336192Y-117525551D01*
X151419454Y-117424094D01*
X151520911Y-117340832D01*
X151556649Y-117311502D01*
X151713174Y-117227837D01*
X151883013Y-117176317D01*
X151949197Y-117169799D01*
X152015380Y-117163280D01*
X152103900Y-117163280D01*
X152170083Y-117169799D01*
X152170083Y-117169799D01*
G37*
G36*
X149630083Y-117169799D02*
G01*
X149696267Y-117176317D01*
X149866106Y-117227837D01*
X150022631Y-117311502D01*
X150058369Y-117340832D01*
X150159826Y-117424094D01*
X150243088Y-117525551D01*
X150272418Y-117561289D01*
X150356083Y-117717814D01*
X150407603Y-117887653D01*
X150424999Y-118064280D01*
X150407603Y-118240907D01*
X150356083Y-118410746D01*
X150272418Y-118567271D01*
X150243088Y-118603009D01*
X150159826Y-118704466D01*
X150058369Y-118787728D01*
X150022631Y-118817058D01*
X149866106Y-118900723D01*
X149696267Y-118952243D01*
X149630082Y-118958762D01*
X149563900Y-118965280D01*
X149475380Y-118965280D01*
X149409198Y-118958762D01*
X149343013Y-118952243D01*
X149173174Y-118900723D01*
X149016649Y-118817058D01*
X148980911Y-118787728D01*
X148879454Y-118704466D01*
X148796192Y-118603009D01*
X148766862Y-118567271D01*
X148683197Y-118410746D01*
X148631677Y-118240907D01*
X148614281Y-118064280D01*
X148631677Y-117887653D01*
X148683197Y-117717814D01*
X148766862Y-117561289D01*
X148796192Y-117525551D01*
X148879454Y-117424094D01*
X148980911Y-117340832D01*
X149016649Y-117311502D01*
X149173174Y-117227837D01*
X149343013Y-117176317D01*
X149409197Y-117169799D01*
X149475380Y-117163280D01*
X149563900Y-117163280D01*
X149630083Y-117169799D01*
X149630083Y-117169799D01*
G37*
G36*
X147090083Y-117169799D02*
G01*
X147156267Y-117176317D01*
X147326106Y-117227837D01*
X147482631Y-117311502D01*
X147518369Y-117340832D01*
X147619826Y-117424094D01*
X147703088Y-117525551D01*
X147732418Y-117561289D01*
X147816083Y-117717814D01*
X147867603Y-117887653D01*
X147884999Y-118064280D01*
X147867603Y-118240907D01*
X147816083Y-118410746D01*
X147732418Y-118567271D01*
X147703088Y-118603009D01*
X147619826Y-118704466D01*
X147518369Y-118787728D01*
X147482631Y-118817058D01*
X147326106Y-118900723D01*
X147156267Y-118952243D01*
X147090082Y-118958762D01*
X147023900Y-118965280D01*
X146935380Y-118965280D01*
X146869198Y-118958762D01*
X146803013Y-118952243D01*
X146633174Y-118900723D01*
X146476649Y-118817058D01*
X146440911Y-118787728D01*
X146339454Y-118704466D01*
X146256192Y-118603009D01*
X146226862Y-118567271D01*
X146143197Y-118410746D01*
X146091677Y-118240907D01*
X146074281Y-118064280D01*
X146091677Y-117887653D01*
X146143197Y-117717814D01*
X146226862Y-117561289D01*
X146256192Y-117525551D01*
X146339454Y-117424094D01*
X146440911Y-117340832D01*
X146476649Y-117311502D01*
X146633174Y-117227837D01*
X146803013Y-117176317D01*
X146869197Y-117169799D01*
X146935380Y-117163280D01*
X147023900Y-117163280D01*
X147090083Y-117169799D01*
X147090083Y-117169799D01*
G37*
G36*
X144550083Y-117169799D02*
G01*
X144616267Y-117176317D01*
X144786106Y-117227837D01*
X144942631Y-117311502D01*
X144978369Y-117340832D01*
X145079826Y-117424094D01*
X145163088Y-117525551D01*
X145192418Y-117561289D01*
X145276083Y-117717814D01*
X145327603Y-117887653D01*
X145344999Y-118064280D01*
X145327603Y-118240907D01*
X145276083Y-118410746D01*
X145192418Y-118567271D01*
X145163088Y-118603009D01*
X145079826Y-118704466D01*
X144978369Y-118787728D01*
X144942631Y-118817058D01*
X144786106Y-118900723D01*
X144616267Y-118952243D01*
X144550082Y-118958762D01*
X144483900Y-118965280D01*
X144395380Y-118965280D01*
X144329198Y-118958762D01*
X144263013Y-118952243D01*
X144093174Y-118900723D01*
X143936649Y-118817058D01*
X143900911Y-118787728D01*
X143799454Y-118704466D01*
X143716192Y-118603009D01*
X143686862Y-118567271D01*
X143603197Y-118410746D01*
X143551677Y-118240907D01*
X143534281Y-118064280D01*
X143551677Y-117887653D01*
X143603197Y-117717814D01*
X143686862Y-117561289D01*
X143716192Y-117525551D01*
X143799454Y-117424094D01*
X143900911Y-117340832D01*
X143936649Y-117311502D01*
X144093174Y-117227837D01*
X144263013Y-117176317D01*
X144329197Y-117169799D01*
X144395380Y-117163280D01*
X144483900Y-117163280D01*
X144550083Y-117169799D01*
X144550083Y-117169799D01*
G37*
G36*
X142010083Y-117169799D02*
G01*
X142076267Y-117176317D01*
X142246106Y-117227837D01*
X142402631Y-117311502D01*
X142438369Y-117340832D01*
X142539826Y-117424094D01*
X142623088Y-117525551D01*
X142652418Y-117561289D01*
X142736083Y-117717814D01*
X142787603Y-117887653D01*
X142804999Y-118064280D01*
X142787603Y-118240907D01*
X142736083Y-118410746D01*
X142652418Y-118567271D01*
X142623088Y-118603009D01*
X142539826Y-118704466D01*
X142438369Y-118787728D01*
X142402631Y-118817058D01*
X142246106Y-118900723D01*
X142076267Y-118952243D01*
X142010082Y-118958762D01*
X141943900Y-118965280D01*
X141855380Y-118965280D01*
X141789198Y-118958762D01*
X141723013Y-118952243D01*
X141553174Y-118900723D01*
X141396649Y-118817058D01*
X141360911Y-118787728D01*
X141259454Y-118704466D01*
X141176192Y-118603009D01*
X141146862Y-118567271D01*
X141063197Y-118410746D01*
X141011677Y-118240907D01*
X140994281Y-118064280D01*
X141011677Y-117887653D01*
X141063197Y-117717814D01*
X141146862Y-117561289D01*
X141176192Y-117525551D01*
X141259454Y-117424094D01*
X141360911Y-117340832D01*
X141396649Y-117311502D01*
X141553174Y-117227837D01*
X141723013Y-117176317D01*
X141789197Y-117169799D01*
X141855380Y-117163280D01*
X141943900Y-117163280D01*
X142010083Y-117169799D01*
X142010083Y-117169799D01*
G37*
G36*
X164870083Y-117169799D02*
G01*
X164936267Y-117176317D01*
X165106106Y-117227837D01*
X165262631Y-117311502D01*
X165298369Y-117340832D01*
X165399826Y-117424094D01*
X165483088Y-117525551D01*
X165512418Y-117561289D01*
X165596083Y-117717814D01*
X165647603Y-117887653D01*
X165664999Y-118064280D01*
X165647603Y-118240907D01*
X165596083Y-118410746D01*
X165512418Y-118567271D01*
X165483088Y-118603009D01*
X165399826Y-118704466D01*
X165298369Y-118787728D01*
X165262631Y-118817058D01*
X165106106Y-118900723D01*
X164936267Y-118952243D01*
X164870082Y-118958762D01*
X164803900Y-118965280D01*
X164715380Y-118965280D01*
X164649198Y-118958762D01*
X164583013Y-118952243D01*
X164413174Y-118900723D01*
X164256649Y-118817058D01*
X164220911Y-118787728D01*
X164119454Y-118704466D01*
X164036192Y-118603009D01*
X164006862Y-118567271D01*
X163923197Y-118410746D01*
X163871677Y-118240907D01*
X163854281Y-118064280D01*
X163871677Y-117887653D01*
X163923197Y-117717814D01*
X164006862Y-117561289D01*
X164036192Y-117525551D01*
X164119454Y-117424094D01*
X164220911Y-117340832D01*
X164256649Y-117311502D01*
X164413174Y-117227837D01*
X164583013Y-117176317D01*
X164649197Y-117169799D01*
X164715380Y-117163280D01*
X164803900Y-117163280D01*
X164870083Y-117169799D01*
X164870083Y-117169799D01*
G37*
G36*
X134390083Y-117169799D02*
G01*
X134456267Y-117176317D01*
X134626106Y-117227837D01*
X134782631Y-117311502D01*
X134818369Y-117340832D01*
X134919826Y-117424094D01*
X135003088Y-117525551D01*
X135032418Y-117561289D01*
X135116083Y-117717814D01*
X135167603Y-117887653D01*
X135184999Y-118064280D01*
X135167603Y-118240907D01*
X135116083Y-118410746D01*
X135032418Y-118567271D01*
X135003088Y-118603009D01*
X134919826Y-118704466D01*
X134818369Y-118787728D01*
X134782631Y-118817058D01*
X134626106Y-118900723D01*
X134456267Y-118952243D01*
X134390082Y-118958762D01*
X134323900Y-118965280D01*
X134235380Y-118965280D01*
X134169198Y-118958762D01*
X134103013Y-118952243D01*
X133933174Y-118900723D01*
X133776649Y-118817058D01*
X133740911Y-118787728D01*
X133639454Y-118704466D01*
X133556192Y-118603009D01*
X133526862Y-118567271D01*
X133443197Y-118410746D01*
X133391677Y-118240907D01*
X133374281Y-118064280D01*
X133391677Y-117887653D01*
X133443197Y-117717814D01*
X133526862Y-117561289D01*
X133556192Y-117525551D01*
X133639454Y-117424094D01*
X133740911Y-117340832D01*
X133776649Y-117311502D01*
X133933174Y-117227837D01*
X134103013Y-117176317D01*
X134169197Y-117169799D01*
X134235380Y-117163280D01*
X134323900Y-117163280D01*
X134390083Y-117169799D01*
X134390083Y-117169799D01*
G37*
G36*
X136930083Y-117169799D02*
G01*
X136996267Y-117176317D01*
X137166106Y-117227837D01*
X137322631Y-117311502D01*
X137358369Y-117340832D01*
X137459826Y-117424094D01*
X137543088Y-117525551D01*
X137572418Y-117561289D01*
X137656083Y-117717814D01*
X137707603Y-117887653D01*
X137724999Y-118064280D01*
X137707603Y-118240907D01*
X137656083Y-118410746D01*
X137572418Y-118567271D01*
X137543088Y-118603009D01*
X137459826Y-118704466D01*
X137358369Y-118787728D01*
X137322631Y-118817058D01*
X137166106Y-118900723D01*
X136996267Y-118952243D01*
X136930082Y-118958762D01*
X136863900Y-118965280D01*
X136775380Y-118965280D01*
X136709198Y-118958762D01*
X136643013Y-118952243D01*
X136473174Y-118900723D01*
X136316649Y-118817058D01*
X136280911Y-118787728D01*
X136179454Y-118704466D01*
X136096192Y-118603009D01*
X136066862Y-118567271D01*
X135983197Y-118410746D01*
X135931677Y-118240907D01*
X135914281Y-118064280D01*
X135931677Y-117887653D01*
X135983197Y-117717814D01*
X136066862Y-117561289D01*
X136096192Y-117525551D01*
X136179454Y-117424094D01*
X136280911Y-117340832D01*
X136316649Y-117311502D01*
X136473174Y-117227837D01*
X136643013Y-117176317D01*
X136709197Y-117169799D01*
X136775380Y-117163280D01*
X136863900Y-117163280D01*
X136930083Y-117169799D01*
X136930083Y-117169799D01*
G37*
G36*
X108990083Y-117169799D02*
G01*
X109056267Y-117176317D01*
X109226106Y-117227837D01*
X109382631Y-117311502D01*
X109418369Y-117340832D01*
X109519826Y-117424094D01*
X109603088Y-117525551D01*
X109632418Y-117561289D01*
X109716083Y-117717814D01*
X109767603Y-117887653D01*
X109784999Y-118064280D01*
X109767603Y-118240907D01*
X109716083Y-118410746D01*
X109632418Y-118567271D01*
X109603088Y-118603009D01*
X109519826Y-118704466D01*
X109418369Y-118787728D01*
X109382631Y-118817058D01*
X109226106Y-118900723D01*
X109056267Y-118952243D01*
X108990082Y-118958762D01*
X108923900Y-118965280D01*
X108835380Y-118965280D01*
X108769198Y-118958762D01*
X108703013Y-118952243D01*
X108533174Y-118900723D01*
X108376649Y-118817058D01*
X108340911Y-118787728D01*
X108239454Y-118704466D01*
X108156192Y-118603009D01*
X108126862Y-118567271D01*
X108043197Y-118410746D01*
X107991677Y-118240907D01*
X107974281Y-118064280D01*
X107991677Y-117887653D01*
X108043197Y-117717814D01*
X108126862Y-117561289D01*
X108156192Y-117525551D01*
X108239454Y-117424094D01*
X108340911Y-117340832D01*
X108376649Y-117311502D01*
X108533174Y-117227837D01*
X108703013Y-117176317D01*
X108769197Y-117169799D01*
X108835380Y-117163280D01*
X108923900Y-117163280D01*
X108990083Y-117169799D01*
X108990083Y-117169799D01*
G37*
G36*
X111530083Y-117169799D02*
G01*
X111596267Y-117176317D01*
X111766106Y-117227837D01*
X111922631Y-117311502D01*
X111958369Y-117340832D01*
X112059826Y-117424094D01*
X112143088Y-117525551D01*
X112172418Y-117561289D01*
X112256083Y-117717814D01*
X112307603Y-117887653D01*
X112324999Y-118064280D01*
X112307603Y-118240907D01*
X112256083Y-118410746D01*
X112172418Y-118567271D01*
X112143088Y-118603009D01*
X112059826Y-118704466D01*
X111958369Y-118787728D01*
X111922631Y-118817058D01*
X111766106Y-118900723D01*
X111596267Y-118952243D01*
X111530082Y-118958762D01*
X111463900Y-118965280D01*
X111375380Y-118965280D01*
X111309198Y-118958762D01*
X111243013Y-118952243D01*
X111073174Y-118900723D01*
X110916649Y-118817058D01*
X110880911Y-118787728D01*
X110779454Y-118704466D01*
X110696192Y-118603009D01*
X110666862Y-118567271D01*
X110583197Y-118410746D01*
X110531677Y-118240907D01*
X110514281Y-118064280D01*
X110531677Y-117887653D01*
X110583197Y-117717814D01*
X110666862Y-117561289D01*
X110696192Y-117525551D01*
X110779454Y-117424094D01*
X110880911Y-117340832D01*
X110916649Y-117311502D01*
X111073174Y-117227837D01*
X111243013Y-117176317D01*
X111309197Y-117169799D01*
X111375380Y-117163280D01*
X111463900Y-117163280D01*
X111530083Y-117169799D01*
X111530083Y-117169799D01*
G37*
G36*
X114070083Y-117169799D02*
G01*
X114136267Y-117176317D01*
X114306106Y-117227837D01*
X114462631Y-117311502D01*
X114498369Y-117340832D01*
X114599826Y-117424094D01*
X114683088Y-117525551D01*
X114712418Y-117561289D01*
X114796083Y-117717814D01*
X114847603Y-117887653D01*
X114864999Y-118064280D01*
X114847603Y-118240907D01*
X114796083Y-118410746D01*
X114712418Y-118567271D01*
X114683088Y-118603009D01*
X114599826Y-118704466D01*
X114498369Y-118787728D01*
X114462631Y-118817058D01*
X114306106Y-118900723D01*
X114136267Y-118952243D01*
X114070082Y-118958762D01*
X114003900Y-118965280D01*
X113915380Y-118965280D01*
X113849198Y-118958762D01*
X113783013Y-118952243D01*
X113613174Y-118900723D01*
X113456649Y-118817058D01*
X113420911Y-118787728D01*
X113319454Y-118704466D01*
X113236192Y-118603009D01*
X113206862Y-118567271D01*
X113123197Y-118410746D01*
X113071677Y-118240907D01*
X113054281Y-118064280D01*
X113071677Y-117887653D01*
X113123197Y-117717814D01*
X113206862Y-117561289D01*
X113236192Y-117525551D01*
X113319454Y-117424094D01*
X113420911Y-117340832D01*
X113456649Y-117311502D01*
X113613174Y-117227837D01*
X113783013Y-117176317D01*
X113849197Y-117169799D01*
X113915380Y-117163280D01*
X114003900Y-117163280D01*
X114070083Y-117169799D01*
X114070083Y-117169799D01*
G37*
G36*
X116610083Y-117169799D02*
G01*
X116676267Y-117176317D01*
X116846106Y-117227837D01*
X117002631Y-117311502D01*
X117038369Y-117340832D01*
X117139826Y-117424094D01*
X117223088Y-117525551D01*
X117252418Y-117561289D01*
X117336083Y-117717814D01*
X117387603Y-117887653D01*
X117404999Y-118064280D01*
X117387603Y-118240907D01*
X117336083Y-118410746D01*
X117252418Y-118567271D01*
X117223088Y-118603009D01*
X117139826Y-118704466D01*
X117038369Y-118787728D01*
X117002631Y-118817058D01*
X116846106Y-118900723D01*
X116676267Y-118952243D01*
X116610082Y-118958762D01*
X116543900Y-118965280D01*
X116455380Y-118965280D01*
X116389198Y-118958762D01*
X116323013Y-118952243D01*
X116153174Y-118900723D01*
X115996649Y-118817058D01*
X115960911Y-118787728D01*
X115859454Y-118704466D01*
X115776192Y-118603009D01*
X115746862Y-118567271D01*
X115663197Y-118410746D01*
X115611677Y-118240907D01*
X115594281Y-118064280D01*
X115611677Y-117887653D01*
X115663197Y-117717814D01*
X115746862Y-117561289D01*
X115776192Y-117525551D01*
X115859454Y-117424094D01*
X115960911Y-117340832D01*
X115996649Y-117311502D01*
X116153174Y-117227837D01*
X116323013Y-117176317D01*
X116389197Y-117169799D01*
X116455380Y-117163280D01*
X116543900Y-117163280D01*
X116610083Y-117169799D01*
X116610083Y-117169799D01*
G37*
G36*
X119150083Y-117169799D02*
G01*
X119216267Y-117176317D01*
X119386106Y-117227837D01*
X119542631Y-117311502D01*
X119578369Y-117340832D01*
X119679826Y-117424094D01*
X119763088Y-117525551D01*
X119792418Y-117561289D01*
X119876083Y-117717814D01*
X119927603Y-117887653D01*
X119944999Y-118064280D01*
X119927603Y-118240907D01*
X119876083Y-118410746D01*
X119792418Y-118567271D01*
X119763088Y-118603009D01*
X119679826Y-118704466D01*
X119578369Y-118787728D01*
X119542631Y-118817058D01*
X119386106Y-118900723D01*
X119216267Y-118952243D01*
X119150082Y-118958762D01*
X119083900Y-118965280D01*
X118995380Y-118965280D01*
X118929198Y-118958762D01*
X118863013Y-118952243D01*
X118693174Y-118900723D01*
X118536649Y-118817058D01*
X118500911Y-118787728D01*
X118399454Y-118704466D01*
X118316192Y-118603009D01*
X118286862Y-118567271D01*
X118203197Y-118410746D01*
X118151677Y-118240907D01*
X118134281Y-118064280D01*
X118151677Y-117887653D01*
X118203197Y-117717814D01*
X118286862Y-117561289D01*
X118316192Y-117525551D01*
X118399454Y-117424094D01*
X118500911Y-117340832D01*
X118536649Y-117311502D01*
X118693174Y-117227837D01*
X118863013Y-117176317D01*
X118929197Y-117169799D01*
X118995380Y-117163280D01*
X119083900Y-117163280D01*
X119150083Y-117169799D01*
X119150083Y-117169799D01*
G37*
G36*
X121690083Y-117169799D02*
G01*
X121756267Y-117176317D01*
X121926106Y-117227837D01*
X122082631Y-117311502D01*
X122118369Y-117340832D01*
X122219826Y-117424094D01*
X122303088Y-117525551D01*
X122332418Y-117561289D01*
X122416083Y-117717814D01*
X122467603Y-117887653D01*
X122484999Y-118064280D01*
X122467603Y-118240907D01*
X122416083Y-118410746D01*
X122332418Y-118567271D01*
X122303088Y-118603009D01*
X122219826Y-118704466D01*
X122118369Y-118787728D01*
X122082631Y-118817058D01*
X121926106Y-118900723D01*
X121756267Y-118952243D01*
X121690082Y-118958762D01*
X121623900Y-118965280D01*
X121535380Y-118965280D01*
X121469198Y-118958762D01*
X121403013Y-118952243D01*
X121233174Y-118900723D01*
X121076649Y-118817058D01*
X121040911Y-118787728D01*
X120939454Y-118704466D01*
X120856192Y-118603009D01*
X120826862Y-118567271D01*
X120743197Y-118410746D01*
X120691677Y-118240907D01*
X120674281Y-118064280D01*
X120691677Y-117887653D01*
X120743197Y-117717814D01*
X120826862Y-117561289D01*
X120856192Y-117525551D01*
X120939454Y-117424094D01*
X121040911Y-117340832D01*
X121076649Y-117311502D01*
X121233174Y-117227837D01*
X121403013Y-117176317D01*
X121469197Y-117169799D01*
X121535380Y-117163280D01*
X121623900Y-117163280D01*
X121690083Y-117169799D01*
X121690083Y-117169799D01*
G37*
G36*
X124230083Y-117169799D02*
G01*
X124296267Y-117176317D01*
X124466106Y-117227837D01*
X124622631Y-117311502D01*
X124658369Y-117340832D01*
X124759826Y-117424094D01*
X124843088Y-117525551D01*
X124872418Y-117561289D01*
X124956083Y-117717814D01*
X125007603Y-117887653D01*
X125024999Y-118064280D01*
X125007603Y-118240907D01*
X124956083Y-118410746D01*
X124872418Y-118567271D01*
X124843088Y-118603009D01*
X124759826Y-118704466D01*
X124658369Y-118787728D01*
X124622631Y-118817058D01*
X124466106Y-118900723D01*
X124296267Y-118952243D01*
X124230082Y-118958762D01*
X124163900Y-118965280D01*
X124075380Y-118965280D01*
X124009198Y-118958762D01*
X123943013Y-118952243D01*
X123773174Y-118900723D01*
X123616649Y-118817058D01*
X123580911Y-118787728D01*
X123479454Y-118704466D01*
X123396192Y-118603009D01*
X123366862Y-118567271D01*
X123283197Y-118410746D01*
X123231677Y-118240907D01*
X123214281Y-118064280D01*
X123231677Y-117887653D01*
X123283197Y-117717814D01*
X123366862Y-117561289D01*
X123396192Y-117525551D01*
X123479454Y-117424094D01*
X123580911Y-117340832D01*
X123616649Y-117311502D01*
X123773174Y-117227837D01*
X123943013Y-117176317D01*
X124009197Y-117169799D01*
X124075380Y-117163280D01*
X124163900Y-117163280D01*
X124230083Y-117169799D01*
X124230083Y-117169799D01*
G37*
G36*
X126770083Y-117169799D02*
G01*
X126836267Y-117176317D01*
X127006106Y-117227837D01*
X127162631Y-117311502D01*
X127198369Y-117340832D01*
X127299826Y-117424094D01*
X127383088Y-117525551D01*
X127412418Y-117561289D01*
X127496083Y-117717814D01*
X127547603Y-117887653D01*
X127564999Y-118064280D01*
X127547603Y-118240907D01*
X127496083Y-118410746D01*
X127412418Y-118567271D01*
X127383088Y-118603009D01*
X127299826Y-118704466D01*
X127198369Y-118787728D01*
X127162631Y-118817058D01*
X127006106Y-118900723D01*
X126836267Y-118952243D01*
X126770082Y-118958762D01*
X126703900Y-118965280D01*
X126615380Y-118965280D01*
X126549198Y-118958762D01*
X126483013Y-118952243D01*
X126313174Y-118900723D01*
X126156649Y-118817058D01*
X126120911Y-118787728D01*
X126019454Y-118704466D01*
X125936192Y-118603009D01*
X125906862Y-118567271D01*
X125823197Y-118410746D01*
X125771677Y-118240907D01*
X125754281Y-118064280D01*
X125771677Y-117887653D01*
X125823197Y-117717814D01*
X125906862Y-117561289D01*
X125936192Y-117525551D01*
X126019454Y-117424094D01*
X126120911Y-117340832D01*
X126156649Y-117311502D01*
X126313174Y-117227837D01*
X126483013Y-117176317D01*
X126549197Y-117169799D01*
X126615380Y-117163280D01*
X126703900Y-117163280D01*
X126770083Y-117169799D01*
X126770083Y-117169799D01*
G37*
G36*
X129310083Y-117169799D02*
G01*
X129376267Y-117176317D01*
X129546106Y-117227837D01*
X129702631Y-117311502D01*
X129738369Y-117340832D01*
X129839826Y-117424094D01*
X129923088Y-117525551D01*
X129952418Y-117561289D01*
X130036083Y-117717814D01*
X130087603Y-117887653D01*
X130104999Y-118064280D01*
X130087603Y-118240907D01*
X130036083Y-118410746D01*
X129952418Y-118567271D01*
X129923088Y-118603009D01*
X129839826Y-118704466D01*
X129738369Y-118787728D01*
X129702631Y-118817058D01*
X129546106Y-118900723D01*
X129376267Y-118952243D01*
X129310082Y-118958762D01*
X129243900Y-118965280D01*
X129155380Y-118965280D01*
X129089198Y-118958762D01*
X129023013Y-118952243D01*
X128853174Y-118900723D01*
X128696649Y-118817058D01*
X128660911Y-118787728D01*
X128559454Y-118704466D01*
X128476192Y-118603009D01*
X128446862Y-118567271D01*
X128363197Y-118410746D01*
X128311677Y-118240907D01*
X128294281Y-118064280D01*
X128311677Y-117887653D01*
X128363197Y-117717814D01*
X128446862Y-117561289D01*
X128476192Y-117525551D01*
X128559454Y-117424094D01*
X128660911Y-117340832D01*
X128696649Y-117311502D01*
X128853174Y-117227837D01*
X129023013Y-117176317D01*
X129089197Y-117169799D01*
X129155380Y-117163280D01*
X129243900Y-117163280D01*
X129310083Y-117169799D01*
X129310083Y-117169799D01*
G37*
G36*
X131850083Y-117169799D02*
G01*
X131916267Y-117176317D01*
X132086106Y-117227837D01*
X132242631Y-117311502D01*
X132278369Y-117340832D01*
X132379826Y-117424094D01*
X132463088Y-117525551D01*
X132492418Y-117561289D01*
X132576083Y-117717814D01*
X132627603Y-117887653D01*
X132644999Y-118064280D01*
X132627603Y-118240907D01*
X132576083Y-118410746D01*
X132492418Y-118567271D01*
X132463088Y-118603009D01*
X132379826Y-118704466D01*
X132278369Y-118787728D01*
X132242631Y-118817058D01*
X132086106Y-118900723D01*
X131916267Y-118952243D01*
X131850082Y-118958762D01*
X131783900Y-118965280D01*
X131695380Y-118965280D01*
X131629198Y-118958762D01*
X131563013Y-118952243D01*
X131393174Y-118900723D01*
X131236649Y-118817058D01*
X131200911Y-118787728D01*
X131099454Y-118704466D01*
X131016192Y-118603009D01*
X130986862Y-118567271D01*
X130903197Y-118410746D01*
X130851677Y-118240907D01*
X130834281Y-118064280D01*
X130851677Y-117887653D01*
X130903197Y-117717814D01*
X130986862Y-117561289D01*
X131016192Y-117525551D01*
X131099454Y-117424094D01*
X131200911Y-117340832D01*
X131236649Y-117311502D01*
X131393174Y-117227837D01*
X131563013Y-117176317D01*
X131629197Y-117169799D01*
X131695380Y-117163280D01*
X131783900Y-117163280D01*
X131850083Y-117169799D01*
X131850083Y-117169799D01*
G37*
G36*
X106450082Y-114629798D02*
G01*
X106516267Y-114636317D01*
X106686106Y-114687837D01*
X106842631Y-114771502D01*
X106878369Y-114800832D01*
X106979826Y-114884094D01*
X107063088Y-114985551D01*
X107092418Y-115021289D01*
X107176083Y-115177814D01*
X107227603Y-115347653D01*
X107244999Y-115524280D01*
X107227603Y-115700907D01*
X107176083Y-115870746D01*
X107092418Y-116027271D01*
X107063088Y-116063009D01*
X106979826Y-116164466D01*
X106878369Y-116247728D01*
X106842631Y-116277058D01*
X106686106Y-116360723D01*
X106516267Y-116412243D01*
X106450083Y-116418761D01*
X106383900Y-116425280D01*
X106295380Y-116425280D01*
X106229197Y-116418761D01*
X106163013Y-116412243D01*
X105993174Y-116360723D01*
X105836649Y-116277058D01*
X105800911Y-116247728D01*
X105699454Y-116164466D01*
X105616192Y-116063009D01*
X105586862Y-116027271D01*
X105503197Y-115870746D01*
X105451677Y-115700907D01*
X105434281Y-115524280D01*
X105451677Y-115347653D01*
X105503197Y-115177814D01*
X105586862Y-115021289D01*
X105616192Y-114985551D01*
X105699454Y-114884094D01*
X105800911Y-114800832D01*
X105836649Y-114771502D01*
X105993174Y-114687837D01*
X106163013Y-114636317D01*
X106229198Y-114629798D01*
X106295380Y-114623280D01*
X106383900Y-114623280D01*
X106450082Y-114629798D01*
X106450082Y-114629798D01*
G37*
G36*
X116610082Y-114629798D02*
G01*
X116676267Y-114636317D01*
X116846106Y-114687837D01*
X117002631Y-114771502D01*
X117038369Y-114800832D01*
X117139826Y-114884094D01*
X117223088Y-114985551D01*
X117252418Y-115021289D01*
X117336083Y-115177814D01*
X117387603Y-115347653D01*
X117404999Y-115524280D01*
X117387603Y-115700907D01*
X117336083Y-115870746D01*
X117252418Y-116027271D01*
X117223088Y-116063009D01*
X117139826Y-116164466D01*
X117038369Y-116247728D01*
X117002631Y-116277058D01*
X116846106Y-116360723D01*
X116676267Y-116412243D01*
X116610083Y-116418761D01*
X116543900Y-116425280D01*
X116455380Y-116425280D01*
X116389197Y-116418761D01*
X116323013Y-116412243D01*
X116153174Y-116360723D01*
X115996649Y-116277058D01*
X115960911Y-116247728D01*
X115859454Y-116164466D01*
X115776192Y-116063009D01*
X115746862Y-116027271D01*
X115663197Y-115870746D01*
X115611677Y-115700907D01*
X115594281Y-115524280D01*
X115611677Y-115347653D01*
X115663197Y-115177814D01*
X115746862Y-115021289D01*
X115776192Y-114985551D01*
X115859454Y-114884094D01*
X115960911Y-114800832D01*
X115996649Y-114771502D01*
X116153174Y-114687837D01*
X116323013Y-114636317D01*
X116389198Y-114629798D01*
X116455380Y-114623280D01*
X116543900Y-114623280D01*
X116610082Y-114629798D01*
X116610082Y-114629798D01*
G37*
G36*
X142010082Y-114629798D02*
G01*
X142076267Y-114636317D01*
X142246106Y-114687837D01*
X142402631Y-114771502D01*
X142438369Y-114800832D01*
X142539826Y-114884094D01*
X142623088Y-114985551D01*
X142652418Y-115021289D01*
X142736083Y-115177814D01*
X142787603Y-115347653D01*
X142804999Y-115524280D01*
X142787603Y-115700907D01*
X142736083Y-115870746D01*
X142652418Y-116027271D01*
X142623088Y-116063009D01*
X142539826Y-116164466D01*
X142438369Y-116247728D01*
X142402631Y-116277058D01*
X142246106Y-116360723D01*
X142076267Y-116412243D01*
X142010083Y-116418761D01*
X141943900Y-116425280D01*
X141855380Y-116425280D01*
X141789197Y-116418761D01*
X141723013Y-116412243D01*
X141553174Y-116360723D01*
X141396649Y-116277058D01*
X141360911Y-116247728D01*
X141259454Y-116164466D01*
X141176192Y-116063009D01*
X141146862Y-116027271D01*
X141063197Y-115870746D01*
X141011677Y-115700907D01*
X140994281Y-115524280D01*
X141011677Y-115347653D01*
X141063197Y-115177814D01*
X141146862Y-115021289D01*
X141176192Y-114985551D01*
X141259454Y-114884094D01*
X141360911Y-114800832D01*
X141396649Y-114771502D01*
X141553174Y-114687837D01*
X141723013Y-114636317D01*
X141789198Y-114629798D01*
X141855380Y-114623280D01*
X141943900Y-114623280D01*
X142010082Y-114629798D01*
X142010082Y-114629798D01*
G37*
G36*
X139470082Y-114629798D02*
G01*
X139536267Y-114636317D01*
X139706106Y-114687837D01*
X139862631Y-114771502D01*
X139898369Y-114800832D01*
X139999826Y-114884094D01*
X140083088Y-114985551D01*
X140112418Y-115021289D01*
X140196083Y-115177814D01*
X140247603Y-115347653D01*
X140264999Y-115524280D01*
X140247603Y-115700907D01*
X140196083Y-115870746D01*
X140112418Y-116027271D01*
X140083088Y-116063009D01*
X139999826Y-116164466D01*
X139898369Y-116247728D01*
X139862631Y-116277058D01*
X139706106Y-116360723D01*
X139536267Y-116412243D01*
X139470083Y-116418761D01*
X139403900Y-116425280D01*
X139315380Y-116425280D01*
X139249197Y-116418761D01*
X139183013Y-116412243D01*
X139013174Y-116360723D01*
X138856649Y-116277058D01*
X138820911Y-116247728D01*
X138719454Y-116164466D01*
X138636192Y-116063009D01*
X138606862Y-116027271D01*
X138523197Y-115870746D01*
X138471677Y-115700907D01*
X138454281Y-115524280D01*
X138471677Y-115347653D01*
X138523197Y-115177814D01*
X138606862Y-115021289D01*
X138636192Y-114985551D01*
X138719454Y-114884094D01*
X138820911Y-114800832D01*
X138856649Y-114771502D01*
X139013174Y-114687837D01*
X139183013Y-114636317D01*
X139249198Y-114629798D01*
X139315380Y-114623280D01*
X139403900Y-114623280D01*
X139470082Y-114629798D01*
X139470082Y-114629798D01*
G37*
G36*
X144550082Y-114629798D02*
G01*
X144616267Y-114636317D01*
X144786106Y-114687837D01*
X144942631Y-114771502D01*
X144978369Y-114800832D01*
X145079826Y-114884094D01*
X145163088Y-114985551D01*
X145192418Y-115021289D01*
X145276083Y-115177814D01*
X145327603Y-115347653D01*
X145344999Y-115524280D01*
X145327603Y-115700907D01*
X145276083Y-115870746D01*
X145192418Y-116027271D01*
X145163088Y-116063009D01*
X145079826Y-116164466D01*
X144978369Y-116247728D01*
X144942631Y-116277058D01*
X144786106Y-116360723D01*
X144616267Y-116412243D01*
X144550083Y-116418761D01*
X144483900Y-116425280D01*
X144395380Y-116425280D01*
X144329197Y-116418761D01*
X144263013Y-116412243D01*
X144093174Y-116360723D01*
X143936649Y-116277058D01*
X143900911Y-116247728D01*
X143799454Y-116164466D01*
X143716192Y-116063009D01*
X143686862Y-116027271D01*
X143603197Y-115870746D01*
X143551677Y-115700907D01*
X143534281Y-115524280D01*
X143551677Y-115347653D01*
X143603197Y-115177814D01*
X143686862Y-115021289D01*
X143716192Y-114985551D01*
X143799454Y-114884094D01*
X143900911Y-114800832D01*
X143936649Y-114771502D01*
X144093174Y-114687837D01*
X144263013Y-114636317D01*
X144329198Y-114629798D01*
X144395380Y-114623280D01*
X144483900Y-114623280D01*
X144550082Y-114629798D01*
X144550082Y-114629798D01*
G37*
G36*
X119150082Y-114629798D02*
G01*
X119216267Y-114636317D01*
X119386106Y-114687837D01*
X119542631Y-114771502D01*
X119578369Y-114800832D01*
X119679826Y-114884094D01*
X119763088Y-114985551D01*
X119792418Y-115021289D01*
X119876083Y-115177814D01*
X119927603Y-115347653D01*
X119944999Y-115524280D01*
X119927603Y-115700907D01*
X119876083Y-115870746D01*
X119792418Y-116027271D01*
X119763088Y-116063009D01*
X119679826Y-116164466D01*
X119578369Y-116247728D01*
X119542631Y-116277058D01*
X119386106Y-116360723D01*
X119216267Y-116412243D01*
X119150083Y-116418761D01*
X119083900Y-116425280D01*
X118995380Y-116425280D01*
X118929197Y-116418761D01*
X118863013Y-116412243D01*
X118693174Y-116360723D01*
X118536649Y-116277058D01*
X118500911Y-116247728D01*
X118399454Y-116164466D01*
X118316192Y-116063009D01*
X118286862Y-116027271D01*
X118203197Y-115870746D01*
X118151677Y-115700907D01*
X118134281Y-115524280D01*
X118151677Y-115347653D01*
X118203197Y-115177814D01*
X118286862Y-115021289D01*
X118316192Y-114985551D01*
X118399454Y-114884094D01*
X118500911Y-114800832D01*
X118536649Y-114771502D01*
X118693174Y-114687837D01*
X118863013Y-114636317D01*
X118929198Y-114629798D01*
X118995380Y-114623280D01*
X119083900Y-114623280D01*
X119150082Y-114629798D01*
X119150082Y-114629798D01*
G37*
G36*
X136930082Y-114629798D02*
G01*
X136996267Y-114636317D01*
X137166106Y-114687837D01*
X137322631Y-114771502D01*
X137358369Y-114800832D01*
X137459826Y-114884094D01*
X137543088Y-114985551D01*
X137572418Y-115021289D01*
X137656083Y-115177814D01*
X137707603Y-115347653D01*
X137724999Y-115524280D01*
X137707603Y-115700907D01*
X137656083Y-115870746D01*
X137572418Y-116027271D01*
X137543088Y-116063009D01*
X137459826Y-116164466D01*
X137358369Y-116247728D01*
X137322631Y-116277058D01*
X137166106Y-116360723D01*
X136996267Y-116412243D01*
X136930083Y-116418761D01*
X136863900Y-116425280D01*
X136775380Y-116425280D01*
X136709197Y-116418761D01*
X136643013Y-116412243D01*
X136473174Y-116360723D01*
X136316649Y-116277058D01*
X136280911Y-116247728D01*
X136179454Y-116164466D01*
X136096192Y-116063009D01*
X136066862Y-116027271D01*
X135983197Y-115870746D01*
X135931677Y-115700907D01*
X135914281Y-115524280D01*
X135931677Y-115347653D01*
X135983197Y-115177814D01*
X136066862Y-115021289D01*
X136096192Y-114985551D01*
X136179454Y-114884094D01*
X136280911Y-114800832D01*
X136316649Y-114771502D01*
X136473174Y-114687837D01*
X136643013Y-114636317D01*
X136709198Y-114629798D01*
X136775380Y-114623280D01*
X136863900Y-114623280D01*
X136930082Y-114629798D01*
X136930082Y-114629798D01*
G37*
G36*
X134390082Y-114629798D02*
G01*
X134456267Y-114636317D01*
X134626106Y-114687837D01*
X134782631Y-114771502D01*
X134818369Y-114800832D01*
X134919826Y-114884094D01*
X135003088Y-114985551D01*
X135032418Y-115021289D01*
X135116083Y-115177814D01*
X135167603Y-115347653D01*
X135184999Y-115524280D01*
X135167603Y-115700907D01*
X135116083Y-115870746D01*
X135032418Y-116027271D01*
X135003088Y-116063009D01*
X134919826Y-116164466D01*
X134818369Y-116247728D01*
X134782631Y-116277058D01*
X134626106Y-116360723D01*
X134456267Y-116412243D01*
X134390083Y-116418761D01*
X134323900Y-116425280D01*
X134235380Y-116425280D01*
X134169197Y-116418761D01*
X134103013Y-116412243D01*
X133933174Y-116360723D01*
X133776649Y-116277058D01*
X133740911Y-116247728D01*
X133639454Y-116164466D01*
X133556192Y-116063009D01*
X133526862Y-116027271D01*
X133443197Y-115870746D01*
X133391677Y-115700907D01*
X133374281Y-115524280D01*
X133391677Y-115347653D01*
X133443197Y-115177814D01*
X133526862Y-115021289D01*
X133556192Y-114985551D01*
X133639454Y-114884094D01*
X133740911Y-114800832D01*
X133776649Y-114771502D01*
X133933174Y-114687837D01*
X134103013Y-114636317D01*
X134169198Y-114629798D01*
X134235380Y-114623280D01*
X134323900Y-114623280D01*
X134390082Y-114629798D01*
X134390082Y-114629798D01*
G37*
G36*
X121690082Y-114629798D02*
G01*
X121756267Y-114636317D01*
X121926106Y-114687837D01*
X122082631Y-114771502D01*
X122118369Y-114800832D01*
X122219826Y-114884094D01*
X122303088Y-114985551D01*
X122332418Y-115021289D01*
X122416083Y-115177814D01*
X122467603Y-115347653D01*
X122484999Y-115524280D01*
X122467603Y-115700907D01*
X122416083Y-115870746D01*
X122332418Y-116027271D01*
X122303088Y-116063009D01*
X122219826Y-116164466D01*
X122118369Y-116247728D01*
X122082631Y-116277058D01*
X121926106Y-116360723D01*
X121756267Y-116412243D01*
X121690083Y-116418761D01*
X121623900Y-116425280D01*
X121535380Y-116425280D01*
X121469197Y-116418761D01*
X121403013Y-116412243D01*
X121233174Y-116360723D01*
X121076649Y-116277058D01*
X121040911Y-116247728D01*
X120939454Y-116164466D01*
X120856192Y-116063009D01*
X120826862Y-116027271D01*
X120743197Y-115870746D01*
X120691677Y-115700907D01*
X120674281Y-115524280D01*
X120691677Y-115347653D01*
X120743197Y-115177814D01*
X120826862Y-115021289D01*
X120856192Y-114985551D01*
X120939454Y-114884094D01*
X121040911Y-114800832D01*
X121076649Y-114771502D01*
X121233174Y-114687837D01*
X121403013Y-114636317D01*
X121469198Y-114629798D01*
X121535380Y-114623280D01*
X121623900Y-114623280D01*
X121690082Y-114629798D01*
X121690082Y-114629798D01*
G37*
G36*
X131850082Y-114629798D02*
G01*
X131916267Y-114636317D01*
X132086106Y-114687837D01*
X132242631Y-114771502D01*
X132278369Y-114800832D01*
X132379826Y-114884094D01*
X132463088Y-114985551D01*
X132492418Y-115021289D01*
X132576083Y-115177814D01*
X132627603Y-115347653D01*
X132644999Y-115524280D01*
X132627603Y-115700907D01*
X132576083Y-115870746D01*
X132492418Y-116027271D01*
X132463088Y-116063009D01*
X132379826Y-116164466D01*
X132278369Y-116247728D01*
X132242631Y-116277058D01*
X132086106Y-116360723D01*
X131916267Y-116412243D01*
X131850083Y-116418761D01*
X131783900Y-116425280D01*
X131695380Y-116425280D01*
X131629197Y-116418761D01*
X131563013Y-116412243D01*
X131393174Y-116360723D01*
X131236649Y-116277058D01*
X131200911Y-116247728D01*
X131099454Y-116164466D01*
X131016192Y-116063009D01*
X130986862Y-116027271D01*
X130903197Y-115870746D01*
X130851677Y-115700907D01*
X130834281Y-115524280D01*
X130851677Y-115347653D01*
X130903197Y-115177814D01*
X130986862Y-115021289D01*
X131016192Y-114985551D01*
X131099454Y-114884094D01*
X131200911Y-114800832D01*
X131236649Y-114771502D01*
X131393174Y-114687837D01*
X131563013Y-114636317D01*
X131629198Y-114629798D01*
X131695380Y-114623280D01*
X131783900Y-114623280D01*
X131850082Y-114629798D01*
X131850082Y-114629798D01*
G37*
G36*
X129310082Y-114629798D02*
G01*
X129376267Y-114636317D01*
X129546106Y-114687837D01*
X129702631Y-114771502D01*
X129738369Y-114800832D01*
X129839826Y-114884094D01*
X129923088Y-114985551D01*
X129952418Y-115021289D01*
X130036083Y-115177814D01*
X130087603Y-115347653D01*
X130104999Y-115524280D01*
X130087603Y-115700907D01*
X130036083Y-115870746D01*
X129952418Y-116027271D01*
X129923088Y-116063009D01*
X129839826Y-116164466D01*
X129738369Y-116247728D01*
X129702631Y-116277058D01*
X129546106Y-116360723D01*
X129376267Y-116412243D01*
X129310083Y-116418761D01*
X129243900Y-116425280D01*
X129155380Y-116425280D01*
X129089197Y-116418761D01*
X129023013Y-116412243D01*
X128853174Y-116360723D01*
X128696649Y-116277058D01*
X128660911Y-116247728D01*
X128559454Y-116164466D01*
X128476192Y-116063009D01*
X128446862Y-116027271D01*
X128363197Y-115870746D01*
X128311677Y-115700907D01*
X128294281Y-115524280D01*
X128311677Y-115347653D01*
X128363197Y-115177814D01*
X128446862Y-115021289D01*
X128476192Y-114985551D01*
X128559454Y-114884094D01*
X128660911Y-114800832D01*
X128696649Y-114771502D01*
X128853174Y-114687837D01*
X129023013Y-114636317D01*
X129089198Y-114629798D01*
X129155380Y-114623280D01*
X129243900Y-114623280D01*
X129310082Y-114629798D01*
X129310082Y-114629798D01*
G37*
G36*
X124230082Y-114629798D02*
G01*
X124296267Y-114636317D01*
X124466106Y-114687837D01*
X124622631Y-114771502D01*
X124658369Y-114800832D01*
X124759826Y-114884094D01*
X124843088Y-114985551D01*
X124872418Y-115021289D01*
X124956083Y-115177814D01*
X125007603Y-115347653D01*
X125024999Y-115524280D01*
X125007603Y-115700907D01*
X124956083Y-115870746D01*
X124872418Y-116027271D01*
X124843088Y-116063009D01*
X124759826Y-116164466D01*
X124658369Y-116247728D01*
X124622631Y-116277058D01*
X124466106Y-116360723D01*
X124296267Y-116412243D01*
X124230083Y-116418761D01*
X124163900Y-116425280D01*
X124075380Y-116425280D01*
X124009197Y-116418761D01*
X123943013Y-116412243D01*
X123773174Y-116360723D01*
X123616649Y-116277058D01*
X123580911Y-116247728D01*
X123479454Y-116164466D01*
X123396192Y-116063009D01*
X123366862Y-116027271D01*
X123283197Y-115870746D01*
X123231677Y-115700907D01*
X123214281Y-115524280D01*
X123231677Y-115347653D01*
X123283197Y-115177814D01*
X123366862Y-115021289D01*
X123396192Y-114985551D01*
X123479454Y-114884094D01*
X123580911Y-114800832D01*
X123616649Y-114771502D01*
X123773174Y-114687837D01*
X123943013Y-114636317D01*
X124009198Y-114629798D01*
X124075380Y-114623280D01*
X124163900Y-114623280D01*
X124230082Y-114629798D01*
X124230082Y-114629798D01*
G37*
G36*
X126770082Y-114629798D02*
G01*
X126836267Y-114636317D01*
X127006106Y-114687837D01*
X127162631Y-114771502D01*
X127198369Y-114800832D01*
X127299826Y-114884094D01*
X127383088Y-114985551D01*
X127412418Y-115021289D01*
X127496083Y-115177814D01*
X127547603Y-115347653D01*
X127564999Y-115524280D01*
X127547603Y-115700907D01*
X127496083Y-115870746D01*
X127412418Y-116027271D01*
X127383088Y-116063009D01*
X127299826Y-116164466D01*
X127198369Y-116247728D01*
X127162631Y-116277058D01*
X127006106Y-116360723D01*
X126836267Y-116412243D01*
X126770083Y-116418761D01*
X126703900Y-116425280D01*
X126615380Y-116425280D01*
X126549197Y-116418761D01*
X126483013Y-116412243D01*
X126313174Y-116360723D01*
X126156649Y-116277058D01*
X126120911Y-116247728D01*
X126019454Y-116164466D01*
X125936192Y-116063009D01*
X125906862Y-116027271D01*
X125823197Y-115870746D01*
X125771677Y-115700907D01*
X125754281Y-115524280D01*
X125771677Y-115347653D01*
X125823197Y-115177814D01*
X125906862Y-115021289D01*
X125936192Y-114985551D01*
X126019454Y-114884094D01*
X126120911Y-114800832D01*
X126156649Y-114771502D01*
X126313174Y-114687837D01*
X126483013Y-114636317D01*
X126549198Y-114629798D01*
X126615380Y-114623280D01*
X126703900Y-114623280D01*
X126770082Y-114629798D01*
X126770082Y-114629798D01*
G37*
G36*
X114070082Y-114629798D02*
G01*
X114136267Y-114636317D01*
X114306106Y-114687837D01*
X114462631Y-114771502D01*
X114498369Y-114800832D01*
X114599826Y-114884094D01*
X114683088Y-114985551D01*
X114712418Y-115021289D01*
X114796083Y-115177814D01*
X114847603Y-115347653D01*
X114864999Y-115524280D01*
X114847603Y-115700907D01*
X114796083Y-115870746D01*
X114712418Y-116027271D01*
X114683088Y-116063009D01*
X114599826Y-116164466D01*
X114498369Y-116247728D01*
X114462631Y-116277058D01*
X114306106Y-116360723D01*
X114136267Y-116412243D01*
X114070083Y-116418761D01*
X114003900Y-116425280D01*
X113915380Y-116425280D01*
X113849197Y-116418761D01*
X113783013Y-116412243D01*
X113613174Y-116360723D01*
X113456649Y-116277058D01*
X113420911Y-116247728D01*
X113319454Y-116164466D01*
X113236192Y-116063009D01*
X113206862Y-116027271D01*
X113123197Y-115870746D01*
X113071677Y-115700907D01*
X113054281Y-115524280D01*
X113071677Y-115347653D01*
X113123197Y-115177814D01*
X113206862Y-115021289D01*
X113236192Y-114985551D01*
X113319454Y-114884094D01*
X113420911Y-114800832D01*
X113456649Y-114771502D01*
X113613174Y-114687837D01*
X113783013Y-114636317D01*
X113849198Y-114629798D01*
X113915380Y-114623280D01*
X114003900Y-114623280D01*
X114070082Y-114629798D01*
X114070082Y-114629798D01*
G37*
G36*
X149630082Y-114629798D02*
G01*
X149696267Y-114636317D01*
X149866106Y-114687837D01*
X150022631Y-114771502D01*
X150058369Y-114800832D01*
X150159826Y-114884094D01*
X150243088Y-114985551D01*
X150272418Y-115021289D01*
X150356083Y-115177814D01*
X150407603Y-115347653D01*
X150424999Y-115524280D01*
X150407603Y-115700907D01*
X150356083Y-115870746D01*
X150272418Y-116027271D01*
X150243088Y-116063009D01*
X150159826Y-116164466D01*
X150058369Y-116247728D01*
X150022631Y-116277058D01*
X149866106Y-116360723D01*
X149696267Y-116412243D01*
X149630083Y-116418761D01*
X149563900Y-116425280D01*
X149475380Y-116425280D01*
X149409197Y-116418761D01*
X149343013Y-116412243D01*
X149173174Y-116360723D01*
X149016649Y-116277058D01*
X148980911Y-116247728D01*
X148879454Y-116164466D01*
X148796192Y-116063009D01*
X148766862Y-116027271D01*
X148683197Y-115870746D01*
X148631677Y-115700907D01*
X148614281Y-115524280D01*
X148631677Y-115347653D01*
X148683197Y-115177814D01*
X148766862Y-115021289D01*
X148796192Y-114985551D01*
X148879454Y-114884094D01*
X148980911Y-114800832D01*
X149016649Y-114771502D01*
X149173174Y-114687837D01*
X149343013Y-114636317D01*
X149409198Y-114629798D01*
X149475380Y-114623280D01*
X149563900Y-114623280D01*
X149630082Y-114629798D01*
X149630082Y-114629798D01*
G37*
G36*
X168200640Y-116425280D02*
G01*
X166398640Y-116425280D01*
X166398640Y-114623280D01*
X168200640Y-114623280D01*
X168200640Y-116425280D01*
X168200640Y-116425280D01*
G37*
G36*
X103910082Y-114629798D02*
G01*
X103976267Y-114636317D01*
X104146106Y-114687837D01*
X104302631Y-114771502D01*
X104338369Y-114800832D01*
X104439826Y-114884094D01*
X104523088Y-114985551D01*
X104552418Y-115021289D01*
X104636083Y-115177814D01*
X104687603Y-115347653D01*
X104704999Y-115524280D01*
X104687603Y-115700907D01*
X104636083Y-115870746D01*
X104552418Y-116027271D01*
X104523088Y-116063009D01*
X104439826Y-116164466D01*
X104338369Y-116247728D01*
X104302631Y-116277058D01*
X104146106Y-116360723D01*
X103976267Y-116412243D01*
X103910083Y-116418761D01*
X103843900Y-116425280D01*
X103755380Y-116425280D01*
X103689197Y-116418761D01*
X103623013Y-116412243D01*
X103453174Y-116360723D01*
X103296649Y-116277058D01*
X103260911Y-116247728D01*
X103159454Y-116164466D01*
X103076192Y-116063009D01*
X103046862Y-116027271D01*
X102963197Y-115870746D01*
X102911677Y-115700907D01*
X102894281Y-115524280D01*
X102911677Y-115347653D01*
X102963197Y-115177814D01*
X103046862Y-115021289D01*
X103076192Y-114985551D01*
X103159454Y-114884094D01*
X103260911Y-114800832D01*
X103296649Y-114771502D01*
X103453174Y-114687837D01*
X103623013Y-114636317D01*
X103689198Y-114629798D01*
X103755380Y-114623280D01*
X103843900Y-114623280D01*
X103910082Y-114629798D01*
X103910082Y-114629798D01*
G37*
G36*
X164870082Y-114629798D02*
G01*
X164936267Y-114636317D01*
X165106106Y-114687837D01*
X165262631Y-114771502D01*
X165298369Y-114800832D01*
X165399826Y-114884094D01*
X165483088Y-114985551D01*
X165512418Y-115021289D01*
X165596083Y-115177814D01*
X165647603Y-115347653D01*
X165664999Y-115524280D01*
X165647603Y-115700907D01*
X165596083Y-115870746D01*
X165512418Y-116027271D01*
X165483088Y-116063009D01*
X165399826Y-116164466D01*
X165298369Y-116247728D01*
X165262631Y-116277058D01*
X165106106Y-116360723D01*
X164936267Y-116412243D01*
X164870083Y-116418761D01*
X164803900Y-116425280D01*
X164715380Y-116425280D01*
X164649197Y-116418761D01*
X164583013Y-116412243D01*
X164413174Y-116360723D01*
X164256649Y-116277058D01*
X164220911Y-116247728D01*
X164119454Y-116164466D01*
X164036192Y-116063009D01*
X164006862Y-116027271D01*
X163923197Y-115870746D01*
X163871677Y-115700907D01*
X163854281Y-115524280D01*
X163871677Y-115347653D01*
X163923197Y-115177814D01*
X164006862Y-115021289D01*
X164036192Y-114985551D01*
X164119454Y-114884094D01*
X164220911Y-114800832D01*
X164256649Y-114771502D01*
X164413174Y-114687837D01*
X164583013Y-114636317D01*
X164649198Y-114629798D01*
X164715380Y-114623280D01*
X164803900Y-114623280D01*
X164870082Y-114629798D01*
X164870082Y-114629798D01*
G37*
G36*
X162330082Y-114629798D02*
G01*
X162396267Y-114636317D01*
X162566106Y-114687837D01*
X162722631Y-114771502D01*
X162758369Y-114800832D01*
X162859826Y-114884094D01*
X162943088Y-114985551D01*
X162972418Y-115021289D01*
X163056083Y-115177814D01*
X163107603Y-115347653D01*
X163124999Y-115524280D01*
X163107603Y-115700907D01*
X163056083Y-115870746D01*
X162972418Y-116027271D01*
X162943088Y-116063009D01*
X162859826Y-116164466D01*
X162758369Y-116247728D01*
X162722631Y-116277058D01*
X162566106Y-116360723D01*
X162396267Y-116412243D01*
X162330083Y-116418761D01*
X162263900Y-116425280D01*
X162175380Y-116425280D01*
X162109197Y-116418761D01*
X162043013Y-116412243D01*
X161873174Y-116360723D01*
X161716649Y-116277058D01*
X161680911Y-116247728D01*
X161579454Y-116164466D01*
X161496192Y-116063009D01*
X161466862Y-116027271D01*
X161383197Y-115870746D01*
X161331677Y-115700907D01*
X161314281Y-115524280D01*
X161331677Y-115347653D01*
X161383197Y-115177814D01*
X161466862Y-115021289D01*
X161496192Y-114985551D01*
X161579454Y-114884094D01*
X161680911Y-114800832D01*
X161716649Y-114771502D01*
X161873174Y-114687837D01*
X162043013Y-114636317D01*
X162109198Y-114629798D01*
X162175380Y-114623280D01*
X162263900Y-114623280D01*
X162330082Y-114629798D01*
X162330082Y-114629798D01*
G37*
G36*
X159790082Y-114629798D02*
G01*
X159856267Y-114636317D01*
X160026106Y-114687837D01*
X160182631Y-114771502D01*
X160218369Y-114800832D01*
X160319826Y-114884094D01*
X160403088Y-114985551D01*
X160432418Y-115021289D01*
X160516083Y-115177814D01*
X160567603Y-115347653D01*
X160584999Y-115524280D01*
X160567603Y-115700907D01*
X160516083Y-115870746D01*
X160432418Y-116027271D01*
X160403088Y-116063009D01*
X160319826Y-116164466D01*
X160218369Y-116247728D01*
X160182631Y-116277058D01*
X160026106Y-116360723D01*
X159856267Y-116412243D01*
X159790083Y-116418761D01*
X159723900Y-116425280D01*
X159635380Y-116425280D01*
X159569197Y-116418761D01*
X159503013Y-116412243D01*
X159333174Y-116360723D01*
X159176649Y-116277058D01*
X159140911Y-116247728D01*
X159039454Y-116164466D01*
X158956192Y-116063009D01*
X158926862Y-116027271D01*
X158843197Y-115870746D01*
X158791677Y-115700907D01*
X158774281Y-115524280D01*
X158791677Y-115347653D01*
X158843197Y-115177814D01*
X158926862Y-115021289D01*
X158956192Y-114985551D01*
X159039454Y-114884094D01*
X159140911Y-114800832D01*
X159176649Y-114771502D01*
X159333174Y-114687837D01*
X159503013Y-114636317D01*
X159569198Y-114629798D01*
X159635380Y-114623280D01*
X159723900Y-114623280D01*
X159790082Y-114629798D01*
X159790082Y-114629798D01*
G37*
G36*
X147090082Y-114629798D02*
G01*
X147156267Y-114636317D01*
X147326106Y-114687837D01*
X147482631Y-114771502D01*
X147518369Y-114800832D01*
X147619826Y-114884094D01*
X147703088Y-114985551D01*
X147732418Y-115021289D01*
X147816083Y-115177814D01*
X147867603Y-115347653D01*
X147884999Y-115524280D01*
X147867603Y-115700907D01*
X147816083Y-115870746D01*
X147732418Y-116027271D01*
X147703088Y-116063009D01*
X147619826Y-116164466D01*
X147518369Y-116247728D01*
X147482631Y-116277058D01*
X147326106Y-116360723D01*
X147156267Y-116412243D01*
X147090083Y-116418761D01*
X147023900Y-116425280D01*
X146935380Y-116425280D01*
X146869197Y-116418761D01*
X146803013Y-116412243D01*
X146633174Y-116360723D01*
X146476649Y-116277058D01*
X146440911Y-116247728D01*
X146339454Y-116164466D01*
X146256192Y-116063009D01*
X146226862Y-116027271D01*
X146143197Y-115870746D01*
X146091677Y-115700907D01*
X146074281Y-115524280D01*
X146091677Y-115347653D01*
X146143197Y-115177814D01*
X146226862Y-115021289D01*
X146256192Y-114985551D01*
X146339454Y-114884094D01*
X146440911Y-114800832D01*
X146476649Y-114771502D01*
X146633174Y-114687837D01*
X146803013Y-114636317D01*
X146869198Y-114629798D01*
X146935380Y-114623280D01*
X147023900Y-114623280D01*
X147090082Y-114629798D01*
X147090082Y-114629798D01*
G37*
G36*
X157250082Y-114629798D02*
G01*
X157316267Y-114636317D01*
X157486106Y-114687837D01*
X157642631Y-114771502D01*
X157678369Y-114800832D01*
X157779826Y-114884094D01*
X157863088Y-114985551D01*
X157892418Y-115021289D01*
X157976083Y-115177814D01*
X158027603Y-115347653D01*
X158044999Y-115524280D01*
X158027603Y-115700907D01*
X157976083Y-115870746D01*
X157892418Y-116027271D01*
X157863088Y-116063009D01*
X157779826Y-116164466D01*
X157678369Y-116247728D01*
X157642631Y-116277058D01*
X157486106Y-116360723D01*
X157316267Y-116412243D01*
X157250083Y-116418761D01*
X157183900Y-116425280D01*
X157095380Y-116425280D01*
X157029197Y-116418761D01*
X156963013Y-116412243D01*
X156793174Y-116360723D01*
X156636649Y-116277058D01*
X156600911Y-116247728D01*
X156499454Y-116164466D01*
X156416192Y-116063009D01*
X156386862Y-116027271D01*
X156303197Y-115870746D01*
X156251677Y-115700907D01*
X156234281Y-115524280D01*
X156251677Y-115347653D01*
X156303197Y-115177814D01*
X156386862Y-115021289D01*
X156416192Y-114985551D01*
X156499454Y-114884094D01*
X156600911Y-114800832D01*
X156636649Y-114771502D01*
X156793174Y-114687837D01*
X156963013Y-114636317D01*
X157029198Y-114629798D01*
X157095380Y-114623280D01*
X157183900Y-114623280D01*
X157250082Y-114629798D01*
X157250082Y-114629798D01*
G37*
G36*
X154710082Y-114629798D02*
G01*
X154776267Y-114636317D01*
X154946106Y-114687837D01*
X155102631Y-114771502D01*
X155138369Y-114800832D01*
X155239826Y-114884094D01*
X155323088Y-114985551D01*
X155352418Y-115021289D01*
X155436083Y-115177814D01*
X155487603Y-115347653D01*
X155504999Y-115524280D01*
X155487603Y-115700907D01*
X155436083Y-115870746D01*
X155352418Y-116027271D01*
X155323088Y-116063009D01*
X155239826Y-116164466D01*
X155138369Y-116247728D01*
X155102631Y-116277058D01*
X154946106Y-116360723D01*
X154776267Y-116412243D01*
X154710083Y-116418761D01*
X154643900Y-116425280D01*
X154555380Y-116425280D01*
X154489197Y-116418761D01*
X154423013Y-116412243D01*
X154253174Y-116360723D01*
X154096649Y-116277058D01*
X154060911Y-116247728D01*
X153959454Y-116164466D01*
X153876192Y-116063009D01*
X153846862Y-116027271D01*
X153763197Y-115870746D01*
X153711677Y-115700907D01*
X153694281Y-115524280D01*
X153711677Y-115347653D01*
X153763197Y-115177814D01*
X153846862Y-115021289D01*
X153876192Y-114985551D01*
X153959454Y-114884094D01*
X154060911Y-114800832D01*
X154096649Y-114771502D01*
X154253174Y-114687837D01*
X154423013Y-114636317D01*
X154489198Y-114629798D01*
X154555380Y-114623280D01*
X154643900Y-114623280D01*
X154710082Y-114629798D01*
X154710082Y-114629798D01*
G37*
G36*
X111530082Y-114629798D02*
G01*
X111596267Y-114636317D01*
X111766106Y-114687837D01*
X111922631Y-114771502D01*
X111958369Y-114800832D01*
X112059826Y-114884094D01*
X112143088Y-114985551D01*
X112172418Y-115021289D01*
X112256083Y-115177814D01*
X112307603Y-115347653D01*
X112324999Y-115524280D01*
X112307603Y-115700907D01*
X112256083Y-115870746D01*
X112172418Y-116027271D01*
X112143088Y-116063009D01*
X112059826Y-116164466D01*
X111958369Y-116247728D01*
X111922631Y-116277058D01*
X111766106Y-116360723D01*
X111596267Y-116412243D01*
X111530083Y-116418761D01*
X111463900Y-116425280D01*
X111375380Y-116425280D01*
X111309197Y-116418761D01*
X111243013Y-116412243D01*
X111073174Y-116360723D01*
X110916649Y-116277058D01*
X110880911Y-116247728D01*
X110779454Y-116164466D01*
X110696192Y-116063009D01*
X110666862Y-116027271D01*
X110583197Y-115870746D01*
X110531677Y-115700907D01*
X110514281Y-115524280D01*
X110531677Y-115347653D01*
X110583197Y-115177814D01*
X110666862Y-115021289D01*
X110696192Y-114985551D01*
X110779454Y-114884094D01*
X110880911Y-114800832D01*
X110916649Y-114771502D01*
X111073174Y-114687837D01*
X111243013Y-114636317D01*
X111309198Y-114629798D01*
X111375380Y-114623280D01*
X111463900Y-114623280D01*
X111530082Y-114629798D01*
X111530082Y-114629798D01*
G37*
G36*
X152170082Y-114629798D02*
G01*
X152236267Y-114636317D01*
X152406106Y-114687837D01*
X152562631Y-114771502D01*
X152598369Y-114800832D01*
X152699826Y-114884094D01*
X152783088Y-114985551D01*
X152812418Y-115021289D01*
X152896083Y-115177814D01*
X152947603Y-115347653D01*
X152964999Y-115524280D01*
X152947603Y-115700907D01*
X152896083Y-115870746D01*
X152812418Y-116027271D01*
X152783088Y-116063009D01*
X152699826Y-116164466D01*
X152598369Y-116247728D01*
X152562631Y-116277058D01*
X152406106Y-116360723D01*
X152236267Y-116412243D01*
X152170083Y-116418761D01*
X152103900Y-116425280D01*
X152015380Y-116425280D01*
X151949197Y-116418761D01*
X151883013Y-116412243D01*
X151713174Y-116360723D01*
X151556649Y-116277058D01*
X151520911Y-116247728D01*
X151419454Y-116164466D01*
X151336192Y-116063009D01*
X151306862Y-116027271D01*
X151223197Y-115870746D01*
X151171677Y-115700907D01*
X151154281Y-115524280D01*
X151171677Y-115347653D01*
X151223197Y-115177814D01*
X151306862Y-115021289D01*
X151336192Y-114985551D01*
X151419454Y-114884094D01*
X151520911Y-114800832D01*
X151556649Y-114771502D01*
X151713174Y-114687837D01*
X151883013Y-114636317D01*
X151949198Y-114629798D01*
X152015380Y-114623280D01*
X152103900Y-114623280D01*
X152170082Y-114629798D01*
X152170082Y-114629798D01*
G37*
G36*
X108990082Y-114629798D02*
G01*
X109056267Y-114636317D01*
X109226106Y-114687837D01*
X109382631Y-114771502D01*
X109418369Y-114800832D01*
X109519826Y-114884094D01*
X109603088Y-114985551D01*
X109632418Y-115021289D01*
X109716083Y-115177814D01*
X109767603Y-115347653D01*
X109784999Y-115524280D01*
X109767603Y-115700907D01*
X109716083Y-115870746D01*
X109632418Y-116027271D01*
X109603088Y-116063009D01*
X109519826Y-116164466D01*
X109418369Y-116247728D01*
X109382631Y-116277058D01*
X109226106Y-116360723D01*
X109056267Y-116412243D01*
X108990083Y-116418761D01*
X108923900Y-116425280D01*
X108835380Y-116425280D01*
X108769197Y-116418761D01*
X108703013Y-116412243D01*
X108533174Y-116360723D01*
X108376649Y-116277058D01*
X108340911Y-116247728D01*
X108239454Y-116164466D01*
X108156192Y-116063009D01*
X108126862Y-116027271D01*
X108043197Y-115870746D01*
X107991677Y-115700907D01*
X107974281Y-115524280D01*
X107991677Y-115347653D01*
X108043197Y-115177814D01*
X108126862Y-115021289D01*
X108156192Y-114985551D01*
X108239454Y-114884094D01*
X108340911Y-114800832D01*
X108376649Y-114771502D01*
X108533174Y-114687837D01*
X108703013Y-114636317D01*
X108769198Y-114629798D01*
X108835380Y-114623280D01*
X108923900Y-114623280D01*
X108990082Y-114629798D01*
X108990082Y-114629798D01*
G37*
G36*
X147153387Y-100704596D02*
G01*
X147390153Y-100802668D01*
X147390155Y-100802669D01*
X147603239Y-100945047D01*
X147784453Y-101126261D01*
X147886410Y-101278850D01*
X147926832Y-101339347D01*
X148024904Y-101576113D01*
X148074900Y-101827461D01*
X148074900Y-102083739D01*
X148024904Y-102335087D01*
X147932092Y-102559155D01*
X147926831Y-102571855D01*
X147784453Y-102784939D01*
X147603239Y-102966153D01*
X147390155Y-103108531D01*
X147390154Y-103108532D01*
X147390153Y-103108532D01*
X147153387Y-103206604D01*
X146902039Y-103256600D01*
X146645761Y-103256600D01*
X146394413Y-103206604D01*
X146157647Y-103108532D01*
X146157646Y-103108532D01*
X146157645Y-103108531D01*
X145944561Y-102966153D01*
X145763347Y-102784939D01*
X145620969Y-102571855D01*
X145615708Y-102559155D01*
X145522896Y-102335087D01*
X145472900Y-102083739D01*
X145472900Y-101827461D01*
X145522896Y-101576113D01*
X145620968Y-101339347D01*
X145661391Y-101278850D01*
X145763347Y-101126261D01*
X145944561Y-100945047D01*
X146157645Y-100802669D01*
X146157647Y-100802668D01*
X146394413Y-100704596D01*
X146645761Y-100654600D01*
X146902039Y-100654600D01*
X147153387Y-100704596D01*
X147153387Y-100704596D01*
G37*
G36*
X152182587Y-100704596D02*
G01*
X152419353Y-100802668D01*
X152419355Y-100802669D01*
X152632439Y-100945047D01*
X152813653Y-101126261D01*
X152915610Y-101278850D01*
X152956032Y-101339347D01*
X153054104Y-101576113D01*
X153104100Y-101827461D01*
X153104100Y-102083739D01*
X153054104Y-102335087D01*
X152961292Y-102559155D01*
X152956031Y-102571855D01*
X152813653Y-102784939D01*
X152632439Y-102966153D01*
X152419355Y-103108531D01*
X152419354Y-103108532D01*
X152419353Y-103108532D01*
X152182587Y-103206604D01*
X151931239Y-103256600D01*
X151674961Y-103256600D01*
X151423613Y-103206604D01*
X151186847Y-103108532D01*
X151186846Y-103108532D01*
X151186845Y-103108531D01*
X150973761Y-102966153D01*
X150792547Y-102784939D01*
X150650169Y-102571855D01*
X150644908Y-102559155D01*
X150552096Y-102335087D01*
X150502100Y-102083739D01*
X150502100Y-101827461D01*
X150552096Y-101576113D01*
X150650168Y-101339347D01*
X150690591Y-101278850D01*
X150792547Y-101126261D01*
X150973761Y-100945047D01*
X151186845Y-100802669D01*
X151186847Y-100802668D01*
X151423613Y-100704596D01*
X151674961Y-100654600D01*
X151931239Y-100654600D01*
X152182587Y-100704596D01*
X152182587Y-100704596D01*
G37*
G36*
X157160987Y-100704596D02*
G01*
X157397753Y-100802668D01*
X157397755Y-100802669D01*
X157610839Y-100945047D01*
X157792053Y-101126261D01*
X157894010Y-101278850D01*
X157934432Y-101339347D01*
X158032504Y-101576113D01*
X158082500Y-101827461D01*
X158082500Y-102083739D01*
X158032504Y-102335087D01*
X157939692Y-102559155D01*
X157934431Y-102571855D01*
X157792053Y-102784939D01*
X157610839Y-102966153D01*
X157397755Y-103108531D01*
X157397754Y-103108532D01*
X157397753Y-103108532D01*
X157160987Y-103206604D01*
X156909639Y-103256600D01*
X156653361Y-103256600D01*
X156402013Y-103206604D01*
X156165247Y-103108532D01*
X156165246Y-103108532D01*
X156165245Y-103108531D01*
X155952161Y-102966153D01*
X155770947Y-102784939D01*
X155628569Y-102571855D01*
X155623308Y-102559155D01*
X155530496Y-102335087D01*
X155480500Y-102083739D01*
X155480500Y-101827461D01*
X155530496Y-101576113D01*
X155628568Y-101339347D01*
X155668991Y-101278850D01*
X155770947Y-101126261D01*
X155952161Y-100945047D01*
X156165245Y-100802669D01*
X156165247Y-100802668D01*
X156402013Y-100704596D01*
X156653361Y-100654600D01*
X156909639Y-100654600D01*
X157160987Y-100704596D01*
X157160987Y-100704596D01*
G37*
G36*
X142136887Y-100691896D02*
G01*
X142373653Y-100789968D01*
X142373655Y-100789969D01*
X142535565Y-100898154D01*
X142586739Y-100932347D01*
X142767953Y-101113561D01*
X142910332Y-101326647D01*
X143008404Y-101563413D01*
X143058400Y-101814761D01*
X143058400Y-102071039D01*
X143008404Y-102322387D01*
X142935044Y-102499493D01*
X142910331Y-102559155D01*
X142767953Y-102772239D01*
X142586739Y-102953453D01*
X142373655Y-103095831D01*
X142373654Y-103095832D01*
X142373653Y-103095832D01*
X142136887Y-103193904D01*
X141885539Y-103243900D01*
X141629261Y-103243900D01*
X141377913Y-103193904D01*
X141141147Y-103095832D01*
X141141146Y-103095832D01*
X141141145Y-103095831D01*
X140928061Y-102953453D01*
X140746847Y-102772239D01*
X140604469Y-102559155D01*
X140579756Y-102499493D01*
X140506396Y-102322387D01*
X140456400Y-102071039D01*
X140456400Y-101814761D01*
X140506396Y-101563413D01*
X140604468Y-101326647D01*
X140746847Y-101113561D01*
X140928061Y-100932347D01*
X140979235Y-100898154D01*
X141141145Y-100789969D01*
X141141147Y-100789968D01*
X141377913Y-100691896D01*
X141629261Y-100641900D01*
X141885539Y-100641900D01*
X142136887Y-100691896D01*
X142136887Y-100691896D01*
G37*
G36*
X126202856Y-100515911D02*
G01*
X126330550Y-100541311D01*
X126530920Y-100624307D01*
X126711244Y-100744795D01*
X126864605Y-100898156D01*
X126985093Y-101078480D01*
X127068089Y-101278851D01*
X127105348Y-101466160D01*
X127110400Y-101491561D01*
X127110400Y-101708439D01*
X127073142Y-101895749D01*
X127068089Y-101921149D01*
X126985093Y-102121520D01*
X126864605Y-102301844D01*
X126711244Y-102455205D01*
X126530920Y-102575693D01*
X126330550Y-102658689D01*
X126245533Y-102675600D01*
X126117840Y-102701000D01*
X125900960Y-102701000D01*
X125773267Y-102675600D01*
X125688250Y-102658689D01*
X125487880Y-102575693D01*
X125307556Y-102455205D01*
X125154195Y-102301844D01*
X125033707Y-102121520D01*
X124950711Y-101921149D01*
X124945659Y-101895749D01*
X124908400Y-101708439D01*
X124908400Y-101491561D01*
X124913453Y-101466160D01*
X124950711Y-101278851D01*
X125033707Y-101078480D01*
X125154195Y-100898156D01*
X125307556Y-100744795D01*
X125487880Y-100624307D01*
X125588066Y-100582809D01*
X125688250Y-100541311D01*
X125815944Y-100515911D01*
X125900960Y-100499000D01*
X126117840Y-100499000D01*
X126202856Y-100515911D01*
X126202856Y-100515911D01*
G37*
G36*
X128742856Y-100515911D02*
G01*
X128870550Y-100541311D01*
X129070920Y-100624307D01*
X129251244Y-100744795D01*
X129404605Y-100898156D01*
X129525093Y-101078480D01*
X129608089Y-101278851D01*
X129645348Y-101466160D01*
X129650400Y-101491561D01*
X129650400Y-101708439D01*
X129613142Y-101895749D01*
X129608089Y-101921149D01*
X129525093Y-102121520D01*
X129404605Y-102301844D01*
X129251244Y-102455205D01*
X129070920Y-102575693D01*
X128870550Y-102658689D01*
X128785533Y-102675600D01*
X128657840Y-102701000D01*
X128440960Y-102701000D01*
X128313267Y-102675600D01*
X128228250Y-102658689D01*
X128027880Y-102575693D01*
X127847556Y-102455205D01*
X127694195Y-102301844D01*
X127573707Y-102121520D01*
X127490711Y-101921149D01*
X127485659Y-101895749D01*
X127448400Y-101708439D01*
X127448400Y-101491561D01*
X127453453Y-101466160D01*
X127490711Y-101278851D01*
X127573707Y-101078480D01*
X127694195Y-100898156D01*
X127847556Y-100744795D01*
X128027880Y-100624307D01*
X128128066Y-100582809D01*
X128228250Y-100541311D01*
X128355944Y-100515911D01*
X128440960Y-100499000D01*
X128657840Y-100499000D01*
X128742856Y-100515911D01*
X128742856Y-100515911D01*
G37*
G36*
X131282856Y-100515911D02*
G01*
X131410550Y-100541311D01*
X131610920Y-100624307D01*
X131791244Y-100744795D01*
X131944605Y-100898156D01*
X132065093Y-101078480D01*
X132148089Y-101278851D01*
X132185348Y-101466160D01*
X132190400Y-101491561D01*
X132190400Y-101708439D01*
X132153142Y-101895749D01*
X132148089Y-101921149D01*
X132065093Y-102121520D01*
X131944605Y-102301844D01*
X131791244Y-102455205D01*
X131610920Y-102575693D01*
X131410550Y-102658689D01*
X131325533Y-102675600D01*
X131197840Y-102701000D01*
X130980960Y-102701000D01*
X130853267Y-102675600D01*
X130768250Y-102658689D01*
X130567880Y-102575693D01*
X130387556Y-102455205D01*
X130234195Y-102301844D01*
X130113707Y-102121520D01*
X130030711Y-101921149D01*
X130025659Y-101895749D01*
X129988400Y-101708439D01*
X129988400Y-101491561D01*
X129993453Y-101466160D01*
X130030711Y-101278851D01*
X130113707Y-101078480D01*
X130234195Y-100898156D01*
X130387556Y-100744795D01*
X130567880Y-100624307D01*
X130668066Y-100582809D01*
X130768250Y-100541311D01*
X130895944Y-100515911D01*
X130980960Y-100499000D01*
X131197840Y-100499000D01*
X131282856Y-100515911D01*
X131282856Y-100515911D01*
G37*
G36*
X133822856Y-100515911D02*
G01*
X133950550Y-100541311D01*
X134150920Y-100624307D01*
X134331244Y-100744795D01*
X134484605Y-100898156D01*
X134605093Y-101078480D01*
X134688089Y-101278851D01*
X134725348Y-101466160D01*
X134730400Y-101491561D01*
X134730400Y-101708439D01*
X134693142Y-101895749D01*
X134688089Y-101921149D01*
X134605093Y-102121520D01*
X134484605Y-102301844D01*
X134331244Y-102455205D01*
X134150920Y-102575693D01*
X133950550Y-102658689D01*
X133865533Y-102675600D01*
X133737840Y-102701000D01*
X133520960Y-102701000D01*
X133393267Y-102675600D01*
X133308250Y-102658689D01*
X133107880Y-102575693D01*
X132927556Y-102455205D01*
X132774195Y-102301844D01*
X132653707Y-102121520D01*
X132570711Y-101921149D01*
X132565659Y-101895749D01*
X132528400Y-101708439D01*
X132528400Y-101491561D01*
X132533453Y-101466160D01*
X132570711Y-101278851D01*
X132653707Y-101078480D01*
X132774195Y-100898156D01*
X132927556Y-100744795D01*
X133107880Y-100624307D01*
X133208066Y-100582809D01*
X133308250Y-100541311D01*
X133435944Y-100515911D01*
X133520960Y-100499000D01*
X133737840Y-100499000D01*
X133822856Y-100515911D01*
X133822856Y-100515911D01*
G37*
G36*
X136362856Y-100515911D02*
G01*
X136490550Y-100541311D01*
X136690920Y-100624307D01*
X136871244Y-100744795D01*
X137024605Y-100898156D01*
X137145093Y-101078480D01*
X137228089Y-101278851D01*
X137265348Y-101466160D01*
X137270400Y-101491561D01*
X137270400Y-101708439D01*
X137233142Y-101895749D01*
X137228089Y-101921149D01*
X137145093Y-102121520D01*
X137024605Y-102301844D01*
X136871244Y-102455205D01*
X136690920Y-102575693D01*
X136490550Y-102658689D01*
X136405533Y-102675600D01*
X136277840Y-102701000D01*
X136060960Y-102701000D01*
X135933267Y-102675600D01*
X135848250Y-102658689D01*
X135647880Y-102575693D01*
X135467556Y-102455205D01*
X135314195Y-102301844D01*
X135193707Y-102121520D01*
X135110711Y-101921149D01*
X135105659Y-101895749D01*
X135068400Y-101708439D01*
X135068400Y-101491561D01*
X135073453Y-101466160D01*
X135110711Y-101278851D01*
X135193707Y-101078480D01*
X135314195Y-100898156D01*
X135467556Y-100744795D01*
X135647880Y-100624307D01*
X135748066Y-100582809D01*
X135848250Y-100541311D01*
X135975944Y-100515911D01*
X136060960Y-100499000D01*
X136277840Y-100499000D01*
X136362856Y-100515911D01*
X136362856Y-100515911D01*
G37*
G36*
X118604194Y-100494755D02*
G01*
X118710550Y-100515911D01*
X118810734Y-100557409D01*
X118910920Y-100598907D01*
X119091244Y-100719395D01*
X119244605Y-100872756D01*
X119365093Y-101053080D01*
X119365093Y-101053081D01*
X119448089Y-101253450D01*
X119462648Y-101326645D01*
X119490400Y-101466160D01*
X119490400Y-101683040D01*
X119448089Y-101895749D01*
X119365093Y-102096120D01*
X119244605Y-102276444D01*
X119091244Y-102429805D01*
X118910920Y-102550293D01*
X118810734Y-102591791D01*
X118710550Y-102633289D01*
X118604194Y-102654445D01*
X118497840Y-102675600D01*
X118280960Y-102675600D01*
X118174606Y-102654445D01*
X118068250Y-102633289D01*
X117867880Y-102550293D01*
X117687556Y-102429805D01*
X117534195Y-102276444D01*
X117413707Y-102096120D01*
X117330711Y-101895749D01*
X117288400Y-101683040D01*
X117288400Y-101466160D01*
X117316152Y-101326645D01*
X117330711Y-101253450D01*
X117413707Y-101053081D01*
X117413707Y-101053080D01*
X117534195Y-100872756D01*
X117687556Y-100719395D01*
X117867880Y-100598907D01*
X118068250Y-100515911D01*
X118174606Y-100494755D01*
X118280960Y-100473600D01*
X118497840Y-100473600D01*
X118604194Y-100494755D01*
X118604194Y-100494755D01*
G37*
G36*
X123684194Y-100494755D02*
G01*
X123790550Y-100515911D01*
X123890734Y-100557409D01*
X123990920Y-100598907D01*
X124171244Y-100719395D01*
X124324605Y-100872756D01*
X124445093Y-101053080D01*
X124445093Y-101053081D01*
X124528089Y-101253450D01*
X124542648Y-101326645D01*
X124570400Y-101466160D01*
X124570400Y-101683040D01*
X124528089Y-101895749D01*
X124445093Y-102096120D01*
X124324605Y-102276444D01*
X124171244Y-102429805D01*
X123990920Y-102550293D01*
X123890734Y-102591791D01*
X123790550Y-102633289D01*
X123684194Y-102654445D01*
X123577840Y-102675600D01*
X123360960Y-102675600D01*
X123254606Y-102654445D01*
X123148250Y-102633289D01*
X122947880Y-102550293D01*
X122767556Y-102429805D01*
X122614195Y-102276444D01*
X122493707Y-102096120D01*
X122410711Y-101895749D01*
X122368400Y-101683040D01*
X122368400Y-101466160D01*
X122396152Y-101326645D01*
X122410711Y-101253450D01*
X122493707Y-101053081D01*
X122493707Y-101053080D01*
X122614195Y-100872756D01*
X122767556Y-100719395D01*
X122947880Y-100598907D01*
X123148250Y-100515911D01*
X123254606Y-100494755D01*
X123360960Y-100473600D01*
X123577840Y-100473600D01*
X123684194Y-100494755D01*
X123684194Y-100494755D01*
G37*
G36*
X121144194Y-100494755D02*
G01*
X121250550Y-100515911D01*
X121350734Y-100557409D01*
X121450920Y-100598907D01*
X121631244Y-100719395D01*
X121784605Y-100872756D01*
X121905093Y-101053080D01*
X121905093Y-101053081D01*
X121988089Y-101253450D01*
X122002648Y-101326645D01*
X122030400Y-101466160D01*
X122030400Y-101683040D01*
X121988089Y-101895749D01*
X121905093Y-102096120D01*
X121784605Y-102276444D01*
X121631244Y-102429805D01*
X121450920Y-102550293D01*
X121350734Y-102591791D01*
X121250550Y-102633289D01*
X121144194Y-102654445D01*
X121037840Y-102675600D01*
X120820960Y-102675600D01*
X120714606Y-102654445D01*
X120608250Y-102633289D01*
X120407880Y-102550293D01*
X120227556Y-102429805D01*
X120074195Y-102276444D01*
X119953707Y-102096120D01*
X119870711Y-101895749D01*
X119828400Y-101683040D01*
X119828400Y-101466160D01*
X119856152Y-101326645D01*
X119870711Y-101253450D01*
X119953707Y-101053081D01*
X119953707Y-101053080D01*
X120074195Y-100872756D01*
X120227556Y-100719395D01*
X120407880Y-100598907D01*
X120608250Y-100515911D01*
X120714606Y-100494755D01*
X120820960Y-100473600D01*
X121037840Y-100473600D01*
X121144194Y-100494755D01*
X121144194Y-100494755D01*
G37*
G36*
X116064194Y-100443955D02*
G01*
X116170550Y-100465111D01*
X116252365Y-100499000D01*
X116370920Y-100548107D01*
X116551244Y-100668595D01*
X116704605Y-100821956D01*
X116825093Y-101002280D01*
X116825093Y-101002281D01*
X116908089Y-101202650D01*
X116950400Y-101415361D01*
X116950400Y-101632239D01*
X116914094Y-101814763D01*
X116908089Y-101844949D01*
X116825093Y-102045320D01*
X116704605Y-102225644D01*
X116551244Y-102379005D01*
X116370920Y-102499493D01*
X116270734Y-102540991D01*
X116170550Y-102582489D01*
X116064195Y-102603644D01*
X115957840Y-102624800D01*
X115740960Y-102624800D01*
X115634605Y-102603644D01*
X115528250Y-102582489D01*
X115327880Y-102499493D01*
X115147556Y-102379005D01*
X114994195Y-102225644D01*
X114873707Y-102045320D01*
X114790711Y-101844949D01*
X114784707Y-101814763D01*
X114748400Y-101632239D01*
X114748400Y-101415361D01*
X114790711Y-101202650D01*
X114873707Y-101002281D01*
X114873707Y-101002280D01*
X114994195Y-100821956D01*
X115147556Y-100668595D01*
X115327880Y-100548107D01*
X115446435Y-100499000D01*
X115528250Y-100465111D01*
X115634605Y-100443956D01*
X115740960Y-100422800D01*
X115957840Y-100422800D01*
X116064194Y-100443955D01*
X116064194Y-100443955D01*
G37*
G36*
X113524194Y-100443955D02*
G01*
X113630550Y-100465111D01*
X113712365Y-100499000D01*
X113830920Y-100548107D01*
X114011244Y-100668595D01*
X114164605Y-100821956D01*
X114285093Y-101002280D01*
X114285093Y-101002281D01*
X114368089Y-101202650D01*
X114410400Y-101415361D01*
X114410400Y-101632239D01*
X114374094Y-101814763D01*
X114368089Y-101844949D01*
X114285093Y-102045320D01*
X114164605Y-102225644D01*
X114011244Y-102379005D01*
X113830920Y-102499493D01*
X113730734Y-102540991D01*
X113630550Y-102582489D01*
X113524195Y-102603644D01*
X113417840Y-102624800D01*
X113200960Y-102624800D01*
X113094605Y-102603644D01*
X112988250Y-102582489D01*
X112787880Y-102499493D01*
X112607556Y-102379005D01*
X112454195Y-102225644D01*
X112333707Y-102045320D01*
X112250711Y-101844949D01*
X112244707Y-101814763D01*
X112208400Y-101632239D01*
X112208400Y-101415361D01*
X112250711Y-101202650D01*
X112333707Y-101002281D01*
X112333707Y-101002280D01*
X112454195Y-100821956D01*
X112607556Y-100668595D01*
X112787880Y-100548107D01*
X112906435Y-100499000D01*
X112988250Y-100465111D01*
X113094605Y-100443956D01*
X113200960Y-100422800D01*
X113417840Y-100422800D01*
X113524194Y-100443955D01*
X113524194Y-100443955D01*
G37*
G36*
X136362856Y-97975911D02*
G01*
X136490550Y-98001311D01*
X136590734Y-98042809D01*
X136690920Y-98084307D01*
X136871244Y-98204795D01*
X137024605Y-98358156D01*
X137145093Y-98538480D01*
X137228089Y-98738851D01*
X137265348Y-98926160D01*
X137270400Y-98951561D01*
X137270400Y-99168439D01*
X137233142Y-99355749D01*
X137228089Y-99381149D01*
X137145093Y-99581520D01*
X137024605Y-99761844D01*
X136871244Y-99915205D01*
X136690920Y-100035693D01*
X136590734Y-100077191D01*
X136490550Y-100118689D01*
X136405533Y-100135600D01*
X136277840Y-100161000D01*
X136060960Y-100161000D01*
X135933267Y-100135600D01*
X135848250Y-100118689D01*
X135748066Y-100077191D01*
X135647880Y-100035693D01*
X135467556Y-99915205D01*
X135314195Y-99761844D01*
X135193707Y-99581520D01*
X135110711Y-99381149D01*
X135105659Y-99355749D01*
X135068400Y-99168439D01*
X135068400Y-98951561D01*
X135073453Y-98926160D01*
X135110711Y-98738851D01*
X135193707Y-98538480D01*
X135314195Y-98358156D01*
X135467556Y-98204795D01*
X135647880Y-98084307D01*
X135748066Y-98042809D01*
X135848250Y-98001311D01*
X135975944Y-97975911D01*
X136060960Y-97959000D01*
X136277840Y-97959000D01*
X136362856Y-97975911D01*
X136362856Y-97975911D01*
G37*
G36*
X131282856Y-97975911D02*
G01*
X131410550Y-98001311D01*
X131510734Y-98042809D01*
X131610920Y-98084307D01*
X131791244Y-98204795D01*
X131944605Y-98358156D01*
X132065093Y-98538480D01*
X132148089Y-98738851D01*
X132185348Y-98926160D01*
X132190400Y-98951561D01*
X132190400Y-99168439D01*
X132153142Y-99355749D01*
X132148089Y-99381149D01*
X132065093Y-99581520D01*
X131944605Y-99761844D01*
X131791244Y-99915205D01*
X131610920Y-100035693D01*
X131510734Y-100077191D01*
X131410550Y-100118689D01*
X131325533Y-100135600D01*
X131197840Y-100161000D01*
X130980960Y-100161000D01*
X130853267Y-100135600D01*
X130768250Y-100118689D01*
X130668066Y-100077191D01*
X130567880Y-100035693D01*
X130387556Y-99915205D01*
X130234195Y-99761844D01*
X130113707Y-99581520D01*
X130030711Y-99381149D01*
X130025659Y-99355749D01*
X129988400Y-99168439D01*
X129988400Y-98951561D01*
X129993453Y-98926160D01*
X130030711Y-98738851D01*
X130113707Y-98538480D01*
X130234195Y-98358156D01*
X130387556Y-98204795D01*
X130567880Y-98084307D01*
X130668066Y-98042809D01*
X130768250Y-98001311D01*
X130895944Y-97975911D01*
X130980960Y-97959000D01*
X131197840Y-97959000D01*
X131282856Y-97975911D01*
X131282856Y-97975911D01*
G37*
G36*
X128742856Y-97975911D02*
G01*
X128870550Y-98001311D01*
X128970734Y-98042809D01*
X129070920Y-98084307D01*
X129251244Y-98204795D01*
X129404605Y-98358156D01*
X129525093Y-98538480D01*
X129608089Y-98738851D01*
X129645348Y-98926160D01*
X129650400Y-98951561D01*
X129650400Y-99168439D01*
X129613142Y-99355749D01*
X129608089Y-99381149D01*
X129525093Y-99581520D01*
X129404605Y-99761844D01*
X129251244Y-99915205D01*
X129070920Y-100035693D01*
X128970734Y-100077191D01*
X128870550Y-100118689D01*
X128785533Y-100135600D01*
X128657840Y-100161000D01*
X128440960Y-100161000D01*
X128313267Y-100135600D01*
X128228250Y-100118689D01*
X128128066Y-100077191D01*
X128027880Y-100035693D01*
X127847556Y-99915205D01*
X127694195Y-99761844D01*
X127573707Y-99581520D01*
X127490711Y-99381149D01*
X127485659Y-99355749D01*
X127448400Y-99168439D01*
X127448400Y-98951561D01*
X127453453Y-98926160D01*
X127490711Y-98738851D01*
X127573707Y-98538480D01*
X127694195Y-98358156D01*
X127847556Y-98204795D01*
X128027880Y-98084307D01*
X128128066Y-98042809D01*
X128228250Y-98001311D01*
X128355944Y-97975911D01*
X128440960Y-97959000D01*
X128657840Y-97959000D01*
X128742856Y-97975911D01*
X128742856Y-97975911D01*
G37*
G36*
X133822856Y-97975911D02*
G01*
X133950550Y-98001311D01*
X134050734Y-98042809D01*
X134150920Y-98084307D01*
X134331244Y-98204795D01*
X134484605Y-98358156D01*
X134605093Y-98538480D01*
X134688089Y-98738851D01*
X134725348Y-98926160D01*
X134730400Y-98951561D01*
X134730400Y-99168439D01*
X134693142Y-99355749D01*
X134688089Y-99381149D01*
X134605093Y-99581520D01*
X134484605Y-99761844D01*
X134331244Y-99915205D01*
X134150920Y-100035693D01*
X134050734Y-100077191D01*
X133950550Y-100118689D01*
X133865533Y-100135600D01*
X133737840Y-100161000D01*
X133520960Y-100161000D01*
X133393267Y-100135600D01*
X133308250Y-100118689D01*
X133208066Y-100077191D01*
X133107880Y-100035693D01*
X132927556Y-99915205D01*
X132774195Y-99761844D01*
X132653707Y-99581520D01*
X132570711Y-99381149D01*
X132565659Y-99355749D01*
X132528400Y-99168439D01*
X132528400Y-98951561D01*
X132533453Y-98926160D01*
X132570711Y-98738851D01*
X132653707Y-98538480D01*
X132774195Y-98358156D01*
X132927556Y-98204795D01*
X133107880Y-98084307D01*
X133208066Y-98042809D01*
X133308250Y-98001311D01*
X133435944Y-97975911D01*
X133520960Y-97959000D01*
X133737840Y-97959000D01*
X133822856Y-97975911D01*
X133822856Y-97975911D01*
G37*
G36*
X126202856Y-97975911D02*
G01*
X126330550Y-98001311D01*
X126430734Y-98042809D01*
X126530920Y-98084307D01*
X126711244Y-98204795D01*
X126864605Y-98358156D01*
X126985093Y-98538480D01*
X127068089Y-98738851D01*
X127105348Y-98926160D01*
X127110400Y-98951561D01*
X127110400Y-99168439D01*
X127073142Y-99355749D01*
X127068089Y-99381149D01*
X126985093Y-99581520D01*
X126864605Y-99761844D01*
X126711244Y-99915205D01*
X126530920Y-100035693D01*
X126430734Y-100077191D01*
X126330550Y-100118689D01*
X126245533Y-100135600D01*
X126117840Y-100161000D01*
X125900960Y-100161000D01*
X125773267Y-100135600D01*
X125688250Y-100118689D01*
X125588066Y-100077191D01*
X125487880Y-100035693D01*
X125307556Y-99915205D01*
X125154195Y-99761844D01*
X125033707Y-99581520D01*
X124950711Y-99381149D01*
X124945659Y-99355749D01*
X124908400Y-99168439D01*
X124908400Y-98951561D01*
X124913453Y-98926160D01*
X124950711Y-98738851D01*
X125033707Y-98538480D01*
X125154195Y-98358156D01*
X125307556Y-98204795D01*
X125487880Y-98084307D01*
X125588066Y-98042809D01*
X125688250Y-98001311D01*
X125815944Y-97975911D01*
X125900960Y-97959000D01*
X126117840Y-97959000D01*
X126202856Y-97975911D01*
X126202856Y-97975911D01*
G37*
G36*
X121144195Y-97954756D02*
G01*
X121250550Y-97975911D01*
X121450920Y-98058907D01*
X121631244Y-98179395D01*
X121784605Y-98332756D01*
X121905093Y-98513080D01*
X121905093Y-98513081D01*
X121988089Y-98713450D01*
X122009245Y-98819806D01*
X122030400Y-98926160D01*
X122030400Y-99143040D01*
X121988089Y-99355749D01*
X121905093Y-99556120D01*
X121784605Y-99736444D01*
X121631244Y-99889805D01*
X121450920Y-100010293D01*
X121250550Y-100093289D01*
X121144194Y-100114445D01*
X121037840Y-100135600D01*
X120820960Y-100135600D01*
X120714606Y-100114445D01*
X120608250Y-100093289D01*
X120508066Y-100051791D01*
X120407880Y-100010293D01*
X120227556Y-99889805D01*
X120074195Y-99736444D01*
X119953707Y-99556120D01*
X119870711Y-99355749D01*
X119828400Y-99143040D01*
X119828400Y-98926160D01*
X119849555Y-98819806D01*
X119870711Y-98713450D01*
X119953707Y-98513081D01*
X119953707Y-98513080D01*
X120074195Y-98332756D01*
X120227556Y-98179395D01*
X120407880Y-98058907D01*
X120508066Y-98017409D01*
X120608250Y-97975911D01*
X120714605Y-97954756D01*
X120820960Y-97933600D01*
X121037840Y-97933600D01*
X121144195Y-97954756D01*
X121144195Y-97954756D01*
G37*
G36*
X123684195Y-97954756D02*
G01*
X123790550Y-97975911D01*
X123990920Y-98058907D01*
X124171244Y-98179395D01*
X124324605Y-98332756D01*
X124445093Y-98513080D01*
X124445093Y-98513081D01*
X124528089Y-98713450D01*
X124549245Y-98819806D01*
X124570400Y-98926160D01*
X124570400Y-99143040D01*
X124528089Y-99355749D01*
X124445093Y-99556120D01*
X124324605Y-99736444D01*
X124171244Y-99889805D01*
X123990920Y-100010293D01*
X123790550Y-100093289D01*
X123684194Y-100114445D01*
X123577840Y-100135600D01*
X123360960Y-100135600D01*
X123254606Y-100114445D01*
X123148250Y-100093289D01*
X123048066Y-100051791D01*
X122947880Y-100010293D01*
X122767556Y-99889805D01*
X122614195Y-99736444D01*
X122493707Y-99556120D01*
X122410711Y-99355749D01*
X122368400Y-99143040D01*
X122368400Y-98926160D01*
X122389555Y-98819806D01*
X122410711Y-98713450D01*
X122493707Y-98513081D01*
X122493707Y-98513080D01*
X122614195Y-98332756D01*
X122767556Y-98179395D01*
X122947880Y-98058907D01*
X123048066Y-98017409D01*
X123148250Y-97975911D01*
X123254605Y-97954756D01*
X123360960Y-97933600D01*
X123577840Y-97933600D01*
X123684195Y-97954756D01*
X123684195Y-97954756D01*
G37*
G36*
X118604195Y-97954756D02*
G01*
X118710550Y-97975911D01*
X118910920Y-98058907D01*
X119091244Y-98179395D01*
X119244605Y-98332756D01*
X119365093Y-98513080D01*
X119365093Y-98513081D01*
X119448089Y-98713450D01*
X119469245Y-98819806D01*
X119490400Y-98926160D01*
X119490400Y-99143040D01*
X119448089Y-99355749D01*
X119365093Y-99556120D01*
X119244605Y-99736444D01*
X119091244Y-99889805D01*
X118910920Y-100010293D01*
X118710550Y-100093289D01*
X118604194Y-100114445D01*
X118497840Y-100135600D01*
X118280960Y-100135600D01*
X118174606Y-100114445D01*
X118068250Y-100093289D01*
X117968066Y-100051791D01*
X117867880Y-100010293D01*
X117687556Y-99889805D01*
X117534195Y-99736444D01*
X117413707Y-99556120D01*
X117330711Y-99355749D01*
X117288400Y-99143040D01*
X117288400Y-98926160D01*
X117309555Y-98819806D01*
X117330711Y-98713450D01*
X117413707Y-98513081D01*
X117413707Y-98513080D01*
X117534195Y-98332756D01*
X117687556Y-98179395D01*
X117867880Y-98058907D01*
X117968066Y-98017409D01*
X118068250Y-97975911D01*
X118174605Y-97954756D01*
X118280960Y-97933600D01*
X118497840Y-97933600D01*
X118604195Y-97954756D01*
X118604195Y-97954756D01*
G37*
G36*
X113524194Y-97903955D02*
G01*
X113630550Y-97925111D01*
X113712365Y-97959000D01*
X113830920Y-98008107D01*
X114011244Y-98128595D01*
X114164605Y-98281956D01*
X114285093Y-98462280D01*
X114368089Y-98662651D01*
X114410400Y-98875360D01*
X114410400Y-99092240D01*
X114368089Y-99304949D01*
X114285093Y-99505320D01*
X114164605Y-99685644D01*
X114011244Y-99839005D01*
X113830920Y-99959493D01*
X113630550Y-100042489D01*
X113524194Y-100063645D01*
X113417840Y-100084800D01*
X113200960Y-100084800D01*
X113094606Y-100063645D01*
X112988250Y-100042489D01*
X112787880Y-99959493D01*
X112607556Y-99839005D01*
X112454195Y-99685644D01*
X112333707Y-99505320D01*
X112250711Y-99304949D01*
X112208400Y-99092240D01*
X112208400Y-98875360D01*
X112250711Y-98662651D01*
X112333707Y-98462280D01*
X112454195Y-98281956D01*
X112607556Y-98128595D01*
X112787880Y-98008107D01*
X112906435Y-97959000D01*
X112988250Y-97925111D01*
X113094605Y-97903956D01*
X113200960Y-97882800D01*
X113417840Y-97882800D01*
X113524194Y-97903955D01*
X113524194Y-97903955D01*
G37*
G36*
X116064194Y-97903955D02*
G01*
X116170550Y-97925111D01*
X116252365Y-97959000D01*
X116370920Y-98008107D01*
X116551244Y-98128595D01*
X116704605Y-98281956D01*
X116825093Y-98462280D01*
X116908089Y-98662651D01*
X116950400Y-98875360D01*
X116950400Y-99092240D01*
X116908089Y-99304949D01*
X116825093Y-99505320D01*
X116704605Y-99685644D01*
X116551244Y-99839005D01*
X116370920Y-99959493D01*
X116170550Y-100042489D01*
X116064194Y-100063645D01*
X115957840Y-100084800D01*
X115740960Y-100084800D01*
X115634606Y-100063645D01*
X115528250Y-100042489D01*
X115327880Y-99959493D01*
X115147556Y-99839005D01*
X114994195Y-99685644D01*
X114873707Y-99505320D01*
X114790711Y-99304949D01*
X114748400Y-99092240D01*
X114748400Y-98875360D01*
X114790711Y-98662651D01*
X114873707Y-98462280D01*
X114994195Y-98281956D01*
X115147556Y-98128595D01*
X115327880Y-98008107D01*
X115446435Y-97959000D01*
X115528250Y-97925111D01*
X115634605Y-97903956D01*
X115740960Y-97882800D01*
X115957840Y-97882800D01*
X116064194Y-97903955D01*
X116064194Y-97903955D01*
G37*
G36*
X152157187Y-92754396D02*
G01*
X152393953Y-92852468D01*
X152393955Y-92852469D01*
X152588032Y-92982147D01*
X152607039Y-92994847D01*
X152788253Y-93176061D01*
X152930632Y-93389147D01*
X153028704Y-93625913D01*
X153078700Y-93877261D01*
X153078700Y-94133539D01*
X153028704Y-94384887D01*
X152935892Y-94608955D01*
X152930631Y-94621655D01*
X152788253Y-94834739D01*
X152607039Y-95015953D01*
X152393955Y-95158331D01*
X152393954Y-95158332D01*
X152393953Y-95158332D01*
X152157187Y-95256404D01*
X151905839Y-95306400D01*
X151649561Y-95306400D01*
X151398213Y-95256404D01*
X151161447Y-95158332D01*
X151161446Y-95158332D01*
X151161445Y-95158331D01*
X150948361Y-95015953D01*
X150767147Y-94834739D01*
X150624769Y-94621655D01*
X150619508Y-94608955D01*
X150526696Y-94384887D01*
X150476700Y-94133539D01*
X150476700Y-93877261D01*
X150526696Y-93625913D01*
X150624768Y-93389147D01*
X150767147Y-93176061D01*
X150948361Y-92994847D01*
X150967368Y-92982147D01*
X151161445Y-92852469D01*
X151161447Y-92852468D01*
X151398213Y-92754396D01*
X151649561Y-92704400D01*
X151905839Y-92704400D01*
X152157187Y-92754396D01*
X152157187Y-92754396D01*
G37*
G36*
X157135587Y-92754396D02*
G01*
X157372353Y-92852468D01*
X157372355Y-92852469D01*
X157566432Y-92982147D01*
X157585439Y-92994847D01*
X157766653Y-93176061D01*
X157909032Y-93389147D01*
X158007104Y-93625913D01*
X158057100Y-93877261D01*
X158057100Y-94133539D01*
X158007104Y-94384887D01*
X157914292Y-94608955D01*
X157909031Y-94621655D01*
X157766653Y-94834739D01*
X157585439Y-95015953D01*
X157372355Y-95158331D01*
X157372354Y-95158332D01*
X157372353Y-95158332D01*
X157135587Y-95256404D01*
X156884239Y-95306400D01*
X156627961Y-95306400D01*
X156376613Y-95256404D01*
X156139847Y-95158332D01*
X156139846Y-95158332D01*
X156139845Y-95158331D01*
X155926761Y-95015953D01*
X155745547Y-94834739D01*
X155603169Y-94621655D01*
X155597908Y-94608955D01*
X155505096Y-94384887D01*
X155455100Y-94133539D01*
X155455100Y-93877261D01*
X155505096Y-93625913D01*
X155603168Y-93389147D01*
X155745547Y-93176061D01*
X155926761Y-92994847D01*
X155945768Y-92982147D01*
X156139845Y-92852469D01*
X156139847Y-92852468D01*
X156376613Y-92754396D01*
X156627961Y-92704400D01*
X156884239Y-92704400D01*
X157135587Y-92754396D01*
X157135587Y-92754396D01*
G37*
G36*
X147127987Y-92754396D02*
G01*
X147364753Y-92852468D01*
X147364755Y-92852469D01*
X147558832Y-92982147D01*
X147577839Y-92994847D01*
X147759053Y-93176061D01*
X147901432Y-93389147D01*
X147999504Y-93625913D01*
X148049500Y-93877261D01*
X148049500Y-94133539D01*
X147999504Y-94384887D01*
X147906692Y-94608955D01*
X147901431Y-94621655D01*
X147759053Y-94834739D01*
X147577839Y-95015953D01*
X147364755Y-95158331D01*
X147364754Y-95158332D01*
X147364753Y-95158332D01*
X147127987Y-95256404D01*
X146876639Y-95306400D01*
X146620361Y-95306400D01*
X146369013Y-95256404D01*
X146132247Y-95158332D01*
X146132246Y-95158332D01*
X146132245Y-95158331D01*
X145919161Y-95015953D01*
X145737947Y-94834739D01*
X145595569Y-94621655D01*
X145590308Y-94608955D01*
X145497496Y-94384887D01*
X145447500Y-94133539D01*
X145447500Y-93877261D01*
X145497496Y-93625913D01*
X145595568Y-93389147D01*
X145737947Y-93176061D01*
X145919161Y-92994847D01*
X145938168Y-92982147D01*
X146132245Y-92852469D01*
X146132247Y-92852468D01*
X146369013Y-92754396D01*
X146620361Y-92704400D01*
X146876639Y-92704400D01*
X147127987Y-92754396D01*
X147127987Y-92754396D01*
G37*
G36*
X142111487Y-92741696D02*
G01*
X142348253Y-92839768D01*
X142348255Y-92839769D01*
X142561339Y-92982147D01*
X142742553Y-93163361D01*
X142884932Y-93376447D01*
X142983004Y-93613213D01*
X143033000Y-93864561D01*
X143033000Y-94120839D01*
X142983004Y-94372187D01*
X142884932Y-94608953D01*
X142884931Y-94608955D01*
X142742553Y-94822039D01*
X142561339Y-95003253D01*
X142348255Y-95145631D01*
X142348254Y-95145632D01*
X142348253Y-95145632D01*
X142111487Y-95243704D01*
X141860139Y-95293700D01*
X141603861Y-95293700D01*
X141352513Y-95243704D01*
X141115747Y-95145632D01*
X141115746Y-95145632D01*
X141115745Y-95145631D01*
X140902661Y-95003253D01*
X140721447Y-94822039D01*
X140579069Y-94608955D01*
X140579068Y-94608953D01*
X140480996Y-94372187D01*
X140431000Y-94120839D01*
X140431000Y-93864561D01*
X140480996Y-93613213D01*
X140579068Y-93376447D01*
X140721447Y-93163361D01*
X140902661Y-92982147D01*
X141115745Y-92839769D01*
X141115747Y-92839768D01*
X141352513Y-92741696D01*
X141603861Y-92691700D01*
X141860139Y-92691700D01*
X142111487Y-92741696D01*
X142111487Y-92741696D01*
G37*
G36*
X128742856Y-87917511D02*
G01*
X128870550Y-87942911D01*
X128970734Y-87984409D01*
X129070920Y-88025907D01*
X129251244Y-88146395D01*
X129404605Y-88299756D01*
X129525093Y-88480080D01*
X129608089Y-88680451D01*
X129645348Y-88867760D01*
X129650400Y-88893161D01*
X129650400Y-89110039D01*
X129613142Y-89297349D01*
X129608089Y-89322749D01*
X129525093Y-89523120D01*
X129404605Y-89703444D01*
X129251244Y-89856805D01*
X129070920Y-89977293D01*
X128870550Y-90060289D01*
X128785533Y-90077200D01*
X128657840Y-90102600D01*
X128440960Y-90102600D01*
X128313267Y-90077200D01*
X128228250Y-90060289D01*
X128027880Y-89977293D01*
X127847556Y-89856805D01*
X127694195Y-89703444D01*
X127573707Y-89523120D01*
X127490711Y-89322749D01*
X127485659Y-89297349D01*
X127448400Y-89110039D01*
X127448400Y-88893161D01*
X127453453Y-88867760D01*
X127490711Y-88680451D01*
X127573707Y-88480080D01*
X127694195Y-88299756D01*
X127847556Y-88146395D01*
X128027880Y-88025907D01*
X128128066Y-87984409D01*
X128228250Y-87942911D01*
X128355944Y-87917511D01*
X128440960Y-87900600D01*
X128657840Y-87900600D01*
X128742856Y-87917511D01*
X128742856Y-87917511D01*
G37*
G36*
X126202856Y-87917511D02*
G01*
X126330550Y-87942911D01*
X126430734Y-87984409D01*
X126530920Y-88025907D01*
X126711244Y-88146395D01*
X126864605Y-88299756D01*
X126985093Y-88480080D01*
X127068089Y-88680451D01*
X127105348Y-88867760D01*
X127110400Y-88893161D01*
X127110400Y-89110039D01*
X127073142Y-89297349D01*
X127068089Y-89322749D01*
X126985093Y-89523120D01*
X126864605Y-89703444D01*
X126711244Y-89856805D01*
X126530920Y-89977293D01*
X126330550Y-90060289D01*
X126245533Y-90077200D01*
X126117840Y-90102600D01*
X125900960Y-90102600D01*
X125773267Y-90077200D01*
X125688250Y-90060289D01*
X125487880Y-89977293D01*
X125307556Y-89856805D01*
X125154195Y-89703444D01*
X125033707Y-89523120D01*
X124950711Y-89322749D01*
X124945659Y-89297349D01*
X124908400Y-89110039D01*
X124908400Y-88893161D01*
X124913453Y-88867760D01*
X124950711Y-88680451D01*
X125033707Y-88480080D01*
X125154195Y-88299756D01*
X125307556Y-88146395D01*
X125487880Y-88025907D01*
X125588066Y-87984409D01*
X125688250Y-87942911D01*
X125815944Y-87917511D01*
X125900960Y-87900600D01*
X126117840Y-87900600D01*
X126202856Y-87917511D01*
X126202856Y-87917511D01*
G37*
G36*
X136362856Y-87917511D02*
G01*
X136490550Y-87942911D01*
X136590734Y-87984409D01*
X136690920Y-88025907D01*
X136871244Y-88146395D01*
X137024605Y-88299756D01*
X137145093Y-88480080D01*
X137228089Y-88680451D01*
X137265348Y-88867760D01*
X137270400Y-88893161D01*
X137270400Y-89110039D01*
X137233142Y-89297349D01*
X137228089Y-89322749D01*
X137145093Y-89523120D01*
X137024605Y-89703444D01*
X136871244Y-89856805D01*
X136690920Y-89977293D01*
X136490550Y-90060289D01*
X136405533Y-90077200D01*
X136277840Y-90102600D01*
X136060960Y-90102600D01*
X135933267Y-90077200D01*
X135848250Y-90060289D01*
X135647880Y-89977293D01*
X135467556Y-89856805D01*
X135314195Y-89703444D01*
X135193707Y-89523120D01*
X135110711Y-89322749D01*
X135105659Y-89297349D01*
X135068400Y-89110039D01*
X135068400Y-88893161D01*
X135073453Y-88867760D01*
X135110711Y-88680451D01*
X135193707Y-88480080D01*
X135314195Y-88299756D01*
X135467556Y-88146395D01*
X135647880Y-88025907D01*
X135748066Y-87984409D01*
X135848250Y-87942911D01*
X135975944Y-87917511D01*
X136060960Y-87900600D01*
X136277840Y-87900600D01*
X136362856Y-87917511D01*
X136362856Y-87917511D01*
G37*
G36*
X131282856Y-87917511D02*
G01*
X131410550Y-87942911D01*
X131510734Y-87984409D01*
X131610920Y-88025907D01*
X131791244Y-88146395D01*
X131944605Y-88299756D01*
X132065093Y-88480080D01*
X132148089Y-88680451D01*
X132185348Y-88867760D01*
X132190400Y-88893161D01*
X132190400Y-89110039D01*
X132153142Y-89297349D01*
X132148089Y-89322749D01*
X132065093Y-89523120D01*
X131944605Y-89703444D01*
X131791244Y-89856805D01*
X131610920Y-89977293D01*
X131410550Y-90060289D01*
X131325533Y-90077200D01*
X131197840Y-90102600D01*
X130980960Y-90102600D01*
X130853267Y-90077200D01*
X130768250Y-90060289D01*
X130567880Y-89977293D01*
X130387556Y-89856805D01*
X130234195Y-89703444D01*
X130113707Y-89523120D01*
X130030711Y-89322749D01*
X130025659Y-89297349D01*
X129988400Y-89110039D01*
X129988400Y-88893161D01*
X129993453Y-88867760D01*
X130030711Y-88680451D01*
X130113707Y-88480080D01*
X130234195Y-88299756D01*
X130387556Y-88146395D01*
X130567880Y-88025907D01*
X130668066Y-87984409D01*
X130768250Y-87942911D01*
X130895944Y-87917511D01*
X130980960Y-87900600D01*
X131197840Y-87900600D01*
X131282856Y-87917511D01*
X131282856Y-87917511D01*
G37*
G36*
X133822856Y-87917511D02*
G01*
X133950550Y-87942911D01*
X134050734Y-87984409D01*
X134150920Y-88025907D01*
X134331244Y-88146395D01*
X134484605Y-88299756D01*
X134605093Y-88480080D01*
X134688089Y-88680451D01*
X134725348Y-88867760D01*
X134730400Y-88893161D01*
X134730400Y-89110039D01*
X134693142Y-89297349D01*
X134688089Y-89322749D01*
X134605093Y-89523120D01*
X134484605Y-89703444D01*
X134331244Y-89856805D01*
X134150920Y-89977293D01*
X133950550Y-90060289D01*
X133865533Y-90077200D01*
X133737840Y-90102600D01*
X133520960Y-90102600D01*
X133393267Y-90077200D01*
X133308250Y-90060289D01*
X133107880Y-89977293D01*
X132927556Y-89856805D01*
X132774195Y-89703444D01*
X132653707Y-89523120D01*
X132570711Y-89322749D01*
X132565659Y-89297349D01*
X132528400Y-89110039D01*
X132528400Y-88893161D01*
X132533453Y-88867760D01*
X132570711Y-88680451D01*
X132653707Y-88480080D01*
X132774195Y-88299756D01*
X132927556Y-88146395D01*
X133107880Y-88025907D01*
X133208066Y-87984409D01*
X133308250Y-87942911D01*
X133435944Y-87917511D01*
X133520960Y-87900600D01*
X133737840Y-87900600D01*
X133822856Y-87917511D01*
X133822856Y-87917511D01*
G37*
G36*
X121144195Y-87896356D02*
G01*
X121250550Y-87917511D01*
X121350734Y-87959009D01*
X121450920Y-88000507D01*
X121631244Y-88120995D01*
X121784605Y-88274356D01*
X121905093Y-88454680D01*
X121905093Y-88454681D01*
X121988089Y-88655050D01*
X122009245Y-88761406D01*
X122030400Y-88867760D01*
X122030400Y-89084640D01*
X121988089Y-89297349D01*
X121905093Y-89497720D01*
X121784605Y-89678044D01*
X121631244Y-89831405D01*
X121450920Y-89951893D01*
X121250550Y-90034889D01*
X121144194Y-90056045D01*
X121037840Y-90077200D01*
X120820960Y-90077200D01*
X120714606Y-90056045D01*
X120608250Y-90034889D01*
X120407880Y-89951893D01*
X120227556Y-89831405D01*
X120074195Y-89678044D01*
X119953707Y-89497720D01*
X119870711Y-89297349D01*
X119828400Y-89084640D01*
X119828400Y-88867760D01*
X119849556Y-88761405D01*
X119870711Y-88655050D01*
X119953707Y-88454681D01*
X119953707Y-88454680D01*
X120074195Y-88274356D01*
X120227556Y-88120995D01*
X120407880Y-88000507D01*
X120508066Y-87959009D01*
X120608250Y-87917511D01*
X120714606Y-87896355D01*
X120820960Y-87875200D01*
X121037840Y-87875200D01*
X121144195Y-87896356D01*
X121144195Y-87896356D01*
G37*
G36*
X123684195Y-87896356D02*
G01*
X123790550Y-87917511D01*
X123890734Y-87959009D01*
X123990920Y-88000507D01*
X124171244Y-88120995D01*
X124324605Y-88274356D01*
X124445093Y-88454680D01*
X124445093Y-88454681D01*
X124528089Y-88655050D01*
X124549245Y-88761406D01*
X124570400Y-88867760D01*
X124570400Y-89084640D01*
X124528089Y-89297349D01*
X124445093Y-89497720D01*
X124324605Y-89678044D01*
X124171244Y-89831405D01*
X123990920Y-89951893D01*
X123790550Y-90034889D01*
X123684194Y-90056045D01*
X123577840Y-90077200D01*
X123360960Y-90077200D01*
X123254606Y-90056045D01*
X123148250Y-90034889D01*
X122947880Y-89951893D01*
X122767556Y-89831405D01*
X122614195Y-89678044D01*
X122493707Y-89497720D01*
X122410711Y-89297349D01*
X122368400Y-89084640D01*
X122368400Y-88867760D01*
X122389556Y-88761405D01*
X122410711Y-88655050D01*
X122493707Y-88454681D01*
X122493707Y-88454680D01*
X122614195Y-88274356D01*
X122767556Y-88120995D01*
X122947880Y-88000507D01*
X123048066Y-87959009D01*
X123148250Y-87917511D01*
X123254606Y-87896355D01*
X123360960Y-87875200D01*
X123577840Y-87875200D01*
X123684195Y-87896356D01*
X123684195Y-87896356D01*
G37*
G36*
X118604195Y-87896356D02*
G01*
X118710550Y-87917511D01*
X118810734Y-87959009D01*
X118910920Y-88000507D01*
X119091244Y-88120995D01*
X119244605Y-88274356D01*
X119365093Y-88454680D01*
X119365093Y-88454681D01*
X119448089Y-88655050D01*
X119469245Y-88761406D01*
X119490400Y-88867760D01*
X119490400Y-89084640D01*
X119448089Y-89297349D01*
X119365093Y-89497720D01*
X119244605Y-89678044D01*
X119091244Y-89831405D01*
X118910920Y-89951893D01*
X118710550Y-90034889D01*
X118604194Y-90056045D01*
X118497840Y-90077200D01*
X118280960Y-90077200D01*
X118174606Y-90056045D01*
X118068250Y-90034889D01*
X117867880Y-89951893D01*
X117687556Y-89831405D01*
X117534195Y-89678044D01*
X117413707Y-89497720D01*
X117330711Y-89297349D01*
X117288400Y-89084640D01*
X117288400Y-88867760D01*
X117309556Y-88761405D01*
X117330711Y-88655050D01*
X117413707Y-88454681D01*
X117413707Y-88454680D01*
X117534195Y-88274356D01*
X117687556Y-88120995D01*
X117867880Y-88000507D01*
X117968066Y-87959009D01*
X118068250Y-87917511D01*
X118174606Y-87896355D01*
X118280960Y-87875200D01*
X118497840Y-87875200D01*
X118604195Y-87896356D01*
X118604195Y-87896356D01*
G37*
G36*
X113524195Y-87845556D02*
G01*
X113630550Y-87866711D01*
X113712365Y-87900600D01*
X113830920Y-87949707D01*
X114011244Y-88070195D01*
X114164605Y-88223556D01*
X114285093Y-88403880D01*
X114368089Y-88604251D01*
X114410400Y-88816960D01*
X114410400Y-89033840D01*
X114368089Y-89246549D01*
X114285093Y-89446920D01*
X114164605Y-89627244D01*
X114011244Y-89780605D01*
X113830920Y-89901093D01*
X113730734Y-89942591D01*
X113630550Y-89984089D01*
X113524194Y-90005245D01*
X113417840Y-90026400D01*
X113200960Y-90026400D01*
X113094606Y-90005245D01*
X112988250Y-89984089D01*
X112787880Y-89901093D01*
X112607556Y-89780605D01*
X112454195Y-89627244D01*
X112333707Y-89446920D01*
X112250711Y-89246549D01*
X112208400Y-89033840D01*
X112208400Y-88816960D01*
X112250711Y-88604251D01*
X112333707Y-88403880D01*
X112454195Y-88223556D01*
X112607556Y-88070195D01*
X112787880Y-87949707D01*
X112906435Y-87900600D01*
X112988250Y-87866711D01*
X113094605Y-87845556D01*
X113200960Y-87824400D01*
X113417840Y-87824400D01*
X113524195Y-87845556D01*
X113524195Y-87845556D01*
G37*
G36*
X116064195Y-87845556D02*
G01*
X116170550Y-87866711D01*
X116252365Y-87900600D01*
X116370920Y-87949707D01*
X116551244Y-88070195D01*
X116704605Y-88223556D01*
X116825093Y-88403880D01*
X116908089Y-88604251D01*
X116950400Y-88816960D01*
X116950400Y-89033840D01*
X116908089Y-89246549D01*
X116825093Y-89446920D01*
X116704605Y-89627244D01*
X116551244Y-89780605D01*
X116370920Y-89901093D01*
X116270734Y-89942591D01*
X116170550Y-89984089D01*
X116064194Y-90005245D01*
X115957840Y-90026400D01*
X115740960Y-90026400D01*
X115634606Y-90005245D01*
X115528250Y-89984089D01*
X115327880Y-89901093D01*
X115147556Y-89780605D01*
X114994195Y-89627244D01*
X114873707Y-89446920D01*
X114790711Y-89246549D01*
X114748400Y-89033840D01*
X114748400Y-88816960D01*
X114790711Y-88604251D01*
X114873707Y-88403880D01*
X114994195Y-88223556D01*
X115147556Y-88070195D01*
X115327880Y-87949707D01*
X115446435Y-87900600D01*
X115528250Y-87866711D01*
X115634605Y-87845556D01*
X115740960Y-87824400D01*
X115957840Y-87824400D01*
X116064195Y-87845556D01*
X116064195Y-87845556D01*
G37*
G36*
X126202856Y-85377511D02*
G01*
X126330550Y-85402911D01*
X126417543Y-85438945D01*
X126530920Y-85485907D01*
X126711244Y-85606395D01*
X126864605Y-85759756D01*
X126985093Y-85940080D01*
X126985093Y-85940081D01*
X127068089Y-86140450D01*
X127074094Y-86170639D01*
X127105348Y-86327760D01*
X127110400Y-86353161D01*
X127110400Y-86570039D01*
X127073142Y-86757349D01*
X127068089Y-86782749D01*
X126985093Y-86983120D01*
X126864605Y-87163444D01*
X126711244Y-87316805D01*
X126530920Y-87437293D01*
X126330550Y-87520289D01*
X126245533Y-87537200D01*
X126117840Y-87562600D01*
X125900960Y-87562600D01*
X125773267Y-87537200D01*
X125688250Y-87520289D01*
X125588066Y-87478791D01*
X125487880Y-87437293D01*
X125307556Y-87316805D01*
X125154195Y-87163444D01*
X125033707Y-86983120D01*
X124950711Y-86782749D01*
X124945659Y-86757349D01*
X124908400Y-86570039D01*
X124908400Y-86353161D01*
X124913453Y-86327760D01*
X124944706Y-86170639D01*
X124950711Y-86140450D01*
X125033707Y-85940081D01*
X125033707Y-85940080D01*
X125154195Y-85759756D01*
X125307556Y-85606395D01*
X125487880Y-85485907D01*
X125601257Y-85438945D01*
X125688250Y-85402911D01*
X125815944Y-85377511D01*
X125900960Y-85360600D01*
X126117840Y-85360600D01*
X126202856Y-85377511D01*
X126202856Y-85377511D01*
G37*
G36*
X133822856Y-85377511D02*
G01*
X133950550Y-85402911D01*
X134037543Y-85438945D01*
X134150920Y-85485907D01*
X134331244Y-85606395D01*
X134484605Y-85759756D01*
X134605093Y-85940080D01*
X134605093Y-85940081D01*
X134688089Y-86140450D01*
X134694094Y-86170639D01*
X134725348Y-86327760D01*
X134730400Y-86353161D01*
X134730400Y-86570039D01*
X134693142Y-86757349D01*
X134688089Y-86782749D01*
X134605093Y-86983120D01*
X134484605Y-87163444D01*
X134331244Y-87316805D01*
X134150920Y-87437293D01*
X133950550Y-87520289D01*
X133865533Y-87537200D01*
X133737840Y-87562600D01*
X133520960Y-87562600D01*
X133393267Y-87537200D01*
X133308250Y-87520289D01*
X133208066Y-87478791D01*
X133107880Y-87437293D01*
X132927556Y-87316805D01*
X132774195Y-87163444D01*
X132653707Y-86983120D01*
X132570711Y-86782749D01*
X132565659Y-86757349D01*
X132528400Y-86570039D01*
X132528400Y-86353161D01*
X132533453Y-86327760D01*
X132564706Y-86170639D01*
X132570711Y-86140450D01*
X132653707Y-85940081D01*
X132653707Y-85940080D01*
X132774195Y-85759756D01*
X132927556Y-85606395D01*
X133107880Y-85485907D01*
X133221257Y-85438945D01*
X133308250Y-85402911D01*
X133435944Y-85377511D01*
X133520960Y-85360600D01*
X133737840Y-85360600D01*
X133822856Y-85377511D01*
X133822856Y-85377511D01*
G37*
G36*
X131282856Y-85377511D02*
G01*
X131410550Y-85402911D01*
X131497543Y-85438945D01*
X131610920Y-85485907D01*
X131791244Y-85606395D01*
X131944605Y-85759756D01*
X132065093Y-85940080D01*
X132065093Y-85940081D01*
X132148089Y-86140450D01*
X132154094Y-86170639D01*
X132185348Y-86327760D01*
X132190400Y-86353161D01*
X132190400Y-86570039D01*
X132153142Y-86757349D01*
X132148089Y-86782749D01*
X132065093Y-86983120D01*
X131944605Y-87163444D01*
X131791244Y-87316805D01*
X131610920Y-87437293D01*
X131410550Y-87520289D01*
X131325533Y-87537200D01*
X131197840Y-87562600D01*
X130980960Y-87562600D01*
X130853267Y-87537200D01*
X130768250Y-87520289D01*
X130668066Y-87478791D01*
X130567880Y-87437293D01*
X130387556Y-87316805D01*
X130234195Y-87163444D01*
X130113707Y-86983120D01*
X130030711Y-86782749D01*
X130025659Y-86757349D01*
X129988400Y-86570039D01*
X129988400Y-86353161D01*
X129993453Y-86327760D01*
X130024706Y-86170639D01*
X130030711Y-86140450D01*
X130113707Y-85940081D01*
X130113707Y-85940080D01*
X130234195Y-85759756D01*
X130387556Y-85606395D01*
X130567880Y-85485907D01*
X130681257Y-85438945D01*
X130768250Y-85402911D01*
X130895944Y-85377511D01*
X130980960Y-85360600D01*
X131197840Y-85360600D01*
X131282856Y-85377511D01*
X131282856Y-85377511D01*
G37*
G36*
X128742856Y-85377511D02*
G01*
X128870550Y-85402911D01*
X128957543Y-85438945D01*
X129070920Y-85485907D01*
X129251244Y-85606395D01*
X129404605Y-85759756D01*
X129525093Y-85940080D01*
X129525093Y-85940081D01*
X129608089Y-86140450D01*
X129614094Y-86170639D01*
X129645348Y-86327760D01*
X129650400Y-86353161D01*
X129650400Y-86570039D01*
X129613142Y-86757349D01*
X129608089Y-86782749D01*
X129525093Y-86983120D01*
X129404605Y-87163444D01*
X129251244Y-87316805D01*
X129070920Y-87437293D01*
X128870550Y-87520289D01*
X128785533Y-87537200D01*
X128657840Y-87562600D01*
X128440960Y-87562600D01*
X128313267Y-87537200D01*
X128228250Y-87520289D01*
X128128066Y-87478791D01*
X128027880Y-87437293D01*
X127847556Y-87316805D01*
X127694195Y-87163444D01*
X127573707Y-86983120D01*
X127490711Y-86782749D01*
X127485659Y-86757349D01*
X127448400Y-86570039D01*
X127448400Y-86353161D01*
X127453453Y-86327760D01*
X127484706Y-86170639D01*
X127490711Y-86140450D01*
X127573707Y-85940081D01*
X127573707Y-85940080D01*
X127694195Y-85759756D01*
X127847556Y-85606395D01*
X128027880Y-85485907D01*
X128141257Y-85438945D01*
X128228250Y-85402911D01*
X128355944Y-85377511D01*
X128440960Y-85360600D01*
X128657840Y-85360600D01*
X128742856Y-85377511D01*
X128742856Y-85377511D01*
G37*
G36*
X136362856Y-85377511D02*
G01*
X136490550Y-85402911D01*
X136577543Y-85438945D01*
X136690920Y-85485907D01*
X136871244Y-85606395D01*
X137024605Y-85759756D01*
X137145093Y-85940080D01*
X137145093Y-85940081D01*
X137228089Y-86140450D01*
X137234094Y-86170639D01*
X137265348Y-86327760D01*
X137270400Y-86353161D01*
X137270400Y-86570039D01*
X137233142Y-86757349D01*
X137228089Y-86782749D01*
X137145093Y-86983120D01*
X137024605Y-87163444D01*
X136871244Y-87316805D01*
X136690920Y-87437293D01*
X136490550Y-87520289D01*
X136405533Y-87537200D01*
X136277840Y-87562600D01*
X136060960Y-87562600D01*
X135933267Y-87537200D01*
X135848250Y-87520289D01*
X135748066Y-87478791D01*
X135647880Y-87437293D01*
X135467556Y-87316805D01*
X135314195Y-87163444D01*
X135193707Y-86983120D01*
X135110711Y-86782749D01*
X135105659Y-86757349D01*
X135068400Y-86570039D01*
X135068400Y-86353161D01*
X135073453Y-86327760D01*
X135104706Y-86170639D01*
X135110711Y-86140450D01*
X135193707Y-85940081D01*
X135193707Y-85940080D01*
X135314195Y-85759756D01*
X135467556Y-85606395D01*
X135647880Y-85485907D01*
X135761257Y-85438945D01*
X135848250Y-85402911D01*
X135975944Y-85377511D01*
X136060960Y-85360600D01*
X136277840Y-85360600D01*
X136362856Y-85377511D01*
X136362856Y-85377511D01*
G37*
G36*
X123684194Y-85356355D02*
G01*
X123790550Y-85377511D01*
X123990920Y-85460507D01*
X124171244Y-85580995D01*
X124324605Y-85734356D01*
X124445093Y-85914680D01*
X124445093Y-85914681D01*
X124528089Y-86115050D01*
X124539146Y-86170637D01*
X124570400Y-86327760D01*
X124570400Y-86544640D01*
X124528089Y-86757349D01*
X124445093Y-86957720D01*
X124324605Y-87138044D01*
X124171244Y-87291405D01*
X123990920Y-87411893D01*
X123890734Y-87453391D01*
X123790550Y-87494889D01*
X123684194Y-87516045D01*
X123577840Y-87537200D01*
X123360960Y-87537200D01*
X123254605Y-87516044D01*
X123148250Y-87494889D01*
X122947880Y-87411893D01*
X122767556Y-87291405D01*
X122614195Y-87138044D01*
X122493707Y-86957720D01*
X122410711Y-86757349D01*
X122368400Y-86544640D01*
X122368400Y-86327760D01*
X122399654Y-86170637D01*
X122410711Y-86115050D01*
X122493707Y-85914681D01*
X122493707Y-85914680D01*
X122614195Y-85734356D01*
X122767556Y-85580995D01*
X122947880Y-85460507D01*
X123148250Y-85377511D01*
X123254605Y-85356356D01*
X123360960Y-85335200D01*
X123577840Y-85335200D01*
X123684194Y-85356355D01*
X123684194Y-85356355D01*
G37*
G36*
X118604194Y-85356355D02*
G01*
X118710550Y-85377511D01*
X118910920Y-85460507D01*
X119091244Y-85580995D01*
X119244605Y-85734356D01*
X119365093Y-85914680D01*
X119365093Y-85914681D01*
X119448089Y-86115050D01*
X119459146Y-86170637D01*
X119490400Y-86327760D01*
X119490400Y-86544640D01*
X119448089Y-86757349D01*
X119365093Y-86957720D01*
X119244605Y-87138044D01*
X119091244Y-87291405D01*
X118910920Y-87411893D01*
X118810734Y-87453391D01*
X118710550Y-87494889D01*
X118604194Y-87516045D01*
X118497840Y-87537200D01*
X118280960Y-87537200D01*
X118174605Y-87516044D01*
X118068250Y-87494889D01*
X117867880Y-87411893D01*
X117687556Y-87291405D01*
X117534195Y-87138044D01*
X117413707Y-86957720D01*
X117330711Y-86757349D01*
X117288400Y-86544640D01*
X117288400Y-86327760D01*
X117319654Y-86170637D01*
X117330711Y-86115050D01*
X117413707Y-85914681D01*
X117413707Y-85914680D01*
X117534195Y-85734356D01*
X117687556Y-85580995D01*
X117867880Y-85460507D01*
X118068250Y-85377511D01*
X118174605Y-85356356D01*
X118280960Y-85335200D01*
X118497840Y-85335200D01*
X118604194Y-85356355D01*
X118604194Y-85356355D01*
G37*
G36*
X121144194Y-85356355D02*
G01*
X121250550Y-85377511D01*
X121450920Y-85460507D01*
X121631244Y-85580995D01*
X121784605Y-85734356D01*
X121905093Y-85914680D01*
X121905093Y-85914681D01*
X121988089Y-86115050D01*
X121999146Y-86170637D01*
X122030400Y-86327760D01*
X122030400Y-86544640D01*
X121988089Y-86757349D01*
X121905093Y-86957720D01*
X121784605Y-87138044D01*
X121631244Y-87291405D01*
X121450920Y-87411893D01*
X121350734Y-87453391D01*
X121250550Y-87494889D01*
X121144194Y-87516045D01*
X121037840Y-87537200D01*
X120820960Y-87537200D01*
X120714605Y-87516044D01*
X120608250Y-87494889D01*
X120407880Y-87411893D01*
X120227556Y-87291405D01*
X120074195Y-87138044D01*
X119953707Y-86957720D01*
X119870711Y-86757349D01*
X119828400Y-86544640D01*
X119828400Y-86327760D01*
X119859654Y-86170637D01*
X119870711Y-86115050D01*
X119953707Y-85914681D01*
X119953707Y-85914680D01*
X120074195Y-85734356D01*
X120227556Y-85580995D01*
X120407880Y-85460507D01*
X120608250Y-85377511D01*
X120714605Y-85356356D01*
X120820960Y-85335200D01*
X121037840Y-85335200D01*
X121144194Y-85356355D01*
X121144194Y-85356355D01*
G37*
G36*
X116064194Y-85305555D02*
G01*
X116170550Y-85326711D01*
X116252365Y-85360600D01*
X116370920Y-85409707D01*
X116551244Y-85530195D01*
X116704605Y-85683556D01*
X116825093Y-85863880D01*
X116908089Y-86064251D01*
X116950400Y-86276960D01*
X116950400Y-86493840D01*
X116908089Y-86706549D01*
X116825093Y-86906920D01*
X116704605Y-87087244D01*
X116551244Y-87240605D01*
X116370920Y-87361093D01*
X116170550Y-87444089D01*
X116064194Y-87465245D01*
X115957840Y-87486400D01*
X115740960Y-87486400D01*
X115634606Y-87465245D01*
X115528250Y-87444089D01*
X115327880Y-87361093D01*
X115147556Y-87240605D01*
X114994195Y-87087244D01*
X114873707Y-86906920D01*
X114790711Y-86706549D01*
X114748400Y-86493840D01*
X114748400Y-86276960D01*
X114790711Y-86064251D01*
X114873707Y-85863880D01*
X114994195Y-85683556D01*
X115147556Y-85530195D01*
X115327880Y-85409707D01*
X115446435Y-85360600D01*
X115528250Y-85326711D01*
X115634606Y-85305555D01*
X115740960Y-85284400D01*
X115957840Y-85284400D01*
X116064194Y-85305555D01*
X116064194Y-85305555D01*
G37*
G36*
X113524194Y-85305555D02*
G01*
X113630550Y-85326711D01*
X113712365Y-85360600D01*
X113830920Y-85409707D01*
X114011244Y-85530195D01*
X114164605Y-85683556D01*
X114285093Y-85863880D01*
X114368089Y-86064251D01*
X114410400Y-86276960D01*
X114410400Y-86493840D01*
X114368089Y-86706549D01*
X114285093Y-86906920D01*
X114164605Y-87087244D01*
X114011244Y-87240605D01*
X113830920Y-87361093D01*
X113630550Y-87444089D01*
X113524194Y-87465245D01*
X113417840Y-87486400D01*
X113200960Y-87486400D01*
X113094606Y-87465245D01*
X112988250Y-87444089D01*
X112787880Y-87361093D01*
X112607556Y-87240605D01*
X112454195Y-87087244D01*
X112333707Y-86906920D01*
X112250711Y-86706549D01*
X112208400Y-86493840D01*
X112208400Y-86276960D01*
X112250711Y-86064251D01*
X112333707Y-85863880D01*
X112454195Y-85683556D01*
X112607556Y-85530195D01*
X112787880Y-85409707D01*
X112906435Y-85360600D01*
X112988250Y-85326711D01*
X113094606Y-85305555D01*
X113200960Y-85284400D01*
X113417840Y-85284400D01*
X113524194Y-85305555D01*
X113524194Y-85305555D01*
G37*
G36*
X147127987Y-84804196D02*
G01*
X147364753Y-84902268D01*
X147364755Y-84902269D01*
X147577839Y-85044647D01*
X147759053Y-85225861D01*
X147849083Y-85360600D01*
X147901432Y-85438947D01*
X147999504Y-85675713D01*
X148049500Y-85927061D01*
X148049500Y-86183339D01*
X147999504Y-86434687D01*
X147906692Y-86658755D01*
X147901431Y-86671455D01*
X147759053Y-86884539D01*
X147577839Y-87065753D01*
X147364755Y-87208131D01*
X147364754Y-87208132D01*
X147364753Y-87208132D01*
X147127987Y-87306204D01*
X146876639Y-87356200D01*
X146620361Y-87356200D01*
X146369013Y-87306204D01*
X146132247Y-87208132D01*
X146132246Y-87208132D01*
X146132245Y-87208131D01*
X145919161Y-87065753D01*
X145737947Y-86884539D01*
X145595569Y-86671455D01*
X145590308Y-86658755D01*
X145497496Y-86434687D01*
X145447500Y-86183339D01*
X145447500Y-85927061D01*
X145497496Y-85675713D01*
X145595568Y-85438947D01*
X145647918Y-85360600D01*
X145737947Y-85225861D01*
X145919161Y-85044647D01*
X146132245Y-84902269D01*
X146132247Y-84902268D01*
X146369013Y-84804196D01*
X146620361Y-84754200D01*
X146876639Y-84754200D01*
X147127987Y-84804196D01*
X147127987Y-84804196D01*
G37*
G36*
X152157187Y-84804196D02*
G01*
X152393953Y-84902268D01*
X152393955Y-84902269D01*
X152607039Y-85044647D01*
X152788253Y-85225861D01*
X152878283Y-85360600D01*
X152930632Y-85438947D01*
X153028704Y-85675713D01*
X153078700Y-85927061D01*
X153078700Y-86183339D01*
X153028704Y-86434687D01*
X152935892Y-86658755D01*
X152930631Y-86671455D01*
X152788253Y-86884539D01*
X152607039Y-87065753D01*
X152393955Y-87208131D01*
X152393954Y-87208132D01*
X152393953Y-87208132D01*
X152157187Y-87306204D01*
X151905839Y-87356200D01*
X151649561Y-87356200D01*
X151398213Y-87306204D01*
X151161447Y-87208132D01*
X151161446Y-87208132D01*
X151161445Y-87208131D01*
X150948361Y-87065753D01*
X150767147Y-86884539D01*
X150624769Y-86671455D01*
X150619508Y-86658755D01*
X150526696Y-86434687D01*
X150476700Y-86183339D01*
X150476700Y-85927061D01*
X150526696Y-85675713D01*
X150624768Y-85438947D01*
X150677118Y-85360600D01*
X150767147Y-85225861D01*
X150948361Y-85044647D01*
X151161445Y-84902269D01*
X151161447Y-84902268D01*
X151398213Y-84804196D01*
X151649561Y-84754200D01*
X151905839Y-84754200D01*
X152157187Y-84804196D01*
X152157187Y-84804196D01*
G37*
G36*
X157135587Y-84804196D02*
G01*
X157372353Y-84902268D01*
X157372355Y-84902269D01*
X157585439Y-85044647D01*
X157766653Y-85225861D01*
X157856683Y-85360600D01*
X157909032Y-85438947D01*
X158007104Y-85675713D01*
X158057100Y-85927061D01*
X158057100Y-86183339D01*
X158007104Y-86434687D01*
X157914292Y-86658755D01*
X157909031Y-86671455D01*
X157766653Y-86884539D01*
X157585439Y-87065753D01*
X157372355Y-87208131D01*
X157372354Y-87208132D01*
X157372353Y-87208132D01*
X157135587Y-87306204D01*
X156884239Y-87356200D01*
X156627961Y-87356200D01*
X156376613Y-87306204D01*
X156139847Y-87208132D01*
X156139846Y-87208132D01*
X156139845Y-87208131D01*
X155926761Y-87065753D01*
X155745547Y-86884539D01*
X155603169Y-86671455D01*
X155597908Y-86658755D01*
X155505096Y-86434687D01*
X155455100Y-86183339D01*
X155455100Y-85927061D01*
X155505096Y-85675713D01*
X155603168Y-85438947D01*
X155655518Y-85360600D01*
X155745547Y-85225861D01*
X155926761Y-85044647D01*
X156139845Y-84902269D01*
X156139847Y-84902268D01*
X156376613Y-84804196D01*
X156627961Y-84754200D01*
X156884239Y-84754200D01*
X157135587Y-84804196D01*
X157135587Y-84804196D01*
G37*
G36*
X142111487Y-84791496D02*
G01*
X142348253Y-84889568D01*
X142348255Y-84889569D01*
X142561339Y-85031947D01*
X142742553Y-85213161D01*
X142873881Y-85409707D01*
X142884932Y-85426247D01*
X142983004Y-85663013D01*
X143033000Y-85914361D01*
X143033000Y-86170639D01*
X142983004Y-86421987D01*
X142921678Y-86570040D01*
X142884931Y-86658755D01*
X142742553Y-86871839D01*
X142561339Y-87053053D01*
X142348255Y-87195431D01*
X142348254Y-87195432D01*
X142348253Y-87195432D01*
X142111487Y-87293504D01*
X141860139Y-87343500D01*
X141603861Y-87343500D01*
X141352513Y-87293504D01*
X141115747Y-87195432D01*
X141115746Y-87195432D01*
X141115745Y-87195431D01*
X140902661Y-87053053D01*
X140721447Y-86871839D01*
X140579069Y-86658755D01*
X140542322Y-86570040D01*
X140480996Y-86421987D01*
X140431000Y-86170639D01*
X140431000Y-85914361D01*
X140480996Y-85663013D01*
X140579068Y-85426247D01*
X140590120Y-85409707D01*
X140721447Y-85213161D01*
X140902661Y-85031947D01*
X141115745Y-84889569D01*
X141115747Y-84889568D01*
X141352513Y-84791496D01*
X141603861Y-84741500D01*
X141860139Y-84741500D01*
X142111487Y-84791496D01*
X142111487Y-84791496D01*
G37*
G36*
X109341256Y-80966698D02*
G01*
X109447579Y-80987847D01*
X109748042Y-81112303D01*
X110018451Y-81292985D01*
X110248415Y-81522949D01*
X110429097Y-81793358D01*
X110553553Y-82093821D01*
X110617000Y-82412791D01*
X110617000Y-82738009D01*
X110553553Y-83056979D01*
X110429097Y-83357442D01*
X110248415Y-83627851D01*
X110018451Y-83857815D01*
X109748042Y-84038497D01*
X109447579Y-84162953D01*
X109341256Y-84184102D01*
X109128611Y-84226400D01*
X108803389Y-84226400D01*
X108590744Y-84184102D01*
X108484421Y-84162953D01*
X108183958Y-84038497D01*
X107913549Y-83857815D01*
X107683585Y-83627851D01*
X107502903Y-83357442D01*
X107378447Y-83056979D01*
X107315000Y-82738009D01*
X107315000Y-82412791D01*
X107378447Y-82093821D01*
X107502903Y-81793358D01*
X107683585Y-81522949D01*
X107913549Y-81292985D01*
X108183958Y-81112303D01*
X108484421Y-80987847D01*
X108590744Y-80966698D01*
X108803389Y-80924400D01*
X109128611Y-80924400D01*
X109341256Y-80966698D01*
X109341256Y-80966698D01*
G37*
G36*
X163138456Y-80966698D02*
G01*
X163244779Y-80987847D01*
X163545242Y-81112303D01*
X163815651Y-81292985D01*
X164045615Y-81522949D01*
X164226297Y-81793358D01*
X164350753Y-82093821D01*
X164414200Y-82412791D01*
X164414200Y-82738009D01*
X164350753Y-83056979D01*
X164226297Y-83357442D01*
X164045615Y-83627851D01*
X163815651Y-83857815D01*
X163545242Y-84038497D01*
X163244779Y-84162953D01*
X163138456Y-84184102D01*
X162925811Y-84226400D01*
X162600589Y-84226400D01*
X162387944Y-84184102D01*
X162281621Y-84162953D01*
X161981158Y-84038497D01*
X161710749Y-83857815D01*
X161480785Y-83627851D01*
X161300103Y-83357442D01*
X161175647Y-83056979D01*
X161112200Y-82738009D01*
X161112200Y-82412791D01*
X161175647Y-82093821D01*
X161300103Y-81793358D01*
X161480785Y-81522949D01*
X161710749Y-81292985D01*
X161981158Y-81112303D01*
X162281621Y-80987847D01*
X162387944Y-80966698D01*
X162600589Y-80924400D01*
X162925811Y-80924400D01*
X163138456Y-80966698D01*
X163138456Y-80966698D01*
G37*
M02*
