G04 #@! TF.GenerationSoftware,KiCad,Pcbnew,5.1.2-f72e74a~84~ubuntu19.04.1*
G04 #@! TF.CreationDate,2019-05-14T14:31:21-05:00*
G04 #@! TF.ProjectId,Adapter-TE-52,41646170-7465-4722-9d54-452d35322e6b,rev?*
G04 #@! TF.SameCoordinates,Original*
G04 #@! TF.FileFunction,Legend,Top*
G04 #@! TF.FilePolarity,Positive*
%FSLAX46Y46*%
G04 Gerber Fmt 4.6, Leading zero omitted, Abs format (unit mm)*
G04 Created by KiCad (PCBNEW 5.1.2-f72e74a~84~ubuntu19.04.1) date 2019-05-14 14:31:21*
%MOMM*%
%LPD*%
G04 APERTURE LIST*
%ADD10C,0.120000*%
%ADD11C,0.150000*%
G04 APERTURE END LIST*
D10*
X168629640Y-119504280D02*
X102469640Y-119504280D01*
X102469640Y-119504280D02*
X102469640Y-122164280D01*
X102469640Y-122164280D02*
X168629640Y-122164280D01*
X168629640Y-122164280D02*
X168629640Y-119504280D01*
X167679640Y-122164280D02*
X167679640Y-128164280D01*
X167679640Y-128164280D02*
X166919640Y-128164280D01*
X166919640Y-128164280D02*
X166919640Y-122164280D01*
X167619640Y-122164280D02*
X167619640Y-128164280D01*
X167499640Y-122164280D02*
X167499640Y-128164280D01*
X167379640Y-122164280D02*
X167379640Y-128164280D01*
X167259640Y-122164280D02*
X167259640Y-128164280D01*
X167139640Y-122164280D02*
X167139640Y-128164280D01*
X167019640Y-122164280D02*
X167019640Y-128164280D01*
X167679640Y-119107209D02*
X167679640Y-119504280D01*
X166919640Y-119107209D02*
X166919640Y-119504280D01*
X167679640Y-116634280D02*
X167679640Y-117021351D01*
X166919640Y-116634280D02*
X166919640Y-117021351D01*
X166029640Y-119504280D02*
X166029640Y-122164280D01*
X165139640Y-122164280D02*
X165139640Y-128164280D01*
X165139640Y-128164280D02*
X164379640Y-128164280D01*
X164379640Y-128164280D02*
X164379640Y-122164280D01*
X165139640Y-119107209D02*
X165139640Y-119504280D01*
X164379640Y-119107209D02*
X164379640Y-119504280D01*
X165139640Y-116567209D02*
X165139640Y-117021351D01*
X164379640Y-116567209D02*
X164379640Y-117021351D01*
X163489640Y-119504280D02*
X163489640Y-122164280D01*
X162599640Y-122164280D02*
X162599640Y-128164280D01*
X162599640Y-128164280D02*
X161839640Y-128164280D01*
X161839640Y-128164280D02*
X161839640Y-122164280D01*
X162599640Y-119107209D02*
X162599640Y-119504280D01*
X161839640Y-119107209D02*
X161839640Y-119504280D01*
X162599640Y-116567209D02*
X162599640Y-117021351D01*
X161839640Y-116567209D02*
X161839640Y-117021351D01*
X160949640Y-119504280D02*
X160949640Y-122164280D01*
X160059640Y-122164280D02*
X160059640Y-128164280D01*
X160059640Y-128164280D02*
X159299640Y-128164280D01*
X159299640Y-128164280D02*
X159299640Y-122164280D01*
X160059640Y-119107209D02*
X160059640Y-119504280D01*
X159299640Y-119107209D02*
X159299640Y-119504280D01*
X160059640Y-116567209D02*
X160059640Y-117021351D01*
X159299640Y-116567209D02*
X159299640Y-117021351D01*
X158409640Y-119504280D02*
X158409640Y-122164280D01*
X157519640Y-122164280D02*
X157519640Y-128164280D01*
X157519640Y-128164280D02*
X156759640Y-128164280D01*
X156759640Y-128164280D02*
X156759640Y-122164280D01*
X157519640Y-119107209D02*
X157519640Y-119504280D01*
X156759640Y-119107209D02*
X156759640Y-119504280D01*
X157519640Y-116567209D02*
X157519640Y-117021351D01*
X156759640Y-116567209D02*
X156759640Y-117021351D01*
X155869640Y-119504280D02*
X155869640Y-122164280D01*
X154979640Y-122164280D02*
X154979640Y-128164280D01*
X154979640Y-128164280D02*
X154219640Y-128164280D01*
X154219640Y-128164280D02*
X154219640Y-122164280D01*
X154979640Y-119107209D02*
X154979640Y-119504280D01*
X154219640Y-119107209D02*
X154219640Y-119504280D01*
X154979640Y-116567209D02*
X154979640Y-117021351D01*
X154219640Y-116567209D02*
X154219640Y-117021351D01*
X153329640Y-119504280D02*
X153329640Y-122164280D01*
X152439640Y-122164280D02*
X152439640Y-128164280D01*
X152439640Y-128164280D02*
X151679640Y-128164280D01*
X151679640Y-128164280D02*
X151679640Y-122164280D01*
X152439640Y-119107209D02*
X152439640Y-119504280D01*
X151679640Y-119107209D02*
X151679640Y-119504280D01*
X152439640Y-116567209D02*
X152439640Y-117021351D01*
X151679640Y-116567209D02*
X151679640Y-117021351D01*
X150789640Y-119504280D02*
X150789640Y-122164280D01*
X149899640Y-122164280D02*
X149899640Y-128164280D01*
X149899640Y-128164280D02*
X149139640Y-128164280D01*
X149139640Y-128164280D02*
X149139640Y-122164280D01*
X149899640Y-119107209D02*
X149899640Y-119504280D01*
X149139640Y-119107209D02*
X149139640Y-119504280D01*
X149899640Y-116567209D02*
X149899640Y-117021351D01*
X149139640Y-116567209D02*
X149139640Y-117021351D01*
X148249640Y-119504280D02*
X148249640Y-122164280D01*
X147359640Y-122164280D02*
X147359640Y-128164280D01*
X147359640Y-128164280D02*
X146599640Y-128164280D01*
X146599640Y-128164280D02*
X146599640Y-122164280D01*
X147359640Y-119107209D02*
X147359640Y-119504280D01*
X146599640Y-119107209D02*
X146599640Y-119504280D01*
X147359640Y-116567209D02*
X147359640Y-117021351D01*
X146599640Y-116567209D02*
X146599640Y-117021351D01*
X145709640Y-119504280D02*
X145709640Y-122164280D01*
X144819640Y-122164280D02*
X144819640Y-128164280D01*
X144819640Y-128164280D02*
X144059640Y-128164280D01*
X144059640Y-128164280D02*
X144059640Y-122164280D01*
X144819640Y-119107209D02*
X144819640Y-119504280D01*
X144059640Y-119107209D02*
X144059640Y-119504280D01*
X144819640Y-116567209D02*
X144819640Y-117021351D01*
X144059640Y-116567209D02*
X144059640Y-117021351D01*
X143169640Y-119504280D02*
X143169640Y-122164280D01*
X142279640Y-122164280D02*
X142279640Y-128164280D01*
X142279640Y-128164280D02*
X141519640Y-128164280D01*
X141519640Y-128164280D02*
X141519640Y-122164280D01*
X142279640Y-119107209D02*
X142279640Y-119504280D01*
X141519640Y-119107209D02*
X141519640Y-119504280D01*
X142279640Y-116567209D02*
X142279640Y-117021351D01*
X141519640Y-116567209D02*
X141519640Y-117021351D01*
X140629640Y-119504280D02*
X140629640Y-122164280D01*
X139739640Y-122164280D02*
X139739640Y-128164280D01*
X139739640Y-128164280D02*
X138979640Y-128164280D01*
X138979640Y-128164280D02*
X138979640Y-122164280D01*
X139739640Y-119107209D02*
X139739640Y-119504280D01*
X138979640Y-119107209D02*
X138979640Y-119504280D01*
X139739640Y-116567209D02*
X139739640Y-117021351D01*
X138979640Y-116567209D02*
X138979640Y-117021351D01*
X138089640Y-119504280D02*
X138089640Y-122164280D01*
X137199640Y-122164280D02*
X137199640Y-128164280D01*
X137199640Y-128164280D02*
X136439640Y-128164280D01*
X136439640Y-128164280D02*
X136439640Y-122164280D01*
X137199640Y-119107209D02*
X137199640Y-119504280D01*
X136439640Y-119107209D02*
X136439640Y-119504280D01*
X137199640Y-116567209D02*
X137199640Y-117021351D01*
X136439640Y-116567209D02*
X136439640Y-117021351D01*
X135549640Y-119504280D02*
X135549640Y-122164280D01*
X134659640Y-122164280D02*
X134659640Y-128164280D01*
X134659640Y-128164280D02*
X133899640Y-128164280D01*
X133899640Y-128164280D02*
X133899640Y-122164280D01*
X134659640Y-119107209D02*
X134659640Y-119504280D01*
X133899640Y-119107209D02*
X133899640Y-119504280D01*
X134659640Y-116567209D02*
X134659640Y-117021351D01*
X133899640Y-116567209D02*
X133899640Y-117021351D01*
X133009640Y-119504280D02*
X133009640Y-122164280D01*
X132119640Y-122164280D02*
X132119640Y-128164280D01*
X132119640Y-128164280D02*
X131359640Y-128164280D01*
X131359640Y-128164280D02*
X131359640Y-122164280D01*
X132119640Y-119107209D02*
X132119640Y-119504280D01*
X131359640Y-119107209D02*
X131359640Y-119504280D01*
X132119640Y-116567209D02*
X132119640Y-117021351D01*
X131359640Y-116567209D02*
X131359640Y-117021351D01*
X130469640Y-119504280D02*
X130469640Y-122164280D01*
X129579640Y-122164280D02*
X129579640Y-128164280D01*
X129579640Y-128164280D02*
X128819640Y-128164280D01*
X128819640Y-128164280D02*
X128819640Y-122164280D01*
X129579640Y-119107209D02*
X129579640Y-119504280D01*
X128819640Y-119107209D02*
X128819640Y-119504280D01*
X129579640Y-116567209D02*
X129579640Y-117021351D01*
X128819640Y-116567209D02*
X128819640Y-117021351D01*
X127929640Y-119504280D02*
X127929640Y-122164280D01*
X127039640Y-122164280D02*
X127039640Y-128164280D01*
X127039640Y-128164280D02*
X126279640Y-128164280D01*
X126279640Y-128164280D02*
X126279640Y-122164280D01*
X127039640Y-119107209D02*
X127039640Y-119504280D01*
X126279640Y-119107209D02*
X126279640Y-119504280D01*
X127039640Y-116567209D02*
X127039640Y-117021351D01*
X126279640Y-116567209D02*
X126279640Y-117021351D01*
X125389640Y-119504280D02*
X125389640Y-122164280D01*
X124499640Y-122164280D02*
X124499640Y-128164280D01*
X124499640Y-128164280D02*
X123739640Y-128164280D01*
X123739640Y-128164280D02*
X123739640Y-122164280D01*
X124499640Y-119107209D02*
X124499640Y-119504280D01*
X123739640Y-119107209D02*
X123739640Y-119504280D01*
X124499640Y-116567209D02*
X124499640Y-117021351D01*
X123739640Y-116567209D02*
X123739640Y-117021351D01*
X122849640Y-119504280D02*
X122849640Y-122164280D01*
X121959640Y-122164280D02*
X121959640Y-128164280D01*
X121959640Y-128164280D02*
X121199640Y-128164280D01*
X121199640Y-128164280D02*
X121199640Y-122164280D01*
X121959640Y-119107209D02*
X121959640Y-119504280D01*
X121199640Y-119107209D02*
X121199640Y-119504280D01*
X121959640Y-116567209D02*
X121959640Y-117021351D01*
X121199640Y-116567209D02*
X121199640Y-117021351D01*
X120309640Y-119504280D02*
X120309640Y-122164280D01*
X119419640Y-122164280D02*
X119419640Y-128164280D01*
X119419640Y-128164280D02*
X118659640Y-128164280D01*
X118659640Y-128164280D02*
X118659640Y-122164280D01*
X119419640Y-119107209D02*
X119419640Y-119504280D01*
X118659640Y-119107209D02*
X118659640Y-119504280D01*
X119419640Y-116567209D02*
X119419640Y-117021351D01*
X118659640Y-116567209D02*
X118659640Y-117021351D01*
X117769640Y-119504280D02*
X117769640Y-122164280D01*
X116879640Y-122164280D02*
X116879640Y-128164280D01*
X116879640Y-128164280D02*
X116119640Y-128164280D01*
X116119640Y-128164280D02*
X116119640Y-122164280D01*
X116879640Y-119107209D02*
X116879640Y-119504280D01*
X116119640Y-119107209D02*
X116119640Y-119504280D01*
X116879640Y-116567209D02*
X116879640Y-117021351D01*
X116119640Y-116567209D02*
X116119640Y-117021351D01*
X115229640Y-119504280D02*
X115229640Y-122164280D01*
X114339640Y-122164280D02*
X114339640Y-128164280D01*
X114339640Y-128164280D02*
X113579640Y-128164280D01*
X113579640Y-128164280D02*
X113579640Y-122164280D01*
X114339640Y-119107209D02*
X114339640Y-119504280D01*
X113579640Y-119107209D02*
X113579640Y-119504280D01*
X114339640Y-116567209D02*
X114339640Y-117021351D01*
X113579640Y-116567209D02*
X113579640Y-117021351D01*
X112689640Y-119504280D02*
X112689640Y-122164280D01*
X111799640Y-122164280D02*
X111799640Y-128164280D01*
X111799640Y-128164280D02*
X111039640Y-128164280D01*
X111039640Y-128164280D02*
X111039640Y-122164280D01*
X111799640Y-119107209D02*
X111799640Y-119504280D01*
X111039640Y-119107209D02*
X111039640Y-119504280D01*
X111799640Y-116567209D02*
X111799640Y-117021351D01*
X111039640Y-116567209D02*
X111039640Y-117021351D01*
X110149640Y-119504280D02*
X110149640Y-122164280D01*
X109259640Y-122164280D02*
X109259640Y-128164280D01*
X109259640Y-128164280D02*
X108499640Y-128164280D01*
X108499640Y-128164280D02*
X108499640Y-122164280D01*
X109259640Y-119107209D02*
X109259640Y-119504280D01*
X108499640Y-119107209D02*
X108499640Y-119504280D01*
X109259640Y-116567209D02*
X109259640Y-117021351D01*
X108499640Y-116567209D02*
X108499640Y-117021351D01*
X107609640Y-119504280D02*
X107609640Y-122164280D01*
X106719640Y-122164280D02*
X106719640Y-128164280D01*
X106719640Y-128164280D02*
X105959640Y-128164280D01*
X105959640Y-128164280D02*
X105959640Y-122164280D01*
X106719640Y-119107209D02*
X106719640Y-119504280D01*
X105959640Y-119107209D02*
X105959640Y-119504280D01*
X106719640Y-116567209D02*
X106719640Y-117021351D01*
X105959640Y-116567209D02*
X105959640Y-117021351D01*
X105069640Y-119504280D02*
X105069640Y-122164280D01*
X104179640Y-122164280D02*
X104179640Y-128164280D01*
X104179640Y-128164280D02*
X103419640Y-128164280D01*
X103419640Y-128164280D02*
X103419640Y-122164280D01*
X104179640Y-119107209D02*
X104179640Y-119504280D01*
X103419640Y-119107209D02*
X103419640Y-119504280D01*
X104179640Y-116567209D02*
X104179640Y-117021351D01*
X103419640Y-116567209D02*
X103419640Y-117021351D01*
X167299640Y-114254280D02*
X168569640Y-114254280D01*
X168569640Y-114254280D02*
X168569640Y-115524280D01*
X106159300Y-110426500D02*
X106159300Y-75539600D01*
X165163500Y-110426500D02*
X106159300Y-110426500D01*
X165163500Y-75539600D02*
X165163500Y-110426500D01*
X106159300Y-75539600D02*
X165163500Y-75539600D01*
D11*
X169022020Y-121941184D02*
X169831544Y-121941184D01*
X169926782Y-121893565D01*
X169974401Y-121845946D01*
X170022020Y-121750708D01*
X170022020Y-121560232D01*
X169974401Y-121464994D01*
X169926782Y-121417375D01*
X169831544Y-121369756D01*
X169022020Y-121369756D01*
X169117259Y-120941184D02*
X169069640Y-120893565D01*
X169022020Y-120798327D01*
X169022020Y-120560232D01*
X169069640Y-120464994D01*
X169117259Y-120417375D01*
X169212497Y-120369756D01*
X169307735Y-120369756D01*
X169450592Y-120417375D01*
X170022020Y-120988803D01*
X170022020Y-120369756D01*
X107797695Y-85012280D02*
X107797695Y-85821804D01*
X107845314Y-85917042D01*
X107892933Y-85964661D01*
X107988171Y-86012280D01*
X108178647Y-86012280D01*
X108273885Y-85964661D01*
X108321504Y-85917042D01*
X108369123Y-85821804D01*
X108369123Y-85012280D01*
X109369123Y-86012280D02*
X108797695Y-86012280D01*
X109083409Y-86012280D02*
X109083409Y-85012280D01*
X108988171Y-85155138D01*
X108892933Y-85250376D01*
X108797695Y-85297995D01*
M02*
