G04 #@! TF.GenerationSoftware,KiCad,Pcbnew,5.1.7-a382d34a88~90~ubuntu20.04.1*
G04 #@! TF.CreationDate,2022-01-21T18:15:31-06:00*
G04 #@! TF.ProjectId,strike-controller,73747269-6b65-42d6-936f-6e74726f6c6c,rev?*
G04 #@! TF.SameCoordinates,Original*
G04 #@! TF.FileFunction,Copper,L2,Inr*
G04 #@! TF.FilePolarity,Positive*
%FSLAX46Y46*%
G04 Gerber Fmt 4.6, Leading zero omitted, Abs format (unit mm)*
G04 Created by KiCad (PCBNEW 5.1.7-a382d34a88~90~ubuntu20.04.1) date 2022-01-21 18:15:31*
%MOMM*%
%LPD*%
G01*
G04 APERTURE LIST*
G04 #@! TA.AperFunction,ComponentPad*
%ADD10C,2.500000*%
G04 #@! TD*
G04 #@! TA.AperFunction,ComponentPad*
%ADD11O,0.890000X1.550000*%
G04 #@! TD*
G04 #@! TA.AperFunction,ComponentPad*
%ADD12O,1.250000X0.950000*%
G04 #@! TD*
G04 #@! TA.AperFunction,ViaPad*
%ADD13C,0.600000*%
G04 #@! TD*
G04 #@! TA.AperFunction,ViaPad*
%ADD14C,0.800000*%
G04 #@! TD*
G04 #@! TA.AperFunction,ViaPad*
%ADD15C,1.000000*%
G04 #@! TD*
G04 #@! TA.AperFunction,Conductor*
%ADD16C,0.254000*%
G04 #@! TD*
G04 #@! TA.AperFunction,Conductor*
%ADD17C,0.100000*%
G04 #@! TD*
G04 APERTURE END LIST*
D10*
X160500000Y-115925000D03*
X160500000Y-56950000D03*
X132525000Y-115900000D03*
X132500000Y-56950000D03*
D11*
X142600000Y-115175000D03*
X135600000Y-115175000D03*
D12*
X141600000Y-112475000D03*
X136600000Y-112475000D03*
D13*
X152175000Y-116450000D03*
X148625000Y-116475000D03*
X148625000Y-110050000D03*
X152175000Y-110025000D03*
X140400000Y-111300000D03*
D14*
X140275000Y-108050000D03*
X143700000Y-102300000D03*
D13*
X138200000Y-108500000D03*
X143208051Y-110133051D03*
X137550000Y-97025000D03*
X138600000Y-93450000D03*
D15*
X146075000Y-84275000D03*
X149300000Y-87525000D03*
X146075000Y-90725000D03*
D13*
X154600000Y-92200000D03*
X157700000Y-92225000D03*
X158650000Y-94425000D03*
X158850000Y-87875000D03*
D15*
X142875010Y-87524906D03*
D13*
X149575000Y-99650000D03*
X155575000Y-99650000D03*
X156525000Y-98600000D03*
X161650000Y-112700000D03*
X154800000Y-114625000D03*
D15*
X160925000Y-106100000D03*
X160925000Y-102675000D03*
D13*
X152150000Y-104850000D03*
X161099981Y-74425000D03*
D14*
X145609063Y-104915618D03*
D13*
X160979991Y-81400000D03*
X159300000Y-64575000D03*
X153150000Y-65775000D03*
X140050000Y-58800000D03*
X136325000Y-63075000D03*
X136325000Y-65725000D03*
X142575000Y-63075000D03*
X146600000Y-64550000D03*
X138575000Y-79550000D03*
X138600000Y-76475000D03*
X141350000Y-75175000D03*
X140325000Y-74375000D03*
X153350000Y-63075010D03*
X142778551Y-64298342D03*
X132650000Y-101625000D03*
X134635636Y-112473262D03*
X146775000Y-74325000D03*
X153958051Y-75583051D03*
X147771509Y-74609556D03*
X157999990Y-64429144D03*
X157075000Y-62924990D03*
X159275000Y-69600000D03*
X137975000Y-99900000D03*
X140550000Y-97000000D03*
X139875000Y-93475000D03*
X161775000Y-96175000D03*
D15*
X158650000Y-108925000D03*
X156000000Y-110650000D03*
X161275000Y-110900000D03*
X158675000Y-106075000D03*
D13*
X145550000Y-116225000D03*
X161549991Y-90400000D03*
X154600000Y-63050000D03*
X155175000Y-66500000D03*
X138850000Y-62550000D03*
X151743201Y-62793201D03*
X132725000Y-105000000D03*
X153450010Y-97850000D03*
X143275000Y-99625000D03*
X144634337Y-102044619D03*
X143275000Y-98425000D03*
X142750000Y-93075000D03*
X154275000Y-80200000D03*
X156275000Y-78400000D03*
X132875000Y-109950000D03*
X136100000Y-110775000D03*
X133050000Y-113099990D03*
X140475000Y-72125000D03*
X150550000Y-65525000D03*
X149775000Y-57500000D03*
X150875000Y-58775000D03*
X154600000Y-58775000D03*
X155250000Y-56375000D03*
X136350000Y-56175000D03*
X136325000Y-58800000D03*
X137550000Y-63075000D03*
X137575000Y-65775000D03*
X137950000Y-66700000D03*
X137775000Y-71275000D03*
X140200000Y-66050000D03*
X146600000Y-69550000D03*
X160775000Y-70175000D03*
X141371151Y-63057963D03*
X151155656Y-63380746D03*
X145575010Y-70181834D03*
X150575000Y-71200000D03*
X154000000Y-73900000D03*
X156775000Y-102650000D03*
X160325000Y-78350000D03*
X160150000Y-81425000D03*
X148050000Y-72550000D03*
X144371279Y-62671279D03*
X150500000Y-67325000D03*
X155900000Y-65675000D03*
X157850000Y-70275000D03*
X150333780Y-60108780D03*
X157300000Y-76800000D03*
X146650000Y-103850000D03*
X146425000Y-102475000D03*
X145150000Y-101500000D03*
X143075006Y-96422478D03*
X139800000Y-105525000D03*
X142575000Y-102250000D03*
X138950000Y-101075000D03*
X140900000Y-100700000D03*
X144775000Y-99925000D03*
X145575000Y-97275000D03*
X152550000Y-99200000D03*
X154275000Y-82300000D03*
X152875000Y-79850000D03*
X152380726Y-97056087D03*
X153325000Y-99650000D03*
X152278372Y-101760819D03*
X135625000Y-108350000D03*
X142275000Y-79575000D03*
X135000000Y-107875000D03*
X142225000Y-80650000D03*
X152675000Y-66825000D03*
X157875000Y-96400000D03*
X150525000Y-96525000D03*
X143125000Y-69675010D03*
X152894597Y-69659225D03*
X151625000Y-101100000D03*
X145325000Y-76400000D03*
X148166201Y-75921987D03*
X140375000Y-62875000D03*
X149125000Y-76275000D03*
X144118096Y-76402618D03*
X143675000Y-63025000D03*
X140600000Y-81850000D03*
X139900000Y-79925000D03*
X141300000Y-69100000D03*
X144300000Y-69275000D03*
X144300000Y-75575000D03*
X150547057Y-76470021D03*
D16*
X159071285Y-55700893D02*
X159186393Y-55816001D01*
X158896423Y-55941914D01*
X158730567Y-56274126D01*
X158632710Y-56632312D01*
X158606611Y-57002706D01*
X158653275Y-57371075D01*
X158770906Y-57723262D01*
X158896423Y-57958086D01*
X159186395Y-58084000D01*
X160320395Y-56950000D01*
X160306253Y-56935858D01*
X160485858Y-56756253D01*
X160500000Y-56770395D01*
X160514143Y-56756253D01*
X160693748Y-56935858D01*
X160679605Y-56950000D01*
X160693748Y-56964143D01*
X160514143Y-57143748D01*
X160500000Y-57129605D01*
X159366000Y-58263605D01*
X159491914Y-58553577D01*
X159824126Y-58719433D01*
X160182312Y-58817290D01*
X160552706Y-58843389D01*
X160921075Y-58796725D01*
X161273262Y-58679094D01*
X161508086Y-58553577D01*
X161633999Y-58263607D01*
X161749107Y-58378715D01*
X161800001Y-58327821D01*
X161800000Y-89496413D01*
X161642080Y-89465000D01*
X161457902Y-89465000D01*
X161277262Y-89500932D01*
X161107102Y-89571414D01*
X160953963Y-89673738D01*
X160823729Y-89803972D01*
X160721405Y-89957111D01*
X160650923Y-90127271D01*
X160614991Y-90307911D01*
X160614991Y-90492089D01*
X160650923Y-90672729D01*
X160721405Y-90842889D01*
X160823729Y-90996028D01*
X160953963Y-91126262D01*
X161107102Y-91228586D01*
X161277262Y-91299068D01*
X161457902Y-91335000D01*
X161642080Y-91335000D01*
X161800000Y-91303587D01*
X161800000Y-95240000D01*
X161682911Y-95240000D01*
X161502271Y-95275932D01*
X161332111Y-95346414D01*
X161178972Y-95448738D01*
X161048738Y-95578972D01*
X160946414Y-95732111D01*
X160875932Y-95902271D01*
X160840000Y-96082911D01*
X160840000Y-96267089D01*
X160875932Y-96447729D01*
X160946414Y-96617889D01*
X161048738Y-96771028D01*
X161178972Y-96901262D01*
X161332111Y-97003586D01*
X161502271Y-97074068D01*
X161682911Y-97110000D01*
X161800000Y-97110000D01*
X161800000Y-109888947D01*
X161606067Y-109808617D01*
X161386788Y-109765000D01*
X161163212Y-109765000D01*
X160943933Y-109808617D01*
X160737376Y-109894176D01*
X160551480Y-110018388D01*
X160393388Y-110176480D01*
X160269176Y-110362376D01*
X160183617Y-110568933D01*
X160140000Y-110788212D01*
X160140000Y-111011788D01*
X160183617Y-111231067D01*
X160269176Y-111437624D01*
X160393388Y-111623520D01*
X160551480Y-111781612D01*
X160737376Y-111905824D01*
X160943933Y-111991383D01*
X161163212Y-112035000D01*
X161386788Y-112035000D01*
X161606067Y-111991383D01*
X161800000Y-111911053D01*
X161800000Y-114547178D01*
X161749107Y-114496285D01*
X161633999Y-114611393D01*
X161508086Y-114321423D01*
X161175874Y-114155567D01*
X160817688Y-114057710D01*
X160447294Y-114031611D01*
X160078925Y-114078275D01*
X159726738Y-114195906D01*
X159491914Y-114321423D01*
X159366000Y-114611395D01*
X160500000Y-115745395D01*
X160514143Y-115731253D01*
X160693748Y-115910858D01*
X160679605Y-115925000D01*
X160693748Y-115939143D01*
X160514143Y-116118748D01*
X160500000Y-116104605D01*
X160485858Y-116118748D01*
X160306253Y-115939143D01*
X160320395Y-115925000D01*
X159186395Y-114791000D01*
X158896423Y-114916914D01*
X158730567Y-115249126D01*
X158632710Y-115607312D01*
X158606611Y-115977706D01*
X158653275Y-116346075D01*
X158770906Y-116698262D01*
X158896423Y-116933086D01*
X159186393Y-117058999D01*
X159071285Y-117174107D01*
X159117178Y-117220000D01*
X133882822Y-117220000D01*
X133953715Y-117149107D01*
X133838607Y-117033999D01*
X134128577Y-116908086D01*
X134294433Y-116575874D01*
X134392290Y-116217688D01*
X134418389Y-115847294D01*
X134371725Y-115478925D01*
X134312632Y-115302000D01*
X134520000Y-115302000D01*
X134520000Y-115632000D01*
X134565528Y-115840257D01*
X134650810Y-116035631D01*
X134772569Y-116210613D01*
X134926126Y-116358479D01*
X135105580Y-116473546D01*
X135306787Y-116544435D01*
X135473000Y-116417454D01*
X135473000Y-115302000D01*
X135727000Y-115302000D01*
X135727000Y-116417454D01*
X135893213Y-116544435D01*
X136094420Y-116473546D01*
X136273874Y-116358479D01*
X136427431Y-116210613D01*
X136549190Y-116035631D01*
X136634472Y-115840257D01*
X136680000Y-115632000D01*
X136680000Y-115302000D01*
X141520000Y-115302000D01*
X141520000Y-115632000D01*
X141565528Y-115840257D01*
X141650810Y-116035631D01*
X141772569Y-116210613D01*
X141926126Y-116358479D01*
X142105580Y-116473546D01*
X142306787Y-116544435D01*
X142473000Y-116417454D01*
X142473000Y-115302000D01*
X142727000Y-115302000D01*
X142727000Y-116417454D01*
X142893213Y-116544435D01*
X143094420Y-116473546D01*
X143273874Y-116358479D01*
X143427431Y-116210613D01*
X143481498Y-116132911D01*
X144615000Y-116132911D01*
X144615000Y-116317089D01*
X144650932Y-116497729D01*
X144721414Y-116667889D01*
X144823738Y-116821028D01*
X144953972Y-116951262D01*
X145107111Y-117053586D01*
X145277271Y-117124068D01*
X145457911Y-117160000D01*
X145642089Y-117160000D01*
X145822729Y-117124068D01*
X145992889Y-117053586D01*
X146146028Y-116951262D01*
X146276262Y-116821028D01*
X146378586Y-116667889D01*
X146449068Y-116497729D01*
X146485000Y-116317089D01*
X146485000Y-116132911D01*
X146449068Y-115952271D01*
X146378586Y-115782111D01*
X146276262Y-115628972D01*
X146146028Y-115498738D01*
X145992889Y-115396414D01*
X145822729Y-115325932D01*
X145642089Y-115290000D01*
X145457911Y-115290000D01*
X145277271Y-115325932D01*
X145107111Y-115396414D01*
X144953972Y-115498738D01*
X144823738Y-115628972D01*
X144721414Y-115782111D01*
X144650932Y-115952271D01*
X144615000Y-116132911D01*
X143481498Y-116132911D01*
X143549190Y-116035631D01*
X143634472Y-115840257D01*
X143680000Y-115632000D01*
X143680000Y-115302000D01*
X142727000Y-115302000D01*
X142473000Y-115302000D01*
X141520000Y-115302000D01*
X136680000Y-115302000D01*
X135727000Y-115302000D01*
X135473000Y-115302000D01*
X134520000Y-115302000D01*
X134312632Y-115302000D01*
X134254094Y-115126738D01*
X134128577Y-114891914D01*
X133838605Y-114766000D01*
X132704605Y-115900000D01*
X132718748Y-115914143D01*
X132539143Y-116093748D01*
X132525000Y-116079605D01*
X132510858Y-116093748D01*
X132331253Y-115914143D01*
X132345395Y-115900000D01*
X132331253Y-115885858D01*
X132510858Y-115706253D01*
X132525000Y-115720395D01*
X133527395Y-114718000D01*
X134520000Y-114718000D01*
X134520000Y-115048000D01*
X135473000Y-115048000D01*
X135473000Y-113932546D01*
X135727000Y-113932546D01*
X135727000Y-115048000D01*
X136680000Y-115048000D01*
X136680000Y-114718000D01*
X141520000Y-114718000D01*
X141520000Y-115048000D01*
X142473000Y-115048000D01*
X142473000Y-113932546D01*
X142727000Y-113932546D01*
X142727000Y-115048000D01*
X143680000Y-115048000D01*
X143680000Y-114718000D01*
X143634472Y-114509743D01*
X143549190Y-114314369D01*
X143427431Y-114139387D01*
X143273874Y-113991521D01*
X143094420Y-113876454D01*
X142893213Y-113805565D01*
X142727000Y-113932546D01*
X142473000Y-113932546D01*
X142306787Y-113805565D01*
X142105580Y-113876454D01*
X141926126Y-113991521D01*
X141772569Y-114139387D01*
X141650810Y-114314369D01*
X141565528Y-114509743D01*
X141520000Y-114718000D01*
X136680000Y-114718000D01*
X136634472Y-114509743D01*
X136549190Y-114314369D01*
X136427431Y-114139387D01*
X136273874Y-113991521D01*
X136094420Y-113876454D01*
X135893213Y-113805565D01*
X135727000Y-113932546D01*
X135473000Y-113932546D01*
X135306787Y-113805565D01*
X135105580Y-113876454D01*
X134926126Y-113991521D01*
X134772569Y-114139387D01*
X134650810Y-114314369D01*
X134565528Y-114509743D01*
X134520000Y-114718000D01*
X133527395Y-114718000D01*
X133659000Y-114586395D01*
X133533086Y-114296423D01*
X133200874Y-114130567D01*
X132842688Y-114032710D01*
X132472294Y-114006611D01*
X132103925Y-114053275D01*
X131751738Y-114170906D01*
X131516914Y-114296423D01*
X131391001Y-114586393D01*
X131275893Y-114471285D01*
X131219235Y-114527943D01*
X131218894Y-113007901D01*
X132115000Y-113007901D01*
X132115000Y-113192079D01*
X132150932Y-113372719D01*
X132221414Y-113542879D01*
X132323738Y-113696018D01*
X132453972Y-113826252D01*
X132607111Y-113928576D01*
X132777271Y-113999058D01*
X132957911Y-114034990D01*
X133142089Y-114034990D01*
X133322729Y-113999058D01*
X133492889Y-113928576D01*
X133646028Y-113826252D01*
X133776262Y-113696018D01*
X133878586Y-113542879D01*
X133949068Y-113372719D01*
X133985000Y-113192079D01*
X133985000Y-113007901D01*
X133949068Y-112827261D01*
X133926567Y-112772938D01*
X135380732Y-112772938D01*
X135450397Y-112961150D01*
X135564447Y-113146822D01*
X135712529Y-113306676D01*
X135888951Y-113434569D01*
X136086934Y-113525586D01*
X136298869Y-113576230D01*
X136473000Y-113427564D01*
X136473000Y-112602000D01*
X136727000Y-112602000D01*
X136727000Y-113427564D01*
X136901131Y-113576230D01*
X137113066Y-113525586D01*
X137311049Y-113434569D01*
X137487471Y-113306676D01*
X137635553Y-113146822D01*
X137749603Y-112961150D01*
X137819268Y-112772938D01*
X140380732Y-112772938D01*
X140450397Y-112961150D01*
X140564447Y-113146822D01*
X140712529Y-113306676D01*
X140888951Y-113434569D01*
X141086934Y-113525586D01*
X141298869Y-113576230D01*
X141473000Y-113427564D01*
X141473000Y-112602000D01*
X141727000Y-112602000D01*
X141727000Y-113427564D01*
X141901131Y-113576230D01*
X142113066Y-113525586D01*
X142311049Y-113434569D01*
X142487471Y-113306676D01*
X142635553Y-113146822D01*
X142749603Y-112961150D01*
X142819268Y-112772938D01*
X142692734Y-112602000D01*
X141727000Y-112602000D01*
X141473000Y-112602000D01*
X140507266Y-112602000D01*
X140380732Y-112772938D01*
X137819268Y-112772938D01*
X137692734Y-112602000D01*
X136727000Y-112602000D01*
X136473000Y-112602000D01*
X135507266Y-112602000D01*
X135380732Y-112772938D01*
X133926567Y-112772938D01*
X133878586Y-112657101D01*
X133776262Y-112503962D01*
X133646028Y-112373728D01*
X133492889Y-112271404D01*
X133322729Y-112200922D01*
X133142089Y-112164990D01*
X132957911Y-112164990D01*
X132777271Y-112200922D01*
X132607111Y-112271404D01*
X132453972Y-112373728D01*
X132323738Y-112503962D01*
X132221414Y-112657101D01*
X132150932Y-112827261D01*
X132115000Y-113007901D01*
X131218894Y-113007901D01*
X131218186Y-109857911D01*
X131940000Y-109857911D01*
X131940000Y-110042089D01*
X131975932Y-110222729D01*
X132046414Y-110392889D01*
X132148738Y-110546028D01*
X132278972Y-110676262D01*
X132432111Y-110778586D01*
X132602271Y-110849068D01*
X132782911Y-110885000D01*
X132967089Y-110885000D01*
X133147729Y-110849068D01*
X133317889Y-110778586D01*
X133461077Y-110682911D01*
X135165000Y-110682911D01*
X135165000Y-110867089D01*
X135200932Y-111047729D01*
X135271414Y-111217889D01*
X135373738Y-111371028D01*
X135503972Y-111501262D01*
X135657111Y-111603586D01*
X135727262Y-111632643D01*
X135712529Y-111643324D01*
X135564447Y-111803178D01*
X135450397Y-111988850D01*
X135380732Y-112177062D01*
X135507266Y-112348000D01*
X136473000Y-112348000D01*
X136473000Y-112328000D01*
X136727000Y-112328000D01*
X136727000Y-112348000D01*
X137692734Y-112348000D01*
X137819268Y-112177062D01*
X140380732Y-112177062D01*
X140507266Y-112348000D01*
X141473000Y-112348000D01*
X141473000Y-111522436D01*
X141727000Y-111522436D01*
X141727000Y-112348000D01*
X142692734Y-112348000D01*
X142819268Y-112177062D01*
X142749603Y-111988850D01*
X142635553Y-111803178D01*
X142487471Y-111643324D01*
X142311049Y-111515431D01*
X142113066Y-111424414D01*
X141901131Y-111373770D01*
X141727000Y-111522436D01*
X141473000Y-111522436D01*
X141298869Y-111373770D01*
X141086934Y-111424414D01*
X140888951Y-111515431D01*
X140712529Y-111643324D01*
X140564447Y-111803178D01*
X140450397Y-111988850D01*
X140380732Y-112177062D01*
X137819268Y-112177062D01*
X137749603Y-111988850D01*
X137635553Y-111803178D01*
X137487471Y-111643324D01*
X137311049Y-111515431D01*
X137113066Y-111424414D01*
X136901131Y-111373770D01*
X136727002Y-111522434D01*
X136727002Y-111470288D01*
X136826262Y-111371028D01*
X136928586Y-111217889D01*
X136999068Y-111047729D01*
X137035000Y-110867089D01*
X137035000Y-110682911D01*
X137006218Y-110538212D01*
X154865000Y-110538212D01*
X154865000Y-110761788D01*
X154908617Y-110981067D01*
X154994176Y-111187624D01*
X155118388Y-111373520D01*
X155276480Y-111531612D01*
X155462376Y-111655824D01*
X155668933Y-111741383D01*
X155888212Y-111785000D01*
X156111788Y-111785000D01*
X156331067Y-111741383D01*
X156537624Y-111655824D01*
X156723520Y-111531612D01*
X156881612Y-111373520D01*
X157005824Y-111187624D01*
X157091383Y-110981067D01*
X157135000Y-110761788D01*
X157135000Y-110538212D01*
X157091383Y-110318933D01*
X157005824Y-110112376D01*
X156881612Y-109926480D01*
X156723520Y-109768388D01*
X156537624Y-109644176D01*
X156331067Y-109558617D01*
X156111788Y-109515000D01*
X155888212Y-109515000D01*
X155668933Y-109558617D01*
X155462376Y-109644176D01*
X155276480Y-109768388D01*
X155118388Y-109926480D01*
X154994176Y-110112376D01*
X154908617Y-110318933D01*
X154865000Y-110538212D01*
X137006218Y-110538212D01*
X136999068Y-110502271D01*
X136928586Y-110332111D01*
X136826262Y-110178972D01*
X136696028Y-110048738D01*
X136542889Y-109946414D01*
X136372729Y-109875932D01*
X136192089Y-109840000D01*
X136007911Y-109840000D01*
X135827271Y-109875932D01*
X135657111Y-109946414D01*
X135503972Y-110048738D01*
X135373738Y-110178972D01*
X135271414Y-110332111D01*
X135200932Y-110502271D01*
X135165000Y-110682911D01*
X133461077Y-110682911D01*
X133471028Y-110676262D01*
X133601262Y-110546028D01*
X133703586Y-110392889D01*
X133774068Y-110222729D01*
X133810000Y-110042089D01*
X133810000Y-109857911D01*
X133774068Y-109677271D01*
X133703586Y-109507111D01*
X133601262Y-109353972D01*
X133471028Y-109223738D01*
X133317889Y-109121414D01*
X133147729Y-109050932D01*
X132967089Y-109015000D01*
X132782911Y-109015000D01*
X132602271Y-109050932D01*
X132432111Y-109121414D01*
X132278972Y-109223738D01*
X132148738Y-109353972D01*
X132046414Y-109507111D01*
X131975932Y-109677271D01*
X131940000Y-109857911D01*
X131218186Y-109857911D01*
X131217720Y-107782911D01*
X134065000Y-107782911D01*
X134065000Y-107967089D01*
X134100932Y-108147729D01*
X134171414Y-108317889D01*
X134273738Y-108471028D01*
X134403972Y-108601262D01*
X134557111Y-108703586D01*
X134727271Y-108774068D01*
X134794127Y-108787367D01*
X134796414Y-108792889D01*
X134898738Y-108946028D01*
X135028972Y-109076262D01*
X135182111Y-109178586D01*
X135352271Y-109249068D01*
X135532911Y-109285000D01*
X135717089Y-109285000D01*
X135897729Y-109249068D01*
X136067889Y-109178586D01*
X136221028Y-109076262D01*
X136351262Y-108946028D01*
X136440006Y-108813212D01*
X157515000Y-108813212D01*
X157515000Y-109036788D01*
X157558617Y-109256067D01*
X157644176Y-109462624D01*
X157768388Y-109648520D01*
X157926480Y-109806612D01*
X158112376Y-109930824D01*
X158318933Y-110016383D01*
X158538212Y-110060000D01*
X158761788Y-110060000D01*
X158981067Y-110016383D01*
X159187624Y-109930824D01*
X159373520Y-109806612D01*
X159531612Y-109648520D01*
X159655824Y-109462624D01*
X159741383Y-109256067D01*
X159785000Y-109036788D01*
X159785000Y-108813212D01*
X159741383Y-108593933D01*
X159655824Y-108387376D01*
X159531612Y-108201480D01*
X159373520Y-108043388D01*
X159187624Y-107919176D01*
X158981067Y-107833617D01*
X158761788Y-107790000D01*
X158538212Y-107790000D01*
X158318933Y-107833617D01*
X158112376Y-107919176D01*
X157926480Y-108043388D01*
X157768388Y-108201480D01*
X157644176Y-108387376D01*
X157558617Y-108593933D01*
X157515000Y-108813212D01*
X136440006Y-108813212D01*
X136453586Y-108792889D01*
X136524068Y-108622729D01*
X136560000Y-108442089D01*
X136560000Y-108257911D01*
X136524068Y-108077271D01*
X136453586Y-107907111D01*
X136351262Y-107753972D01*
X136221028Y-107623738D01*
X136067889Y-107521414D01*
X135897729Y-107450932D01*
X135830873Y-107437633D01*
X135828586Y-107432111D01*
X135726262Y-107278972D01*
X135596028Y-107148738D01*
X135442889Y-107046414D01*
X135272729Y-106975932D01*
X135092089Y-106940000D01*
X134907911Y-106940000D01*
X134727271Y-106975932D01*
X134557111Y-107046414D01*
X134403972Y-107148738D01*
X134273738Y-107278972D01*
X134171414Y-107432111D01*
X134100932Y-107602271D01*
X134065000Y-107782911D01*
X131217720Y-107782911D01*
X131217073Y-104907911D01*
X131790000Y-104907911D01*
X131790000Y-105092089D01*
X131825932Y-105272729D01*
X131896414Y-105442889D01*
X131998738Y-105596028D01*
X132128972Y-105726262D01*
X132282111Y-105828586D01*
X132452271Y-105899068D01*
X132632911Y-105935000D01*
X132817089Y-105935000D01*
X132997729Y-105899068D01*
X133167889Y-105828586D01*
X133321028Y-105726262D01*
X133451262Y-105596028D01*
X133553586Y-105442889D01*
X133557718Y-105432911D01*
X138865000Y-105432911D01*
X138865000Y-105617089D01*
X138900932Y-105797729D01*
X138971414Y-105967889D01*
X139073738Y-106121028D01*
X139203972Y-106251262D01*
X139357111Y-106353586D01*
X139527271Y-106424068D01*
X139707911Y-106460000D01*
X139892089Y-106460000D01*
X140072729Y-106424068D01*
X140242889Y-106353586D01*
X140396028Y-106251262D01*
X140526262Y-106121028D01*
X140628586Y-105967889D01*
X140630523Y-105963212D01*
X157540000Y-105963212D01*
X157540000Y-106186788D01*
X157583617Y-106406067D01*
X157669176Y-106612624D01*
X157793388Y-106798520D01*
X157951480Y-106956612D01*
X158137376Y-107080824D01*
X158343933Y-107166383D01*
X158563212Y-107210000D01*
X158786788Y-107210000D01*
X159006067Y-107166383D01*
X159212624Y-107080824D01*
X159398520Y-106956612D01*
X159556612Y-106798520D01*
X159680824Y-106612624D01*
X159766383Y-106406067D01*
X159810000Y-106186788D01*
X159810000Y-105963212D01*
X159766383Y-105743933D01*
X159680824Y-105537376D01*
X159556612Y-105351480D01*
X159398520Y-105193388D01*
X159212624Y-105069176D01*
X159006067Y-104983617D01*
X158786788Y-104940000D01*
X158563212Y-104940000D01*
X158343933Y-104983617D01*
X158137376Y-105069176D01*
X157951480Y-105193388D01*
X157793388Y-105351480D01*
X157669176Y-105537376D01*
X157583617Y-105743933D01*
X157540000Y-105963212D01*
X140630523Y-105963212D01*
X140699068Y-105797729D01*
X140735000Y-105617089D01*
X140735000Y-105432911D01*
X140699068Y-105252271D01*
X140628586Y-105082111D01*
X140526262Y-104928972D01*
X140396028Y-104798738D01*
X140242889Y-104696414D01*
X140072729Y-104625932D01*
X139892089Y-104590000D01*
X139707911Y-104590000D01*
X139527271Y-104625932D01*
X139357111Y-104696414D01*
X139203972Y-104798738D01*
X139073738Y-104928972D01*
X138971414Y-105082111D01*
X138900932Y-105252271D01*
X138865000Y-105432911D01*
X133557718Y-105432911D01*
X133624068Y-105272729D01*
X133660000Y-105092089D01*
X133660000Y-104907911D01*
X133624068Y-104727271D01*
X133553586Y-104557111D01*
X133451262Y-104403972D01*
X133321028Y-104273738D01*
X133167889Y-104171414D01*
X132997729Y-104100932D01*
X132817089Y-104065000D01*
X132632911Y-104065000D01*
X132452271Y-104100932D01*
X132282111Y-104171414D01*
X132128972Y-104273738D01*
X131998738Y-104403972D01*
X131896414Y-104557111D01*
X131825932Y-104727271D01*
X131790000Y-104907911D01*
X131217073Y-104907911D01*
X131216455Y-102157911D01*
X141640000Y-102157911D01*
X141640000Y-102342089D01*
X141675932Y-102522729D01*
X141746414Y-102692889D01*
X141848738Y-102846028D01*
X141978972Y-102976262D01*
X142132111Y-103078586D01*
X142302271Y-103149068D01*
X142482911Y-103185000D01*
X142667089Y-103185000D01*
X142847729Y-103149068D01*
X143017889Y-103078586D01*
X143171028Y-102976262D01*
X143301262Y-102846028D01*
X143403586Y-102692889D01*
X143474068Y-102522729D01*
X143510000Y-102342089D01*
X143510000Y-102157911D01*
X143474068Y-101977271D01*
X143403586Y-101807111D01*
X143301262Y-101653972D01*
X143171028Y-101523738D01*
X143017889Y-101421414D01*
X142847729Y-101350932D01*
X142667089Y-101315000D01*
X142482911Y-101315000D01*
X142302271Y-101350932D01*
X142132111Y-101421414D01*
X141978972Y-101523738D01*
X141848738Y-101653972D01*
X141746414Y-101807111D01*
X141675932Y-101977271D01*
X141640000Y-102157911D01*
X131216455Y-102157911D01*
X131216165Y-100870180D01*
X136921067Y-101046939D01*
X136949646Y-101044586D01*
X136973478Y-101037384D01*
X136995447Y-101025671D01*
X137014708Y-101009897D01*
X137030523Y-100990668D01*
X137034679Y-100982911D01*
X138015000Y-100982911D01*
X138015000Y-101167089D01*
X138050932Y-101347729D01*
X138121414Y-101517889D01*
X138223738Y-101671028D01*
X138353972Y-101801262D01*
X138507111Y-101903586D01*
X138677271Y-101974068D01*
X138857911Y-102010000D01*
X139042089Y-102010000D01*
X139222729Y-101974068D01*
X139392889Y-101903586D01*
X139546028Y-101801262D01*
X139676262Y-101671028D01*
X139778586Y-101517889D01*
X139849068Y-101347729D01*
X139885000Y-101167089D01*
X139885000Y-100982911D01*
X139849068Y-100802271D01*
X139778586Y-100632111D01*
X139762417Y-100607911D01*
X139965000Y-100607911D01*
X139965000Y-100792089D01*
X140000932Y-100972729D01*
X140071414Y-101142889D01*
X140173738Y-101296028D01*
X140303972Y-101426262D01*
X140457111Y-101528586D01*
X140627271Y-101599068D01*
X140807911Y-101635000D01*
X140992089Y-101635000D01*
X141172729Y-101599068D01*
X141342889Y-101528586D01*
X141496028Y-101426262D01*
X141626262Y-101296028D01*
X141728586Y-101142889D01*
X141799068Y-100972729D01*
X141835000Y-100792089D01*
X141835000Y-100607911D01*
X141799068Y-100427271D01*
X141728586Y-100257111D01*
X141626262Y-100103972D01*
X141496028Y-99973738D01*
X141342889Y-99871414D01*
X141172729Y-99800932D01*
X140992089Y-99765000D01*
X140807911Y-99765000D01*
X140627271Y-99800932D01*
X140457111Y-99871414D01*
X140303972Y-99973738D01*
X140173738Y-100103972D01*
X140071414Y-100257111D01*
X140000932Y-100427271D01*
X139965000Y-100607911D01*
X139762417Y-100607911D01*
X139676262Y-100478972D01*
X139546028Y-100348738D01*
X139392889Y-100246414D01*
X139222729Y-100175932D01*
X139042089Y-100140000D01*
X138857911Y-100140000D01*
X138677271Y-100175932D01*
X138507111Y-100246414D01*
X138353972Y-100348738D01*
X138223738Y-100478972D01*
X138121414Y-100632111D01*
X138050932Y-100802271D01*
X138015000Y-100982911D01*
X137034679Y-100982911D01*
X137042282Y-100968724D01*
X137049534Y-100944907D01*
X137052000Y-100920133D01*
X137054713Y-98332911D01*
X142340000Y-98332911D01*
X142340000Y-98517089D01*
X142375932Y-98697729D01*
X142446414Y-98867889D01*
X142548738Y-99021028D01*
X142552710Y-99025000D01*
X142548738Y-99028972D01*
X142446414Y-99182111D01*
X142375932Y-99352271D01*
X142340000Y-99532911D01*
X142340000Y-99717089D01*
X142375932Y-99897729D01*
X142446414Y-100067889D01*
X142548738Y-100221028D01*
X142678972Y-100351262D01*
X142832111Y-100453586D01*
X143002271Y-100524068D01*
X143182911Y-100560000D01*
X143367089Y-100560000D01*
X143547729Y-100524068D01*
X143717889Y-100453586D01*
X143871028Y-100351262D01*
X143919464Y-100302826D01*
X143946414Y-100367889D01*
X144048738Y-100521028D01*
X144178972Y-100651262D01*
X144332111Y-100753586D01*
X144502271Y-100824068D01*
X144503415Y-100824295D01*
X144423738Y-100903972D01*
X144321414Y-101057111D01*
X144268870Y-101183964D01*
X144191448Y-101216033D01*
X144038309Y-101318357D01*
X143908075Y-101448591D01*
X143805751Y-101601730D01*
X143735269Y-101771890D01*
X143699337Y-101952530D01*
X143699337Y-102136708D01*
X143735269Y-102317348D01*
X143805751Y-102487508D01*
X143908075Y-102640647D01*
X144038309Y-102770881D01*
X144191448Y-102873205D01*
X144361608Y-102943687D01*
X144542248Y-102979619D01*
X144726426Y-102979619D01*
X144907066Y-102943687D01*
X145077226Y-102873205D01*
X145230365Y-102770881D01*
X145360599Y-102640647D01*
X145462923Y-102487508D01*
X145490000Y-102422138D01*
X145490000Y-102567089D01*
X145525932Y-102747729D01*
X145596414Y-102917889D01*
X145698738Y-103071028D01*
X145828972Y-103201262D01*
X145918837Y-103261307D01*
X145821414Y-103407111D01*
X145750932Y-103577271D01*
X145715000Y-103757911D01*
X145715000Y-103942089D01*
X145750932Y-104122729D01*
X145821414Y-104292889D01*
X145923738Y-104446028D01*
X146053972Y-104576262D01*
X146207111Y-104678586D01*
X146377271Y-104749068D01*
X146557911Y-104785000D01*
X146742089Y-104785000D01*
X146922729Y-104749068D01*
X147092889Y-104678586D01*
X147246028Y-104576262D01*
X147376262Y-104446028D01*
X147478586Y-104292889D01*
X147549068Y-104122729D01*
X147585000Y-103942089D01*
X147585000Y-103757911D01*
X147549068Y-103577271D01*
X147478586Y-103407111D01*
X147376262Y-103253972D01*
X147246028Y-103123738D01*
X147156163Y-103063693D01*
X147253586Y-102917889D01*
X147324068Y-102747729D01*
X147360000Y-102567089D01*
X147360000Y-102382911D01*
X147324068Y-102202271D01*
X147253586Y-102032111D01*
X147151262Y-101878972D01*
X147021028Y-101748738D01*
X146867889Y-101646414D01*
X146697729Y-101575932D01*
X146517089Y-101540000D01*
X146332911Y-101540000D01*
X146152271Y-101575932D01*
X146082462Y-101604848D01*
X146085000Y-101592089D01*
X146085000Y-101407911D01*
X146049068Y-101227271D01*
X145978586Y-101057111D01*
X145945712Y-101007911D01*
X150690000Y-101007911D01*
X150690000Y-101192089D01*
X150725932Y-101372729D01*
X150796414Y-101542889D01*
X150898738Y-101696028D01*
X151028972Y-101826262D01*
X151182111Y-101928586D01*
X151352271Y-101999068D01*
X151373277Y-102003246D01*
X151379304Y-102033548D01*
X151449786Y-102203708D01*
X151552110Y-102356847D01*
X151682344Y-102487081D01*
X151835483Y-102589405D01*
X152005643Y-102659887D01*
X152186283Y-102695819D01*
X152370461Y-102695819D01*
X152551101Y-102659887D01*
X152721261Y-102589405D01*
X152768395Y-102557911D01*
X155840000Y-102557911D01*
X155840000Y-102742089D01*
X155875932Y-102922729D01*
X155946414Y-103092889D01*
X156048738Y-103246028D01*
X156178972Y-103376262D01*
X156332111Y-103478586D01*
X156502271Y-103549068D01*
X156682911Y-103585000D01*
X156867089Y-103585000D01*
X157047729Y-103549068D01*
X157217889Y-103478586D01*
X157371028Y-103376262D01*
X157501262Y-103246028D01*
X157603586Y-103092889D01*
X157674068Y-102922729D01*
X157710000Y-102742089D01*
X157710000Y-102557911D01*
X157674068Y-102377271D01*
X157603586Y-102207111D01*
X157501262Y-102053972D01*
X157371028Y-101923738D01*
X157217889Y-101821414D01*
X157047729Y-101750932D01*
X156867089Y-101715000D01*
X156682911Y-101715000D01*
X156502271Y-101750932D01*
X156332111Y-101821414D01*
X156178972Y-101923738D01*
X156048738Y-102053972D01*
X155946414Y-102207111D01*
X155875932Y-102377271D01*
X155840000Y-102557911D01*
X152768395Y-102557911D01*
X152874400Y-102487081D01*
X153004634Y-102356847D01*
X153106958Y-102203708D01*
X153177440Y-102033548D01*
X153213372Y-101852908D01*
X153213372Y-101668730D01*
X153177440Y-101488090D01*
X153106958Y-101317930D01*
X153004634Y-101164791D01*
X152874400Y-101034557D01*
X152721261Y-100932233D01*
X152551101Y-100861751D01*
X152530095Y-100857573D01*
X152524068Y-100827271D01*
X152453586Y-100657111D01*
X152351262Y-100503972D01*
X152221028Y-100373738D01*
X152067889Y-100271414D01*
X151897729Y-100200932D01*
X151717089Y-100165000D01*
X151532911Y-100165000D01*
X151352271Y-100200932D01*
X151182111Y-100271414D01*
X151028972Y-100373738D01*
X150898738Y-100503972D01*
X150796414Y-100657111D01*
X150725932Y-100827271D01*
X150690000Y-101007911D01*
X145945712Y-101007911D01*
X145876262Y-100903972D01*
X145746028Y-100773738D01*
X145592889Y-100671414D01*
X145422729Y-100600932D01*
X145421585Y-100600705D01*
X145501262Y-100521028D01*
X145603586Y-100367889D01*
X145674068Y-100197729D01*
X145710000Y-100017089D01*
X145710000Y-99832911D01*
X145674068Y-99652271D01*
X145603586Y-99482111D01*
X145501262Y-99328972D01*
X145371028Y-99198738D01*
X145217889Y-99096414D01*
X145047729Y-99025932D01*
X144867089Y-98990000D01*
X144682911Y-98990000D01*
X144502271Y-99025932D01*
X144332111Y-99096414D01*
X144178972Y-99198738D01*
X144130536Y-99247174D01*
X144103586Y-99182111D01*
X144001262Y-99028972D01*
X143997290Y-99025000D01*
X144001262Y-99021028D01*
X144103586Y-98867889D01*
X144174068Y-98697729D01*
X144210000Y-98517089D01*
X144210000Y-98332911D01*
X144174068Y-98152271D01*
X144103586Y-97982111D01*
X144001262Y-97828972D01*
X143871028Y-97698738D01*
X143717889Y-97596414D01*
X143547729Y-97525932D01*
X143367089Y-97490000D01*
X143182911Y-97490000D01*
X143002271Y-97525932D01*
X142832111Y-97596414D01*
X142678972Y-97698738D01*
X142548738Y-97828972D01*
X142446414Y-97982111D01*
X142375932Y-98152271D01*
X142340000Y-98332911D01*
X137054713Y-98332911D01*
X137056208Y-96907911D01*
X139615000Y-96907911D01*
X139615000Y-97092089D01*
X139650932Y-97272729D01*
X139721414Y-97442889D01*
X139823738Y-97596028D01*
X139953972Y-97726262D01*
X140107111Y-97828586D01*
X140277271Y-97899068D01*
X140457911Y-97935000D01*
X140642089Y-97935000D01*
X140822729Y-97899068D01*
X140992889Y-97828586D01*
X141146028Y-97726262D01*
X141276262Y-97596028D01*
X141378586Y-97442889D01*
X141449068Y-97272729D01*
X141485000Y-97092089D01*
X141485000Y-96907911D01*
X141449068Y-96727271D01*
X141378586Y-96557111D01*
X141276262Y-96403972D01*
X141202679Y-96330389D01*
X142140006Y-96330389D01*
X142140006Y-96514567D01*
X142175938Y-96695207D01*
X142246420Y-96865367D01*
X142348744Y-97018506D01*
X142478978Y-97148740D01*
X142632117Y-97251064D01*
X142802277Y-97321546D01*
X142982917Y-97357478D01*
X143167095Y-97357478D01*
X143347735Y-97321546D01*
X143517895Y-97251064D01*
X143619893Y-97182911D01*
X144640000Y-97182911D01*
X144640000Y-97367089D01*
X144675932Y-97547729D01*
X144746414Y-97717889D01*
X144848738Y-97871028D01*
X144978972Y-98001262D01*
X145132111Y-98103586D01*
X145302271Y-98174068D01*
X145482911Y-98210000D01*
X145667089Y-98210000D01*
X145847729Y-98174068D01*
X146017889Y-98103586D01*
X146171028Y-98001262D01*
X146301262Y-97871028D01*
X146403586Y-97717889D01*
X146474068Y-97547729D01*
X146510000Y-97367089D01*
X146510000Y-97182911D01*
X146474068Y-97002271D01*
X146403586Y-96832111D01*
X146301262Y-96678972D01*
X146171028Y-96548738D01*
X146017889Y-96446414D01*
X145985290Y-96432911D01*
X149590000Y-96432911D01*
X149590000Y-96617089D01*
X149625932Y-96797729D01*
X149696414Y-96967889D01*
X149798738Y-97121028D01*
X149928972Y-97251262D01*
X150082111Y-97353586D01*
X150252271Y-97424068D01*
X150432911Y-97460000D01*
X150617089Y-97460000D01*
X150797729Y-97424068D01*
X150967889Y-97353586D01*
X151121028Y-97251262D01*
X151251262Y-97121028D01*
X151353586Y-96967889D01*
X151355197Y-96963998D01*
X151445726Y-96963998D01*
X151445726Y-97148176D01*
X151481658Y-97328816D01*
X151552140Y-97498976D01*
X151654464Y-97652115D01*
X151784698Y-97782349D01*
X151937837Y-97884673D01*
X152107997Y-97955155D01*
X152288637Y-97991087D01*
X152472815Y-97991087D01*
X152522779Y-97981148D01*
X152550942Y-98122729D01*
X152609872Y-98265000D01*
X152457911Y-98265000D01*
X152277271Y-98300932D01*
X152107111Y-98371414D01*
X151953972Y-98473738D01*
X151823738Y-98603972D01*
X151721414Y-98757111D01*
X151650932Y-98927271D01*
X151615000Y-99107911D01*
X151615000Y-99292089D01*
X151650932Y-99472729D01*
X151721414Y-99642889D01*
X151823738Y-99796028D01*
X151953972Y-99926262D01*
X152107111Y-100028586D01*
X152277271Y-100099068D01*
X152457911Y-100135000D01*
X152524552Y-100135000D01*
X152598738Y-100246028D01*
X152728972Y-100376262D01*
X152882111Y-100478586D01*
X153052271Y-100549068D01*
X153232911Y-100585000D01*
X153417089Y-100585000D01*
X153597729Y-100549068D01*
X153767889Y-100478586D01*
X153921028Y-100376262D01*
X154051262Y-100246028D01*
X154153586Y-100092889D01*
X154224068Y-99922729D01*
X154260000Y-99742089D01*
X154260000Y-99557911D01*
X154224068Y-99377271D01*
X154153586Y-99207111D01*
X154051262Y-99053972D01*
X153921028Y-98923738D01*
X153767889Y-98821414D01*
X153635246Y-98766472D01*
X153722739Y-98749068D01*
X153892899Y-98678586D01*
X154046038Y-98576262D01*
X154176272Y-98446028D01*
X154278596Y-98292889D01*
X154349078Y-98122729D01*
X154385010Y-97942089D01*
X154385010Y-97757911D01*
X154349078Y-97577271D01*
X154278596Y-97407111D01*
X154176272Y-97253972D01*
X154046038Y-97123738D01*
X153892899Y-97021414D01*
X153722739Y-96950932D01*
X153542099Y-96915000D01*
X153357921Y-96915000D01*
X153307957Y-96924939D01*
X153279794Y-96783358D01*
X153209312Y-96613198D01*
X153106988Y-96460059D01*
X152976754Y-96329825D01*
X152943958Y-96307911D01*
X156940000Y-96307911D01*
X156940000Y-96492089D01*
X156975932Y-96672729D01*
X157046414Y-96842889D01*
X157148738Y-96996028D01*
X157278972Y-97126262D01*
X157432111Y-97228586D01*
X157602271Y-97299068D01*
X157782911Y-97335000D01*
X157967089Y-97335000D01*
X158147729Y-97299068D01*
X158317889Y-97228586D01*
X158471028Y-97126262D01*
X158601262Y-96996028D01*
X158703586Y-96842889D01*
X158774068Y-96672729D01*
X158810000Y-96492089D01*
X158810000Y-96307911D01*
X158774068Y-96127271D01*
X158703586Y-95957111D01*
X158601262Y-95803972D01*
X158471028Y-95673738D01*
X158317889Y-95571414D01*
X158147729Y-95500932D01*
X157967089Y-95465000D01*
X157782911Y-95465000D01*
X157602271Y-95500932D01*
X157432111Y-95571414D01*
X157278972Y-95673738D01*
X157148738Y-95803972D01*
X157046414Y-95957111D01*
X156975932Y-96127271D01*
X156940000Y-96307911D01*
X152943958Y-96307911D01*
X152823615Y-96227501D01*
X152653455Y-96157019D01*
X152472815Y-96121087D01*
X152288637Y-96121087D01*
X152107997Y-96157019D01*
X151937837Y-96227501D01*
X151784698Y-96329825D01*
X151654464Y-96460059D01*
X151552140Y-96613198D01*
X151481658Y-96783358D01*
X151445726Y-96963998D01*
X151355197Y-96963998D01*
X151424068Y-96797729D01*
X151460000Y-96617089D01*
X151460000Y-96432911D01*
X151424068Y-96252271D01*
X151353586Y-96082111D01*
X151251262Y-95928972D01*
X151121028Y-95798738D01*
X150967889Y-95696414D01*
X150797729Y-95625932D01*
X150617089Y-95590000D01*
X150432911Y-95590000D01*
X150252271Y-95625932D01*
X150082111Y-95696414D01*
X149928972Y-95798738D01*
X149798738Y-95928972D01*
X149696414Y-96082111D01*
X149625932Y-96252271D01*
X149590000Y-96432911D01*
X145985290Y-96432911D01*
X145847729Y-96375932D01*
X145667089Y-96340000D01*
X145482911Y-96340000D01*
X145302271Y-96375932D01*
X145132111Y-96446414D01*
X144978972Y-96548738D01*
X144848738Y-96678972D01*
X144746414Y-96832111D01*
X144675932Y-97002271D01*
X144640000Y-97182911D01*
X143619893Y-97182911D01*
X143671034Y-97148740D01*
X143801268Y-97018506D01*
X143903592Y-96865367D01*
X143974074Y-96695207D01*
X144010006Y-96514567D01*
X144010006Y-96330389D01*
X143974074Y-96149749D01*
X143903592Y-95979589D01*
X143801268Y-95826450D01*
X143671034Y-95696216D01*
X143517895Y-95593892D01*
X143347735Y-95523410D01*
X143167095Y-95487478D01*
X142982917Y-95487478D01*
X142802277Y-95523410D01*
X142632117Y-95593892D01*
X142478978Y-95696216D01*
X142348744Y-95826450D01*
X142246420Y-95979589D01*
X142175938Y-96149749D01*
X142140006Y-96330389D01*
X141202679Y-96330389D01*
X141146028Y-96273738D01*
X140992889Y-96171414D01*
X140822729Y-96100932D01*
X140642089Y-96065000D01*
X140457911Y-96065000D01*
X140277271Y-96100932D01*
X140107111Y-96171414D01*
X139953972Y-96273738D01*
X139823738Y-96403972D01*
X139721414Y-96557111D01*
X139650932Y-96727271D01*
X139615000Y-96907911D01*
X137056208Y-96907911D01*
X137059906Y-93382911D01*
X138940000Y-93382911D01*
X138940000Y-93567089D01*
X138975932Y-93747729D01*
X139046414Y-93917889D01*
X139148738Y-94071028D01*
X139278972Y-94201262D01*
X139432111Y-94303586D01*
X139602271Y-94374068D01*
X139782911Y-94410000D01*
X139967089Y-94410000D01*
X140147729Y-94374068D01*
X140317889Y-94303586D01*
X140471028Y-94201262D01*
X140601262Y-94071028D01*
X140703586Y-93917889D01*
X140774068Y-93747729D01*
X140810000Y-93567089D01*
X140810000Y-93382911D01*
X140774068Y-93202271D01*
X140703586Y-93032111D01*
X140670712Y-92982911D01*
X141815000Y-92982911D01*
X141815000Y-93167089D01*
X141850932Y-93347729D01*
X141921414Y-93517889D01*
X142023738Y-93671028D01*
X142153972Y-93801262D01*
X142307111Y-93903586D01*
X142477271Y-93974068D01*
X142657911Y-94010000D01*
X142842089Y-94010000D01*
X143022729Y-93974068D01*
X143192889Y-93903586D01*
X143346028Y-93801262D01*
X143476262Y-93671028D01*
X143578586Y-93517889D01*
X143649068Y-93347729D01*
X143685000Y-93167089D01*
X143685000Y-92982911D01*
X143649068Y-92802271D01*
X143578586Y-92632111D01*
X143476262Y-92478972D01*
X143346028Y-92348738D01*
X143192889Y-92246414D01*
X143022729Y-92175932D01*
X142842089Y-92140000D01*
X142657911Y-92140000D01*
X142477271Y-92175932D01*
X142307111Y-92246414D01*
X142153972Y-92348738D01*
X142023738Y-92478972D01*
X141921414Y-92632111D01*
X141850932Y-92802271D01*
X141815000Y-92982911D01*
X140670712Y-92982911D01*
X140601262Y-92878972D01*
X140471028Y-92748738D01*
X140317889Y-92646414D01*
X140147729Y-92575932D01*
X139967089Y-92540000D01*
X139782911Y-92540000D01*
X139602271Y-92575932D01*
X139432111Y-92646414D01*
X139278972Y-92748738D01*
X139148738Y-92878972D01*
X139046414Y-93032111D01*
X138975932Y-93202271D01*
X138940000Y-93382911D01*
X137059906Y-93382911D01*
X137072099Y-81757911D01*
X139665000Y-81757911D01*
X139665000Y-81942089D01*
X139700932Y-82122729D01*
X139771414Y-82292889D01*
X139873738Y-82446028D01*
X140003972Y-82576262D01*
X140157111Y-82678586D01*
X140327271Y-82749068D01*
X140507911Y-82785000D01*
X140692089Y-82785000D01*
X140872729Y-82749068D01*
X141042889Y-82678586D01*
X141196028Y-82576262D01*
X141326262Y-82446028D01*
X141428586Y-82292889D01*
X141463784Y-82207911D01*
X153340000Y-82207911D01*
X153340000Y-82392089D01*
X153375932Y-82572729D01*
X153446414Y-82742889D01*
X153548738Y-82896028D01*
X153678972Y-83026262D01*
X153832111Y-83128586D01*
X154002271Y-83199068D01*
X154182911Y-83235000D01*
X154367089Y-83235000D01*
X154547729Y-83199068D01*
X154717889Y-83128586D01*
X154871028Y-83026262D01*
X155001262Y-82896028D01*
X155103586Y-82742889D01*
X155174068Y-82572729D01*
X155210000Y-82392089D01*
X155210000Y-82207911D01*
X155174068Y-82027271D01*
X155103586Y-81857111D01*
X155001262Y-81703972D01*
X154871028Y-81573738D01*
X154717889Y-81471414D01*
X154547729Y-81400932D01*
X154367089Y-81365000D01*
X154182911Y-81365000D01*
X154002271Y-81400932D01*
X153832111Y-81471414D01*
X153678972Y-81573738D01*
X153548738Y-81703972D01*
X153446414Y-81857111D01*
X153375932Y-82027271D01*
X153340000Y-82207911D01*
X141463784Y-82207911D01*
X141499068Y-82122729D01*
X141535000Y-81942089D01*
X141535000Y-81757911D01*
X141499068Y-81577271D01*
X141428586Y-81407111D01*
X141326262Y-81253972D01*
X141196028Y-81123738D01*
X141042889Y-81021414D01*
X140872729Y-80950932D01*
X140692089Y-80915000D01*
X140507911Y-80915000D01*
X140327271Y-80950932D01*
X140157111Y-81021414D01*
X140003972Y-81123738D01*
X139873738Y-81253972D01*
X139771414Y-81407111D01*
X139700932Y-81577271D01*
X139665000Y-81757911D01*
X137072099Y-81757911D01*
X137074119Y-79832911D01*
X138965000Y-79832911D01*
X138965000Y-80017089D01*
X139000932Y-80197729D01*
X139071414Y-80367889D01*
X139173738Y-80521028D01*
X139303972Y-80651262D01*
X139457111Y-80753586D01*
X139627271Y-80824068D01*
X139807911Y-80860000D01*
X139992089Y-80860000D01*
X140172729Y-80824068D01*
X140342889Y-80753586D01*
X140496028Y-80651262D01*
X140589379Y-80557911D01*
X141290000Y-80557911D01*
X141290000Y-80742089D01*
X141325932Y-80922729D01*
X141396414Y-81092889D01*
X141498738Y-81246028D01*
X141628972Y-81376262D01*
X141782111Y-81478586D01*
X141952271Y-81549068D01*
X142132911Y-81585000D01*
X142317089Y-81585000D01*
X142497729Y-81549068D01*
X142667889Y-81478586D01*
X142821028Y-81376262D01*
X142864379Y-81332911D01*
X159215000Y-81332911D01*
X159215000Y-81517089D01*
X159250932Y-81697729D01*
X159321414Y-81867889D01*
X159423738Y-82021028D01*
X159553972Y-82151262D01*
X159707111Y-82253586D01*
X159877271Y-82324068D01*
X160057911Y-82360000D01*
X160242089Y-82360000D01*
X160422729Y-82324068D01*
X160592889Y-82253586D01*
X160746028Y-82151262D01*
X160876262Y-82021028D01*
X160978586Y-81867889D01*
X161049068Y-81697729D01*
X161085000Y-81517089D01*
X161085000Y-81332911D01*
X161049068Y-81152271D01*
X160978586Y-80982111D01*
X160876262Y-80828972D01*
X160746028Y-80698738D01*
X160592889Y-80596414D01*
X160422729Y-80525932D01*
X160242089Y-80490000D01*
X160057911Y-80490000D01*
X159877271Y-80525932D01*
X159707111Y-80596414D01*
X159553972Y-80698738D01*
X159423738Y-80828972D01*
X159321414Y-80982111D01*
X159250932Y-81152271D01*
X159215000Y-81332911D01*
X142864379Y-81332911D01*
X142951262Y-81246028D01*
X143053586Y-81092889D01*
X143124068Y-80922729D01*
X143160000Y-80742089D01*
X143160000Y-80557911D01*
X143124068Y-80377271D01*
X143053586Y-80207111D01*
X143015369Y-80149915D01*
X143103586Y-80017889D01*
X143174068Y-79847729D01*
X143191934Y-79757911D01*
X151940000Y-79757911D01*
X151940000Y-79942089D01*
X151975932Y-80122729D01*
X152046414Y-80292889D01*
X152148738Y-80446028D01*
X152278972Y-80576262D01*
X152432111Y-80678586D01*
X152602271Y-80749068D01*
X152782911Y-80785000D01*
X152967089Y-80785000D01*
X153147729Y-80749068D01*
X153317889Y-80678586D01*
X153430134Y-80603586D01*
X153446414Y-80642889D01*
X153548738Y-80796028D01*
X153678972Y-80926262D01*
X153832111Y-81028586D01*
X154002271Y-81099068D01*
X154182911Y-81135000D01*
X154367089Y-81135000D01*
X154547729Y-81099068D01*
X154717889Y-81028586D01*
X154871028Y-80926262D01*
X155001262Y-80796028D01*
X155103586Y-80642889D01*
X155174068Y-80472729D01*
X155210000Y-80292089D01*
X155210000Y-80107911D01*
X155174068Y-79927271D01*
X155103586Y-79757111D01*
X155001262Y-79603972D01*
X154871028Y-79473738D01*
X154717889Y-79371414D01*
X154547729Y-79300932D01*
X154367089Y-79265000D01*
X154182911Y-79265000D01*
X154002271Y-79300932D01*
X153832111Y-79371414D01*
X153719866Y-79446414D01*
X153703586Y-79407111D01*
X153601262Y-79253972D01*
X153471028Y-79123738D01*
X153317889Y-79021414D01*
X153147729Y-78950932D01*
X152967089Y-78915000D01*
X152782911Y-78915000D01*
X152602271Y-78950932D01*
X152432111Y-79021414D01*
X152278972Y-79123738D01*
X152148738Y-79253972D01*
X152046414Y-79407111D01*
X151975932Y-79577271D01*
X151940000Y-79757911D01*
X143191934Y-79757911D01*
X143210000Y-79667089D01*
X143210000Y-79482911D01*
X143174068Y-79302271D01*
X143103586Y-79132111D01*
X143001262Y-78978972D01*
X142871028Y-78848738D01*
X142717889Y-78746414D01*
X142547729Y-78675932D01*
X142367089Y-78640000D01*
X142182911Y-78640000D01*
X142002271Y-78675932D01*
X141832111Y-78746414D01*
X141678972Y-78848738D01*
X141548738Y-78978972D01*
X141446414Y-79132111D01*
X141375932Y-79302271D01*
X141340000Y-79482911D01*
X141340000Y-79667089D01*
X141375932Y-79847729D01*
X141446414Y-80017889D01*
X141484631Y-80075085D01*
X141396414Y-80207111D01*
X141325932Y-80377271D01*
X141290000Y-80557911D01*
X140589379Y-80557911D01*
X140626262Y-80521028D01*
X140728586Y-80367889D01*
X140799068Y-80197729D01*
X140835000Y-80017089D01*
X140835000Y-79832911D01*
X140799068Y-79652271D01*
X140728586Y-79482111D01*
X140626262Y-79328972D01*
X140496028Y-79198738D01*
X140342889Y-79096414D01*
X140172729Y-79025932D01*
X139992089Y-78990000D01*
X139807911Y-78990000D01*
X139627271Y-79025932D01*
X139457111Y-79096414D01*
X139303972Y-79198738D01*
X139173738Y-79328972D01*
X139071414Y-79482111D01*
X139000932Y-79652271D01*
X138965000Y-79832911D01*
X137074119Y-79832911D01*
X137075718Y-78307911D01*
X155340000Y-78307911D01*
X155340000Y-78492089D01*
X155375932Y-78672729D01*
X155446414Y-78842889D01*
X155548738Y-78996028D01*
X155678972Y-79126262D01*
X155832111Y-79228586D01*
X156002271Y-79299068D01*
X156182911Y-79335000D01*
X156367089Y-79335000D01*
X156547729Y-79299068D01*
X156717889Y-79228586D01*
X156871028Y-79126262D01*
X157001262Y-78996028D01*
X157103586Y-78842889D01*
X157174068Y-78672729D01*
X157210000Y-78492089D01*
X157210000Y-78307911D01*
X157200055Y-78257911D01*
X159390000Y-78257911D01*
X159390000Y-78442089D01*
X159425932Y-78622729D01*
X159496414Y-78792889D01*
X159598738Y-78946028D01*
X159728972Y-79076262D01*
X159882111Y-79178586D01*
X160052271Y-79249068D01*
X160232911Y-79285000D01*
X160417089Y-79285000D01*
X160597729Y-79249068D01*
X160767889Y-79178586D01*
X160921028Y-79076262D01*
X161051262Y-78946028D01*
X161153586Y-78792889D01*
X161224068Y-78622729D01*
X161260000Y-78442089D01*
X161260000Y-78257911D01*
X161224068Y-78077271D01*
X161153586Y-77907111D01*
X161051262Y-77753972D01*
X160921028Y-77623738D01*
X160767889Y-77521414D01*
X160597729Y-77450932D01*
X160417089Y-77415000D01*
X160232911Y-77415000D01*
X160052271Y-77450932D01*
X159882111Y-77521414D01*
X159728972Y-77623738D01*
X159598738Y-77753972D01*
X159496414Y-77907111D01*
X159425932Y-78077271D01*
X159390000Y-78257911D01*
X157200055Y-78257911D01*
X157174068Y-78127271D01*
X157103586Y-77957111D01*
X157001262Y-77803972D01*
X156871028Y-77673738D01*
X156717889Y-77571414D01*
X156547729Y-77500932D01*
X156367089Y-77465000D01*
X156182911Y-77465000D01*
X156002271Y-77500932D01*
X155832111Y-77571414D01*
X155678972Y-77673738D01*
X155548738Y-77803972D01*
X155446414Y-77957111D01*
X155375932Y-78127271D01*
X155340000Y-78307911D01*
X137075718Y-78307911D01*
X137077814Y-76310529D01*
X143183096Y-76310529D01*
X143183096Y-76494707D01*
X143219028Y-76675347D01*
X143289510Y-76845507D01*
X143391834Y-76998646D01*
X143522068Y-77128880D01*
X143675207Y-77231204D01*
X143845367Y-77301686D01*
X144026007Y-77337618D01*
X144210185Y-77337618D01*
X144390825Y-77301686D01*
X144560985Y-77231204D01*
X144714124Y-77128880D01*
X144722857Y-77120147D01*
X144728972Y-77126262D01*
X144882111Y-77228586D01*
X145052271Y-77299068D01*
X145232911Y-77335000D01*
X145417089Y-77335000D01*
X145597729Y-77299068D01*
X145767889Y-77228586D01*
X145921028Y-77126262D01*
X146051262Y-76996028D01*
X146153586Y-76842889D01*
X146224068Y-76672729D01*
X146260000Y-76492089D01*
X146260000Y-76307911D01*
X146224068Y-76127271D01*
X146153586Y-75957111D01*
X146068586Y-75829898D01*
X147231201Y-75829898D01*
X147231201Y-76014076D01*
X147267133Y-76194716D01*
X147337615Y-76364876D01*
X147439939Y-76518015D01*
X147570173Y-76648249D01*
X147723312Y-76750573D01*
X147893472Y-76821055D01*
X148074112Y-76856987D01*
X148258290Y-76856987D01*
X148373980Y-76833975D01*
X148398738Y-76871028D01*
X148528972Y-77001262D01*
X148682111Y-77103586D01*
X148852271Y-77174068D01*
X149032911Y-77210000D01*
X149217089Y-77210000D01*
X149397729Y-77174068D01*
X149567889Y-77103586D01*
X149721028Y-77001262D01*
X149754884Y-76967406D01*
X149820795Y-77066049D01*
X149951029Y-77196283D01*
X150104168Y-77298607D01*
X150274328Y-77369089D01*
X150454968Y-77405021D01*
X150639146Y-77405021D01*
X150819786Y-77369089D01*
X150989946Y-77298607D01*
X151143085Y-77196283D01*
X151273319Y-77066049D01*
X151375643Y-76912910D01*
X151446125Y-76742750D01*
X151453054Y-76707911D01*
X156365000Y-76707911D01*
X156365000Y-76892089D01*
X156400932Y-77072729D01*
X156471414Y-77242889D01*
X156573738Y-77396028D01*
X156703972Y-77526262D01*
X156857111Y-77628586D01*
X157027271Y-77699068D01*
X157207911Y-77735000D01*
X157392089Y-77735000D01*
X157572729Y-77699068D01*
X157742889Y-77628586D01*
X157896028Y-77526262D01*
X158026262Y-77396028D01*
X158128586Y-77242889D01*
X158199068Y-77072729D01*
X158235000Y-76892089D01*
X158235000Y-76707911D01*
X158199068Y-76527271D01*
X158128586Y-76357111D01*
X158026262Y-76203972D01*
X157896028Y-76073738D01*
X157742889Y-75971414D01*
X157572729Y-75900932D01*
X157392089Y-75865000D01*
X157207911Y-75865000D01*
X157027271Y-75900932D01*
X156857111Y-75971414D01*
X156703972Y-76073738D01*
X156573738Y-76203972D01*
X156471414Y-76357111D01*
X156400932Y-76527271D01*
X156365000Y-76707911D01*
X151453054Y-76707911D01*
X151482057Y-76562110D01*
X151482057Y-76377932D01*
X151446125Y-76197292D01*
X151375643Y-76027132D01*
X151273319Y-75873993D01*
X151143085Y-75743759D01*
X150989946Y-75641435D01*
X150819786Y-75570953D01*
X150639146Y-75535021D01*
X150454968Y-75535021D01*
X150274328Y-75570953D01*
X150104168Y-75641435D01*
X149951029Y-75743759D01*
X149917173Y-75777615D01*
X149851262Y-75678972D01*
X149721028Y-75548738D01*
X149567889Y-75446414D01*
X149397729Y-75375932D01*
X149217089Y-75340000D01*
X149032911Y-75340000D01*
X148917221Y-75363012D01*
X148892463Y-75325959D01*
X148762229Y-75195725D01*
X148609090Y-75093401D01*
X148438930Y-75022919D01*
X148258290Y-74986987D01*
X148074112Y-74986987D01*
X147893472Y-75022919D01*
X147723312Y-75093401D01*
X147570173Y-75195725D01*
X147439939Y-75325959D01*
X147337615Y-75479098D01*
X147267133Y-75649258D01*
X147231201Y-75829898D01*
X146068586Y-75829898D01*
X146051262Y-75803972D01*
X145921028Y-75673738D01*
X145767889Y-75571414D01*
X145597729Y-75500932D01*
X145417089Y-75465000D01*
X145232911Y-75465000D01*
X145231493Y-75465282D01*
X145199068Y-75302271D01*
X145128586Y-75132111D01*
X145026262Y-74978972D01*
X144896028Y-74848738D01*
X144742889Y-74746414D01*
X144572729Y-74675932D01*
X144392089Y-74640000D01*
X144207911Y-74640000D01*
X144027271Y-74675932D01*
X143857111Y-74746414D01*
X143703972Y-74848738D01*
X143573738Y-74978972D01*
X143471414Y-75132111D01*
X143400932Y-75302271D01*
X143365000Y-75482911D01*
X143365000Y-75667089D01*
X143392597Y-75805827D01*
X143391834Y-75806590D01*
X143289510Y-75959729D01*
X143219028Y-76129889D01*
X143183096Y-76310529D01*
X137077814Y-76310529D01*
X137080439Y-73807911D01*
X153065000Y-73807911D01*
X153065000Y-73992089D01*
X153100932Y-74172729D01*
X153171414Y-74342889D01*
X153273738Y-74496028D01*
X153403972Y-74626262D01*
X153557111Y-74728586D01*
X153727271Y-74799068D01*
X153907911Y-74835000D01*
X154092089Y-74835000D01*
X154272729Y-74799068D01*
X154442889Y-74728586D01*
X154596028Y-74626262D01*
X154726262Y-74496028D01*
X154828586Y-74342889D01*
X154899068Y-74172729D01*
X154935000Y-73992089D01*
X154935000Y-73807911D01*
X154899068Y-73627271D01*
X154828586Y-73457111D01*
X154726262Y-73303972D01*
X154596028Y-73173738D01*
X154442889Y-73071414D01*
X154272729Y-73000932D01*
X154092089Y-72965000D01*
X153907911Y-72965000D01*
X153727271Y-73000932D01*
X153557111Y-73071414D01*
X153403972Y-73173738D01*
X153273738Y-73303972D01*
X153171414Y-73457111D01*
X153100932Y-73627271D01*
X153065000Y-73807911D01*
X137080439Y-73807911D01*
X137082000Y-72320133D01*
X137080054Y-72297854D01*
X137073331Y-72273883D01*
X137062060Y-72251683D01*
X137046675Y-72232110D01*
X137027767Y-72215914D01*
X137006063Y-72203717D01*
X136982396Y-72195990D01*
X136957676Y-72193028D01*
X131209692Y-72071876D01*
X131209493Y-71182911D01*
X136840000Y-71182911D01*
X136840000Y-71367089D01*
X136875932Y-71547729D01*
X136946414Y-71717889D01*
X137048738Y-71871028D01*
X137178972Y-72001262D01*
X137332111Y-72103586D01*
X137502271Y-72174068D01*
X137682911Y-72210000D01*
X137867089Y-72210000D01*
X138047729Y-72174068D01*
X138217889Y-72103586D01*
X138323661Y-72032911D01*
X139540000Y-72032911D01*
X139540000Y-72217089D01*
X139575932Y-72397729D01*
X139646414Y-72567889D01*
X139748738Y-72721028D01*
X139878972Y-72851262D01*
X140032111Y-72953586D01*
X140202271Y-73024068D01*
X140382911Y-73060000D01*
X140567089Y-73060000D01*
X140747729Y-73024068D01*
X140917889Y-72953586D01*
X141071028Y-72851262D01*
X141201262Y-72721028D01*
X141303586Y-72567889D01*
X141349140Y-72457911D01*
X147115000Y-72457911D01*
X147115000Y-72642089D01*
X147150932Y-72822729D01*
X147221414Y-72992889D01*
X147323738Y-73146028D01*
X147453972Y-73276262D01*
X147607111Y-73378586D01*
X147777271Y-73449068D01*
X147957911Y-73485000D01*
X148142089Y-73485000D01*
X148322729Y-73449068D01*
X148492889Y-73378586D01*
X148646028Y-73276262D01*
X148776262Y-73146028D01*
X148878586Y-72992889D01*
X148949068Y-72822729D01*
X148985000Y-72642089D01*
X148985000Y-72457911D01*
X148949068Y-72277271D01*
X148878586Y-72107111D01*
X148776262Y-71953972D01*
X148646028Y-71823738D01*
X148492889Y-71721414D01*
X148322729Y-71650932D01*
X148142089Y-71615000D01*
X147957911Y-71615000D01*
X147777271Y-71650932D01*
X147607111Y-71721414D01*
X147453972Y-71823738D01*
X147323738Y-71953972D01*
X147221414Y-72107111D01*
X147150932Y-72277271D01*
X147115000Y-72457911D01*
X141349140Y-72457911D01*
X141374068Y-72397729D01*
X141410000Y-72217089D01*
X141410000Y-72032911D01*
X141374068Y-71852271D01*
X141303586Y-71682111D01*
X141201262Y-71528972D01*
X141071028Y-71398738D01*
X140917889Y-71296414D01*
X140747729Y-71225932D01*
X140567089Y-71190000D01*
X140382911Y-71190000D01*
X140202271Y-71225932D01*
X140032111Y-71296414D01*
X139878972Y-71398738D01*
X139748738Y-71528972D01*
X139646414Y-71682111D01*
X139575932Y-71852271D01*
X139540000Y-72032911D01*
X138323661Y-72032911D01*
X138371028Y-72001262D01*
X138501262Y-71871028D01*
X138603586Y-71717889D01*
X138674068Y-71547729D01*
X138710000Y-71367089D01*
X138710000Y-71182911D01*
X138674068Y-71002271D01*
X138603586Y-70832111D01*
X138501262Y-70678972D01*
X138371028Y-70548738D01*
X138217889Y-70446414D01*
X138047729Y-70375932D01*
X137867089Y-70340000D01*
X137682911Y-70340000D01*
X137502271Y-70375932D01*
X137332111Y-70446414D01*
X137178972Y-70548738D01*
X137048738Y-70678972D01*
X136946414Y-70832111D01*
X136875932Y-71002271D01*
X136840000Y-71182911D01*
X131209493Y-71182911D01*
X131209005Y-69007911D01*
X140365000Y-69007911D01*
X140365000Y-69192089D01*
X140400932Y-69372729D01*
X140471414Y-69542889D01*
X140573738Y-69696028D01*
X140703972Y-69826262D01*
X140857111Y-69928586D01*
X141027271Y-69999068D01*
X141207911Y-70035000D01*
X141392089Y-70035000D01*
X141572729Y-69999068D01*
X141742889Y-69928586D01*
X141896028Y-69826262D01*
X142026262Y-69696028D01*
X142101837Y-69582921D01*
X142190000Y-69582921D01*
X142190000Y-69767099D01*
X142225932Y-69947739D01*
X142296414Y-70117899D01*
X142398738Y-70271038D01*
X142528972Y-70401272D01*
X142682111Y-70503596D01*
X142852271Y-70574078D01*
X143032911Y-70610010D01*
X143217089Y-70610010D01*
X143397729Y-70574078D01*
X143567889Y-70503596D01*
X143721028Y-70401272D01*
X143851262Y-70271038D01*
X143940164Y-70137987D01*
X144027271Y-70174068D01*
X144207911Y-70210000D01*
X144392089Y-70210000D01*
X144572729Y-70174068D01*
X144640010Y-70146200D01*
X144640010Y-70273923D01*
X144675942Y-70454563D01*
X144746424Y-70624723D01*
X144848748Y-70777862D01*
X144978982Y-70908096D01*
X145132121Y-71010420D01*
X145302281Y-71080902D01*
X145482921Y-71116834D01*
X145667099Y-71116834D01*
X145711957Y-71107911D01*
X149640000Y-71107911D01*
X149640000Y-71292089D01*
X149675932Y-71472729D01*
X149746414Y-71642889D01*
X149848738Y-71796028D01*
X149978972Y-71926262D01*
X150132111Y-72028586D01*
X150302271Y-72099068D01*
X150482911Y-72135000D01*
X150667089Y-72135000D01*
X150847729Y-72099068D01*
X151017889Y-72028586D01*
X151171028Y-71926262D01*
X151301262Y-71796028D01*
X151403586Y-71642889D01*
X151474068Y-71472729D01*
X151510000Y-71292089D01*
X151510000Y-71107911D01*
X151474068Y-70927271D01*
X151403586Y-70757111D01*
X151301262Y-70603972D01*
X151171028Y-70473738D01*
X151017889Y-70371414D01*
X150847729Y-70300932D01*
X150667089Y-70265000D01*
X150482911Y-70265000D01*
X150302271Y-70300932D01*
X150132111Y-70371414D01*
X149978972Y-70473738D01*
X149848738Y-70603972D01*
X149746414Y-70757111D01*
X149675932Y-70927271D01*
X149640000Y-71107911D01*
X145711957Y-71107911D01*
X145847739Y-71080902D01*
X146017899Y-71010420D01*
X146171038Y-70908096D01*
X146301272Y-70777862D01*
X146403596Y-70624723D01*
X146465006Y-70476466D01*
X146507911Y-70485000D01*
X146692089Y-70485000D01*
X146872729Y-70449068D01*
X147042889Y-70378586D01*
X147196028Y-70276262D01*
X147326262Y-70146028D01*
X147428586Y-69992889D01*
X147499068Y-69822729D01*
X147535000Y-69642089D01*
X147535000Y-69567136D01*
X151959597Y-69567136D01*
X151959597Y-69751314D01*
X151995529Y-69931954D01*
X152066011Y-70102114D01*
X152168335Y-70255253D01*
X152298569Y-70385487D01*
X152451708Y-70487811D01*
X152621868Y-70558293D01*
X152802508Y-70594225D01*
X152986686Y-70594225D01*
X153167326Y-70558293D01*
X153337486Y-70487811D01*
X153490625Y-70385487D01*
X153620859Y-70255253D01*
X153669196Y-70182911D01*
X156915000Y-70182911D01*
X156915000Y-70367089D01*
X156950932Y-70547729D01*
X157021414Y-70717889D01*
X157123738Y-70871028D01*
X157253972Y-71001262D01*
X157407111Y-71103586D01*
X157577271Y-71174068D01*
X157757911Y-71210000D01*
X157942089Y-71210000D01*
X158122729Y-71174068D01*
X158292889Y-71103586D01*
X158446028Y-71001262D01*
X158576262Y-70871028D01*
X158678586Y-70717889D01*
X158749068Y-70547729D01*
X158785000Y-70367089D01*
X158785000Y-70182911D01*
X158765109Y-70082911D01*
X159840000Y-70082911D01*
X159840000Y-70267089D01*
X159875932Y-70447729D01*
X159946414Y-70617889D01*
X160048738Y-70771028D01*
X160178972Y-70901262D01*
X160332111Y-71003586D01*
X160502271Y-71074068D01*
X160682911Y-71110000D01*
X160867089Y-71110000D01*
X161047729Y-71074068D01*
X161217889Y-71003586D01*
X161371028Y-70901262D01*
X161501262Y-70771028D01*
X161603586Y-70617889D01*
X161674068Y-70447729D01*
X161710000Y-70267089D01*
X161710000Y-70082911D01*
X161674068Y-69902271D01*
X161603586Y-69732111D01*
X161501262Y-69578972D01*
X161371028Y-69448738D01*
X161217889Y-69346414D01*
X161047729Y-69275932D01*
X160867089Y-69240000D01*
X160682911Y-69240000D01*
X160502271Y-69275932D01*
X160332111Y-69346414D01*
X160178972Y-69448738D01*
X160048738Y-69578972D01*
X159946414Y-69732111D01*
X159875932Y-69902271D01*
X159840000Y-70082911D01*
X158765109Y-70082911D01*
X158749068Y-70002271D01*
X158678586Y-69832111D01*
X158576262Y-69678972D01*
X158446028Y-69548738D01*
X158292889Y-69446414D01*
X158122729Y-69375932D01*
X157942089Y-69340000D01*
X157757911Y-69340000D01*
X157577271Y-69375932D01*
X157407111Y-69446414D01*
X157253972Y-69548738D01*
X157123738Y-69678972D01*
X157021414Y-69832111D01*
X156950932Y-70002271D01*
X156915000Y-70182911D01*
X153669196Y-70182911D01*
X153723183Y-70102114D01*
X153793665Y-69931954D01*
X153829597Y-69751314D01*
X153829597Y-69567136D01*
X153793665Y-69386496D01*
X153723183Y-69216336D01*
X153620859Y-69063197D01*
X153490625Y-68932963D01*
X153337486Y-68830639D01*
X153167326Y-68760157D01*
X152986686Y-68724225D01*
X152802508Y-68724225D01*
X152621868Y-68760157D01*
X152451708Y-68830639D01*
X152298569Y-68932963D01*
X152168335Y-69063197D01*
X152066011Y-69216336D01*
X151995529Y-69386496D01*
X151959597Y-69567136D01*
X147535000Y-69567136D01*
X147535000Y-69457911D01*
X147499068Y-69277271D01*
X147428586Y-69107111D01*
X147326262Y-68953972D01*
X147196028Y-68823738D01*
X147042889Y-68721414D01*
X146872729Y-68650932D01*
X146692089Y-68615000D01*
X146507911Y-68615000D01*
X146327271Y-68650932D01*
X146157111Y-68721414D01*
X146003972Y-68823738D01*
X145873738Y-68953972D01*
X145771414Y-69107111D01*
X145710004Y-69255368D01*
X145667099Y-69246834D01*
X145482921Y-69246834D01*
X145302281Y-69282766D01*
X145235000Y-69310634D01*
X145235000Y-69182911D01*
X145199068Y-69002271D01*
X145128586Y-68832111D01*
X145026262Y-68678972D01*
X144896028Y-68548738D01*
X144742889Y-68446414D01*
X144572729Y-68375932D01*
X144392089Y-68340000D01*
X144207911Y-68340000D01*
X144027271Y-68375932D01*
X143857111Y-68446414D01*
X143703972Y-68548738D01*
X143573738Y-68678972D01*
X143484836Y-68812023D01*
X143397729Y-68775942D01*
X143217089Y-68740010D01*
X143032911Y-68740010D01*
X142852271Y-68775942D01*
X142682111Y-68846424D01*
X142528972Y-68948748D01*
X142398738Y-69078982D01*
X142296414Y-69232121D01*
X142225932Y-69402281D01*
X142190000Y-69582921D01*
X142101837Y-69582921D01*
X142128586Y-69542889D01*
X142199068Y-69372729D01*
X142235000Y-69192089D01*
X142235000Y-69007911D01*
X142199068Y-68827271D01*
X142128586Y-68657111D01*
X142026262Y-68503972D01*
X141896028Y-68373738D01*
X141742889Y-68271414D01*
X141572729Y-68200932D01*
X141392089Y-68165000D01*
X141207911Y-68165000D01*
X141027271Y-68200932D01*
X140857111Y-68271414D01*
X140703972Y-68373738D01*
X140573738Y-68503972D01*
X140471414Y-68657111D01*
X140400932Y-68827271D01*
X140365000Y-69007911D01*
X131209005Y-69007911D01*
X131208257Y-65682911D01*
X136640000Y-65682911D01*
X136640000Y-65867089D01*
X136675932Y-66047729D01*
X136746414Y-66217889D01*
X136848738Y-66371028D01*
X136978972Y-66501262D01*
X137029499Y-66535023D01*
X137015000Y-66607911D01*
X137015000Y-66792089D01*
X137050932Y-66972729D01*
X137121414Y-67142889D01*
X137223738Y-67296028D01*
X137353972Y-67426262D01*
X137507111Y-67528586D01*
X137677271Y-67599068D01*
X137857911Y-67635000D01*
X138042089Y-67635000D01*
X138222729Y-67599068D01*
X138392889Y-67528586D01*
X138546028Y-67426262D01*
X138676262Y-67296028D01*
X138718435Y-67232911D01*
X149565000Y-67232911D01*
X149565000Y-67417089D01*
X149600932Y-67597729D01*
X149671414Y-67767889D01*
X149773738Y-67921028D01*
X149903972Y-68051262D01*
X150057111Y-68153586D01*
X150227271Y-68224068D01*
X150407911Y-68260000D01*
X150592089Y-68260000D01*
X150772729Y-68224068D01*
X150942889Y-68153586D01*
X151096028Y-68051262D01*
X151226262Y-67921028D01*
X151328586Y-67767889D01*
X151399068Y-67597729D01*
X151435000Y-67417089D01*
X151435000Y-67232911D01*
X151399068Y-67052271D01*
X151328586Y-66882111D01*
X151228894Y-66732911D01*
X151740000Y-66732911D01*
X151740000Y-66917089D01*
X151775932Y-67097729D01*
X151846414Y-67267889D01*
X151948738Y-67421028D01*
X152078972Y-67551262D01*
X152232111Y-67653586D01*
X152402271Y-67724068D01*
X152582911Y-67760000D01*
X152767089Y-67760000D01*
X152947729Y-67724068D01*
X153117889Y-67653586D01*
X153271028Y-67551262D01*
X153401262Y-67421028D01*
X153503586Y-67267889D01*
X153574068Y-67097729D01*
X153610000Y-66917089D01*
X153610000Y-66732911D01*
X153574068Y-66552271D01*
X153514273Y-66407911D01*
X154240000Y-66407911D01*
X154240000Y-66592089D01*
X154275932Y-66772729D01*
X154346414Y-66942889D01*
X154448738Y-67096028D01*
X154578972Y-67226262D01*
X154732111Y-67328586D01*
X154902271Y-67399068D01*
X155082911Y-67435000D01*
X155267089Y-67435000D01*
X155447729Y-67399068D01*
X155617889Y-67328586D01*
X155771028Y-67226262D01*
X155901262Y-67096028D01*
X156003586Y-66942889D01*
X156074068Y-66772729D01*
X156110000Y-66592089D01*
X156110000Y-66586546D01*
X156172729Y-66574068D01*
X156342889Y-66503586D01*
X156496028Y-66401262D01*
X156626262Y-66271028D01*
X156728586Y-66117889D01*
X156799068Y-65947729D01*
X156835000Y-65767089D01*
X156835000Y-65582911D01*
X156799068Y-65402271D01*
X156728586Y-65232111D01*
X156626262Y-65078972D01*
X156496028Y-64948738D01*
X156342889Y-64846414D01*
X156172729Y-64775932D01*
X155992089Y-64740000D01*
X155807911Y-64740000D01*
X155627271Y-64775932D01*
X155457111Y-64846414D01*
X155303972Y-64948738D01*
X155173738Y-65078972D01*
X155071414Y-65232111D01*
X155000932Y-65402271D01*
X154965000Y-65582911D01*
X154965000Y-65588454D01*
X154902271Y-65600932D01*
X154732111Y-65671414D01*
X154578972Y-65773738D01*
X154448738Y-65903972D01*
X154346414Y-66057111D01*
X154275932Y-66227271D01*
X154240000Y-66407911D01*
X153514273Y-66407911D01*
X153503586Y-66382111D01*
X153401262Y-66228972D01*
X153271028Y-66098738D01*
X153117889Y-65996414D01*
X152947729Y-65925932D01*
X152767089Y-65890000D01*
X152582911Y-65890000D01*
X152402271Y-65925932D01*
X152232111Y-65996414D01*
X152078972Y-66098738D01*
X151948738Y-66228972D01*
X151846414Y-66382111D01*
X151775932Y-66552271D01*
X151740000Y-66732911D01*
X151228894Y-66732911D01*
X151226262Y-66728972D01*
X151096028Y-66598738D01*
X150942889Y-66496414D01*
X150785910Y-66431392D01*
X150822729Y-66424068D01*
X150992889Y-66353586D01*
X151146028Y-66251262D01*
X151276262Y-66121028D01*
X151378586Y-65967889D01*
X151449068Y-65797729D01*
X151485000Y-65617089D01*
X151485000Y-65432911D01*
X151449068Y-65252271D01*
X151378586Y-65082111D01*
X151276262Y-64928972D01*
X151146028Y-64798738D01*
X150992889Y-64696414D01*
X150822729Y-64625932D01*
X150642089Y-64590000D01*
X150457911Y-64590000D01*
X150277271Y-64625932D01*
X150107111Y-64696414D01*
X149953972Y-64798738D01*
X149823738Y-64928972D01*
X149721414Y-65082111D01*
X149650932Y-65252271D01*
X149615000Y-65432911D01*
X149615000Y-65617089D01*
X149650932Y-65797729D01*
X149721414Y-65967889D01*
X149823738Y-66121028D01*
X149953972Y-66251262D01*
X150107111Y-66353586D01*
X150264090Y-66418608D01*
X150227271Y-66425932D01*
X150057111Y-66496414D01*
X149903972Y-66598738D01*
X149773738Y-66728972D01*
X149671414Y-66882111D01*
X149600932Y-67052271D01*
X149565000Y-67232911D01*
X138718435Y-67232911D01*
X138778586Y-67142889D01*
X138849068Y-66972729D01*
X138885000Y-66792089D01*
X138885000Y-66607911D01*
X138849068Y-66427271D01*
X138778586Y-66257111D01*
X138676262Y-66103972D01*
X138546028Y-65973738D01*
X138522342Y-65957911D01*
X139265000Y-65957911D01*
X139265000Y-66142089D01*
X139300932Y-66322729D01*
X139371414Y-66492889D01*
X139473738Y-66646028D01*
X139603972Y-66776262D01*
X139757111Y-66878586D01*
X139927271Y-66949068D01*
X140107911Y-66985000D01*
X140292089Y-66985000D01*
X140472729Y-66949068D01*
X140642889Y-66878586D01*
X140796028Y-66776262D01*
X140926262Y-66646028D01*
X141028586Y-66492889D01*
X141099068Y-66322729D01*
X141135000Y-66142089D01*
X141135000Y-65957911D01*
X141099068Y-65777271D01*
X141028586Y-65607111D01*
X140926262Y-65453972D01*
X140796028Y-65323738D01*
X140642889Y-65221414D01*
X140472729Y-65150932D01*
X140292089Y-65115000D01*
X140107911Y-65115000D01*
X139927271Y-65150932D01*
X139757111Y-65221414D01*
X139603972Y-65323738D01*
X139473738Y-65453972D01*
X139371414Y-65607111D01*
X139300932Y-65777271D01*
X139265000Y-65957911D01*
X138522342Y-65957911D01*
X138495501Y-65939977D01*
X138510000Y-65867089D01*
X138510000Y-65682911D01*
X138474068Y-65502271D01*
X138403586Y-65332111D01*
X138301262Y-65178972D01*
X138171028Y-65048738D01*
X138017889Y-64946414D01*
X137847729Y-64875932D01*
X137667089Y-64840000D01*
X137482911Y-64840000D01*
X137302271Y-64875932D01*
X137132111Y-64946414D01*
X136978972Y-65048738D01*
X136848738Y-65178972D01*
X136746414Y-65332111D01*
X136675932Y-65502271D01*
X136640000Y-65682911D01*
X131208257Y-65682911D01*
X131207650Y-62982911D01*
X136615000Y-62982911D01*
X136615000Y-63167089D01*
X136650932Y-63347729D01*
X136721414Y-63517889D01*
X136823738Y-63671028D01*
X136953972Y-63801262D01*
X137107111Y-63903586D01*
X137277271Y-63974068D01*
X137457911Y-64010000D01*
X137642089Y-64010000D01*
X137822729Y-63974068D01*
X137992889Y-63903586D01*
X138146028Y-63801262D01*
X138276262Y-63671028D01*
X138378586Y-63517889D01*
X138432014Y-63388901D01*
X138577271Y-63449068D01*
X138757911Y-63485000D01*
X138942089Y-63485000D01*
X139122729Y-63449068D01*
X139292889Y-63378586D01*
X139446028Y-63276262D01*
X139504820Y-63217470D01*
X139546414Y-63317889D01*
X139648738Y-63471028D01*
X139778972Y-63601262D01*
X139932111Y-63703586D01*
X140102271Y-63774068D01*
X140282911Y-63810000D01*
X140467089Y-63810000D01*
X140647729Y-63774068D01*
X140730628Y-63739730D01*
X140775123Y-63784225D01*
X140928262Y-63886549D01*
X141098422Y-63957031D01*
X141279062Y-63992963D01*
X141463240Y-63992963D01*
X141643880Y-63957031D01*
X141814040Y-63886549D01*
X141967179Y-63784225D01*
X142097413Y-63653991D01*
X142199737Y-63500852D01*
X142270219Y-63330692D01*
X142306151Y-63150052D01*
X142306151Y-62965874D01*
X142299595Y-62932911D01*
X142740000Y-62932911D01*
X142740000Y-63117089D01*
X142775932Y-63297729D01*
X142846414Y-63467889D01*
X142948738Y-63621028D01*
X143078972Y-63751262D01*
X143232111Y-63853586D01*
X143402271Y-63924068D01*
X143582911Y-63960000D01*
X143767089Y-63960000D01*
X143947729Y-63924068D01*
X144117889Y-63853586D01*
X144271028Y-63751262D01*
X144401262Y-63621028D01*
X144411117Y-63606279D01*
X144463368Y-63606279D01*
X144644008Y-63570347D01*
X144814168Y-63499865D01*
X144967307Y-63397541D01*
X145076191Y-63288657D01*
X150220656Y-63288657D01*
X150220656Y-63472835D01*
X150256588Y-63653475D01*
X150327070Y-63823635D01*
X150429394Y-63976774D01*
X150559628Y-64107008D01*
X150712767Y-64209332D01*
X150882927Y-64279814D01*
X151063567Y-64315746D01*
X151247745Y-64315746D01*
X151428385Y-64279814D01*
X151598545Y-64209332D01*
X151751684Y-64107008D01*
X151881918Y-63976774D01*
X151984242Y-63823635D01*
X152043362Y-63680907D01*
X152186090Y-63621787D01*
X152339229Y-63519463D01*
X152469463Y-63389229D01*
X152571787Y-63236090D01*
X152642269Y-63065930D01*
X152663755Y-62957911D01*
X153665000Y-62957911D01*
X153665000Y-63142089D01*
X153700932Y-63322729D01*
X153771414Y-63492889D01*
X153873738Y-63646028D01*
X154003972Y-63776262D01*
X154157111Y-63878586D01*
X154327271Y-63949068D01*
X154507911Y-63985000D01*
X154692089Y-63985000D01*
X154872729Y-63949068D01*
X155042889Y-63878586D01*
X155196028Y-63776262D01*
X155326262Y-63646028D01*
X155428586Y-63492889D01*
X155499068Y-63322729D01*
X155535000Y-63142089D01*
X155535000Y-62957911D01*
X155499068Y-62777271D01*
X155428586Y-62607111D01*
X155326262Y-62453972D01*
X155196028Y-62323738D01*
X155042889Y-62221414D01*
X154872729Y-62150932D01*
X154692089Y-62115000D01*
X154507911Y-62115000D01*
X154327271Y-62150932D01*
X154157111Y-62221414D01*
X154003972Y-62323738D01*
X153873738Y-62453972D01*
X153771414Y-62607111D01*
X153700932Y-62777271D01*
X153665000Y-62957911D01*
X152663755Y-62957911D01*
X152678201Y-62885290D01*
X152678201Y-62701112D01*
X152642269Y-62520472D01*
X152571787Y-62350312D01*
X152469463Y-62197173D01*
X152339229Y-62066939D01*
X152186090Y-61964615D01*
X152015930Y-61894133D01*
X151835290Y-61858201D01*
X151651112Y-61858201D01*
X151470472Y-61894133D01*
X151300312Y-61964615D01*
X151147173Y-62066939D01*
X151016939Y-62197173D01*
X150914615Y-62350312D01*
X150855495Y-62493040D01*
X150712767Y-62552160D01*
X150559628Y-62654484D01*
X150429394Y-62784718D01*
X150327070Y-62937857D01*
X150256588Y-63108017D01*
X150220656Y-63288657D01*
X145076191Y-63288657D01*
X145097541Y-63267307D01*
X145199865Y-63114168D01*
X145270347Y-62944008D01*
X145306279Y-62763368D01*
X145306279Y-62579190D01*
X145270347Y-62398550D01*
X145199865Y-62228390D01*
X145097541Y-62075251D01*
X144967307Y-61945017D01*
X144814168Y-61842693D01*
X144644008Y-61772211D01*
X144463368Y-61736279D01*
X144279190Y-61736279D01*
X144098550Y-61772211D01*
X143928390Y-61842693D01*
X143775251Y-61945017D01*
X143645017Y-62075251D01*
X143635162Y-62090000D01*
X143582911Y-62090000D01*
X143402271Y-62125932D01*
X143232111Y-62196414D01*
X143078972Y-62298738D01*
X142948738Y-62428972D01*
X142846414Y-62582111D01*
X142775932Y-62752271D01*
X142740000Y-62932911D01*
X142299595Y-62932911D01*
X142270219Y-62785234D01*
X142199737Y-62615074D01*
X142097413Y-62461935D01*
X141967179Y-62331701D01*
X141814040Y-62229377D01*
X141643880Y-62158895D01*
X141463240Y-62122963D01*
X141279062Y-62122963D01*
X141098422Y-62158895D01*
X141015523Y-62193233D01*
X140971028Y-62148738D01*
X140817889Y-62046414D01*
X140647729Y-61975932D01*
X140467089Y-61940000D01*
X140282911Y-61940000D01*
X140102271Y-61975932D01*
X139932111Y-62046414D01*
X139778972Y-62148738D01*
X139720180Y-62207530D01*
X139678586Y-62107111D01*
X139576262Y-61953972D01*
X139446028Y-61823738D01*
X139292889Y-61721414D01*
X139122729Y-61650932D01*
X138942089Y-61615000D01*
X138757911Y-61615000D01*
X138577271Y-61650932D01*
X138407111Y-61721414D01*
X138253972Y-61823738D01*
X138123738Y-61953972D01*
X138021414Y-62107111D01*
X137967986Y-62236099D01*
X137822729Y-62175932D01*
X137642089Y-62140000D01*
X137457911Y-62140000D01*
X137277271Y-62175932D01*
X137107111Y-62246414D01*
X136953972Y-62348738D01*
X136823738Y-62478972D01*
X136721414Y-62632111D01*
X136650932Y-62802271D01*
X136615000Y-62982911D01*
X131207650Y-62982911D01*
X131206605Y-58334427D01*
X131250893Y-58378715D01*
X131366001Y-58263607D01*
X131491914Y-58553577D01*
X131824126Y-58719433D01*
X132182312Y-58817290D01*
X132552706Y-58843389D01*
X132921075Y-58796725D01*
X133186983Y-58707911D01*
X135390000Y-58707911D01*
X135390000Y-58892089D01*
X135425932Y-59072729D01*
X135496414Y-59242889D01*
X135598738Y-59396028D01*
X135728972Y-59526262D01*
X135882111Y-59628586D01*
X136052271Y-59699068D01*
X136232911Y-59735000D01*
X136417089Y-59735000D01*
X136597729Y-59699068D01*
X136767889Y-59628586D01*
X136921028Y-59526262D01*
X137051262Y-59396028D01*
X137153586Y-59242889D01*
X137224068Y-59072729D01*
X137260000Y-58892089D01*
X137260000Y-58707911D01*
X137224068Y-58527271D01*
X137153586Y-58357111D01*
X137051262Y-58203972D01*
X136921028Y-58073738D01*
X136767889Y-57971414D01*
X136597729Y-57900932D01*
X136417089Y-57865000D01*
X136232911Y-57865000D01*
X136052271Y-57900932D01*
X135882111Y-57971414D01*
X135728972Y-58073738D01*
X135598738Y-58203972D01*
X135496414Y-58357111D01*
X135425932Y-58527271D01*
X135390000Y-58707911D01*
X133186983Y-58707911D01*
X133273262Y-58679094D01*
X133508086Y-58553577D01*
X133634000Y-58263605D01*
X132500000Y-57129605D01*
X132485858Y-57143748D01*
X132306253Y-56964143D01*
X132320395Y-56950000D01*
X132306253Y-56935858D01*
X132485858Y-56756253D01*
X132500000Y-56770395D01*
X132514143Y-56756253D01*
X132693748Y-56935858D01*
X132679605Y-56950000D01*
X133813605Y-58084000D01*
X134103577Y-57958086D01*
X134269433Y-57625874D01*
X134328980Y-57407911D01*
X148840000Y-57407911D01*
X148840000Y-57592089D01*
X148875932Y-57772729D01*
X148946414Y-57942889D01*
X149048738Y-58096028D01*
X149178972Y-58226262D01*
X149332111Y-58328586D01*
X149502271Y-58399068D01*
X149682911Y-58435000D01*
X149867089Y-58435000D01*
X150016071Y-58405365D01*
X149975932Y-58502271D01*
X149940000Y-58682911D01*
X149940000Y-58867089D01*
X149975932Y-59047729D01*
X150045667Y-59216084D01*
X149890891Y-59280194D01*
X149737752Y-59382518D01*
X149607518Y-59512752D01*
X149505194Y-59665891D01*
X149434712Y-59836051D01*
X149398780Y-60016691D01*
X149398780Y-60200869D01*
X149434712Y-60381509D01*
X149505194Y-60551669D01*
X149607518Y-60704808D01*
X149737752Y-60835042D01*
X149890891Y-60937366D01*
X150061051Y-61007848D01*
X150241691Y-61043780D01*
X150425869Y-61043780D01*
X150606509Y-61007848D01*
X150776669Y-60937366D01*
X150929808Y-60835042D01*
X151060042Y-60704808D01*
X151162366Y-60551669D01*
X151232848Y-60381509D01*
X151268780Y-60200869D01*
X151268780Y-60016691D01*
X151232848Y-59836051D01*
X151163113Y-59667696D01*
X151317889Y-59603586D01*
X151471028Y-59501262D01*
X151601262Y-59371028D01*
X151703586Y-59217889D01*
X151774068Y-59047729D01*
X151810000Y-58867089D01*
X151810000Y-58682911D01*
X153665000Y-58682911D01*
X153665000Y-58867089D01*
X153700932Y-59047729D01*
X153771414Y-59217889D01*
X153873738Y-59371028D01*
X154003972Y-59501262D01*
X154157111Y-59603586D01*
X154327271Y-59674068D01*
X154507911Y-59710000D01*
X154692089Y-59710000D01*
X154872729Y-59674068D01*
X155042889Y-59603586D01*
X155196028Y-59501262D01*
X155326262Y-59371028D01*
X155428586Y-59217889D01*
X155499068Y-59047729D01*
X155535000Y-58867089D01*
X155535000Y-58682911D01*
X155499068Y-58502271D01*
X155428586Y-58332111D01*
X155326262Y-58178972D01*
X155196028Y-58048738D01*
X155042889Y-57946414D01*
X154872729Y-57875932D01*
X154692089Y-57840000D01*
X154507911Y-57840000D01*
X154327271Y-57875932D01*
X154157111Y-57946414D01*
X154003972Y-58048738D01*
X153873738Y-58178972D01*
X153771414Y-58332111D01*
X153700932Y-58502271D01*
X153665000Y-58682911D01*
X151810000Y-58682911D01*
X151774068Y-58502271D01*
X151703586Y-58332111D01*
X151601262Y-58178972D01*
X151471028Y-58048738D01*
X151317889Y-57946414D01*
X151147729Y-57875932D01*
X150967089Y-57840000D01*
X150782911Y-57840000D01*
X150633929Y-57869635D01*
X150674068Y-57772729D01*
X150710000Y-57592089D01*
X150710000Y-57407911D01*
X150674068Y-57227271D01*
X150603586Y-57057111D01*
X150501262Y-56903972D01*
X150371028Y-56773738D01*
X150217889Y-56671414D01*
X150047729Y-56600932D01*
X149867089Y-56565000D01*
X149682911Y-56565000D01*
X149502271Y-56600932D01*
X149332111Y-56671414D01*
X149178972Y-56773738D01*
X149048738Y-56903972D01*
X148946414Y-57057111D01*
X148875932Y-57227271D01*
X148840000Y-57407911D01*
X134328980Y-57407911D01*
X134367290Y-57267688D01*
X134393389Y-56897294D01*
X134346725Y-56528925D01*
X134229094Y-56176738D01*
X134103577Y-55941914D01*
X133813607Y-55816001D01*
X133928715Y-55700893D01*
X133868358Y-55640536D01*
X135582624Y-55640504D01*
X135521414Y-55732111D01*
X135450932Y-55902271D01*
X135415000Y-56082911D01*
X135415000Y-56267089D01*
X135450932Y-56447729D01*
X135521414Y-56617889D01*
X135623738Y-56771028D01*
X135753972Y-56901262D01*
X135907111Y-57003586D01*
X136077271Y-57074068D01*
X136257911Y-57110000D01*
X136442089Y-57110000D01*
X136622729Y-57074068D01*
X136792889Y-57003586D01*
X136946028Y-56901262D01*
X137076262Y-56771028D01*
X137178586Y-56617889D01*
X137249068Y-56447729D01*
X137285000Y-56267089D01*
X137285000Y-56082911D01*
X137249068Y-55902271D01*
X137178586Y-55732111D01*
X137117357Y-55640475D01*
X154666830Y-55640147D01*
X154653972Y-55648738D01*
X154523738Y-55778972D01*
X154421414Y-55932111D01*
X154350932Y-56102271D01*
X154315000Y-56282911D01*
X154315000Y-56467089D01*
X154350932Y-56647729D01*
X154421414Y-56817889D01*
X154523738Y-56971028D01*
X154653972Y-57101262D01*
X154807111Y-57203586D01*
X154977271Y-57274068D01*
X155157911Y-57310000D01*
X155342089Y-57310000D01*
X155522729Y-57274068D01*
X155692889Y-57203586D01*
X155846028Y-57101262D01*
X155976262Y-56971028D01*
X156078586Y-56817889D01*
X156149068Y-56647729D01*
X156185000Y-56467089D01*
X156185000Y-56282911D01*
X156149068Y-56102271D01*
X156078586Y-55932111D01*
X155976262Y-55778972D01*
X155846028Y-55648738D01*
X155833137Y-55640125D01*
X159132115Y-55640063D01*
X159071285Y-55700893D01*
G04 #@! TA.AperFunction,Conductor*
D17*
G36*
X159071285Y-55700893D02*
G01*
X159186393Y-55816001D01*
X158896423Y-55941914D01*
X158730567Y-56274126D01*
X158632710Y-56632312D01*
X158606611Y-57002706D01*
X158653275Y-57371075D01*
X158770906Y-57723262D01*
X158896423Y-57958086D01*
X159186395Y-58084000D01*
X160320395Y-56950000D01*
X160306253Y-56935858D01*
X160485858Y-56756253D01*
X160500000Y-56770395D01*
X160514143Y-56756253D01*
X160693748Y-56935858D01*
X160679605Y-56950000D01*
X160693748Y-56964143D01*
X160514143Y-57143748D01*
X160500000Y-57129605D01*
X159366000Y-58263605D01*
X159491914Y-58553577D01*
X159824126Y-58719433D01*
X160182312Y-58817290D01*
X160552706Y-58843389D01*
X160921075Y-58796725D01*
X161273262Y-58679094D01*
X161508086Y-58553577D01*
X161633999Y-58263607D01*
X161749107Y-58378715D01*
X161800001Y-58327821D01*
X161800000Y-89496413D01*
X161642080Y-89465000D01*
X161457902Y-89465000D01*
X161277262Y-89500932D01*
X161107102Y-89571414D01*
X160953963Y-89673738D01*
X160823729Y-89803972D01*
X160721405Y-89957111D01*
X160650923Y-90127271D01*
X160614991Y-90307911D01*
X160614991Y-90492089D01*
X160650923Y-90672729D01*
X160721405Y-90842889D01*
X160823729Y-90996028D01*
X160953963Y-91126262D01*
X161107102Y-91228586D01*
X161277262Y-91299068D01*
X161457902Y-91335000D01*
X161642080Y-91335000D01*
X161800000Y-91303587D01*
X161800000Y-95240000D01*
X161682911Y-95240000D01*
X161502271Y-95275932D01*
X161332111Y-95346414D01*
X161178972Y-95448738D01*
X161048738Y-95578972D01*
X160946414Y-95732111D01*
X160875932Y-95902271D01*
X160840000Y-96082911D01*
X160840000Y-96267089D01*
X160875932Y-96447729D01*
X160946414Y-96617889D01*
X161048738Y-96771028D01*
X161178972Y-96901262D01*
X161332111Y-97003586D01*
X161502271Y-97074068D01*
X161682911Y-97110000D01*
X161800000Y-97110000D01*
X161800000Y-109888947D01*
X161606067Y-109808617D01*
X161386788Y-109765000D01*
X161163212Y-109765000D01*
X160943933Y-109808617D01*
X160737376Y-109894176D01*
X160551480Y-110018388D01*
X160393388Y-110176480D01*
X160269176Y-110362376D01*
X160183617Y-110568933D01*
X160140000Y-110788212D01*
X160140000Y-111011788D01*
X160183617Y-111231067D01*
X160269176Y-111437624D01*
X160393388Y-111623520D01*
X160551480Y-111781612D01*
X160737376Y-111905824D01*
X160943933Y-111991383D01*
X161163212Y-112035000D01*
X161386788Y-112035000D01*
X161606067Y-111991383D01*
X161800000Y-111911053D01*
X161800000Y-114547178D01*
X161749107Y-114496285D01*
X161633999Y-114611393D01*
X161508086Y-114321423D01*
X161175874Y-114155567D01*
X160817688Y-114057710D01*
X160447294Y-114031611D01*
X160078925Y-114078275D01*
X159726738Y-114195906D01*
X159491914Y-114321423D01*
X159366000Y-114611395D01*
X160500000Y-115745395D01*
X160514143Y-115731253D01*
X160693748Y-115910858D01*
X160679605Y-115925000D01*
X160693748Y-115939143D01*
X160514143Y-116118748D01*
X160500000Y-116104605D01*
X160485858Y-116118748D01*
X160306253Y-115939143D01*
X160320395Y-115925000D01*
X159186395Y-114791000D01*
X158896423Y-114916914D01*
X158730567Y-115249126D01*
X158632710Y-115607312D01*
X158606611Y-115977706D01*
X158653275Y-116346075D01*
X158770906Y-116698262D01*
X158896423Y-116933086D01*
X159186393Y-117058999D01*
X159071285Y-117174107D01*
X159117178Y-117220000D01*
X133882822Y-117220000D01*
X133953715Y-117149107D01*
X133838607Y-117033999D01*
X134128577Y-116908086D01*
X134294433Y-116575874D01*
X134392290Y-116217688D01*
X134418389Y-115847294D01*
X134371725Y-115478925D01*
X134312632Y-115302000D01*
X134520000Y-115302000D01*
X134520000Y-115632000D01*
X134565528Y-115840257D01*
X134650810Y-116035631D01*
X134772569Y-116210613D01*
X134926126Y-116358479D01*
X135105580Y-116473546D01*
X135306787Y-116544435D01*
X135473000Y-116417454D01*
X135473000Y-115302000D01*
X135727000Y-115302000D01*
X135727000Y-116417454D01*
X135893213Y-116544435D01*
X136094420Y-116473546D01*
X136273874Y-116358479D01*
X136427431Y-116210613D01*
X136549190Y-116035631D01*
X136634472Y-115840257D01*
X136680000Y-115632000D01*
X136680000Y-115302000D01*
X141520000Y-115302000D01*
X141520000Y-115632000D01*
X141565528Y-115840257D01*
X141650810Y-116035631D01*
X141772569Y-116210613D01*
X141926126Y-116358479D01*
X142105580Y-116473546D01*
X142306787Y-116544435D01*
X142473000Y-116417454D01*
X142473000Y-115302000D01*
X142727000Y-115302000D01*
X142727000Y-116417454D01*
X142893213Y-116544435D01*
X143094420Y-116473546D01*
X143273874Y-116358479D01*
X143427431Y-116210613D01*
X143481498Y-116132911D01*
X144615000Y-116132911D01*
X144615000Y-116317089D01*
X144650932Y-116497729D01*
X144721414Y-116667889D01*
X144823738Y-116821028D01*
X144953972Y-116951262D01*
X145107111Y-117053586D01*
X145277271Y-117124068D01*
X145457911Y-117160000D01*
X145642089Y-117160000D01*
X145822729Y-117124068D01*
X145992889Y-117053586D01*
X146146028Y-116951262D01*
X146276262Y-116821028D01*
X146378586Y-116667889D01*
X146449068Y-116497729D01*
X146485000Y-116317089D01*
X146485000Y-116132911D01*
X146449068Y-115952271D01*
X146378586Y-115782111D01*
X146276262Y-115628972D01*
X146146028Y-115498738D01*
X145992889Y-115396414D01*
X145822729Y-115325932D01*
X145642089Y-115290000D01*
X145457911Y-115290000D01*
X145277271Y-115325932D01*
X145107111Y-115396414D01*
X144953972Y-115498738D01*
X144823738Y-115628972D01*
X144721414Y-115782111D01*
X144650932Y-115952271D01*
X144615000Y-116132911D01*
X143481498Y-116132911D01*
X143549190Y-116035631D01*
X143634472Y-115840257D01*
X143680000Y-115632000D01*
X143680000Y-115302000D01*
X142727000Y-115302000D01*
X142473000Y-115302000D01*
X141520000Y-115302000D01*
X136680000Y-115302000D01*
X135727000Y-115302000D01*
X135473000Y-115302000D01*
X134520000Y-115302000D01*
X134312632Y-115302000D01*
X134254094Y-115126738D01*
X134128577Y-114891914D01*
X133838605Y-114766000D01*
X132704605Y-115900000D01*
X132718748Y-115914143D01*
X132539143Y-116093748D01*
X132525000Y-116079605D01*
X132510858Y-116093748D01*
X132331253Y-115914143D01*
X132345395Y-115900000D01*
X132331253Y-115885858D01*
X132510858Y-115706253D01*
X132525000Y-115720395D01*
X133527395Y-114718000D01*
X134520000Y-114718000D01*
X134520000Y-115048000D01*
X135473000Y-115048000D01*
X135473000Y-113932546D01*
X135727000Y-113932546D01*
X135727000Y-115048000D01*
X136680000Y-115048000D01*
X136680000Y-114718000D01*
X141520000Y-114718000D01*
X141520000Y-115048000D01*
X142473000Y-115048000D01*
X142473000Y-113932546D01*
X142727000Y-113932546D01*
X142727000Y-115048000D01*
X143680000Y-115048000D01*
X143680000Y-114718000D01*
X143634472Y-114509743D01*
X143549190Y-114314369D01*
X143427431Y-114139387D01*
X143273874Y-113991521D01*
X143094420Y-113876454D01*
X142893213Y-113805565D01*
X142727000Y-113932546D01*
X142473000Y-113932546D01*
X142306787Y-113805565D01*
X142105580Y-113876454D01*
X141926126Y-113991521D01*
X141772569Y-114139387D01*
X141650810Y-114314369D01*
X141565528Y-114509743D01*
X141520000Y-114718000D01*
X136680000Y-114718000D01*
X136634472Y-114509743D01*
X136549190Y-114314369D01*
X136427431Y-114139387D01*
X136273874Y-113991521D01*
X136094420Y-113876454D01*
X135893213Y-113805565D01*
X135727000Y-113932546D01*
X135473000Y-113932546D01*
X135306787Y-113805565D01*
X135105580Y-113876454D01*
X134926126Y-113991521D01*
X134772569Y-114139387D01*
X134650810Y-114314369D01*
X134565528Y-114509743D01*
X134520000Y-114718000D01*
X133527395Y-114718000D01*
X133659000Y-114586395D01*
X133533086Y-114296423D01*
X133200874Y-114130567D01*
X132842688Y-114032710D01*
X132472294Y-114006611D01*
X132103925Y-114053275D01*
X131751738Y-114170906D01*
X131516914Y-114296423D01*
X131391001Y-114586393D01*
X131275893Y-114471285D01*
X131219235Y-114527943D01*
X131218894Y-113007901D01*
X132115000Y-113007901D01*
X132115000Y-113192079D01*
X132150932Y-113372719D01*
X132221414Y-113542879D01*
X132323738Y-113696018D01*
X132453972Y-113826252D01*
X132607111Y-113928576D01*
X132777271Y-113999058D01*
X132957911Y-114034990D01*
X133142089Y-114034990D01*
X133322729Y-113999058D01*
X133492889Y-113928576D01*
X133646028Y-113826252D01*
X133776262Y-113696018D01*
X133878586Y-113542879D01*
X133949068Y-113372719D01*
X133985000Y-113192079D01*
X133985000Y-113007901D01*
X133949068Y-112827261D01*
X133926567Y-112772938D01*
X135380732Y-112772938D01*
X135450397Y-112961150D01*
X135564447Y-113146822D01*
X135712529Y-113306676D01*
X135888951Y-113434569D01*
X136086934Y-113525586D01*
X136298869Y-113576230D01*
X136473000Y-113427564D01*
X136473000Y-112602000D01*
X136727000Y-112602000D01*
X136727000Y-113427564D01*
X136901131Y-113576230D01*
X137113066Y-113525586D01*
X137311049Y-113434569D01*
X137487471Y-113306676D01*
X137635553Y-113146822D01*
X137749603Y-112961150D01*
X137819268Y-112772938D01*
X140380732Y-112772938D01*
X140450397Y-112961150D01*
X140564447Y-113146822D01*
X140712529Y-113306676D01*
X140888951Y-113434569D01*
X141086934Y-113525586D01*
X141298869Y-113576230D01*
X141473000Y-113427564D01*
X141473000Y-112602000D01*
X141727000Y-112602000D01*
X141727000Y-113427564D01*
X141901131Y-113576230D01*
X142113066Y-113525586D01*
X142311049Y-113434569D01*
X142487471Y-113306676D01*
X142635553Y-113146822D01*
X142749603Y-112961150D01*
X142819268Y-112772938D01*
X142692734Y-112602000D01*
X141727000Y-112602000D01*
X141473000Y-112602000D01*
X140507266Y-112602000D01*
X140380732Y-112772938D01*
X137819268Y-112772938D01*
X137692734Y-112602000D01*
X136727000Y-112602000D01*
X136473000Y-112602000D01*
X135507266Y-112602000D01*
X135380732Y-112772938D01*
X133926567Y-112772938D01*
X133878586Y-112657101D01*
X133776262Y-112503962D01*
X133646028Y-112373728D01*
X133492889Y-112271404D01*
X133322729Y-112200922D01*
X133142089Y-112164990D01*
X132957911Y-112164990D01*
X132777271Y-112200922D01*
X132607111Y-112271404D01*
X132453972Y-112373728D01*
X132323738Y-112503962D01*
X132221414Y-112657101D01*
X132150932Y-112827261D01*
X132115000Y-113007901D01*
X131218894Y-113007901D01*
X131218186Y-109857911D01*
X131940000Y-109857911D01*
X131940000Y-110042089D01*
X131975932Y-110222729D01*
X132046414Y-110392889D01*
X132148738Y-110546028D01*
X132278972Y-110676262D01*
X132432111Y-110778586D01*
X132602271Y-110849068D01*
X132782911Y-110885000D01*
X132967089Y-110885000D01*
X133147729Y-110849068D01*
X133317889Y-110778586D01*
X133461077Y-110682911D01*
X135165000Y-110682911D01*
X135165000Y-110867089D01*
X135200932Y-111047729D01*
X135271414Y-111217889D01*
X135373738Y-111371028D01*
X135503972Y-111501262D01*
X135657111Y-111603586D01*
X135727262Y-111632643D01*
X135712529Y-111643324D01*
X135564447Y-111803178D01*
X135450397Y-111988850D01*
X135380732Y-112177062D01*
X135507266Y-112348000D01*
X136473000Y-112348000D01*
X136473000Y-112328000D01*
X136727000Y-112328000D01*
X136727000Y-112348000D01*
X137692734Y-112348000D01*
X137819268Y-112177062D01*
X140380732Y-112177062D01*
X140507266Y-112348000D01*
X141473000Y-112348000D01*
X141473000Y-111522436D01*
X141727000Y-111522436D01*
X141727000Y-112348000D01*
X142692734Y-112348000D01*
X142819268Y-112177062D01*
X142749603Y-111988850D01*
X142635553Y-111803178D01*
X142487471Y-111643324D01*
X142311049Y-111515431D01*
X142113066Y-111424414D01*
X141901131Y-111373770D01*
X141727000Y-111522436D01*
X141473000Y-111522436D01*
X141298869Y-111373770D01*
X141086934Y-111424414D01*
X140888951Y-111515431D01*
X140712529Y-111643324D01*
X140564447Y-111803178D01*
X140450397Y-111988850D01*
X140380732Y-112177062D01*
X137819268Y-112177062D01*
X137749603Y-111988850D01*
X137635553Y-111803178D01*
X137487471Y-111643324D01*
X137311049Y-111515431D01*
X137113066Y-111424414D01*
X136901131Y-111373770D01*
X136727002Y-111522434D01*
X136727002Y-111470288D01*
X136826262Y-111371028D01*
X136928586Y-111217889D01*
X136999068Y-111047729D01*
X137035000Y-110867089D01*
X137035000Y-110682911D01*
X137006218Y-110538212D01*
X154865000Y-110538212D01*
X154865000Y-110761788D01*
X154908617Y-110981067D01*
X154994176Y-111187624D01*
X155118388Y-111373520D01*
X155276480Y-111531612D01*
X155462376Y-111655824D01*
X155668933Y-111741383D01*
X155888212Y-111785000D01*
X156111788Y-111785000D01*
X156331067Y-111741383D01*
X156537624Y-111655824D01*
X156723520Y-111531612D01*
X156881612Y-111373520D01*
X157005824Y-111187624D01*
X157091383Y-110981067D01*
X157135000Y-110761788D01*
X157135000Y-110538212D01*
X157091383Y-110318933D01*
X157005824Y-110112376D01*
X156881612Y-109926480D01*
X156723520Y-109768388D01*
X156537624Y-109644176D01*
X156331067Y-109558617D01*
X156111788Y-109515000D01*
X155888212Y-109515000D01*
X155668933Y-109558617D01*
X155462376Y-109644176D01*
X155276480Y-109768388D01*
X155118388Y-109926480D01*
X154994176Y-110112376D01*
X154908617Y-110318933D01*
X154865000Y-110538212D01*
X137006218Y-110538212D01*
X136999068Y-110502271D01*
X136928586Y-110332111D01*
X136826262Y-110178972D01*
X136696028Y-110048738D01*
X136542889Y-109946414D01*
X136372729Y-109875932D01*
X136192089Y-109840000D01*
X136007911Y-109840000D01*
X135827271Y-109875932D01*
X135657111Y-109946414D01*
X135503972Y-110048738D01*
X135373738Y-110178972D01*
X135271414Y-110332111D01*
X135200932Y-110502271D01*
X135165000Y-110682911D01*
X133461077Y-110682911D01*
X133471028Y-110676262D01*
X133601262Y-110546028D01*
X133703586Y-110392889D01*
X133774068Y-110222729D01*
X133810000Y-110042089D01*
X133810000Y-109857911D01*
X133774068Y-109677271D01*
X133703586Y-109507111D01*
X133601262Y-109353972D01*
X133471028Y-109223738D01*
X133317889Y-109121414D01*
X133147729Y-109050932D01*
X132967089Y-109015000D01*
X132782911Y-109015000D01*
X132602271Y-109050932D01*
X132432111Y-109121414D01*
X132278972Y-109223738D01*
X132148738Y-109353972D01*
X132046414Y-109507111D01*
X131975932Y-109677271D01*
X131940000Y-109857911D01*
X131218186Y-109857911D01*
X131217720Y-107782911D01*
X134065000Y-107782911D01*
X134065000Y-107967089D01*
X134100932Y-108147729D01*
X134171414Y-108317889D01*
X134273738Y-108471028D01*
X134403972Y-108601262D01*
X134557111Y-108703586D01*
X134727271Y-108774068D01*
X134794127Y-108787367D01*
X134796414Y-108792889D01*
X134898738Y-108946028D01*
X135028972Y-109076262D01*
X135182111Y-109178586D01*
X135352271Y-109249068D01*
X135532911Y-109285000D01*
X135717089Y-109285000D01*
X135897729Y-109249068D01*
X136067889Y-109178586D01*
X136221028Y-109076262D01*
X136351262Y-108946028D01*
X136440006Y-108813212D01*
X157515000Y-108813212D01*
X157515000Y-109036788D01*
X157558617Y-109256067D01*
X157644176Y-109462624D01*
X157768388Y-109648520D01*
X157926480Y-109806612D01*
X158112376Y-109930824D01*
X158318933Y-110016383D01*
X158538212Y-110060000D01*
X158761788Y-110060000D01*
X158981067Y-110016383D01*
X159187624Y-109930824D01*
X159373520Y-109806612D01*
X159531612Y-109648520D01*
X159655824Y-109462624D01*
X159741383Y-109256067D01*
X159785000Y-109036788D01*
X159785000Y-108813212D01*
X159741383Y-108593933D01*
X159655824Y-108387376D01*
X159531612Y-108201480D01*
X159373520Y-108043388D01*
X159187624Y-107919176D01*
X158981067Y-107833617D01*
X158761788Y-107790000D01*
X158538212Y-107790000D01*
X158318933Y-107833617D01*
X158112376Y-107919176D01*
X157926480Y-108043388D01*
X157768388Y-108201480D01*
X157644176Y-108387376D01*
X157558617Y-108593933D01*
X157515000Y-108813212D01*
X136440006Y-108813212D01*
X136453586Y-108792889D01*
X136524068Y-108622729D01*
X136560000Y-108442089D01*
X136560000Y-108257911D01*
X136524068Y-108077271D01*
X136453586Y-107907111D01*
X136351262Y-107753972D01*
X136221028Y-107623738D01*
X136067889Y-107521414D01*
X135897729Y-107450932D01*
X135830873Y-107437633D01*
X135828586Y-107432111D01*
X135726262Y-107278972D01*
X135596028Y-107148738D01*
X135442889Y-107046414D01*
X135272729Y-106975932D01*
X135092089Y-106940000D01*
X134907911Y-106940000D01*
X134727271Y-106975932D01*
X134557111Y-107046414D01*
X134403972Y-107148738D01*
X134273738Y-107278972D01*
X134171414Y-107432111D01*
X134100932Y-107602271D01*
X134065000Y-107782911D01*
X131217720Y-107782911D01*
X131217073Y-104907911D01*
X131790000Y-104907911D01*
X131790000Y-105092089D01*
X131825932Y-105272729D01*
X131896414Y-105442889D01*
X131998738Y-105596028D01*
X132128972Y-105726262D01*
X132282111Y-105828586D01*
X132452271Y-105899068D01*
X132632911Y-105935000D01*
X132817089Y-105935000D01*
X132997729Y-105899068D01*
X133167889Y-105828586D01*
X133321028Y-105726262D01*
X133451262Y-105596028D01*
X133553586Y-105442889D01*
X133557718Y-105432911D01*
X138865000Y-105432911D01*
X138865000Y-105617089D01*
X138900932Y-105797729D01*
X138971414Y-105967889D01*
X139073738Y-106121028D01*
X139203972Y-106251262D01*
X139357111Y-106353586D01*
X139527271Y-106424068D01*
X139707911Y-106460000D01*
X139892089Y-106460000D01*
X140072729Y-106424068D01*
X140242889Y-106353586D01*
X140396028Y-106251262D01*
X140526262Y-106121028D01*
X140628586Y-105967889D01*
X140630523Y-105963212D01*
X157540000Y-105963212D01*
X157540000Y-106186788D01*
X157583617Y-106406067D01*
X157669176Y-106612624D01*
X157793388Y-106798520D01*
X157951480Y-106956612D01*
X158137376Y-107080824D01*
X158343933Y-107166383D01*
X158563212Y-107210000D01*
X158786788Y-107210000D01*
X159006067Y-107166383D01*
X159212624Y-107080824D01*
X159398520Y-106956612D01*
X159556612Y-106798520D01*
X159680824Y-106612624D01*
X159766383Y-106406067D01*
X159810000Y-106186788D01*
X159810000Y-105963212D01*
X159766383Y-105743933D01*
X159680824Y-105537376D01*
X159556612Y-105351480D01*
X159398520Y-105193388D01*
X159212624Y-105069176D01*
X159006067Y-104983617D01*
X158786788Y-104940000D01*
X158563212Y-104940000D01*
X158343933Y-104983617D01*
X158137376Y-105069176D01*
X157951480Y-105193388D01*
X157793388Y-105351480D01*
X157669176Y-105537376D01*
X157583617Y-105743933D01*
X157540000Y-105963212D01*
X140630523Y-105963212D01*
X140699068Y-105797729D01*
X140735000Y-105617089D01*
X140735000Y-105432911D01*
X140699068Y-105252271D01*
X140628586Y-105082111D01*
X140526262Y-104928972D01*
X140396028Y-104798738D01*
X140242889Y-104696414D01*
X140072729Y-104625932D01*
X139892089Y-104590000D01*
X139707911Y-104590000D01*
X139527271Y-104625932D01*
X139357111Y-104696414D01*
X139203972Y-104798738D01*
X139073738Y-104928972D01*
X138971414Y-105082111D01*
X138900932Y-105252271D01*
X138865000Y-105432911D01*
X133557718Y-105432911D01*
X133624068Y-105272729D01*
X133660000Y-105092089D01*
X133660000Y-104907911D01*
X133624068Y-104727271D01*
X133553586Y-104557111D01*
X133451262Y-104403972D01*
X133321028Y-104273738D01*
X133167889Y-104171414D01*
X132997729Y-104100932D01*
X132817089Y-104065000D01*
X132632911Y-104065000D01*
X132452271Y-104100932D01*
X132282111Y-104171414D01*
X132128972Y-104273738D01*
X131998738Y-104403972D01*
X131896414Y-104557111D01*
X131825932Y-104727271D01*
X131790000Y-104907911D01*
X131217073Y-104907911D01*
X131216455Y-102157911D01*
X141640000Y-102157911D01*
X141640000Y-102342089D01*
X141675932Y-102522729D01*
X141746414Y-102692889D01*
X141848738Y-102846028D01*
X141978972Y-102976262D01*
X142132111Y-103078586D01*
X142302271Y-103149068D01*
X142482911Y-103185000D01*
X142667089Y-103185000D01*
X142847729Y-103149068D01*
X143017889Y-103078586D01*
X143171028Y-102976262D01*
X143301262Y-102846028D01*
X143403586Y-102692889D01*
X143474068Y-102522729D01*
X143510000Y-102342089D01*
X143510000Y-102157911D01*
X143474068Y-101977271D01*
X143403586Y-101807111D01*
X143301262Y-101653972D01*
X143171028Y-101523738D01*
X143017889Y-101421414D01*
X142847729Y-101350932D01*
X142667089Y-101315000D01*
X142482911Y-101315000D01*
X142302271Y-101350932D01*
X142132111Y-101421414D01*
X141978972Y-101523738D01*
X141848738Y-101653972D01*
X141746414Y-101807111D01*
X141675932Y-101977271D01*
X141640000Y-102157911D01*
X131216455Y-102157911D01*
X131216165Y-100870180D01*
X136921067Y-101046939D01*
X136949646Y-101044586D01*
X136973478Y-101037384D01*
X136995447Y-101025671D01*
X137014708Y-101009897D01*
X137030523Y-100990668D01*
X137034679Y-100982911D01*
X138015000Y-100982911D01*
X138015000Y-101167089D01*
X138050932Y-101347729D01*
X138121414Y-101517889D01*
X138223738Y-101671028D01*
X138353972Y-101801262D01*
X138507111Y-101903586D01*
X138677271Y-101974068D01*
X138857911Y-102010000D01*
X139042089Y-102010000D01*
X139222729Y-101974068D01*
X139392889Y-101903586D01*
X139546028Y-101801262D01*
X139676262Y-101671028D01*
X139778586Y-101517889D01*
X139849068Y-101347729D01*
X139885000Y-101167089D01*
X139885000Y-100982911D01*
X139849068Y-100802271D01*
X139778586Y-100632111D01*
X139762417Y-100607911D01*
X139965000Y-100607911D01*
X139965000Y-100792089D01*
X140000932Y-100972729D01*
X140071414Y-101142889D01*
X140173738Y-101296028D01*
X140303972Y-101426262D01*
X140457111Y-101528586D01*
X140627271Y-101599068D01*
X140807911Y-101635000D01*
X140992089Y-101635000D01*
X141172729Y-101599068D01*
X141342889Y-101528586D01*
X141496028Y-101426262D01*
X141626262Y-101296028D01*
X141728586Y-101142889D01*
X141799068Y-100972729D01*
X141835000Y-100792089D01*
X141835000Y-100607911D01*
X141799068Y-100427271D01*
X141728586Y-100257111D01*
X141626262Y-100103972D01*
X141496028Y-99973738D01*
X141342889Y-99871414D01*
X141172729Y-99800932D01*
X140992089Y-99765000D01*
X140807911Y-99765000D01*
X140627271Y-99800932D01*
X140457111Y-99871414D01*
X140303972Y-99973738D01*
X140173738Y-100103972D01*
X140071414Y-100257111D01*
X140000932Y-100427271D01*
X139965000Y-100607911D01*
X139762417Y-100607911D01*
X139676262Y-100478972D01*
X139546028Y-100348738D01*
X139392889Y-100246414D01*
X139222729Y-100175932D01*
X139042089Y-100140000D01*
X138857911Y-100140000D01*
X138677271Y-100175932D01*
X138507111Y-100246414D01*
X138353972Y-100348738D01*
X138223738Y-100478972D01*
X138121414Y-100632111D01*
X138050932Y-100802271D01*
X138015000Y-100982911D01*
X137034679Y-100982911D01*
X137042282Y-100968724D01*
X137049534Y-100944907D01*
X137052000Y-100920133D01*
X137054713Y-98332911D01*
X142340000Y-98332911D01*
X142340000Y-98517089D01*
X142375932Y-98697729D01*
X142446414Y-98867889D01*
X142548738Y-99021028D01*
X142552710Y-99025000D01*
X142548738Y-99028972D01*
X142446414Y-99182111D01*
X142375932Y-99352271D01*
X142340000Y-99532911D01*
X142340000Y-99717089D01*
X142375932Y-99897729D01*
X142446414Y-100067889D01*
X142548738Y-100221028D01*
X142678972Y-100351262D01*
X142832111Y-100453586D01*
X143002271Y-100524068D01*
X143182911Y-100560000D01*
X143367089Y-100560000D01*
X143547729Y-100524068D01*
X143717889Y-100453586D01*
X143871028Y-100351262D01*
X143919464Y-100302826D01*
X143946414Y-100367889D01*
X144048738Y-100521028D01*
X144178972Y-100651262D01*
X144332111Y-100753586D01*
X144502271Y-100824068D01*
X144503415Y-100824295D01*
X144423738Y-100903972D01*
X144321414Y-101057111D01*
X144268870Y-101183964D01*
X144191448Y-101216033D01*
X144038309Y-101318357D01*
X143908075Y-101448591D01*
X143805751Y-101601730D01*
X143735269Y-101771890D01*
X143699337Y-101952530D01*
X143699337Y-102136708D01*
X143735269Y-102317348D01*
X143805751Y-102487508D01*
X143908075Y-102640647D01*
X144038309Y-102770881D01*
X144191448Y-102873205D01*
X144361608Y-102943687D01*
X144542248Y-102979619D01*
X144726426Y-102979619D01*
X144907066Y-102943687D01*
X145077226Y-102873205D01*
X145230365Y-102770881D01*
X145360599Y-102640647D01*
X145462923Y-102487508D01*
X145490000Y-102422138D01*
X145490000Y-102567089D01*
X145525932Y-102747729D01*
X145596414Y-102917889D01*
X145698738Y-103071028D01*
X145828972Y-103201262D01*
X145918837Y-103261307D01*
X145821414Y-103407111D01*
X145750932Y-103577271D01*
X145715000Y-103757911D01*
X145715000Y-103942089D01*
X145750932Y-104122729D01*
X145821414Y-104292889D01*
X145923738Y-104446028D01*
X146053972Y-104576262D01*
X146207111Y-104678586D01*
X146377271Y-104749068D01*
X146557911Y-104785000D01*
X146742089Y-104785000D01*
X146922729Y-104749068D01*
X147092889Y-104678586D01*
X147246028Y-104576262D01*
X147376262Y-104446028D01*
X147478586Y-104292889D01*
X147549068Y-104122729D01*
X147585000Y-103942089D01*
X147585000Y-103757911D01*
X147549068Y-103577271D01*
X147478586Y-103407111D01*
X147376262Y-103253972D01*
X147246028Y-103123738D01*
X147156163Y-103063693D01*
X147253586Y-102917889D01*
X147324068Y-102747729D01*
X147360000Y-102567089D01*
X147360000Y-102382911D01*
X147324068Y-102202271D01*
X147253586Y-102032111D01*
X147151262Y-101878972D01*
X147021028Y-101748738D01*
X146867889Y-101646414D01*
X146697729Y-101575932D01*
X146517089Y-101540000D01*
X146332911Y-101540000D01*
X146152271Y-101575932D01*
X146082462Y-101604848D01*
X146085000Y-101592089D01*
X146085000Y-101407911D01*
X146049068Y-101227271D01*
X145978586Y-101057111D01*
X145945712Y-101007911D01*
X150690000Y-101007911D01*
X150690000Y-101192089D01*
X150725932Y-101372729D01*
X150796414Y-101542889D01*
X150898738Y-101696028D01*
X151028972Y-101826262D01*
X151182111Y-101928586D01*
X151352271Y-101999068D01*
X151373277Y-102003246D01*
X151379304Y-102033548D01*
X151449786Y-102203708D01*
X151552110Y-102356847D01*
X151682344Y-102487081D01*
X151835483Y-102589405D01*
X152005643Y-102659887D01*
X152186283Y-102695819D01*
X152370461Y-102695819D01*
X152551101Y-102659887D01*
X152721261Y-102589405D01*
X152768395Y-102557911D01*
X155840000Y-102557911D01*
X155840000Y-102742089D01*
X155875932Y-102922729D01*
X155946414Y-103092889D01*
X156048738Y-103246028D01*
X156178972Y-103376262D01*
X156332111Y-103478586D01*
X156502271Y-103549068D01*
X156682911Y-103585000D01*
X156867089Y-103585000D01*
X157047729Y-103549068D01*
X157217889Y-103478586D01*
X157371028Y-103376262D01*
X157501262Y-103246028D01*
X157603586Y-103092889D01*
X157674068Y-102922729D01*
X157710000Y-102742089D01*
X157710000Y-102557911D01*
X157674068Y-102377271D01*
X157603586Y-102207111D01*
X157501262Y-102053972D01*
X157371028Y-101923738D01*
X157217889Y-101821414D01*
X157047729Y-101750932D01*
X156867089Y-101715000D01*
X156682911Y-101715000D01*
X156502271Y-101750932D01*
X156332111Y-101821414D01*
X156178972Y-101923738D01*
X156048738Y-102053972D01*
X155946414Y-102207111D01*
X155875932Y-102377271D01*
X155840000Y-102557911D01*
X152768395Y-102557911D01*
X152874400Y-102487081D01*
X153004634Y-102356847D01*
X153106958Y-102203708D01*
X153177440Y-102033548D01*
X153213372Y-101852908D01*
X153213372Y-101668730D01*
X153177440Y-101488090D01*
X153106958Y-101317930D01*
X153004634Y-101164791D01*
X152874400Y-101034557D01*
X152721261Y-100932233D01*
X152551101Y-100861751D01*
X152530095Y-100857573D01*
X152524068Y-100827271D01*
X152453586Y-100657111D01*
X152351262Y-100503972D01*
X152221028Y-100373738D01*
X152067889Y-100271414D01*
X151897729Y-100200932D01*
X151717089Y-100165000D01*
X151532911Y-100165000D01*
X151352271Y-100200932D01*
X151182111Y-100271414D01*
X151028972Y-100373738D01*
X150898738Y-100503972D01*
X150796414Y-100657111D01*
X150725932Y-100827271D01*
X150690000Y-101007911D01*
X145945712Y-101007911D01*
X145876262Y-100903972D01*
X145746028Y-100773738D01*
X145592889Y-100671414D01*
X145422729Y-100600932D01*
X145421585Y-100600705D01*
X145501262Y-100521028D01*
X145603586Y-100367889D01*
X145674068Y-100197729D01*
X145710000Y-100017089D01*
X145710000Y-99832911D01*
X145674068Y-99652271D01*
X145603586Y-99482111D01*
X145501262Y-99328972D01*
X145371028Y-99198738D01*
X145217889Y-99096414D01*
X145047729Y-99025932D01*
X144867089Y-98990000D01*
X144682911Y-98990000D01*
X144502271Y-99025932D01*
X144332111Y-99096414D01*
X144178972Y-99198738D01*
X144130536Y-99247174D01*
X144103586Y-99182111D01*
X144001262Y-99028972D01*
X143997290Y-99025000D01*
X144001262Y-99021028D01*
X144103586Y-98867889D01*
X144174068Y-98697729D01*
X144210000Y-98517089D01*
X144210000Y-98332911D01*
X144174068Y-98152271D01*
X144103586Y-97982111D01*
X144001262Y-97828972D01*
X143871028Y-97698738D01*
X143717889Y-97596414D01*
X143547729Y-97525932D01*
X143367089Y-97490000D01*
X143182911Y-97490000D01*
X143002271Y-97525932D01*
X142832111Y-97596414D01*
X142678972Y-97698738D01*
X142548738Y-97828972D01*
X142446414Y-97982111D01*
X142375932Y-98152271D01*
X142340000Y-98332911D01*
X137054713Y-98332911D01*
X137056208Y-96907911D01*
X139615000Y-96907911D01*
X139615000Y-97092089D01*
X139650932Y-97272729D01*
X139721414Y-97442889D01*
X139823738Y-97596028D01*
X139953972Y-97726262D01*
X140107111Y-97828586D01*
X140277271Y-97899068D01*
X140457911Y-97935000D01*
X140642089Y-97935000D01*
X140822729Y-97899068D01*
X140992889Y-97828586D01*
X141146028Y-97726262D01*
X141276262Y-97596028D01*
X141378586Y-97442889D01*
X141449068Y-97272729D01*
X141485000Y-97092089D01*
X141485000Y-96907911D01*
X141449068Y-96727271D01*
X141378586Y-96557111D01*
X141276262Y-96403972D01*
X141202679Y-96330389D01*
X142140006Y-96330389D01*
X142140006Y-96514567D01*
X142175938Y-96695207D01*
X142246420Y-96865367D01*
X142348744Y-97018506D01*
X142478978Y-97148740D01*
X142632117Y-97251064D01*
X142802277Y-97321546D01*
X142982917Y-97357478D01*
X143167095Y-97357478D01*
X143347735Y-97321546D01*
X143517895Y-97251064D01*
X143619893Y-97182911D01*
X144640000Y-97182911D01*
X144640000Y-97367089D01*
X144675932Y-97547729D01*
X144746414Y-97717889D01*
X144848738Y-97871028D01*
X144978972Y-98001262D01*
X145132111Y-98103586D01*
X145302271Y-98174068D01*
X145482911Y-98210000D01*
X145667089Y-98210000D01*
X145847729Y-98174068D01*
X146017889Y-98103586D01*
X146171028Y-98001262D01*
X146301262Y-97871028D01*
X146403586Y-97717889D01*
X146474068Y-97547729D01*
X146510000Y-97367089D01*
X146510000Y-97182911D01*
X146474068Y-97002271D01*
X146403586Y-96832111D01*
X146301262Y-96678972D01*
X146171028Y-96548738D01*
X146017889Y-96446414D01*
X145985290Y-96432911D01*
X149590000Y-96432911D01*
X149590000Y-96617089D01*
X149625932Y-96797729D01*
X149696414Y-96967889D01*
X149798738Y-97121028D01*
X149928972Y-97251262D01*
X150082111Y-97353586D01*
X150252271Y-97424068D01*
X150432911Y-97460000D01*
X150617089Y-97460000D01*
X150797729Y-97424068D01*
X150967889Y-97353586D01*
X151121028Y-97251262D01*
X151251262Y-97121028D01*
X151353586Y-96967889D01*
X151355197Y-96963998D01*
X151445726Y-96963998D01*
X151445726Y-97148176D01*
X151481658Y-97328816D01*
X151552140Y-97498976D01*
X151654464Y-97652115D01*
X151784698Y-97782349D01*
X151937837Y-97884673D01*
X152107997Y-97955155D01*
X152288637Y-97991087D01*
X152472815Y-97991087D01*
X152522779Y-97981148D01*
X152550942Y-98122729D01*
X152609872Y-98265000D01*
X152457911Y-98265000D01*
X152277271Y-98300932D01*
X152107111Y-98371414D01*
X151953972Y-98473738D01*
X151823738Y-98603972D01*
X151721414Y-98757111D01*
X151650932Y-98927271D01*
X151615000Y-99107911D01*
X151615000Y-99292089D01*
X151650932Y-99472729D01*
X151721414Y-99642889D01*
X151823738Y-99796028D01*
X151953972Y-99926262D01*
X152107111Y-100028586D01*
X152277271Y-100099068D01*
X152457911Y-100135000D01*
X152524552Y-100135000D01*
X152598738Y-100246028D01*
X152728972Y-100376262D01*
X152882111Y-100478586D01*
X153052271Y-100549068D01*
X153232911Y-100585000D01*
X153417089Y-100585000D01*
X153597729Y-100549068D01*
X153767889Y-100478586D01*
X153921028Y-100376262D01*
X154051262Y-100246028D01*
X154153586Y-100092889D01*
X154224068Y-99922729D01*
X154260000Y-99742089D01*
X154260000Y-99557911D01*
X154224068Y-99377271D01*
X154153586Y-99207111D01*
X154051262Y-99053972D01*
X153921028Y-98923738D01*
X153767889Y-98821414D01*
X153635246Y-98766472D01*
X153722739Y-98749068D01*
X153892899Y-98678586D01*
X154046038Y-98576262D01*
X154176272Y-98446028D01*
X154278596Y-98292889D01*
X154349078Y-98122729D01*
X154385010Y-97942089D01*
X154385010Y-97757911D01*
X154349078Y-97577271D01*
X154278596Y-97407111D01*
X154176272Y-97253972D01*
X154046038Y-97123738D01*
X153892899Y-97021414D01*
X153722739Y-96950932D01*
X153542099Y-96915000D01*
X153357921Y-96915000D01*
X153307957Y-96924939D01*
X153279794Y-96783358D01*
X153209312Y-96613198D01*
X153106988Y-96460059D01*
X152976754Y-96329825D01*
X152943958Y-96307911D01*
X156940000Y-96307911D01*
X156940000Y-96492089D01*
X156975932Y-96672729D01*
X157046414Y-96842889D01*
X157148738Y-96996028D01*
X157278972Y-97126262D01*
X157432111Y-97228586D01*
X157602271Y-97299068D01*
X157782911Y-97335000D01*
X157967089Y-97335000D01*
X158147729Y-97299068D01*
X158317889Y-97228586D01*
X158471028Y-97126262D01*
X158601262Y-96996028D01*
X158703586Y-96842889D01*
X158774068Y-96672729D01*
X158810000Y-96492089D01*
X158810000Y-96307911D01*
X158774068Y-96127271D01*
X158703586Y-95957111D01*
X158601262Y-95803972D01*
X158471028Y-95673738D01*
X158317889Y-95571414D01*
X158147729Y-95500932D01*
X157967089Y-95465000D01*
X157782911Y-95465000D01*
X157602271Y-95500932D01*
X157432111Y-95571414D01*
X157278972Y-95673738D01*
X157148738Y-95803972D01*
X157046414Y-95957111D01*
X156975932Y-96127271D01*
X156940000Y-96307911D01*
X152943958Y-96307911D01*
X152823615Y-96227501D01*
X152653455Y-96157019D01*
X152472815Y-96121087D01*
X152288637Y-96121087D01*
X152107997Y-96157019D01*
X151937837Y-96227501D01*
X151784698Y-96329825D01*
X151654464Y-96460059D01*
X151552140Y-96613198D01*
X151481658Y-96783358D01*
X151445726Y-96963998D01*
X151355197Y-96963998D01*
X151424068Y-96797729D01*
X151460000Y-96617089D01*
X151460000Y-96432911D01*
X151424068Y-96252271D01*
X151353586Y-96082111D01*
X151251262Y-95928972D01*
X151121028Y-95798738D01*
X150967889Y-95696414D01*
X150797729Y-95625932D01*
X150617089Y-95590000D01*
X150432911Y-95590000D01*
X150252271Y-95625932D01*
X150082111Y-95696414D01*
X149928972Y-95798738D01*
X149798738Y-95928972D01*
X149696414Y-96082111D01*
X149625932Y-96252271D01*
X149590000Y-96432911D01*
X145985290Y-96432911D01*
X145847729Y-96375932D01*
X145667089Y-96340000D01*
X145482911Y-96340000D01*
X145302271Y-96375932D01*
X145132111Y-96446414D01*
X144978972Y-96548738D01*
X144848738Y-96678972D01*
X144746414Y-96832111D01*
X144675932Y-97002271D01*
X144640000Y-97182911D01*
X143619893Y-97182911D01*
X143671034Y-97148740D01*
X143801268Y-97018506D01*
X143903592Y-96865367D01*
X143974074Y-96695207D01*
X144010006Y-96514567D01*
X144010006Y-96330389D01*
X143974074Y-96149749D01*
X143903592Y-95979589D01*
X143801268Y-95826450D01*
X143671034Y-95696216D01*
X143517895Y-95593892D01*
X143347735Y-95523410D01*
X143167095Y-95487478D01*
X142982917Y-95487478D01*
X142802277Y-95523410D01*
X142632117Y-95593892D01*
X142478978Y-95696216D01*
X142348744Y-95826450D01*
X142246420Y-95979589D01*
X142175938Y-96149749D01*
X142140006Y-96330389D01*
X141202679Y-96330389D01*
X141146028Y-96273738D01*
X140992889Y-96171414D01*
X140822729Y-96100932D01*
X140642089Y-96065000D01*
X140457911Y-96065000D01*
X140277271Y-96100932D01*
X140107111Y-96171414D01*
X139953972Y-96273738D01*
X139823738Y-96403972D01*
X139721414Y-96557111D01*
X139650932Y-96727271D01*
X139615000Y-96907911D01*
X137056208Y-96907911D01*
X137059906Y-93382911D01*
X138940000Y-93382911D01*
X138940000Y-93567089D01*
X138975932Y-93747729D01*
X139046414Y-93917889D01*
X139148738Y-94071028D01*
X139278972Y-94201262D01*
X139432111Y-94303586D01*
X139602271Y-94374068D01*
X139782911Y-94410000D01*
X139967089Y-94410000D01*
X140147729Y-94374068D01*
X140317889Y-94303586D01*
X140471028Y-94201262D01*
X140601262Y-94071028D01*
X140703586Y-93917889D01*
X140774068Y-93747729D01*
X140810000Y-93567089D01*
X140810000Y-93382911D01*
X140774068Y-93202271D01*
X140703586Y-93032111D01*
X140670712Y-92982911D01*
X141815000Y-92982911D01*
X141815000Y-93167089D01*
X141850932Y-93347729D01*
X141921414Y-93517889D01*
X142023738Y-93671028D01*
X142153972Y-93801262D01*
X142307111Y-93903586D01*
X142477271Y-93974068D01*
X142657911Y-94010000D01*
X142842089Y-94010000D01*
X143022729Y-93974068D01*
X143192889Y-93903586D01*
X143346028Y-93801262D01*
X143476262Y-93671028D01*
X143578586Y-93517889D01*
X143649068Y-93347729D01*
X143685000Y-93167089D01*
X143685000Y-92982911D01*
X143649068Y-92802271D01*
X143578586Y-92632111D01*
X143476262Y-92478972D01*
X143346028Y-92348738D01*
X143192889Y-92246414D01*
X143022729Y-92175932D01*
X142842089Y-92140000D01*
X142657911Y-92140000D01*
X142477271Y-92175932D01*
X142307111Y-92246414D01*
X142153972Y-92348738D01*
X142023738Y-92478972D01*
X141921414Y-92632111D01*
X141850932Y-92802271D01*
X141815000Y-92982911D01*
X140670712Y-92982911D01*
X140601262Y-92878972D01*
X140471028Y-92748738D01*
X140317889Y-92646414D01*
X140147729Y-92575932D01*
X139967089Y-92540000D01*
X139782911Y-92540000D01*
X139602271Y-92575932D01*
X139432111Y-92646414D01*
X139278972Y-92748738D01*
X139148738Y-92878972D01*
X139046414Y-93032111D01*
X138975932Y-93202271D01*
X138940000Y-93382911D01*
X137059906Y-93382911D01*
X137072099Y-81757911D01*
X139665000Y-81757911D01*
X139665000Y-81942089D01*
X139700932Y-82122729D01*
X139771414Y-82292889D01*
X139873738Y-82446028D01*
X140003972Y-82576262D01*
X140157111Y-82678586D01*
X140327271Y-82749068D01*
X140507911Y-82785000D01*
X140692089Y-82785000D01*
X140872729Y-82749068D01*
X141042889Y-82678586D01*
X141196028Y-82576262D01*
X141326262Y-82446028D01*
X141428586Y-82292889D01*
X141463784Y-82207911D01*
X153340000Y-82207911D01*
X153340000Y-82392089D01*
X153375932Y-82572729D01*
X153446414Y-82742889D01*
X153548738Y-82896028D01*
X153678972Y-83026262D01*
X153832111Y-83128586D01*
X154002271Y-83199068D01*
X154182911Y-83235000D01*
X154367089Y-83235000D01*
X154547729Y-83199068D01*
X154717889Y-83128586D01*
X154871028Y-83026262D01*
X155001262Y-82896028D01*
X155103586Y-82742889D01*
X155174068Y-82572729D01*
X155210000Y-82392089D01*
X155210000Y-82207911D01*
X155174068Y-82027271D01*
X155103586Y-81857111D01*
X155001262Y-81703972D01*
X154871028Y-81573738D01*
X154717889Y-81471414D01*
X154547729Y-81400932D01*
X154367089Y-81365000D01*
X154182911Y-81365000D01*
X154002271Y-81400932D01*
X153832111Y-81471414D01*
X153678972Y-81573738D01*
X153548738Y-81703972D01*
X153446414Y-81857111D01*
X153375932Y-82027271D01*
X153340000Y-82207911D01*
X141463784Y-82207911D01*
X141499068Y-82122729D01*
X141535000Y-81942089D01*
X141535000Y-81757911D01*
X141499068Y-81577271D01*
X141428586Y-81407111D01*
X141326262Y-81253972D01*
X141196028Y-81123738D01*
X141042889Y-81021414D01*
X140872729Y-80950932D01*
X140692089Y-80915000D01*
X140507911Y-80915000D01*
X140327271Y-80950932D01*
X140157111Y-81021414D01*
X140003972Y-81123738D01*
X139873738Y-81253972D01*
X139771414Y-81407111D01*
X139700932Y-81577271D01*
X139665000Y-81757911D01*
X137072099Y-81757911D01*
X137074119Y-79832911D01*
X138965000Y-79832911D01*
X138965000Y-80017089D01*
X139000932Y-80197729D01*
X139071414Y-80367889D01*
X139173738Y-80521028D01*
X139303972Y-80651262D01*
X139457111Y-80753586D01*
X139627271Y-80824068D01*
X139807911Y-80860000D01*
X139992089Y-80860000D01*
X140172729Y-80824068D01*
X140342889Y-80753586D01*
X140496028Y-80651262D01*
X140589379Y-80557911D01*
X141290000Y-80557911D01*
X141290000Y-80742089D01*
X141325932Y-80922729D01*
X141396414Y-81092889D01*
X141498738Y-81246028D01*
X141628972Y-81376262D01*
X141782111Y-81478586D01*
X141952271Y-81549068D01*
X142132911Y-81585000D01*
X142317089Y-81585000D01*
X142497729Y-81549068D01*
X142667889Y-81478586D01*
X142821028Y-81376262D01*
X142864379Y-81332911D01*
X159215000Y-81332911D01*
X159215000Y-81517089D01*
X159250932Y-81697729D01*
X159321414Y-81867889D01*
X159423738Y-82021028D01*
X159553972Y-82151262D01*
X159707111Y-82253586D01*
X159877271Y-82324068D01*
X160057911Y-82360000D01*
X160242089Y-82360000D01*
X160422729Y-82324068D01*
X160592889Y-82253586D01*
X160746028Y-82151262D01*
X160876262Y-82021028D01*
X160978586Y-81867889D01*
X161049068Y-81697729D01*
X161085000Y-81517089D01*
X161085000Y-81332911D01*
X161049068Y-81152271D01*
X160978586Y-80982111D01*
X160876262Y-80828972D01*
X160746028Y-80698738D01*
X160592889Y-80596414D01*
X160422729Y-80525932D01*
X160242089Y-80490000D01*
X160057911Y-80490000D01*
X159877271Y-80525932D01*
X159707111Y-80596414D01*
X159553972Y-80698738D01*
X159423738Y-80828972D01*
X159321414Y-80982111D01*
X159250932Y-81152271D01*
X159215000Y-81332911D01*
X142864379Y-81332911D01*
X142951262Y-81246028D01*
X143053586Y-81092889D01*
X143124068Y-80922729D01*
X143160000Y-80742089D01*
X143160000Y-80557911D01*
X143124068Y-80377271D01*
X143053586Y-80207111D01*
X143015369Y-80149915D01*
X143103586Y-80017889D01*
X143174068Y-79847729D01*
X143191934Y-79757911D01*
X151940000Y-79757911D01*
X151940000Y-79942089D01*
X151975932Y-80122729D01*
X152046414Y-80292889D01*
X152148738Y-80446028D01*
X152278972Y-80576262D01*
X152432111Y-80678586D01*
X152602271Y-80749068D01*
X152782911Y-80785000D01*
X152967089Y-80785000D01*
X153147729Y-80749068D01*
X153317889Y-80678586D01*
X153430134Y-80603586D01*
X153446414Y-80642889D01*
X153548738Y-80796028D01*
X153678972Y-80926262D01*
X153832111Y-81028586D01*
X154002271Y-81099068D01*
X154182911Y-81135000D01*
X154367089Y-81135000D01*
X154547729Y-81099068D01*
X154717889Y-81028586D01*
X154871028Y-80926262D01*
X155001262Y-80796028D01*
X155103586Y-80642889D01*
X155174068Y-80472729D01*
X155210000Y-80292089D01*
X155210000Y-80107911D01*
X155174068Y-79927271D01*
X155103586Y-79757111D01*
X155001262Y-79603972D01*
X154871028Y-79473738D01*
X154717889Y-79371414D01*
X154547729Y-79300932D01*
X154367089Y-79265000D01*
X154182911Y-79265000D01*
X154002271Y-79300932D01*
X153832111Y-79371414D01*
X153719866Y-79446414D01*
X153703586Y-79407111D01*
X153601262Y-79253972D01*
X153471028Y-79123738D01*
X153317889Y-79021414D01*
X153147729Y-78950932D01*
X152967089Y-78915000D01*
X152782911Y-78915000D01*
X152602271Y-78950932D01*
X152432111Y-79021414D01*
X152278972Y-79123738D01*
X152148738Y-79253972D01*
X152046414Y-79407111D01*
X151975932Y-79577271D01*
X151940000Y-79757911D01*
X143191934Y-79757911D01*
X143210000Y-79667089D01*
X143210000Y-79482911D01*
X143174068Y-79302271D01*
X143103586Y-79132111D01*
X143001262Y-78978972D01*
X142871028Y-78848738D01*
X142717889Y-78746414D01*
X142547729Y-78675932D01*
X142367089Y-78640000D01*
X142182911Y-78640000D01*
X142002271Y-78675932D01*
X141832111Y-78746414D01*
X141678972Y-78848738D01*
X141548738Y-78978972D01*
X141446414Y-79132111D01*
X141375932Y-79302271D01*
X141340000Y-79482911D01*
X141340000Y-79667089D01*
X141375932Y-79847729D01*
X141446414Y-80017889D01*
X141484631Y-80075085D01*
X141396414Y-80207111D01*
X141325932Y-80377271D01*
X141290000Y-80557911D01*
X140589379Y-80557911D01*
X140626262Y-80521028D01*
X140728586Y-80367889D01*
X140799068Y-80197729D01*
X140835000Y-80017089D01*
X140835000Y-79832911D01*
X140799068Y-79652271D01*
X140728586Y-79482111D01*
X140626262Y-79328972D01*
X140496028Y-79198738D01*
X140342889Y-79096414D01*
X140172729Y-79025932D01*
X139992089Y-78990000D01*
X139807911Y-78990000D01*
X139627271Y-79025932D01*
X139457111Y-79096414D01*
X139303972Y-79198738D01*
X139173738Y-79328972D01*
X139071414Y-79482111D01*
X139000932Y-79652271D01*
X138965000Y-79832911D01*
X137074119Y-79832911D01*
X137075718Y-78307911D01*
X155340000Y-78307911D01*
X155340000Y-78492089D01*
X155375932Y-78672729D01*
X155446414Y-78842889D01*
X155548738Y-78996028D01*
X155678972Y-79126262D01*
X155832111Y-79228586D01*
X156002271Y-79299068D01*
X156182911Y-79335000D01*
X156367089Y-79335000D01*
X156547729Y-79299068D01*
X156717889Y-79228586D01*
X156871028Y-79126262D01*
X157001262Y-78996028D01*
X157103586Y-78842889D01*
X157174068Y-78672729D01*
X157210000Y-78492089D01*
X157210000Y-78307911D01*
X157200055Y-78257911D01*
X159390000Y-78257911D01*
X159390000Y-78442089D01*
X159425932Y-78622729D01*
X159496414Y-78792889D01*
X159598738Y-78946028D01*
X159728972Y-79076262D01*
X159882111Y-79178586D01*
X160052271Y-79249068D01*
X160232911Y-79285000D01*
X160417089Y-79285000D01*
X160597729Y-79249068D01*
X160767889Y-79178586D01*
X160921028Y-79076262D01*
X161051262Y-78946028D01*
X161153586Y-78792889D01*
X161224068Y-78622729D01*
X161260000Y-78442089D01*
X161260000Y-78257911D01*
X161224068Y-78077271D01*
X161153586Y-77907111D01*
X161051262Y-77753972D01*
X160921028Y-77623738D01*
X160767889Y-77521414D01*
X160597729Y-77450932D01*
X160417089Y-77415000D01*
X160232911Y-77415000D01*
X160052271Y-77450932D01*
X159882111Y-77521414D01*
X159728972Y-77623738D01*
X159598738Y-77753972D01*
X159496414Y-77907111D01*
X159425932Y-78077271D01*
X159390000Y-78257911D01*
X157200055Y-78257911D01*
X157174068Y-78127271D01*
X157103586Y-77957111D01*
X157001262Y-77803972D01*
X156871028Y-77673738D01*
X156717889Y-77571414D01*
X156547729Y-77500932D01*
X156367089Y-77465000D01*
X156182911Y-77465000D01*
X156002271Y-77500932D01*
X155832111Y-77571414D01*
X155678972Y-77673738D01*
X155548738Y-77803972D01*
X155446414Y-77957111D01*
X155375932Y-78127271D01*
X155340000Y-78307911D01*
X137075718Y-78307911D01*
X137077814Y-76310529D01*
X143183096Y-76310529D01*
X143183096Y-76494707D01*
X143219028Y-76675347D01*
X143289510Y-76845507D01*
X143391834Y-76998646D01*
X143522068Y-77128880D01*
X143675207Y-77231204D01*
X143845367Y-77301686D01*
X144026007Y-77337618D01*
X144210185Y-77337618D01*
X144390825Y-77301686D01*
X144560985Y-77231204D01*
X144714124Y-77128880D01*
X144722857Y-77120147D01*
X144728972Y-77126262D01*
X144882111Y-77228586D01*
X145052271Y-77299068D01*
X145232911Y-77335000D01*
X145417089Y-77335000D01*
X145597729Y-77299068D01*
X145767889Y-77228586D01*
X145921028Y-77126262D01*
X146051262Y-76996028D01*
X146153586Y-76842889D01*
X146224068Y-76672729D01*
X146260000Y-76492089D01*
X146260000Y-76307911D01*
X146224068Y-76127271D01*
X146153586Y-75957111D01*
X146068586Y-75829898D01*
X147231201Y-75829898D01*
X147231201Y-76014076D01*
X147267133Y-76194716D01*
X147337615Y-76364876D01*
X147439939Y-76518015D01*
X147570173Y-76648249D01*
X147723312Y-76750573D01*
X147893472Y-76821055D01*
X148074112Y-76856987D01*
X148258290Y-76856987D01*
X148373980Y-76833975D01*
X148398738Y-76871028D01*
X148528972Y-77001262D01*
X148682111Y-77103586D01*
X148852271Y-77174068D01*
X149032911Y-77210000D01*
X149217089Y-77210000D01*
X149397729Y-77174068D01*
X149567889Y-77103586D01*
X149721028Y-77001262D01*
X149754884Y-76967406D01*
X149820795Y-77066049D01*
X149951029Y-77196283D01*
X150104168Y-77298607D01*
X150274328Y-77369089D01*
X150454968Y-77405021D01*
X150639146Y-77405021D01*
X150819786Y-77369089D01*
X150989946Y-77298607D01*
X151143085Y-77196283D01*
X151273319Y-77066049D01*
X151375643Y-76912910D01*
X151446125Y-76742750D01*
X151453054Y-76707911D01*
X156365000Y-76707911D01*
X156365000Y-76892089D01*
X156400932Y-77072729D01*
X156471414Y-77242889D01*
X156573738Y-77396028D01*
X156703972Y-77526262D01*
X156857111Y-77628586D01*
X157027271Y-77699068D01*
X157207911Y-77735000D01*
X157392089Y-77735000D01*
X157572729Y-77699068D01*
X157742889Y-77628586D01*
X157896028Y-77526262D01*
X158026262Y-77396028D01*
X158128586Y-77242889D01*
X158199068Y-77072729D01*
X158235000Y-76892089D01*
X158235000Y-76707911D01*
X158199068Y-76527271D01*
X158128586Y-76357111D01*
X158026262Y-76203972D01*
X157896028Y-76073738D01*
X157742889Y-75971414D01*
X157572729Y-75900932D01*
X157392089Y-75865000D01*
X157207911Y-75865000D01*
X157027271Y-75900932D01*
X156857111Y-75971414D01*
X156703972Y-76073738D01*
X156573738Y-76203972D01*
X156471414Y-76357111D01*
X156400932Y-76527271D01*
X156365000Y-76707911D01*
X151453054Y-76707911D01*
X151482057Y-76562110D01*
X151482057Y-76377932D01*
X151446125Y-76197292D01*
X151375643Y-76027132D01*
X151273319Y-75873993D01*
X151143085Y-75743759D01*
X150989946Y-75641435D01*
X150819786Y-75570953D01*
X150639146Y-75535021D01*
X150454968Y-75535021D01*
X150274328Y-75570953D01*
X150104168Y-75641435D01*
X149951029Y-75743759D01*
X149917173Y-75777615D01*
X149851262Y-75678972D01*
X149721028Y-75548738D01*
X149567889Y-75446414D01*
X149397729Y-75375932D01*
X149217089Y-75340000D01*
X149032911Y-75340000D01*
X148917221Y-75363012D01*
X148892463Y-75325959D01*
X148762229Y-75195725D01*
X148609090Y-75093401D01*
X148438930Y-75022919D01*
X148258290Y-74986987D01*
X148074112Y-74986987D01*
X147893472Y-75022919D01*
X147723312Y-75093401D01*
X147570173Y-75195725D01*
X147439939Y-75325959D01*
X147337615Y-75479098D01*
X147267133Y-75649258D01*
X147231201Y-75829898D01*
X146068586Y-75829898D01*
X146051262Y-75803972D01*
X145921028Y-75673738D01*
X145767889Y-75571414D01*
X145597729Y-75500932D01*
X145417089Y-75465000D01*
X145232911Y-75465000D01*
X145231493Y-75465282D01*
X145199068Y-75302271D01*
X145128586Y-75132111D01*
X145026262Y-74978972D01*
X144896028Y-74848738D01*
X144742889Y-74746414D01*
X144572729Y-74675932D01*
X144392089Y-74640000D01*
X144207911Y-74640000D01*
X144027271Y-74675932D01*
X143857111Y-74746414D01*
X143703972Y-74848738D01*
X143573738Y-74978972D01*
X143471414Y-75132111D01*
X143400932Y-75302271D01*
X143365000Y-75482911D01*
X143365000Y-75667089D01*
X143392597Y-75805827D01*
X143391834Y-75806590D01*
X143289510Y-75959729D01*
X143219028Y-76129889D01*
X143183096Y-76310529D01*
X137077814Y-76310529D01*
X137080439Y-73807911D01*
X153065000Y-73807911D01*
X153065000Y-73992089D01*
X153100932Y-74172729D01*
X153171414Y-74342889D01*
X153273738Y-74496028D01*
X153403972Y-74626262D01*
X153557111Y-74728586D01*
X153727271Y-74799068D01*
X153907911Y-74835000D01*
X154092089Y-74835000D01*
X154272729Y-74799068D01*
X154442889Y-74728586D01*
X154596028Y-74626262D01*
X154726262Y-74496028D01*
X154828586Y-74342889D01*
X154899068Y-74172729D01*
X154935000Y-73992089D01*
X154935000Y-73807911D01*
X154899068Y-73627271D01*
X154828586Y-73457111D01*
X154726262Y-73303972D01*
X154596028Y-73173738D01*
X154442889Y-73071414D01*
X154272729Y-73000932D01*
X154092089Y-72965000D01*
X153907911Y-72965000D01*
X153727271Y-73000932D01*
X153557111Y-73071414D01*
X153403972Y-73173738D01*
X153273738Y-73303972D01*
X153171414Y-73457111D01*
X153100932Y-73627271D01*
X153065000Y-73807911D01*
X137080439Y-73807911D01*
X137082000Y-72320133D01*
X137080054Y-72297854D01*
X137073331Y-72273883D01*
X137062060Y-72251683D01*
X137046675Y-72232110D01*
X137027767Y-72215914D01*
X137006063Y-72203717D01*
X136982396Y-72195990D01*
X136957676Y-72193028D01*
X131209692Y-72071876D01*
X131209493Y-71182911D01*
X136840000Y-71182911D01*
X136840000Y-71367089D01*
X136875932Y-71547729D01*
X136946414Y-71717889D01*
X137048738Y-71871028D01*
X137178972Y-72001262D01*
X137332111Y-72103586D01*
X137502271Y-72174068D01*
X137682911Y-72210000D01*
X137867089Y-72210000D01*
X138047729Y-72174068D01*
X138217889Y-72103586D01*
X138323661Y-72032911D01*
X139540000Y-72032911D01*
X139540000Y-72217089D01*
X139575932Y-72397729D01*
X139646414Y-72567889D01*
X139748738Y-72721028D01*
X139878972Y-72851262D01*
X140032111Y-72953586D01*
X140202271Y-73024068D01*
X140382911Y-73060000D01*
X140567089Y-73060000D01*
X140747729Y-73024068D01*
X140917889Y-72953586D01*
X141071028Y-72851262D01*
X141201262Y-72721028D01*
X141303586Y-72567889D01*
X141349140Y-72457911D01*
X147115000Y-72457911D01*
X147115000Y-72642089D01*
X147150932Y-72822729D01*
X147221414Y-72992889D01*
X147323738Y-73146028D01*
X147453972Y-73276262D01*
X147607111Y-73378586D01*
X147777271Y-73449068D01*
X147957911Y-73485000D01*
X148142089Y-73485000D01*
X148322729Y-73449068D01*
X148492889Y-73378586D01*
X148646028Y-73276262D01*
X148776262Y-73146028D01*
X148878586Y-72992889D01*
X148949068Y-72822729D01*
X148985000Y-72642089D01*
X148985000Y-72457911D01*
X148949068Y-72277271D01*
X148878586Y-72107111D01*
X148776262Y-71953972D01*
X148646028Y-71823738D01*
X148492889Y-71721414D01*
X148322729Y-71650932D01*
X148142089Y-71615000D01*
X147957911Y-71615000D01*
X147777271Y-71650932D01*
X147607111Y-71721414D01*
X147453972Y-71823738D01*
X147323738Y-71953972D01*
X147221414Y-72107111D01*
X147150932Y-72277271D01*
X147115000Y-72457911D01*
X141349140Y-72457911D01*
X141374068Y-72397729D01*
X141410000Y-72217089D01*
X141410000Y-72032911D01*
X141374068Y-71852271D01*
X141303586Y-71682111D01*
X141201262Y-71528972D01*
X141071028Y-71398738D01*
X140917889Y-71296414D01*
X140747729Y-71225932D01*
X140567089Y-71190000D01*
X140382911Y-71190000D01*
X140202271Y-71225932D01*
X140032111Y-71296414D01*
X139878972Y-71398738D01*
X139748738Y-71528972D01*
X139646414Y-71682111D01*
X139575932Y-71852271D01*
X139540000Y-72032911D01*
X138323661Y-72032911D01*
X138371028Y-72001262D01*
X138501262Y-71871028D01*
X138603586Y-71717889D01*
X138674068Y-71547729D01*
X138710000Y-71367089D01*
X138710000Y-71182911D01*
X138674068Y-71002271D01*
X138603586Y-70832111D01*
X138501262Y-70678972D01*
X138371028Y-70548738D01*
X138217889Y-70446414D01*
X138047729Y-70375932D01*
X137867089Y-70340000D01*
X137682911Y-70340000D01*
X137502271Y-70375932D01*
X137332111Y-70446414D01*
X137178972Y-70548738D01*
X137048738Y-70678972D01*
X136946414Y-70832111D01*
X136875932Y-71002271D01*
X136840000Y-71182911D01*
X131209493Y-71182911D01*
X131209005Y-69007911D01*
X140365000Y-69007911D01*
X140365000Y-69192089D01*
X140400932Y-69372729D01*
X140471414Y-69542889D01*
X140573738Y-69696028D01*
X140703972Y-69826262D01*
X140857111Y-69928586D01*
X141027271Y-69999068D01*
X141207911Y-70035000D01*
X141392089Y-70035000D01*
X141572729Y-69999068D01*
X141742889Y-69928586D01*
X141896028Y-69826262D01*
X142026262Y-69696028D01*
X142101837Y-69582921D01*
X142190000Y-69582921D01*
X142190000Y-69767099D01*
X142225932Y-69947739D01*
X142296414Y-70117899D01*
X142398738Y-70271038D01*
X142528972Y-70401272D01*
X142682111Y-70503596D01*
X142852271Y-70574078D01*
X143032911Y-70610010D01*
X143217089Y-70610010D01*
X143397729Y-70574078D01*
X143567889Y-70503596D01*
X143721028Y-70401272D01*
X143851262Y-70271038D01*
X143940164Y-70137987D01*
X144027271Y-70174068D01*
X144207911Y-70210000D01*
X144392089Y-70210000D01*
X144572729Y-70174068D01*
X144640010Y-70146200D01*
X144640010Y-70273923D01*
X144675942Y-70454563D01*
X144746424Y-70624723D01*
X144848748Y-70777862D01*
X144978982Y-70908096D01*
X145132121Y-71010420D01*
X145302281Y-71080902D01*
X145482921Y-71116834D01*
X145667099Y-71116834D01*
X145711957Y-71107911D01*
X149640000Y-71107911D01*
X149640000Y-71292089D01*
X149675932Y-71472729D01*
X149746414Y-71642889D01*
X149848738Y-71796028D01*
X149978972Y-71926262D01*
X150132111Y-72028586D01*
X150302271Y-72099068D01*
X150482911Y-72135000D01*
X150667089Y-72135000D01*
X150847729Y-72099068D01*
X151017889Y-72028586D01*
X151171028Y-71926262D01*
X151301262Y-71796028D01*
X151403586Y-71642889D01*
X151474068Y-71472729D01*
X151510000Y-71292089D01*
X151510000Y-71107911D01*
X151474068Y-70927271D01*
X151403586Y-70757111D01*
X151301262Y-70603972D01*
X151171028Y-70473738D01*
X151017889Y-70371414D01*
X150847729Y-70300932D01*
X150667089Y-70265000D01*
X150482911Y-70265000D01*
X150302271Y-70300932D01*
X150132111Y-70371414D01*
X149978972Y-70473738D01*
X149848738Y-70603972D01*
X149746414Y-70757111D01*
X149675932Y-70927271D01*
X149640000Y-71107911D01*
X145711957Y-71107911D01*
X145847739Y-71080902D01*
X146017899Y-71010420D01*
X146171038Y-70908096D01*
X146301272Y-70777862D01*
X146403596Y-70624723D01*
X146465006Y-70476466D01*
X146507911Y-70485000D01*
X146692089Y-70485000D01*
X146872729Y-70449068D01*
X147042889Y-70378586D01*
X147196028Y-70276262D01*
X147326262Y-70146028D01*
X147428586Y-69992889D01*
X147499068Y-69822729D01*
X147535000Y-69642089D01*
X147535000Y-69567136D01*
X151959597Y-69567136D01*
X151959597Y-69751314D01*
X151995529Y-69931954D01*
X152066011Y-70102114D01*
X152168335Y-70255253D01*
X152298569Y-70385487D01*
X152451708Y-70487811D01*
X152621868Y-70558293D01*
X152802508Y-70594225D01*
X152986686Y-70594225D01*
X153167326Y-70558293D01*
X153337486Y-70487811D01*
X153490625Y-70385487D01*
X153620859Y-70255253D01*
X153669196Y-70182911D01*
X156915000Y-70182911D01*
X156915000Y-70367089D01*
X156950932Y-70547729D01*
X157021414Y-70717889D01*
X157123738Y-70871028D01*
X157253972Y-71001262D01*
X157407111Y-71103586D01*
X157577271Y-71174068D01*
X157757911Y-71210000D01*
X157942089Y-71210000D01*
X158122729Y-71174068D01*
X158292889Y-71103586D01*
X158446028Y-71001262D01*
X158576262Y-70871028D01*
X158678586Y-70717889D01*
X158749068Y-70547729D01*
X158785000Y-70367089D01*
X158785000Y-70182911D01*
X158765109Y-70082911D01*
X159840000Y-70082911D01*
X159840000Y-70267089D01*
X159875932Y-70447729D01*
X159946414Y-70617889D01*
X160048738Y-70771028D01*
X160178972Y-70901262D01*
X160332111Y-71003586D01*
X160502271Y-71074068D01*
X160682911Y-71110000D01*
X160867089Y-71110000D01*
X161047729Y-71074068D01*
X161217889Y-71003586D01*
X161371028Y-70901262D01*
X161501262Y-70771028D01*
X161603586Y-70617889D01*
X161674068Y-70447729D01*
X161710000Y-70267089D01*
X161710000Y-70082911D01*
X161674068Y-69902271D01*
X161603586Y-69732111D01*
X161501262Y-69578972D01*
X161371028Y-69448738D01*
X161217889Y-69346414D01*
X161047729Y-69275932D01*
X160867089Y-69240000D01*
X160682911Y-69240000D01*
X160502271Y-69275932D01*
X160332111Y-69346414D01*
X160178972Y-69448738D01*
X160048738Y-69578972D01*
X159946414Y-69732111D01*
X159875932Y-69902271D01*
X159840000Y-70082911D01*
X158765109Y-70082911D01*
X158749068Y-70002271D01*
X158678586Y-69832111D01*
X158576262Y-69678972D01*
X158446028Y-69548738D01*
X158292889Y-69446414D01*
X158122729Y-69375932D01*
X157942089Y-69340000D01*
X157757911Y-69340000D01*
X157577271Y-69375932D01*
X157407111Y-69446414D01*
X157253972Y-69548738D01*
X157123738Y-69678972D01*
X157021414Y-69832111D01*
X156950932Y-70002271D01*
X156915000Y-70182911D01*
X153669196Y-70182911D01*
X153723183Y-70102114D01*
X153793665Y-69931954D01*
X153829597Y-69751314D01*
X153829597Y-69567136D01*
X153793665Y-69386496D01*
X153723183Y-69216336D01*
X153620859Y-69063197D01*
X153490625Y-68932963D01*
X153337486Y-68830639D01*
X153167326Y-68760157D01*
X152986686Y-68724225D01*
X152802508Y-68724225D01*
X152621868Y-68760157D01*
X152451708Y-68830639D01*
X152298569Y-68932963D01*
X152168335Y-69063197D01*
X152066011Y-69216336D01*
X151995529Y-69386496D01*
X151959597Y-69567136D01*
X147535000Y-69567136D01*
X147535000Y-69457911D01*
X147499068Y-69277271D01*
X147428586Y-69107111D01*
X147326262Y-68953972D01*
X147196028Y-68823738D01*
X147042889Y-68721414D01*
X146872729Y-68650932D01*
X146692089Y-68615000D01*
X146507911Y-68615000D01*
X146327271Y-68650932D01*
X146157111Y-68721414D01*
X146003972Y-68823738D01*
X145873738Y-68953972D01*
X145771414Y-69107111D01*
X145710004Y-69255368D01*
X145667099Y-69246834D01*
X145482921Y-69246834D01*
X145302281Y-69282766D01*
X145235000Y-69310634D01*
X145235000Y-69182911D01*
X145199068Y-69002271D01*
X145128586Y-68832111D01*
X145026262Y-68678972D01*
X144896028Y-68548738D01*
X144742889Y-68446414D01*
X144572729Y-68375932D01*
X144392089Y-68340000D01*
X144207911Y-68340000D01*
X144027271Y-68375932D01*
X143857111Y-68446414D01*
X143703972Y-68548738D01*
X143573738Y-68678972D01*
X143484836Y-68812023D01*
X143397729Y-68775942D01*
X143217089Y-68740010D01*
X143032911Y-68740010D01*
X142852271Y-68775942D01*
X142682111Y-68846424D01*
X142528972Y-68948748D01*
X142398738Y-69078982D01*
X142296414Y-69232121D01*
X142225932Y-69402281D01*
X142190000Y-69582921D01*
X142101837Y-69582921D01*
X142128586Y-69542889D01*
X142199068Y-69372729D01*
X142235000Y-69192089D01*
X142235000Y-69007911D01*
X142199068Y-68827271D01*
X142128586Y-68657111D01*
X142026262Y-68503972D01*
X141896028Y-68373738D01*
X141742889Y-68271414D01*
X141572729Y-68200932D01*
X141392089Y-68165000D01*
X141207911Y-68165000D01*
X141027271Y-68200932D01*
X140857111Y-68271414D01*
X140703972Y-68373738D01*
X140573738Y-68503972D01*
X140471414Y-68657111D01*
X140400932Y-68827271D01*
X140365000Y-69007911D01*
X131209005Y-69007911D01*
X131208257Y-65682911D01*
X136640000Y-65682911D01*
X136640000Y-65867089D01*
X136675932Y-66047729D01*
X136746414Y-66217889D01*
X136848738Y-66371028D01*
X136978972Y-66501262D01*
X137029499Y-66535023D01*
X137015000Y-66607911D01*
X137015000Y-66792089D01*
X137050932Y-66972729D01*
X137121414Y-67142889D01*
X137223738Y-67296028D01*
X137353972Y-67426262D01*
X137507111Y-67528586D01*
X137677271Y-67599068D01*
X137857911Y-67635000D01*
X138042089Y-67635000D01*
X138222729Y-67599068D01*
X138392889Y-67528586D01*
X138546028Y-67426262D01*
X138676262Y-67296028D01*
X138718435Y-67232911D01*
X149565000Y-67232911D01*
X149565000Y-67417089D01*
X149600932Y-67597729D01*
X149671414Y-67767889D01*
X149773738Y-67921028D01*
X149903972Y-68051262D01*
X150057111Y-68153586D01*
X150227271Y-68224068D01*
X150407911Y-68260000D01*
X150592089Y-68260000D01*
X150772729Y-68224068D01*
X150942889Y-68153586D01*
X151096028Y-68051262D01*
X151226262Y-67921028D01*
X151328586Y-67767889D01*
X151399068Y-67597729D01*
X151435000Y-67417089D01*
X151435000Y-67232911D01*
X151399068Y-67052271D01*
X151328586Y-66882111D01*
X151228894Y-66732911D01*
X151740000Y-66732911D01*
X151740000Y-66917089D01*
X151775932Y-67097729D01*
X151846414Y-67267889D01*
X151948738Y-67421028D01*
X152078972Y-67551262D01*
X152232111Y-67653586D01*
X152402271Y-67724068D01*
X152582911Y-67760000D01*
X152767089Y-67760000D01*
X152947729Y-67724068D01*
X153117889Y-67653586D01*
X153271028Y-67551262D01*
X153401262Y-67421028D01*
X153503586Y-67267889D01*
X153574068Y-67097729D01*
X153610000Y-66917089D01*
X153610000Y-66732911D01*
X153574068Y-66552271D01*
X153514273Y-66407911D01*
X154240000Y-66407911D01*
X154240000Y-66592089D01*
X154275932Y-66772729D01*
X154346414Y-66942889D01*
X154448738Y-67096028D01*
X154578972Y-67226262D01*
X154732111Y-67328586D01*
X154902271Y-67399068D01*
X155082911Y-67435000D01*
X155267089Y-67435000D01*
X155447729Y-67399068D01*
X155617889Y-67328586D01*
X155771028Y-67226262D01*
X155901262Y-67096028D01*
X156003586Y-66942889D01*
X156074068Y-66772729D01*
X156110000Y-66592089D01*
X156110000Y-66586546D01*
X156172729Y-66574068D01*
X156342889Y-66503586D01*
X156496028Y-66401262D01*
X156626262Y-66271028D01*
X156728586Y-66117889D01*
X156799068Y-65947729D01*
X156835000Y-65767089D01*
X156835000Y-65582911D01*
X156799068Y-65402271D01*
X156728586Y-65232111D01*
X156626262Y-65078972D01*
X156496028Y-64948738D01*
X156342889Y-64846414D01*
X156172729Y-64775932D01*
X155992089Y-64740000D01*
X155807911Y-64740000D01*
X155627271Y-64775932D01*
X155457111Y-64846414D01*
X155303972Y-64948738D01*
X155173738Y-65078972D01*
X155071414Y-65232111D01*
X155000932Y-65402271D01*
X154965000Y-65582911D01*
X154965000Y-65588454D01*
X154902271Y-65600932D01*
X154732111Y-65671414D01*
X154578972Y-65773738D01*
X154448738Y-65903972D01*
X154346414Y-66057111D01*
X154275932Y-66227271D01*
X154240000Y-66407911D01*
X153514273Y-66407911D01*
X153503586Y-66382111D01*
X153401262Y-66228972D01*
X153271028Y-66098738D01*
X153117889Y-65996414D01*
X152947729Y-65925932D01*
X152767089Y-65890000D01*
X152582911Y-65890000D01*
X152402271Y-65925932D01*
X152232111Y-65996414D01*
X152078972Y-66098738D01*
X151948738Y-66228972D01*
X151846414Y-66382111D01*
X151775932Y-66552271D01*
X151740000Y-66732911D01*
X151228894Y-66732911D01*
X151226262Y-66728972D01*
X151096028Y-66598738D01*
X150942889Y-66496414D01*
X150785910Y-66431392D01*
X150822729Y-66424068D01*
X150992889Y-66353586D01*
X151146028Y-66251262D01*
X151276262Y-66121028D01*
X151378586Y-65967889D01*
X151449068Y-65797729D01*
X151485000Y-65617089D01*
X151485000Y-65432911D01*
X151449068Y-65252271D01*
X151378586Y-65082111D01*
X151276262Y-64928972D01*
X151146028Y-64798738D01*
X150992889Y-64696414D01*
X150822729Y-64625932D01*
X150642089Y-64590000D01*
X150457911Y-64590000D01*
X150277271Y-64625932D01*
X150107111Y-64696414D01*
X149953972Y-64798738D01*
X149823738Y-64928972D01*
X149721414Y-65082111D01*
X149650932Y-65252271D01*
X149615000Y-65432911D01*
X149615000Y-65617089D01*
X149650932Y-65797729D01*
X149721414Y-65967889D01*
X149823738Y-66121028D01*
X149953972Y-66251262D01*
X150107111Y-66353586D01*
X150264090Y-66418608D01*
X150227271Y-66425932D01*
X150057111Y-66496414D01*
X149903972Y-66598738D01*
X149773738Y-66728972D01*
X149671414Y-66882111D01*
X149600932Y-67052271D01*
X149565000Y-67232911D01*
X138718435Y-67232911D01*
X138778586Y-67142889D01*
X138849068Y-66972729D01*
X138885000Y-66792089D01*
X138885000Y-66607911D01*
X138849068Y-66427271D01*
X138778586Y-66257111D01*
X138676262Y-66103972D01*
X138546028Y-65973738D01*
X138522342Y-65957911D01*
X139265000Y-65957911D01*
X139265000Y-66142089D01*
X139300932Y-66322729D01*
X139371414Y-66492889D01*
X139473738Y-66646028D01*
X139603972Y-66776262D01*
X139757111Y-66878586D01*
X139927271Y-66949068D01*
X140107911Y-66985000D01*
X140292089Y-66985000D01*
X140472729Y-66949068D01*
X140642889Y-66878586D01*
X140796028Y-66776262D01*
X140926262Y-66646028D01*
X141028586Y-66492889D01*
X141099068Y-66322729D01*
X141135000Y-66142089D01*
X141135000Y-65957911D01*
X141099068Y-65777271D01*
X141028586Y-65607111D01*
X140926262Y-65453972D01*
X140796028Y-65323738D01*
X140642889Y-65221414D01*
X140472729Y-65150932D01*
X140292089Y-65115000D01*
X140107911Y-65115000D01*
X139927271Y-65150932D01*
X139757111Y-65221414D01*
X139603972Y-65323738D01*
X139473738Y-65453972D01*
X139371414Y-65607111D01*
X139300932Y-65777271D01*
X139265000Y-65957911D01*
X138522342Y-65957911D01*
X138495501Y-65939977D01*
X138510000Y-65867089D01*
X138510000Y-65682911D01*
X138474068Y-65502271D01*
X138403586Y-65332111D01*
X138301262Y-65178972D01*
X138171028Y-65048738D01*
X138017889Y-64946414D01*
X137847729Y-64875932D01*
X137667089Y-64840000D01*
X137482911Y-64840000D01*
X137302271Y-64875932D01*
X137132111Y-64946414D01*
X136978972Y-65048738D01*
X136848738Y-65178972D01*
X136746414Y-65332111D01*
X136675932Y-65502271D01*
X136640000Y-65682911D01*
X131208257Y-65682911D01*
X131207650Y-62982911D01*
X136615000Y-62982911D01*
X136615000Y-63167089D01*
X136650932Y-63347729D01*
X136721414Y-63517889D01*
X136823738Y-63671028D01*
X136953972Y-63801262D01*
X137107111Y-63903586D01*
X137277271Y-63974068D01*
X137457911Y-64010000D01*
X137642089Y-64010000D01*
X137822729Y-63974068D01*
X137992889Y-63903586D01*
X138146028Y-63801262D01*
X138276262Y-63671028D01*
X138378586Y-63517889D01*
X138432014Y-63388901D01*
X138577271Y-63449068D01*
X138757911Y-63485000D01*
X138942089Y-63485000D01*
X139122729Y-63449068D01*
X139292889Y-63378586D01*
X139446028Y-63276262D01*
X139504820Y-63217470D01*
X139546414Y-63317889D01*
X139648738Y-63471028D01*
X139778972Y-63601262D01*
X139932111Y-63703586D01*
X140102271Y-63774068D01*
X140282911Y-63810000D01*
X140467089Y-63810000D01*
X140647729Y-63774068D01*
X140730628Y-63739730D01*
X140775123Y-63784225D01*
X140928262Y-63886549D01*
X141098422Y-63957031D01*
X141279062Y-63992963D01*
X141463240Y-63992963D01*
X141643880Y-63957031D01*
X141814040Y-63886549D01*
X141967179Y-63784225D01*
X142097413Y-63653991D01*
X142199737Y-63500852D01*
X142270219Y-63330692D01*
X142306151Y-63150052D01*
X142306151Y-62965874D01*
X142299595Y-62932911D01*
X142740000Y-62932911D01*
X142740000Y-63117089D01*
X142775932Y-63297729D01*
X142846414Y-63467889D01*
X142948738Y-63621028D01*
X143078972Y-63751262D01*
X143232111Y-63853586D01*
X143402271Y-63924068D01*
X143582911Y-63960000D01*
X143767089Y-63960000D01*
X143947729Y-63924068D01*
X144117889Y-63853586D01*
X144271028Y-63751262D01*
X144401262Y-63621028D01*
X144411117Y-63606279D01*
X144463368Y-63606279D01*
X144644008Y-63570347D01*
X144814168Y-63499865D01*
X144967307Y-63397541D01*
X145076191Y-63288657D01*
X150220656Y-63288657D01*
X150220656Y-63472835D01*
X150256588Y-63653475D01*
X150327070Y-63823635D01*
X150429394Y-63976774D01*
X150559628Y-64107008D01*
X150712767Y-64209332D01*
X150882927Y-64279814D01*
X151063567Y-64315746D01*
X151247745Y-64315746D01*
X151428385Y-64279814D01*
X151598545Y-64209332D01*
X151751684Y-64107008D01*
X151881918Y-63976774D01*
X151984242Y-63823635D01*
X152043362Y-63680907D01*
X152186090Y-63621787D01*
X152339229Y-63519463D01*
X152469463Y-63389229D01*
X152571787Y-63236090D01*
X152642269Y-63065930D01*
X152663755Y-62957911D01*
X153665000Y-62957911D01*
X153665000Y-63142089D01*
X153700932Y-63322729D01*
X153771414Y-63492889D01*
X153873738Y-63646028D01*
X154003972Y-63776262D01*
X154157111Y-63878586D01*
X154327271Y-63949068D01*
X154507911Y-63985000D01*
X154692089Y-63985000D01*
X154872729Y-63949068D01*
X155042889Y-63878586D01*
X155196028Y-63776262D01*
X155326262Y-63646028D01*
X155428586Y-63492889D01*
X155499068Y-63322729D01*
X155535000Y-63142089D01*
X155535000Y-62957911D01*
X155499068Y-62777271D01*
X155428586Y-62607111D01*
X155326262Y-62453972D01*
X155196028Y-62323738D01*
X155042889Y-62221414D01*
X154872729Y-62150932D01*
X154692089Y-62115000D01*
X154507911Y-62115000D01*
X154327271Y-62150932D01*
X154157111Y-62221414D01*
X154003972Y-62323738D01*
X153873738Y-62453972D01*
X153771414Y-62607111D01*
X153700932Y-62777271D01*
X153665000Y-62957911D01*
X152663755Y-62957911D01*
X152678201Y-62885290D01*
X152678201Y-62701112D01*
X152642269Y-62520472D01*
X152571787Y-62350312D01*
X152469463Y-62197173D01*
X152339229Y-62066939D01*
X152186090Y-61964615D01*
X152015930Y-61894133D01*
X151835290Y-61858201D01*
X151651112Y-61858201D01*
X151470472Y-61894133D01*
X151300312Y-61964615D01*
X151147173Y-62066939D01*
X151016939Y-62197173D01*
X150914615Y-62350312D01*
X150855495Y-62493040D01*
X150712767Y-62552160D01*
X150559628Y-62654484D01*
X150429394Y-62784718D01*
X150327070Y-62937857D01*
X150256588Y-63108017D01*
X150220656Y-63288657D01*
X145076191Y-63288657D01*
X145097541Y-63267307D01*
X145199865Y-63114168D01*
X145270347Y-62944008D01*
X145306279Y-62763368D01*
X145306279Y-62579190D01*
X145270347Y-62398550D01*
X145199865Y-62228390D01*
X145097541Y-62075251D01*
X144967307Y-61945017D01*
X144814168Y-61842693D01*
X144644008Y-61772211D01*
X144463368Y-61736279D01*
X144279190Y-61736279D01*
X144098550Y-61772211D01*
X143928390Y-61842693D01*
X143775251Y-61945017D01*
X143645017Y-62075251D01*
X143635162Y-62090000D01*
X143582911Y-62090000D01*
X143402271Y-62125932D01*
X143232111Y-62196414D01*
X143078972Y-62298738D01*
X142948738Y-62428972D01*
X142846414Y-62582111D01*
X142775932Y-62752271D01*
X142740000Y-62932911D01*
X142299595Y-62932911D01*
X142270219Y-62785234D01*
X142199737Y-62615074D01*
X142097413Y-62461935D01*
X141967179Y-62331701D01*
X141814040Y-62229377D01*
X141643880Y-62158895D01*
X141463240Y-62122963D01*
X141279062Y-62122963D01*
X141098422Y-62158895D01*
X141015523Y-62193233D01*
X140971028Y-62148738D01*
X140817889Y-62046414D01*
X140647729Y-61975932D01*
X140467089Y-61940000D01*
X140282911Y-61940000D01*
X140102271Y-61975932D01*
X139932111Y-62046414D01*
X139778972Y-62148738D01*
X139720180Y-62207530D01*
X139678586Y-62107111D01*
X139576262Y-61953972D01*
X139446028Y-61823738D01*
X139292889Y-61721414D01*
X139122729Y-61650932D01*
X138942089Y-61615000D01*
X138757911Y-61615000D01*
X138577271Y-61650932D01*
X138407111Y-61721414D01*
X138253972Y-61823738D01*
X138123738Y-61953972D01*
X138021414Y-62107111D01*
X137967986Y-62236099D01*
X137822729Y-62175932D01*
X137642089Y-62140000D01*
X137457911Y-62140000D01*
X137277271Y-62175932D01*
X137107111Y-62246414D01*
X136953972Y-62348738D01*
X136823738Y-62478972D01*
X136721414Y-62632111D01*
X136650932Y-62802271D01*
X136615000Y-62982911D01*
X131207650Y-62982911D01*
X131206605Y-58334427D01*
X131250893Y-58378715D01*
X131366001Y-58263607D01*
X131491914Y-58553577D01*
X131824126Y-58719433D01*
X132182312Y-58817290D01*
X132552706Y-58843389D01*
X132921075Y-58796725D01*
X133186983Y-58707911D01*
X135390000Y-58707911D01*
X135390000Y-58892089D01*
X135425932Y-59072729D01*
X135496414Y-59242889D01*
X135598738Y-59396028D01*
X135728972Y-59526262D01*
X135882111Y-59628586D01*
X136052271Y-59699068D01*
X136232911Y-59735000D01*
X136417089Y-59735000D01*
X136597729Y-59699068D01*
X136767889Y-59628586D01*
X136921028Y-59526262D01*
X137051262Y-59396028D01*
X137153586Y-59242889D01*
X137224068Y-59072729D01*
X137260000Y-58892089D01*
X137260000Y-58707911D01*
X137224068Y-58527271D01*
X137153586Y-58357111D01*
X137051262Y-58203972D01*
X136921028Y-58073738D01*
X136767889Y-57971414D01*
X136597729Y-57900932D01*
X136417089Y-57865000D01*
X136232911Y-57865000D01*
X136052271Y-57900932D01*
X135882111Y-57971414D01*
X135728972Y-58073738D01*
X135598738Y-58203972D01*
X135496414Y-58357111D01*
X135425932Y-58527271D01*
X135390000Y-58707911D01*
X133186983Y-58707911D01*
X133273262Y-58679094D01*
X133508086Y-58553577D01*
X133634000Y-58263605D01*
X132500000Y-57129605D01*
X132485858Y-57143748D01*
X132306253Y-56964143D01*
X132320395Y-56950000D01*
X132306253Y-56935858D01*
X132485858Y-56756253D01*
X132500000Y-56770395D01*
X132514143Y-56756253D01*
X132693748Y-56935858D01*
X132679605Y-56950000D01*
X133813605Y-58084000D01*
X134103577Y-57958086D01*
X134269433Y-57625874D01*
X134328980Y-57407911D01*
X148840000Y-57407911D01*
X148840000Y-57592089D01*
X148875932Y-57772729D01*
X148946414Y-57942889D01*
X149048738Y-58096028D01*
X149178972Y-58226262D01*
X149332111Y-58328586D01*
X149502271Y-58399068D01*
X149682911Y-58435000D01*
X149867089Y-58435000D01*
X150016071Y-58405365D01*
X149975932Y-58502271D01*
X149940000Y-58682911D01*
X149940000Y-58867089D01*
X149975932Y-59047729D01*
X150045667Y-59216084D01*
X149890891Y-59280194D01*
X149737752Y-59382518D01*
X149607518Y-59512752D01*
X149505194Y-59665891D01*
X149434712Y-59836051D01*
X149398780Y-60016691D01*
X149398780Y-60200869D01*
X149434712Y-60381509D01*
X149505194Y-60551669D01*
X149607518Y-60704808D01*
X149737752Y-60835042D01*
X149890891Y-60937366D01*
X150061051Y-61007848D01*
X150241691Y-61043780D01*
X150425869Y-61043780D01*
X150606509Y-61007848D01*
X150776669Y-60937366D01*
X150929808Y-60835042D01*
X151060042Y-60704808D01*
X151162366Y-60551669D01*
X151232848Y-60381509D01*
X151268780Y-60200869D01*
X151268780Y-60016691D01*
X151232848Y-59836051D01*
X151163113Y-59667696D01*
X151317889Y-59603586D01*
X151471028Y-59501262D01*
X151601262Y-59371028D01*
X151703586Y-59217889D01*
X151774068Y-59047729D01*
X151810000Y-58867089D01*
X151810000Y-58682911D01*
X153665000Y-58682911D01*
X153665000Y-58867089D01*
X153700932Y-59047729D01*
X153771414Y-59217889D01*
X153873738Y-59371028D01*
X154003972Y-59501262D01*
X154157111Y-59603586D01*
X154327271Y-59674068D01*
X154507911Y-59710000D01*
X154692089Y-59710000D01*
X154872729Y-59674068D01*
X155042889Y-59603586D01*
X155196028Y-59501262D01*
X155326262Y-59371028D01*
X155428586Y-59217889D01*
X155499068Y-59047729D01*
X155535000Y-58867089D01*
X155535000Y-58682911D01*
X155499068Y-58502271D01*
X155428586Y-58332111D01*
X155326262Y-58178972D01*
X155196028Y-58048738D01*
X155042889Y-57946414D01*
X154872729Y-57875932D01*
X154692089Y-57840000D01*
X154507911Y-57840000D01*
X154327271Y-57875932D01*
X154157111Y-57946414D01*
X154003972Y-58048738D01*
X153873738Y-58178972D01*
X153771414Y-58332111D01*
X153700932Y-58502271D01*
X153665000Y-58682911D01*
X151810000Y-58682911D01*
X151774068Y-58502271D01*
X151703586Y-58332111D01*
X151601262Y-58178972D01*
X151471028Y-58048738D01*
X151317889Y-57946414D01*
X151147729Y-57875932D01*
X150967089Y-57840000D01*
X150782911Y-57840000D01*
X150633929Y-57869635D01*
X150674068Y-57772729D01*
X150710000Y-57592089D01*
X150710000Y-57407911D01*
X150674068Y-57227271D01*
X150603586Y-57057111D01*
X150501262Y-56903972D01*
X150371028Y-56773738D01*
X150217889Y-56671414D01*
X150047729Y-56600932D01*
X149867089Y-56565000D01*
X149682911Y-56565000D01*
X149502271Y-56600932D01*
X149332111Y-56671414D01*
X149178972Y-56773738D01*
X149048738Y-56903972D01*
X148946414Y-57057111D01*
X148875932Y-57227271D01*
X148840000Y-57407911D01*
X134328980Y-57407911D01*
X134367290Y-57267688D01*
X134393389Y-56897294D01*
X134346725Y-56528925D01*
X134229094Y-56176738D01*
X134103577Y-55941914D01*
X133813607Y-55816001D01*
X133928715Y-55700893D01*
X133868358Y-55640536D01*
X135582624Y-55640504D01*
X135521414Y-55732111D01*
X135450932Y-55902271D01*
X135415000Y-56082911D01*
X135415000Y-56267089D01*
X135450932Y-56447729D01*
X135521414Y-56617889D01*
X135623738Y-56771028D01*
X135753972Y-56901262D01*
X135907111Y-57003586D01*
X136077271Y-57074068D01*
X136257911Y-57110000D01*
X136442089Y-57110000D01*
X136622729Y-57074068D01*
X136792889Y-57003586D01*
X136946028Y-56901262D01*
X137076262Y-56771028D01*
X137178586Y-56617889D01*
X137249068Y-56447729D01*
X137285000Y-56267089D01*
X137285000Y-56082911D01*
X137249068Y-55902271D01*
X137178586Y-55732111D01*
X137117357Y-55640475D01*
X154666830Y-55640147D01*
X154653972Y-55648738D01*
X154523738Y-55778972D01*
X154421414Y-55932111D01*
X154350932Y-56102271D01*
X154315000Y-56282911D01*
X154315000Y-56467089D01*
X154350932Y-56647729D01*
X154421414Y-56817889D01*
X154523738Y-56971028D01*
X154653972Y-57101262D01*
X154807111Y-57203586D01*
X154977271Y-57274068D01*
X155157911Y-57310000D01*
X155342089Y-57310000D01*
X155522729Y-57274068D01*
X155692889Y-57203586D01*
X155846028Y-57101262D01*
X155976262Y-56971028D01*
X156078586Y-56817889D01*
X156149068Y-56647729D01*
X156185000Y-56467089D01*
X156185000Y-56282911D01*
X156149068Y-56102271D01*
X156078586Y-55932111D01*
X155976262Y-55778972D01*
X155846028Y-55648738D01*
X155833137Y-55640125D01*
X159132115Y-55640063D01*
X159071285Y-55700893D01*
G37*
G04 #@! TD.AperFunction*
M02*
