M48
; DRILL file {KiCad 5.1.7-a382d34a88~90~ubuntu20.04.1} date Fri Jan 21 18:15:46 2022
; FORMAT={-:-/ absolute / inch / decimal}
; #@! TF.CreationDate,2022-01-21T18:15:46-06:00
; #@! TF.GenerationSoftware,Kicad,Pcbnew,5.1.7-a382d34a88~90~ubuntu20.04.1
; #@! TF.FileFunction,Plated,1,4,PTH
FMAT,2
INCH
T1C0.0157
T2C0.0197
T3C0.0217
T4C0.0236
T5C0.0591
%
G90
G05
T1
X5.2224Y-4.001
X5.2254Y-4.1339
X5.2313Y-4.3287
X5.2382Y-4.4528
X5.3006Y-4.4281
X5.315Y-4.247
X5.3396Y-4.2657
X5.3583Y-4.3612
X5.3671Y-2.315
X5.3671Y-2.4833
X5.3671Y-2.5876
X5.3681Y-2.2116
X5.4154Y-2.4833
X5.4154Y-3.8199
X5.4163Y-2.5896
X5.4242Y-2.8061
X5.4311Y-2.626
X5.4321Y-3.9331
X5.4409Y-4.2717
X5.4557Y-3.1319
X5.4567Y-3.0108
X5.4567Y-3.6791
X5.4665Y-2.4626
X5.4705Y-3.9793
X5.5039Y-4.1545
X5.5069Y-3.6801
X5.5079Y-3.1467
X5.5138Y-2.315
X5.5197Y-2.6004
X5.5226Y-4.2539
X5.5246Y-2.9281
X5.5266Y-2.4754
X5.5276Y-4.3819
X5.5305Y-2.8396
X5.5335Y-3.8189
X5.5354Y-3.2224
X5.5472Y-3.9646
X5.563Y-2.7205
X5.565Y-2.9596
X5.5658Y-2.4826
X5.5994Y-3.1752
X5.6014Y-3.1329
X5.6132Y-2.4833
X5.6132Y-4.0256
X5.6201Y-3.6644
X5.6212Y-2.5314
X5.6329Y-3.7962
X5.6348Y-2.7431
X5.6381Y-4.3359
X5.6407Y-3.875
X5.6407Y-3.9222
X5.6565Y-2.4813
X5.6575Y-4.0276
X5.6739Y-3.008
X5.6811Y-2.7274
X5.6811Y-2.9754
X5.6839Y-2.4674
X5.6943Y-4.0175
X5.6998Y-3.9341
X5.7146Y-3.9961
X5.7215Y-3.0079
X5.7303Y-4.5758
X5.7313Y-3.8297
X5.7313Y-2.7631
X5.7326Y-4.1305
X5.7648Y-4.0344
X5.7717Y-2.5413
X5.7717Y-2.7382
X5.7736Y-4.0886
X5.7785Y-2.9262
X5.8178Y-2.9374
X5.8287Y-2.8563
X5.8333Y-2.9891
X5.8514Y-4.3327
X5.8514Y-4.5856
X5.8711Y-3.003
X5.8888Y-3.9232
X5.8967Y-2.2638
X5.9187Y-2.3665
X5.9252Y-2.6506
X5.9262Y-3.8002
X5.927Y-3.0106
X5.9272Y-2.5797
X5.9281Y-2.8031
X5.94Y-2.314
X5.951Y-2.4953
X5.9695Y-3.9803
X5.9741Y-2.4722
X5.9902Y-4.128
X5.9911Y-4.3317
X5.9911Y-4.5846
X5.9952Y-4.0063
X5.9992Y-3.8211
X6.0059Y-3.9055
X6.0108Y-2.6309
X6.0187Y-3.1437
X6.0195Y-2.7425
X6.0295Y-2.5896
X6.0364Y-3.9232
X6.0374Y-2.4833
X6.0413Y-3.8524
X6.0613Y-2.9757
X6.063Y-2.9094
X6.0738Y-3.1575
X6.0738Y-3.2402
X6.0866Y-2.314
X6.0866Y-2.4823
X6.0866Y-3.6299
X6.0945Y-4.5128
X6.1093Y-2.6181
X6.1122Y-2.2195
X6.125Y-3.9232
X6.1378Y-2.5856
X6.1526Y-3.0866
X6.1624Y-3.8819
X6.1722Y-4.0413
X6.1841Y-2.4774
X6.1929Y-3.0236
X6.2087Y-3.6309
X6.2146Y-2.7667
X6.2156Y-3.7953
X6.2205Y-2.5366
X6.2461Y-3.7175
X6.2539Y-3.4596
X6.2707Y-2.7402
X6.2717Y-2.5423
X6.3051Y-3.2057
X6.312Y-3.0846
X6.3297Y-2.7628
X6.3378Y-3.2047
X6.3425Y-2.9301
X6.3602Y-3.5591
X6.3642Y-4.437
X6.3691Y-3.7864
T4
X5.625Y-3.4459
X5.751Y-3.3179
X5.751Y-3.5719
X5.878Y-3.4459
X6.1417Y-4.3563
X6.2461Y-4.2884
X6.247Y-4.1762
X6.3356Y-4.0423
X6.3356Y-4.1772
X6.3494Y-4.3661
T5
X6.3189Y-4.564
X5.2175Y-4.563
X5.2165Y-2.2421
X6.3189Y-2.2421
T2
G00X5.3386Y-4.5217
M15
G01X5.3386Y-4.5472
M16
G05
G00X5.6142Y-4.5217
M15
G01X5.6142Y-4.5472
M16
G05
T3
G00X5.372Y-4.4281
M15
G01X5.3839Y-4.4281
M16
G05
G00X5.5689Y-4.4281
M15
G01X5.5807Y-4.4281
M16
G05
T0
M30
