G04 #@! TF.GenerationSoftware,KiCad,Pcbnew,5.1.7-a382d34a88~90~ubuntu20.04.1*
G04 #@! TF.CreationDate,2022-01-21T18:15:37-06:00*
G04 #@! TF.ProjectId,strike-controller,73747269-6b65-42d6-936f-6e74726f6c6c,rev?*
G04 #@! TF.SameCoordinates,Original*
G04 #@! TF.FileFunction,Soldermask,Bot*
G04 #@! TF.FilePolarity,Negative*
%FSLAX46Y46*%
G04 Gerber Fmt 4.6, Leading zero omitted, Abs format (unit mm)*
G04 Created by KiCad (PCBNEW 5.1.7-a382d34a88~90~ubuntu20.04.1) date 2022-01-21 18:15:37*
%MOMM*%
%LPD*%
G01*
G04 APERTURE LIST*
%ADD10C,2.900000*%
%ADD11O,1.290000X1.950000*%
%ADD12O,1.650000X1.350000*%
%ADD13C,1.000000*%
%ADD14C,1.200000*%
%ADD15C,1.400000*%
%ADD16C,0.100000*%
G04 APERTURE END LIST*
D10*
X160500000Y-115925000D03*
X160500000Y-56950000D03*
X132525000Y-115900000D03*
X132500000Y-56950000D03*
G36*
G01*
X158810000Y-69935000D02*
X159810000Y-69935000D01*
G75*
G02*
X160010000Y-70135000I0J-200000D01*
G01*
X160010000Y-73285000D01*
G75*
G02*
X159810000Y-73485000I-200000J0D01*
G01*
X158810000Y-73485000D01*
G75*
G02*
X158610000Y-73285000I0J200000D01*
G01*
X158610000Y-70135000D01*
G75*
G02*
X158810000Y-69935000I200000J0D01*
G01*
G37*
G36*
G01*
X158810000Y-64885000D02*
X159810000Y-64885000D01*
G75*
G02*
X160010000Y-65085000I0J-200000D01*
G01*
X160010000Y-68235000D01*
G75*
G02*
X159810000Y-68435000I-200000J0D01*
G01*
X158810000Y-68435000D01*
G75*
G02*
X158610000Y-68235000I0J200000D01*
G01*
X158610000Y-65085000D01*
G75*
G02*
X158810000Y-64885000I200000J0D01*
G01*
G37*
G36*
G01*
X156270000Y-69935000D02*
X157270000Y-69935000D01*
G75*
G02*
X157470000Y-70135000I0J-200000D01*
G01*
X157470000Y-73285000D01*
G75*
G02*
X157270000Y-73485000I-200000J0D01*
G01*
X156270000Y-73485000D01*
G75*
G02*
X156070000Y-73285000I0J200000D01*
G01*
X156070000Y-70135000D01*
G75*
G02*
X156270000Y-69935000I200000J0D01*
G01*
G37*
G36*
G01*
X156270000Y-64885000D02*
X157270000Y-64885000D01*
G75*
G02*
X157470000Y-65085000I0J-200000D01*
G01*
X157470000Y-68235000D01*
G75*
G02*
X157270000Y-68435000I-200000J0D01*
G01*
X156270000Y-68435000D01*
G75*
G02*
X156070000Y-68235000I0J200000D01*
G01*
X156070000Y-65085000D01*
G75*
G02*
X156270000Y-64885000I200000J0D01*
G01*
G37*
G36*
G01*
X153730000Y-69935000D02*
X154730000Y-69935000D01*
G75*
G02*
X154930000Y-70135000I0J-200000D01*
G01*
X154930000Y-73285000D01*
G75*
G02*
X154730000Y-73485000I-200000J0D01*
G01*
X153730000Y-73485000D01*
G75*
G02*
X153530000Y-73285000I0J200000D01*
G01*
X153530000Y-70135000D01*
G75*
G02*
X153730000Y-69935000I200000J0D01*
G01*
G37*
G36*
G01*
X153730000Y-64885000D02*
X154730000Y-64885000D01*
G75*
G02*
X154930000Y-65085000I0J-200000D01*
G01*
X154930000Y-68235000D01*
G75*
G02*
X154730000Y-68435000I-200000J0D01*
G01*
X153730000Y-68435000D01*
G75*
G02*
X153530000Y-68235000I0J200000D01*
G01*
X153530000Y-65085000D01*
G75*
G02*
X153730000Y-64885000I200000J0D01*
G01*
G37*
G36*
G01*
X151190000Y-69935000D02*
X152190000Y-69935000D01*
G75*
G02*
X152390000Y-70135000I0J-200000D01*
G01*
X152390000Y-73285000D01*
G75*
G02*
X152190000Y-73485000I-200000J0D01*
G01*
X151190000Y-73485000D01*
G75*
G02*
X150990000Y-73285000I0J200000D01*
G01*
X150990000Y-70135000D01*
G75*
G02*
X151190000Y-69935000I200000J0D01*
G01*
G37*
G36*
G01*
X151190000Y-64885000D02*
X152190000Y-64885000D01*
G75*
G02*
X152390000Y-65085000I0J-200000D01*
G01*
X152390000Y-68235000D01*
G75*
G02*
X152190000Y-68435000I-200000J0D01*
G01*
X151190000Y-68435000D01*
G75*
G02*
X150990000Y-68235000I0J200000D01*
G01*
X150990000Y-65085000D01*
G75*
G02*
X151190000Y-64885000I200000J0D01*
G01*
G37*
G36*
G01*
X148650000Y-69935000D02*
X149650000Y-69935000D01*
G75*
G02*
X149850000Y-70135000I0J-200000D01*
G01*
X149850000Y-73285000D01*
G75*
G02*
X149650000Y-73485000I-200000J0D01*
G01*
X148650000Y-73485000D01*
G75*
G02*
X148450000Y-73285000I0J200000D01*
G01*
X148450000Y-70135000D01*
G75*
G02*
X148650000Y-69935000I200000J0D01*
G01*
G37*
G36*
G01*
X148650000Y-64885000D02*
X149650000Y-64885000D01*
G75*
G02*
X149850000Y-65085000I0J-200000D01*
G01*
X149850000Y-68235000D01*
G75*
G02*
X149650000Y-68435000I-200000J0D01*
G01*
X148650000Y-68435000D01*
G75*
G02*
X148450000Y-68235000I0J200000D01*
G01*
X148450000Y-65085000D01*
G75*
G02*
X148650000Y-64885000I200000J0D01*
G01*
G37*
G36*
G01*
X146110000Y-69935000D02*
X147110000Y-69935000D01*
G75*
G02*
X147310000Y-70135000I0J-200000D01*
G01*
X147310000Y-73285000D01*
G75*
G02*
X147110000Y-73485000I-200000J0D01*
G01*
X146110000Y-73485000D01*
G75*
G02*
X145910000Y-73285000I0J200000D01*
G01*
X145910000Y-70135000D01*
G75*
G02*
X146110000Y-69935000I200000J0D01*
G01*
G37*
G36*
G01*
X146110000Y-64885000D02*
X147110000Y-64885000D01*
G75*
G02*
X147310000Y-65085000I0J-200000D01*
G01*
X147310000Y-68235000D01*
G75*
G02*
X147110000Y-68435000I-200000J0D01*
G01*
X146110000Y-68435000D01*
G75*
G02*
X145910000Y-68235000I0J200000D01*
G01*
X145910000Y-65085000D01*
G75*
G02*
X146110000Y-64885000I200000J0D01*
G01*
G37*
G36*
G01*
X143570000Y-69935000D02*
X144570000Y-69935000D01*
G75*
G02*
X144770000Y-70135000I0J-200000D01*
G01*
X144770000Y-73285000D01*
G75*
G02*
X144570000Y-73485000I-200000J0D01*
G01*
X143570000Y-73485000D01*
G75*
G02*
X143370000Y-73285000I0J200000D01*
G01*
X143370000Y-70135000D01*
G75*
G02*
X143570000Y-69935000I200000J0D01*
G01*
G37*
G36*
G01*
X143570000Y-64885000D02*
X144570000Y-64885000D01*
G75*
G02*
X144770000Y-65085000I0J-200000D01*
G01*
X144770000Y-68235000D01*
G75*
G02*
X144570000Y-68435000I-200000J0D01*
G01*
X143570000Y-68435000D01*
G75*
G02*
X143370000Y-68235000I0J200000D01*
G01*
X143370000Y-65085000D01*
G75*
G02*
X143570000Y-64885000I200000J0D01*
G01*
G37*
G36*
G01*
X141030000Y-69935000D02*
X142030000Y-69935000D01*
G75*
G02*
X142230000Y-70135000I0J-200000D01*
G01*
X142230000Y-73285000D01*
G75*
G02*
X142030000Y-73485000I-200000J0D01*
G01*
X141030000Y-73485000D01*
G75*
G02*
X140830000Y-73285000I0J200000D01*
G01*
X140830000Y-70135000D01*
G75*
G02*
X141030000Y-69935000I200000J0D01*
G01*
G37*
G36*
G01*
X141030000Y-64885000D02*
X142030000Y-64885000D01*
G75*
G02*
X142230000Y-65085000I0J-200000D01*
G01*
X142230000Y-68235000D01*
G75*
G02*
X142030000Y-68435000I-200000J0D01*
G01*
X141030000Y-68435000D01*
G75*
G02*
X140830000Y-68235000I0J200000D01*
G01*
X140830000Y-65085000D01*
G75*
G02*
X141030000Y-64885000I200000J0D01*
G01*
G37*
G36*
G01*
X138490000Y-69935000D02*
X139490000Y-69935000D01*
G75*
G02*
X139690000Y-70135000I0J-200000D01*
G01*
X139690000Y-73285000D01*
G75*
G02*
X139490000Y-73485000I-200000J0D01*
G01*
X138490000Y-73485000D01*
G75*
G02*
X138290000Y-73285000I0J200000D01*
G01*
X138290000Y-70135000D01*
G75*
G02*
X138490000Y-69935000I200000J0D01*
G01*
G37*
G36*
G01*
X138490000Y-64885000D02*
X139490000Y-64885000D01*
G75*
G02*
X139690000Y-65085000I0J-200000D01*
G01*
X139690000Y-68235000D01*
G75*
G02*
X139490000Y-68435000I-200000J0D01*
G01*
X138490000Y-68435000D01*
G75*
G02*
X138290000Y-68235000I0J200000D01*
G01*
X138290000Y-65085000D01*
G75*
G02*
X138490000Y-64885000I200000J0D01*
G01*
G37*
D11*
X142600000Y-115175000D03*
X135600000Y-115175000D03*
D12*
X141600000Y-112475000D03*
X136600000Y-112475000D03*
D13*
X152175000Y-116450000D03*
X148625000Y-116475000D03*
X148625000Y-110050000D03*
X152175000Y-110025000D03*
X140400000Y-111300000D03*
D14*
X140275000Y-108050000D03*
X143700000Y-102300000D03*
D13*
X138200000Y-108500000D03*
X143208051Y-110133051D03*
X137550000Y-97025000D03*
X138600000Y-93450000D03*
D15*
X146075000Y-84275000D03*
X149300000Y-87525000D03*
X146075000Y-90725000D03*
D13*
X154600000Y-92200000D03*
X157700000Y-92225000D03*
X158650000Y-94425000D03*
X158850000Y-87875000D03*
D15*
X142875010Y-87524906D03*
D13*
X149575000Y-99650000D03*
X155575000Y-99650000D03*
X156525000Y-98600000D03*
X161650000Y-112700000D03*
X154800000Y-114625000D03*
D15*
X160925000Y-106100000D03*
X160925000Y-102675000D03*
D13*
X152150000Y-104850000D03*
X161099981Y-74425000D03*
D14*
X145609063Y-104915618D03*
D13*
X160979991Y-81400000D03*
X159300000Y-64575000D03*
X153150000Y-65775000D03*
X140050000Y-58800000D03*
X136325000Y-63075000D03*
X136325000Y-65725000D03*
X142575000Y-63075000D03*
X146600000Y-64550000D03*
X138575000Y-79550000D03*
X138600000Y-76475000D03*
X141350000Y-75175000D03*
X140325000Y-74375000D03*
X153350000Y-63075010D03*
X142778551Y-64298342D03*
X132650000Y-101625000D03*
X134635636Y-112473262D03*
X146775000Y-74325000D03*
X153958051Y-75583051D03*
X147771509Y-74609556D03*
X157999990Y-64429144D03*
X157075000Y-62924990D03*
X159275000Y-69600000D03*
X137975000Y-99900000D03*
X140550000Y-97000000D03*
X139875000Y-93475000D03*
X161775000Y-96175000D03*
D15*
X158650000Y-108925000D03*
X156000000Y-110650000D03*
X161275000Y-110900000D03*
X158675000Y-106075000D03*
D13*
X145550000Y-116225000D03*
X161549991Y-90400000D03*
X154600000Y-63050000D03*
X155175000Y-66500000D03*
X138850000Y-62550000D03*
X151743201Y-62793201D03*
X132725000Y-105000000D03*
X153450010Y-97850000D03*
X143275000Y-99625000D03*
X144634337Y-102044619D03*
X143275000Y-98425000D03*
X142750000Y-93075000D03*
X154275000Y-80200000D03*
X156275000Y-78400000D03*
X132875000Y-109950000D03*
X136100000Y-110775000D03*
X133050000Y-113099990D03*
X140475000Y-72125000D03*
X150550000Y-65525000D03*
X149775000Y-57500000D03*
X150875000Y-58775000D03*
X154600000Y-58775000D03*
X155250000Y-56375000D03*
X136350000Y-56175000D03*
X136325000Y-58800000D03*
X137550000Y-63075000D03*
X137575000Y-65775000D03*
X137950000Y-66700000D03*
X137775000Y-71275000D03*
X140200000Y-66050000D03*
X146600000Y-69550000D03*
X160775000Y-70175000D03*
X141371151Y-63057963D03*
X151155656Y-63380746D03*
X145575010Y-70181834D03*
X150575000Y-71200000D03*
X154000000Y-73900000D03*
X156775000Y-102650000D03*
X160325000Y-78350000D03*
X160150000Y-81425000D03*
X148050000Y-72550000D03*
X144371279Y-62671279D03*
X150500000Y-67325000D03*
X155900000Y-65675000D03*
X157850000Y-70275000D03*
X150333780Y-60108780D03*
X157300000Y-76800000D03*
X146650000Y-103850000D03*
X146425000Y-102475000D03*
X145150000Y-101500000D03*
X143075006Y-96422478D03*
X139800000Y-105525000D03*
X142575000Y-102250000D03*
X138950000Y-101075000D03*
X140900000Y-100700000D03*
X144775000Y-99925000D03*
X145575000Y-97275000D03*
X152550000Y-99200000D03*
X154275000Y-82300000D03*
X152875000Y-79850000D03*
X152380726Y-97056087D03*
X153325000Y-99650000D03*
X152278372Y-101760819D03*
X135625000Y-108350000D03*
X142275000Y-79575000D03*
X135000000Y-107875000D03*
X142225000Y-80650000D03*
X152675000Y-66825000D03*
X157875000Y-96400000D03*
X150525000Y-96525000D03*
X143125000Y-69675010D03*
X152894597Y-69659225D03*
X151625000Y-101100000D03*
X145325000Y-76400000D03*
X148166201Y-75921987D03*
X140375000Y-62875000D03*
X149125000Y-76275000D03*
X144118096Y-76402618D03*
X143675000Y-63025000D03*
X140600000Y-81850000D03*
X139900000Y-79925000D03*
X141300000Y-69100000D03*
X144300000Y-69275000D03*
X144300000Y-75575000D03*
X150547057Y-76470021D03*
D16*
G36*
X142995867Y-101980647D02*
G01*
X143007394Y-101994692D01*
X143026031Y-102009987D01*
X143047294Y-102021352D01*
X143070369Y-102028352D01*
X143094361Y-102030715D01*
X143118352Y-102028352D01*
X143141427Y-102021352D01*
X143162690Y-102009987D01*
X143181327Y-101994691D01*
X143192850Y-101980649D01*
X143194722Y-101979945D01*
X143196268Y-101981213D01*
X143196059Y-101983029D01*
X143172620Y-102018109D01*
X143127760Y-102126411D01*
X143104889Y-102241389D01*
X143104889Y-102358611D01*
X143127760Y-102473589D01*
X143171513Y-102579219D01*
X143171252Y-102581202D01*
X143169404Y-102581967D01*
X143168002Y-102581095D01*
X143163277Y-102574023D01*
X143147918Y-102555308D01*
X143129281Y-102540013D01*
X143108017Y-102528648D01*
X143084942Y-102521648D01*
X143060951Y-102519285D01*
X143036960Y-102521648D01*
X143013885Y-102528648D01*
X142992621Y-102540013D01*
X142973984Y-102555308D01*
X142967700Y-102562965D01*
X142967568Y-102563110D01*
X142964635Y-102566043D01*
X142962703Y-102566561D01*
X142961289Y-102565147D01*
X142961558Y-102563518D01*
X143014188Y-102484751D01*
X143051546Y-102394560D01*
X143070592Y-102298810D01*
X143070592Y-102201190D01*
X143051546Y-102105440D01*
X143014188Y-102015249D01*
X142992658Y-101983027D01*
X142992527Y-101981031D01*
X142994190Y-101979920D01*
X142995867Y-101980647D01*
G37*
G36*
X143418054Y-98902865D02*
G01*
X143418444Y-98904827D01*
X143417131Y-98906098D01*
X143399746Y-98911372D01*
X143378482Y-98922737D01*
X143359845Y-98938032D01*
X143344549Y-98956669D01*
X143333184Y-98977932D01*
X143326183Y-99001007D01*
X143323820Y-99024998D01*
X143326182Y-99048989D01*
X143333182Y-99072064D01*
X143344547Y-99093328D01*
X143359842Y-99111965D01*
X143378479Y-99127261D01*
X143399742Y-99138626D01*
X143417129Y-99143901D01*
X143418496Y-99145361D01*
X143417915Y-99147275D01*
X143416158Y-99147777D01*
X143323810Y-99129408D01*
X143226190Y-99129408D01*
X143133840Y-99147778D01*
X143131946Y-99147135D01*
X143131556Y-99145173D01*
X143132869Y-99143902D01*
X143150254Y-99138628D01*
X143171518Y-99127263D01*
X143190155Y-99111968D01*
X143205451Y-99093331D01*
X143216816Y-99072068D01*
X143223817Y-99048993D01*
X143226180Y-99025002D01*
X143223818Y-99001011D01*
X143216818Y-98977936D01*
X143205453Y-98956672D01*
X143190158Y-98938035D01*
X143171521Y-98922739D01*
X143150258Y-98911374D01*
X143132871Y-98906099D01*
X143131504Y-98904639D01*
X143132085Y-98902725D01*
X143133842Y-98902223D01*
X143226190Y-98920592D01*
X143323810Y-98920592D01*
X143416160Y-98902222D01*
X143418054Y-98902865D01*
G37*
G36*
X142011226Y-79994796D02*
G01*
X142040249Y-80014188D01*
X142130440Y-80051546D01*
X142226190Y-80070592D01*
X142323810Y-80070592D01*
X142419560Y-80051546D01*
X142507082Y-80015294D01*
X142509065Y-80015555D01*
X142509830Y-80017403D01*
X142508958Y-80018805D01*
X142506288Y-80020589D01*
X142506120Y-80020690D01*
X142495746Y-80026235D01*
X142477108Y-80041528D01*
X142461812Y-80060164D01*
X142450446Y-80081428D01*
X142443445Y-80104502D01*
X142441081Y-80128493D01*
X142443444Y-80152485D01*
X142450441Y-80175559D01*
X142461807Y-80196824D01*
X142477100Y-80215462D01*
X142491154Y-80226995D01*
X142491858Y-80228867D01*
X142490590Y-80230413D01*
X142488774Y-80230204D01*
X142459751Y-80210812D01*
X142369560Y-80173454D01*
X142273810Y-80154408D01*
X142176190Y-80154408D01*
X142080440Y-80173454D01*
X141992918Y-80209706D01*
X141990935Y-80209445D01*
X141990170Y-80207597D01*
X141991042Y-80206195D01*
X141993712Y-80204411D01*
X141993880Y-80204310D01*
X142004254Y-80198765D01*
X142022892Y-80183472D01*
X142038188Y-80164836D01*
X142049554Y-80143572D01*
X142056555Y-80120498D01*
X142058919Y-80096507D01*
X142056556Y-80072515D01*
X142049559Y-80049441D01*
X142038193Y-80028176D01*
X142022900Y-80009538D01*
X142008846Y-79998005D01*
X142008142Y-79996133D01*
X142009410Y-79994587D01*
X142011226Y-79994796D01*
G37*
G36*
X144843562Y-76275750D02*
G01*
X144844064Y-76277507D01*
X144829408Y-76351190D01*
X144829408Y-76448810D01*
X144844587Y-76525120D01*
X144843944Y-76527014D01*
X144841982Y-76527404D01*
X144840711Y-76526091D01*
X144835434Y-76508698D01*
X144824069Y-76487434D01*
X144808774Y-76468797D01*
X144790137Y-76453502D01*
X144768872Y-76442136D01*
X144745799Y-76435139D01*
X144721807Y-76432775D01*
X144697815Y-76435138D01*
X144674741Y-76442139D01*
X144653477Y-76453504D01*
X144634840Y-76468799D01*
X144619545Y-76487436D01*
X144608179Y-76508701D01*
X144602908Y-76526081D01*
X144601448Y-76527449D01*
X144599534Y-76526868D01*
X144599032Y-76525111D01*
X144613688Y-76451428D01*
X144613688Y-76353808D01*
X144598509Y-76277498D01*
X144599152Y-76275604D01*
X144601114Y-76275214D01*
X144602385Y-76276527D01*
X144607662Y-76293920D01*
X144619027Y-76315184D01*
X144634322Y-76333821D01*
X144652959Y-76349116D01*
X144674224Y-76360482D01*
X144697297Y-76367479D01*
X144721289Y-76369843D01*
X144745281Y-76367480D01*
X144768355Y-76360479D01*
X144789619Y-76349114D01*
X144808256Y-76333819D01*
X144823551Y-76315182D01*
X144834917Y-76293917D01*
X144840188Y-76276537D01*
X144841648Y-76275169D01*
X144843562Y-76275750D01*
G37*
G36*
X148650197Y-75794421D02*
G01*
X148655472Y-75811812D01*
X148666837Y-75833075D01*
X148682133Y-75851712D01*
X148700770Y-75867007D01*
X148722033Y-75878372D01*
X148745108Y-75885372D01*
X148769100Y-75887735D01*
X148793091Y-75885372D01*
X148816166Y-75878372D01*
X148832187Y-75869808D01*
X148834186Y-75869874D01*
X148835129Y-75871637D01*
X148834241Y-75873235D01*
X148809077Y-75890049D01*
X148740049Y-75959077D01*
X148685812Y-76040249D01*
X148648454Y-76130440D01*
X148629408Y-76226190D01*
X148629408Y-76323810D01*
X148644880Y-76401595D01*
X148644237Y-76403489D01*
X148642275Y-76403879D01*
X148641004Y-76402566D01*
X148635729Y-76385175D01*
X148624364Y-76363912D01*
X148609068Y-76345275D01*
X148590431Y-76329980D01*
X148569168Y-76318615D01*
X148546093Y-76311615D01*
X148522101Y-76309252D01*
X148498110Y-76311615D01*
X148475035Y-76318615D01*
X148459014Y-76327179D01*
X148457015Y-76327113D01*
X148456072Y-76325350D01*
X148456960Y-76323752D01*
X148482124Y-76306938D01*
X148551152Y-76237910D01*
X148605389Y-76156738D01*
X148642747Y-76066547D01*
X148661793Y-75970797D01*
X148661793Y-75873177D01*
X148646321Y-75795392D01*
X148646964Y-75793498D01*
X148648926Y-75793108D01*
X148650197Y-75794421D01*
G37*
G36*
X147255676Y-74181137D02*
G01*
X147266367Y-74201140D01*
X147281663Y-74219777D01*
X147300300Y-74235072D01*
X147321563Y-74246437D01*
X147344638Y-74253437D01*
X147368629Y-74255800D01*
X147392620Y-74253437D01*
X147415695Y-74246437D01*
X147436959Y-74235072D01*
X147450705Y-74223791D01*
X147450862Y-74223675D01*
X147451019Y-74223570D01*
X147453015Y-74223438D01*
X147454127Y-74225100D01*
X147453545Y-74226646D01*
X147386558Y-74293633D01*
X147332321Y-74374805D01*
X147294963Y-74464996D01*
X147275917Y-74560746D01*
X147275917Y-74658366D01*
X147294559Y-74752086D01*
X147293916Y-74753980D01*
X147291954Y-74754370D01*
X147290833Y-74753419D01*
X147280142Y-74733416D01*
X147264846Y-74714779D01*
X147246209Y-74699484D01*
X147224946Y-74688119D01*
X147201871Y-74681119D01*
X147177880Y-74678756D01*
X147153889Y-74681119D01*
X147130814Y-74688119D01*
X147109550Y-74699484D01*
X147095804Y-74710765D01*
X147095647Y-74710881D01*
X147095490Y-74710986D01*
X147093494Y-74711118D01*
X147092382Y-74709456D01*
X147092964Y-74707910D01*
X147159951Y-74640923D01*
X147214188Y-74559751D01*
X147251546Y-74469560D01*
X147270592Y-74373810D01*
X147270592Y-74276190D01*
X147251950Y-74182470D01*
X147252593Y-74180576D01*
X147254555Y-74180186D01*
X147255676Y-74181137D01*
G37*
G36*
X153727181Y-73484000D02*
G01*
X153726560Y-73486663D01*
X153684077Y-73515049D01*
X153615049Y-73584077D01*
X153562418Y-73662845D01*
X153560624Y-73663730D01*
X153558961Y-73662619D01*
X153558907Y-73660969D01*
X153560484Y-73657162D01*
X153567513Y-73633991D01*
X153569876Y-73609999D01*
X153567513Y-73586008D01*
X153560513Y-73562933D01*
X153549148Y-73541670D01*
X153533853Y-73523033D01*
X153528731Y-73518830D01*
X153528000Y-73517284D01*
X153528000Y-73485000D01*
X153529000Y-73483268D01*
X153530000Y-73483000D01*
X153725449Y-73483000D01*
X153727181Y-73484000D01*
G37*
G36*
X154554846Y-73484000D02*
G01*
X154554846Y-73486000D01*
X154553310Y-73486990D01*
X154529123Y-73489372D01*
X154506048Y-73496372D01*
X154484784Y-73507737D01*
X154466147Y-73523032D01*
X154450852Y-73541669D01*
X154439487Y-73562933D01*
X154432487Y-73586008D01*
X154430124Y-73609999D01*
X154432487Y-73633990D01*
X154439516Y-73657162D01*
X154441093Y-73660969D01*
X154440832Y-73662952D01*
X154438984Y-73663717D01*
X154437582Y-73662845D01*
X154384951Y-73584077D01*
X154315923Y-73515049D01*
X154273440Y-73486663D01*
X154272555Y-73484869D01*
X154274551Y-73483000D01*
X154553114Y-73483000D01*
X154554846Y-73484000D01*
G37*
G36*
X148452000Y-72847000D02*
G01*
X148452000Y-73109327D01*
X148451000Y-73111059D01*
X148449000Y-73111059D01*
X148448010Y-73109523D01*
X148445628Y-73085336D01*
X148438628Y-73062261D01*
X148427263Y-73040997D01*
X148411968Y-73022360D01*
X148393331Y-73007065D01*
X148372067Y-72995700D01*
X148348992Y-72988700D01*
X148325001Y-72986337D01*
X148301010Y-72988700D01*
X148283630Y-72993972D01*
X148281682Y-72993518D01*
X148281101Y-72991604D01*
X148282284Y-72990210D01*
X148284751Y-72989188D01*
X148365923Y-72934951D01*
X148434951Y-72865923D01*
X148448337Y-72845889D01*
X148450131Y-72845004D01*
X148452000Y-72847000D01*
G37*
G36*
X140832000Y-72473702D02*
G01*
X140832000Y-72702967D01*
X140831000Y-72704699D01*
X140829000Y-72704699D01*
X140828010Y-72703163D01*
X140825628Y-72678976D01*
X140818628Y-72655901D01*
X140807263Y-72634637D01*
X140791968Y-72616000D01*
X140773331Y-72600705D01*
X140752067Y-72589340D01*
X140728992Y-72582340D01*
X140705001Y-72579977D01*
X140681010Y-72582340D01*
X140663624Y-72587614D01*
X140661676Y-72587160D01*
X140661095Y-72585246D01*
X140662278Y-72583852D01*
X140709751Y-72564188D01*
X140790923Y-72509951D01*
X140828586Y-72472288D01*
X140830518Y-72471770D01*
X140832000Y-72473702D01*
G37*
G36*
X148451165Y-71989047D02*
G01*
X148452000Y-71990673D01*
X148452000Y-72253000D01*
X148451000Y-72254732D01*
X148448337Y-72254111D01*
X148434951Y-72234077D01*
X148365923Y-72165049D01*
X148284751Y-72110812D01*
X148282285Y-72109790D01*
X148281067Y-72108203D01*
X148281833Y-72106355D01*
X148283631Y-72106028D01*
X148301009Y-72111300D01*
X148325000Y-72113663D01*
X148348991Y-72111300D01*
X148372066Y-72104300D01*
X148393330Y-72092935D01*
X148411967Y-72077640D01*
X148427262Y-72059003D01*
X148438628Y-72037740D01*
X148445628Y-72014665D01*
X148448010Y-71990477D01*
X148449175Y-71988851D01*
X148451165Y-71989047D01*
G37*
G36*
X140831165Y-71545407D02*
G01*
X140832000Y-71547033D01*
X140832000Y-71776298D01*
X140831000Y-71778030D01*
X140828586Y-71777712D01*
X140790923Y-71740049D01*
X140709751Y-71685812D01*
X140662279Y-71666148D01*
X140661061Y-71664561D01*
X140661826Y-71662713D01*
X140663625Y-71662386D01*
X140681009Y-71667660D01*
X140705000Y-71670023D01*
X140728991Y-71667660D01*
X140752066Y-71660660D01*
X140773330Y-71649295D01*
X140791967Y-71634000D01*
X140807262Y-71615363D01*
X140818628Y-71594100D01*
X140825628Y-71571025D01*
X140828010Y-71546837D01*
X140829175Y-71545211D01*
X140831165Y-71545407D01*
G37*
G36*
X138291165Y-70785904D02*
G01*
X138292000Y-70787530D01*
X138292000Y-71762470D01*
X138291000Y-71764202D01*
X138289000Y-71764202D01*
X138288010Y-71762666D01*
X138285628Y-71738479D01*
X138278628Y-71715404D01*
X138267263Y-71694140D01*
X138251968Y-71675503D01*
X138233331Y-71660208D01*
X138212067Y-71648843D01*
X138188992Y-71641843D01*
X138165001Y-71639480D01*
X138141010Y-71641843D01*
X138117935Y-71648843D01*
X138096582Y-71660256D01*
X138095491Y-71660985D01*
X138093495Y-71661116D01*
X138092384Y-71659453D01*
X138092966Y-71657908D01*
X138159951Y-71590923D01*
X138214188Y-71509751D01*
X138251546Y-71419560D01*
X138270592Y-71323810D01*
X138270592Y-71226190D01*
X138251546Y-71130440D01*
X138214188Y-71040249D01*
X138159951Y-70959077D01*
X138092966Y-70892092D01*
X138092448Y-70890160D01*
X138093862Y-70888746D01*
X138095491Y-70889015D01*
X138096582Y-70889744D01*
X138117935Y-70901157D01*
X138141010Y-70908157D01*
X138165001Y-70910520D01*
X138188992Y-70908157D01*
X138212067Y-70901157D01*
X138233331Y-70889792D01*
X138251968Y-70874497D01*
X138267263Y-70855860D01*
X138278628Y-70834596D01*
X138285628Y-70811521D01*
X138288010Y-70787334D01*
X138289175Y-70785708D01*
X138291165Y-70785904D01*
G37*
G36*
X150992000Y-71474551D02*
G01*
X150992000Y-71753114D01*
X150991000Y-71754846D01*
X150989000Y-71754846D01*
X150988010Y-71753310D01*
X150985628Y-71729123D01*
X150978628Y-71706048D01*
X150967263Y-71684784D01*
X150951968Y-71666147D01*
X150933331Y-71650852D01*
X150912067Y-71639487D01*
X150888992Y-71632487D01*
X150865001Y-71630124D01*
X150841010Y-71632487D01*
X150817838Y-71639516D01*
X150814031Y-71641093D01*
X150812048Y-71640832D01*
X150811283Y-71638984D01*
X150812155Y-71637582D01*
X150890923Y-71584951D01*
X150959951Y-71515923D01*
X150988337Y-71473440D01*
X150990131Y-71472555D01*
X150992000Y-71474551D01*
G37*
G36*
X149851990Y-71027999D02*
G01*
X149854372Y-71052186D01*
X149861372Y-71075261D01*
X149872737Y-71096525D01*
X149888032Y-71115162D01*
X149906669Y-71130457D01*
X149927933Y-71141822D01*
X149951008Y-71148822D01*
X149974999Y-71151185D01*
X149998990Y-71148822D01*
X150022065Y-71141822D01*
X150043329Y-71130457D01*
X150061966Y-71115162D01*
X150077261Y-71096525D01*
X150088626Y-71075261D01*
X150093900Y-71057876D01*
X150095360Y-71056509D01*
X150097274Y-71057090D01*
X150097776Y-71058847D01*
X150079408Y-71151190D01*
X150079408Y-71248810D01*
X150097777Y-71341155D01*
X150097134Y-71343049D01*
X150095172Y-71343439D01*
X150093901Y-71342126D01*
X150088627Y-71324740D01*
X150077262Y-71303477D01*
X150061967Y-71284840D01*
X150043330Y-71269544D01*
X150022067Y-71258179D01*
X149998992Y-71251178D01*
X149975001Y-71248815D01*
X149951010Y-71251177D01*
X149927934Y-71258177D01*
X149906671Y-71269542D01*
X149888034Y-71284837D01*
X149872738Y-71303474D01*
X149861373Y-71324737D01*
X149854372Y-71347812D01*
X149851990Y-71372001D01*
X149850825Y-71373627D01*
X149848835Y-71373431D01*
X149848000Y-71371805D01*
X149848000Y-71028195D01*
X149849000Y-71026463D01*
X149851000Y-71026463D01*
X149851990Y-71027999D01*
G37*
G36*
X150991165Y-70645260D02*
G01*
X150992000Y-70646886D01*
X150992000Y-70925449D01*
X150991000Y-70927181D01*
X150988337Y-70926560D01*
X150959951Y-70884077D01*
X150890923Y-70815049D01*
X150812155Y-70762418D01*
X150811270Y-70760624D01*
X150812381Y-70758961D01*
X150814031Y-70758907D01*
X150817838Y-70760484D01*
X150841009Y-70767513D01*
X150865000Y-70769876D01*
X150888992Y-70767513D01*
X150912067Y-70760513D01*
X150933330Y-70749148D01*
X150951967Y-70733853D01*
X150967263Y-70715216D01*
X150978628Y-70693953D01*
X150985628Y-70670878D01*
X150988010Y-70646690D01*
X150989175Y-70645064D01*
X150991165Y-70645260D01*
G37*
G36*
X157471414Y-70597288D02*
G01*
X157534077Y-70659951D01*
X157615249Y-70714188D01*
X157637726Y-70723498D01*
X157638944Y-70725085D01*
X157638179Y-70726933D01*
X157636380Y-70727260D01*
X157618990Y-70721985D01*
X157594999Y-70719622D01*
X157571008Y-70721985D01*
X157547933Y-70728985D01*
X157526669Y-70740350D01*
X157508032Y-70755645D01*
X157492737Y-70774282D01*
X157481372Y-70795546D01*
X157474372Y-70818621D01*
X157471990Y-70842808D01*
X157470825Y-70844434D01*
X157468835Y-70844238D01*
X157468000Y-70842612D01*
X157468000Y-70598702D01*
X157469000Y-70596970D01*
X157471414Y-70597288D01*
G37*
G36*
X145912000Y-70550546D02*
G01*
X145912000Y-70768090D01*
X145911000Y-70769822D01*
X145909000Y-70769822D01*
X145908010Y-70768286D01*
X145905628Y-70744099D01*
X145898628Y-70721024D01*
X145887263Y-70699760D01*
X145871968Y-70681123D01*
X145853331Y-70665828D01*
X145832067Y-70654463D01*
X145808992Y-70647463D01*
X145785001Y-70645100D01*
X145761010Y-70647463D01*
X145743614Y-70652741D01*
X145741666Y-70652287D01*
X145741085Y-70650373D01*
X145742268Y-70648979D01*
X145809761Y-70621022D01*
X145890933Y-70566785D01*
X145908586Y-70549132D01*
X145910518Y-70548614D01*
X145912000Y-70550546D01*
G37*
G36*
X152415573Y-69791329D02*
G01*
X152418051Y-69803785D01*
X152455409Y-69893976D01*
X152509646Y-69975148D01*
X152578674Y-70044176D01*
X152580138Y-70045154D01*
X152581023Y-70046948D01*
X152579912Y-70048611D01*
X152578084Y-70048581D01*
X152562065Y-70040019D01*
X152538990Y-70033019D01*
X152514999Y-70030656D01*
X152491008Y-70033019D01*
X152467933Y-70040019D01*
X152446669Y-70051384D01*
X152428032Y-70066679D01*
X152412737Y-70085316D01*
X152401372Y-70106580D01*
X152394372Y-70129655D01*
X152391990Y-70153842D01*
X152390825Y-70155468D01*
X152388835Y-70155272D01*
X152388000Y-70153646D01*
X152388000Y-69937000D01*
X152290413Y-69937000D01*
X152288681Y-69936000D01*
X152288681Y-69934000D01*
X152290217Y-69933010D01*
X152314404Y-69930628D01*
X152337479Y-69923628D01*
X152358743Y-69912263D01*
X152377380Y-69896968D01*
X152392675Y-69878331D01*
X152404040Y-69857067D01*
X152411040Y-69833992D01*
X152413403Y-69810001D01*
X152411621Y-69791915D01*
X152412446Y-69790093D01*
X152414436Y-69789897D01*
X152415573Y-69791329D01*
G37*
G36*
X144056441Y-69708303D02*
G01*
X144065249Y-69714188D01*
X144155440Y-69751546D01*
X144251190Y-69770592D01*
X144348810Y-69770592D01*
X144444560Y-69751546D01*
X144534751Y-69714188D01*
X144543559Y-69708303D01*
X144545555Y-69708172D01*
X144546666Y-69709835D01*
X144545939Y-69711512D01*
X144531899Y-69723034D01*
X144516604Y-69741671D01*
X144505239Y-69762935D01*
X144498239Y-69786010D01*
X144495876Y-69810001D01*
X144498239Y-69833992D01*
X144505239Y-69857067D01*
X144516604Y-69878331D01*
X144531899Y-69896968D01*
X144550536Y-69912263D01*
X144571800Y-69923628D01*
X144594875Y-69930628D01*
X144619062Y-69933010D01*
X144620688Y-69934175D01*
X144620492Y-69936165D01*
X144618866Y-69937000D01*
X143981134Y-69937000D01*
X143979402Y-69936000D01*
X143979402Y-69934000D01*
X143980938Y-69933010D01*
X144005125Y-69930628D01*
X144028200Y-69923628D01*
X144049464Y-69912263D01*
X144068101Y-69896968D01*
X144083396Y-69878331D01*
X144094761Y-69857067D01*
X144101761Y-69833992D01*
X144104124Y-69810001D01*
X144101761Y-69786010D01*
X144094761Y-69762935D01*
X144083396Y-69741671D01*
X144068101Y-69723034D01*
X144054061Y-69711512D01*
X144053357Y-69709640D01*
X144054625Y-69708094D01*
X144056441Y-69708303D01*
G37*
G36*
X159745576Y-69766813D02*
G01*
X159745903Y-69768612D01*
X159740625Y-69786011D01*
X159738262Y-69810001D01*
X159740625Y-69833993D01*
X159747625Y-69857068D01*
X159758991Y-69878332D01*
X159774286Y-69896968D01*
X159792923Y-69912264D01*
X159814187Y-69923628D01*
X159837262Y-69930628D01*
X159861448Y-69933010D01*
X159863074Y-69934175D01*
X159862878Y-69936165D01*
X159861252Y-69937000D01*
X159643702Y-69937000D01*
X159641970Y-69936000D01*
X159642288Y-69933586D01*
X159659951Y-69915923D01*
X159714188Y-69834751D01*
X159742141Y-69767266D01*
X159743728Y-69766048D01*
X159745576Y-69766813D01*
G37*
G36*
X147049862Y-69766821D02*
G01*
X147050189Y-69768620D01*
X147044914Y-69786010D01*
X147042551Y-69810001D01*
X147044914Y-69833992D01*
X147051914Y-69857067D01*
X147063279Y-69878331D01*
X147078574Y-69896968D01*
X147097211Y-69912263D01*
X147118475Y-69923628D01*
X147141550Y-69930628D01*
X147165737Y-69933010D01*
X147167363Y-69934175D01*
X147167167Y-69936165D01*
X147165541Y-69937000D01*
X146918702Y-69937000D01*
X146916970Y-69936000D01*
X146917288Y-69933586D01*
X146984951Y-69865923D01*
X147039188Y-69784751D01*
X147046427Y-69767274D01*
X147048014Y-69766056D01*
X147049862Y-69766821D01*
G37*
G36*
X146124558Y-69697225D02*
G01*
X146160812Y-69784751D01*
X146215049Y-69865923D01*
X146282712Y-69933586D01*
X146283230Y-69935518D01*
X146281298Y-69937000D01*
X146008530Y-69937000D01*
X146006867Y-69936111D01*
X145959961Y-69865911D01*
X145916287Y-69822237D01*
X145915769Y-69820305D01*
X145917183Y-69818891D01*
X145918970Y-69819277D01*
X145933008Y-69830798D01*
X145954272Y-69842163D01*
X145977347Y-69849163D01*
X146001338Y-69851526D01*
X146025329Y-69849163D01*
X146048404Y-69842163D01*
X146069668Y-69830798D01*
X146088305Y-69815503D01*
X146103600Y-69796866D01*
X146114965Y-69775602D01*
X146121965Y-69752527D01*
X146124328Y-69728536D01*
X146121955Y-69704451D01*
X146120748Y-69698380D01*
X146121391Y-69696486D01*
X146123353Y-69696096D01*
X146124558Y-69697225D01*
G37*
G36*
X158807859Y-69767266D02*
G01*
X158835812Y-69834751D01*
X158890049Y-69915923D01*
X158907712Y-69933586D01*
X158908230Y-69935518D01*
X158906298Y-69937000D01*
X158688748Y-69937000D01*
X158687016Y-69936000D01*
X158687016Y-69934000D01*
X158688552Y-69933010D01*
X158712739Y-69930628D01*
X158735814Y-69923628D01*
X158757078Y-69912263D01*
X158775715Y-69896968D01*
X158791010Y-69878331D01*
X158802375Y-69857067D01*
X158809375Y-69833992D01*
X158811738Y-69810001D01*
X158809375Y-69786010D01*
X158804097Y-69768612D01*
X158804551Y-69766664D01*
X158806465Y-69766083D01*
X158807859Y-69767266D01*
G37*
G36*
X141613115Y-68434000D02*
G01*
X141613115Y-68436000D01*
X141611579Y-68436990D01*
X141587392Y-68439372D01*
X141564317Y-68446372D01*
X141543053Y-68457737D01*
X141524416Y-68473032D01*
X141509121Y-68491669D01*
X141497756Y-68512933D01*
X141490756Y-68536008D01*
X141488393Y-68559999D01*
X141490756Y-68583990D01*
X141497756Y-68607065D01*
X141509121Y-68628329D01*
X141524416Y-68646966D01*
X141538456Y-68658488D01*
X141539160Y-68660360D01*
X141537892Y-68661906D01*
X141536076Y-68661697D01*
X141534751Y-68660812D01*
X141444560Y-68623454D01*
X141348810Y-68604408D01*
X141251190Y-68604408D01*
X141155440Y-68623454D01*
X141065249Y-68660812D01*
X141063924Y-68661697D01*
X141061928Y-68661828D01*
X141060817Y-68660165D01*
X141061544Y-68658488D01*
X141075584Y-68646966D01*
X141090879Y-68628329D01*
X141102244Y-68607065D01*
X141109244Y-68583990D01*
X141111607Y-68559999D01*
X141109244Y-68536008D01*
X141102244Y-68512933D01*
X141090879Y-68491669D01*
X141075584Y-68473032D01*
X141056947Y-68457737D01*
X141035683Y-68446372D01*
X141012608Y-68439372D01*
X140988421Y-68436990D01*
X140986795Y-68435825D01*
X140986991Y-68433835D01*
X140988617Y-68433000D01*
X141611383Y-68433000D01*
X141613115Y-68434000D01*
G37*
G36*
X150991319Y-67410673D02*
G01*
X150992000Y-67412177D01*
X150992000Y-67829175D01*
X150991000Y-67830907D01*
X150989000Y-67830907D01*
X150988010Y-67829371D01*
X150985628Y-67805184D01*
X150978628Y-67782109D01*
X150967263Y-67760845D01*
X150951968Y-67742208D01*
X150933331Y-67726913D01*
X150912067Y-67715548D01*
X150888992Y-67708548D01*
X150865001Y-67706185D01*
X150841010Y-67708548D01*
X150817935Y-67715548D01*
X150801909Y-67724114D01*
X150799910Y-67724048D01*
X150798967Y-67722285D01*
X150799855Y-67720687D01*
X150815923Y-67709951D01*
X150884951Y-67640923D01*
X150939188Y-67559751D01*
X150976546Y-67469560D01*
X150988038Y-67411787D01*
X150989357Y-67410283D01*
X150991319Y-67410673D01*
G37*
G36*
X149851990Y-66990972D02*
G01*
X149854372Y-67015159D01*
X149861372Y-67038234D01*
X149872737Y-67059498D01*
X149888032Y-67078135D01*
X149906669Y-67093430D01*
X149927933Y-67104795D01*
X149951008Y-67111795D01*
X149974999Y-67114158D01*
X149998990Y-67111795D01*
X150022065Y-67104795D01*
X150043329Y-67093430D01*
X150061966Y-67078135D01*
X150073488Y-67064095D01*
X150075360Y-67063391D01*
X150076906Y-67064659D01*
X150076697Y-67066475D01*
X150060812Y-67090249D01*
X150023454Y-67180440D01*
X150004408Y-67276190D01*
X150004408Y-67373810D01*
X150023454Y-67469560D01*
X150060812Y-67559751D01*
X150076697Y-67583525D01*
X150076828Y-67585521D01*
X150075165Y-67586632D01*
X150073488Y-67585905D01*
X150061966Y-67571865D01*
X150043329Y-67556570D01*
X150022065Y-67545205D01*
X149998990Y-67538205D01*
X149974999Y-67535842D01*
X149951008Y-67538205D01*
X149927933Y-67545205D01*
X149906669Y-67556570D01*
X149888032Y-67571865D01*
X149872737Y-67590502D01*
X149861372Y-67611766D01*
X149854372Y-67634841D01*
X149851990Y-67659028D01*
X149850825Y-67660654D01*
X149848835Y-67660458D01*
X149848000Y-67658832D01*
X149848000Y-66991168D01*
X149849000Y-66989436D01*
X149851000Y-66989436D01*
X149851990Y-66990972D01*
G37*
G36*
X138292000Y-67063702D02*
G01*
X138292000Y-67284180D01*
X138291000Y-67285912D01*
X138289000Y-67285912D01*
X138288010Y-67284376D01*
X138285628Y-67260189D01*
X138278628Y-67237114D01*
X138267263Y-67215850D01*
X138251968Y-67197213D01*
X138233331Y-67181918D01*
X138212067Y-67170553D01*
X138188992Y-67163553D01*
X138165001Y-67161190D01*
X138141010Y-67163553D01*
X138123621Y-67168829D01*
X138121673Y-67168375D01*
X138121092Y-67166461D01*
X138122275Y-67165067D01*
X138184751Y-67139188D01*
X138265923Y-67084951D01*
X138288586Y-67062288D01*
X138290518Y-67061770D01*
X138292000Y-67063702D01*
G37*
G36*
X150991165Y-66819199D02*
G01*
X150992000Y-66820825D01*
X150992000Y-67237823D01*
X150991000Y-67239555D01*
X150989000Y-67239555D01*
X150988038Y-67238213D01*
X150976546Y-67180440D01*
X150939188Y-67090249D01*
X150884951Y-67009077D01*
X150815923Y-66940049D01*
X150799854Y-66929312D01*
X150798969Y-66927518D01*
X150800080Y-66925855D01*
X150801908Y-66925885D01*
X150817936Y-66934452D01*
X150841011Y-66941452D01*
X150865002Y-66943815D01*
X150888993Y-66941452D01*
X150912068Y-66934452D01*
X150933331Y-66923086D01*
X150951968Y-66907791D01*
X150967263Y-66889154D01*
X150978628Y-66867890D01*
X150985628Y-66844815D01*
X150988010Y-66820629D01*
X150989175Y-66819003D01*
X150991165Y-66819199D01*
G37*
G36*
X139691990Y-65558993D02*
G01*
X139694372Y-65583180D01*
X139701372Y-65606255D01*
X139712737Y-65627519D01*
X139728032Y-65646156D01*
X139746669Y-65661451D01*
X139767933Y-65672816D01*
X139791008Y-65679816D01*
X139814999Y-65682179D01*
X139838990Y-65679816D01*
X139862065Y-65672816D01*
X139880777Y-65662814D01*
X139882776Y-65662880D01*
X139883719Y-65664643D01*
X139883134Y-65665992D01*
X139815049Y-65734077D01*
X139760812Y-65815249D01*
X139723454Y-65905440D01*
X139704408Y-66001190D01*
X139704408Y-66098810D01*
X139723454Y-66194560D01*
X139760812Y-66284751D01*
X139815049Y-66365923D01*
X139883134Y-66434008D01*
X139883652Y-66435940D01*
X139882238Y-66437354D01*
X139880777Y-66437186D01*
X139862065Y-66427184D01*
X139838990Y-66420184D01*
X139814999Y-66417821D01*
X139791008Y-66420184D01*
X139767933Y-66427184D01*
X139746669Y-66438549D01*
X139728032Y-66453845D01*
X139712737Y-66472482D01*
X139701372Y-66493745D01*
X139694372Y-66516820D01*
X139691990Y-66541007D01*
X139690825Y-66542633D01*
X139688835Y-66542437D01*
X139688000Y-66540811D01*
X139688000Y-65559189D01*
X139689000Y-65557457D01*
X139691000Y-65557457D01*
X139691990Y-65558993D01*
G37*
G36*
X152792086Y-66117960D02*
G01*
X152834077Y-66159951D01*
X152915249Y-66214188D01*
X153005440Y-66251546D01*
X153101190Y-66270592D01*
X153120503Y-66270592D01*
X153122235Y-66271592D01*
X153122235Y-66273592D01*
X153120699Y-66274582D01*
X153102624Y-66276362D01*
X153079549Y-66283362D01*
X153058285Y-66294727D01*
X153039648Y-66310022D01*
X153024353Y-66328659D01*
X153012988Y-66349923D01*
X153005988Y-66372998D01*
X153003625Y-66396989D01*
X153005988Y-66420980D01*
X153012988Y-66444055D01*
X153024353Y-66465319D01*
X153035874Y-66479357D01*
X153036200Y-66481331D01*
X153034654Y-66482599D01*
X153032914Y-66482040D01*
X152990923Y-66440049D01*
X152909751Y-66385812D01*
X152819560Y-66348454D01*
X152723810Y-66329408D01*
X152704497Y-66329408D01*
X152702765Y-66328408D01*
X152702765Y-66326408D01*
X152704301Y-66325418D01*
X152722376Y-66323638D01*
X152745451Y-66316638D01*
X152766715Y-66305273D01*
X152785352Y-66289978D01*
X152800647Y-66271341D01*
X152812012Y-66250077D01*
X152819012Y-66227002D01*
X152821375Y-66203011D01*
X152819012Y-66179020D01*
X152812012Y-66155945D01*
X152800647Y-66134681D01*
X152789126Y-66120643D01*
X152788800Y-66118669D01*
X152790346Y-66117401D01*
X152792086Y-66117960D01*
G37*
G36*
X138002734Y-66032293D02*
G01*
X138002704Y-66034121D01*
X137994141Y-66050140D01*
X137987141Y-66073215D01*
X137984778Y-66097206D01*
X137987141Y-66121197D01*
X137994141Y-66144272D01*
X138005506Y-66165536D01*
X138020801Y-66184173D01*
X138039438Y-66199468D01*
X138060701Y-66210834D01*
X138078092Y-66216109D01*
X138079459Y-66217569D01*
X138078878Y-66219483D01*
X138077121Y-66219985D01*
X137998810Y-66204408D01*
X137901190Y-66204408D01*
X137805440Y-66223454D01*
X137715249Y-66260812D01*
X137634077Y-66315049D01*
X137565049Y-66384077D01*
X137525723Y-66442933D01*
X137523929Y-66443818D01*
X137522266Y-66442707D01*
X137522296Y-66440879D01*
X137530859Y-66424860D01*
X137537859Y-66401785D01*
X137540222Y-66377794D01*
X137537859Y-66353803D01*
X137530859Y-66330728D01*
X137519494Y-66309464D01*
X137504199Y-66290827D01*
X137485562Y-66275532D01*
X137464299Y-66264166D01*
X137446908Y-66258891D01*
X137445541Y-66257431D01*
X137446122Y-66255517D01*
X137447879Y-66255015D01*
X137526190Y-66270592D01*
X137623810Y-66270592D01*
X137719560Y-66251546D01*
X137809751Y-66214188D01*
X137890923Y-66159951D01*
X137959951Y-66090923D01*
X137999277Y-66032067D01*
X138001071Y-66031182D01*
X138002734Y-66032293D01*
G37*
G36*
X140831165Y-65684610D02*
G01*
X140832000Y-65686236D01*
X140832000Y-66413764D01*
X140831000Y-66415496D01*
X140829000Y-66415496D01*
X140828010Y-66413960D01*
X140825628Y-66389773D01*
X140818628Y-66366698D01*
X140807263Y-66345434D01*
X140791968Y-66326797D01*
X140773331Y-66311502D01*
X140752067Y-66300137D01*
X140728992Y-66293137D01*
X140705001Y-66290774D01*
X140681010Y-66293137D01*
X140657935Y-66300137D01*
X140636671Y-66311502D01*
X140618034Y-66326797D01*
X140606509Y-66340841D01*
X140604637Y-66341545D01*
X140603091Y-66340277D01*
X140603300Y-66338461D01*
X140639188Y-66284751D01*
X140676546Y-66194560D01*
X140695592Y-66098810D01*
X140695592Y-66001190D01*
X140676546Y-65905440D01*
X140639188Y-65815249D01*
X140603300Y-65761538D01*
X140603169Y-65759542D01*
X140604832Y-65758431D01*
X140606509Y-65759158D01*
X140618034Y-65773202D01*
X140636671Y-65788498D01*
X140657935Y-65799863D01*
X140681010Y-65806863D01*
X140705001Y-65809226D01*
X140728992Y-65806863D01*
X140752067Y-65799863D01*
X140773330Y-65788498D01*
X140791967Y-65773203D01*
X140807263Y-65754566D01*
X140818628Y-65733302D01*
X140825628Y-65710227D01*
X140828010Y-65686040D01*
X140829175Y-65684414D01*
X140831165Y-65684610D01*
G37*
G36*
X153532000Y-66098702D02*
G01*
X153532000Y-66342612D01*
X153531000Y-66344344D01*
X153529000Y-66344344D01*
X153528010Y-66342808D01*
X153525628Y-66318621D01*
X153518628Y-66295546D01*
X153507263Y-66274282D01*
X153491968Y-66255645D01*
X153473331Y-66240350D01*
X153452067Y-66228985D01*
X153428992Y-66221985D01*
X153405001Y-66219622D01*
X153381010Y-66221985D01*
X153363620Y-66227260D01*
X153361672Y-66226806D01*
X153361091Y-66224892D01*
X153362274Y-66223498D01*
X153384751Y-66214188D01*
X153465923Y-66159951D01*
X153528586Y-66097288D01*
X153530518Y-66096770D01*
X153532000Y-66098702D01*
G37*
G36*
X138291165Y-66114194D02*
G01*
X138292000Y-66115820D01*
X138292000Y-66336298D01*
X138291000Y-66338030D01*
X138288586Y-66337712D01*
X138265923Y-66315049D01*
X138184751Y-66260812D01*
X138122276Y-66234934D01*
X138121058Y-66233347D01*
X138121823Y-66231499D01*
X138123622Y-66231172D01*
X138141008Y-66236447D01*
X138164999Y-66238810D01*
X138188990Y-66236448D01*
X138212065Y-66229448D01*
X138233329Y-66218083D01*
X138251966Y-66202788D01*
X138267262Y-66184151D01*
X138278627Y-66162888D01*
X138285628Y-66139813D01*
X138288010Y-66115624D01*
X138289175Y-66113998D01*
X138291165Y-66114194D01*
G37*
G36*
X155436665Y-65851454D02*
G01*
X155460812Y-65909751D01*
X155515049Y-65990923D01*
X155584077Y-66059951D01*
X155665249Y-66114188D01*
X155755440Y-66151546D01*
X155776121Y-66155660D01*
X155777625Y-66156979D01*
X155777235Y-66158941D01*
X155775535Y-66159612D01*
X155757448Y-66157830D01*
X155733457Y-66160193D01*
X155710382Y-66167193D01*
X155689119Y-66178559D01*
X155670482Y-66193854D01*
X155655187Y-66212491D01*
X155643822Y-66233755D01*
X155636822Y-66256830D01*
X155634459Y-66280821D01*
X155636822Y-66304812D01*
X155642097Y-66322200D01*
X155641643Y-66324148D01*
X155639729Y-66324729D01*
X155638335Y-66323546D01*
X155614188Y-66265249D01*
X155559951Y-66184077D01*
X155490923Y-66115049D01*
X155409751Y-66060812D01*
X155319560Y-66023454D01*
X155298879Y-66019340D01*
X155297375Y-66018021D01*
X155297765Y-66016059D01*
X155299465Y-66015388D01*
X155317552Y-66017170D01*
X155341543Y-66014807D01*
X155364618Y-66007807D01*
X155385881Y-65996441D01*
X155404518Y-65981146D01*
X155419813Y-65962509D01*
X155431178Y-65941245D01*
X155438178Y-65918170D01*
X155440541Y-65894179D01*
X155438178Y-65870188D01*
X155432903Y-65852800D01*
X155433357Y-65850852D01*
X155435271Y-65850271D01*
X155436665Y-65851454D01*
G37*
G36*
X150992000Y-65762136D02*
G01*
X150992000Y-66062583D01*
X150991000Y-66064315D01*
X150989000Y-66064315D01*
X150988010Y-66062779D01*
X150985628Y-66038592D01*
X150978628Y-66015517D01*
X150967263Y-65994253D01*
X150951968Y-65975616D01*
X150933331Y-65960321D01*
X150912067Y-65948956D01*
X150888992Y-65941956D01*
X150865001Y-65939593D01*
X150841010Y-65941956D01*
X150817935Y-65948956D01*
X150801914Y-65957520D01*
X150799915Y-65957454D01*
X150798972Y-65955691D01*
X150799860Y-65954093D01*
X150865923Y-65909951D01*
X150934951Y-65840923D01*
X150988337Y-65761025D01*
X150990131Y-65760140D01*
X150992000Y-65762136D01*
G37*
G36*
X138291165Y-65572425D02*
G01*
X138292000Y-65574051D01*
X138292000Y-65975949D01*
X138291000Y-65977681D01*
X138289000Y-65977681D01*
X138288010Y-65976145D01*
X138285628Y-65951958D01*
X138278628Y-65928883D01*
X138267263Y-65907619D01*
X138251968Y-65888982D01*
X138233331Y-65873687D01*
X138212067Y-65862322D01*
X138188992Y-65855322D01*
X138165001Y-65852959D01*
X138141010Y-65855322D01*
X138117935Y-65862322D01*
X138096671Y-65873687D01*
X138078034Y-65888982D01*
X138062739Y-65907619D01*
X138054173Y-65923646D01*
X138052474Y-65924702D01*
X138050711Y-65923759D01*
X138050561Y-65921938D01*
X138051546Y-65919560D01*
X138070592Y-65823810D01*
X138070592Y-65726190D01*
X138051546Y-65630440D01*
X138050561Y-65628062D01*
X138050822Y-65626080D01*
X138052670Y-65625314D01*
X138054173Y-65626354D01*
X138062739Y-65642381D01*
X138078035Y-65661018D01*
X138096672Y-65676313D01*
X138117935Y-65687678D01*
X138141010Y-65694678D01*
X138165001Y-65697041D01*
X138188993Y-65694678D01*
X138212067Y-65687678D01*
X138233331Y-65676313D01*
X138251968Y-65661017D01*
X138267263Y-65642380D01*
X138278628Y-65621117D01*
X138285628Y-65598042D01*
X138288010Y-65573855D01*
X138289175Y-65572229D01*
X138291165Y-65572425D01*
G37*
G36*
X149851990Y-65287642D02*
G01*
X149854372Y-65311829D01*
X149861372Y-65334904D01*
X149872737Y-65356168D01*
X149888032Y-65374805D01*
X149906669Y-65390100D01*
X149927933Y-65401465D01*
X149951008Y-65408465D01*
X149974999Y-65410828D01*
X149998990Y-65408465D01*
X150022065Y-65401465D01*
X150043329Y-65390100D01*
X150061966Y-65374805D01*
X150077261Y-65356168D01*
X150085824Y-65340147D01*
X150087523Y-65339091D01*
X150089286Y-65340034D01*
X150089436Y-65341855D01*
X150073454Y-65380440D01*
X150054408Y-65476190D01*
X150054408Y-65573810D01*
X150073454Y-65669560D01*
X150089436Y-65708145D01*
X150089175Y-65710128D01*
X150087327Y-65710893D01*
X150085824Y-65709853D01*
X150077261Y-65693832D01*
X150061965Y-65675195D01*
X150043328Y-65659900D01*
X150022065Y-65648535D01*
X149998990Y-65641535D01*
X149974998Y-65639172D01*
X149951007Y-65641535D01*
X149927932Y-65648535D01*
X149906669Y-65659900D01*
X149888032Y-65675196D01*
X149872737Y-65693833D01*
X149861372Y-65715096D01*
X149854372Y-65738171D01*
X149851990Y-65762358D01*
X149850825Y-65763984D01*
X149848835Y-65763788D01*
X149848000Y-65762162D01*
X149848000Y-65287838D01*
X149849000Y-65286106D01*
X149851000Y-65286106D01*
X149851990Y-65287642D01*
G37*
G36*
X153531165Y-65205762D02*
G01*
X153532000Y-65207388D01*
X153532000Y-65451298D01*
X153531000Y-65453030D01*
X153528586Y-65452712D01*
X153465923Y-65390049D01*
X153384751Y-65335812D01*
X153362274Y-65326502D01*
X153361056Y-65324915D01*
X153361821Y-65323067D01*
X153363620Y-65322740D01*
X153381010Y-65328015D01*
X153405001Y-65330378D01*
X153428992Y-65328015D01*
X153452067Y-65321015D01*
X153473331Y-65309650D01*
X153491968Y-65294355D01*
X153507263Y-65275718D01*
X153518628Y-65254454D01*
X153525628Y-65231379D01*
X153528010Y-65207192D01*
X153529175Y-65205566D01*
X153531165Y-65205762D01*
G37*
G36*
X150991165Y-64985791D02*
G01*
X150992000Y-64987417D01*
X150992000Y-65287864D01*
X150991000Y-65289596D01*
X150988337Y-65288975D01*
X150934951Y-65209077D01*
X150865923Y-65140049D01*
X150799861Y-65095908D01*
X150798976Y-65094114D01*
X150800087Y-65092451D01*
X150801915Y-65092481D01*
X150817934Y-65101044D01*
X150841009Y-65108044D01*
X150865000Y-65110407D01*
X150888991Y-65108044D01*
X150912066Y-65101044D01*
X150933330Y-65089679D01*
X150951967Y-65074384D01*
X150967262Y-65055747D01*
X150978628Y-65034484D01*
X150985628Y-65011409D01*
X150988010Y-64987221D01*
X150989175Y-64985595D01*
X150991165Y-64985791D01*
G37*
G36*
X146132859Y-64717266D02*
G01*
X146160812Y-64784751D01*
X146215049Y-64865923D01*
X146232712Y-64883586D01*
X146233230Y-64885518D01*
X146231298Y-64887000D01*
X146013748Y-64887000D01*
X146012016Y-64886000D01*
X146012016Y-64884000D01*
X146013552Y-64883010D01*
X146037739Y-64880628D01*
X146060814Y-64873628D01*
X146082078Y-64862263D01*
X146100715Y-64846968D01*
X146116010Y-64828331D01*
X146127375Y-64807067D01*
X146134375Y-64783992D01*
X146136738Y-64760001D01*
X146134375Y-64736010D01*
X146129097Y-64718612D01*
X146129551Y-64716664D01*
X146131465Y-64716083D01*
X146132859Y-64717266D01*
G37*
G36*
X147070576Y-64716813D02*
G01*
X147070903Y-64718612D01*
X147065625Y-64736011D01*
X147063262Y-64760001D01*
X147065625Y-64783993D01*
X147072625Y-64807068D01*
X147083991Y-64828332D01*
X147099286Y-64846968D01*
X147117923Y-64862264D01*
X147139187Y-64873628D01*
X147162262Y-64880628D01*
X147186448Y-64883010D01*
X147188074Y-64884175D01*
X147187878Y-64886165D01*
X147186252Y-64887000D01*
X146968702Y-64887000D01*
X146966970Y-64886000D01*
X146967288Y-64883586D01*
X146984951Y-64865923D01*
X147039188Y-64784751D01*
X147067141Y-64717266D01*
X147068728Y-64716048D01*
X147070576Y-64716813D01*
G37*
G36*
X143226222Y-62811218D02*
G01*
X143226372Y-62813039D01*
X143198454Y-62880440D01*
X143179408Y-62976190D01*
X143179408Y-63073810D01*
X143198454Y-63169560D01*
X143235812Y-63259751D01*
X143239767Y-63265670D01*
X143239898Y-63267665D01*
X143238235Y-63268777D01*
X143236558Y-63268050D01*
X143225034Y-63254008D01*
X143206397Y-63238712D01*
X143185133Y-63227347D01*
X143162059Y-63220347D01*
X143138067Y-63217984D01*
X143114076Y-63220347D01*
X143091001Y-63227347D01*
X143069738Y-63238712D01*
X143051101Y-63254007D01*
X143035805Y-63272644D01*
X143027240Y-63288669D01*
X143025541Y-63289725D01*
X143023778Y-63288782D01*
X143023628Y-63286961D01*
X143051546Y-63219560D01*
X143070592Y-63123810D01*
X143070592Y-63026190D01*
X143051546Y-62930440D01*
X143014188Y-62840249D01*
X143010233Y-62834330D01*
X143010102Y-62832335D01*
X143011765Y-62831223D01*
X143013442Y-62831950D01*
X143024966Y-62845992D01*
X143043603Y-62861288D01*
X143064867Y-62872653D01*
X143087941Y-62879653D01*
X143111933Y-62882016D01*
X143135924Y-62879653D01*
X143158999Y-62872653D01*
X143180262Y-62861288D01*
X143198899Y-62845993D01*
X143214195Y-62827356D01*
X143222760Y-62811331D01*
X143224459Y-62810275D01*
X143226222Y-62811218D01*
G37*
G36*
X140827944Y-62663030D02*
G01*
X140836506Y-62679050D01*
X140851801Y-62697686D01*
X140870438Y-62712982D01*
X140891702Y-62724347D01*
X140914777Y-62731347D01*
X140938768Y-62733710D01*
X140962759Y-62731347D01*
X140985834Y-62724347D01*
X141007098Y-62712982D01*
X141021136Y-62701461D01*
X141023110Y-62701135D01*
X141024378Y-62702681D01*
X141023819Y-62704421D01*
X140986200Y-62742040D01*
X140931963Y-62823212D01*
X140894605Y-62913403D01*
X140875559Y-63009153D01*
X140875559Y-63106773D01*
X140894605Y-63202523D01*
X140921819Y-63268225D01*
X140921558Y-63270208D01*
X140919710Y-63270973D01*
X140918207Y-63269933D01*
X140909645Y-63253913D01*
X140894350Y-63235277D01*
X140875713Y-63219981D01*
X140854449Y-63208616D01*
X140831374Y-63201616D01*
X140807383Y-63199253D01*
X140783392Y-63201616D01*
X140760317Y-63208616D01*
X140739053Y-63219981D01*
X140725015Y-63231502D01*
X140723041Y-63231828D01*
X140721773Y-63230282D01*
X140722332Y-63228542D01*
X140759951Y-63190923D01*
X140814188Y-63109751D01*
X140851546Y-63019560D01*
X140870592Y-62923810D01*
X140870592Y-62826190D01*
X140851546Y-62730440D01*
X140824332Y-62664738D01*
X140824593Y-62662755D01*
X140826441Y-62661990D01*
X140827944Y-62663030D01*
G37*
G36*
X142097047Y-62933231D02*
G01*
X142097549Y-62934988D01*
X142079408Y-63026190D01*
X142079408Y-63123810D01*
X142094160Y-63197972D01*
X142093517Y-63199866D01*
X142091555Y-63200256D01*
X142090284Y-63198943D01*
X142085008Y-63181551D01*
X142073643Y-63160287D01*
X142058347Y-63141650D01*
X142039711Y-63126355D01*
X142018447Y-63114990D01*
X141995372Y-63107990D01*
X141971381Y-63105627D01*
X141947390Y-63107990D01*
X141924315Y-63114990D01*
X141903051Y-63126355D01*
X141884414Y-63141651D01*
X141869119Y-63160287D01*
X141857753Y-63181552D01*
X141852478Y-63198945D01*
X141851018Y-63200313D01*
X141849104Y-63199732D01*
X141848602Y-63197975D01*
X141866743Y-63106773D01*
X141866743Y-63009153D01*
X141851991Y-62934991D01*
X141852634Y-62933097D01*
X141854596Y-62932707D01*
X141855867Y-62934020D01*
X141861143Y-62951412D01*
X141872508Y-62972676D01*
X141887804Y-62991313D01*
X141906440Y-63006608D01*
X141927704Y-63017973D01*
X141950779Y-63024973D01*
X141974770Y-63027336D01*
X141998761Y-63024973D01*
X142021836Y-63017973D01*
X142043100Y-63006608D01*
X142061737Y-62991312D01*
X142077032Y-62972676D01*
X142088398Y-62951411D01*
X142093673Y-62934018D01*
X142095133Y-62932650D01*
X142097047Y-62933231D01*
G37*
M02*
