G04 #@! TF.GenerationSoftware,KiCad,Pcbnew,5.1.7-a382d34a88~90~ubuntu20.04.1*
G04 #@! TF.CreationDate,2022-01-21T18:15:31-06:00*
G04 #@! TF.ProjectId,strike-controller,73747269-6b65-42d6-936f-6e74726f6c6c,rev?*
G04 #@! TF.SameCoordinates,Original*
G04 #@! TF.FileFunction,Copper,L1,Top*
G04 #@! TF.FilePolarity,Positive*
%FSLAX46Y46*%
G04 Gerber Fmt 4.6, Leading zero omitted, Abs format (unit mm)*
G04 Created by KiCad (PCBNEW 5.1.7-a382d34a88~90~ubuntu20.04.1) date 2022-01-21 18:15:31*
%MOMM*%
%LPD*%
G01*
G04 APERTURE LIST*
G04 #@! TA.AperFunction,ComponentPad*
%ADD10C,2.500000*%
G04 #@! TD*
G04 #@! TA.AperFunction,SMDPad,CuDef*
%ADD11R,0.900000X2.000000*%
G04 #@! TD*
G04 #@! TA.AperFunction,SMDPad,CuDef*
%ADD12R,2.000000X0.900000*%
G04 #@! TD*
G04 #@! TA.AperFunction,SMDPad,CuDef*
%ADD13R,5.000000X5.000000*%
G04 #@! TD*
G04 #@! TA.AperFunction,SMDPad,CuDef*
%ADD14R,0.325000X1.270000*%
G04 #@! TD*
G04 #@! TA.AperFunction,SMDPad,CuDef*
%ADD15R,1.700000X1.000000*%
G04 #@! TD*
G04 #@! TA.AperFunction,SMDPad,CuDef*
%ADD16R,1.500000X2.000000*%
G04 #@! TD*
G04 #@! TA.AperFunction,SMDPad,CuDef*
%ADD17R,3.800000X2.000000*%
G04 #@! TD*
G04 #@! TA.AperFunction,SMDPad,CuDef*
%ADD18R,0.800000X0.900000*%
G04 #@! TD*
G04 #@! TA.AperFunction,SMDPad,CuDef*
%ADD19R,0.900000X0.800000*%
G04 #@! TD*
G04 #@! TA.AperFunction,SMDPad,CuDef*
%ADD20R,1.800000X2.100000*%
G04 #@! TD*
G04 #@! TA.AperFunction,ComponentPad*
%ADD21O,0.890000X1.550000*%
G04 #@! TD*
G04 #@! TA.AperFunction,SMDPad,CuDef*
%ADD22R,1.200000X1.550000*%
G04 #@! TD*
G04 #@! TA.AperFunction,SMDPad,CuDef*
%ADD23R,1.500000X1.550000*%
G04 #@! TD*
G04 #@! TA.AperFunction,ComponentPad*
%ADD24O,1.250000X0.950000*%
G04 #@! TD*
G04 #@! TA.AperFunction,SMDPad,CuDef*
%ADD25R,0.400000X1.350000*%
G04 #@! TD*
G04 #@! TA.AperFunction,SMDPad,CuDef*
%ADD26R,1.100000X1.100000*%
G04 #@! TD*
G04 #@! TA.AperFunction,ViaPad*
%ADD27C,0.600000*%
G04 #@! TD*
G04 #@! TA.AperFunction,ViaPad*
%ADD28C,0.800000*%
G04 #@! TD*
G04 #@! TA.AperFunction,ViaPad*
%ADD29C,1.000000*%
G04 #@! TD*
G04 #@! TA.AperFunction,Conductor*
%ADD30C,0.250000*%
G04 #@! TD*
G04 #@! TA.AperFunction,Conductor*
%ADD31C,0.400000*%
G04 #@! TD*
G04 #@! TA.AperFunction,Conductor*
%ADD32C,0.500000*%
G04 #@! TD*
G04 #@! TA.AperFunction,Conductor*
%ADD33C,1.000000*%
G04 #@! TD*
G04 APERTURE END LIST*
G04 #@! TA.AperFunction,SMDPad,CuDef*
G36*
G01*
X133425000Y-112680000D02*
X133425000Y-112370000D01*
G75*
G02*
X133580000Y-112215000I155000J0D01*
G01*
X134005000Y-112215000D01*
G75*
G02*
X134160000Y-112370000I0J-155000D01*
G01*
X134160000Y-112680000D01*
G75*
G02*
X134005000Y-112835000I-155000J0D01*
G01*
X133580000Y-112835000D01*
G75*
G02*
X133425000Y-112680000I0J155000D01*
G01*
G37*
G04 #@! TD.AperFunction*
G04 #@! TA.AperFunction,SMDPad,CuDef*
G36*
G01*
X132290000Y-112680000D02*
X132290000Y-112370000D01*
G75*
G02*
X132445000Y-112215000I155000J0D01*
G01*
X132870000Y-112215000D01*
G75*
G02*
X133025000Y-112370000I0J-155000D01*
G01*
X133025000Y-112680000D01*
G75*
G02*
X132870000Y-112835000I-155000J0D01*
G01*
X132445000Y-112835000D01*
G75*
G02*
X132290000Y-112680000I0J155000D01*
G01*
G37*
G04 #@! TD.AperFunction*
G04 #@! TA.AperFunction,SMDPad,CuDef*
G36*
G01*
X131887500Y-102175000D02*
X131412500Y-102175000D01*
G75*
G02*
X131175000Y-101937500I0J237500D01*
G01*
X131175000Y-101337500D01*
G75*
G02*
X131412500Y-101100000I237500J0D01*
G01*
X131887500Y-101100000D01*
G75*
G02*
X132125000Y-101337500I0J-237500D01*
G01*
X132125000Y-101937500D01*
G75*
G02*
X131887500Y-102175000I-237500J0D01*
G01*
G37*
G04 #@! TD.AperFunction*
G04 #@! TA.AperFunction,SMDPad,CuDef*
G36*
G01*
X131887500Y-103900000D02*
X131412500Y-103900000D01*
G75*
G02*
X131175000Y-103662500I0J237500D01*
G01*
X131175000Y-103062500D01*
G75*
G02*
X131412500Y-102825000I237500J0D01*
G01*
X131887500Y-102825000D01*
G75*
G02*
X132125000Y-103062500I0J-237500D01*
G01*
X132125000Y-103662500D01*
G75*
G02*
X131887500Y-103900000I-237500J0D01*
G01*
G37*
G04 #@! TD.AperFunction*
G04 #@! TA.AperFunction,SMDPad,CuDef*
G36*
G01*
X133492500Y-111360000D02*
X133492500Y-111040000D01*
G75*
G02*
X133652500Y-110880000I160000J0D01*
G01*
X134047500Y-110880000D01*
G75*
G02*
X134207500Y-111040000I0J-160000D01*
G01*
X134207500Y-111360000D01*
G75*
G02*
X134047500Y-111520000I-160000J0D01*
G01*
X133652500Y-111520000D01*
G75*
G02*
X133492500Y-111360000I0J160000D01*
G01*
G37*
G04 #@! TD.AperFunction*
G04 #@! TA.AperFunction,SMDPad,CuDef*
G36*
G01*
X132297500Y-111360000D02*
X132297500Y-111040000D01*
G75*
G02*
X132457500Y-110880000I160000J0D01*
G01*
X132852500Y-110880000D01*
G75*
G02*
X133012500Y-111040000I0J-160000D01*
G01*
X133012500Y-111360000D01*
G75*
G02*
X132852500Y-111520000I-160000J0D01*
G01*
X132457500Y-111520000D01*
G75*
G02*
X132297500Y-111360000I0J160000D01*
G01*
G37*
G04 #@! TD.AperFunction*
D10*
X160500000Y-115925000D03*
X160500000Y-56950000D03*
X132525000Y-115900000D03*
X132500000Y-56950000D03*
G04 #@! TA.AperFunction,SMDPad,CuDef*
G36*
G01*
X149177500Y-102940000D02*
X149177500Y-102620000D01*
G75*
G02*
X149337500Y-102460000I160000J0D01*
G01*
X149732500Y-102460000D01*
G75*
G02*
X149892500Y-102620000I0J-160000D01*
G01*
X149892500Y-102940000D01*
G75*
G02*
X149732500Y-103100000I-160000J0D01*
G01*
X149337500Y-103100000D01*
G75*
G02*
X149177500Y-102940000I0J160000D01*
G01*
G37*
G04 #@! TD.AperFunction*
G04 #@! TA.AperFunction,SMDPad,CuDef*
G36*
G01*
X147982500Y-102940000D02*
X147982500Y-102620000D01*
G75*
G02*
X148142500Y-102460000I160000J0D01*
G01*
X148537500Y-102460000D01*
G75*
G02*
X148697500Y-102620000I0J-160000D01*
G01*
X148697500Y-102940000D01*
G75*
G02*
X148537500Y-103100000I-160000J0D01*
G01*
X148142500Y-103100000D01*
G75*
G02*
X147982500Y-102940000I0J160000D01*
G01*
G37*
G04 #@! TD.AperFunction*
G04 #@! TA.AperFunction,SMDPad,CuDef*
G36*
G01*
X135925000Y-65000000D02*
X135925000Y-63800000D01*
G75*
G02*
X136125000Y-63600000I200000J0D01*
G01*
X136525000Y-63600000D01*
G75*
G02*
X136725000Y-63800000I0J-200000D01*
G01*
X136725000Y-65000000D01*
G75*
G02*
X136525000Y-65200000I-200000J0D01*
G01*
X136125000Y-65200000D01*
G75*
G02*
X135925000Y-65000000I0J200000D01*
G01*
G37*
G04 #@! TD.AperFunction*
G04 #@! TA.AperFunction,SMDPad,CuDef*
G36*
G01*
X137175000Y-65000000D02*
X137175000Y-63800000D01*
G75*
G02*
X137375000Y-63600000I200000J0D01*
G01*
X137775000Y-63600000D01*
G75*
G02*
X137975000Y-63800000I0J-200000D01*
G01*
X137975000Y-65000000D01*
G75*
G02*
X137775000Y-65200000I-200000J0D01*
G01*
X137375000Y-65200000D01*
G75*
G02*
X137175000Y-65000000I0J200000D01*
G01*
G37*
G04 #@! TD.AperFunction*
G04 #@! TA.AperFunction,SMDPad,CuDef*
G36*
G01*
X138425000Y-65000000D02*
X138425000Y-63800000D01*
G75*
G02*
X138625000Y-63600000I200000J0D01*
G01*
X139025000Y-63600000D01*
G75*
G02*
X139225000Y-63800000I0J-200000D01*
G01*
X139225000Y-65000000D01*
G75*
G02*
X139025000Y-65200000I-200000J0D01*
G01*
X138625000Y-65200000D01*
G75*
G02*
X138425000Y-65000000I0J200000D01*
G01*
G37*
G04 #@! TD.AperFunction*
G04 #@! TA.AperFunction,SMDPad,CuDef*
G36*
G01*
X139675000Y-65000000D02*
X139675000Y-63800000D01*
G75*
G02*
X139875000Y-63600000I200000J0D01*
G01*
X140275000Y-63600000D01*
G75*
G02*
X140475000Y-63800000I0J-200000D01*
G01*
X140475000Y-65000000D01*
G75*
G02*
X140275000Y-65200000I-200000J0D01*
G01*
X139875000Y-65200000D01*
G75*
G02*
X139675000Y-65000000I0J200000D01*
G01*
G37*
G04 #@! TD.AperFunction*
G04 #@! TA.AperFunction,SMDPad,CuDef*
G36*
G01*
X140925000Y-65000000D02*
X140925000Y-63800000D01*
G75*
G02*
X141125000Y-63600000I200000J0D01*
G01*
X141525000Y-63600000D01*
G75*
G02*
X141725000Y-63800000I0J-200000D01*
G01*
X141725000Y-65000000D01*
G75*
G02*
X141525000Y-65200000I-200000J0D01*
G01*
X141125000Y-65200000D01*
G75*
G02*
X140925000Y-65000000I0J200000D01*
G01*
G37*
G04 #@! TD.AperFunction*
G04 #@! TA.AperFunction,SMDPad,CuDef*
G36*
G01*
X142175000Y-65000000D02*
X142175000Y-63800000D01*
G75*
G02*
X142375000Y-63600000I200000J0D01*
G01*
X142775000Y-63600000D01*
G75*
G02*
X142975000Y-63800000I0J-200000D01*
G01*
X142975000Y-65000000D01*
G75*
G02*
X142775000Y-65200000I-200000J0D01*
G01*
X142375000Y-65200000D01*
G75*
G02*
X142175000Y-65000000I0J200000D01*
G01*
G37*
G04 #@! TD.AperFunction*
G04 #@! TA.AperFunction,SMDPad,CuDef*
G36*
G01*
X132725000Y-68550000D02*
X132725000Y-66050000D01*
G75*
G02*
X132975000Y-65800000I250000J0D01*
G01*
X134575000Y-65800000D01*
G75*
G02*
X134825000Y-66050000I0J-250000D01*
G01*
X134825000Y-68550000D01*
G75*
G02*
X134575000Y-68800000I-250000J0D01*
G01*
X132975000Y-68800000D01*
G75*
G02*
X132725000Y-68550000I0J250000D01*
G01*
G37*
G04 #@! TD.AperFunction*
G04 #@! TA.AperFunction,SMDPad,CuDef*
G36*
G01*
X144075000Y-68550000D02*
X144075000Y-66050000D01*
G75*
G02*
X144325000Y-65800000I250000J0D01*
G01*
X145925000Y-65800000D01*
G75*
G02*
X146175000Y-66050000I0J-250000D01*
G01*
X146175000Y-68550000D01*
G75*
G02*
X145925000Y-68800000I-250000J0D01*
G01*
X144325000Y-68800000D01*
G75*
G02*
X144075000Y-68550000I0J250000D01*
G01*
G37*
G04 #@! TD.AperFunction*
G04 #@! TA.AperFunction,SMDPad,CuDef*
G36*
G01*
X150450000Y-58100000D02*
X150450000Y-56900000D01*
G75*
G02*
X150650000Y-56700000I200000J0D01*
G01*
X151050000Y-56700000D01*
G75*
G02*
X151250000Y-56900000I0J-200000D01*
G01*
X151250000Y-58100000D01*
G75*
G02*
X151050000Y-58300000I-200000J0D01*
G01*
X150650000Y-58300000D01*
G75*
G02*
X150450000Y-58100000I0J200000D01*
G01*
G37*
G04 #@! TD.AperFunction*
G04 #@! TA.AperFunction,SMDPad,CuDef*
G36*
G01*
X151700000Y-58100000D02*
X151700000Y-56900000D01*
G75*
G02*
X151900000Y-56700000I200000J0D01*
G01*
X152300000Y-56700000D01*
G75*
G02*
X152500000Y-56900000I0J-200000D01*
G01*
X152500000Y-58100000D01*
G75*
G02*
X152300000Y-58300000I-200000J0D01*
G01*
X151900000Y-58300000D01*
G75*
G02*
X151700000Y-58100000I0J200000D01*
G01*
G37*
G04 #@! TD.AperFunction*
G04 #@! TA.AperFunction,SMDPad,CuDef*
G36*
G01*
X152950000Y-58100000D02*
X152950000Y-56900000D01*
G75*
G02*
X153150000Y-56700000I200000J0D01*
G01*
X153550000Y-56700000D01*
G75*
G02*
X153750000Y-56900000I0J-200000D01*
G01*
X153750000Y-58100000D01*
G75*
G02*
X153550000Y-58300000I-200000J0D01*
G01*
X153150000Y-58300000D01*
G75*
G02*
X152950000Y-58100000I0J200000D01*
G01*
G37*
G04 #@! TD.AperFunction*
G04 #@! TA.AperFunction,SMDPad,CuDef*
G36*
G01*
X154200000Y-58100000D02*
X154200000Y-56900000D01*
G75*
G02*
X154400000Y-56700000I200000J0D01*
G01*
X154800000Y-56700000D01*
G75*
G02*
X155000000Y-56900000I0J-200000D01*
G01*
X155000000Y-58100000D01*
G75*
G02*
X154800000Y-58300000I-200000J0D01*
G01*
X154400000Y-58300000D01*
G75*
G02*
X154200000Y-58100000I0J200000D01*
G01*
G37*
G04 #@! TD.AperFunction*
G04 #@! TA.AperFunction,SMDPad,CuDef*
G36*
G01*
X155450000Y-58100000D02*
X155450000Y-56900000D01*
G75*
G02*
X155650000Y-56700000I200000J0D01*
G01*
X156050000Y-56700000D01*
G75*
G02*
X156250000Y-56900000I0J-200000D01*
G01*
X156250000Y-58100000D01*
G75*
G02*
X156050000Y-58300000I-200000J0D01*
G01*
X155650000Y-58300000D01*
G75*
G02*
X155450000Y-58100000I0J200000D01*
G01*
G37*
G04 #@! TD.AperFunction*
G04 #@! TA.AperFunction,SMDPad,CuDef*
G36*
G01*
X156700000Y-58100000D02*
X156700000Y-56900000D01*
G75*
G02*
X156900000Y-56700000I200000J0D01*
G01*
X157300000Y-56700000D01*
G75*
G02*
X157500000Y-56900000I0J-200000D01*
G01*
X157500000Y-58100000D01*
G75*
G02*
X157300000Y-58300000I-200000J0D01*
G01*
X156900000Y-58300000D01*
G75*
G02*
X156700000Y-58100000I0J200000D01*
G01*
G37*
G04 #@! TD.AperFunction*
G04 #@! TA.AperFunction,SMDPad,CuDef*
G36*
G01*
X147250000Y-61650000D02*
X147250000Y-59150000D01*
G75*
G02*
X147500000Y-58900000I250000J0D01*
G01*
X149100000Y-58900000D01*
G75*
G02*
X149350000Y-59150000I0J-250000D01*
G01*
X149350000Y-61650000D01*
G75*
G02*
X149100000Y-61900000I-250000J0D01*
G01*
X147500000Y-61900000D01*
G75*
G02*
X147250000Y-61650000I0J250000D01*
G01*
G37*
G04 #@! TD.AperFunction*
G04 #@! TA.AperFunction,SMDPad,CuDef*
G36*
G01*
X158600000Y-61650000D02*
X158600000Y-59150000D01*
G75*
G02*
X158850000Y-58900000I250000J0D01*
G01*
X160450000Y-58900000D01*
G75*
G02*
X160700000Y-59150000I0J-250000D01*
G01*
X160700000Y-61650000D01*
G75*
G02*
X160450000Y-61900000I-250000J0D01*
G01*
X158850000Y-61900000D01*
G75*
G02*
X158600000Y-61650000I0J250000D01*
G01*
G37*
G04 #@! TD.AperFunction*
G04 #@! TA.AperFunction,SMDPad,CuDef*
G36*
G01*
X150450000Y-65000000D02*
X150450000Y-63800000D01*
G75*
G02*
X150650000Y-63600000I200000J0D01*
G01*
X151050000Y-63600000D01*
G75*
G02*
X151250000Y-63800000I0J-200000D01*
G01*
X151250000Y-65000000D01*
G75*
G02*
X151050000Y-65200000I-200000J0D01*
G01*
X150650000Y-65200000D01*
G75*
G02*
X150450000Y-65000000I0J200000D01*
G01*
G37*
G04 #@! TD.AperFunction*
G04 #@! TA.AperFunction,SMDPad,CuDef*
G36*
G01*
X151700000Y-65000000D02*
X151700000Y-63800000D01*
G75*
G02*
X151900000Y-63600000I200000J0D01*
G01*
X152300000Y-63600000D01*
G75*
G02*
X152500000Y-63800000I0J-200000D01*
G01*
X152500000Y-65000000D01*
G75*
G02*
X152300000Y-65200000I-200000J0D01*
G01*
X151900000Y-65200000D01*
G75*
G02*
X151700000Y-65000000I0J200000D01*
G01*
G37*
G04 #@! TD.AperFunction*
G04 #@! TA.AperFunction,SMDPad,CuDef*
G36*
G01*
X152950000Y-65000000D02*
X152950000Y-63800000D01*
G75*
G02*
X153150000Y-63600000I200000J0D01*
G01*
X153550000Y-63600000D01*
G75*
G02*
X153750000Y-63800000I0J-200000D01*
G01*
X153750000Y-65000000D01*
G75*
G02*
X153550000Y-65200000I-200000J0D01*
G01*
X153150000Y-65200000D01*
G75*
G02*
X152950000Y-65000000I0J200000D01*
G01*
G37*
G04 #@! TD.AperFunction*
G04 #@! TA.AperFunction,SMDPad,CuDef*
G36*
G01*
X154200000Y-65000000D02*
X154200000Y-63800000D01*
G75*
G02*
X154400000Y-63600000I200000J0D01*
G01*
X154800000Y-63600000D01*
G75*
G02*
X155000000Y-63800000I0J-200000D01*
G01*
X155000000Y-65000000D01*
G75*
G02*
X154800000Y-65200000I-200000J0D01*
G01*
X154400000Y-65200000D01*
G75*
G02*
X154200000Y-65000000I0J200000D01*
G01*
G37*
G04 #@! TD.AperFunction*
G04 #@! TA.AperFunction,SMDPad,CuDef*
G36*
G01*
X155450000Y-65000000D02*
X155450000Y-63800000D01*
G75*
G02*
X155650000Y-63600000I200000J0D01*
G01*
X156050000Y-63600000D01*
G75*
G02*
X156250000Y-63800000I0J-200000D01*
G01*
X156250000Y-65000000D01*
G75*
G02*
X156050000Y-65200000I-200000J0D01*
G01*
X155650000Y-65200000D01*
G75*
G02*
X155450000Y-65000000I0J200000D01*
G01*
G37*
G04 #@! TD.AperFunction*
G04 #@! TA.AperFunction,SMDPad,CuDef*
G36*
G01*
X156700000Y-65000000D02*
X156700000Y-63800000D01*
G75*
G02*
X156900000Y-63600000I200000J0D01*
G01*
X157300000Y-63600000D01*
G75*
G02*
X157500000Y-63800000I0J-200000D01*
G01*
X157500000Y-65000000D01*
G75*
G02*
X157300000Y-65200000I-200000J0D01*
G01*
X156900000Y-65200000D01*
G75*
G02*
X156700000Y-65000000I0J200000D01*
G01*
G37*
G04 #@! TD.AperFunction*
G04 #@! TA.AperFunction,SMDPad,CuDef*
G36*
G01*
X147250000Y-68550000D02*
X147250000Y-66050000D01*
G75*
G02*
X147500000Y-65800000I250000J0D01*
G01*
X149100000Y-65800000D01*
G75*
G02*
X149350000Y-66050000I0J-250000D01*
G01*
X149350000Y-68550000D01*
G75*
G02*
X149100000Y-68800000I-250000J0D01*
G01*
X147500000Y-68800000D01*
G75*
G02*
X147250000Y-68550000I0J250000D01*
G01*
G37*
G04 #@! TD.AperFunction*
G04 #@! TA.AperFunction,SMDPad,CuDef*
G36*
G01*
X158600000Y-68550000D02*
X158600000Y-66050000D01*
G75*
G02*
X158850000Y-65800000I250000J0D01*
G01*
X160450000Y-65800000D01*
G75*
G02*
X160700000Y-66050000I0J-250000D01*
G01*
X160700000Y-68550000D01*
G75*
G02*
X160450000Y-68800000I-250000J0D01*
G01*
X158850000Y-68800000D01*
G75*
G02*
X158600000Y-68550000I0J250000D01*
G01*
G37*
G04 #@! TD.AperFunction*
G04 #@! TA.AperFunction,SMDPad,CuDef*
G36*
G01*
X135925000Y-58100000D02*
X135925000Y-56900000D01*
G75*
G02*
X136125000Y-56700000I200000J0D01*
G01*
X136525000Y-56700000D01*
G75*
G02*
X136725000Y-56900000I0J-200000D01*
G01*
X136725000Y-58100000D01*
G75*
G02*
X136525000Y-58300000I-200000J0D01*
G01*
X136125000Y-58300000D01*
G75*
G02*
X135925000Y-58100000I0J200000D01*
G01*
G37*
G04 #@! TD.AperFunction*
G04 #@! TA.AperFunction,SMDPad,CuDef*
G36*
G01*
X137175000Y-58100000D02*
X137175000Y-56900000D01*
G75*
G02*
X137375000Y-56700000I200000J0D01*
G01*
X137775000Y-56700000D01*
G75*
G02*
X137975000Y-56900000I0J-200000D01*
G01*
X137975000Y-58100000D01*
G75*
G02*
X137775000Y-58300000I-200000J0D01*
G01*
X137375000Y-58300000D01*
G75*
G02*
X137175000Y-58100000I0J200000D01*
G01*
G37*
G04 #@! TD.AperFunction*
G04 #@! TA.AperFunction,SMDPad,CuDef*
G36*
G01*
X138425000Y-58100000D02*
X138425000Y-56900000D01*
G75*
G02*
X138625000Y-56700000I200000J0D01*
G01*
X139025000Y-56700000D01*
G75*
G02*
X139225000Y-56900000I0J-200000D01*
G01*
X139225000Y-58100000D01*
G75*
G02*
X139025000Y-58300000I-200000J0D01*
G01*
X138625000Y-58300000D01*
G75*
G02*
X138425000Y-58100000I0J200000D01*
G01*
G37*
G04 #@! TD.AperFunction*
G04 #@! TA.AperFunction,SMDPad,CuDef*
G36*
G01*
X139675000Y-58100000D02*
X139675000Y-56900000D01*
G75*
G02*
X139875000Y-56700000I200000J0D01*
G01*
X140275000Y-56700000D01*
G75*
G02*
X140475000Y-56900000I0J-200000D01*
G01*
X140475000Y-58100000D01*
G75*
G02*
X140275000Y-58300000I-200000J0D01*
G01*
X139875000Y-58300000D01*
G75*
G02*
X139675000Y-58100000I0J200000D01*
G01*
G37*
G04 #@! TD.AperFunction*
G04 #@! TA.AperFunction,SMDPad,CuDef*
G36*
G01*
X140925000Y-58100000D02*
X140925000Y-56900000D01*
G75*
G02*
X141125000Y-56700000I200000J0D01*
G01*
X141525000Y-56700000D01*
G75*
G02*
X141725000Y-56900000I0J-200000D01*
G01*
X141725000Y-58100000D01*
G75*
G02*
X141525000Y-58300000I-200000J0D01*
G01*
X141125000Y-58300000D01*
G75*
G02*
X140925000Y-58100000I0J200000D01*
G01*
G37*
G04 #@! TD.AperFunction*
G04 #@! TA.AperFunction,SMDPad,CuDef*
G36*
G01*
X142175000Y-58100000D02*
X142175000Y-56900000D01*
G75*
G02*
X142375000Y-56700000I200000J0D01*
G01*
X142775000Y-56700000D01*
G75*
G02*
X142975000Y-56900000I0J-200000D01*
G01*
X142975000Y-58100000D01*
G75*
G02*
X142775000Y-58300000I-200000J0D01*
G01*
X142375000Y-58300000D01*
G75*
G02*
X142175000Y-58100000I0J200000D01*
G01*
G37*
G04 #@! TD.AperFunction*
G04 #@! TA.AperFunction,SMDPad,CuDef*
G36*
G01*
X132725000Y-61650000D02*
X132725000Y-59150000D01*
G75*
G02*
X132975000Y-58900000I250000J0D01*
G01*
X134575000Y-58900000D01*
G75*
G02*
X134825000Y-59150000I0J-250000D01*
G01*
X134825000Y-61650000D01*
G75*
G02*
X134575000Y-61900000I-250000J0D01*
G01*
X132975000Y-61900000D01*
G75*
G02*
X132725000Y-61650000I0J250000D01*
G01*
G37*
G04 #@! TD.AperFunction*
G04 #@! TA.AperFunction,SMDPad,CuDef*
G36*
G01*
X144075000Y-61650000D02*
X144075000Y-59150000D01*
G75*
G02*
X144325000Y-58900000I250000J0D01*
G01*
X145925000Y-58900000D01*
G75*
G02*
X146175000Y-59150000I0J-250000D01*
G01*
X146175000Y-61650000D01*
G75*
G02*
X145925000Y-61900000I-250000J0D01*
G01*
X144325000Y-61900000D01*
G75*
G02*
X144075000Y-61650000I0J250000D01*
G01*
G37*
G04 #@! TD.AperFunction*
D11*
X138600000Y-78000000D03*
X139870000Y-78000000D03*
X141140000Y-78000000D03*
X142410000Y-78000000D03*
X143680000Y-78000000D03*
X144950000Y-78000000D03*
X146220000Y-78000000D03*
X147490000Y-78000000D03*
X148760000Y-78000000D03*
X150030000Y-78000000D03*
X151300000Y-78000000D03*
X152570000Y-78000000D03*
X153840000Y-78000000D03*
X155110000Y-78000000D03*
D12*
X156110000Y-80785000D03*
X156110000Y-82055000D03*
X156110000Y-83325000D03*
X156110000Y-84595000D03*
X156110000Y-85865000D03*
X156110000Y-87135000D03*
X156110000Y-88405000D03*
X156110000Y-89675000D03*
X156110000Y-90945000D03*
X156110000Y-92215000D03*
D11*
X155110000Y-95000000D03*
X153840000Y-95000000D03*
X152570000Y-95000000D03*
X151300000Y-95000000D03*
X150030000Y-95000000D03*
X148760000Y-95000000D03*
X147490000Y-95000000D03*
X146220000Y-95000000D03*
X144950000Y-95000000D03*
X143680000Y-95000000D03*
X142410000Y-95000000D03*
X141140000Y-95000000D03*
X139870000Y-95000000D03*
X138600000Y-95000000D03*
D13*
X146100000Y-87500000D03*
D14*
X133650000Y-102280500D03*
X134300000Y-102280500D03*
X134950000Y-102280500D03*
X135600000Y-102280500D03*
X136250000Y-102280500D03*
X136900000Y-102280500D03*
X137550000Y-102280500D03*
X138200000Y-102280500D03*
X138850000Y-102280500D03*
X139500000Y-102280500D03*
X139500000Y-109519500D03*
X138850000Y-109519500D03*
X138200000Y-109519500D03*
X137550000Y-109519500D03*
X136900000Y-109519500D03*
X136250000Y-109519500D03*
X135600000Y-109519500D03*
X134950000Y-109519500D03*
X134300000Y-109519500D03*
X133650000Y-109519500D03*
G04 #@! TA.AperFunction,SMDPad,CuDef*
G36*
G01*
X144082500Y-103045000D02*
X144082500Y-103355000D01*
G75*
G02*
X143927500Y-103510000I-155000J0D01*
G01*
X143502500Y-103510000D01*
G75*
G02*
X143347500Y-103355000I0J155000D01*
G01*
X143347500Y-103045000D01*
G75*
G02*
X143502500Y-102890000I155000J0D01*
G01*
X143927500Y-102890000D01*
G75*
G02*
X144082500Y-103045000I0J-155000D01*
G01*
G37*
G04 #@! TD.AperFunction*
G04 #@! TA.AperFunction,SMDPad,CuDef*
G36*
G01*
X145217500Y-103045000D02*
X145217500Y-103355000D01*
G75*
G02*
X145062500Y-103510000I-155000J0D01*
G01*
X144637500Y-103510000D01*
G75*
G02*
X144482500Y-103355000I0J155000D01*
G01*
X144482500Y-103045000D01*
G75*
G02*
X144637500Y-102890000I155000J0D01*
G01*
X145062500Y-102890000D01*
G75*
G02*
X145217500Y-103045000I0J-155000D01*
G01*
G37*
G04 #@! TD.AperFunction*
G04 #@! TA.AperFunction,SMDPad,CuDef*
G36*
G01*
X138907500Y-96895000D02*
X138907500Y-97205000D01*
G75*
G02*
X138752500Y-97360000I-155000J0D01*
G01*
X138327500Y-97360000D01*
G75*
G02*
X138172500Y-97205000I0J155000D01*
G01*
X138172500Y-96895000D01*
G75*
G02*
X138327500Y-96740000I155000J0D01*
G01*
X138752500Y-96740000D01*
G75*
G02*
X138907500Y-96895000I0J-155000D01*
G01*
G37*
G04 #@! TD.AperFunction*
G04 #@! TA.AperFunction,SMDPad,CuDef*
G36*
G01*
X140042500Y-96895000D02*
X140042500Y-97205000D01*
G75*
G02*
X139887500Y-97360000I-155000J0D01*
G01*
X139462500Y-97360000D01*
G75*
G02*
X139307500Y-97205000I0J155000D01*
G01*
X139307500Y-96895000D01*
G75*
G02*
X139462500Y-96740000I155000J0D01*
G01*
X139887500Y-96740000D01*
G75*
G02*
X140042500Y-96895000I0J-155000D01*
G01*
G37*
G04 #@! TD.AperFunction*
G04 #@! TA.AperFunction,SMDPad,CuDef*
G36*
G01*
X160490000Y-112835000D02*
X160490000Y-112515000D01*
G75*
G02*
X160650000Y-112355000I160000J0D01*
G01*
X161045000Y-112355000D01*
G75*
G02*
X161205000Y-112515000I0J-160000D01*
G01*
X161205000Y-112835000D01*
G75*
G02*
X161045000Y-112995000I-160000J0D01*
G01*
X160650000Y-112995000D01*
G75*
G02*
X160490000Y-112835000I0J160000D01*
G01*
G37*
G04 #@! TD.AperFunction*
G04 #@! TA.AperFunction,SMDPad,CuDef*
G36*
G01*
X159295000Y-112835000D02*
X159295000Y-112515000D01*
G75*
G02*
X159455000Y-112355000I160000J0D01*
G01*
X159850000Y-112355000D01*
G75*
G02*
X160010000Y-112515000I0J-160000D01*
G01*
X160010000Y-112835000D01*
G75*
G02*
X159850000Y-112995000I-160000J0D01*
G01*
X159455000Y-112995000D01*
G75*
G02*
X159295000Y-112835000I0J160000D01*
G01*
G37*
G04 #@! TD.AperFunction*
G04 #@! TA.AperFunction,SMDPad,CuDef*
G36*
G01*
X144600000Y-112617500D02*
X144920000Y-112617500D01*
G75*
G02*
X145080000Y-112777500I0J-160000D01*
G01*
X145080000Y-113172500D01*
G75*
G02*
X144920000Y-113332500I-160000J0D01*
G01*
X144600000Y-113332500D01*
G75*
G02*
X144440000Y-113172500I0J160000D01*
G01*
X144440000Y-112777500D01*
G75*
G02*
X144600000Y-112617500I160000J0D01*
G01*
G37*
G04 #@! TD.AperFunction*
G04 #@! TA.AperFunction,SMDPad,CuDef*
G36*
G01*
X144600000Y-111422500D02*
X144920000Y-111422500D01*
G75*
G02*
X145080000Y-111582500I0J-160000D01*
G01*
X145080000Y-111977500D01*
G75*
G02*
X144920000Y-112137500I-160000J0D01*
G01*
X144600000Y-112137500D01*
G75*
G02*
X144440000Y-111977500I0J160000D01*
G01*
X144440000Y-111582500D01*
G75*
G02*
X144600000Y-111422500I160000J0D01*
G01*
G37*
G04 #@! TD.AperFunction*
D15*
X153550000Y-110060000D03*
X147250000Y-110060000D03*
X153550000Y-106260000D03*
X147250000Y-106260000D03*
X153550000Y-116475000D03*
X147250000Y-116475000D03*
X153550000Y-112675000D03*
X147250000Y-112675000D03*
D16*
X160950000Y-104355000D03*
X156350000Y-104355000D03*
X158650000Y-104355000D03*
D17*
X158650000Y-110655000D03*
G04 #@! TA.AperFunction,SMDPad,CuDef*
G36*
G01*
X160512500Y-90410000D02*
X160512500Y-90090000D01*
G75*
G02*
X160672500Y-89930000I160000J0D01*
G01*
X161067500Y-89930000D01*
G75*
G02*
X161227500Y-90090000I0J-160000D01*
G01*
X161227500Y-90410000D01*
G75*
G02*
X161067500Y-90570000I-160000J0D01*
G01*
X160672500Y-90570000D01*
G75*
G02*
X160512500Y-90410000I0J160000D01*
G01*
G37*
G04 #@! TD.AperFunction*
G04 #@! TA.AperFunction,SMDPad,CuDef*
G36*
G01*
X159317500Y-90410000D02*
X159317500Y-90090000D01*
G75*
G02*
X159477500Y-89930000I160000J0D01*
G01*
X159872500Y-89930000D01*
G75*
G02*
X160032500Y-90090000I0J-160000D01*
G01*
X160032500Y-90410000D01*
G75*
G02*
X159872500Y-90570000I-160000J0D01*
G01*
X159477500Y-90570000D01*
G75*
G02*
X159317500Y-90410000I0J160000D01*
G01*
G37*
G04 #@! TD.AperFunction*
G04 #@! TA.AperFunction,SMDPad,CuDef*
G36*
G01*
X159667500Y-83940000D02*
X159667500Y-83620000D01*
G75*
G02*
X159827500Y-83460000I160000J0D01*
G01*
X160222500Y-83460000D01*
G75*
G02*
X160382500Y-83620000I0J-160000D01*
G01*
X160382500Y-83940000D01*
G75*
G02*
X160222500Y-84100000I-160000J0D01*
G01*
X159827500Y-84100000D01*
G75*
G02*
X159667500Y-83940000I0J160000D01*
G01*
G37*
G04 #@! TD.AperFunction*
G04 #@! TA.AperFunction,SMDPad,CuDef*
G36*
G01*
X158472500Y-83940000D02*
X158472500Y-83620000D01*
G75*
G02*
X158632500Y-83460000I160000J0D01*
G01*
X159027500Y-83460000D01*
G75*
G02*
X159187500Y-83620000I0J-160000D01*
G01*
X159187500Y-83940000D01*
G75*
G02*
X159027500Y-84100000I-160000J0D01*
G01*
X158632500Y-84100000D01*
G75*
G02*
X158472500Y-83940000I0J160000D01*
G01*
G37*
G04 #@! TD.AperFunction*
G04 #@! TA.AperFunction,SMDPad,CuDef*
G36*
G01*
X159962500Y-85440000D02*
X159962500Y-85760000D01*
G75*
G02*
X159802500Y-85920000I-160000J0D01*
G01*
X159407500Y-85920000D01*
G75*
G02*
X159247500Y-85760000I0J160000D01*
G01*
X159247500Y-85440000D01*
G75*
G02*
X159407500Y-85280000I160000J0D01*
G01*
X159802500Y-85280000D01*
G75*
G02*
X159962500Y-85440000I0J-160000D01*
G01*
G37*
G04 #@! TD.AperFunction*
G04 #@! TA.AperFunction,SMDPad,CuDef*
G36*
G01*
X161157500Y-85440000D02*
X161157500Y-85760000D01*
G75*
G02*
X160997500Y-85920000I-160000J0D01*
G01*
X160602500Y-85920000D01*
G75*
G02*
X160442500Y-85760000I0J160000D01*
G01*
X160442500Y-85440000D01*
G75*
G02*
X160602500Y-85280000I160000J0D01*
G01*
X160997500Y-85280000D01*
G75*
G02*
X161157500Y-85440000I0J-160000D01*
G01*
G37*
G04 #@! TD.AperFunction*
G04 #@! TA.AperFunction,SMDPad,CuDef*
G36*
G01*
X161362500Y-97235000D02*
X161362500Y-96915000D01*
G75*
G02*
X161522500Y-96755000I160000J0D01*
G01*
X161917500Y-96755000D01*
G75*
G02*
X162077500Y-96915000I0J-160000D01*
G01*
X162077500Y-97235000D01*
G75*
G02*
X161917500Y-97395000I-160000J0D01*
G01*
X161522500Y-97395000D01*
G75*
G02*
X161362500Y-97235000I0J160000D01*
G01*
G37*
G04 #@! TD.AperFunction*
G04 #@! TA.AperFunction,SMDPad,CuDef*
G36*
G01*
X160167500Y-97235000D02*
X160167500Y-96915000D01*
G75*
G02*
X160327500Y-96755000I160000J0D01*
G01*
X160722500Y-96755000D01*
G75*
G02*
X160882500Y-96915000I0J-160000D01*
G01*
X160882500Y-97235000D01*
G75*
G02*
X160722500Y-97395000I-160000J0D01*
G01*
X160327500Y-97395000D01*
G75*
G02*
X160167500Y-97235000I0J160000D01*
G01*
G37*
G04 #@! TD.AperFunction*
G04 #@! TA.AperFunction,SMDPad,CuDef*
G36*
G01*
X157210000Y-75272500D02*
X157530000Y-75272500D01*
G75*
G02*
X157690000Y-75432500I0J-160000D01*
G01*
X157690000Y-75827500D01*
G75*
G02*
X157530000Y-75987500I-160000J0D01*
G01*
X157210000Y-75987500D01*
G75*
G02*
X157050000Y-75827500I0J160000D01*
G01*
X157050000Y-75432500D01*
G75*
G02*
X157210000Y-75272500I160000J0D01*
G01*
G37*
G04 #@! TD.AperFunction*
G04 #@! TA.AperFunction,SMDPad,CuDef*
G36*
G01*
X157210000Y-74077500D02*
X157530000Y-74077500D01*
G75*
G02*
X157690000Y-74237500I0J-160000D01*
G01*
X157690000Y-74632500D01*
G75*
G02*
X157530000Y-74792500I-160000J0D01*
G01*
X157210000Y-74792500D01*
G75*
G02*
X157050000Y-74632500I0J160000D01*
G01*
X157050000Y-74237500D01*
G75*
G02*
X157210000Y-74077500I160000J0D01*
G01*
G37*
G04 #@! TD.AperFunction*
G04 #@! TA.AperFunction,SMDPad,CuDef*
G36*
G01*
X160740000Y-92640000D02*
X160740000Y-92320000D01*
G75*
G02*
X160900000Y-92160000I160000J0D01*
G01*
X161295000Y-92160000D01*
G75*
G02*
X161455000Y-92320000I0J-160000D01*
G01*
X161455000Y-92640000D01*
G75*
G02*
X161295000Y-92800000I-160000J0D01*
G01*
X160900000Y-92800000D01*
G75*
G02*
X160740000Y-92640000I0J160000D01*
G01*
G37*
G04 #@! TD.AperFunction*
G04 #@! TA.AperFunction,SMDPad,CuDef*
G36*
G01*
X159545000Y-92640000D02*
X159545000Y-92320000D01*
G75*
G02*
X159705000Y-92160000I160000J0D01*
G01*
X160100000Y-92160000D01*
G75*
G02*
X160260000Y-92320000I0J-160000D01*
G01*
X160260000Y-92640000D01*
G75*
G02*
X160100000Y-92800000I-160000J0D01*
G01*
X159705000Y-92800000D01*
G75*
G02*
X159545000Y-92640000I0J160000D01*
G01*
G37*
G04 #@! TD.AperFunction*
G04 #@! TA.AperFunction,SMDPad,CuDef*
G36*
G01*
X155427500Y-97090000D02*
X155427500Y-97410000D01*
G75*
G02*
X155267500Y-97570000I-160000J0D01*
G01*
X154872500Y-97570000D01*
G75*
G02*
X154712500Y-97410000I0J160000D01*
G01*
X154712500Y-97090000D01*
G75*
G02*
X154872500Y-96930000I160000J0D01*
G01*
X155267500Y-96930000D01*
G75*
G02*
X155427500Y-97090000I0J-160000D01*
G01*
G37*
G04 #@! TD.AperFunction*
G04 #@! TA.AperFunction,SMDPad,CuDef*
G36*
G01*
X154232500Y-97090000D02*
X154232500Y-97410000D01*
G75*
G02*
X154072500Y-97570000I-160000J0D01*
G01*
X153677500Y-97570000D01*
G75*
G02*
X153517500Y-97410000I0J160000D01*
G01*
X153517500Y-97090000D01*
G75*
G02*
X153677500Y-96930000I160000J0D01*
G01*
X154072500Y-96930000D01*
G75*
G02*
X154232500Y-97090000I0J-160000D01*
G01*
G37*
G04 #@! TD.AperFunction*
G04 #@! TA.AperFunction,SMDPad,CuDef*
G36*
G01*
X151340000Y-75137500D02*
X151660000Y-75137500D01*
G75*
G02*
X151820000Y-75297500I0J-160000D01*
G01*
X151820000Y-75692500D01*
G75*
G02*
X151660000Y-75852500I-160000J0D01*
G01*
X151340000Y-75852500D01*
G75*
G02*
X151180000Y-75692500I0J160000D01*
G01*
X151180000Y-75297500D01*
G75*
G02*
X151340000Y-75137500I160000J0D01*
G01*
G37*
G04 #@! TD.AperFunction*
G04 #@! TA.AperFunction,SMDPad,CuDef*
G36*
G01*
X151340000Y-73942500D02*
X151660000Y-73942500D01*
G75*
G02*
X151820000Y-74102500I0J-160000D01*
G01*
X151820000Y-74497500D01*
G75*
G02*
X151660000Y-74657500I-160000J0D01*
G01*
X151340000Y-74657500D01*
G75*
G02*
X151180000Y-74497500I0J160000D01*
G01*
X151180000Y-74102500D01*
G75*
G02*
X151340000Y-73942500I160000J0D01*
G01*
G37*
G04 #@! TD.AperFunction*
G04 #@! TA.AperFunction,SMDPad,CuDef*
G36*
G01*
X151400000Y-101880000D02*
X151400000Y-102200000D01*
G75*
G02*
X151240000Y-102360000I-160000J0D01*
G01*
X150845000Y-102360000D01*
G75*
G02*
X150685000Y-102200000I0J160000D01*
G01*
X150685000Y-101880000D01*
G75*
G02*
X150845000Y-101720000I160000J0D01*
G01*
X151240000Y-101720000D01*
G75*
G02*
X151400000Y-101880000I0J-160000D01*
G01*
G37*
G04 #@! TD.AperFunction*
G04 #@! TA.AperFunction,SMDPad,CuDef*
G36*
G01*
X152595000Y-101880000D02*
X152595000Y-102200000D01*
G75*
G02*
X152435000Y-102360000I-160000J0D01*
G01*
X152040000Y-102360000D01*
G75*
G02*
X151880000Y-102200000I0J160000D01*
G01*
X151880000Y-101880000D01*
G75*
G02*
X152040000Y-101720000I160000J0D01*
G01*
X152435000Y-101720000D01*
G75*
G02*
X152595000Y-101880000I0J-160000D01*
G01*
G37*
G04 #@! TD.AperFunction*
G04 #@! TA.AperFunction,SMDPad,CuDef*
G36*
G01*
X153325000Y-102160000D02*
X153325000Y-101840000D01*
G75*
G02*
X153485000Y-101680000I160000J0D01*
G01*
X153880000Y-101680000D01*
G75*
G02*
X154040000Y-101840000I0J-160000D01*
G01*
X154040000Y-102160000D01*
G75*
G02*
X153880000Y-102320000I-160000J0D01*
G01*
X153485000Y-102320000D01*
G75*
G02*
X153325000Y-102160000I0J160000D01*
G01*
G37*
G04 #@! TD.AperFunction*
G04 #@! TA.AperFunction,SMDPad,CuDef*
G36*
G01*
X154520000Y-102160000D02*
X154520000Y-101840000D01*
G75*
G02*
X154680000Y-101680000I160000J0D01*
G01*
X155075000Y-101680000D01*
G75*
G02*
X155235000Y-101840000I0J-160000D01*
G01*
X155235000Y-102160000D01*
G75*
G02*
X155075000Y-102320000I-160000J0D01*
G01*
X154680000Y-102320000D01*
G75*
G02*
X154520000Y-102160000I0J160000D01*
G01*
G37*
G04 #@! TD.AperFunction*
G04 #@! TA.AperFunction,SMDPad,CuDef*
G36*
G01*
X149522500Y-97435000D02*
X149522500Y-97115000D01*
G75*
G02*
X149682500Y-96955000I160000J0D01*
G01*
X150077500Y-96955000D01*
G75*
G02*
X150237500Y-97115000I0J-160000D01*
G01*
X150237500Y-97435000D01*
G75*
G02*
X150077500Y-97595000I-160000J0D01*
G01*
X149682500Y-97595000D01*
G75*
G02*
X149522500Y-97435000I0J160000D01*
G01*
G37*
G04 #@! TD.AperFunction*
G04 #@! TA.AperFunction,SMDPad,CuDef*
G36*
G01*
X150717500Y-97435000D02*
X150717500Y-97115000D01*
G75*
G02*
X150877500Y-96955000I160000J0D01*
G01*
X151272500Y-96955000D01*
G75*
G02*
X151432500Y-97115000I0J-160000D01*
G01*
X151432500Y-97435000D01*
G75*
G02*
X151272500Y-97595000I-160000J0D01*
G01*
X150877500Y-97595000D01*
G75*
G02*
X150717500Y-97435000I0J160000D01*
G01*
G37*
G04 #@! TD.AperFunction*
G04 #@! TA.AperFunction,SMDPad,CuDef*
G36*
G01*
X145115000Y-75162500D02*
X145435000Y-75162500D01*
G75*
G02*
X145595000Y-75322500I0J-160000D01*
G01*
X145595000Y-75717500D01*
G75*
G02*
X145435000Y-75877500I-160000J0D01*
G01*
X145115000Y-75877500D01*
G75*
G02*
X144955000Y-75717500I0J160000D01*
G01*
X144955000Y-75322500D01*
G75*
G02*
X145115000Y-75162500I160000J0D01*
G01*
G37*
G04 #@! TD.AperFunction*
G04 #@! TA.AperFunction,SMDPad,CuDef*
G36*
G01*
X145115000Y-73967500D02*
X145435000Y-73967500D01*
G75*
G02*
X145595000Y-74127500I0J-160000D01*
G01*
X145595000Y-74522500D01*
G75*
G02*
X145435000Y-74682500I-160000J0D01*
G01*
X145115000Y-74682500D01*
G75*
G02*
X144955000Y-74522500I0J160000D01*
G01*
X144955000Y-74127500D01*
G75*
G02*
X145115000Y-73967500I160000J0D01*
G01*
G37*
G04 #@! TD.AperFunction*
G04 #@! TA.AperFunction,SMDPad,CuDef*
G36*
G01*
X159402500Y-101840000D02*
X159402500Y-102160000D01*
G75*
G02*
X159242500Y-102320000I-160000J0D01*
G01*
X158847500Y-102320000D01*
G75*
G02*
X158687500Y-102160000I0J160000D01*
G01*
X158687500Y-101840000D01*
G75*
G02*
X158847500Y-101680000I160000J0D01*
G01*
X159242500Y-101680000D01*
G75*
G02*
X159402500Y-101840000I0J-160000D01*
G01*
G37*
G04 #@! TD.AperFunction*
G04 #@! TA.AperFunction,SMDPad,CuDef*
G36*
G01*
X158207500Y-101840000D02*
X158207500Y-102160000D01*
G75*
G02*
X158047500Y-102320000I-160000J0D01*
G01*
X157652500Y-102320000D01*
G75*
G02*
X157492500Y-102160000I0J160000D01*
G01*
X157492500Y-101840000D01*
G75*
G02*
X157652500Y-101680000I160000J0D01*
G01*
X158047500Y-101680000D01*
G75*
G02*
X158207500Y-101840000I0J-160000D01*
G01*
G37*
G04 #@! TD.AperFunction*
G04 #@! TA.AperFunction,SMDPad,CuDef*
G36*
G01*
X159305000Y-97090000D02*
X159305000Y-97410000D01*
G75*
G02*
X159145000Y-97570000I-160000J0D01*
G01*
X158750000Y-97570000D01*
G75*
G02*
X158590000Y-97410000I0J160000D01*
G01*
X158590000Y-97090000D01*
G75*
G02*
X158750000Y-96930000I160000J0D01*
G01*
X159145000Y-96930000D01*
G75*
G02*
X159305000Y-97090000I0J-160000D01*
G01*
G37*
G04 #@! TD.AperFunction*
G04 #@! TA.AperFunction,SMDPad,CuDef*
G36*
G01*
X158110000Y-97090000D02*
X158110000Y-97410000D01*
G75*
G02*
X157950000Y-97570000I-160000J0D01*
G01*
X157555000Y-97570000D01*
G75*
G02*
X157395000Y-97410000I0J160000D01*
G01*
X157395000Y-97090000D01*
G75*
G02*
X157555000Y-96930000I160000J0D01*
G01*
X157950000Y-96930000D01*
G75*
G02*
X158110000Y-97090000I0J-160000D01*
G01*
G37*
G04 #@! TD.AperFunction*
G04 #@! TA.AperFunction,SMDPad,CuDef*
G36*
G01*
X138790000Y-75167500D02*
X139110000Y-75167500D01*
G75*
G02*
X139270000Y-75327500I0J-160000D01*
G01*
X139270000Y-75722500D01*
G75*
G02*
X139110000Y-75882500I-160000J0D01*
G01*
X138790000Y-75882500D01*
G75*
G02*
X138630000Y-75722500I0J160000D01*
G01*
X138630000Y-75327500D01*
G75*
G02*
X138790000Y-75167500I160000J0D01*
G01*
G37*
G04 #@! TD.AperFunction*
G04 #@! TA.AperFunction,SMDPad,CuDef*
G36*
G01*
X138790000Y-73972500D02*
X139110000Y-73972500D01*
G75*
G02*
X139270000Y-74132500I0J-160000D01*
G01*
X139270000Y-74527500D01*
G75*
G02*
X139110000Y-74687500I-160000J0D01*
G01*
X138790000Y-74687500D01*
G75*
G02*
X138630000Y-74527500I0J160000D01*
G01*
X138630000Y-74132500D01*
G75*
G02*
X138790000Y-73972500I160000J0D01*
G01*
G37*
G04 #@! TD.AperFunction*
G04 #@! TA.AperFunction,SMDPad,CuDef*
G36*
G01*
X132035000Y-106532500D02*
X131715000Y-106532500D01*
G75*
G02*
X131555000Y-106372500I0J160000D01*
G01*
X131555000Y-105977500D01*
G75*
G02*
X131715000Y-105817500I160000J0D01*
G01*
X132035000Y-105817500D01*
G75*
G02*
X132195000Y-105977500I0J-160000D01*
G01*
X132195000Y-106372500D01*
G75*
G02*
X132035000Y-106532500I-160000J0D01*
G01*
G37*
G04 #@! TD.AperFunction*
G04 #@! TA.AperFunction,SMDPad,CuDef*
G36*
G01*
X132035000Y-105337500D02*
X131715000Y-105337500D01*
G75*
G02*
X131555000Y-105177500I0J160000D01*
G01*
X131555000Y-104782500D01*
G75*
G02*
X131715000Y-104622500I160000J0D01*
G01*
X132035000Y-104622500D01*
G75*
G02*
X132195000Y-104782500I0J-160000D01*
G01*
X132195000Y-105177500D01*
G75*
G02*
X132035000Y-105337500I-160000J0D01*
G01*
G37*
G04 #@! TD.AperFunction*
G04 #@! TA.AperFunction,SMDPad,CuDef*
G36*
G01*
X143592500Y-97435000D02*
X143592500Y-97115000D01*
G75*
G02*
X143752500Y-96955000I160000J0D01*
G01*
X144147500Y-96955000D01*
G75*
G02*
X144307500Y-97115000I0J-160000D01*
G01*
X144307500Y-97435000D01*
G75*
G02*
X144147500Y-97595000I-160000J0D01*
G01*
X143752500Y-97595000D01*
G75*
G02*
X143592500Y-97435000I0J160000D01*
G01*
G37*
G04 #@! TD.AperFunction*
G04 #@! TA.AperFunction,SMDPad,CuDef*
G36*
G01*
X142397500Y-97435000D02*
X142397500Y-97115000D01*
G75*
G02*
X142557500Y-96955000I160000J0D01*
G01*
X142952500Y-96955000D01*
G75*
G02*
X143112500Y-97115000I0J-160000D01*
G01*
X143112500Y-97435000D01*
G75*
G02*
X142952500Y-97595000I-160000J0D01*
G01*
X142557500Y-97595000D01*
G75*
G02*
X142397500Y-97435000I0J160000D01*
G01*
G37*
G04 #@! TD.AperFunction*
G04 #@! TA.AperFunction,SMDPad,CuDef*
G36*
G01*
X146722500Y-97135000D02*
X146722500Y-97455000D01*
G75*
G02*
X146562500Y-97615000I-160000J0D01*
G01*
X146167500Y-97615000D01*
G75*
G02*
X146007500Y-97455000I0J160000D01*
G01*
X146007500Y-97135000D01*
G75*
G02*
X146167500Y-96975000I160000J0D01*
G01*
X146562500Y-96975000D01*
G75*
G02*
X146722500Y-97135000I0J-160000D01*
G01*
G37*
G04 #@! TD.AperFunction*
G04 #@! TA.AperFunction,SMDPad,CuDef*
G36*
G01*
X147917500Y-97135000D02*
X147917500Y-97455000D01*
G75*
G02*
X147757500Y-97615000I-160000J0D01*
G01*
X147362500Y-97615000D01*
G75*
G02*
X147202500Y-97455000I0J160000D01*
G01*
X147202500Y-97135000D01*
G75*
G02*
X147362500Y-96975000I160000J0D01*
G01*
X147757500Y-96975000D01*
G75*
G02*
X147917500Y-97135000I0J-160000D01*
G01*
G37*
G04 #@! TD.AperFunction*
G04 #@! TA.AperFunction,SMDPad,CuDef*
G36*
G01*
X132035000Y-107935000D02*
X131715000Y-107935000D01*
G75*
G02*
X131555000Y-107775000I0J160000D01*
G01*
X131555000Y-107380000D01*
G75*
G02*
X131715000Y-107220000I160000J0D01*
G01*
X132035000Y-107220000D01*
G75*
G02*
X132195000Y-107380000I0J-160000D01*
G01*
X132195000Y-107775000D01*
G75*
G02*
X132035000Y-107935000I-160000J0D01*
G01*
G37*
G04 #@! TD.AperFunction*
G04 #@! TA.AperFunction,SMDPad,CuDef*
G36*
G01*
X132035000Y-109130000D02*
X131715000Y-109130000D01*
G75*
G02*
X131555000Y-108970000I0J160000D01*
G01*
X131555000Y-108575000D01*
G75*
G02*
X131715000Y-108415000I160000J0D01*
G01*
X132035000Y-108415000D01*
G75*
G02*
X132195000Y-108575000I0J-160000D01*
G01*
X132195000Y-108970000D01*
G75*
G02*
X132035000Y-109130000I-160000J0D01*
G01*
G37*
G04 #@! TD.AperFunction*
D18*
X159930000Y-80420000D03*
X160880000Y-82420000D03*
X158980000Y-82420000D03*
X160265000Y-88930000D03*
X159315000Y-86930000D03*
X161215000Y-86930000D03*
X159820000Y-73440000D03*
X160770000Y-75440000D03*
X158870000Y-75440000D03*
X160510000Y-95740000D03*
X159560000Y-93740000D03*
X161460000Y-93740000D03*
D19*
X155000000Y-74275000D03*
X153000000Y-75225000D03*
X153000000Y-73325000D03*
D18*
X153360000Y-100600000D03*
X155260000Y-100600000D03*
X154310000Y-98600000D03*
X151650000Y-98605000D03*
X149750000Y-98605000D03*
X150700000Y-100605000D03*
D19*
X148745000Y-74275000D03*
X146745000Y-75225000D03*
X146745000Y-73325000D03*
D18*
X159350000Y-98655000D03*
X157450000Y-98655000D03*
X158400000Y-100655000D03*
D19*
X142345000Y-74280000D03*
X140345000Y-75230000D03*
X140345000Y-73330000D03*
D18*
X143350000Y-100600000D03*
X142400000Y-98600000D03*
X144300000Y-98600000D03*
X146975000Y-100600000D03*
X146025000Y-98600000D03*
X147925000Y-98600000D03*
D20*
X141820000Y-108080000D03*
X141820000Y-105180000D03*
X144120000Y-105180000D03*
X144120000Y-108080000D03*
D21*
X142600000Y-115175000D03*
X135600000Y-115175000D03*
D22*
X142000000Y-115175000D03*
X136200000Y-115175000D03*
D23*
X140100000Y-115175000D03*
X138100000Y-115175000D03*
D24*
X141600000Y-112475000D03*
X136600000Y-112475000D03*
D25*
X140400000Y-112475000D03*
X139750000Y-112475000D03*
X139100000Y-112475000D03*
X138450000Y-112475000D03*
X137800000Y-112475000D03*
D26*
X158500000Y-78270000D03*
X161300000Y-78270000D03*
X157960000Y-71310000D03*
X160760000Y-71310000D03*
X154975000Y-71225000D03*
X152175000Y-71225000D03*
X148650000Y-71250000D03*
X145850000Y-71250000D03*
X142250000Y-71275000D03*
X139450000Y-71275000D03*
G04 #@! TA.AperFunction,SMDPad,CuDef*
G36*
G01*
X156475000Y-112687500D02*
X156475000Y-113162500D01*
G75*
G02*
X156237500Y-113400000I-237500J0D01*
G01*
X155662500Y-113400000D01*
G75*
G02*
X155425000Y-113162500I0J237500D01*
G01*
X155425000Y-112687500D01*
G75*
G02*
X155662500Y-112450000I237500J0D01*
G01*
X156237500Y-112450000D01*
G75*
G02*
X156475000Y-112687500I0J-237500D01*
G01*
G37*
G04 #@! TD.AperFunction*
G04 #@! TA.AperFunction,SMDPad,CuDef*
G36*
G01*
X158225000Y-112687500D02*
X158225000Y-113162500D01*
G75*
G02*
X157987500Y-113400000I-237500J0D01*
G01*
X157412500Y-113400000D01*
G75*
G02*
X157175000Y-113162500I0J237500D01*
G01*
X157175000Y-112687500D01*
G75*
G02*
X157412500Y-112450000I237500J0D01*
G01*
X157987500Y-112450000D01*
G75*
G02*
X158225000Y-112687500I0J-237500D01*
G01*
G37*
G04 #@! TD.AperFunction*
G04 #@! TA.AperFunction,SMDPad,CuDef*
G36*
G01*
X149875000Y-104437500D02*
X149875000Y-103962500D01*
G75*
G02*
X150112500Y-103725000I237500J0D01*
G01*
X150687500Y-103725000D01*
G75*
G02*
X150925000Y-103962500I0J-237500D01*
G01*
X150925000Y-104437500D01*
G75*
G02*
X150687500Y-104675000I-237500J0D01*
G01*
X150112500Y-104675000D01*
G75*
G02*
X149875000Y-104437500I0J237500D01*
G01*
G37*
G04 #@! TD.AperFunction*
G04 #@! TA.AperFunction,SMDPad,CuDef*
G36*
G01*
X148125000Y-104437500D02*
X148125000Y-103962500D01*
G75*
G02*
X148362500Y-103725000I237500J0D01*
G01*
X148937500Y-103725000D01*
G75*
G02*
X149175000Y-103962500I0J-237500D01*
G01*
X149175000Y-104437500D01*
G75*
G02*
X148937500Y-104675000I-237500J0D01*
G01*
X148362500Y-104675000D01*
G75*
G02*
X148125000Y-104437500I0J237500D01*
G01*
G37*
G04 #@! TD.AperFunction*
G04 #@! TA.AperFunction,SMDPad,CuDef*
G36*
G01*
X144242500Y-115720000D02*
X144717500Y-115720000D01*
G75*
G02*
X144955000Y-115957500I0J-237500D01*
G01*
X144955000Y-116532500D01*
G75*
G02*
X144717500Y-116770000I-237500J0D01*
G01*
X144242500Y-116770000D01*
G75*
G02*
X144005000Y-116532500I0J237500D01*
G01*
X144005000Y-115957500D01*
G75*
G02*
X144242500Y-115720000I237500J0D01*
G01*
G37*
G04 #@! TD.AperFunction*
G04 #@! TA.AperFunction,SMDPad,CuDef*
G36*
G01*
X144242500Y-113970000D02*
X144717500Y-113970000D01*
G75*
G02*
X144955000Y-114207500I0J-237500D01*
G01*
X144955000Y-114782500D01*
G75*
G02*
X144717500Y-115020000I-237500J0D01*
G01*
X144242500Y-115020000D01*
G75*
G02*
X144005000Y-114782500I0J237500D01*
G01*
X144005000Y-114207500D01*
G75*
G02*
X144242500Y-113970000I237500J0D01*
G01*
G37*
G04 #@! TD.AperFunction*
G04 #@! TA.AperFunction,SMDPad,CuDef*
G36*
G01*
X156475000Y-114387500D02*
X156475000Y-114862500D01*
G75*
G02*
X156237500Y-115100000I-237500J0D01*
G01*
X155637500Y-115100000D01*
G75*
G02*
X155400000Y-114862500I0J237500D01*
G01*
X155400000Y-114387500D01*
G75*
G02*
X155637500Y-114150000I237500J0D01*
G01*
X156237500Y-114150000D01*
G75*
G02*
X156475000Y-114387500I0J-237500D01*
G01*
G37*
G04 #@! TD.AperFunction*
G04 #@! TA.AperFunction,SMDPad,CuDef*
G36*
G01*
X158200000Y-114387500D02*
X158200000Y-114862500D01*
G75*
G02*
X157962500Y-115100000I-237500J0D01*
G01*
X157362500Y-115100000D01*
G75*
G02*
X157125000Y-114862500I0J237500D01*
G01*
X157125000Y-114387500D01*
G75*
G02*
X157362500Y-114150000I237500J0D01*
G01*
X157962500Y-114150000D01*
G75*
G02*
X158200000Y-114387500I0J-237500D01*
G01*
G37*
G04 #@! TD.AperFunction*
G04 #@! TA.AperFunction,SMDPad,CuDef*
G36*
G01*
X152912500Y-103587500D02*
X152912500Y-104062500D01*
G75*
G02*
X152675000Y-104300000I-237500J0D01*
G01*
X152075000Y-104300000D01*
G75*
G02*
X151837500Y-104062500I0J237500D01*
G01*
X151837500Y-103587500D01*
G75*
G02*
X152075000Y-103350000I237500J0D01*
G01*
X152675000Y-103350000D01*
G75*
G02*
X152912500Y-103587500I0J-237500D01*
G01*
G37*
G04 #@! TD.AperFunction*
G04 #@! TA.AperFunction,SMDPad,CuDef*
G36*
G01*
X154637500Y-103587500D02*
X154637500Y-104062500D01*
G75*
G02*
X154400000Y-104300000I-237500J0D01*
G01*
X153800000Y-104300000D01*
G75*
G02*
X153562500Y-104062500I0J237500D01*
G01*
X153562500Y-103587500D01*
G75*
G02*
X153800000Y-103350000I237500J0D01*
G01*
X154400000Y-103350000D01*
G75*
G02*
X154637500Y-103587500I0J-237500D01*
G01*
G37*
G04 #@! TD.AperFunction*
G04 #@! TA.AperFunction,SMDPad,CuDef*
G36*
G01*
X141962500Y-103360000D02*
X141962500Y-103050000D01*
G75*
G02*
X142117500Y-102895000I155000J0D01*
G01*
X142542500Y-102895000D01*
G75*
G02*
X142697500Y-103050000I0J-155000D01*
G01*
X142697500Y-103360000D01*
G75*
G02*
X142542500Y-103515000I-155000J0D01*
G01*
X142117500Y-103515000D01*
G75*
G02*
X141962500Y-103360000I0J155000D01*
G01*
G37*
G04 #@! TD.AperFunction*
G04 #@! TA.AperFunction,SMDPad,CuDef*
G36*
G01*
X140827500Y-103360000D02*
X140827500Y-103050000D01*
G75*
G02*
X140982500Y-102895000I155000J0D01*
G01*
X141407500Y-102895000D01*
G75*
G02*
X141562500Y-103050000I0J-155000D01*
G01*
X141562500Y-103360000D01*
G75*
G02*
X141407500Y-103515000I-155000J0D01*
G01*
X140982500Y-103515000D01*
G75*
G02*
X140827500Y-103360000I0J155000D01*
G01*
G37*
G04 #@! TD.AperFunction*
G04 #@! TA.AperFunction,SMDPad,CuDef*
G36*
G01*
X142032500Y-110355000D02*
X142032500Y-110045000D01*
G75*
G02*
X142187500Y-109890000I155000J0D01*
G01*
X142612500Y-109890000D01*
G75*
G02*
X142767500Y-110045000I0J-155000D01*
G01*
X142767500Y-110355000D01*
G75*
G02*
X142612500Y-110510000I-155000J0D01*
G01*
X142187500Y-110510000D01*
G75*
G02*
X142032500Y-110355000I0J155000D01*
G01*
G37*
G04 #@! TD.AperFunction*
G04 #@! TA.AperFunction,SMDPad,CuDef*
G36*
G01*
X140897500Y-110355000D02*
X140897500Y-110045000D01*
G75*
G02*
X141052500Y-109890000I155000J0D01*
G01*
X141477500Y-109890000D01*
G75*
G02*
X141632500Y-110045000I0J-155000D01*
G01*
X141632500Y-110355000D01*
G75*
G02*
X141477500Y-110510000I-155000J0D01*
G01*
X141052500Y-110510000D01*
G75*
G02*
X140897500Y-110355000I0J155000D01*
G01*
G37*
G04 #@! TD.AperFunction*
G04 #@! TA.AperFunction,SMDPad,CuDef*
G36*
G01*
X138750000Y-98212500D02*
X138750000Y-98687500D01*
G75*
G02*
X138512500Y-98925000I-237500J0D01*
G01*
X137912500Y-98925000D01*
G75*
G02*
X137675000Y-98687500I0J237500D01*
G01*
X137675000Y-98212500D01*
G75*
G02*
X137912500Y-97975000I237500J0D01*
G01*
X138512500Y-97975000D01*
G75*
G02*
X138750000Y-98212500I0J-237500D01*
G01*
G37*
G04 #@! TD.AperFunction*
G04 #@! TA.AperFunction,SMDPad,CuDef*
G36*
G01*
X140475000Y-98212500D02*
X140475000Y-98687500D01*
G75*
G02*
X140237500Y-98925000I-237500J0D01*
G01*
X139637500Y-98925000D01*
G75*
G02*
X139400000Y-98687500I0J237500D01*
G01*
X139400000Y-98212500D01*
G75*
G02*
X139637500Y-97975000I237500J0D01*
G01*
X140237500Y-97975000D01*
G75*
G02*
X140475000Y-98212500I0J-237500D01*
G01*
G37*
G04 #@! TD.AperFunction*
D27*
X152175000Y-116450000D03*
X148625000Y-116475000D03*
X148625000Y-110050000D03*
X152175000Y-110025000D03*
X140400000Y-111300000D03*
D28*
X140275000Y-108050000D03*
X143700000Y-102300000D03*
D27*
X138200000Y-108500000D03*
X143208051Y-110133051D03*
X137550000Y-97025000D03*
X138600000Y-93450000D03*
D29*
X146075000Y-84275000D03*
X149300000Y-87525000D03*
X146075000Y-90725000D03*
D27*
X154600000Y-92200000D03*
X157700000Y-92225000D03*
X158650000Y-94425000D03*
X158850000Y-87875000D03*
D29*
X142875010Y-87524906D03*
D27*
X149575000Y-99650000D03*
X155575000Y-99650000D03*
X156525000Y-98600000D03*
X161650000Y-112700000D03*
X154800000Y-114625000D03*
D29*
X160925000Y-106100000D03*
X160925000Y-102675000D03*
D27*
X152150000Y-104850000D03*
X161099981Y-74425000D03*
D28*
X145609063Y-104915618D03*
D27*
X160979991Y-81400000D03*
X159300000Y-64575000D03*
X153150000Y-65775000D03*
X140050000Y-58800000D03*
X136325000Y-63075000D03*
X136325000Y-65725000D03*
X142575000Y-63075000D03*
X146600000Y-64550000D03*
X138575000Y-79550000D03*
X138600000Y-76475000D03*
X141350000Y-75175000D03*
X140325000Y-74375000D03*
X153350000Y-63075010D03*
X142778551Y-64298342D03*
X132650000Y-101625000D03*
X134635636Y-112473262D03*
X146775000Y-74325000D03*
X153958051Y-75583051D03*
X147771509Y-74609556D03*
X157999990Y-64429144D03*
X157075000Y-62924990D03*
X159275000Y-69600000D03*
X137975000Y-99900000D03*
X140550000Y-97000000D03*
X139875000Y-93475000D03*
X161775000Y-96175000D03*
D29*
X158650000Y-108925000D03*
X156000000Y-110650000D03*
X161275000Y-110900000D03*
X158675000Y-106075000D03*
D27*
X145550000Y-116225000D03*
X161549991Y-90400000D03*
X154600000Y-63050000D03*
X155175000Y-66500000D03*
X138850000Y-62550000D03*
X151743201Y-62793201D03*
X132725000Y-105000000D03*
X153450010Y-97850000D03*
X143275000Y-99625000D03*
X144634337Y-102044619D03*
X143275000Y-98425000D03*
X142750000Y-93075000D03*
X154275000Y-80200000D03*
X156275000Y-78400000D03*
X132875000Y-109950000D03*
X136100000Y-110775000D03*
X133050000Y-113099990D03*
X140475000Y-72125000D03*
X150550000Y-65525000D03*
X149775000Y-57500000D03*
X150875000Y-58775000D03*
X154600000Y-58775000D03*
X155250000Y-56375000D03*
X136350000Y-56175000D03*
X136325000Y-58800000D03*
X137550000Y-63075000D03*
X137575000Y-65775000D03*
X137950000Y-66700000D03*
X137775000Y-71275000D03*
X140200000Y-66050000D03*
X146600000Y-69550000D03*
X160775000Y-70175000D03*
X141371151Y-63057963D03*
X151155656Y-63380746D03*
X145575010Y-70181834D03*
X150575000Y-71200000D03*
X154000000Y-73900000D03*
X156775000Y-102650000D03*
X160325000Y-78350000D03*
X160150000Y-81425000D03*
X148050000Y-72550000D03*
X144371279Y-62671279D03*
X150500000Y-67325000D03*
X155900000Y-65675000D03*
X157850000Y-70275000D03*
X150333780Y-60108780D03*
X157300000Y-76800000D03*
X146650000Y-103850000D03*
X146425000Y-102475000D03*
X145150000Y-101500000D03*
X143075006Y-96422478D03*
X139800000Y-105525000D03*
X142575000Y-102250000D03*
X138950000Y-101075000D03*
X140900000Y-100700000D03*
X144775000Y-99925000D03*
X145575000Y-97275000D03*
X152550000Y-99200000D03*
X154275000Y-82300000D03*
X152875000Y-79850000D03*
X152380726Y-97056087D03*
X153325000Y-99650000D03*
X152278372Y-101760819D03*
X135625000Y-108350000D03*
X142275000Y-79575000D03*
X135000000Y-107875000D03*
X142225000Y-80650000D03*
X152675000Y-66825000D03*
X157875000Y-96400000D03*
X150525000Y-96525000D03*
X143125000Y-69675010D03*
X152894597Y-69659225D03*
X151625000Y-101100000D03*
X145325000Y-76400000D03*
X148166201Y-75921987D03*
X140375000Y-62875000D03*
X149125000Y-76275000D03*
X144118096Y-76402618D03*
X143675000Y-63025000D03*
X140600000Y-81850000D03*
X139900000Y-79925000D03*
X141300000Y-69100000D03*
X144300000Y-69275000D03*
X144300000Y-75575000D03*
X150547057Y-76470021D03*
D30*
X152200000Y-116475000D02*
X152175000Y-116450000D01*
X153550000Y-116475000D02*
X152200000Y-116475000D01*
X147250000Y-116475000D02*
X148625000Y-116475000D01*
X148615000Y-110060000D02*
X148625000Y-110050000D01*
X147250000Y-110060000D02*
X148615000Y-110060000D01*
X152210000Y-110060000D02*
X152175000Y-110025000D01*
X153550000Y-110060000D02*
X152210000Y-110060000D01*
D31*
X140400000Y-112475000D02*
X140400000Y-111300000D01*
D30*
X136200000Y-115175000D02*
X138100000Y-115175000D01*
X140100000Y-115175000D02*
X142000000Y-115175000D01*
X142000000Y-115175000D02*
X142600000Y-115175000D01*
X136200000Y-115175000D02*
X135600000Y-115175000D01*
X138100000Y-115175000D02*
X140100000Y-115175000D01*
X142400000Y-108660000D02*
X141820000Y-108080000D01*
X142400000Y-110200000D02*
X142400000Y-108660000D01*
D32*
X140305000Y-108080000D02*
X140275000Y-108050000D01*
X141820000Y-108080000D02*
X140305000Y-108080000D01*
X142335000Y-103200000D02*
X142330000Y-103205000D01*
X143715000Y-103200000D02*
X142335000Y-103200000D01*
X143715000Y-104775000D02*
X144120000Y-105180000D01*
X143715000Y-103200000D02*
X143715000Y-104775000D01*
X143715000Y-102315000D02*
X143700000Y-102300000D01*
X143715000Y-103200000D02*
X143715000Y-102315000D01*
D30*
X138200000Y-109519500D02*
X138200000Y-108500000D01*
D32*
X142400000Y-110200000D02*
X143141102Y-110200000D01*
X143141102Y-110200000D02*
X143208051Y-110133051D01*
X138212500Y-97377500D02*
X138540000Y-97050000D01*
X138212500Y-98450000D02*
X138212500Y-97377500D01*
X138540000Y-95060000D02*
X138600000Y-95000000D01*
X138540000Y-97050000D02*
X138540000Y-95060000D01*
X138212500Y-99652500D02*
X138015000Y-99850000D01*
X138212500Y-98450000D02*
X138212500Y-99652500D01*
X137575000Y-97050000D02*
X137550000Y-97025000D01*
X138540000Y-97050000D02*
X137575000Y-97050000D01*
X138600000Y-95000000D02*
X138600000Y-93450000D01*
D33*
X146100000Y-84300000D02*
X146075000Y-84275000D01*
X146100000Y-87500000D02*
X146100000Y-84300000D01*
X149275000Y-87500000D02*
X149300000Y-87525000D01*
X146100000Y-87500000D02*
X149275000Y-87500000D01*
X146100000Y-90700000D02*
X146075000Y-90725000D01*
X146100000Y-87500000D02*
X146100000Y-90700000D01*
D32*
X154615000Y-92215000D02*
X154600000Y-92200000D01*
X156110000Y-92215000D02*
X154615000Y-92215000D01*
X157690000Y-92215000D02*
X157700000Y-92225000D01*
X156110000Y-92215000D02*
X157690000Y-92215000D01*
X159335000Y-93740000D02*
X158650000Y-94425000D01*
X159560000Y-93740000D02*
X159335000Y-93740000D01*
X159315000Y-87410000D02*
X158850000Y-87875000D01*
X159315000Y-86930000D02*
X159315000Y-87410000D01*
D33*
X146100000Y-87500000D02*
X142899916Y-87500000D01*
X142899916Y-87500000D02*
X142875010Y-87524906D01*
D30*
X149750000Y-99475000D02*
X149575000Y-99650000D01*
X149750000Y-98605000D02*
X149750000Y-99475000D01*
X155260000Y-99965000D02*
X155575000Y-99650000D01*
X155260000Y-100600000D02*
X155260000Y-99965000D01*
X156580000Y-98655000D02*
X156525000Y-98600000D01*
X157450000Y-98655000D02*
X156580000Y-98655000D01*
X161625000Y-112675000D02*
X161650000Y-112700000D01*
X160847500Y-112675000D02*
X161625000Y-112675000D01*
X155937500Y-114625000D02*
X154800000Y-114625000D01*
D33*
X160950000Y-106075000D02*
X160925000Y-106100000D01*
X160950000Y-104355000D02*
X160950000Y-106075000D01*
X160950000Y-102700000D02*
X160925000Y-102675000D01*
X160950000Y-104355000D02*
X160950000Y-102700000D01*
D31*
X152375000Y-104625000D02*
X152150000Y-104850000D01*
X152375000Y-103825000D02*
X152375000Y-104625000D01*
D32*
X160770000Y-75440000D02*
X160770000Y-74754981D01*
X160770000Y-74754981D02*
X161099981Y-74425000D01*
X144120000Y-105180000D02*
X145344681Y-105180000D01*
X145344681Y-105180000D02*
X145609063Y-104915618D01*
X153350000Y-65575000D02*
X153150000Y-65775000D01*
X153350000Y-64400000D02*
X153350000Y-65575000D01*
X140075000Y-58775000D02*
X140050000Y-58800000D01*
X140075000Y-57500000D02*
X140075000Y-58775000D01*
X136325000Y-64400000D02*
X136325000Y-63075000D01*
X136325000Y-64400000D02*
X136325000Y-65725000D01*
X142575000Y-64400000D02*
X142575000Y-63075000D01*
X138600000Y-79525000D02*
X138575000Y-79550000D01*
X138600000Y-78000000D02*
X138600000Y-79525000D01*
X138600000Y-78000000D02*
X138600000Y-76475000D01*
X141295000Y-75230000D02*
X141350000Y-75175000D01*
X140345000Y-75230000D02*
X141295000Y-75230000D01*
X140345000Y-74395000D02*
X140325000Y-74375000D01*
X140345000Y-75230000D02*
X140345000Y-74395000D01*
X153350000Y-64400000D02*
X153350000Y-63075010D01*
X142676893Y-64400000D02*
X142778551Y-64298342D01*
X142575000Y-64400000D02*
X142676893Y-64400000D01*
D31*
X132637500Y-101637500D02*
X132650000Y-101625000D01*
X131650000Y-101637500D02*
X132637500Y-101637500D01*
D30*
X133792500Y-112525000D02*
X134583898Y-112525000D01*
X134583898Y-112525000D02*
X134635636Y-112473262D01*
D31*
X146745000Y-74355000D02*
X146775000Y-74325000D01*
X146745000Y-75225000D02*
X146745000Y-74355000D01*
D32*
X153000000Y-75225000D02*
X153600000Y-75225000D01*
X153600000Y-75225000D02*
X153958051Y-75583051D01*
D31*
X147156065Y-75225000D02*
X147771509Y-74609556D01*
X146745000Y-75225000D02*
X147156065Y-75225000D01*
D32*
X157100000Y-64400000D02*
X157970846Y-64400000D01*
X157970846Y-64400000D02*
X157999990Y-64429144D01*
X157100000Y-64400000D02*
X157100000Y-62949990D01*
X157100000Y-62949990D02*
X157075000Y-62924990D01*
X160880000Y-82420000D02*
X160979991Y-82320009D01*
X160979991Y-82320009D02*
X160979991Y-81400000D01*
X139870000Y-96855000D02*
X139675000Y-97050000D01*
X139870000Y-95000000D02*
X139870000Y-96855000D01*
X139675000Y-98187500D02*
X139937500Y-98450000D01*
X139675000Y-97050000D02*
X139675000Y-98187500D01*
X140500000Y-97050000D02*
X140550000Y-97000000D01*
X139675000Y-97050000D02*
X140500000Y-97050000D01*
X139870000Y-93480000D02*
X139875000Y-93475000D01*
X139870000Y-95000000D02*
X139870000Y-93480000D01*
D30*
X161720000Y-96230000D02*
X161775000Y-96175000D01*
X161720000Y-97075000D02*
X161720000Y-96230000D01*
D33*
X158650000Y-110655000D02*
X158650000Y-108925000D01*
X156005000Y-110655000D02*
X156000000Y-110650000D01*
X158650000Y-110655000D02*
X156005000Y-110655000D01*
X161030000Y-110655000D02*
X161275000Y-110900000D01*
X158650000Y-110655000D02*
X161030000Y-110655000D01*
D32*
X157650000Y-114625000D02*
X155950000Y-112925000D01*
X157662500Y-114625000D02*
X157650000Y-114625000D01*
X158220000Y-110655000D02*
X158650000Y-110655000D01*
X155950000Y-112925000D02*
X158220000Y-110655000D01*
D33*
X158650000Y-106050000D02*
X158675000Y-106075000D01*
X158650000Y-104355000D02*
X158650000Y-106050000D01*
D31*
X157850000Y-103555000D02*
X158650000Y-104355000D01*
X157850000Y-102000000D02*
X157850000Y-103555000D01*
D30*
X150400000Y-104200000D02*
X150400000Y-103900000D01*
X150400000Y-103900000D02*
X151500000Y-102800000D01*
X154077500Y-102800000D02*
X154877500Y-102000000D01*
X151500000Y-102800000D02*
X154077500Y-102800000D01*
X154877500Y-102000000D02*
X157850000Y-102000000D01*
X145530000Y-116245000D02*
X145550000Y-116225000D01*
X144480000Y-116245000D02*
X145530000Y-116245000D01*
X160870000Y-90250000D02*
X161399991Y-90250000D01*
X161399991Y-90250000D02*
X161549991Y-90400000D01*
D32*
X154600000Y-64400000D02*
X154600000Y-63050000D01*
X154600000Y-65925000D02*
X155175000Y-66500000D01*
X154600000Y-64400000D02*
X154600000Y-65925000D01*
D30*
X138825000Y-62575000D02*
X138850000Y-62550000D01*
X138825000Y-64400000D02*
X138825000Y-62575000D01*
X154600000Y-63050000D02*
X153753721Y-62203721D01*
X152332681Y-62203721D02*
X151743201Y-62793201D01*
X153753721Y-62203721D02*
X152332681Y-62203721D01*
X132705000Y-104980000D02*
X132725000Y-105000000D01*
X131875000Y-104980000D02*
X132705000Y-104980000D01*
X153450010Y-97674990D02*
X153450010Y-97850000D01*
X153875000Y-97250000D02*
X153450010Y-97674990D01*
X147250000Y-106260000D02*
X153550000Y-106260000D01*
X147920000Y-103200000D02*
X148340000Y-102780000D01*
X144850000Y-103200000D02*
X147920000Y-103200000D01*
X147250000Y-103870000D02*
X148340000Y-102780000D01*
X147250000Y-106260000D02*
X147250000Y-103870000D01*
X143275000Y-99475000D02*
X142400000Y-98600000D01*
X143275000Y-99625000D02*
X143275000Y-99475000D01*
X144850000Y-103200000D02*
X144850000Y-102260282D01*
X144850000Y-102260282D02*
X144634337Y-102044619D01*
X143100000Y-98600000D02*
X143275000Y-98425000D01*
X142400000Y-98600000D02*
X143100000Y-98600000D01*
X142750000Y-93075000D02*
X143650000Y-92175000D01*
X147010002Y-92175000D02*
X150375000Y-88810002D01*
X143650000Y-92175000D02*
X147010002Y-92175000D01*
X150375000Y-88810002D02*
X150375000Y-85325000D01*
X154275000Y-81425000D02*
X154275000Y-80200000D01*
X150375000Y-85325000D02*
X154275000Y-81425000D01*
X155510000Y-78400000D02*
X155110000Y-78000000D01*
X156275000Y-78400000D02*
X155510000Y-78400000D01*
X138850000Y-110404500D02*
X138875001Y-110429501D01*
X141035499Y-110429501D02*
X141265000Y-110200000D01*
X138875001Y-110429501D02*
X141035499Y-110429501D01*
X138850000Y-109519500D02*
X138850000Y-110404500D01*
X144120000Y-108080000D02*
X144120000Y-110105000D01*
X144120000Y-110105000D02*
X143200000Y-111025000D01*
X142090000Y-111025000D02*
X141265000Y-110200000D01*
X143200000Y-111025000D02*
X142090000Y-111025000D01*
X141195000Y-104555000D02*
X141820000Y-105180000D01*
X141195000Y-103205000D02*
X141195000Y-104555000D01*
X139500000Y-107500000D02*
X141820000Y-105180000D01*
X139500000Y-109519500D02*
X139500000Y-107500000D01*
X137800000Y-112475000D02*
X137800000Y-111975000D01*
D31*
X132655000Y-111200000D02*
X132655000Y-110980000D01*
X132655000Y-110980000D02*
X131000000Y-109325000D01*
X131000000Y-104012500D02*
X131650000Y-103362500D01*
X131000000Y-109325000D02*
X131000000Y-104012500D01*
D30*
X134300000Y-103165500D02*
X134300000Y-102280500D01*
X134103000Y-103362500D02*
X134300000Y-103165500D01*
X131650000Y-103362500D02*
X134103000Y-103362500D01*
D31*
X132655000Y-111200000D02*
X132225000Y-111200000D01*
X132225000Y-111200000D02*
X131725000Y-111700000D01*
X131725000Y-111700000D02*
X131725000Y-113325000D01*
X133362001Y-113749991D02*
X133436992Y-113675000D01*
X132149991Y-113749991D02*
X133362001Y-113749991D01*
X131725000Y-113325000D02*
X132149991Y-113749991D01*
X137800000Y-113550000D02*
X137800000Y-112475000D01*
X137675000Y-113675000D02*
X137800000Y-113550000D01*
X133436992Y-113675000D02*
X137675000Y-113675000D01*
D30*
X131875000Y-108950000D02*
X132875000Y-109950000D01*
X131875000Y-108772500D02*
X131875000Y-108950000D01*
X136100000Y-110775000D02*
X136100000Y-110575000D01*
X136250000Y-110425000D02*
X136250000Y-109519500D01*
X136100000Y-110575000D02*
X136250000Y-110425000D01*
X132657500Y-112525000D02*
X132657500Y-112707490D01*
X132657500Y-112707490D02*
X133050000Y-113099990D01*
X144480000Y-113255000D02*
X144760000Y-112975000D01*
X144480000Y-114495000D02*
X144480000Y-113255000D01*
X147250000Y-112675000D02*
X153550000Y-112675000D01*
X149535000Y-103315000D02*
X148650000Y-104200000D01*
X149535000Y-102780000D02*
X149535000Y-103315000D01*
X159402500Y-112925000D02*
X159652500Y-112675000D01*
X157700000Y-112925000D02*
X159402500Y-112925000D01*
D32*
X142345000Y-71370000D02*
X142250000Y-71275000D01*
X142345000Y-74280000D02*
X142345000Y-71370000D01*
X141325000Y-71275000D02*
X140475000Y-72125000D01*
X142250000Y-71275000D02*
X141325000Y-71275000D01*
X142250000Y-66640044D02*
X142250000Y-71275000D01*
X149107535Y-62599989D02*
X146290055Y-62599989D01*
X146290055Y-62599989D02*
X142250000Y-66640044D01*
X152100000Y-59607524D02*
X149107535Y-62599989D01*
X152100000Y-57500000D02*
X152100000Y-59607524D01*
D33*
X155820000Y-103825000D02*
X156350000Y-104355000D01*
X154100000Y-103825000D02*
X155820000Y-103825000D01*
D32*
X150850000Y-65225000D02*
X150550000Y-65525000D01*
X150850000Y-64400000D02*
X150850000Y-65225000D01*
X150850000Y-57500000D02*
X149775000Y-57500000D01*
X150850000Y-58750000D02*
X150875000Y-58775000D01*
X150850000Y-57500000D02*
X150850000Y-58750000D01*
X154600000Y-57500000D02*
X154600000Y-58775000D01*
X154600000Y-57025000D02*
X155250000Y-56375000D01*
X154600000Y-57500000D02*
X154600000Y-57025000D01*
X136325000Y-56200000D02*
X136350000Y-56175000D01*
X136325000Y-57500000D02*
X136325000Y-56200000D01*
X136325000Y-57500000D02*
X136325000Y-58800000D01*
X137575000Y-63100000D02*
X137550000Y-63075000D01*
X137575000Y-64400000D02*
X137575000Y-63100000D01*
X137575000Y-64400000D02*
X137575000Y-65775000D01*
X139450000Y-71275000D02*
X137775000Y-71275000D01*
X141325000Y-64400000D02*
X141325000Y-65450000D01*
X140725000Y-66050000D02*
X140200000Y-66050000D01*
X141325000Y-65450000D02*
X140725000Y-66050000D01*
X160760000Y-70190000D02*
X160775000Y-70175000D01*
X160760000Y-71310000D02*
X160760000Y-70190000D01*
X141325000Y-64400000D02*
X141325000Y-63104114D01*
X141325000Y-63104114D02*
X141371151Y-63057963D01*
X150850000Y-64400000D02*
X150850000Y-63686402D01*
X150850000Y-63686402D02*
X151155656Y-63380746D01*
X145850000Y-71250000D02*
X145850000Y-70456824D01*
X145850000Y-70456824D02*
X145575010Y-70181834D01*
D31*
X150600000Y-71225000D02*
X150575000Y-71200000D01*
X152175000Y-71225000D02*
X150600000Y-71225000D01*
D32*
X156350000Y-103075000D02*
X156775000Y-102650000D01*
X156350000Y-104355000D02*
X156350000Y-103075000D01*
X161220000Y-78350000D02*
X161300000Y-78270000D01*
X160325000Y-78350000D02*
X161220000Y-78350000D01*
X148745000Y-71345000D02*
X148650000Y-71250000D01*
X148745000Y-74275000D02*
X148745000Y-71345000D01*
X148650000Y-71250000D02*
X149750010Y-70149990D01*
X149750010Y-70149990D02*
X149750010Y-63796427D01*
X149750010Y-63796427D02*
X152896437Y-60650000D01*
X152896437Y-60650000D02*
X154275000Y-60650000D01*
X154275000Y-60650000D02*
X155850000Y-59075000D01*
X155850000Y-59075000D02*
X155850000Y-57500000D01*
D31*
X148050000Y-71850000D02*
X148650000Y-71250000D01*
X148050000Y-72550000D02*
X148050000Y-71850000D01*
D32*
X155000000Y-71250000D02*
X154975000Y-71225000D01*
X155000000Y-74275000D02*
X155000000Y-71250000D01*
D30*
X141325000Y-57500000D02*
X141325000Y-59625000D01*
X141325000Y-59625000D02*
X144371279Y-62671279D01*
D31*
X154975000Y-71225000D02*
X154059226Y-70309226D01*
X150500000Y-68226630D02*
X150500000Y-67325000D01*
X154059226Y-70309226D02*
X152582596Y-70309226D01*
X152582596Y-70309226D02*
X150500000Y-68226630D01*
D32*
X155850000Y-65625000D02*
X155900000Y-65675000D01*
X155850000Y-64400000D02*
X155850000Y-65625000D01*
X157850000Y-71200000D02*
X157960000Y-71310000D01*
X157850000Y-70275000D02*
X157850000Y-71200000D01*
X157960000Y-71580000D02*
X159820000Y-73440000D01*
X157960000Y-71310000D02*
X157960000Y-71580000D01*
X159930000Y-79700000D02*
X158500000Y-78270000D01*
X159930000Y-80420000D02*
X159930000Y-79700000D01*
X142575000Y-57500000D02*
X148369256Y-57500000D01*
X148369256Y-57500000D02*
X150333780Y-59464524D01*
X150333780Y-59464524D02*
X150333780Y-60108780D01*
D31*
X157300000Y-77070000D02*
X158500000Y-78270000D01*
X157300000Y-76800000D02*
X157300000Y-77070000D01*
D30*
X146355000Y-111780000D02*
X147250000Y-112675000D01*
X144760000Y-111780000D02*
X146355000Y-111780000D01*
X144760000Y-111780000D02*
X144760000Y-110790000D01*
X144760000Y-110614998D02*
X145925000Y-109449998D01*
X144760000Y-110790000D02*
X144760000Y-110614998D01*
X145925000Y-109449998D02*
X145925000Y-105625000D01*
X146650000Y-104900000D02*
X146650000Y-103850000D01*
X145925000Y-105625000D02*
X146650000Y-104900000D01*
X146425000Y-101150000D02*
X146975000Y-100600000D01*
X146425000Y-102475000D02*
X146425000Y-101150000D01*
X146050000Y-100600000D02*
X145150000Y-101500000D01*
X146975000Y-100600000D02*
X146050000Y-100600000D01*
X141140000Y-95000000D02*
X141140000Y-96250000D01*
X141140000Y-96250000D02*
X141312478Y-96422478D01*
X141312478Y-96422478D02*
X143075006Y-96422478D01*
X139100000Y-111754998D02*
X139100000Y-112475000D01*
X137550000Y-110204998D02*
X139100000Y-111754998D01*
X137550000Y-109519500D02*
X137550000Y-110204998D01*
X138450000Y-111670698D02*
X138450000Y-112475000D01*
X136900000Y-110120698D02*
X138450000Y-111670698D01*
X136900000Y-109519500D02*
X136900000Y-110120698D01*
X138609500Y-105525000D02*
X139800000Y-105525000D01*
X136250000Y-103165500D02*
X138609500Y-105525000D01*
X136250000Y-102280500D02*
X136250000Y-103165500D01*
X142575000Y-102250000D02*
X143275000Y-101550000D01*
X143275000Y-101550000D02*
X144050000Y-101550000D01*
X146025000Y-99575000D02*
X146025000Y-98600000D01*
X144050000Y-101550000D02*
X146025000Y-99575000D01*
X144700000Y-97275000D02*
X143950000Y-97275000D01*
X146025000Y-98600000D02*
X144700000Y-97275000D01*
X147560000Y-98235000D02*
X147925000Y-98600000D01*
X147560000Y-97295000D02*
X147560000Y-98235000D01*
X143250000Y-100700000D02*
X143350000Y-100600000D01*
X140900000Y-100700000D02*
X143250000Y-100700000D01*
X144100000Y-100600000D02*
X144775000Y-99925000D01*
X143350000Y-100600000D02*
X144100000Y-100600000D01*
X146345000Y-97275000D02*
X146365000Y-97295000D01*
X145575000Y-97275000D02*
X146345000Y-97275000D01*
X136900000Y-102280500D02*
X136900000Y-101395500D01*
X136900000Y-101395500D02*
X137220500Y-101075000D01*
X137220500Y-101075000D02*
X138950000Y-101075000D01*
X142975000Y-97275000D02*
X144300000Y-98600000D01*
X142755000Y-97275000D02*
X142975000Y-97275000D01*
X139345000Y-74330000D02*
X140345000Y-73330000D01*
X138950000Y-74330000D02*
X139345000Y-74330000D01*
X159045000Y-101300000D02*
X158400000Y-100655000D01*
X159045000Y-102000000D02*
X159045000Y-101300000D01*
X153840000Y-96250000D02*
X154115000Y-96525000D01*
X153840000Y-95000000D02*
X153840000Y-96250000D01*
X158400000Y-98169998D02*
X158400000Y-100655000D01*
X157374812Y-97845010D02*
X158075012Y-97845010D01*
X156054802Y-96525000D02*
X157374812Y-97845010D01*
X158075012Y-97845010D02*
X158400000Y-98169998D01*
X154115000Y-96525000D02*
X156054802Y-96525000D01*
X159350000Y-97652500D02*
X158947500Y-97250000D01*
X159350000Y-98655000D02*
X159350000Y-97652500D01*
X145745000Y-74325000D02*
X146745000Y-73325000D01*
X145275000Y-74325000D02*
X145745000Y-74325000D01*
X150700000Y-100605000D02*
X150780001Y-100524999D01*
X150780001Y-100524999D02*
X151883011Y-100524999D01*
X153358012Y-102000000D02*
X153682500Y-102000000D01*
X151883011Y-100524999D02*
X153358012Y-102000000D01*
X151145000Y-100605000D02*
X152550000Y-99200000D01*
X150700000Y-100605000D02*
X151145000Y-100605000D01*
X155865000Y-82300000D02*
X156110000Y-82055000D01*
X154275000Y-82300000D02*
X155865000Y-82300000D01*
X151210000Y-98605000D02*
X151650000Y-98605000D01*
X149880000Y-97275000D02*
X151210000Y-98605000D01*
X154310000Y-98010000D02*
X155070000Y-97250000D01*
X154310000Y-98600000D02*
X154310000Y-98010000D01*
X152570000Y-78000000D02*
X152570000Y-79545000D01*
X152570000Y-79545000D02*
X152875000Y-79850000D01*
X152650000Y-98600000D02*
X152380726Y-98330726D01*
X154310000Y-98600000D02*
X152650000Y-98600000D01*
X152380726Y-98330726D02*
X152380726Y-97056087D01*
X153325000Y-100565000D02*
X153360000Y-100600000D01*
X153325000Y-99650000D02*
X153325000Y-100565000D01*
X152237500Y-102040000D02*
X152237500Y-101801691D01*
X152237500Y-101801691D02*
X152278372Y-101760819D01*
X152025000Y-74300000D02*
X153000000Y-73325000D01*
X151500000Y-74300000D02*
X152025000Y-74300000D01*
X160510000Y-97060000D02*
X160525000Y-97075000D01*
X160510000Y-95740000D02*
X160510000Y-97060000D01*
X155850000Y-95740000D02*
X155110000Y-95000000D01*
X160510000Y-95740000D02*
X155850000Y-95740000D01*
X161162500Y-93740000D02*
X161460000Y-93740000D01*
X159902500Y-92480000D02*
X161162500Y-93740000D01*
X158375000Y-75440000D02*
X157370000Y-74435000D01*
X158870000Y-75440000D02*
X158375000Y-75440000D01*
X158980000Y-90945000D02*
X159675000Y-90250000D01*
X156110000Y-90945000D02*
X158980000Y-90945000D01*
X159675000Y-89520000D02*
X160265000Y-88930000D01*
X159675000Y-90250000D02*
X159675000Y-89520000D01*
X160800000Y-86515000D02*
X161215000Y-86930000D01*
X160800000Y-85600000D02*
X160800000Y-86515000D01*
X158980000Y-83630000D02*
X158830000Y-83780000D01*
X158980000Y-82420000D02*
X158980000Y-83630000D01*
X135600000Y-110162002D02*
X135600000Y-109519500D01*
X134562002Y-111200000D02*
X135600000Y-110162002D01*
X133850000Y-111200000D02*
X134562002Y-111200000D01*
X135600000Y-108375000D02*
X135625000Y-108350000D01*
X135600000Y-109519500D02*
X135600000Y-108375000D01*
X142275000Y-78135000D02*
X142410000Y-78000000D01*
X142275000Y-79575000D02*
X142275000Y-78135000D01*
X134950000Y-107925000D02*
X135000000Y-107875000D01*
X134950000Y-109519500D02*
X134950000Y-107925000D01*
X143680000Y-79195000D02*
X143680000Y-78000000D01*
X142225000Y-80650000D02*
X143680000Y-79195000D01*
X131875000Y-107577500D02*
X131875000Y-106175000D01*
X134702500Y-107577500D02*
X135000000Y-107875000D01*
X131875000Y-107577500D02*
X134702500Y-107577500D01*
X138950000Y-75525000D02*
X137650000Y-75525000D01*
X137650000Y-75525000D02*
X137400000Y-75775000D01*
X137400000Y-75775000D02*
X137400000Y-80075000D01*
X137400000Y-80075000D02*
X138600000Y-81275000D01*
X148760000Y-79250000D02*
X148760000Y-78000000D01*
X146735000Y-81275000D02*
X148760000Y-79250000D01*
X138600000Y-81275000D02*
X146735000Y-81275000D01*
X152100000Y-66250000D02*
X152100000Y-64400000D01*
X152675000Y-66825000D02*
X152100000Y-66250000D01*
X157752500Y-96522500D02*
X157875000Y-96400000D01*
X157752500Y-97250000D02*
X157752500Y-96522500D01*
X145275000Y-75520000D02*
X146005000Y-76250000D01*
X147490000Y-76750000D02*
X147490000Y-78000000D01*
X146990000Y-76250000D02*
X147490000Y-76750000D01*
X146005000Y-76250000D02*
X146990000Y-76250000D01*
X150525000Y-96725000D02*
X151075000Y-97275000D01*
X150525000Y-96525000D02*
X150525000Y-96725000D01*
X153350000Y-57500000D02*
X153350000Y-59453961D01*
X146507520Y-63125000D02*
X143125000Y-66507520D01*
X143125000Y-66507520D02*
X143125000Y-69675010D01*
X153350000Y-59453961D02*
X149678961Y-63125000D01*
X149678961Y-63125000D02*
X146507520Y-63125000D01*
X158625000Y-63325000D02*
X158625000Y-64975000D01*
X157100000Y-57500000D02*
X157100000Y-61800000D01*
X158625000Y-64975000D02*
X153940775Y-69659225D01*
X157100000Y-61800000D02*
X158625000Y-63325000D01*
X153940775Y-69659225D02*
X152894597Y-69659225D01*
X151625000Y-101457500D02*
X151042500Y-102040000D01*
X151625000Y-101100000D02*
X151625000Y-101457500D01*
X144950000Y-76775000D02*
X145325000Y-76400000D01*
X144950000Y-78000000D02*
X144950000Y-76775000D01*
X151500000Y-75495000D02*
X148593188Y-75495000D01*
X148593188Y-75495000D02*
X148166201Y-75921987D01*
X137575000Y-60075000D02*
X140375000Y-62875000D01*
X137575000Y-57500000D02*
X137575000Y-60075000D01*
X138700011Y-55574989D02*
X154633307Y-55574989D01*
X154633307Y-55574989D02*
X154808309Y-55399987D01*
X161375000Y-63150000D02*
X162125001Y-63900001D01*
X157490687Y-55399987D02*
X158200000Y-56109300D01*
X158200000Y-56109300D02*
X158200000Y-59018600D01*
X159581400Y-63150000D02*
X161375000Y-63150000D01*
X158200000Y-59018600D02*
X158324990Y-59143590D01*
X158324990Y-61893590D02*
X159581400Y-63150000D01*
X162125001Y-63900001D02*
X162125001Y-84873997D01*
X162125001Y-84873997D02*
X162159990Y-84908986D01*
X162159990Y-91775010D02*
X161455000Y-92480000D01*
X162159990Y-84908986D02*
X162159990Y-91775010D01*
X161455000Y-92480000D02*
X161097500Y-92480000D01*
X137575000Y-56700000D02*
X138700011Y-55574989D01*
X158324990Y-59143590D02*
X158324990Y-61893590D01*
X154808309Y-55399987D02*
X157490687Y-55399987D01*
X137575000Y-57500000D02*
X137575000Y-56700000D01*
X141487382Y-76402618D02*
X144118096Y-76402618D01*
X141140000Y-76750000D02*
X141487382Y-76402618D01*
X141140000Y-78000000D02*
X141140000Y-76750000D01*
X157370000Y-75630000D02*
X154795000Y-75630000D01*
X154795000Y-75630000D02*
X154150000Y-76275000D01*
X154150000Y-76275000D02*
X151307302Y-76275000D01*
X151307302Y-76275000D02*
X150927312Y-75895010D01*
X150927312Y-75895010D02*
X149504990Y-75895010D01*
X149504990Y-75895010D02*
X149125000Y-76275000D01*
X161724991Y-76500009D02*
X161724991Y-76374991D01*
X143675000Y-63025000D02*
X142300000Y-61650000D01*
X142300000Y-61650000D02*
X140900000Y-61650000D01*
X138825000Y-59575000D02*
X138825000Y-57500000D01*
X140900000Y-61650000D02*
X138825000Y-59575000D01*
X157924979Y-59309279D02*
X157924979Y-62059279D01*
X157775010Y-59159310D02*
X157924979Y-59309279D01*
X154973998Y-55799998D02*
X157324998Y-55799998D01*
X139550000Y-55975000D02*
X154798996Y-55975000D01*
X161724991Y-64249991D02*
X161724991Y-76500009D01*
X161125000Y-63650000D02*
X161724991Y-64249991D01*
X159515700Y-63650000D02*
X161125000Y-63650000D01*
X157775010Y-56250010D02*
X157775010Y-59159310D01*
X157324998Y-55799998D02*
X157775010Y-56250010D01*
X154798996Y-55975000D02*
X154973998Y-55799998D01*
X138825000Y-56700000D02*
X139550000Y-55975000D01*
X157924979Y-62059279D02*
X159515700Y-63650000D01*
X138825000Y-57500000D02*
X138825000Y-56700000D01*
X161724991Y-76500009D02*
X161323989Y-76500009D01*
X159749999Y-78601001D02*
X161605001Y-80456003D01*
X161323989Y-76500009D02*
X159749999Y-78073999D01*
X159749999Y-78073999D02*
X159749999Y-78601001D01*
X160975000Y-84700000D02*
X160505000Y-84700000D01*
X161605001Y-80456003D02*
X161605001Y-84069999D01*
X161605001Y-84069999D02*
X160975000Y-84700000D01*
X160505000Y-84700000D02*
X159605000Y-85600000D01*
X139900000Y-78030000D02*
X139870000Y-78000000D01*
X139900000Y-79925000D02*
X139900000Y-78030000D01*
X153151002Y-80425002D02*
X152623998Y-80425002D01*
X160025000Y-82151002D02*
X157423998Y-79550000D01*
X157423998Y-79550000D02*
X154026004Y-79550000D01*
X160025000Y-83780000D02*
X160025000Y-82151002D01*
X152623998Y-80425002D02*
X151748996Y-79550000D01*
X151748996Y-79550000D02*
X149100000Y-79550000D01*
X154026004Y-79550000D02*
X153151002Y-80425002D01*
X149100000Y-79550000D02*
X146800000Y-81850000D01*
X146800000Y-81850000D02*
X140600000Y-81850000D01*
X140075000Y-64400000D02*
X140075000Y-65075000D01*
X140075000Y-65075000D02*
X139450000Y-65700000D01*
X139450000Y-65700000D02*
X139450000Y-66450000D01*
X141300000Y-68300000D02*
X141300000Y-69100000D01*
X139450000Y-66450000D02*
X141300000Y-68300000D01*
X144300000Y-69275000D02*
X145000000Y-69975000D01*
X145000000Y-69975000D02*
X145000000Y-73500000D01*
X145000000Y-73500000D02*
X144300000Y-74200000D01*
X144300000Y-74200000D02*
X144300000Y-75575000D01*
X151300000Y-77222964D02*
X151300000Y-78000000D01*
X150547057Y-76470021D02*
X151300000Y-77222964D01*
M02*
