G04 #@! TF.GenerationSoftware,KiCad,Pcbnew,5.1.7-a382d34a88~90~ubuntu20.04.1*
G04 #@! TF.CreationDate,2022-01-21T18:15:31-06:00*
G04 #@! TF.ProjectId,strike-controller,73747269-6b65-42d6-936f-6e74726f6c6c,rev?*
G04 #@! TF.SameCoordinates,Original*
G04 #@! TF.FileFunction,Copper,L3,Inr*
G04 #@! TF.FilePolarity,Positive*
%FSLAX46Y46*%
G04 Gerber Fmt 4.6, Leading zero omitted, Abs format (unit mm)*
G04 Created by KiCad (PCBNEW 5.1.7-a382d34a88~90~ubuntu20.04.1) date 2022-01-21 18:15:31*
%MOMM*%
%LPD*%
G01*
G04 APERTURE LIST*
G04 #@! TA.AperFunction,ComponentPad*
%ADD10C,2.500000*%
G04 #@! TD*
G04 #@! TA.AperFunction,ComponentPad*
%ADD11O,0.890000X1.550000*%
G04 #@! TD*
G04 #@! TA.AperFunction,ComponentPad*
%ADD12O,1.250000X0.950000*%
G04 #@! TD*
G04 #@! TA.AperFunction,ViaPad*
%ADD13C,0.600000*%
G04 #@! TD*
G04 #@! TA.AperFunction,ViaPad*
%ADD14C,0.800000*%
G04 #@! TD*
G04 #@! TA.AperFunction,ViaPad*
%ADD15C,1.000000*%
G04 #@! TD*
G04 #@! TA.AperFunction,Conductor*
%ADD16C,0.254000*%
G04 #@! TD*
G04 #@! TA.AperFunction,Conductor*
%ADD17C,0.100000*%
G04 #@! TD*
G04 APERTURE END LIST*
D10*
X160500000Y-115925000D03*
X160500000Y-56950000D03*
X132525000Y-115900000D03*
X132500000Y-56950000D03*
D11*
X142600000Y-115175000D03*
X135600000Y-115175000D03*
D12*
X141600000Y-112475000D03*
X136600000Y-112475000D03*
D13*
X152175000Y-116450000D03*
X148625000Y-116475000D03*
X148625000Y-110050000D03*
X152175000Y-110025000D03*
X140400000Y-111300000D03*
D14*
X140275000Y-108050000D03*
X143700000Y-102300000D03*
D13*
X138200000Y-108500000D03*
X143208051Y-110133051D03*
X137550000Y-97025000D03*
X138600000Y-93450000D03*
D15*
X146075000Y-84275000D03*
X149300000Y-87525000D03*
X146075000Y-90725000D03*
D13*
X154600000Y-92200000D03*
X157700000Y-92225000D03*
X158650000Y-94425000D03*
X158850000Y-87875000D03*
D15*
X142875010Y-87524906D03*
D13*
X149575000Y-99650000D03*
X155575000Y-99650000D03*
X156525000Y-98600000D03*
X161650000Y-112700000D03*
X154800000Y-114625000D03*
D15*
X160925000Y-106100000D03*
X160925000Y-102675000D03*
D13*
X152150000Y-104850000D03*
X161099981Y-74425000D03*
D14*
X145609063Y-104915618D03*
D13*
X160979991Y-81400000D03*
X159300000Y-64575000D03*
X153150000Y-65775000D03*
X140050000Y-58800000D03*
X136325000Y-63075000D03*
X136325000Y-65725000D03*
X142575000Y-63075000D03*
X146600000Y-64550000D03*
X138575000Y-79550000D03*
X138600000Y-76475000D03*
X141350000Y-75175000D03*
X140325000Y-74375000D03*
X153350000Y-63075010D03*
X142778551Y-64298342D03*
X132650000Y-101625000D03*
X134635636Y-112473262D03*
X146775000Y-74325000D03*
X153958051Y-75583051D03*
X147771509Y-74609556D03*
X157999990Y-64429144D03*
X157075000Y-62924990D03*
X159275000Y-69600000D03*
X137975000Y-99900000D03*
X140550000Y-97000000D03*
X139875000Y-93475000D03*
X161775000Y-96175000D03*
D15*
X158650000Y-108925000D03*
X156000000Y-110650000D03*
X161275000Y-110900000D03*
X158675000Y-106075000D03*
D13*
X145550000Y-116225000D03*
X161549991Y-90400000D03*
X154600000Y-63050000D03*
X155175000Y-66500000D03*
X138850000Y-62550000D03*
X151743201Y-62793201D03*
X132725000Y-105000000D03*
X153450010Y-97850000D03*
X143275000Y-99625000D03*
X144634337Y-102044619D03*
X143275000Y-98425000D03*
X142750000Y-93075000D03*
X154275000Y-80200000D03*
X156275000Y-78400000D03*
X132875000Y-109950000D03*
X136100000Y-110775000D03*
X133050000Y-113099990D03*
X140475000Y-72125000D03*
X150550000Y-65525000D03*
X149775000Y-57500000D03*
X150875000Y-58775000D03*
X154600000Y-58775000D03*
X155250000Y-56375000D03*
X136350000Y-56175000D03*
X136325000Y-58800000D03*
X137550000Y-63075000D03*
X137575000Y-65775000D03*
X137950000Y-66700000D03*
X137775000Y-71275000D03*
X140200000Y-66050000D03*
X146600000Y-69550000D03*
X160775000Y-70175000D03*
X141371151Y-63057963D03*
X151155656Y-63380746D03*
X145575010Y-70181834D03*
X150575000Y-71200000D03*
X154000000Y-73900000D03*
X156775000Y-102650000D03*
X160325000Y-78350000D03*
X160150000Y-81425000D03*
X148050000Y-72550000D03*
X144371279Y-62671279D03*
X150500000Y-67325000D03*
X155900000Y-65675000D03*
X157850000Y-70275000D03*
X150333780Y-60108780D03*
X157300000Y-76800000D03*
X146650000Y-103850000D03*
X146425000Y-102475000D03*
X145150000Y-101500000D03*
X143075006Y-96422478D03*
X139800000Y-105525000D03*
X142575000Y-102250000D03*
X138950000Y-101075000D03*
X140900000Y-100700000D03*
X144775000Y-99925000D03*
X145575000Y-97275000D03*
X152550000Y-99200000D03*
X154275000Y-82300000D03*
X152875000Y-79850000D03*
X152380726Y-97056087D03*
X153325000Y-99650000D03*
X152278372Y-101760819D03*
X135625000Y-108350000D03*
X142275000Y-79575000D03*
X135000000Y-107875000D03*
X142225000Y-80650000D03*
X152675000Y-66825000D03*
X157875000Y-96400000D03*
X150525000Y-96525000D03*
X143125000Y-69675010D03*
X152894597Y-69659225D03*
X151625000Y-101100000D03*
X145325000Y-76400000D03*
X148166201Y-75921987D03*
X140375000Y-62875000D03*
X149125000Y-76275000D03*
X144118096Y-76402618D03*
X143675000Y-63025000D03*
X140600000Y-81850000D03*
X139900000Y-79925000D03*
X141300000Y-69100000D03*
X144300000Y-69275000D03*
X144300000Y-75575000D03*
X150547057Y-76470021D03*
D16*
X145069176Y-90187376D02*
X144983617Y-90393933D01*
X144940000Y-90613212D01*
X144940000Y-90836788D01*
X144983617Y-91056067D01*
X145069176Y-91262624D01*
X145193388Y-91448520D01*
X145351480Y-91606612D01*
X145537376Y-91730824D01*
X145743933Y-91816383D01*
X145963212Y-91860000D01*
X146186788Y-91860000D01*
X146406067Y-91816383D01*
X146612624Y-91730824D01*
X146798520Y-91606612D01*
X146956612Y-91448520D01*
X147080824Y-91262624D01*
X147166383Y-91056067D01*
X147210000Y-90836788D01*
X147210000Y-90613212D01*
X147166383Y-90393933D01*
X147080824Y-90187376D01*
X147047164Y-90137000D01*
X161800000Y-90137000D01*
X161800000Y-101944868D01*
X161648520Y-101793388D01*
X161462624Y-101669176D01*
X161256067Y-101583617D01*
X161036788Y-101540000D01*
X160813212Y-101540000D01*
X160593933Y-101583617D01*
X160387376Y-101669176D01*
X160201480Y-101793388D01*
X160043388Y-101951480D01*
X159919176Y-102137376D01*
X159833617Y-102343933D01*
X159790000Y-102563212D01*
X159790000Y-102786788D01*
X159833617Y-103006067D01*
X159919176Y-103212624D01*
X160043388Y-103398520D01*
X160201480Y-103556612D01*
X160387376Y-103680824D01*
X160593933Y-103766383D01*
X160813212Y-103810000D01*
X161036788Y-103810000D01*
X161256067Y-103766383D01*
X161462624Y-103680824D01*
X161648520Y-103556612D01*
X161800000Y-103405132D01*
X161800000Y-105369868D01*
X161648520Y-105218388D01*
X161462624Y-105094176D01*
X161256067Y-105008617D01*
X161036788Y-104965000D01*
X160813212Y-104965000D01*
X160593933Y-105008617D01*
X160387376Y-105094176D01*
X160201480Y-105218388D01*
X160043388Y-105376480D01*
X159919176Y-105562376D01*
X159833617Y-105768933D01*
X159790000Y-105988212D01*
X159790000Y-106211788D01*
X159833617Y-106431067D01*
X159919176Y-106637624D01*
X160043388Y-106823520D01*
X160201480Y-106981612D01*
X160387376Y-107105824D01*
X160593933Y-107191383D01*
X160813212Y-107235000D01*
X161036788Y-107235000D01*
X161256067Y-107191383D01*
X161462624Y-107105824D01*
X161648520Y-106981612D01*
X161800000Y-106830132D01*
X161800000Y-111776519D01*
X161742089Y-111765000D01*
X161557911Y-111765000D01*
X161377271Y-111800932D01*
X161207111Y-111871414D01*
X161053972Y-111973738D01*
X160923738Y-112103972D01*
X160821414Y-112257111D01*
X160750932Y-112427271D01*
X160715000Y-112607911D01*
X160715000Y-112792089D01*
X160750932Y-112972729D01*
X160821414Y-113142889D01*
X160923738Y-113296028D01*
X161053972Y-113426262D01*
X161207111Y-113528586D01*
X161377271Y-113599068D01*
X161557911Y-113635000D01*
X161742089Y-113635000D01*
X161800000Y-113623481D01*
X161800000Y-114559207D01*
X161701618Y-114460825D01*
X161392882Y-114254534D01*
X161049834Y-114112439D01*
X160685656Y-114040000D01*
X160314344Y-114040000D01*
X159950166Y-114112439D01*
X159607118Y-114254534D01*
X159298382Y-114460825D01*
X159035825Y-114723382D01*
X158829534Y-115032118D01*
X158687439Y-115375166D01*
X158615000Y-115739344D01*
X158615000Y-116110656D01*
X158687439Y-116474834D01*
X158829534Y-116817882D01*
X159035825Y-117126618D01*
X159129207Y-117220000D01*
X152705569Y-117220000D01*
X152771028Y-117176262D01*
X152901262Y-117046028D01*
X153003586Y-116892889D01*
X153074068Y-116722729D01*
X153110000Y-116542089D01*
X153110000Y-116357911D01*
X153074068Y-116177271D01*
X153003586Y-116007111D01*
X152901262Y-115853972D01*
X152771028Y-115723738D01*
X152617889Y-115621414D01*
X152447729Y-115550932D01*
X152267089Y-115515000D01*
X152082911Y-115515000D01*
X151902271Y-115550932D01*
X151732111Y-115621414D01*
X151578972Y-115723738D01*
X151448738Y-115853972D01*
X151346414Y-116007111D01*
X151275932Y-116177271D01*
X151240000Y-116357911D01*
X151240000Y-116542089D01*
X151275932Y-116722729D01*
X151346414Y-116892889D01*
X151448738Y-117046028D01*
X151578972Y-117176262D01*
X151644431Y-117220000D01*
X149192985Y-117220000D01*
X149221028Y-117201262D01*
X149351262Y-117071028D01*
X149453586Y-116917889D01*
X149524068Y-116747729D01*
X149560000Y-116567089D01*
X149560000Y-116382911D01*
X149524068Y-116202271D01*
X149453586Y-116032111D01*
X149351262Y-115878972D01*
X149221028Y-115748738D01*
X149067889Y-115646414D01*
X148897729Y-115575932D01*
X148717089Y-115540000D01*
X148532911Y-115540000D01*
X148352271Y-115575932D01*
X148182111Y-115646414D01*
X148028972Y-115748738D01*
X147898738Y-115878972D01*
X147796414Y-116032111D01*
X147725932Y-116202271D01*
X147690000Y-116382911D01*
X147690000Y-116567089D01*
X147725932Y-116747729D01*
X147796414Y-116917889D01*
X147898738Y-117071028D01*
X148028972Y-117201262D01*
X148057015Y-117220000D01*
X133870793Y-117220000D01*
X133989175Y-117101618D01*
X134195466Y-116792882D01*
X134337561Y-116449834D01*
X134410000Y-116085656D01*
X134410000Y-115714344D01*
X134337561Y-115350166D01*
X134195466Y-115007118D01*
X134051696Y-114791950D01*
X134520000Y-114791950D01*
X134520000Y-115558051D01*
X134535627Y-115716717D01*
X134597384Y-115920298D01*
X134697669Y-116107919D01*
X134832631Y-116272370D01*
X134997082Y-116407332D01*
X135184703Y-116507617D01*
X135388284Y-116569373D01*
X135600000Y-116590225D01*
X135811717Y-116569373D01*
X136015298Y-116507617D01*
X136202919Y-116407332D01*
X136367370Y-116272370D01*
X136502332Y-116107919D01*
X136602617Y-115920298D01*
X136664373Y-115716716D01*
X136680000Y-115558050D01*
X136680000Y-114791950D01*
X141520000Y-114791950D01*
X141520000Y-115558051D01*
X141535627Y-115716717D01*
X141597384Y-115920298D01*
X141697669Y-116107919D01*
X141832631Y-116272370D01*
X141997082Y-116407332D01*
X142184703Y-116507617D01*
X142388284Y-116569373D01*
X142600000Y-116590225D01*
X142811717Y-116569373D01*
X143015298Y-116507617D01*
X143202919Y-116407332D01*
X143367370Y-116272370D01*
X143502332Y-116107919D01*
X143602617Y-115920298D01*
X143664373Y-115716716D01*
X143680000Y-115558050D01*
X143680000Y-114791949D01*
X143664373Y-114633283D01*
X143633926Y-114532911D01*
X153865000Y-114532911D01*
X153865000Y-114717089D01*
X153900932Y-114897729D01*
X153971414Y-115067889D01*
X154073738Y-115221028D01*
X154203972Y-115351262D01*
X154357111Y-115453586D01*
X154527271Y-115524068D01*
X154707911Y-115560000D01*
X154892089Y-115560000D01*
X155072729Y-115524068D01*
X155242889Y-115453586D01*
X155396028Y-115351262D01*
X155526262Y-115221028D01*
X155628586Y-115067889D01*
X155699068Y-114897729D01*
X155735000Y-114717089D01*
X155735000Y-114532911D01*
X155699068Y-114352271D01*
X155628586Y-114182111D01*
X155526262Y-114028972D01*
X155396028Y-113898738D01*
X155242889Y-113796414D01*
X155072729Y-113725932D01*
X154892089Y-113690000D01*
X154707911Y-113690000D01*
X154527271Y-113725932D01*
X154357111Y-113796414D01*
X154203972Y-113898738D01*
X154073738Y-114028972D01*
X153971414Y-114182111D01*
X153900932Y-114352271D01*
X153865000Y-114532911D01*
X143633926Y-114532911D01*
X143602617Y-114429702D01*
X143502332Y-114242081D01*
X143367370Y-114077630D01*
X143202919Y-113942668D01*
X143015297Y-113842383D01*
X142811716Y-113780627D01*
X142600000Y-113759775D01*
X142388283Y-113780627D01*
X142184702Y-113842383D01*
X141997081Y-113942668D01*
X141832630Y-114077630D01*
X141697668Y-114242081D01*
X141597383Y-114429703D01*
X141535627Y-114633284D01*
X141520000Y-114791950D01*
X136680000Y-114791950D01*
X136680000Y-114791949D01*
X136664373Y-114633283D01*
X136602617Y-114429702D01*
X136502332Y-114242081D01*
X136367370Y-114077630D01*
X136202919Y-113942668D01*
X136015297Y-113842383D01*
X135811716Y-113780627D01*
X135600000Y-113759775D01*
X135388283Y-113780627D01*
X135184702Y-113842383D01*
X134997081Y-113942668D01*
X134832630Y-114077630D01*
X134697668Y-114242081D01*
X134597383Y-114429703D01*
X134535627Y-114633284D01*
X134520000Y-114791950D01*
X134051696Y-114791950D01*
X133989175Y-114698382D01*
X133726618Y-114435825D01*
X133417882Y-114229534D01*
X133074834Y-114087439D01*
X132710656Y-114015000D01*
X132339344Y-114015000D01*
X131975166Y-114087439D01*
X131632118Y-114229534D01*
X131323382Y-114435825D01*
X131219237Y-114539970D01*
X131218893Y-113007901D01*
X132115000Y-113007901D01*
X132115000Y-113192079D01*
X132150932Y-113372719D01*
X132221414Y-113542879D01*
X132323738Y-113696018D01*
X132453972Y-113826252D01*
X132607111Y-113928576D01*
X132777271Y-113999058D01*
X132957911Y-114034990D01*
X133142089Y-114034990D01*
X133322729Y-113999058D01*
X133492889Y-113928576D01*
X133646028Y-113826252D01*
X133776262Y-113696018D01*
X133878586Y-113542879D01*
X133949068Y-113372719D01*
X133985000Y-113192079D01*
X133985000Y-113144916D01*
X134039608Y-113199524D01*
X134192747Y-113301848D01*
X134362907Y-113372330D01*
X134543547Y-113408262D01*
X134727725Y-113408262D01*
X134908365Y-113372330D01*
X135078525Y-113301848D01*
X135231664Y-113199524D01*
X135361898Y-113069290D01*
X135443645Y-112946946D01*
X135522604Y-113094666D01*
X135661314Y-113263686D01*
X135830334Y-113402396D01*
X136023166Y-113505468D01*
X136232402Y-113568938D01*
X136395479Y-113585000D01*
X136804521Y-113585000D01*
X136967598Y-113568938D01*
X137176834Y-113505468D01*
X137369666Y-113402396D01*
X137538686Y-113263686D01*
X137677396Y-113094666D01*
X137780468Y-112901834D01*
X137843938Y-112692598D01*
X137865370Y-112475000D01*
X137843938Y-112257402D01*
X137780468Y-112048166D01*
X137677396Y-111855334D01*
X137538686Y-111686314D01*
X137369666Y-111547604D01*
X137176834Y-111444532D01*
X136967598Y-111381062D01*
X136828699Y-111367381D01*
X136928586Y-111217889D01*
X136932718Y-111207911D01*
X139465000Y-111207911D01*
X139465000Y-111392089D01*
X139500932Y-111572729D01*
X139571414Y-111742889D01*
X139673738Y-111896028D01*
X139803972Y-112026262D01*
X139957111Y-112128586D01*
X140127271Y-112199068D01*
X140307911Y-112235000D01*
X140362857Y-112235000D01*
X140356062Y-112257402D01*
X140334630Y-112475000D01*
X140356062Y-112692598D01*
X140419532Y-112901834D01*
X140522604Y-113094666D01*
X140661314Y-113263686D01*
X140830334Y-113402396D01*
X141023166Y-113505468D01*
X141232402Y-113568938D01*
X141395479Y-113585000D01*
X141804521Y-113585000D01*
X141967598Y-113568938D01*
X142176834Y-113505468D01*
X142369666Y-113402396D01*
X142538686Y-113263686D01*
X142677396Y-113094666D01*
X142780468Y-112901834D01*
X142843938Y-112692598D01*
X142865370Y-112475000D01*
X142843938Y-112257402D01*
X142780468Y-112048166D01*
X142677396Y-111855334D01*
X142538686Y-111686314D01*
X142369666Y-111547604D01*
X142176834Y-111444532D01*
X141967598Y-111381062D01*
X141804521Y-111365000D01*
X141395479Y-111365000D01*
X141335000Y-111370957D01*
X141335000Y-111207911D01*
X141299068Y-111027271D01*
X141228586Y-110857111D01*
X141126262Y-110703972D01*
X140996028Y-110573738D01*
X140842889Y-110471414D01*
X140672729Y-110400932D01*
X140492089Y-110365000D01*
X140307911Y-110365000D01*
X140127271Y-110400932D01*
X139957111Y-110471414D01*
X139803972Y-110573738D01*
X139673738Y-110703972D01*
X139571414Y-110857111D01*
X139500932Y-111027271D01*
X139465000Y-111207911D01*
X136932718Y-111207911D01*
X136999068Y-111047729D01*
X137035000Y-110867089D01*
X137035000Y-110682911D01*
X136999068Y-110502271D01*
X136928586Y-110332111D01*
X136826262Y-110178972D01*
X136696028Y-110048738D01*
X136684391Y-110040962D01*
X142273051Y-110040962D01*
X142273051Y-110225140D01*
X142308983Y-110405780D01*
X142379465Y-110575940D01*
X142481789Y-110729079D01*
X142612023Y-110859313D01*
X142765162Y-110961637D01*
X142935322Y-111032119D01*
X143115962Y-111068051D01*
X143300140Y-111068051D01*
X143480780Y-111032119D01*
X143650940Y-110961637D01*
X143804079Y-110859313D01*
X143934313Y-110729079D01*
X144036637Y-110575940D01*
X144107119Y-110405780D01*
X144143051Y-110225140D01*
X144143051Y-110040962D01*
X144126531Y-109957911D01*
X147690000Y-109957911D01*
X147690000Y-110142089D01*
X147725932Y-110322729D01*
X147796414Y-110492889D01*
X147898738Y-110646028D01*
X148028972Y-110776262D01*
X148182111Y-110878586D01*
X148352271Y-110949068D01*
X148532911Y-110985000D01*
X148717089Y-110985000D01*
X148897729Y-110949068D01*
X149067889Y-110878586D01*
X149221028Y-110776262D01*
X149351262Y-110646028D01*
X149453586Y-110492889D01*
X149524068Y-110322729D01*
X149560000Y-110142089D01*
X149560000Y-109957911D01*
X149555028Y-109932911D01*
X151240000Y-109932911D01*
X151240000Y-110117089D01*
X151275932Y-110297729D01*
X151346414Y-110467889D01*
X151448738Y-110621028D01*
X151578972Y-110751262D01*
X151732111Y-110853586D01*
X151902271Y-110924068D01*
X152082911Y-110960000D01*
X152267089Y-110960000D01*
X152447729Y-110924068D01*
X152617889Y-110853586D01*
X152771028Y-110751262D01*
X152901262Y-110621028D01*
X153003586Y-110467889D01*
X153074068Y-110297729D01*
X153110000Y-110117089D01*
X153110000Y-109932911D01*
X153074068Y-109752271D01*
X153003586Y-109582111D01*
X152901262Y-109428972D01*
X152771028Y-109298738D01*
X152617889Y-109196414D01*
X152447729Y-109125932D01*
X152267089Y-109090000D01*
X152082911Y-109090000D01*
X151902271Y-109125932D01*
X151732111Y-109196414D01*
X151578972Y-109298738D01*
X151448738Y-109428972D01*
X151346414Y-109582111D01*
X151275932Y-109752271D01*
X151240000Y-109932911D01*
X149555028Y-109932911D01*
X149524068Y-109777271D01*
X149453586Y-109607111D01*
X149351262Y-109453972D01*
X149221028Y-109323738D01*
X149067889Y-109221414D01*
X148897729Y-109150932D01*
X148717089Y-109115000D01*
X148532911Y-109115000D01*
X148352271Y-109150932D01*
X148182111Y-109221414D01*
X148028972Y-109323738D01*
X147898738Y-109453972D01*
X147796414Y-109607111D01*
X147725932Y-109777271D01*
X147690000Y-109957911D01*
X144126531Y-109957911D01*
X144107119Y-109860322D01*
X144036637Y-109690162D01*
X143934313Y-109537023D01*
X143804079Y-109406789D01*
X143650940Y-109304465D01*
X143480780Y-109233983D01*
X143300140Y-109198051D01*
X143115962Y-109198051D01*
X142935322Y-109233983D01*
X142765162Y-109304465D01*
X142612023Y-109406789D01*
X142481789Y-109537023D01*
X142379465Y-109690162D01*
X142308983Y-109860322D01*
X142273051Y-110040962D01*
X136684391Y-110040962D01*
X136542889Y-109946414D01*
X136372729Y-109875932D01*
X136192089Y-109840000D01*
X136007911Y-109840000D01*
X135827271Y-109875932D01*
X135657111Y-109946414D01*
X135503972Y-110048738D01*
X135373738Y-110178972D01*
X135271414Y-110332111D01*
X135200932Y-110502271D01*
X135165000Y-110682911D01*
X135165000Y-110867089D01*
X135200932Y-111047729D01*
X135271414Y-111217889D01*
X135373738Y-111371028D01*
X135503972Y-111501262D01*
X135657111Y-111603586D01*
X135726897Y-111632492D01*
X135661314Y-111686314D01*
X135522604Y-111855334D01*
X135444678Y-112001123D01*
X135361898Y-111877234D01*
X135231664Y-111747000D01*
X135078525Y-111644676D01*
X134908365Y-111574194D01*
X134727725Y-111538262D01*
X134543547Y-111538262D01*
X134362907Y-111574194D01*
X134192747Y-111644676D01*
X134039608Y-111747000D01*
X133909374Y-111877234D01*
X133807050Y-112030373D01*
X133736568Y-112200533D01*
X133700636Y-112381173D01*
X133700636Y-112428336D01*
X133646028Y-112373728D01*
X133492889Y-112271404D01*
X133322729Y-112200922D01*
X133142089Y-112164990D01*
X132957911Y-112164990D01*
X132777271Y-112200922D01*
X132607111Y-112271404D01*
X132453972Y-112373728D01*
X132323738Y-112503962D01*
X132221414Y-112657101D01*
X132150932Y-112827261D01*
X132115000Y-113007901D01*
X131218893Y-113007901D01*
X131218185Y-109857911D01*
X131940000Y-109857911D01*
X131940000Y-110042089D01*
X131975932Y-110222729D01*
X132046414Y-110392889D01*
X132148738Y-110546028D01*
X132278972Y-110676262D01*
X132432111Y-110778586D01*
X132602271Y-110849068D01*
X132782911Y-110885000D01*
X132967089Y-110885000D01*
X133147729Y-110849068D01*
X133317889Y-110778586D01*
X133471028Y-110676262D01*
X133601262Y-110546028D01*
X133703586Y-110392889D01*
X133774068Y-110222729D01*
X133810000Y-110042089D01*
X133810000Y-109857911D01*
X133774068Y-109677271D01*
X133703586Y-109507111D01*
X133601262Y-109353972D01*
X133471028Y-109223738D01*
X133317889Y-109121414D01*
X133147729Y-109050932D01*
X132967089Y-109015000D01*
X132782911Y-109015000D01*
X132602271Y-109050932D01*
X132432111Y-109121414D01*
X132278972Y-109223738D01*
X132148738Y-109353972D01*
X132046414Y-109507111D01*
X131975932Y-109677271D01*
X131940000Y-109857911D01*
X131218185Y-109857911D01*
X131217719Y-107782911D01*
X134065000Y-107782911D01*
X134065000Y-107967089D01*
X134100932Y-108147729D01*
X134171414Y-108317889D01*
X134273738Y-108471028D01*
X134403972Y-108601262D01*
X134557111Y-108703586D01*
X134727271Y-108774068D01*
X134794127Y-108787367D01*
X134796414Y-108792889D01*
X134898738Y-108946028D01*
X135028972Y-109076262D01*
X135182111Y-109178586D01*
X135352271Y-109249068D01*
X135532911Y-109285000D01*
X135717089Y-109285000D01*
X135897729Y-109249068D01*
X136067889Y-109178586D01*
X136221028Y-109076262D01*
X136351262Y-108946028D01*
X136453586Y-108792889D01*
X136524068Y-108622729D01*
X136560000Y-108442089D01*
X136560000Y-108407911D01*
X137265000Y-108407911D01*
X137265000Y-108592089D01*
X137300932Y-108772729D01*
X137371414Y-108942889D01*
X137473738Y-109096028D01*
X137603972Y-109226262D01*
X137757111Y-109328586D01*
X137927271Y-109399068D01*
X138107911Y-109435000D01*
X138292089Y-109435000D01*
X138472729Y-109399068D01*
X138642889Y-109328586D01*
X138796028Y-109226262D01*
X138926262Y-109096028D01*
X139028586Y-108942889D01*
X139099068Y-108772729D01*
X139135000Y-108592089D01*
X139135000Y-108407911D01*
X139099068Y-108227271D01*
X139028586Y-108057111D01*
X138955722Y-107948061D01*
X139240000Y-107948061D01*
X139240000Y-108151939D01*
X139279774Y-108351898D01*
X139357795Y-108540256D01*
X139471063Y-108709774D01*
X139615226Y-108853937D01*
X139784744Y-108967205D01*
X139973102Y-109045226D01*
X140173061Y-109085000D01*
X140376939Y-109085000D01*
X140576898Y-109045226D01*
X140765256Y-108967205D01*
X140934774Y-108853937D01*
X141078937Y-108709774D01*
X141192205Y-108540256D01*
X141270226Y-108351898D01*
X141310000Y-108151939D01*
X141310000Y-107948061D01*
X141270226Y-107748102D01*
X141192205Y-107559744D01*
X141078937Y-107390226D01*
X140934774Y-107246063D01*
X140765256Y-107132795D01*
X140576898Y-107054774D01*
X140376939Y-107015000D01*
X140173061Y-107015000D01*
X139973102Y-107054774D01*
X139784744Y-107132795D01*
X139615226Y-107246063D01*
X139471063Y-107390226D01*
X139357795Y-107559744D01*
X139279774Y-107748102D01*
X139240000Y-107948061D01*
X138955722Y-107948061D01*
X138926262Y-107903972D01*
X138796028Y-107773738D01*
X138642889Y-107671414D01*
X138472729Y-107600932D01*
X138292089Y-107565000D01*
X138107911Y-107565000D01*
X137927271Y-107600932D01*
X137757111Y-107671414D01*
X137603972Y-107773738D01*
X137473738Y-107903972D01*
X137371414Y-108057111D01*
X137300932Y-108227271D01*
X137265000Y-108407911D01*
X136560000Y-108407911D01*
X136560000Y-108257911D01*
X136524068Y-108077271D01*
X136453586Y-107907111D01*
X136351262Y-107753972D01*
X136221028Y-107623738D01*
X136067889Y-107521414D01*
X135897729Y-107450932D01*
X135830873Y-107437633D01*
X135828586Y-107432111D01*
X135726262Y-107278972D01*
X135596028Y-107148738D01*
X135442889Y-107046414D01*
X135272729Y-106975932D01*
X135092089Y-106940000D01*
X134907911Y-106940000D01*
X134727271Y-106975932D01*
X134557111Y-107046414D01*
X134403972Y-107148738D01*
X134273738Y-107278972D01*
X134171414Y-107432111D01*
X134100932Y-107602271D01*
X134065000Y-107782911D01*
X131217719Y-107782911D01*
X131217191Y-105432911D01*
X138865000Y-105432911D01*
X138865000Y-105617089D01*
X138900932Y-105797729D01*
X138971414Y-105967889D01*
X139073738Y-106121028D01*
X139203972Y-106251262D01*
X139357111Y-106353586D01*
X139527271Y-106424068D01*
X139707911Y-106460000D01*
X139892089Y-106460000D01*
X140072729Y-106424068D01*
X140242889Y-106353586D01*
X140396028Y-106251262D01*
X140526262Y-106121028D01*
X140628586Y-105967889D01*
X140699068Y-105797729D01*
X140735000Y-105617089D01*
X140735000Y-105432911D01*
X140699068Y-105252271D01*
X140628586Y-105082111D01*
X140526262Y-104928972D01*
X140396028Y-104798738D01*
X140242889Y-104696414D01*
X140072729Y-104625932D01*
X139892089Y-104590000D01*
X139707911Y-104590000D01*
X139527271Y-104625932D01*
X139357111Y-104696414D01*
X139203972Y-104798738D01*
X139073738Y-104928972D01*
X138971414Y-105082111D01*
X138900932Y-105252271D01*
X138865000Y-105432911D01*
X131217191Y-105432911D01*
X131216165Y-100870180D01*
X132057690Y-100896253D01*
X132053972Y-100898738D01*
X131923738Y-101028972D01*
X131821414Y-101182111D01*
X131750932Y-101352271D01*
X131715000Y-101532911D01*
X131715000Y-101717089D01*
X131750932Y-101897729D01*
X131821414Y-102067889D01*
X131923738Y-102221028D01*
X132053972Y-102351262D01*
X132207111Y-102453586D01*
X132377271Y-102524068D01*
X132557911Y-102560000D01*
X132742089Y-102560000D01*
X132922729Y-102524068D01*
X133092889Y-102453586D01*
X133246028Y-102351262D01*
X133376262Y-102221028D01*
X133418435Y-102157911D01*
X141640000Y-102157911D01*
X141640000Y-102342089D01*
X141675932Y-102522729D01*
X141746414Y-102692889D01*
X141848738Y-102846028D01*
X141978972Y-102976262D01*
X142132111Y-103078586D01*
X142302271Y-103149068D01*
X142482911Y-103185000D01*
X142667089Y-103185000D01*
X142847729Y-103149068D01*
X143015758Y-103079469D01*
X143040226Y-103103937D01*
X143209744Y-103217205D01*
X143398102Y-103295226D01*
X143598061Y-103335000D01*
X143801939Y-103335000D01*
X144001898Y-103295226D01*
X144190256Y-103217205D01*
X144359774Y-103103937D01*
X144493741Y-102969970D01*
X144542248Y-102979619D01*
X144726426Y-102979619D01*
X144907066Y-102943687D01*
X145077226Y-102873205D01*
X145230365Y-102770881D01*
X145360599Y-102640647D01*
X145462923Y-102487508D01*
X145490000Y-102422138D01*
X145490000Y-102567089D01*
X145525932Y-102747729D01*
X145596414Y-102917889D01*
X145698738Y-103071028D01*
X145828972Y-103201262D01*
X145918837Y-103261307D01*
X145821414Y-103407111D01*
X145750932Y-103577271D01*
X145715000Y-103757911D01*
X145715000Y-103881413D01*
X145711002Y-103880618D01*
X145507124Y-103880618D01*
X145307165Y-103920392D01*
X145118807Y-103998413D01*
X144949289Y-104111681D01*
X144805126Y-104255844D01*
X144691858Y-104425362D01*
X144613837Y-104613720D01*
X144574063Y-104813679D01*
X144574063Y-105017557D01*
X144613837Y-105217516D01*
X144691858Y-105405874D01*
X144805126Y-105575392D01*
X144949289Y-105719555D01*
X145118807Y-105832823D01*
X145307165Y-105910844D01*
X145507124Y-105950618D01*
X145711002Y-105950618D01*
X145910961Y-105910844D01*
X146099319Y-105832823D01*
X146268837Y-105719555D01*
X146413000Y-105575392D01*
X146526268Y-105405874D01*
X146604289Y-105217516D01*
X146644063Y-105017557D01*
X146644063Y-104813679D01*
X146638358Y-104785000D01*
X146742089Y-104785000D01*
X146878272Y-104757911D01*
X151215000Y-104757911D01*
X151215000Y-104942089D01*
X151250932Y-105122729D01*
X151321414Y-105292889D01*
X151423738Y-105446028D01*
X151553972Y-105576262D01*
X151707111Y-105678586D01*
X151877271Y-105749068D01*
X152057911Y-105785000D01*
X152242089Y-105785000D01*
X152422729Y-105749068D01*
X152592889Y-105678586D01*
X152746028Y-105576262D01*
X152876262Y-105446028D01*
X152978586Y-105292889D01*
X153049068Y-105122729D01*
X153085000Y-104942089D01*
X153085000Y-104757911D01*
X153049068Y-104577271D01*
X152978586Y-104407111D01*
X152876262Y-104253972D01*
X152746028Y-104123738D01*
X152592889Y-104021414D01*
X152422729Y-103950932D01*
X152242089Y-103915000D01*
X152057911Y-103915000D01*
X151877271Y-103950932D01*
X151707111Y-104021414D01*
X151553972Y-104123738D01*
X151423738Y-104253972D01*
X151321414Y-104407111D01*
X151250932Y-104577271D01*
X151215000Y-104757911D01*
X146878272Y-104757911D01*
X146922729Y-104749068D01*
X147092889Y-104678586D01*
X147246028Y-104576262D01*
X147376262Y-104446028D01*
X147478586Y-104292889D01*
X147549068Y-104122729D01*
X147585000Y-103942089D01*
X147585000Y-103757911D01*
X147549068Y-103577271D01*
X147478586Y-103407111D01*
X147376262Y-103253972D01*
X147246028Y-103123738D01*
X147156163Y-103063693D01*
X147253586Y-102917889D01*
X147324068Y-102747729D01*
X147360000Y-102567089D01*
X147360000Y-102382911D01*
X147324068Y-102202271D01*
X147253586Y-102032111D01*
X147151262Y-101878972D01*
X147021028Y-101748738D01*
X146867889Y-101646414D01*
X146697729Y-101575932D01*
X146517089Y-101540000D01*
X146332911Y-101540000D01*
X146152271Y-101575932D01*
X146082462Y-101604848D01*
X146085000Y-101592089D01*
X146085000Y-101407911D01*
X146049068Y-101227271D01*
X145978586Y-101057111D01*
X145945712Y-101007911D01*
X150690000Y-101007911D01*
X150690000Y-101192089D01*
X150725932Y-101372729D01*
X150796414Y-101542889D01*
X150898738Y-101696028D01*
X151028972Y-101826262D01*
X151182111Y-101928586D01*
X151352271Y-101999068D01*
X151373277Y-102003246D01*
X151379304Y-102033548D01*
X151449786Y-102203708D01*
X151552110Y-102356847D01*
X151682344Y-102487081D01*
X151835483Y-102589405D01*
X152005643Y-102659887D01*
X152186283Y-102695819D01*
X152370461Y-102695819D01*
X152551101Y-102659887D01*
X152721261Y-102589405D01*
X152768395Y-102557911D01*
X155840000Y-102557911D01*
X155840000Y-102742089D01*
X155875932Y-102922729D01*
X155946414Y-103092889D01*
X156048738Y-103246028D01*
X156178972Y-103376262D01*
X156332111Y-103478586D01*
X156502271Y-103549068D01*
X156682911Y-103585000D01*
X156867089Y-103585000D01*
X157047729Y-103549068D01*
X157217889Y-103478586D01*
X157371028Y-103376262D01*
X157501262Y-103246028D01*
X157603586Y-103092889D01*
X157674068Y-102922729D01*
X157710000Y-102742089D01*
X157710000Y-102557911D01*
X157674068Y-102377271D01*
X157603586Y-102207111D01*
X157501262Y-102053972D01*
X157371028Y-101923738D01*
X157217889Y-101821414D01*
X157047729Y-101750932D01*
X156867089Y-101715000D01*
X156682911Y-101715000D01*
X156502271Y-101750932D01*
X156332111Y-101821414D01*
X156178972Y-101923738D01*
X156048738Y-102053972D01*
X155946414Y-102207111D01*
X155875932Y-102377271D01*
X155840000Y-102557911D01*
X152768395Y-102557911D01*
X152874400Y-102487081D01*
X153004634Y-102356847D01*
X153106958Y-102203708D01*
X153177440Y-102033548D01*
X153213372Y-101852908D01*
X153213372Y-101668730D01*
X153177440Y-101488090D01*
X153106958Y-101317930D01*
X153004634Y-101164791D01*
X152874400Y-101034557D01*
X152721261Y-100932233D01*
X152551101Y-100861751D01*
X152530095Y-100857573D01*
X152524068Y-100827271D01*
X152453586Y-100657111D01*
X152351262Y-100503972D01*
X152221028Y-100373738D01*
X152067889Y-100271414D01*
X151897729Y-100200932D01*
X151717089Y-100165000D01*
X151532911Y-100165000D01*
X151352271Y-100200932D01*
X151182111Y-100271414D01*
X151028972Y-100373738D01*
X150898738Y-100503972D01*
X150796414Y-100657111D01*
X150725932Y-100827271D01*
X150690000Y-101007911D01*
X145945712Y-101007911D01*
X145876262Y-100903972D01*
X145746028Y-100773738D01*
X145592889Y-100671414D01*
X145422729Y-100600932D01*
X145421585Y-100600705D01*
X145501262Y-100521028D01*
X145603586Y-100367889D01*
X145674068Y-100197729D01*
X145710000Y-100017089D01*
X145710000Y-99832911D01*
X145674068Y-99652271D01*
X145634984Y-99557911D01*
X148640000Y-99557911D01*
X148640000Y-99742089D01*
X148675932Y-99922729D01*
X148746414Y-100092889D01*
X148848738Y-100246028D01*
X148978972Y-100376262D01*
X149132111Y-100478586D01*
X149302271Y-100549068D01*
X149482911Y-100585000D01*
X149667089Y-100585000D01*
X149847729Y-100549068D01*
X150017889Y-100478586D01*
X150171028Y-100376262D01*
X150301262Y-100246028D01*
X150403586Y-100092889D01*
X150474068Y-99922729D01*
X150510000Y-99742089D01*
X150510000Y-99557911D01*
X150474068Y-99377271D01*
X150403586Y-99207111D01*
X150337303Y-99107911D01*
X151615000Y-99107911D01*
X151615000Y-99292089D01*
X151650932Y-99472729D01*
X151721414Y-99642889D01*
X151823738Y-99796028D01*
X151953972Y-99926262D01*
X152107111Y-100028586D01*
X152277271Y-100099068D01*
X152457911Y-100135000D01*
X152524552Y-100135000D01*
X152598738Y-100246028D01*
X152728972Y-100376262D01*
X152882111Y-100478586D01*
X153052271Y-100549068D01*
X153232911Y-100585000D01*
X153417089Y-100585000D01*
X153597729Y-100549068D01*
X153767889Y-100478586D01*
X153921028Y-100376262D01*
X154051262Y-100246028D01*
X154153586Y-100092889D01*
X154224068Y-99922729D01*
X154260000Y-99742089D01*
X154260000Y-99557911D01*
X154640000Y-99557911D01*
X154640000Y-99742089D01*
X154675932Y-99922729D01*
X154746414Y-100092889D01*
X154848738Y-100246028D01*
X154978972Y-100376262D01*
X155132111Y-100478586D01*
X155302271Y-100549068D01*
X155482911Y-100585000D01*
X155667089Y-100585000D01*
X155847729Y-100549068D01*
X156017889Y-100478586D01*
X156171028Y-100376262D01*
X156301262Y-100246028D01*
X156403586Y-100092889D01*
X156474068Y-99922729D01*
X156510000Y-99742089D01*
X156510000Y-99557911D01*
X156505443Y-99535000D01*
X156617089Y-99535000D01*
X156797729Y-99499068D01*
X156967889Y-99428586D01*
X157121028Y-99326262D01*
X157251262Y-99196028D01*
X157353586Y-99042889D01*
X157424068Y-98872729D01*
X157460000Y-98692089D01*
X157460000Y-98507911D01*
X157424068Y-98327271D01*
X157353586Y-98157111D01*
X157251262Y-98003972D01*
X157121028Y-97873738D01*
X156967889Y-97771414D01*
X156797729Y-97700932D01*
X156617089Y-97665000D01*
X156432911Y-97665000D01*
X156252271Y-97700932D01*
X156082111Y-97771414D01*
X155928972Y-97873738D01*
X155798738Y-98003972D01*
X155696414Y-98157111D01*
X155625932Y-98327271D01*
X155590000Y-98507911D01*
X155590000Y-98692089D01*
X155594557Y-98715000D01*
X155482911Y-98715000D01*
X155302271Y-98750932D01*
X155132111Y-98821414D01*
X154978972Y-98923738D01*
X154848738Y-99053972D01*
X154746414Y-99207111D01*
X154675932Y-99377271D01*
X154640000Y-99557911D01*
X154260000Y-99557911D01*
X154224068Y-99377271D01*
X154153586Y-99207111D01*
X154051262Y-99053972D01*
X153921028Y-98923738D01*
X153767889Y-98821414D01*
X153597729Y-98750932D01*
X153417089Y-98715000D01*
X153350448Y-98715000D01*
X153276262Y-98603972D01*
X153146028Y-98473738D01*
X152992889Y-98371414D01*
X152822729Y-98300932D01*
X152642089Y-98265000D01*
X152457911Y-98265000D01*
X152277271Y-98300932D01*
X152107111Y-98371414D01*
X151953972Y-98473738D01*
X151823738Y-98603972D01*
X151721414Y-98757111D01*
X151650932Y-98927271D01*
X151615000Y-99107911D01*
X150337303Y-99107911D01*
X150301262Y-99053972D01*
X150171028Y-98923738D01*
X150017889Y-98821414D01*
X149847729Y-98750932D01*
X149667089Y-98715000D01*
X149482911Y-98715000D01*
X149302271Y-98750932D01*
X149132111Y-98821414D01*
X148978972Y-98923738D01*
X148848738Y-99053972D01*
X148746414Y-99207111D01*
X148675932Y-99377271D01*
X148640000Y-99557911D01*
X145634984Y-99557911D01*
X145603586Y-99482111D01*
X145501262Y-99328972D01*
X145371028Y-99198738D01*
X145217889Y-99096414D01*
X145047729Y-99025932D01*
X144867089Y-98990000D01*
X144682911Y-98990000D01*
X144502271Y-99025932D01*
X144332111Y-99096414D01*
X144178972Y-99198738D01*
X144130536Y-99247174D01*
X144103586Y-99182111D01*
X144001262Y-99028972D01*
X143997290Y-99025000D01*
X144001262Y-99021028D01*
X144103586Y-98867889D01*
X144174068Y-98697729D01*
X144210000Y-98517089D01*
X144210000Y-98332911D01*
X144174068Y-98152271D01*
X144103586Y-97982111D01*
X144001262Y-97828972D01*
X143871028Y-97698738D01*
X143717889Y-97596414D01*
X143547729Y-97525932D01*
X143367089Y-97490000D01*
X143182911Y-97490000D01*
X143002271Y-97525932D01*
X142832111Y-97596414D01*
X142678972Y-97698738D01*
X142548738Y-97828972D01*
X142446414Y-97982111D01*
X142375932Y-98152271D01*
X142340000Y-98332911D01*
X142340000Y-98517089D01*
X142375932Y-98697729D01*
X142446414Y-98867889D01*
X142548738Y-99021028D01*
X142552710Y-99025000D01*
X142548738Y-99028972D01*
X142446414Y-99182111D01*
X142375932Y-99352271D01*
X142340000Y-99532911D01*
X142340000Y-99717089D01*
X142375932Y-99897729D01*
X142446414Y-100067889D01*
X142548738Y-100221028D01*
X142678972Y-100351262D01*
X142832111Y-100453586D01*
X143002271Y-100524068D01*
X143182911Y-100560000D01*
X143367089Y-100560000D01*
X143547729Y-100524068D01*
X143717889Y-100453586D01*
X143871028Y-100351262D01*
X143919464Y-100302826D01*
X143946414Y-100367889D01*
X144048738Y-100521028D01*
X144178972Y-100651262D01*
X144332111Y-100753586D01*
X144502271Y-100824068D01*
X144503415Y-100824295D01*
X144423738Y-100903972D01*
X144321414Y-101057111D01*
X144268870Y-101183964D01*
X144191448Y-101216033D01*
X144038309Y-101318357D01*
X144037249Y-101319417D01*
X144001898Y-101304774D01*
X143801939Y-101265000D01*
X143598061Y-101265000D01*
X143398102Y-101304774D01*
X143209744Y-101382795D01*
X143084918Y-101466201D01*
X143017889Y-101421414D01*
X142847729Y-101350932D01*
X142667089Y-101315000D01*
X142482911Y-101315000D01*
X142302271Y-101350932D01*
X142132111Y-101421414D01*
X141978972Y-101523738D01*
X141848738Y-101653972D01*
X141746414Y-101807111D01*
X141675932Y-101977271D01*
X141640000Y-102157911D01*
X133418435Y-102157911D01*
X133478586Y-102067889D01*
X133549068Y-101897729D01*
X133585000Y-101717089D01*
X133585000Y-101532911D01*
X133549068Y-101352271D01*
X133478586Y-101182111D01*
X133376262Y-101028972D01*
X133281460Y-100934170D01*
X136921067Y-101046939D01*
X136949646Y-101044586D01*
X136973478Y-101037384D01*
X136995447Y-101025671D01*
X137014708Y-101009897D01*
X137030523Y-100990668D01*
X137042282Y-100968724D01*
X137049534Y-100944907D01*
X137052000Y-100920133D01*
X137052905Y-100056968D01*
X137075932Y-100172729D01*
X137146414Y-100342889D01*
X137248738Y-100496028D01*
X137378972Y-100626262D01*
X137532111Y-100728586D01*
X137702271Y-100799068D01*
X137882911Y-100835000D01*
X138044422Y-100835000D01*
X138015000Y-100982911D01*
X138015000Y-101167089D01*
X138050932Y-101347729D01*
X138121414Y-101517889D01*
X138223738Y-101671028D01*
X138353972Y-101801262D01*
X138507111Y-101903586D01*
X138677271Y-101974068D01*
X138857911Y-102010000D01*
X139042089Y-102010000D01*
X139222729Y-101974068D01*
X139392889Y-101903586D01*
X139546028Y-101801262D01*
X139676262Y-101671028D01*
X139778586Y-101517889D01*
X139849068Y-101347729D01*
X139885000Y-101167089D01*
X139885000Y-100982911D01*
X139849068Y-100802271D01*
X139778586Y-100632111D01*
X139762417Y-100607911D01*
X139965000Y-100607911D01*
X139965000Y-100792089D01*
X140000932Y-100972729D01*
X140071414Y-101142889D01*
X140173738Y-101296028D01*
X140303972Y-101426262D01*
X140457111Y-101528586D01*
X140627271Y-101599068D01*
X140807911Y-101635000D01*
X140992089Y-101635000D01*
X141172729Y-101599068D01*
X141342889Y-101528586D01*
X141496028Y-101426262D01*
X141626262Y-101296028D01*
X141728586Y-101142889D01*
X141799068Y-100972729D01*
X141835000Y-100792089D01*
X141835000Y-100607911D01*
X141799068Y-100427271D01*
X141728586Y-100257111D01*
X141626262Y-100103972D01*
X141496028Y-99973738D01*
X141342889Y-99871414D01*
X141172729Y-99800932D01*
X140992089Y-99765000D01*
X140807911Y-99765000D01*
X140627271Y-99800932D01*
X140457111Y-99871414D01*
X140303972Y-99973738D01*
X140173738Y-100103972D01*
X140071414Y-100257111D01*
X140000932Y-100427271D01*
X139965000Y-100607911D01*
X139762417Y-100607911D01*
X139676262Y-100478972D01*
X139546028Y-100348738D01*
X139392889Y-100246414D01*
X139222729Y-100175932D01*
X139042089Y-100140000D01*
X138880578Y-100140000D01*
X138910000Y-99992089D01*
X138910000Y-99807911D01*
X138874068Y-99627271D01*
X138803586Y-99457111D01*
X138701262Y-99303972D01*
X138571028Y-99173738D01*
X138417889Y-99071414D01*
X138247729Y-99000932D01*
X138067089Y-98965000D01*
X137882911Y-98965000D01*
X137702271Y-99000932D01*
X137532111Y-99071414D01*
X137378972Y-99173738D01*
X137248738Y-99303972D01*
X137146414Y-99457111D01*
X137075932Y-99627271D01*
X137053236Y-99741368D01*
X137055253Y-97818936D01*
X137107111Y-97853586D01*
X137277271Y-97924068D01*
X137457911Y-97960000D01*
X137642089Y-97960000D01*
X137822729Y-97924068D01*
X137992889Y-97853586D01*
X138146028Y-97751262D01*
X138276262Y-97621028D01*
X138378586Y-97467889D01*
X138449068Y-97297729D01*
X138485000Y-97117089D01*
X138485000Y-96932911D01*
X138449068Y-96752271D01*
X138378586Y-96582111D01*
X138276262Y-96428972D01*
X138177679Y-96330389D01*
X142140006Y-96330389D01*
X142140006Y-96514567D01*
X142175938Y-96695207D01*
X142246420Y-96865367D01*
X142348744Y-97018506D01*
X142478978Y-97148740D01*
X142632117Y-97251064D01*
X142802277Y-97321546D01*
X142982917Y-97357478D01*
X143167095Y-97357478D01*
X143347735Y-97321546D01*
X143517895Y-97251064D01*
X143619893Y-97182911D01*
X144640000Y-97182911D01*
X144640000Y-97367089D01*
X144675932Y-97547729D01*
X144746414Y-97717889D01*
X144848738Y-97871028D01*
X144978972Y-98001262D01*
X145132111Y-98103586D01*
X145302271Y-98174068D01*
X145482911Y-98210000D01*
X145667089Y-98210000D01*
X145847729Y-98174068D01*
X146017889Y-98103586D01*
X146171028Y-98001262D01*
X146301262Y-97871028D01*
X146403586Y-97717889D01*
X146474068Y-97547729D01*
X146510000Y-97367089D01*
X146510000Y-97182911D01*
X146474068Y-97002271D01*
X146403586Y-96832111D01*
X146301262Y-96678972D01*
X146171028Y-96548738D01*
X146017889Y-96446414D01*
X145985290Y-96432911D01*
X149590000Y-96432911D01*
X149590000Y-96617089D01*
X149625932Y-96797729D01*
X149696414Y-96967889D01*
X149798738Y-97121028D01*
X149928972Y-97251262D01*
X150082111Y-97353586D01*
X150252271Y-97424068D01*
X150432911Y-97460000D01*
X150617089Y-97460000D01*
X150797729Y-97424068D01*
X150967889Y-97353586D01*
X151121028Y-97251262D01*
X151251262Y-97121028D01*
X151353586Y-96967889D01*
X151355197Y-96963998D01*
X151445726Y-96963998D01*
X151445726Y-97148176D01*
X151481658Y-97328816D01*
X151552140Y-97498976D01*
X151654464Y-97652115D01*
X151784698Y-97782349D01*
X151937837Y-97884673D01*
X152107997Y-97955155D01*
X152288637Y-97991087D01*
X152472815Y-97991087D01*
X152653455Y-97955155D01*
X152823615Y-97884673D01*
X152976754Y-97782349D01*
X153106988Y-97652115D01*
X153209312Y-97498976D01*
X153279794Y-97328816D01*
X153315726Y-97148176D01*
X153315726Y-96963998D01*
X153279794Y-96783358D01*
X153209312Y-96613198D01*
X153106988Y-96460059D01*
X152976754Y-96329825D01*
X152943958Y-96307911D01*
X156940000Y-96307911D01*
X156940000Y-96492089D01*
X156975932Y-96672729D01*
X157046414Y-96842889D01*
X157148738Y-96996028D01*
X157278972Y-97126262D01*
X157432111Y-97228586D01*
X157602271Y-97299068D01*
X157782911Y-97335000D01*
X157967089Y-97335000D01*
X158147729Y-97299068D01*
X158317889Y-97228586D01*
X158471028Y-97126262D01*
X158601262Y-96996028D01*
X158703586Y-96842889D01*
X158774068Y-96672729D01*
X158810000Y-96492089D01*
X158810000Y-96307911D01*
X158774068Y-96127271D01*
X158703586Y-95957111D01*
X158601262Y-95803972D01*
X158471028Y-95673738D01*
X158317889Y-95571414D01*
X158147729Y-95500932D01*
X157967089Y-95465000D01*
X157782911Y-95465000D01*
X157602271Y-95500932D01*
X157432111Y-95571414D01*
X157278972Y-95673738D01*
X157148738Y-95803972D01*
X157046414Y-95957111D01*
X156975932Y-96127271D01*
X156940000Y-96307911D01*
X152943958Y-96307911D01*
X152823615Y-96227501D01*
X152653455Y-96157019D01*
X152472815Y-96121087D01*
X152288637Y-96121087D01*
X152107997Y-96157019D01*
X151937837Y-96227501D01*
X151784698Y-96329825D01*
X151654464Y-96460059D01*
X151552140Y-96613198D01*
X151481658Y-96783358D01*
X151445726Y-96963998D01*
X151355197Y-96963998D01*
X151424068Y-96797729D01*
X151460000Y-96617089D01*
X151460000Y-96432911D01*
X151424068Y-96252271D01*
X151353586Y-96082111D01*
X151251262Y-95928972D01*
X151121028Y-95798738D01*
X150967889Y-95696414D01*
X150797729Y-95625932D01*
X150617089Y-95590000D01*
X150432911Y-95590000D01*
X150252271Y-95625932D01*
X150082111Y-95696414D01*
X149928972Y-95798738D01*
X149798738Y-95928972D01*
X149696414Y-96082111D01*
X149625932Y-96252271D01*
X149590000Y-96432911D01*
X145985290Y-96432911D01*
X145847729Y-96375932D01*
X145667089Y-96340000D01*
X145482911Y-96340000D01*
X145302271Y-96375932D01*
X145132111Y-96446414D01*
X144978972Y-96548738D01*
X144848738Y-96678972D01*
X144746414Y-96832111D01*
X144675932Y-97002271D01*
X144640000Y-97182911D01*
X143619893Y-97182911D01*
X143671034Y-97148740D01*
X143801268Y-97018506D01*
X143903592Y-96865367D01*
X143974074Y-96695207D01*
X144010006Y-96514567D01*
X144010006Y-96330389D01*
X143974074Y-96149749D01*
X143903592Y-95979589D01*
X143801268Y-95826450D01*
X143671034Y-95696216D01*
X143517895Y-95593892D01*
X143347735Y-95523410D01*
X143167095Y-95487478D01*
X142982917Y-95487478D01*
X142802277Y-95523410D01*
X142632117Y-95593892D01*
X142478978Y-95696216D01*
X142348744Y-95826450D01*
X142246420Y-95979589D01*
X142175938Y-96149749D01*
X142140006Y-96330389D01*
X138177679Y-96330389D01*
X138146028Y-96298738D01*
X137992889Y-96196414D01*
X137822729Y-96125932D01*
X137642089Y-96090000D01*
X137457911Y-96090000D01*
X137277271Y-96125932D01*
X137107111Y-96196414D01*
X137056920Y-96229951D01*
X137059932Y-93357911D01*
X137665000Y-93357911D01*
X137665000Y-93542089D01*
X137700932Y-93722729D01*
X137771414Y-93892889D01*
X137873738Y-94046028D01*
X138003972Y-94176262D01*
X138157111Y-94278586D01*
X138327271Y-94349068D01*
X138507911Y-94385000D01*
X138692089Y-94385000D01*
X138872729Y-94349068D01*
X138911735Y-94332911D01*
X157715000Y-94332911D01*
X157715000Y-94517089D01*
X157750932Y-94697729D01*
X157821414Y-94867889D01*
X157923738Y-95021028D01*
X158053972Y-95151262D01*
X158207111Y-95253586D01*
X158377271Y-95324068D01*
X158557911Y-95360000D01*
X158742089Y-95360000D01*
X158922729Y-95324068D01*
X159092889Y-95253586D01*
X159246028Y-95151262D01*
X159376262Y-95021028D01*
X159478586Y-94867889D01*
X159549068Y-94697729D01*
X159585000Y-94517089D01*
X159585000Y-94332911D01*
X159549068Y-94152271D01*
X159478586Y-93982111D01*
X159376262Y-93828972D01*
X159246028Y-93698738D01*
X159092889Y-93596414D01*
X158922729Y-93525932D01*
X158742089Y-93490000D01*
X158557911Y-93490000D01*
X158377271Y-93525932D01*
X158207111Y-93596414D01*
X158053972Y-93698738D01*
X157923738Y-93828972D01*
X157821414Y-93982111D01*
X157750932Y-94152271D01*
X157715000Y-94332911D01*
X138911735Y-94332911D01*
X139042889Y-94278586D01*
X139196028Y-94176262D01*
X139326262Y-94046028D01*
X139428586Y-93892889D01*
X139499068Y-93722729D01*
X139535000Y-93542089D01*
X139535000Y-93357911D01*
X139499068Y-93177271D01*
X139428586Y-93007111D01*
X139412417Y-92982911D01*
X141815000Y-92982911D01*
X141815000Y-93167089D01*
X141850932Y-93347729D01*
X141921414Y-93517889D01*
X142023738Y-93671028D01*
X142153972Y-93801262D01*
X142307111Y-93903586D01*
X142477271Y-93974068D01*
X142657911Y-94010000D01*
X142842089Y-94010000D01*
X143022729Y-93974068D01*
X143192889Y-93903586D01*
X143346028Y-93801262D01*
X143476262Y-93671028D01*
X143578586Y-93517889D01*
X143649068Y-93347729D01*
X143685000Y-93167089D01*
X143685000Y-92982911D01*
X143649068Y-92802271D01*
X143578586Y-92632111D01*
X143476262Y-92478972D01*
X143346028Y-92348738D01*
X143192889Y-92246414D01*
X143022729Y-92175932D01*
X142842089Y-92140000D01*
X142657911Y-92140000D01*
X142477271Y-92175932D01*
X142307111Y-92246414D01*
X142153972Y-92348738D01*
X142023738Y-92478972D01*
X141921414Y-92632111D01*
X141850932Y-92802271D01*
X141815000Y-92982911D01*
X139412417Y-92982911D01*
X139326262Y-92853972D01*
X139196028Y-92723738D01*
X139042889Y-92621414D01*
X138872729Y-92550932D01*
X138692089Y-92515000D01*
X138507911Y-92515000D01*
X138327271Y-92550932D01*
X138157111Y-92621414D01*
X138003972Y-92723738D01*
X137873738Y-92853972D01*
X137771414Y-93007111D01*
X137700932Y-93177271D01*
X137665000Y-93357911D01*
X137059932Y-93357911D01*
X137061243Y-92107911D01*
X153665000Y-92107911D01*
X153665000Y-92292089D01*
X153700932Y-92472729D01*
X153771414Y-92642889D01*
X153873738Y-92796028D01*
X154003972Y-92926262D01*
X154157111Y-93028586D01*
X154327271Y-93099068D01*
X154507911Y-93135000D01*
X154692089Y-93135000D01*
X154872729Y-93099068D01*
X155042889Y-93028586D01*
X155196028Y-92926262D01*
X155326262Y-92796028D01*
X155428586Y-92642889D01*
X155499068Y-92472729D01*
X155535000Y-92292089D01*
X155535000Y-92132911D01*
X156765000Y-92132911D01*
X156765000Y-92317089D01*
X156800932Y-92497729D01*
X156871414Y-92667889D01*
X156973738Y-92821028D01*
X157103972Y-92951262D01*
X157257111Y-93053586D01*
X157427271Y-93124068D01*
X157607911Y-93160000D01*
X157792089Y-93160000D01*
X157972729Y-93124068D01*
X158142889Y-93053586D01*
X158296028Y-92951262D01*
X158426262Y-92821028D01*
X158528586Y-92667889D01*
X158599068Y-92497729D01*
X158635000Y-92317089D01*
X158635000Y-92132911D01*
X158599068Y-91952271D01*
X158528586Y-91782111D01*
X158426262Y-91628972D01*
X158296028Y-91498738D01*
X158142889Y-91396414D01*
X157972729Y-91325932D01*
X157792089Y-91290000D01*
X157607911Y-91290000D01*
X157427271Y-91325932D01*
X157257111Y-91396414D01*
X157103972Y-91498738D01*
X156973738Y-91628972D01*
X156871414Y-91782111D01*
X156800932Y-91952271D01*
X156765000Y-92132911D01*
X155535000Y-92132911D01*
X155535000Y-92107911D01*
X155499068Y-91927271D01*
X155428586Y-91757111D01*
X155326262Y-91603972D01*
X155196028Y-91473738D01*
X155042889Y-91371414D01*
X154872729Y-91300932D01*
X154692089Y-91265000D01*
X154507911Y-91265000D01*
X154327271Y-91300932D01*
X154157111Y-91371414D01*
X154003972Y-91473738D01*
X153873738Y-91603972D01*
X153771414Y-91757111D01*
X153700932Y-91927271D01*
X153665000Y-92107911D01*
X137061243Y-92107911D01*
X137063311Y-90137000D01*
X145102836Y-90137000D01*
X145069176Y-90187376D01*
G04 #@! TA.AperFunction,Conductor*
D17*
G36*
X145069176Y-90187376D02*
G01*
X144983617Y-90393933D01*
X144940000Y-90613212D01*
X144940000Y-90836788D01*
X144983617Y-91056067D01*
X145069176Y-91262624D01*
X145193388Y-91448520D01*
X145351480Y-91606612D01*
X145537376Y-91730824D01*
X145743933Y-91816383D01*
X145963212Y-91860000D01*
X146186788Y-91860000D01*
X146406067Y-91816383D01*
X146612624Y-91730824D01*
X146798520Y-91606612D01*
X146956612Y-91448520D01*
X147080824Y-91262624D01*
X147166383Y-91056067D01*
X147210000Y-90836788D01*
X147210000Y-90613212D01*
X147166383Y-90393933D01*
X147080824Y-90187376D01*
X147047164Y-90137000D01*
X161800000Y-90137000D01*
X161800000Y-101944868D01*
X161648520Y-101793388D01*
X161462624Y-101669176D01*
X161256067Y-101583617D01*
X161036788Y-101540000D01*
X160813212Y-101540000D01*
X160593933Y-101583617D01*
X160387376Y-101669176D01*
X160201480Y-101793388D01*
X160043388Y-101951480D01*
X159919176Y-102137376D01*
X159833617Y-102343933D01*
X159790000Y-102563212D01*
X159790000Y-102786788D01*
X159833617Y-103006067D01*
X159919176Y-103212624D01*
X160043388Y-103398520D01*
X160201480Y-103556612D01*
X160387376Y-103680824D01*
X160593933Y-103766383D01*
X160813212Y-103810000D01*
X161036788Y-103810000D01*
X161256067Y-103766383D01*
X161462624Y-103680824D01*
X161648520Y-103556612D01*
X161800000Y-103405132D01*
X161800000Y-105369868D01*
X161648520Y-105218388D01*
X161462624Y-105094176D01*
X161256067Y-105008617D01*
X161036788Y-104965000D01*
X160813212Y-104965000D01*
X160593933Y-105008617D01*
X160387376Y-105094176D01*
X160201480Y-105218388D01*
X160043388Y-105376480D01*
X159919176Y-105562376D01*
X159833617Y-105768933D01*
X159790000Y-105988212D01*
X159790000Y-106211788D01*
X159833617Y-106431067D01*
X159919176Y-106637624D01*
X160043388Y-106823520D01*
X160201480Y-106981612D01*
X160387376Y-107105824D01*
X160593933Y-107191383D01*
X160813212Y-107235000D01*
X161036788Y-107235000D01*
X161256067Y-107191383D01*
X161462624Y-107105824D01*
X161648520Y-106981612D01*
X161800000Y-106830132D01*
X161800000Y-111776519D01*
X161742089Y-111765000D01*
X161557911Y-111765000D01*
X161377271Y-111800932D01*
X161207111Y-111871414D01*
X161053972Y-111973738D01*
X160923738Y-112103972D01*
X160821414Y-112257111D01*
X160750932Y-112427271D01*
X160715000Y-112607911D01*
X160715000Y-112792089D01*
X160750932Y-112972729D01*
X160821414Y-113142889D01*
X160923738Y-113296028D01*
X161053972Y-113426262D01*
X161207111Y-113528586D01*
X161377271Y-113599068D01*
X161557911Y-113635000D01*
X161742089Y-113635000D01*
X161800000Y-113623481D01*
X161800000Y-114559207D01*
X161701618Y-114460825D01*
X161392882Y-114254534D01*
X161049834Y-114112439D01*
X160685656Y-114040000D01*
X160314344Y-114040000D01*
X159950166Y-114112439D01*
X159607118Y-114254534D01*
X159298382Y-114460825D01*
X159035825Y-114723382D01*
X158829534Y-115032118D01*
X158687439Y-115375166D01*
X158615000Y-115739344D01*
X158615000Y-116110656D01*
X158687439Y-116474834D01*
X158829534Y-116817882D01*
X159035825Y-117126618D01*
X159129207Y-117220000D01*
X152705569Y-117220000D01*
X152771028Y-117176262D01*
X152901262Y-117046028D01*
X153003586Y-116892889D01*
X153074068Y-116722729D01*
X153110000Y-116542089D01*
X153110000Y-116357911D01*
X153074068Y-116177271D01*
X153003586Y-116007111D01*
X152901262Y-115853972D01*
X152771028Y-115723738D01*
X152617889Y-115621414D01*
X152447729Y-115550932D01*
X152267089Y-115515000D01*
X152082911Y-115515000D01*
X151902271Y-115550932D01*
X151732111Y-115621414D01*
X151578972Y-115723738D01*
X151448738Y-115853972D01*
X151346414Y-116007111D01*
X151275932Y-116177271D01*
X151240000Y-116357911D01*
X151240000Y-116542089D01*
X151275932Y-116722729D01*
X151346414Y-116892889D01*
X151448738Y-117046028D01*
X151578972Y-117176262D01*
X151644431Y-117220000D01*
X149192985Y-117220000D01*
X149221028Y-117201262D01*
X149351262Y-117071028D01*
X149453586Y-116917889D01*
X149524068Y-116747729D01*
X149560000Y-116567089D01*
X149560000Y-116382911D01*
X149524068Y-116202271D01*
X149453586Y-116032111D01*
X149351262Y-115878972D01*
X149221028Y-115748738D01*
X149067889Y-115646414D01*
X148897729Y-115575932D01*
X148717089Y-115540000D01*
X148532911Y-115540000D01*
X148352271Y-115575932D01*
X148182111Y-115646414D01*
X148028972Y-115748738D01*
X147898738Y-115878972D01*
X147796414Y-116032111D01*
X147725932Y-116202271D01*
X147690000Y-116382911D01*
X147690000Y-116567089D01*
X147725932Y-116747729D01*
X147796414Y-116917889D01*
X147898738Y-117071028D01*
X148028972Y-117201262D01*
X148057015Y-117220000D01*
X133870793Y-117220000D01*
X133989175Y-117101618D01*
X134195466Y-116792882D01*
X134337561Y-116449834D01*
X134410000Y-116085656D01*
X134410000Y-115714344D01*
X134337561Y-115350166D01*
X134195466Y-115007118D01*
X134051696Y-114791950D01*
X134520000Y-114791950D01*
X134520000Y-115558051D01*
X134535627Y-115716717D01*
X134597384Y-115920298D01*
X134697669Y-116107919D01*
X134832631Y-116272370D01*
X134997082Y-116407332D01*
X135184703Y-116507617D01*
X135388284Y-116569373D01*
X135600000Y-116590225D01*
X135811717Y-116569373D01*
X136015298Y-116507617D01*
X136202919Y-116407332D01*
X136367370Y-116272370D01*
X136502332Y-116107919D01*
X136602617Y-115920298D01*
X136664373Y-115716716D01*
X136680000Y-115558050D01*
X136680000Y-114791950D01*
X141520000Y-114791950D01*
X141520000Y-115558051D01*
X141535627Y-115716717D01*
X141597384Y-115920298D01*
X141697669Y-116107919D01*
X141832631Y-116272370D01*
X141997082Y-116407332D01*
X142184703Y-116507617D01*
X142388284Y-116569373D01*
X142600000Y-116590225D01*
X142811717Y-116569373D01*
X143015298Y-116507617D01*
X143202919Y-116407332D01*
X143367370Y-116272370D01*
X143502332Y-116107919D01*
X143602617Y-115920298D01*
X143664373Y-115716716D01*
X143680000Y-115558050D01*
X143680000Y-114791949D01*
X143664373Y-114633283D01*
X143633926Y-114532911D01*
X153865000Y-114532911D01*
X153865000Y-114717089D01*
X153900932Y-114897729D01*
X153971414Y-115067889D01*
X154073738Y-115221028D01*
X154203972Y-115351262D01*
X154357111Y-115453586D01*
X154527271Y-115524068D01*
X154707911Y-115560000D01*
X154892089Y-115560000D01*
X155072729Y-115524068D01*
X155242889Y-115453586D01*
X155396028Y-115351262D01*
X155526262Y-115221028D01*
X155628586Y-115067889D01*
X155699068Y-114897729D01*
X155735000Y-114717089D01*
X155735000Y-114532911D01*
X155699068Y-114352271D01*
X155628586Y-114182111D01*
X155526262Y-114028972D01*
X155396028Y-113898738D01*
X155242889Y-113796414D01*
X155072729Y-113725932D01*
X154892089Y-113690000D01*
X154707911Y-113690000D01*
X154527271Y-113725932D01*
X154357111Y-113796414D01*
X154203972Y-113898738D01*
X154073738Y-114028972D01*
X153971414Y-114182111D01*
X153900932Y-114352271D01*
X153865000Y-114532911D01*
X143633926Y-114532911D01*
X143602617Y-114429702D01*
X143502332Y-114242081D01*
X143367370Y-114077630D01*
X143202919Y-113942668D01*
X143015297Y-113842383D01*
X142811716Y-113780627D01*
X142600000Y-113759775D01*
X142388283Y-113780627D01*
X142184702Y-113842383D01*
X141997081Y-113942668D01*
X141832630Y-114077630D01*
X141697668Y-114242081D01*
X141597383Y-114429703D01*
X141535627Y-114633284D01*
X141520000Y-114791950D01*
X136680000Y-114791950D01*
X136680000Y-114791949D01*
X136664373Y-114633283D01*
X136602617Y-114429702D01*
X136502332Y-114242081D01*
X136367370Y-114077630D01*
X136202919Y-113942668D01*
X136015297Y-113842383D01*
X135811716Y-113780627D01*
X135600000Y-113759775D01*
X135388283Y-113780627D01*
X135184702Y-113842383D01*
X134997081Y-113942668D01*
X134832630Y-114077630D01*
X134697668Y-114242081D01*
X134597383Y-114429703D01*
X134535627Y-114633284D01*
X134520000Y-114791950D01*
X134051696Y-114791950D01*
X133989175Y-114698382D01*
X133726618Y-114435825D01*
X133417882Y-114229534D01*
X133074834Y-114087439D01*
X132710656Y-114015000D01*
X132339344Y-114015000D01*
X131975166Y-114087439D01*
X131632118Y-114229534D01*
X131323382Y-114435825D01*
X131219237Y-114539970D01*
X131218893Y-113007901D01*
X132115000Y-113007901D01*
X132115000Y-113192079D01*
X132150932Y-113372719D01*
X132221414Y-113542879D01*
X132323738Y-113696018D01*
X132453972Y-113826252D01*
X132607111Y-113928576D01*
X132777271Y-113999058D01*
X132957911Y-114034990D01*
X133142089Y-114034990D01*
X133322729Y-113999058D01*
X133492889Y-113928576D01*
X133646028Y-113826252D01*
X133776262Y-113696018D01*
X133878586Y-113542879D01*
X133949068Y-113372719D01*
X133985000Y-113192079D01*
X133985000Y-113144916D01*
X134039608Y-113199524D01*
X134192747Y-113301848D01*
X134362907Y-113372330D01*
X134543547Y-113408262D01*
X134727725Y-113408262D01*
X134908365Y-113372330D01*
X135078525Y-113301848D01*
X135231664Y-113199524D01*
X135361898Y-113069290D01*
X135443645Y-112946946D01*
X135522604Y-113094666D01*
X135661314Y-113263686D01*
X135830334Y-113402396D01*
X136023166Y-113505468D01*
X136232402Y-113568938D01*
X136395479Y-113585000D01*
X136804521Y-113585000D01*
X136967598Y-113568938D01*
X137176834Y-113505468D01*
X137369666Y-113402396D01*
X137538686Y-113263686D01*
X137677396Y-113094666D01*
X137780468Y-112901834D01*
X137843938Y-112692598D01*
X137865370Y-112475000D01*
X137843938Y-112257402D01*
X137780468Y-112048166D01*
X137677396Y-111855334D01*
X137538686Y-111686314D01*
X137369666Y-111547604D01*
X137176834Y-111444532D01*
X136967598Y-111381062D01*
X136828699Y-111367381D01*
X136928586Y-111217889D01*
X136932718Y-111207911D01*
X139465000Y-111207911D01*
X139465000Y-111392089D01*
X139500932Y-111572729D01*
X139571414Y-111742889D01*
X139673738Y-111896028D01*
X139803972Y-112026262D01*
X139957111Y-112128586D01*
X140127271Y-112199068D01*
X140307911Y-112235000D01*
X140362857Y-112235000D01*
X140356062Y-112257402D01*
X140334630Y-112475000D01*
X140356062Y-112692598D01*
X140419532Y-112901834D01*
X140522604Y-113094666D01*
X140661314Y-113263686D01*
X140830334Y-113402396D01*
X141023166Y-113505468D01*
X141232402Y-113568938D01*
X141395479Y-113585000D01*
X141804521Y-113585000D01*
X141967598Y-113568938D01*
X142176834Y-113505468D01*
X142369666Y-113402396D01*
X142538686Y-113263686D01*
X142677396Y-113094666D01*
X142780468Y-112901834D01*
X142843938Y-112692598D01*
X142865370Y-112475000D01*
X142843938Y-112257402D01*
X142780468Y-112048166D01*
X142677396Y-111855334D01*
X142538686Y-111686314D01*
X142369666Y-111547604D01*
X142176834Y-111444532D01*
X141967598Y-111381062D01*
X141804521Y-111365000D01*
X141395479Y-111365000D01*
X141335000Y-111370957D01*
X141335000Y-111207911D01*
X141299068Y-111027271D01*
X141228586Y-110857111D01*
X141126262Y-110703972D01*
X140996028Y-110573738D01*
X140842889Y-110471414D01*
X140672729Y-110400932D01*
X140492089Y-110365000D01*
X140307911Y-110365000D01*
X140127271Y-110400932D01*
X139957111Y-110471414D01*
X139803972Y-110573738D01*
X139673738Y-110703972D01*
X139571414Y-110857111D01*
X139500932Y-111027271D01*
X139465000Y-111207911D01*
X136932718Y-111207911D01*
X136999068Y-111047729D01*
X137035000Y-110867089D01*
X137035000Y-110682911D01*
X136999068Y-110502271D01*
X136928586Y-110332111D01*
X136826262Y-110178972D01*
X136696028Y-110048738D01*
X136684391Y-110040962D01*
X142273051Y-110040962D01*
X142273051Y-110225140D01*
X142308983Y-110405780D01*
X142379465Y-110575940D01*
X142481789Y-110729079D01*
X142612023Y-110859313D01*
X142765162Y-110961637D01*
X142935322Y-111032119D01*
X143115962Y-111068051D01*
X143300140Y-111068051D01*
X143480780Y-111032119D01*
X143650940Y-110961637D01*
X143804079Y-110859313D01*
X143934313Y-110729079D01*
X144036637Y-110575940D01*
X144107119Y-110405780D01*
X144143051Y-110225140D01*
X144143051Y-110040962D01*
X144126531Y-109957911D01*
X147690000Y-109957911D01*
X147690000Y-110142089D01*
X147725932Y-110322729D01*
X147796414Y-110492889D01*
X147898738Y-110646028D01*
X148028972Y-110776262D01*
X148182111Y-110878586D01*
X148352271Y-110949068D01*
X148532911Y-110985000D01*
X148717089Y-110985000D01*
X148897729Y-110949068D01*
X149067889Y-110878586D01*
X149221028Y-110776262D01*
X149351262Y-110646028D01*
X149453586Y-110492889D01*
X149524068Y-110322729D01*
X149560000Y-110142089D01*
X149560000Y-109957911D01*
X149555028Y-109932911D01*
X151240000Y-109932911D01*
X151240000Y-110117089D01*
X151275932Y-110297729D01*
X151346414Y-110467889D01*
X151448738Y-110621028D01*
X151578972Y-110751262D01*
X151732111Y-110853586D01*
X151902271Y-110924068D01*
X152082911Y-110960000D01*
X152267089Y-110960000D01*
X152447729Y-110924068D01*
X152617889Y-110853586D01*
X152771028Y-110751262D01*
X152901262Y-110621028D01*
X153003586Y-110467889D01*
X153074068Y-110297729D01*
X153110000Y-110117089D01*
X153110000Y-109932911D01*
X153074068Y-109752271D01*
X153003586Y-109582111D01*
X152901262Y-109428972D01*
X152771028Y-109298738D01*
X152617889Y-109196414D01*
X152447729Y-109125932D01*
X152267089Y-109090000D01*
X152082911Y-109090000D01*
X151902271Y-109125932D01*
X151732111Y-109196414D01*
X151578972Y-109298738D01*
X151448738Y-109428972D01*
X151346414Y-109582111D01*
X151275932Y-109752271D01*
X151240000Y-109932911D01*
X149555028Y-109932911D01*
X149524068Y-109777271D01*
X149453586Y-109607111D01*
X149351262Y-109453972D01*
X149221028Y-109323738D01*
X149067889Y-109221414D01*
X148897729Y-109150932D01*
X148717089Y-109115000D01*
X148532911Y-109115000D01*
X148352271Y-109150932D01*
X148182111Y-109221414D01*
X148028972Y-109323738D01*
X147898738Y-109453972D01*
X147796414Y-109607111D01*
X147725932Y-109777271D01*
X147690000Y-109957911D01*
X144126531Y-109957911D01*
X144107119Y-109860322D01*
X144036637Y-109690162D01*
X143934313Y-109537023D01*
X143804079Y-109406789D01*
X143650940Y-109304465D01*
X143480780Y-109233983D01*
X143300140Y-109198051D01*
X143115962Y-109198051D01*
X142935322Y-109233983D01*
X142765162Y-109304465D01*
X142612023Y-109406789D01*
X142481789Y-109537023D01*
X142379465Y-109690162D01*
X142308983Y-109860322D01*
X142273051Y-110040962D01*
X136684391Y-110040962D01*
X136542889Y-109946414D01*
X136372729Y-109875932D01*
X136192089Y-109840000D01*
X136007911Y-109840000D01*
X135827271Y-109875932D01*
X135657111Y-109946414D01*
X135503972Y-110048738D01*
X135373738Y-110178972D01*
X135271414Y-110332111D01*
X135200932Y-110502271D01*
X135165000Y-110682911D01*
X135165000Y-110867089D01*
X135200932Y-111047729D01*
X135271414Y-111217889D01*
X135373738Y-111371028D01*
X135503972Y-111501262D01*
X135657111Y-111603586D01*
X135726897Y-111632492D01*
X135661314Y-111686314D01*
X135522604Y-111855334D01*
X135444678Y-112001123D01*
X135361898Y-111877234D01*
X135231664Y-111747000D01*
X135078525Y-111644676D01*
X134908365Y-111574194D01*
X134727725Y-111538262D01*
X134543547Y-111538262D01*
X134362907Y-111574194D01*
X134192747Y-111644676D01*
X134039608Y-111747000D01*
X133909374Y-111877234D01*
X133807050Y-112030373D01*
X133736568Y-112200533D01*
X133700636Y-112381173D01*
X133700636Y-112428336D01*
X133646028Y-112373728D01*
X133492889Y-112271404D01*
X133322729Y-112200922D01*
X133142089Y-112164990D01*
X132957911Y-112164990D01*
X132777271Y-112200922D01*
X132607111Y-112271404D01*
X132453972Y-112373728D01*
X132323738Y-112503962D01*
X132221414Y-112657101D01*
X132150932Y-112827261D01*
X132115000Y-113007901D01*
X131218893Y-113007901D01*
X131218185Y-109857911D01*
X131940000Y-109857911D01*
X131940000Y-110042089D01*
X131975932Y-110222729D01*
X132046414Y-110392889D01*
X132148738Y-110546028D01*
X132278972Y-110676262D01*
X132432111Y-110778586D01*
X132602271Y-110849068D01*
X132782911Y-110885000D01*
X132967089Y-110885000D01*
X133147729Y-110849068D01*
X133317889Y-110778586D01*
X133471028Y-110676262D01*
X133601262Y-110546028D01*
X133703586Y-110392889D01*
X133774068Y-110222729D01*
X133810000Y-110042089D01*
X133810000Y-109857911D01*
X133774068Y-109677271D01*
X133703586Y-109507111D01*
X133601262Y-109353972D01*
X133471028Y-109223738D01*
X133317889Y-109121414D01*
X133147729Y-109050932D01*
X132967089Y-109015000D01*
X132782911Y-109015000D01*
X132602271Y-109050932D01*
X132432111Y-109121414D01*
X132278972Y-109223738D01*
X132148738Y-109353972D01*
X132046414Y-109507111D01*
X131975932Y-109677271D01*
X131940000Y-109857911D01*
X131218185Y-109857911D01*
X131217719Y-107782911D01*
X134065000Y-107782911D01*
X134065000Y-107967089D01*
X134100932Y-108147729D01*
X134171414Y-108317889D01*
X134273738Y-108471028D01*
X134403972Y-108601262D01*
X134557111Y-108703586D01*
X134727271Y-108774068D01*
X134794127Y-108787367D01*
X134796414Y-108792889D01*
X134898738Y-108946028D01*
X135028972Y-109076262D01*
X135182111Y-109178586D01*
X135352271Y-109249068D01*
X135532911Y-109285000D01*
X135717089Y-109285000D01*
X135897729Y-109249068D01*
X136067889Y-109178586D01*
X136221028Y-109076262D01*
X136351262Y-108946028D01*
X136453586Y-108792889D01*
X136524068Y-108622729D01*
X136560000Y-108442089D01*
X136560000Y-108407911D01*
X137265000Y-108407911D01*
X137265000Y-108592089D01*
X137300932Y-108772729D01*
X137371414Y-108942889D01*
X137473738Y-109096028D01*
X137603972Y-109226262D01*
X137757111Y-109328586D01*
X137927271Y-109399068D01*
X138107911Y-109435000D01*
X138292089Y-109435000D01*
X138472729Y-109399068D01*
X138642889Y-109328586D01*
X138796028Y-109226262D01*
X138926262Y-109096028D01*
X139028586Y-108942889D01*
X139099068Y-108772729D01*
X139135000Y-108592089D01*
X139135000Y-108407911D01*
X139099068Y-108227271D01*
X139028586Y-108057111D01*
X138955722Y-107948061D01*
X139240000Y-107948061D01*
X139240000Y-108151939D01*
X139279774Y-108351898D01*
X139357795Y-108540256D01*
X139471063Y-108709774D01*
X139615226Y-108853937D01*
X139784744Y-108967205D01*
X139973102Y-109045226D01*
X140173061Y-109085000D01*
X140376939Y-109085000D01*
X140576898Y-109045226D01*
X140765256Y-108967205D01*
X140934774Y-108853937D01*
X141078937Y-108709774D01*
X141192205Y-108540256D01*
X141270226Y-108351898D01*
X141310000Y-108151939D01*
X141310000Y-107948061D01*
X141270226Y-107748102D01*
X141192205Y-107559744D01*
X141078937Y-107390226D01*
X140934774Y-107246063D01*
X140765256Y-107132795D01*
X140576898Y-107054774D01*
X140376939Y-107015000D01*
X140173061Y-107015000D01*
X139973102Y-107054774D01*
X139784744Y-107132795D01*
X139615226Y-107246063D01*
X139471063Y-107390226D01*
X139357795Y-107559744D01*
X139279774Y-107748102D01*
X139240000Y-107948061D01*
X138955722Y-107948061D01*
X138926262Y-107903972D01*
X138796028Y-107773738D01*
X138642889Y-107671414D01*
X138472729Y-107600932D01*
X138292089Y-107565000D01*
X138107911Y-107565000D01*
X137927271Y-107600932D01*
X137757111Y-107671414D01*
X137603972Y-107773738D01*
X137473738Y-107903972D01*
X137371414Y-108057111D01*
X137300932Y-108227271D01*
X137265000Y-108407911D01*
X136560000Y-108407911D01*
X136560000Y-108257911D01*
X136524068Y-108077271D01*
X136453586Y-107907111D01*
X136351262Y-107753972D01*
X136221028Y-107623738D01*
X136067889Y-107521414D01*
X135897729Y-107450932D01*
X135830873Y-107437633D01*
X135828586Y-107432111D01*
X135726262Y-107278972D01*
X135596028Y-107148738D01*
X135442889Y-107046414D01*
X135272729Y-106975932D01*
X135092089Y-106940000D01*
X134907911Y-106940000D01*
X134727271Y-106975932D01*
X134557111Y-107046414D01*
X134403972Y-107148738D01*
X134273738Y-107278972D01*
X134171414Y-107432111D01*
X134100932Y-107602271D01*
X134065000Y-107782911D01*
X131217719Y-107782911D01*
X131217191Y-105432911D01*
X138865000Y-105432911D01*
X138865000Y-105617089D01*
X138900932Y-105797729D01*
X138971414Y-105967889D01*
X139073738Y-106121028D01*
X139203972Y-106251262D01*
X139357111Y-106353586D01*
X139527271Y-106424068D01*
X139707911Y-106460000D01*
X139892089Y-106460000D01*
X140072729Y-106424068D01*
X140242889Y-106353586D01*
X140396028Y-106251262D01*
X140526262Y-106121028D01*
X140628586Y-105967889D01*
X140699068Y-105797729D01*
X140735000Y-105617089D01*
X140735000Y-105432911D01*
X140699068Y-105252271D01*
X140628586Y-105082111D01*
X140526262Y-104928972D01*
X140396028Y-104798738D01*
X140242889Y-104696414D01*
X140072729Y-104625932D01*
X139892089Y-104590000D01*
X139707911Y-104590000D01*
X139527271Y-104625932D01*
X139357111Y-104696414D01*
X139203972Y-104798738D01*
X139073738Y-104928972D01*
X138971414Y-105082111D01*
X138900932Y-105252271D01*
X138865000Y-105432911D01*
X131217191Y-105432911D01*
X131216165Y-100870180D01*
X132057690Y-100896253D01*
X132053972Y-100898738D01*
X131923738Y-101028972D01*
X131821414Y-101182111D01*
X131750932Y-101352271D01*
X131715000Y-101532911D01*
X131715000Y-101717089D01*
X131750932Y-101897729D01*
X131821414Y-102067889D01*
X131923738Y-102221028D01*
X132053972Y-102351262D01*
X132207111Y-102453586D01*
X132377271Y-102524068D01*
X132557911Y-102560000D01*
X132742089Y-102560000D01*
X132922729Y-102524068D01*
X133092889Y-102453586D01*
X133246028Y-102351262D01*
X133376262Y-102221028D01*
X133418435Y-102157911D01*
X141640000Y-102157911D01*
X141640000Y-102342089D01*
X141675932Y-102522729D01*
X141746414Y-102692889D01*
X141848738Y-102846028D01*
X141978972Y-102976262D01*
X142132111Y-103078586D01*
X142302271Y-103149068D01*
X142482911Y-103185000D01*
X142667089Y-103185000D01*
X142847729Y-103149068D01*
X143015758Y-103079469D01*
X143040226Y-103103937D01*
X143209744Y-103217205D01*
X143398102Y-103295226D01*
X143598061Y-103335000D01*
X143801939Y-103335000D01*
X144001898Y-103295226D01*
X144190256Y-103217205D01*
X144359774Y-103103937D01*
X144493741Y-102969970D01*
X144542248Y-102979619D01*
X144726426Y-102979619D01*
X144907066Y-102943687D01*
X145077226Y-102873205D01*
X145230365Y-102770881D01*
X145360599Y-102640647D01*
X145462923Y-102487508D01*
X145490000Y-102422138D01*
X145490000Y-102567089D01*
X145525932Y-102747729D01*
X145596414Y-102917889D01*
X145698738Y-103071028D01*
X145828972Y-103201262D01*
X145918837Y-103261307D01*
X145821414Y-103407111D01*
X145750932Y-103577271D01*
X145715000Y-103757911D01*
X145715000Y-103881413D01*
X145711002Y-103880618D01*
X145507124Y-103880618D01*
X145307165Y-103920392D01*
X145118807Y-103998413D01*
X144949289Y-104111681D01*
X144805126Y-104255844D01*
X144691858Y-104425362D01*
X144613837Y-104613720D01*
X144574063Y-104813679D01*
X144574063Y-105017557D01*
X144613837Y-105217516D01*
X144691858Y-105405874D01*
X144805126Y-105575392D01*
X144949289Y-105719555D01*
X145118807Y-105832823D01*
X145307165Y-105910844D01*
X145507124Y-105950618D01*
X145711002Y-105950618D01*
X145910961Y-105910844D01*
X146099319Y-105832823D01*
X146268837Y-105719555D01*
X146413000Y-105575392D01*
X146526268Y-105405874D01*
X146604289Y-105217516D01*
X146644063Y-105017557D01*
X146644063Y-104813679D01*
X146638358Y-104785000D01*
X146742089Y-104785000D01*
X146878272Y-104757911D01*
X151215000Y-104757911D01*
X151215000Y-104942089D01*
X151250932Y-105122729D01*
X151321414Y-105292889D01*
X151423738Y-105446028D01*
X151553972Y-105576262D01*
X151707111Y-105678586D01*
X151877271Y-105749068D01*
X152057911Y-105785000D01*
X152242089Y-105785000D01*
X152422729Y-105749068D01*
X152592889Y-105678586D01*
X152746028Y-105576262D01*
X152876262Y-105446028D01*
X152978586Y-105292889D01*
X153049068Y-105122729D01*
X153085000Y-104942089D01*
X153085000Y-104757911D01*
X153049068Y-104577271D01*
X152978586Y-104407111D01*
X152876262Y-104253972D01*
X152746028Y-104123738D01*
X152592889Y-104021414D01*
X152422729Y-103950932D01*
X152242089Y-103915000D01*
X152057911Y-103915000D01*
X151877271Y-103950932D01*
X151707111Y-104021414D01*
X151553972Y-104123738D01*
X151423738Y-104253972D01*
X151321414Y-104407111D01*
X151250932Y-104577271D01*
X151215000Y-104757911D01*
X146878272Y-104757911D01*
X146922729Y-104749068D01*
X147092889Y-104678586D01*
X147246028Y-104576262D01*
X147376262Y-104446028D01*
X147478586Y-104292889D01*
X147549068Y-104122729D01*
X147585000Y-103942089D01*
X147585000Y-103757911D01*
X147549068Y-103577271D01*
X147478586Y-103407111D01*
X147376262Y-103253972D01*
X147246028Y-103123738D01*
X147156163Y-103063693D01*
X147253586Y-102917889D01*
X147324068Y-102747729D01*
X147360000Y-102567089D01*
X147360000Y-102382911D01*
X147324068Y-102202271D01*
X147253586Y-102032111D01*
X147151262Y-101878972D01*
X147021028Y-101748738D01*
X146867889Y-101646414D01*
X146697729Y-101575932D01*
X146517089Y-101540000D01*
X146332911Y-101540000D01*
X146152271Y-101575932D01*
X146082462Y-101604848D01*
X146085000Y-101592089D01*
X146085000Y-101407911D01*
X146049068Y-101227271D01*
X145978586Y-101057111D01*
X145945712Y-101007911D01*
X150690000Y-101007911D01*
X150690000Y-101192089D01*
X150725932Y-101372729D01*
X150796414Y-101542889D01*
X150898738Y-101696028D01*
X151028972Y-101826262D01*
X151182111Y-101928586D01*
X151352271Y-101999068D01*
X151373277Y-102003246D01*
X151379304Y-102033548D01*
X151449786Y-102203708D01*
X151552110Y-102356847D01*
X151682344Y-102487081D01*
X151835483Y-102589405D01*
X152005643Y-102659887D01*
X152186283Y-102695819D01*
X152370461Y-102695819D01*
X152551101Y-102659887D01*
X152721261Y-102589405D01*
X152768395Y-102557911D01*
X155840000Y-102557911D01*
X155840000Y-102742089D01*
X155875932Y-102922729D01*
X155946414Y-103092889D01*
X156048738Y-103246028D01*
X156178972Y-103376262D01*
X156332111Y-103478586D01*
X156502271Y-103549068D01*
X156682911Y-103585000D01*
X156867089Y-103585000D01*
X157047729Y-103549068D01*
X157217889Y-103478586D01*
X157371028Y-103376262D01*
X157501262Y-103246028D01*
X157603586Y-103092889D01*
X157674068Y-102922729D01*
X157710000Y-102742089D01*
X157710000Y-102557911D01*
X157674068Y-102377271D01*
X157603586Y-102207111D01*
X157501262Y-102053972D01*
X157371028Y-101923738D01*
X157217889Y-101821414D01*
X157047729Y-101750932D01*
X156867089Y-101715000D01*
X156682911Y-101715000D01*
X156502271Y-101750932D01*
X156332111Y-101821414D01*
X156178972Y-101923738D01*
X156048738Y-102053972D01*
X155946414Y-102207111D01*
X155875932Y-102377271D01*
X155840000Y-102557911D01*
X152768395Y-102557911D01*
X152874400Y-102487081D01*
X153004634Y-102356847D01*
X153106958Y-102203708D01*
X153177440Y-102033548D01*
X153213372Y-101852908D01*
X153213372Y-101668730D01*
X153177440Y-101488090D01*
X153106958Y-101317930D01*
X153004634Y-101164791D01*
X152874400Y-101034557D01*
X152721261Y-100932233D01*
X152551101Y-100861751D01*
X152530095Y-100857573D01*
X152524068Y-100827271D01*
X152453586Y-100657111D01*
X152351262Y-100503972D01*
X152221028Y-100373738D01*
X152067889Y-100271414D01*
X151897729Y-100200932D01*
X151717089Y-100165000D01*
X151532911Y-100165000D01*
X151352271Y-100200932D01*
X151182111Y-100271414D01*
X151028972Y-100373738D01*
X150898738Y-100503972D01*
X150796414Y-100657111D01*
X150725932Y-100827271D01*
X150690000Y-101007911D01*
X145945712Y-101007911D01*
X145876262Y-100903972D01*
X145746028Y-100773738D01*
X145592889Y-100671414D01*
X145422729Y-100600932D01*
X145421585Y-100600705D01*
X145501262Y-100521028D01*
X145603586Y-100367889D01*
X145674068Y-100197729D01*
X145710000Y-100017089D01*
X145710000Y-99832911D01*
X145674068Y-99652271D01*
X145634984Y-99557911D01*
X148640000Y-99557911D01*
X148640000Y-99742089D01*
X148675932Y-99922729D01*
X148746414Y-100092889D01*
X148848738Y-100246028D01*
X148978972Y-100376262D01*
X149132111Y-100478586D01*
X149302271Y-100549068D01*
X149482911Y-100585000D01*
X149667089Y-100585000D01*
X149847729Y-100549068D01*
X150017889Y-100478586D01*
X150171028Y-100376262D01*
X150301262Y-100246028D01*
X150403586Y-100092889D01*
X150474068Y-99922729D01*
X150510000Y-99742089D01*
X150510000Y-99557911D01*
X150474068Y-99377271D01*
X150403586Y-99207111D01*
X150337303Y-99107911D01*
X151615000Y-99107911D01*
X151615000Y-99292089D01*
X151650932Y-99472729D01*
X151721414Y-99642889D01*
X151823738Y-99796028D01*
X151953972Y-99926262D01*
X152107111Y-100028586D01*
X152277271Y-100099068D01*
X152457911Y-100135000D01*
X152524552Y-100135000D01*
X152598738Y-100246028D01*
X152728972Y-100376262D01*
X152882111Y-100478586D01*
X153052271Y-100549068D01*
X153232911Y-100585000D01*
X153417089Y-100585000D01*
X153597729Y-100549068D01*
X153767889Y-100478586D01*
X153921028Y-100376262D01*
X154051262Y-100246028D01*
X154153586Y-100092889D01*
X154224068Y-99922729D01*
X154260000Y-99742089D01*
X154260000Y-99557911D01*
X154640000Y-99557911D01*
X154640000Y-99742089D01*
X154675932Y-99922729D01*
X154746414Y-100092889D01*
X154848738Y-100246028D01*
X154978972Y-100376262D01*
X155132111Y-100478586D01*
X155302271Y-100549068D01*
X155482911Y-100585000D01*
X155667089Y-100585000D01*
X155847729Y-100549068D01*
X156017889Y-100478586D01*
X156171028Y-100376262D01*
X156301262Y-100246028D01*
X156403586Y-100092889D01*
X156474068Y-99922729D01*
X156510000Y-99742089D01*
X156510000Y-99557911D01*
X156505443Y-99535000D01*
X156617089Y-99535000D01*
X156797729Y-99499068D01*
X156967889Y-99428586D01*
X157121028Y-99326262D01*
X157251262Y-99196028D01*
X157353586Y-99042889D01*
X157424068Y-98872729D01*
X157460000Y-98692089D01*
X157460000Y-98507911D01*
X157424068Y-98327271D01*
X157353586Y-98157111D01*
X157251262Y-98003972D01*
X157121028Y-97873738D01*
X156967889Y-97771414D01*
X156797729Y-97700932D01*
X156617089Y-97665000D01*
X156432911Y-97665000D01*
X156252271Y-97700932D01*
X156082111Y-97771414D01*
X155928972Y-97873738D01*
X155798738Y-98003972D01*
X155696414Y-98157111D01*
X155625932Y-98327271D01*
X155590000Y-98507911D01*
X155590000Y-98692089D01*
X155594557Y-98715000D01*
X155482911Y-98715000D01*
X155302271Y-98750932D01*
X155132111Y-98821414D01*
X154978972Y-98923738D01*
X154848738Y-99053972D01*
X154746414Y-99207111D01*
X154675932Y-99377271D01*
X154640000Y-99557911D01*
X154260000Y-99557911D01*
X154224068Y-99377271D01*
X154153586Y-99207111D01*
X154051262Y-99053972D01*
X153921028Y-98923738D01*
X153767889Y-98821414D01*
X153597729Y-98750932D01*
X153417089Y-98715000D01*
X153350448Y-98715000D01*
X153276262Y-98603972D01*
X153146028Y-98473738D01*
X152992889Y-98371414D01*
X152822729Y-98300932D01*
X152642089Y-98265000D01*
X152457911Y-98265000D01*
X152277271Y-98300932D01*
X152107111Y-98371414D01*
X151953972Y-98473738D01*
X151823738Y-98603972D01*
X151721414Y-98757111D01*
X151650932Y-98927271D01*
X151615000Y-99107911D01*
X150337303Y-99107911D01*
X150301262Y-99053972D01*
X150171028Y-98923738D01*
X150017889Y-98821414D01*
X149847729Y-98750932D01*
X149667089Y-98715000D01*
X149482911Y-98715000D01*
X149302271Y-98750932D01*
X149132111Y-98821414D01*
X148978972Y-98923738D01*
X148848738Y-99053972D01*
X148746414Y-99207111D01*
X148675932Y-99377271D01*
X148640000Y-99557911D01*
X145634984Y-99557911D01*
X145603586Y-99482111D01*
X145501262Y-99328972D01*
X145371028Y-99198738D01*
X145217889Y-99096414D01*
X145047729Y-99025932D01*
X144867089Y-98990000D01*
X144682911Y-98990000D01*
X144502271Y-99025932D01*
X144332111Y-99096414D01*
X144178972Y-99198738D01*
X144130536Y-99247174D01*
X144103586Y-99182111D01*
X144001262Y-99028972D01*
X143997290Y-99025000D01*
X144001262Y-99021028D01*
X144103586Y-98867889D01*
X144174068Y-98697729D01*
X144210000Y-98517089D01*
X144210000Y-98332911D01*
X144174068Y-98152271D01*
X144103586Y-97982111D01*
X144001262Y-97828972D01*
X143871028Y-97698738D01*
X143717889Y-97596414D01*
X143547729Y-97525932D01*
X143367089Y-97490000D01*
X143182911Y-97490000D01*
X143002271Y-97525932D01*
X142832111Y-97596414D01*
X142678972Y-97698738D01*
X142548738Y-97828972D01*
X142446414Y-97982111D01*
X142375932Y-98152271D01*
X142340000Y-98332911D01*
X142340000Y-98517089D01*
X142375932Y-98697729D01*
X142446414Y-98867889D01*
X142548738Y-99021028D01*
X142552710Y-99025000D01*
X142548738Y-99028972D01*
X142446414Y-99182111D01*
X142375932Y-99352271D01*
X142340000Y-99532911D01*
X142340000Y-99717089D01*
X142375932Y-99897729D01*
X142446414Y-100067889D01*
X142548738Y-100221028D01*
X142678972Y-100351262D01*
X142832111Y-100453586D01*
X143002271Y-100524068D01*
X143182911Y-100560000D01*
X143367089Y-100560000D01*
X143547729Y-100524068D01*
X143717889Y-100453586D01*
X143871028Y-100351262D01*
X143919464Y-100302826D01*
X143946414Y-100367889D01*
X144048738Y-100521028D01*
X144178972Y-100651262D01*
X144332111Y-100753586D01*
X144502271Y-100824068D01*
X144503415Y-100824295D01*
X144423738Y-100903972D01*
X144321414Y-101057111D01*
X144268870Y-101183964D01*
X144191448Y-101216033D01*
X144038309Y-101318357D01*
X144037249Y-101319417D01*
X144001898Y-101304774D01*
X143801939Y-101265000D01*
X143598061Y-101265000D01*
X143398102Y-101304774D01*
X143209744Y-101382795D01*
X143084918Y-101466201D01*
X143017889Y-101421414D01*
X142847729Y-101350932D01*
X142667089Y-101315000D01*
X142482911Y-101315000D01*
X142302271Y-101350932D01*
X142132111Y-101421414D01*
X141978972Y-101523738D01*
X141848738Y-101653972D01*
X141746414Y-101807111D01*
X141675932Y-101977271D01*
X141640000Y-102157911D01*
X133418435Y-102157911D01*
X133478586Y-102067889D01*
X133549068Y-101897729D01*
X133585000Y-101717089D01*
X133585000Y-101532911D01*
X133549068Y-101352271D01*
X133478586Y-101182111D01*
X133376262Y-101028972D01*
X133281460Y-100934170D01*
X136921067Y-101046939D01*
X136949646Y-101044586D01*
X136973478Y-101037384D01*
X136995447Y-101025671D01*
X137014708Y-101009897D01*
X137030523Y-100990668D01*
X137042282Y-100968724D01*
X137049534Y-100944907D01*
X137052000Y-100920133D01*
X137052905Y-100056968D01*
X137075932Y-100172729D01*
X137146414Y-100342889D01*
X137248738Y-100496028D01*
X137378972Y-100626262D01*
X137532111Y-100728586D01*
X137702271Y-100799068D01*
X137882911Y-100835000D01*
X138044422Y-100835000D01*
X138015000Y-100982911D01*
X138015000Y-101167089D01*
X138050932Y-101347729D01*
X138121414Y-101517889D01*
X138223738Y-101671028D01*
X138353972Y-101801262D01*
X138507111Y-101903586D01*
X138677271Y-101974068D01*
X138857911Y-102010000D01*
X139042089Y-102010000D01*
X139222729Y-101974068D01*
X139392889Y-101903586D01*
X139546028Y-101801262D01*
X139676262Y-101671028D01*
X139778586Y-101517889D01*
X139849068Y-101347729D01*
X139885000Y-101167089D01*
X139885000Y-100982911D01*
X139849068Y-100802271D01*
X139778586Y-100632111D01*
X139762417Y-100607911D01*
X139965000Y-100607911D01*
X139965000Y-100792089D01*
X140000932Y-100972729D01*
X140071414Y-101142889D01*
X140173738Y-101296028D01*
X140303972Y-101426262D01*
X140457111Y-101528586D01*
X140627271Y-101599068D01*
X140807911Y-101635000D01*
X140992089Y-101635000D01*
X141172729Y-101599068D01*
X141342889Y-101528586D01*
X141496028Y-101426262D01*
X141626262Y-101296028D01*
X141728586Y-101142889D01*
X141799068Y-100972729D01*
X141835000Y-100792089D01*
X141835000Y-100607911D01*
X141799068Y-100427271D01*
X141728586Y-100257111D01*
X141626262Y-100103972D01*
X141496028Y-99973738D01*
X141342889Y-99871414D01*
X141172729Y-99800932D01*
X140992089Y-99765000D01*
X140807911Y-99765000D01*
X140627271Y-99800932D01*
X140457111Y-99871414D01*
X140303972Y-99973738D01*
X140173738Y-100103972D01*
X140071414Y-100257111D01*
X140000932Y-100427271D01*
X139965000Y-100607911D01*
X139762417Y-100607911D01*
X139676262Y-100478972D01*
X139546028Y-100348738D01*
X139392889Y-100246414D01*
X139222729Y-100175932D01*
X139042089Y-100140000D01*
X138880578Y-100140000D01*
X138910000Y-99992089D01*
X138910000Y-99807911D01*
X138874068Y-99627271D01*
X138803586Y-99457111D01*
X138701262Y-99303972D01*
X138571028Y-99173738D01*
X138417889Y-99071414D01*
X138247729Y-99000932D01*
X138067089Y-98965000D01*
X137882911Y-98965000D01*
X137702271Y-99000932D01*
X137532111Y-99071414D01*
X137378972Y-99173738D01*
X137248738Y-99303972D01*
X137146414Y-99457111D01*
X137075932Y-99627271D01*
X137053236Y-99741368D01*
X137055253Y-97818936D01*
X137107111Y-97853586D01*
X137277271Y-97924068D01*
X137457911Y-97960000D01*
X137642089Y-97960000D01*
X137822729Y-97924068D01*
X137992889Y-97853586D01*
X138146028Y-97751262D01*
X138276262Y-97621028D01*
X138378586Y-97467889D01*
X138449068Y-97297729D01*
X138485000Y-97117089D01*
X138485000Y-96932911D01*
X138449068Y-96752271D01*
X138378586Y-96582111D01*
X138276262Y-96428972D01*
X138177679Y-96330389D01*
X142140006Y-96330389D01*
X142140006Y-96514567D01*
X142175938Y-96695207D01*
X142246420Y-96865367D01*
X142348744Y-97018506D01*
X142478978Y-97148740D01*
X142632117Y-97251064D01*
X142802277Y-97321546D01*
X142982917Y-97357478D01*
X143167095Y-97357478D01*
X143347735Y-97321546D01*
X143517895Y-97251064D01*
X143619893Y-97182911D01*
X144640000Y-97182911D01*
X144640000Y-97367089D01*
X144675932Y-97547729D01*
X144746414Y-97717889D01*
X144848738Y-97871028D01*
X144978972Y-98001262D01*
X145132111Y-98103586D01*
X145302271Y-98174068D01*
X145482911Y-98210000D01*
X145667089Y-98210000D01*
X145847729Y-98174068D01*
X146017889Y-98103586D01*
X146171028Y-98001262D01*
X146301262Y-97871028D01*
X146403586Y-97717889D01*
X146474068Y-97547729D01*
X146510000Y-97367089D01*
X146510000Y-97182911D01*
X146474068Y-97002271D01*
X146403586Y-96832111D01*
X146301262Y-96678972D01*
X146171028Y-96548738D01*
X146017889Y-96446414D01*
X145985290Y-96432911D01*
X149590000Y-96432911D01*
X149590000Y-96617089D01*
X149625932Y-96797729D01*
X149696414Y-96967889D01*
X149798738Y-97121028D01*
X149928972Y-97251262D01*
X150082111Y-97353586D01*
X150252271Y-97424068D01*
X150432911Y-97460000D01*
X150617089Y-97460000D01*
X150797729Y-97424068D01*
X150967889Y-97353586D01*
X151121028Y-97251262D01*
X151251262Y-97121028D01*
X151353586Y-96967889D01*
X151355197Y-96963998D01*
X151445726Y-96963998D01*
X151445726Y-97148176D01*
X151481658Y-97328816D01*
X151552140Y-97498976D01*
X151654464Y-97652115D01*
X151784698Y-97782349D01*
X151937837Y-97884673D01*
X152107997Y-97955155D01*
X152288637Y-97991087D01*
X152472815Y-97991087D01*
X152653455Y-97955155D01*
X152823615Y-97884673D01*
X152976754Y-97782349D01*
X153106988Y-97652115D01*
X153209312Y-97498976D01*
X153279794Y-97328816D01*
X153315726Y-97148176D01*
X153315726Y-96963998D01*
X153279794Y-96783358D01*
X153209312Y-96613198D01*
X153106988Y-96460059D01*
X152976754Y-96329825D01*
X152943958Y-96307911D01*
X156940000Y-96307911D01*
X156940000Y-96492089D01*
X156975932Y-96672729D01*
X157046414Y-96842889D01*
X157148738Y-96996028D01*
X157278972Y-97126262D01*
X157432111Y-97228586D01*
X157602271Y-97299068D01*
X157782911Y-97335000D01*
X157967089Y-97335000D01*
X158147729Y-97299068D01*
X158317889Y-97228586D01*
X158471028Y-97126262D01*
X158601262Y-96996028D01*
X158703586Y-96842889D01*
X158774068Y-96672729D01*
X158810000Y-96492089D01*
X158810000Y-96307911D01*
X158774068Y-96127271D01*
X158703586Y-95957111D01*
X158601262Y-95803972D01*
X158471028Y-95673738D01*
X158317889Y-95571414D01*
X158147729Y-95500932D01*
X157967089Y-95465000D01*
X157782911Y-95465000D01*
X157602271Y-95500932D01*
X157432111Y-95571414D01*
X157278972Y-95673738D01*
X157148738Y-95803972D01*
X157046414Y-95957111D01*
X156975932Y-96127271D01*
X156940000Y-96307911D01*
X152943958Y-96307911D01*
X152823615Y-96227501D01*
X152653455Y-96157019D01*
X152472815Y-96121087D01*
X152288637Y-96121087D01*
X152107997Y-96157019D01*
X151937837Y-96227501D01*
X151784698Y-96329825D01*
X151654464Y-96460059D01*
X151552140Y-96613198D01*
X151481658Y-96783358D01*
X151445726Y-96963998D01*
X151355197Y-96963998D01*
X151424068Y-96797729D01*
X151460000Y-96617089D01*
X151460000Y-96432911D01*
X151424068Y-96252271D01*
X151353586Y-96082111D01*
X151251262Y-95928972D01*
X151121028Y-95798738D01*
X150967889Y-95696414D01*
X150797729Y-95625932D01*
X150617089Y-95590000D01*
X150432911Y-95590000D01*
X150252271Y-95625932D01*
X150082111Y-95696414D01*
X149928972Y-95798738D01*
X149798738Y-95928972D01*
X149696414Y-96082111D01*
X149625932Y-96252271D01*
X149590000Y-96432911D01*
X145985290Y-96432911D01*
X145847729Y-96375932D01*
X145667089Y-96340000D01*
X145482911Y-96340000D01*
X145302271Y-96375932D01*
X145132111Y-96446414D01*
X144978972Y-96548738D01*
X144848738Y-96678972D01*
X144746414Y-96832111D01*
X144675932Y-97002271D01*
X144640000Y-97182911D01*
X143619893Y-97182911D01*
X143671034Y-97148740D01*
X143801268Y-97018506D01*
X143903592Y-96865367D01*
X143974074Y-96695207D01*
X144010006Y-96514567D01*
X144010006Y-96330389D01*
X143974074Y-96149749D01*
X143903592Y-95979589D01*
X143801268Y-95826450D01*
X143671034Y-95696216D01*
X143517895Y-95593892D01*
X143347735Y-95523410D01*
X143167095Y-95487478D01*
X142982917Y-95487478D01*
X142802277Y-95523410D01*
X142632117Y-95593892D01*
X142478978Y-95696216D01*
X142348744Y-95826450D01*
X142246420Y-95979589D01*
X142175938Y-96149749D01*
X142140006Y-96330389D01*
X138177679Y-96330389D01*
X138146028Y-96298738D01*
X137992889Y-96196414D01*
X137822729Y-96125932D01*
X137642089Y-96090000D01*
X137457911Y-96090000D01*
X137277271Y-96125932D01*
X137107111Y-96196414D01*
X137056920Y-96229951D01*
X137059932Y-93357911D01*
X137665000Y-93357911D01*
X137665000Y-93542089D01*
X137700932Y-93722729D01*
X137771414Y-93892889D01*
X137873738Y-94046028D01*
X138003972Y-94176262D01*
X138157111Y-94278586D01*
X138327271Y-94349068D01*
X138507911Y-94385000D01*
X138692089Y-94385000D01*
X138872729Y-94349068D01*
X138911735Y-94332911D01*
X157715000Y-94332911D01*
X157715000Y-94517089D01*
X157750932Y-94697729D01*
X157821414Y-94867889D01*
X157923738Y-95021028D01*
X158053972Y-95151262D01*
X158207111Y-95253586D01*
X158377271Y-95324068D01*
X158557911Y-95360000D01*
X158742089Y-95360000D01*
X158922729Y-95324068D01*
X159092889Y-95253586D01*
X159246028Y-95151262D01*
X159376262Y-95021028D01*
X159478586Y-94867889D01*
X159549068Y-94697729D01*
X159585000Y-94517089D01*
X159585000Y-94332911D01*
X159549068Y-94152271D01*
X159478586Y-93982111D01*
X159376262Y-93828972D01*
X159246028Y-93698738D01*
X159092889Y-93596414D01*
X158922729Y-93525932D01*
X158742089Y-93490000D01*
X158557911Y-93490000D01*
X158377271Y-93525932D01*
X158207111Y-93596414D01*
X158053972Y-93698738D01*
X157923738Y-93828972D01*
X157821414Y-93982111D01*
X157750932Y-94152271D01*
X157715000Y-94332911D01*
X138911735Y-94332911D01*
X139042889Y-94278586D01*
X139196028Y-94176262D01*
X139326262Y-94046028D01*
X139428586Y-93892889D01*
X139499068Y-93722729D01*
X139535000Y-93542089D01*
X139535000Y-93357911D01*
X139499068Y-93177271D01*
X139428586Y-93007111D01*
X139412417Y-92982911D01*
X141815000Y-92982911D01*
X141815000Y-93167089D01*
X141850932Y-93347729D01*
X141921414Y-93517889D01*
X142023738Y-93671028D01*
X142153972Y-93801262D01*
X142307111Y-93903586D01*
X142477271Y-93974068D01*
X142657911Y-94010000D01*
X142842089Y-94010000D01*
X143022729Y-93974068D01*
X143192889Y-93903586D01*
X143346028Y-93801262D01*
X143476262Y-93671028D01*
X143578586Y-93517889D01*
X143649068Y-93347729D01*
X143685000Y-93167089D01*
X143685000Y-92982911D01*
X143649068Y-92802271D01*
X143578586Y-92632111D01*
X143476262Y-92478972D01*
X143346028Y-92348738D01*
X143192889Y-92246414D01*
X143022729Y-92175932D01*
X142842089Y-92140000D01*
X142657911Y-92140000D01*
X142477271Y-92175932D01*
X142307111Y-92246414D01*
X142153972Y-92348738D01*
X142023738Y-92478972D01*
X141921414Y-92632111D01*
X141850932Y-92802271D01*
X141815000Y-92982911D01*
X139412417Y-92982911D01*
X139326262Y-92853972D01*
X139196028Y-92723738D01*
X139042889Y-92621414D01*
X138872729Y-92550932D01*
X138692089Y-92515000D01*
X138507911Y-92515000D01*
X138327271Y-92550932D01*
X138157111Y-92621414D01*
X138003972Y-92723738D01*
X137873738Y-92853972D01*
X137771414Y-93007111D01*
X137700932Y-93177271D01*
X137665000Y-93357911D01*
X137059932Y-93357911D01*
X137061243Y-92107911D01*
X153665000Y-92107911D01*
X153665000Y-92292089D01*
X153700932Y-92472729D01*
X153771414Y-92642889D01*
X153873738Y-92796028D01*
X154003972Y-92926262D01*
X154157111Y-93028586D01*
X154327271Y-93099068D01*
X154507911Y-93135000D01*
X154692089Y-93135000D01*
X154872729Y-93099068D01*
X155042889Y-93028586D01*
X155196028Y-92926262D01*
X155326262Y-92796028D01*
X155428586Y-92642889D01*
X155499068Y-92472729D01*
X155535000Y-92292089D01*
X155535000Y-92132911D01*
X156765000Y-92132911D01*
X156765000Y-92317089D01*
X156800932Y-92497729D01*
X156871414Y-92667889D01*
X156973738Y-92821028D01*
X157103972Y-92951262D01*
X157257111Y-93053586D01*
X157427271Y-93124068D01*
X157607911Y-93160000D01*
X157792089Y-93160000D01*
X157972729Y-93124068D01*
X158142889Y-93053586D01*
X158296028Y-92951262D01*
X158426262Y-92821028D01*
X158528586Y-92667889D01*
X158599068Y-92497729D01*
X158635000Y-92317089D01*
X158635000Y-92132911D01*
X158599068Y-91952271D01*
X158528586Y-91782111D01*
X158426262Y-91628972D01*
X158296028Y-91498738D01*
X158142889Y-91396414D01*
X157972729Y-91325932D01*
X157792089Y-91290000D01*
X157607911Y-91290000D01*
X157427271Y-91325932D01*
X157257111Y-91396414D01*
X157103972Y-91498738D01*
X156973738Y-91628972D01*
X156871414Y-91782111D01*
X156800932Y-91952271D01*
X156765000Y-92132911D01*
X155535000Y-92132911D01*
X155535000Y-92107911D01*
X155499068Y-91927271D01*
X155428586Y-91757111D01*
X155326262Y-91603972D01*
X155196028Y-91473738D01*
X155042889Y-91371414D01*
X154872729Y-91300932D01*
X154692089Y-91265000D01*
X154507911Y-91265000D01*
X154327271Y-91300932D01*
X154157111Y-91371414D01*
X154003972Y-91473738D01*
X153873738Y-91603972D01*
X153771414Y-91757111D01*
X153700932Y-91927271D01*
X153665000Y-92107911D01*
X137061243Y-92107911D01*
X137063311Y-90137000D01*
X145102836Y-90137000D01*
X145069176Y-90187376D01*
G37*
G04 #@! TD.AperFunction*
D16*
X159035825Y-55748382D02*
X158829534Y-56057118D01*
X158687439Y-56400166D01*
X158615000Y-56764344D01*
X158615000Y-57135656D01*
X158687439Y-57499834D01*
X158829534Y-57842882D01*
X159035825Y-58151618D01*
X159298382Y-58414175D01*
X159607118Y-58620466D01*
X159950166Y-58762561D01*
X160314344Y-58835000D01*
X160685656Y-58835000D01*
X161049834Y-58762561D01*
X161392882Y-58620466D01*
X161701618Y-58414175D01*
X161800001Y-58315792D01*
X161800001Y-73802730D01*
X161696009Y-73698738D01*
X161542870Y-73596414D01*
X161372710Y-73525932D01*
X161192070Y-73490000D01*
X161007892Y-73490000D01*
X160827252Y-73525932D01*
X160657092Y-73596414D01*
X160503953Y-73698738D01*
X160373719Y-73828972D01*
X160271395Y-73982111D01*
X160200913Y-74152271D01*
X160164981Y-74332911D01*
X160164981Y-74517089D01*
X160200913Y-74697729D01*
X160271395Y-74867889D01*
X160373719Y-75021028D01*
X160503953Y-75151262D01*
X160657092Y-75253586D01*
X160827252Y-75324068D01*
X161007892Y-75360000D01*
X161192070Y-75360000D01*
X161372710Y-75324068D01*
X161542870Y-75253586D01*
X161696009Y-75151262D01*
X161800001Y-75047270D01*
X161800001Y-80944275D01*
X161706253Y-80803972D01*
X161576019Y-80673738D01*
X161422880Y-80571414D01*
X161252720Y-80500932D01*
X161072080Y-80465000D01*
X160887902Y-80465000D01*
X160707262Y-80500932D01*
X160537102Y-80571414D01*
X160383963Y-80673738D01*
X160253729Y-80803972D01*
X160151405Y-80957111D01*
X160080923Y-81127271D01*
X160044991Y-81307911D01*
X160044991Y-81492089D01*
X160080923Y-81672729D01*
X160151405Y-81842889D01*
X160253729Y-81996028D01*
X160383963Y-82126262D01*
X160537102Y-82228586D01*
X160707262Y-82299068D01*
X160887902Y-82335000D01*
X161072080Y-82335000D01*
X161252720Y-82299068D01*
X161422880Y-82228586D01*
X161576019Y-82126262D01*
X161706253Y-81996028D01*
X161800001Y-81855725D01*
X161800001Y-82773000D01*
X155083467Y-82773000D01*
X155103586Y-82742889D01*
X155174068Y-82572729D01*
X155210000Y-82392089D01*
X155210000Y-82207911D01*
X155174068Y-82027271D01*
X155103586Y-81857111D01*
X155001262Y-81703972D01*
X154871028Y-81573738D01*
X154717889Y-81471414D01*
X154547729Y-81400932D01*
X154367089Y-81365000D01*
X154182911Y-81365000D01*
X154002271Y-81400932D01*
X153832111Y-81471414D01*
X153678972Y-81573738D01*
X153548738Y-81703972D01*
X153446414Y-81857111D01*
X153375932Y-82027271D01*
X153340000Y-82207911D01*
X153340000Y-82392089D01*
X153375932Y-82572729D01*
X153446414Y-82742889D01*
X153466533Y-82773000D01*
X140752416Y-82773000D01*
X140872729Y-82749068D01*
X141042889Y-82678586D01*
X141196028Y-82576262D01*
X141326262Y-82446028D01*
X141428586Y-82292889D01*
X141499068Y-82122729D01*
X141535000Y-81942089D01*
X141535000Y-81757911D01*
X141499068Y-81577271D01*
X141428586Y-81407111D01*
X141326262Y-81253972D01*
X141196028Y-81123738D01*
X141042889Y-81021414D01*
X140872729Y-80950932D01*
X140692089Y-80915000D01*
X140507911Y-80915000D01*
X140327271Y-80950932D01*
X140157111Y-81021414D01*
X140003972Y-81123738D01*
X139873738Y-81253972D01*
X139771414Y-81407111D01*
X139700932Y-81577271D01*
X139665000Y-81757911D01*
X139665000Y-81942089D01*
X139700932Y-82122729D01*
X139771414Y-82292889D01*
X139873738Y-82446028D01*
X140003972Y-82576262D01*
X140157111Y-82678586D01*
X140327271Y-82749068D01*
X140447584Y-82773000D01*
X137071035Y-82773000D01*
X137074512Y-79457911D01*
X137640000Y-79457911D01*
X137640000Y-79642089D01*
X137675932Y-79822729D01*
X137746414Y-79992889D01*
X137848738Y-80146028D01*
X137978972Y-80276262D01*
X138132111Y-80378586D01*
X138302271Y-80449068D01*
X138482911Y-80485000D01*
X138667089Y-80485000D01*
X138847729Y-80449068D01*
X139017889Y-80378586D01*
X139063282Y-80348256D01*
X139071414Y-80367889D01*
X139173738Y-80521028D01*
X139303972Y-80651262D01*
X139457111Y-80753586D01*
X139627271Y-80824068D01*
X139807911Y-80860000D01*
X139992089Y-80860000D01*
X140172729Y-80824068D01*
X140342889Y-80753586D01*
X140496028Y-80651262D01*
X140589379Y-80557911D01*
X141290000Y-80557911D01*
X141290000Y-80742089D01*
X141325932Y-80922729D01*
X141396414Y-81092889D01*
X141498738Y-81246028D01*
X141628972Y-81376262D01*
X141782111Y-81478586D01*
X141952271Y-81549068D01*
X142132911Y-81585000D01*
X142317089Y-81585000D01*
X142497729Y-81549068D01*
X142667889Y-81478586D01*
X142821028Y-81376262D01*
X142951262Y-81246028D01*
X143053586Y-81092889D01*
X143124068Y-80922729D01*
X143160000Y-80742089D01*
X143160000Y-80557911D01*
X143124068Y-80377271D01*
X143053586Y-80207111D01*
X143015369Y-80149915D01*
X143103586Y-80017889D01*
X143174068Y-79847729D01*
X143191934Y-79757911D01*
X151940000Y-79757911D01*
X151940000Y-79942089D01*
X151975932Y-80122729D01*
X152046414Y-80292889D01*
X152148738Y-80446028D01*
X152278972Y-80576262D01*
X152432111Y-80678586D01*
X152602271Y-80749068D01*
X152782911Y-80785000D01*
X152967089Y-80785000D01*
X153147729Y-80749068D01*
X153317889Y-80678586D01*
X153430134Y-80603586D01*
X153446414Y-80642889D01*
X153548738Y-80796028D01*
X153678972Y-80926262D01*
X153832111Y-81028586D01*
X154002271Y-81099068D01*
X154182911Y-81135000D01*
X154367089Y-81135000D01*
X154547729Y-81099068D01*
X154717889Y-81028586D01*
X154871028Y-80926262D01*
X155001262Y-80796028D01*
X155103586Y-80642889D01*
X155174068Y-80472729D01*
X155210000Y-80292089D01*
X155210000Y-80107911D01*
X155174068Y-79927271D01*
X155103586Y-79757111D01*
X155001262Y-79603972D01*
X154871028Y-79473738D01*
X154717889Y-79371414D01*
X154547729Y-79300932D01*
X154367089Y-79265000D01*
X154182911Y-79265000D01*
X154002271Y-79300932D01*
X153832111Y-79371414D01*
X153719866Y-79446414D01*
X153703586Y-79407111D01*
X153601262Y-79253972D01*
X153471028Y-79123738D01*
X153317889Y-79021414D01*
X153147729Y-78950932D01*
X152967089Y-78915000D01*
X152782911Y-78915000D01*
X152602271Y-78950932D01*
X152432111Y-79021414D01*
X152278972Y-79123738D01*
X152148738Y-79253972D01*
X152046414Y-79407111D01*
X151975932Y-79577271D01*
X151940000Y-79757911D01*
X143191934Y-79757911D01*
X143210000Y-79667089D01*
X143210000Y-79482911D01*
X143174068Y-79302271D01*
X143103586Y-79132111D01*
X143001262Y-78978972D01*
X142871028Y-78848738D01*
X142717889Y-78746414D01*
X142547729Y-78675932D01*
X142367089Y-78640000D01*
X142182911Y-78640000D01*
X142002271Y-78675932D01*
X141832111Y-78746414D01*
X141678972Y-78848738D01*
X141548738Y-78978972D01*
X141446414Y-79132111D01*
X141375932Y-79302271D01*
X141340000Y-79482911D01*
X141340000Y-79667089D01*
X141375932Y-79847729D01*
X141446414Y-80017889D01*
X141484631Y-80075085D01*
X141396414Y-80207111D01*
X141325932Y-80377271D01*
X141290000Y-80557911D01*
X140589379Y-80557911D01*
X140626262Y-80521028D01*
X140728586Y-80367889D01*
X140799068Y-80197729D01*
X140835000Y-80017089D01*
X140835000Y-79832911D01*
X140799068Y-79652271D01*
X140728586Y-79482111D01*
X140626262Y-79328972D01*
X140496028Y-79198738D01*
X140342889Y-79096414D01*
X140172729Y-79025932D01*
X139992089Y-78990000D01*
X139807911Y-78990000D01*
X139627271Y-79025932D01*
X139457111Y-79096414D01*
X139411718Y-79126744D01*
X139403586Y-79107111D01*
X139301262Y-78953972D01*
X139171028Y-78823738D01*
X139017889Y-78721414D01*
X138847729Y-78650932D01*
X138667089Y-78615000D01*
X138482911Y-78615000D01*
X138302271Y-78650932D01*
X138132111Y-78721414D01*
X137978972Y-78823738D01*
X137848738Y-78953972D01*
X137746414Y-79107111D01*
X137675932Y-79277271D01*
X137640000Y-79457911D01*
X137074512Y-79457911D01*
X137075718Y-78307911D01*
X155340000Y-78307911D01*
X155340000Y-78492089D01*
X155375932Y-78672729D01*
X155446414Y-78842889D01*
X155548738Y-78996028D01*
X155678972Y-79126262D01*
X155832111Y-79228586D01*
X156002271Y-79299068D01*
X156182911Y-79335000D01*
X156367089Y-79335000D01*
X156547729Y-79299068D01*
X156717889Y-79228586D01*
X156871028Y-79126262D01*
X157001262Y-78996028D01*
X157103586Y-78842889D01*
X157174068Y-78672729D01*
X157210000Y-78492089D01*
X157210000Y-78307911D01*
X157174068Y-78127271D01*
X157103586Y-77957111D01*
X157001262Y-77803972D01*
X156871028Y-77673738D01*
X156717889Y-77571414D01*
X156547729Y-77500932D01*
X156367089Y-77465000D01*
X156182911Y-77465000D01*
X156002271Y-77500932D01*
X155832111Y-77571414D01*
X155678972Y-77673738D01*
X155548738Y-77803972D01*
X155446414Y-77957111D01*
X155375932Y-78127271D01*
X155340000Y-78307911D01*
X137075718Y-78307911D01*
X137077737Y-76382911D01*
X137665000Y-76382911D01*
X137665000Y-76567089D01*
X137700932Y-76747729D01*
X137771414Y-76917889D01*
X137873738Y-77071028D01*
X138003972Y-77201262D01*
X138157111Y-77303586D01*
X138327271Y-77374068D01*
X138507911Y-77410000D01*
X138692089Y-77410000D01*
X138872729Y-77374068D01*
X139042889Y-77303586D01*
X139196028Y-77201262D01*
X139326262Y-77071028D01*
X139428586Y-76917889D01*
X139499068Y-76747729D01*
X139535000Y-76567089D01*
X139535000Y-76382911D01*
X139520603Y-76310529D01*
X143183096Y-76310529D01*
X143183096Y-76494707D01*
X143219028Y-76675347D01*
X143289510Y-76845507D01*
X143391834Y-76998646D01*
X143522068Y-77128880D01*
X143675207Y-77231204D01*
X143845367Y-77301686D01*
X144026007Y-77337618D01*
X144210185Y-77337618D01*
X144390825Y-77301686D01*
X144560985Y-77231204D01*
X144714124Y-77128880D01*
X144722857Y-77120147D01*
X144728972Y-77126262D01*
X144882111Y-77228586D01*
X145052271Y-77299068D01*
X145232911Y-77335000D01*
X145417089Y-77335000D01*
X145597729Y-77299068D01*
X145767889Y-77228586D01*
X145921028Y-77126262D01*
X146051262Y-76996028D01*
X146153586Y-76842889D01*
X146224068Y-76672729D01*
X146260000Y-76492089D01*
X146260000Y-76307911D01*
X146224068Y-76127271D01*
X146153586Y-75957111D01*
X146051262Y-75803972D01*
X145921028Y-75673738D01*
X145767889Y-75571414D01*
X145597729Y-75500932D01*
X145417089Y-75465000D01*
X145232911Y-75465000D01*
X145231493Y-75465282D01*
X145199068Y-75302271D01*
X145128586Y-75132111D01*
X145026262Y-74978972D01*
X144896028Y-74848738D01*
X144742889Y-74746414D01*
X144572729Y-74675932D01*
X144392089Y-74640000D01*
X144207911Y-74640000D01*
X144027271Y-74675932D01*
X143857111Y-74746414D01*
X143703972Y-74848738D01*
X143573738Y-74978972D01*
X143471414Y-75132111D01*
X143400932Y-75302271D01*
X143365000Y-75482911D01*
X143365000Y-75667089D01*
X143392597Y-75805827D01*
X143391834Y-75806590D01*
X143289510Y-75959729D01*
X143219028Y-76129889D01*
X143183096Y-76310529D01*
X139520603Y-76310529D01*
X139499068Y-76202271D01*
X139428586Y-76032111D01*
X139326262Y-75878972D01*
X139196028Y-75748738D01*
X139042889Y-75646414D01*
X138872729Y-75575932D01*
X138692089Y-75540000D01*
X138507911Y-75540000D01*
X138327271Y-75575932D01*
X138157111Y-75646414D01*
X138003972Y-75748738D01*
X137873738Y-75878972D01*
X137771414Y-76032111D01*
X137700932Y-76202271D01*
X137665000Y-76382911D01*
X137077737Y-76382911D01*
X137079940Y-74282911D01*
X139390000Y-74282911D01*
X139390000Y-74467089D01*
X139425932Y-74647729D01*
X139496414Y-74817889D01*
X139598738Y-74971028D01*
X139728972Y-75101262D01*
X139882111Y-75203586D01*
X140052271Y-75274068D01*
X140232911Y-75310000D01*
X140417089Y-75310000D01*
X140423290Y-75308766D01*
X140450932Y-75447729D01*
X140521414Y-75617889D01*
X140623738Y-75771028D01*
X140753972Y-75901262D01*
X140907111Y-76003586D01*
X141077271Y-76074068D01*
X141257911Y-76110000D01*
X141442089Y-76110000D01*
X141622729Y-76074068D01*
X141792889Y-76003586D01*
X141946028Y-75901262D01*
X142076262Y-75771028D01*
X142178586Y-75617889D01*
X142249068Y-75447729D01*
X142285000Y-75267089D01*
X142285000Y-75082911D01*
X142249068Y-74902271D01*
X142178586Y-74732111D01*
X142076262Y-74578972D01*
X141946028Y-74448738D01*
X141792889Y-74346414D01*
X141622729Y-74275932D01*
X141442089Y-74240000D01*
X141257911Y-74240000D01*
X141251710Y-74241234D01*
X141250055Y-74232911D01*
X145840000Y-74232911D01*
X145840000Y-74417089D01*
X145875932Y-74597729D01*
X145946414Y-74767889D01*
X146048738Y-74921028D01*
X146178972Y-75051262D01*
X146332111Y-75153586D01*
X146502271Y-75224068D01*
X146682911Y-75260000D01*
X146867089Y-75260000D01*
X147047729Y-75224068D01*
X147059044Y-75219381D01*
X147175481Y-75335818D01*
X147328620Y-75438142D01*
X147357099Y-75449938D01*
X147337615Y-75479098D01*
X147267133Y-75649258D01*
X147231201Y-75829898D01*
X147231201Y-76014076D01*
X147267133Y-76194716D01*
X147337615Y-76364876D01*
X147439939Y-76518015D01*
X147570173Y-76648249D01*
X147723312Y-76750573D01*
X147893472Y-76821055D01*
X148074112Y-76856987D01*
X148258290Y-76856987D01*
X148373980Y-76833975D01*
X148398738Y-76871028D01*
X148528972Y-77001262D01*
X148682111Y-77103586D01*
X148852271Y-77174068D01*
X149032911Y-77210000D01*
X149217089Y-77210000D01*
X149397729Y-77174068D01*
X149567889Y-77103586D01*
X149721028Y-77001262D01*
X149754884Y-76967406D01*
X149820795Y-77066049D01*
X149951029Y-77196283D01*
X150104168Y-77298607D01*
X150274328Y-77369089D01*
X150454968Y-77405021D01*
X150639146Y-77405021D01*
X150819786Y-77369089D01*
X150989946Y-77298607D01*
X151143085Y-77196283D01*
X151273319Y-77066049D01*
X151375643Y-76912910D01*
X151446125Y-76742750D01*
X151453054Y-76707911D01*
X156365000Y-76707911D01*
X156365000Y-76892089D01*
X156400932Y-77072729D01*
X156471414Y-77242889D01*
X156573738Y-77396028D01*
X156703972Y-77526262D01*
X156857111Y-77628586D01*
X157027271Y-77699068D01*
X157207911Y-77735000D01*
X157392089Y-77735000D01*
X157572729Y-77699068D01*
X157742889Y-77628586D01*
X157896028Y-77526262D01*
X158026262Y-77396028D01*
X158128586Y-77242889D01*
X158199068Y-77072729D01*
X158235000Y-76892089D01*
X158235000Y-76707911D01*
X158199068Y-76527271D01*
X158128586Y-76357111D01*
X158026262Y-76203972D01*
X157896028Y-76073738D01*
X157742889Y-75971414D01*
X157572729Y-75900932D01*
X157392089Y-75865000D01*
X157207911Y-75865000D01*
X157027271Y-75900932D01*
X156857111Y-75971414D01*
X156703972Y-76073738D01*
X156573738Y-76203972D01*
X156471414Y-76357111D01*
X156400932Y-76527271D01*
X156365000Y-76707911D01*
X151453054Y-76707911D01*
X151482057Y-76562110D01*
X151482057Y-76377932D01*
X151446125Y-76197292D01*
X151375643Y-76027132D01*
X151273319Y-75873993D01*
X151143085Y-75743759D01*
X150989946Y-75641435D01*
X150819786Y-75570953D01*
X150639146Y-75535021D01*
X150454968Y-75535021D01*
X150274328Y-75570953D01*
X150104168Y-75641435D01*
X149951029Y-75743759D01*
X149917173Y-75777615D01*
X149851262Y-75678972D01*
X149721028Y-75548738D01*
X149634560Y-75490962D01*
X153023051Y-75490962D01*
X153023051Y-75675140D01*
X153058983Y-75855780D01*
X153129465Y-76025940D01*
X153231789Y-76179079D01*
X153362023Y-76309313D01*
X153515162Y-76411637D01*
X153685322Y-76482119D01*
X153865962Y-76518051D01*
X154050140Y-76518051D01*
X154230780Y-76482119D01*
X154400940Y-76411637D01*
X154554079Y-76309313D01*
X154684313Y-76179079D01*
X154786637Y-76025940D01*
X154857119Y-75855780D01*
X154893051Y-75675140D01*
X154893051Y-75490962D01*
X154857119Y-75310322D01*
X154786637Y-75140162D01*
X154684313Y-74987023D01*
X154554079Y-74856789D01*
X154400940Y-74754465D01*
X154230780Y-74683983D01*
X154050140Y-74648051D01*
X153865962Y-74648051D01*
X153685322Y-74683983D01*
X153515162Y-74754465D01*
X153362023Y-74856789D01*
X153231789Y-74987023D01*
X153129465Y-75140162D01*
X153058983Y-75310322D01*
X153023051Y-75490962D01*
X149634560Y-75490962D01*
X149567889Y-75446414D01*
X149397729Y-75375932D01*
X149217089Y-75340000D01*
X149032911Y-75340000D01*
X148917221Y-75363012D01*
X148892463Y-75325959D01*
X148762229Y-75195725D01*
X148609090Y-75093401D01*
X148580611Y-75081605D01*
X148600095Y-75052445D01*
X148670577Y-74882285D01*
X148706509Y-74701645D01*
X148706509Y-74517467D01*
X148670577Y-74336827D01*
X148600095Y-74166667D01*
X148497771Y-74013528D01*
X148367537Y-73883294D01*
X148214398Y-73780970D01*
X148044238Y-73710488D01*
X147863598Y-73674556D01*
X147679420Y-73674556D01*
X147498780Y-73710488D01*
X147487465Y-73715175D01*
X147371028Y-73598738D01*
X147217889Y-73496414D01*
X147047729Y-73425932D01*
X146867089Y-73390000D01*
X146682911Y-73390000D01*
X146502271Y-73425932D01*
X146332111Y-73496414D01*
X146178972Y-73598738D01*
X146048738Y-73728972D01*
X145946414Y-73882111D01*
X145875932Y-74052271D01*
X145840000Y-74232911D01*
X141250055Y-74232911D01*
X141224068Y-74102271D01*
X141153586Y-73932111D01*
X141051262Y-73778972D01*
X140921028Y-73648738D01*
X140767889Y-73546414D01*
X140597729Y-73475932D01*
X140417089Y-73440000D01*
X140232911Y-73440000D01*
X140052271Y-73475932D01*
X139882111Y-73546414D01*
X139728972Y-73648738D01*
X139598738Y-73778972D01*
X139496414Y-73932111D01*
X139425932Y-74102271D01*
X139390000Y-74282911D01*
X137079940Y-74282911D01*
X137082000Y-72320133D01*
X137080054Y-72297854D01*
X137073331Y-72273883D01*
X137062060Y-72251683D01*
X137046675Y-72232110D01*
X137027767Y-72215914D01*
X137006063Y-72203717D01*
X136982396Y-72195990D01*
X136957676Y-72193028D01*
X131209692Y-72071876D01*
X131209684Y-72032911D01*
X139540000Y-72032911D01*
X139540000Y-72217089D01*
X139575932Y-72397729D01*
X139646414Y-72567889D01*
X139748738Y-72721028D01*
X139878972Y-72851262D01*
X140032111Y-72953586D01*
X140202271Y-73024068D01*
X140382911Y-73060000D01*
X140567089Y-73060000D01*
X140747729Y-73024068D01*
X140917889Y-72953586D01*
X141071028Y-72851262D01*
X141201262Y-72721028D01*
X141303586Y-72567889D01*
X141349140Y-72457911D01*
X147115000Y-72457911D01*
X147115000Y-72642089D01*
X147150932Y-72822729D01*
X147221414Y-72992889D01*
X147323738Y-73146028D01*
X147453972Y-73276262D01*
X147607111Y-73378586D01*
X147777271Y-73449068D01*
X147957911Y-73485000D01*
X148142089Y-73485000D01*
X148322729Y-73449068D01*
X148492889Y-73378586D01*
X148646028Y-73276262D01*
X148776262Y-73146028D01*
X148878586Y-72992889D01*
X148949068Y-72822729D01*
X148985000Y-72642089D01*
X148985000Y-72457911D01*
X148949068Y-72277271D01*
X148878586Y-72107111D01*
X148776262Y-71953972D01*
X148646028Y-71823738D01*
X148492889Y-71721414D01*
X148322729Y-71650932D01*
X148142089Y-71615000D01*
X147957911Y-71615000D01*
X147777271Y-71650932D01*
X147607111Y-71721414D01*
X147453972Y-71823738D01*
X147323738Y-71953972D01*
X147221414Y-72107111D01*
X147150932Y-72277271D01*
X147115000Y-72457911D01*
X141349140Y-72457911D01*
X141374068Y-72397729D01*
X141410000Y-72217089D01*
X141410000Y-72032911D01*
X141374068Y-71852271D01*
X141303586Y-71682111D01*
X141201262Y-71528972D01*
X141071028Y-71398738D01*
X140917889Y-71296414D01*
X140747729Y-71225932D01*
X140567089Y-71190000D01*
X140382911Y-71190000D01*
X140202271Y-71225932D01*
X140032111Y-71296414D01*
X139878972Y-71398738D01*
X139748738Y-71528972D01*
X139646414Y-71682111D01*
X139575932Y-71852271D01*
X139540000Y-72032911D01*
X131209684Y-72032911D01*
X131209004Y-69007911D01*
X140365000Y-69007911D01*
X140365000Y-69192089D01*
X140400932Y-69372729D01*
X140471414Y-69542889D01*
X140573738Y-69696028D01*
X140703972Y-69826262D01*
X140857111Y-69928586D01*
X141027271Y-69999068D01*
X141207911Y-70035000D01*
X141392089Y-70035000D01*
X141572729Y-69999068D01*
X141742889Y-69928586D01*
X141896028Y-69826262D01*
X142026262Y-69696028D01*
X142101837Y-69582921D01*
X142190000Y-69582921D01*
X142190000Y-69767099D01*
X142225932Y-69947739D01*
X142296414Y-70117899D01*
X142398738Y-70271038D01*
X142528972Y-70401272D01*
X142682111Y-70503596D01*
X142852271Y-70574078D01*
X143032911Y-70610010D01*
X143217089Y-70610010D01*
X143397729Y-70574078D01*
X143567889Y-70503596D01*
X143721028Y-70401272D01*
X143851262Y-70271038D01*
X143940164Y-70137987D01*
X144027271Y-70174068D01*
X144207911Y-70210000D01*
X144392089Y-70210000D01*
X144572729Y-70174068D01*
X144742889Y-70103586D01*
X144896028Y-70001262D01*
X145026262Y-69871028D01*
X145128586Y-69717889D01*
X145191029Y-69567136D01*
X151959597Y-69567136D01*
X151959597Y-69751314D01*
X151995529Y-69931954D01*
X152066011Y-70102114D01*
X152168335Y-70255253D01*
X152298569Y-70385487D01*
X152451708Y-70487811D01*
X152621868Y-70558293D01*
X152802508Y-70594225D01*
X152986686Y-70594225D01*
X153167326Y-70558293D01*
X153337486Y-70487811D01*
X153490625Y-70385487D01*
X153620859Y-70255253D01*
X153669196Y-70182911D01*
X156915000Y-70182911D01*
X156915000Y-70367089D01*
X156950932Y-70547729D01*
X157021414Y-70717889D01*
X157123738Y-70871028D01*
X157253972Y-71001262D01*
X157407111Y-71103586D01*
X157577271Y-71174068D01*
X157757911Y-71210000D01*
X157942089Y-71210000D01*
X158122729Y-71174068D01*
X158292889Y-71103586D01*
X158446028Y-71001262D01*
X158576262Y-70871028D01*
X158678586Y-70717889D01*
X158749068Y-70547729D01*
X158779729Y-70393586D01*
X158832111Y-70428586D01*
X159002271Y-70499068D01*
X159182911Y-70535000D01*
X159367089Y-70535000D01*
X159547729Y-70499068D01*
X159717889Y-70428586D01*
X159871028Y-70326262D01*
X160001262Y-70196028D01*
X160103586Y-70042889D01*
X160174068Y-69872729D01*
X160210000Y-69692089D01*
X160210000Y-69507911D01*
X160174068Y-69327271D01*
X160103586Y-69157111D01*
X160001262Y-69003972D01*
X159871028Y-68873738D01*
X159717889Y-68771414D01*
X159547729Y-68700932D01*
X159367089Y-68665000D01*
X159182911Y-68665000D01*
X159002271Y-68700932D01*
X158832111Y-68771414D01*
X158678972Y-68873738D01*
X158548738Y-69003972D01*
X158446414Y-69157111D01*
X158375932Y-69327271D01*
X158345271Y-69481414D01*
X158292889Y-69446414D01*
X158122729Y-69375932D01*
X157942089Y-69340000D01*
X157757911Y-69340000D01*
X157577271Y-69375932D01*
X157407111Y-69446414D01*
X157253972Y-69548738D01*
X157123738Y-69678972D01*
X157021414Y-69832111D01*
X156950932Y-70002271D01*
X156915000Y-70182911D01*
X153669196Y-70182911D01*
X153723183Y-70102114D01*
X153793665Y-69931954D01*
X153829597Y-69751314D01*
X153829597Y-69567136D01*
X153793665Y-69386496D01*
X153723183Y-69216336D01*
X153620859Y-69063197D01*
X153490625Y-68932963D01*
X153337486Y-68830639D01*
X153167326Y-68760157D01*
X152986686Y-68724225D01*
X152802508Y-68724225D01*
X152621868Y-68760157D01*
X152451708Y-68830639D01*
X152298569Y-68932963D01*
X152168335Y-69063197D01*
X152066011Y-69216336D01*
X151995529Y-69386496D01*
X151959597Y-69567136D01*
X145191029Y-69567136D01*
X145199068Y-69547729D01*
X145235000Y-69367089D01*
X145235000Y-69182911D01*
X145199068Y-69002271D01*
X145128586Y-68832111D01*
X145026262Y-68678972D01*
X144896028Y-68548738D01*
X144742889Y-68446414D01*
X144572729Y-68375932D01*
X144392089Y-68340000D01*
X144207911Y-68340000D01*
X144027271Y-68375932D01*
X143857111Y-68446414D01*
X143703972Y-68548738D01*
X143573738Y-68678972D01*
X143484836Y-68812023D01*
X143397729Y-68775942D01*
X143217089Y-68740010D01*
X143032911Y-68740010D01*
X142852271Y-68775942D01*
X142682111Y-68846424D01*
X142528972Y-68948748D01*
X142398738Y-69078982D01*
X142296414Y-69232121D01*
X142225932Y-69402281D01*
X142190000Y-69582921D01*
X142101837Y-69582921D01*
X142128586Y-69542889D01*
X142199068Y-69372729D01*
X142235000Y-69192089D01*
X142235000Y-69007911D01*
X142199068Y-68827271D01*
X142128586Y-68657111D01*
X142026262Y-68503972D01*
X141896028Y-68373738D01*
X141742889Y-68271414D01*
X141572729Y-68200932D01*
X141392089Y-68165000D01*
X141207911Y-68165000D01*
X141027271Y-68200932D01*
X140857111Y-68271414D01*
X140703972Y-68373738D01*
X140573738Y-68503972D01*
X140471414Y-68657111D01*
X140400932Y-68827271D01*
X140365000Y-69007911D01*
X131209004Y-69007911D01*
X131208605Y-67232911D01*
X149565000Y-67232911D01*
X149565000Y-67417089D01*
X149600932Y-67597729D01*
X149671414Y-67767889D01*
X149773738Y-67921028D01*
X149903972Y-68051262D01*
X150057111Y-68153586D01*
X150227271Y-68224068D01*
X150407911Y-68260000D01*
X150592089Y-68260000D01*
X150772729Y-68224068D01*
X150942889Y-68153586D01*
X151096028Y-68051262D01*
X151226262Y-67921028D01*
X151328586Y-67767889D01*
X151399068Y-67597729D01*
X151435000Y-67417089D01*
X151435000Y-67232911D01*
X151399068Y-67052271D01*
X151328586Y-66882111D01*
X151228894Y-66732911D01*
X151740000Y-66732911D01*
X151740000Y-66917089D01*
X151775932Y-67097729D01*
X151846414Y-67267889D01*
X151948738Y-67421028D01*
X152078972Y-67551262D01*
X152232111Y-67653586D01*
X152402271Y-67724068D01*
X152582911Y-67760000D01*
X152767089Y-67760000D01*
X152947729Y-67724068D01*
X153117889Y-67653586D01*
X153271028Y-67551262D01*
X153401262Y-67421028D01*
X153503586Y-67267889D01*
X153574068Y-67097729D01*
X153610000Y-66917089D01*
X153610000Y-66732911D01*
X153584931Y-66606882D01*
X153592889Y-66603586D01*
X153746028Y-66501262D01*
X153839379Y-66407911D01*
X154240000Y-66407911D01*
X154240000Y-66592089D01*
X154275932Y-66772729D01*
X154346414Y-66942889D01*
X154448738Y-67096028D01*
X154578972Y-67226262D01*
X154732111Y-67328586D01*
X154902271Y-67399068D01*
X155082911Y-67435000D01*
X155267089Y-67435000D01*
X155447729Y-67399068D01*
X155617889Y-67328586D01*
X155771028Y-67226262D01*
X155901262Y-67096028D01*
X156003586Y-66942889D01*
X156074068Y-66772729D01*
X156110000Y-66592089D01*
X156110000Y-66586546D01*
X156172729Y-66574068D01*
X156342889Y-66503586D01*
X156496028Y-66401262D01*
X156626262Y-66271028D01*
X156728586Y-66117889D01*
X156799068Y-65947729D01*
X156835000Y-65767089D01*
X156835000Y-65582911D01*
X156799068Y-65402271D01*
X156728586Y-65232111D01*
X156626262Y-65078972D01*
X156496028Y-64948738D01*
X156342889Y-64846414D01*
X156172729Y-64775932D01*
X155992089Y-64740000D01*
X155807911Y-64740000D01*
X155627271Y-64775932D01*
X155457111Y-64846414D01*
X155303972Y-64948738D01*
X155173738Y-65078972D01*
X155071414Y-65232111D01*
X155000932Y-65402271D01*
X154965000Y-65582911D01*
X154965000Y-65588454D01*
X154902271Y-65600932D01*
X154732111Y-65671414D01*
X154578972Y-65773738D01*
X154448738Y-65903972D01*
X154346414Y-66057111D01*
X154275932Y-66227271D01*
X154240000Y-66407911D01*
X153839379Y-66407911D01*
X153876262Y-66371028D01*
X153978586Y-66217889D01*
X154049068Y-66047729D01*
X154085000Y-65867089D01*
X154085000Y-65682911D01*
X154049068Y-65502271D01*
X153978586Y-65332111D01*
X153876262Y-65178972D01*
X153746028Y-65048738D01*
X153592889Y-64946414D01*
X153422729Y-64875932D01*
X153242089Y-64840000D01*
X153057911Y-64840000D01*
X152877271Y-64875932D01*
X152707111Y-64946414D01*
X152553972Y-65048738D01*
X152423738Y-65178972D01*
X152321414Y-65332111D01*
X152250932Y-65502271D01*
X152215000Y-65682911D01*
X152215000Y-65867089D01*
X152240069Y-65993118D01*
X152232111Y-65996414D01*
X152078972Y-66098738D01*
X151948738Y-66228972D01*
X151846414Y-66382111D01*
X151775932Y-66552271D01*
X151740000Y-66732911D01*
X151228894Y-66732911D01*
X151226262Y-66728972D01*
X151096028Y-66598738D01*
X150942889Y-66496414D01*
X150772729Y-66425932D01*
X150592089Y-66390000D01*
X150407911Y-66390000D01*
X150227271Y-66425932D01*
X150057111Y-66496414D01*
X149903972Y-66598738D01*
X149773738Y-66728972D01*
X149671414Y-66882111D01*
X149600932Y-67052271D01*
X149565000Y-67232911D01*
X131208605Y-67232911D01*
X131208245Y-65632911D01*
X135390000Y-65632911D01*
X135390000Y-65817089D01*
X135425932Y-65997729D01*
X135496414Y-66167889D01*
X135598738Y-66321028D01*
X135728972Y-66451262D01*
X135882111Y-66553586D01*
X136052271Y-66624068D01*
X136232911Y-66660000D01*
X136417089Y-66660000D01*
X136597729Y-66624068D01*
X136767889Y-66553586D01*
X136921028Y-66451262D01*
X137051262Y-66321028D01*
X137153586Y-66167889D01*
X137224068Y-65997729D01*
X137260000Y-65817089D01*
X137260000Y-65632911D01*
X137224068Y-65452271D01*
X137153586Y-65282111D01*
X137051262Y-65128972D01*
X136921028Y-64998738D01*
X136767889Y-64896414D01*
X136597729Y-64825932D01*
X136417089Y-64790000D01*
X136232911Y-64790000D01*
X136052271Y-64825932D01*
X135882111Y-64896414D01*
X135728972Y-64998738D01*
X135598738Y-65128972D01*
X135496414Y-65282111D01*
X135425932Y-65452271D01*
X135390000Y-65632911D01*
X131208245Y-65632911D01*
X131207650Y-62982911D01*
X135390000Y-62982911D01*
X135390000Y-63167089D01*
X135425932Y-63347729D01*
X135496414Y-63517889D01*
X135598738Y-63671028D01*
X135728972Y-63801262D01*
X135882111Y-63903586D01*
X136052271Y-63974068D01*
X136232911Y-64010000D01*
X136417089Y-64010000D01*
X136597729Y-63974068D01*
X136767889Y-63903586D01*
X136921028Y-63801262D01*
X137051262Y-63671028D01*
X137153586Y-63517889D01*
X137224068Y-63347729D01*
X137260000Y-63167089D01*
X137260000Y-62982911D01*
X137224068Y-62802271D01*
X137153586Y-62632111D01*
X137051262Y-62478972D01*
X137030201Y-62457911D01*
X137915000Y-62457911D01*
X137915000Y-62642089D01*
X137950932Y-62822729D01*
X138021414Y-62992889D01*
X138123738Y-63146028D01*
X138253972Y-63276262D01*
X138407111Y-63378586D01*
X138577271Y-63449068D01*
X138757911Y-63485000D01*
X138942089Y-63485000D01*
X139122729Y-63449068D01*
X139292889Y-63378586D01*
X139446028Y-63276262D01*
X139504820Y-63217470D01*
X139546414Y-63317889D01*
X139648738Y-63471028D01*
X139778972Y-63601262D01*
X139932111Y-63703586D01*
X140102271Y-63774068D01*
X140282911Y-63810000D01*
X140467089Y-63810000D01*
X140647729Y-63774068D01*
X140817889Y-63703586D01*
X140971028Y-63601262D01*
X141101262Y-63471028D01*
X141203586Y-63317889D01*
X141274068Y-63147729D01*
X141306852Y-62982911D01*
X141640000Y-62982911D01*
X141640000Y-63167089D01*
X141675932Y-63347729D01*
X141746414Y-63517889D01*
X141848738Y-63671028D01*
X141978972Y-63801262D01*
X141983951Y-63804589D01*
X141949965Y-63855453D01*
X141879483Y-64025613D01*
X141843551Y-64206253D01*
X141843551Y-64390431D01*
X141879483Y-64571071D01*
X141949965Y-64741231D01*
X142052289Y-64894370D01*
X142182523Y-65024604D01*
X142335662Y-65126928D01*
X142505822Y-65197410D01*
X142686462Y-65233342D01*
X142870640Y-65233342D01*
X143051280Y-65197410D01*
X143221440Y-65126928D01*
X143374579Y-65024604D01*
X143504813Y-64894370D01*
X143607137Y-64741231D01*
X143677619Y-64571071D01*
X143700128Y-64457911D01*
X145665000Y-64457911D01*
X145665000Y-64642089D01*
X145700932Y-64822729D01*
X145771414Y-64992889D01*
X145873738Y-65146028D01*
X146003972Y-65276262D01*
X146157111Y-65378586D01*
X146327271Y-65449068D01*
X146507911Y-65485000D01*
X146692089Y-65485000D01*
X146872729Y-65449068D01*
X147042889Y-65378586D01*
X147196028Y-65276262D01*
X147326262Y-65146028D01*
X147428586Y-64992889D01*
X147499068Y-64822729D01*
X147535000Y-64642089D01*
X147535000Y-64457911D01*
X147499068Y-64277271D01*
X147428586Y-64107111D01*
X147326262Y-63953972D01*
X147196028Y-63823738D01*
X147042889Y-63721414D01*
X146872729Y-63650932D01*
X146692089Y-63615000D01*
X146507911Y-63615000D01*
X146327271Y-63650932D01*
X146157111Y-63721414D01*
X146003972Y-63823738D01*
X145873738Y-63953972D01*
X145771414Y-64107111D01*
X145700932Y-64277271D01*
X145665000Y-64457911D01*
X143700128Y-64457911D01*
X143713551Y-64390431D01*
X143713551Y-64206253D01*
X143677619Y-64025613D01*
X143650441Y-63960000D01*
X143767089Y-63960000D01*
X143947729Y-63924068D01*
X144117889Y-63853586D01*
X144271028Y-63751262D01*
X144401262Y-63621028D01*
X144411117Y-63606279D01*
X144463368Y-63606279D01*
X144644008Y-63570347D01*
X144814168Y-63499865D01*
X144967307Y-63397541D01*
X145097541Y-63267307D01*
X145199865Y-63114168D01*
X145270347Y-62944008D01*
X145306279Y-62763368D01*
X145306279Y-62701112D01*
X150808201Y-62701112D01*
X150808201Y-62885290D01*
X150844133Y-63065930D01*
X150914615Y-63236090D01*
X151016939Y-63389229D01*
X151147173Y-63519463D01*
X151300312Y-63621787D01*
X151470472Y-63692269D01*
X151651112Y-63728201D01*
X151835290Y-63728201D01*
X152015930Y-63692269D01*
X152186090Y-63621787D01*
X152339229Y-63519463D01*
X152468512Y-63390180D01*
X152521414Y-63517899D01*
X152623738Y-63671038D01*
X152753972Y-63801272D01*
X152907111Y-63903596D01*
X153077271Y-63974078D01*
X153257911Y-64010010D01*
X153442089Y-64010010D01*
X153622729Y-63974078D01*
X153792889Y-63903596D01*
X153946028Y-63801272D01*
X153987505Y-63759795D01*
X154003972Y-63776262D01*
X154157111Y-63878586D01*
X154327271Y-63949068D01*
X154507911Y-63985000D01*
X154692089Y-63985000D01*
X154872729Y-63949068D01*
X155042889Y-63878586D01*
X155196028Y-63776262D01*
X155326262Y-63646028D01*
X155428586Y-63492889D01*
X155499068Y-63322729D01*
X155535000Y-63142089D01*
X155535000Y-62957911D01*
X155510134Y-62832901D01*
X156140000Y-62832901D01*
X156140000Y-63017079D01*
X156175932Y-63197719D01*
X156246414Y-63367879D01*
X156348738Y-63521018D01*
X156478972Y-63651252D01*
X156632111Y-63753576D01*
X156802271Y-63824058D01*
X156982911Y-63859990D01*
X157167089Y-63859990D01*
X157269365Y-63839646D01*
X157171404Y-63986255D01*
X157100922Y-64156415D01*
X157064990Y-64337055D01*
X157064990Y-64521233D01*
X157100922Y-64701873D01*
X157171404Y-64872033D01*
X157273728Y-65025172D01*
X157403962Y-65155406D01*
X157557101Y-65257730D01*
X157727261Y-65328212D01*
X157907901Y-65364144D01*
X158092079Y-65364144D01*
X158272719Y-65328212D01*
X158442879Y-65257730D01*
X158573398Y-65170520D01*
X158573738Y-65171028D01*
X158703972Y-65301262D01*
X158857111Y-65403586D01*
X159027271Y-65474068D01*
X159207911Y-65510000D01*
X159392089Y-65510000D01*
X159572729Y-65474068D01*
X159742889Y-65403586D01*
X159896028Y-65301262D01*
X160026262Y-65171028D01*
X160128586Y-65017889D01*
X160199068Y-64847729D01*
X160235000Y-64667089D01*
X160235000Y-64482911D01*
X160199068Y-64302271D01*
X160128586Y-64132111D01*
X160026262Y-63978972D01*
X159896028Y-63848738D01*
X159742889Y-63746414D01*
X159572729Y-63675932D01*
X159392089Y-63640000D01*
X159207911Y-63640000D01*
X159027271Y-63675932D01*
X158857111Y-63746414D01*
X158726592Y-63833624D01*
X158726252Y-63833116D01*
X158596018Y-63702882D01*
X158442879Y-63600558D01*
X158272719Y-63530076D01*
X158092079Y-63494144D01*
X157907901Y-63494144D01*
X157805625Y-63514488D01*
X157903586Y-63367879D01*
X157974068Y-63197719D01*
X158010000Y-63017079D01*
X158010000Y-62832901D01*
X157974068Y-62652261D01*
X157903586Y-62482101D01*
X157801262Y-62328962D01*
X157671028Y-62198728D01*
X157517889Y-62096404D01*
X157347729Y-62025922D01*
X157167089Y-61989990D01*
X156982911Y-61989990D01*
X156802271Y-62025922D01*
X156632111Y-62096404D01*
X156478972Y-62198728D01*
X156348738Y-62328962D01*
X156246414Y-62482101D01*
X156175932Y-62652261D01*
X156140000Y-62832901D01*
X155510134Y-62832901D01*
X155499068Y-62777271D01*
X155428586Y-62607111D01*
X155326262Y-62453972D01*
X155196028Y-62323738D01*
X155042889Y-62221414D01*
X154872729Y-62150932D01*
X154692089Y-62115000D01*
X154507911Y-62115000D01*
X154327271Y-62150932D01*
X154157111Y-62221414D01*
X154003972Y-62323738D01*
X153962495Y-62365215D01*
X153946028Y-62348748D01*
X153792889Y-62246424D01*
X153622729Y-62175942D01*
X153442089Y-62140010D01*
X153257911Y-62140010D01*
X153077271Y-62175942D01*
X152907111Y-62246424D01*
X152753972Y-62348748D01*
X152624689Y-62478031D01*
X152571787Y-62350312D01*
X152469463Y-62197173D01*
X152339229Y-62066939D01*
X152186090Y-61964615D01*
X152015930Y-61894133D01*
X151835290Y-61858201D01*
X151651112Y-61858201D01*
X151470472Y-61894133D01*
X151300312Y-61964615D01*
X151147173Y-62066939D01*
X151016939Y-62197173D01*
X150914615Y-62350312D01*
X150844133Y-62520472D01*
X150808201Y-62701112D01*
X145306279Y-62701112D01*
X145306279Y-62579190D01*
X145270347Y-62398550D01*
X145199865Y-62228390D01*
X145097541Y-62075251D01*
X144967307Y-61945017D01*
X144814168Y-61842693D01*
X144644008Y-61772211D01*
X144463368Y-61736279D01*
X144279190Y-61736279D01*
X144098550Y-61772211D01*
X143928390Y-61842693D01*
X143775251Y-61945017D01*
X143645017Y-62075251D01*
X143635162Y-62090000D01*
X143582911Y-62090000D01*
X143402271Y-62125932D01*
X143232111Y-62196414D01*
X143087585Y-62292983D01*
X143017889Y-62246414D01*
X142847729Y-62175932D01*
X142667089Y-62140000D01*
X142482911Y-62140000D01*
X142302271Y-62175932D01*
X142132111Y-62246414D01*
X141978972Y-62348738D01*
X141848738Y-62478972D01*
X141746414Y-62632111D01*
X141675932Y-62802271D01*
X141640000Y-62982911D01*
X141306852Y-62982911D01*
X141310000Y-62967089D01*
X141310000Y-62782911D01*
X141274068Y-62602271D01*
X141203586Y-62432111D01*
X141101262Y-62278972D01*
X140971028Y-62148738D01*
X140817889Y-62046414D01*
X140647729Y-61975932D01*
X140467089Y-61940000D01*
X140282911Y-61940000D01*
X140102271Y-61975932D01*
X139932111Y-62046414D01*
X139778972Y-62148738D01*
X139720180Y-62207530D01*
X139678586Y-62107111D01*
X139576262Y-61953972D01*
X139446028Y-61823738D01*
X139292889Y-61721414D01*
X139122729Y-61650932D01*
X138942089Y-61615000D01*
X138757911Y-61615000D01*
X138577271Y-61650932D01*
X138407111Y-61721414D01*
X138253972Y-61823738D01*
X138123738Y-61953972D01*
X138021414Y-62107111D01*
X137950932Y-62277271D01*
X137915000Y-62457911D01*
X137030201Y-62457911D01*
X136921028Y-62348738D01*
X136767889Y-62246414D01*
X136597729Y-62175932D01*
X136417089Y-62140000D01*
X136232911Y-62140000D01*
X136052271Y-62175932D01*
X135882111Y-62246414D01*
X135728972Y-62348738D01*
X135598738Y-62478972D01*
X135496414Y-62632111D01*
X135425932Y-62802271D01*
X135390000Y-62982911D01*
X131207650Y-62982911D01*
X131206983Y-60016691D01*
X149398780Y-60016691D01*
X149398780Y-60200869D01*
X149434712Y-60381509D01*
X149505194Y-60551669D01*
X149607518Y-60704808D01*
X149737752Y-60835042D01*
X149890891Y-60937366D01*
X150061051Y-61007848D01*
X150241691Y-61043780D01*
X150425869Y-61043780D01*
X150606509Y-61007848D01*
X150776669Y-60937366D01*
X150929808Y-60835042D01*
X151060042Y-60704808D01*
X151162366Y-60551669D01*
X151232848Y-60381509D01*
X151268780Y-60200869D01*
X151268780Y-60016691D01*
X151232848Y-59836051D01*
X151162366Y-59665891D01*
X151060042Y-59512752D01*
X150929808Y-59382518D01*
X150776669Y-59280194D01*
X150606509Y-59209712D01*
X150425869Y-59173780D01*
X150241691Y-59173780D01*
X150061051Y-59209712D01*
X149890891Y-59280194D01*
X149737752Y-59382518D01*
X149607518Y-59512752D01*
X149505194Y-59665891D01*
X149434712Y-59836051D01*
X149398780Y-60016691D01*
X131206983Y-60016691D01*
X131206602Y-58322395D01*
X131298382Y-58414175D01*
X131607118Y-58620466D01*
X131950166Y-58762561D01*
X132314344Y-58835000D01*
X132685656Y-58835000D01*
X133049834Y-58762561D01*
X133181770Y-58707911D01*
X139115000Y-58707911D01*
X139115000Y-58892089D01*
X139150932Y-59072729D01*
X139221414Y-59242889D01*
X139323738Y-59396028D01*
X139453972Y-59526262D01*
X139607111Y-59628586D01*
X139777271Y-59699068D01*
X139957911Y-59735000D01*
X140142089Y-59735000D01*
X140322729Y-59699068D01*
X140492889Y-59628586D01*
X140646028Y-59526262D01*
X140776262Y-59396028D01*
X140878586Y-59242889D01*
X140949068Y-59072729D01*
X140985000Y-58892089D01*
X140985000Y-58707911D01*
X140949068Y-58527271D01*
X140878586Y-58357111D01*
X140776262Y-58203972D01*
X140646028Y-58073738D01*
X140492889Y-57971414D01*
X140322729Y-57900932D01*
X140142089Y-57865000D01*
X139957911Y-57865000D01*
X139777271Y-57900932D01*
X139607111Y-57971414D01*
X139453972Y-58073738D01*
X139323738Y-58203972D01*
X139221414Y-58357111D01*
X139150932Y-58527271D01*
X139115000Y-58707911D01*
X133181770Y-58707911D01*
X133392882Y-58620466D01*
X133701618Y-58414175D01*
X133964175Y-58151618D01*
X134170466Y-57842882D01*
X134312561Y-57499834D01*
X134385000Y-57135656D01*
X134385000Y-56764344D01*
X134312561Y-56400166D01*
X134170466Y-56057118D01*
X133964175Y-55748382D01*
X133856329Y-55640536D01*
X159144144Y-55640063D01*
X159035825Y-55748382D01*
G04 #@! TA.AperFunction,Conductor*
D17*
G36*
X159035825Y-55748382D02*
G01*
X158829534Y-56057118D01*
X158687439Y-56400166D01*
X158615000Y-56764344D01*
X158615000Y-57135656D01*
X158687439Y-57499834D01*
X158829534Y-57842882D01*
X159035825Y-58151618D01*
X159298382Y-58414175D01*
X159607118Y-58620466D01*
X159950166Y-58762561D01*
X160314344Y-58835000D01*
X160685656Y-58835000D01*
X161049834Y-58762561D01*
X161392882Y-58620466D01*
X161701618Y-58414175D01*
X161800001Y-58315792D01*
X161800001Y-73802730D01*
X161696009Y-73698738D01*
X161542870Y-73596414D01*
X161372710Y-73525932D01*
X161192070Y-73490000D01*
X161007892Y-73490000D01*
X160827252Y-73525932D01*
X160657092Y-73596414D01*
X160503953Y-73698738D01*
X160373719Y-73828972D01*
X160271395Y-73982111D01*
X160200913Y-74152271D01*
X160164981Y-74332911D01*
X160164981Y-74517089D01*
X160200913Y-74697729D01*
X160271395Y-74867889D01*
X160373719Y-75021028D01*
X160503953Y-75151262D01*
X160657092Y-75253586D01*
X160827252Y-75324068D01*
X161007892Y-75360000D01*
X161192070Y-75360000D01*
X161372710Y-75324068D01*
X161542870Y-75253586D01*
X161696009Y-75151262D01*
X161800001Y-75047270D01*
X161800001Y-80944275D01*
X161706253Y-80803972D01*
X161576019Y-80673738D01*
X161422880Y-80571414D01*
X161252720Y-80500932D01*
X161072080Y-80465000D01*
X160887902Y-80465000D01*
X160707262Y-80500932D01*
X160537102Y-80571414D01*
X160383963Y-80673738D01*
X160253729Y-80803972D01*
X160151405Y-80957111D01*
X160080923Y-81127271D01*
X160044991Y-81307911D01*
X160044991Y-81492089D01*
X160080923Y-81672729D01*
X160151405Y-81842889D01*
X160253729Y-81996028D01*
X160383963Y-82126262D01*
X160537102Y-82228586D01*
X160707262Y-82299068D01*
X160887902Y-82335000D01*
X161072080Y-82335000D01*
X161252720Y-82299068D01*
X161422880Y-82228586D01*
X161576019Y-82126262D01*
X161706253Y-81996028D01*
X161800001Y-81855725D01*
X161800001Y-82773000D01*
X155083467Y-82773000D01*
X155103586Y-82742889D01*
X155174068Y-82572729D01*
X155210000Y-82392089D01*
X155210000Y-82207911D01*
X155174068Y-82027271D01*
X155103586Y-81857111D01*
X155001262Y-81703972D01*
X154871028Y-81573738D01*
X154717889Y-81471414D01*
X154547729Y-81400932D01*
X154367089Y-81365000D01*
X154182911Y-81365000D01*
X154002271Y-81400932D01*
X153832111Y-81471414D01*
X153678972Y-81573738D01*
X153548738Y-81703972D01*
X153446414Y-81857111D01*
X153375932Y-82027271D01*
X153340000Y-82207911D01*
X153340000Y-82392089D01*
X153375932Y-82572729D01*
X153446414Y-82742889D01*
X153466533Y-82773000D01*
X140752416Y-82773000D01*
X140872729Y-82749068D01*
X141042889Y-82678586D01*
X141196028Y-82576262D01*
X141326262Y-82446028D01*
X141428586Y-82292889D01*
X141499068Y-82122729D01*
X141535000Y-81942089D01*
X141535000Y-81757911D01*
X141499068Y-81577271D01*
X141428586Y-81407111D01*
X141326262Y-81253972D01*
X141196028Y-81123738D01*
X141042889Y-81021414D01*
X140872729Y-80950932D01*
X140692089Y-80915000D01*
X140507911Y-80915000D01*
X140327271Y-80950932D01*
X140157111Y-81021414D01*
X140003972Y-81123738D01*
X139873738Y-81253972D01*
X139771414Y-81407111D01*
X139700932Y-81577271D01*
X139665000Y-81757911D01*
X139665000Y-81942089D01*
X139700932Y-82122729D01*
X139771414Y-82292889D01*
X139873738Y-82446028D01*
X140003972Y-82576262D01*
X140157111Y-82678586D01*
X140327271Y-82749068D01*
X140447584Y-82773000D01*
X137071035Y-82773000D01*
X137074512Y-79457911D01*
X137640000Y-79457911D01*
X137640000Y-79642089D01*
X137675932Y-79822729D01*
X137746414Y-79992889D01*
X137848738Y-80146028D01*
X137978972Y-80276262D01*
X138132111Y-80378586D01*
X138302271Y-80449068D01*
X138482911Y-80485000D01*
X138667089Y-80485000D01*
X138847729Y-80449068D01*
X139017889Y-80378586D01*
X139063282Y-80348256D01*
X139071414Y-80367889D01*
X139173738Y-80521028D01*
X139303972Y-80651262D01*
X139457111Y-80753586D01*
X139627271Y-80824068D01*
X139807911Y-80860000D01*
X139992089Y-80860000D01*
X140172729Y-80824068D01*
X140342889Y-80753586D01*
X140496028Y-80651262D01*
X140589379Y-80557911D01*
X141290000Y-80557911D01*
X141290000Y-80742089D01*
X141325932Y-80922729D01*
X141396414Y-81092889D01*
X141498738Y-81246028D01*
X141628972Y-81376262D01*
X141782111Y-81478586D01*
X141952271Y-81549068D01*
X142132911Y-81585000D01*
X142317089Y-81585000D01*
X142497729Y-81549068D01*
X142667889Y-81478586D01*
X142821028Y-81376262D01*
X142951262Y-81246028D01*
X143053586Y-81092889D01*
X143124068Y-80922729D01*
X143160000Y-80742089D01*
X143160000Y-80557911D01*
X143124068Y-80377271D01*
X143053586Y-80207111D01*
X143015369Y-80149915D01*
X143103586Y-80017889D01*
X143174068Y-79847729D01*
X143191934Y-79757911D01*
X151940000Y-79757911D01*
X151940000Y-79942089D01*
X151975932Y-80122729D01*
X152046414Y-80292889D01*
X152148738Y-80446028D01*
X152278972Y-80576262D01*
X152432111Y-80678586D01*
X152602271Y-80749068D01*
X152782911Y-80785000D01*
X152967089Y-80785000D01*
X153147729Y-80749068D01*
X153317889Y-80678586D01*
X153430134Y-80603586D01*
X153446414Y-80642889D01*
X153548738Y-80796028D01*
X153678972Y-80926262D01*
X153832111Y-81028586D01*
X154002271Y-81099068D01*
X154182911Y-81135000D01*
X154367089Y-81135000D01*
X154547729Y-81099068D01*
X154717889Y-81028586D01*
X154871028Y-80926262D01*
X155001262Y-80796028D01*
X155103586Y-80642889D01*
X155174068Y-80472729D01*
X155210000Y-80292089D01*
X155210000Y-80107911D01*
X155174068Y-79927271D01*
X155103586Y-79757111D01*
X155001262Y-79603972D01*
X154871028Y-79473738D01*
X154717889Y-79371414D01*
X154547729Y-79300932D01*
X154367089Y-79265000D01*
X154182911Y-79265000D01*
X154002271Y-79300932D01*
X153832111Y-79371414D01*
X153719866Y-79446414D01*
X153703586Y-79407111D01*
X153601262Y-79253972D01*
X153471028Y-79123738D01*
X153317889Y-79021414D01*
X153147729Y-78950932D01*
X152967089Y-78915000D01*
X152782911Y-78915000D01*
X152602271Y-78950932D01*
X152432111Y-79021414D01*
X152278972Y-79123738D01*
X152148738Y-79253972D01*
X152046414Y-79407111D01*
X151975932Y-79577271D01*
X151940000Y-79757911D01*
X143191934Y-79757911D01*
X143210000Y-79667089D01*
X143210000Y-79482911D01*
X143174068Y-79302271D01*
X143103586Y-79132111D01*
X143001262Y-78978972D01*
X142871028Y-78848738D01*
X142717889Y-78746414D01*
X142547729Y-78675932D01*
X142367089Y-78640000D01*
X142182911Y-78640000D01*
X142002271Y-78675932D01*
X141832111Y-78746414D01*
X141678972Y-78848738D01*
X141548738Y-78978972D01*
X141446414Y-79132111D01*
X141375932Y-79302271D01*
X141340000Y-79482911D01*
X141340000Y-79667089D01*
X141375932Y-79847729D01*
X141446414Y-80017889D01*
X141484631Y-80075085D01*
X141396414Y-80207111D01*
X141325932Y-80377271D01*
X141290000Y-80557911D01*
X140589379Y-80557911D01*
X140626262Y-80521028D01*
X140728586Y-80367889D01*
X140799068Y-80197729D01*
X140835000Y-80017089D01*
X140835000Y-79832911D01*
X140799068Y-79652271D01*
X140728586Y-79482111D01*
X140626262Y-79328972D01*
X140496028Y-79198738D01*
X140342889Y-79096414D01*
X140172729Y-79025932D01*
X139992089Y-78990000D01*
X139807911Y-78990000D01*
X139627271Y-79025932D01*
X139457111Y-79096414D01*
X139411718Y-79126744D01*
X139403586Y-79107111D01*
X139301262Y-78953972D01*
X139171028Y-78823738D01*
X139017889Y-78721414D01*
X138847729Y-78650932D01*
X138667089Y-78615000D01*
X138482911Y-78615000D01*
X138302271Y-78650932D01*
X138132111Y-78721414D01*
X137978972Y-78823738D01*
X137848738Y-78953972D01*
X137746414Y-79107111D01*
X137675932Y-79277271D01*
X137640000Y-79457911D01*
X137074512Y-79457911D01*
X137075718Y-78307911D01*
X155340000Y-78307911D01*
X155340000Y-78492089D01*
X155375932Y-78672729D01*
X155446414Y-78842889D01*
X155548738Y-78996028D01*
X155678972Y-79126262D01*
X155832111Y-79228586D01*
X156002271Y-79299068D01*
X156182911Y-79335000D01*
X156367089Y-79335000D01*
X156547729Y-79299068D01*
X156717889Y-79228586D01*
X156871028Y-79126262D01*
X157001262Y-78996028D01*
X157103586Y-78842889D01*
X157174068Y-78672729D01*
X157210000Y-78492089D01*
X157210000Y-78307911D01*
X157174068Y-78127271D01*
X157103586Y-77957111D01*
X157001262Y-77803972D01*
X156871028Y-77673738D01*
X156717889Y-77571414D01*
X156547729Y-77500932D01*
X156367089Y-77465000D01*
X156182911Y-77465000D01*
X156002271Y-77500932D01*
X155832111Y-77571414D01*
X155678972Y-77673738D01*
X155548738Y-77803972D01*
X155446414Y-77957111D01*
X155375932Y-78127271D01*
X155340000Y-78307911D01*
X137075718Y-78307911D01*
X137077737Y-76382911D01*
X137665000Y-76382911D01*
X137665000Y-76567089D01*
X137700932Y-76747729D01*
X137771414Y-76917889D01*
X137873738Y-77071028D01*
X138003972Y-77201262D01*
X138157111Y-77303586D01*
X138327271Y-77374068D01*
X138507911Y-77410000D01*
X138692089Y-77410000D01*
X138872729Y-77374068D01*
X139042889Y-77303586D01*
X139196028Y-77201262D01*
X139326262Y-77071028D01*
X139428586Y-76917889D01*
X139499068Y-76747729D01*
X139535000Y-76567089D01*
X139535000Y-76382911D01*
X139520603Y-76310529D01*
X143183096Y-76310529D01*
X143183096Y-76494707D01*
X143219028Y-76675347D01*
X143289510Y-76845507D01*
X143391834Y-76998646D01*
X143522068Y-77128880D01*
X143675207Y-77231204D01*
X143845367Y-77301686D01*
X144026007Y-77337618D01*
X144210185Y-77337618D01*
X144390825Y-77301686D01*
X144560985Y-77231204D01*
X144714124Y-77128880D01*
X144722857Y-77120147D01*
X144728972Y-77126262D01*
X144882111Y-77228586D01*
X145052271Y-77299068D01*
X145232911Y-77335000D01*
X145417089Y-77335000D01*
X145597729Y-77299068D01*
X145767889Y-77228586D01*
X145921028Y-77126262D01*
X146051262Y-76996028D01*
X146153586Y-76842889D01*
X146224068Y-76672729D01*
X146260000Y-76492089D01*
X146260000Y-76307911D01*
X146224068Y-76127271D01*
X146153586Y-75957111D01*
X146051262Y-75803972D01*
X145921028Y-75673738D01*
X145767889Y-75571414D01*
X145597729Y-75500932D01*
X145417089Y-75465000D01*
X145232911Y-75465000D01*
X145231493Y-75465282D01*
X145199068Y-75302271D01*
X145128586Y-75132111D01*
X145026262Y-74978972D01*
X144896028Y-74848738D01*
X144742889Y-74746414D01*
X144572729Y-74675932D01*
X144392089Y-74640000D01*
X144207911Y-74640000D01*
X144027271Y-74675932D01*
X143857111Y-74746414D01*
X143703972Y-74848738D01*
X143573738Y-74978972D01*
X143471414Y-75132111D01*
X143400932Y-75302271D01*
X143365000Y-75482911D01*
X143365000Y-75667089D01*
X143392597Y-75805827D01*
X143391834Y-75806590D01*
X143289510Y-75959729D01*
X143219028Y-76129889D01*
X143183096Y-76310529D01*
X139520603Y-76310529D01*
X139499068Y-76202271D01*
X139428586Y-76032111D01*
X139326262Y-75878972D01*
X139196028Y-75748738D01*
X139042889Y-75646414D01*
X138872729Y-75575932D01*
X138692089Y-75540000D01*
X138507911Y-75540000D01*
X138327271Y-75575932D01*
X138157111Y-75646414D01*
X138003972Y-75748738D01*
X137873738Y-75878972D01*
X137771414Y-76032111D01*
X137700932Y-76202271D01*
X137665000Y-76382911D01*
X137077737Y-76382911D01*
X137079940Y-74282911D01*
X139390000Y-74282911D01*
X139390000Y-74467089D01*
X139425932Y-74647729D01*
X139496414Y-74817889D01*
X139598738Y-74971028D01*
X139728972Y-75101262D01*
X139882111Y-75203586D01*
X140052271Y-75274068D01*
X140232911Y-75310000D01*
X140417089Y-75310000D01*
X140423290Y-75308766D01*
X140450932Y-75447729D01*
X140521414Y-75617889D01*
X140623738Y-75771028D01*
X140753972Y-75901262D01*
X140907111Y-76003586D01*
X141077271Y-76074068D01*
X141257911Y-76110000D01*
X141442089Y-76110000D01*
X141622729Y-76074068D01*
X141792889Y-76003586D01*
X141946028Y-75901262D01*
X142076262Y-75771028D01*
X142178586Y-75617889D01*
X142249068Y-75447729D01*
X142285000Y-75267089D01*
X142285000Y-75082911D01*
X142249068Y-74902271D01*
X142178586Y-74732111D01*
X142076262Y-74578972D01*
X141946028Y-74448738D01*
X141792889Y-74346414D01*
X141622729Y-74275932D01*
X141442089Y-74240000D01*
X141257911Y-74240000D01*
X141251710Y-74241234D01*
X141250055Y-74232911D01*
X145840000Y-74232911D01*
X145840000Y-74417089D01*
X145875932Y-74597729D01*
X145946414Y-74767889D01*
X146048738Y-74921028D01*
X146178972Y-75051262D01*
X146332111Y-75153586D01*
X146502271Y-75224068D01*
X146682911Y-75260000D01*
X146867089Y-75260000D01*
X147047729Y-75224068D01*
X147059044Y-75219381D01*
X147175481Y-75335818D01*
X147328620Y-75438142D01*
X147357099Y-75449938D01*
X147337615Y-75479098D01*
X147267133Y-75649258D01*
X147231201Y-75829898D01*
X147231201Y-76014076D01*
X147267133Y-76194716D01*
X147337615Y-76364876D01*
X147439939Y-76518015D01*
X147570173Y-76648249D01*
X147723312Y-76750573D01*
X147893472Y-76821055D01*
X148074112Y-76856987D01*
X148258290Y-76856987D01*
X148373980Y-76833975D01*
X148398738Y-76871028D01*
X148528972Y-77001262D01*
X148682111Y-77103586D01*
X148852271Y-77174068D01*
X149032911Y-77210000D01*
X149217089Y-77210000D01*
X149397729Y-77174068D01*
X149567889Y-77103586D01*
X149721028Y-77001262D01*
X149754884Y-76967406D01*
X149820795Y-77066049D01*
X149951029Y-77196283D01*
X150104168Y-77298607D01*
X150274328Y-77369089D01*
X150454968Y-77405021D01*
X150639146Y-77405021D01*
X150819786Y-77369089D01*
X150989946Y-77298607D01*
X151143085Y-77196283D01*
X151273319Y-77066049D01*
X151375643Y-76912910D01*
X151446125Y-76742750D01*
X151453054Y-76707911D01*
X156365000Y-76707911D01*
X156365000Y-76892089D01*
X156400932Y-77072729D01*
X156471414Y-77242889D01*
X156573738Y-77396028D01*
X156703972Y-77526262D01*
X156857111Y-77628586D01*
X157027271Y-77699068D01*
X157207911Y-77735000D01*
X157392089Y-77735000D01*
X157572729Y-77699068D01*
X157742889Y-77628586D01*
X157896028Y-77526262D01*
X158026262Y-77396028D01*
X158128586Y-77242889D01*
X158199068Y-77072729D01*
X158235000Y-76892089D01*
X158235000Y-76707911D01*
X158199068Y-76527271D01*
X158128586Y-76357111D01*
X158026262Y-76203972D01*
X157896028Y-76073738D01*
X157742889Y-75971414D01*
X157572729Y-75900932D01*
X157392089Y-75865000D01*
X157207911Y-75865000D01*
X157027271Y-75900932D01*
X156857111Y-75971414D01*
X156703972Y-76073738D01*
X156573738Y-76203972D01*
X156471414Y-76357111D01*
X156400932Y-76527271D01*
X156365000Y-76707911D01*
X151453054Y-76707911D01*
X151482057Y-76562110D01*
X151482057Y-76377932D01*
X151446125Y-76197292D01*
X151375643Y-76027132D01*
X151273319Y-75873993D01*
X151143085Y-75743759D01*
X150989946Y-75641435D01*
X150819786Y-75570953D01*
X150639146Y-75535021D01*
X150454968Y-75535021D01*
X150274328Y-75570953D01*
X150104168Y-75641435D01*
X149951029Y-75743759D01*
X149917173Y-75777615D01*
X149851262Y-75678972D01*
X149721028Y-75548738D01*
X149634560Y-75490962D01*
X153023051Y-75490962D01*
X153023051Y-75675140D01*
X153058983Y-75855780D01*
X153129465Y-76025940D01*
X153231789Y-76179079D01*
X153362023Y-76309313D01*
X153515162Y-76411637D01*
X153685322Y-76482119D01*
X153865962Y-76518051D01*
X154050140Y-76518051D01*
X154230780Y-76482119D01*
X154400940Y-76411637D01*
X154554079Y-76309313D01*
X154684313Y-76179079D01*
X154786637Y-76025940D01*
X154857119Y-75855780D01*
X154893051Y-75675140D01*
X154893051Y-75490962D01*
X154857119Y-75310322D01*
X154786637Y-75140162D01*
X154684313Y-74987023D01*
X154554079Y-74856789D01*
X154400940Y-74754465D01*
X154230780Y-74683983D01*
X154050140Y-74648051D01*
X153865962Y-74648051D01*
X153685322Y-74683983D01*
X153515162Y-74754465D01*
X153362023Y-74856789D01*
X153231789Y-74987023D01*
X153129465Y-75140162D01*
X153058983Y-75310322D01*
X153023051Y-75490962D01*
X149634560Y-75490962D01*
X149567889Y-75446414D01*
X149397729Y-75375932D01*
X149217089Y-75340000D01*
X149032911Y-75340000D01*
X148917221Y-75363012D01*
X148892463Y-75325959D01*
X148762229Y-75195725D01*
X148609090Y-75093401D01*
X148580611Y-75081605D01*
X148600095Y-75052445D01*
X148670577Y-74882285D01*
X148706509Y-74701645D01*
X148706509Y-74517467D01*
X148670577Y-74336827D01*
X148600095Y-74166667D01*
X148497771Y-74013528D01*
X148367537Y-73883294D01*
X148214398Y-73780970D01*
X148044238Y-73710488D01*
X147863598Y-73674556D01*
X147679420Y-73674556D01*
X147498780Y-73710488D01*
X147487465Y-73715175D01*
X147371028Y-73598738D01*
X147217889Y-73496414D01*
X147047729Y-73425932D01*
X146867089Y-73390000D01*
X146682911Y-73390000D01*
X146502271Y-73425932D01*
X146332111Y-73496414D01*
X146178972Y-73598738D01*
X146048738Y-73728972D01*
X145946414Y-73882111D01*
X145875932Y-74052271D01*
X145840000Y-74232911D01*
X141250055Y-74232911D01*
X141224068Y-74102271D01*
X141153586Y-73932111D01*
X141051262Y-73778972D01*
X140921028Y-73648738D01*
X140767889Y-73546414D01*
X140597729Y-73475932D01*
X140417089Y-73440000D01*
X140232911Y-73440000D01*
X140052271Y-73475932D01*
X139882111Y-73546414D01*
X139728972Y-73648738D01*
X139598738Y-73778972D01*
X139496414Y-73932111D01*
X139425932Y-74102271D01*
X139390000Y-74282911D01*
X137079940Y-74282911D01*
X137082000Y-72320133D01*
X137080054Y-72297854D01*
X137073331Y-72273883D01*
X137062060Y-72251683D01*
X137046675Y-72232110D01*
X137027767Y-72215914D01*
X137006063Y-72203717D01*
X136982396Y-72195990D01*
X136957676Y-72193028D01*
X131209692Y-72071876D01*
X131209684Y-72032911D01*
X139540000Y-72032911D01*
X139540000Y-72217089D01*
X139575932Y-72397729D01*
X139646414Y-72567889D01*
X139748738Y-72721028D01*
X139878972Y-72851262D01*
X140032111Y-72953586D01*
X140202271Y-73024068D01*
X140382911Y-73060000D01*
X140567089Y-73060000D01*
X140747729Y-73024068D01*
X140917889Y-72953586D01*
X141071028Y-72851262D01*
X141201262Y-72721028D01*
X141303586Y-72567889D01*
X141349140Y-72457911D01*
X147115000Y-72457911D01*
X147115000Y-72642089D01*
X147150932Y-72822729D01*
X147221414Y-72992889D01*
X147323738Y-73146028D01*
X147453972Y-73276262D01*
X147607111Y-73378586D01*
X147777271Y-73449068D01*
X147957911Y-73485000D01*
X148142089Y-73485000D01*
X148322729Y-73449068D01*
X148492889Y-73378586D01*
X148646028Y-73276262D01*
X148776262Y-73146028D01*
X148878586Y-72992889D01*
X148949068Y-72822729D01*
X148985000Y-72642089D01*
X148985000Y-72457911D01*
X148949068Y-72277271D01*
X148878586Y-72107111D01*
X148776262Y-71953972D01*
X148646028Y-71823738D01*
X148492889Y-71721414D01*
X148322729Y-71650932D01*
X148142089Y-71615000D01*
X147957911Y-71615000D01*
X147777271Y-71650932D01*
X147607111Y-71721414D01*
X147453972Y-71823738D01*
X147323738Y-71953972D01*
X147221414Y-72107111D01*
X147150932Y-72277271D01*
X147115000Y-72457911D01*
X141349140Y-72457911D01*
X141374068Y-72397729D01*
X141410000Y-72217089D01*
X141410000Y-72032911D01*
X141374068Y-71852271D01*
X141303586Y-71682111D01*
X141201262Y-71528972D01*
X141071028Y-71398738D01*
X140917889Y-71296414D01*
X140747729Y-71225932D01*
X140567089Y-71190000D01*
X140382911Y-71190000D01*
X140202271Y-71225932D01*
X140032111Y-71296414D01*
X139878972Y-71398738D01*
X139748738Y-71528972D01*
X139646414Y-71682111D01*
X139575932Y-71852271D01*
X139540000Y-72032911D01*
X131209684Y-72032911D01*
X131209004Y-69007911D01*
X140365000Y-69007911D01*
X140365000Y-69192089D01*
X140400932Y-69372729D01*
X140471414Y-69542889D01*
X140573738Y-69696028D01*
X140703972Y-69826262D01*
X140857111Y-69928586D01*
X141027271Y-69999068D01*
X141207911Y-70035000D01*
X141392089Y-70035000D01*
X141572729Y-69999068D01*
X141742889Y-69928586D01*
X141896028Y-69826262D01*
X142026262Y-69696028D01*
X142101837Y-69582921D01*
X142190000Y-69582921D01*
X142190000Y-69767099D01*
X142225932Y-69947739D01*
X142296414Y-70117899D01*
X142398738Y-70271038D01*
X142528972Y-70401272D01*
X142682111Y-70503596D01*
X142852271Y-70574078D01*
X143032911Y-70610010D01*
X143217089Y-70610010D01*
X143397729Y-70574078D01*
X143567889Y-70503596D01*
X143721028Y-70401272D01*
X143851262Y-70271038D01*
X143940164Y-70137987D01*
X144027271Y-70174068D01*
X144207911Y-70210000D01*
X144392089Y-70210000D01*
X144572729Y-70174068D01*
X144742889Y-70103586D01*
X144896028Y-70001262D01*
X145026262Y-69871028D01*
X145128586Y-69717889D01*
X145191029Y-69567136D01*
X151959597Y-69567136D01*
X151959597Y-69751314D01*
X151995529Y-69931954D01*
X152066011Y-70102114D01*
X152168335Y-70255253D01*
X152298569Y-70385487D01*
X152451708Y-70487811D01*
X152621868Y-70558293D01*
X152802508Y-70594225D01*
X152986686Y-70594225D01*
X153167326Y-70558293D01*
X153337486Y-70487811D01*
X153490625Y-70385487D01*
X153620859Y-70255253D01*
X153669196Y-70182911D01*
X156915000Y-70182911D01*
X156915000Y-70367089D01*
X156950932Y-70547729D01*
X157021414Y-70717889D01*
X157123738Y-70871028D01*
X157253972Y-71001262D01*
X157407111Y-71103586D01*
X157577271Y-71174068D01*
X157757911Y-71210000D01*
X157942089Y-71210000D01*
X158122729Y-71174068D01*
X158292889Y-71103586D01*
X158446028Y-71001262D01*
X158576262Y-70871028D01*
X158678586Y-70717889D01*
X158749068Y-70547729D01*
X158779729Y-70393586D01*
X158832111Y-70428586D01*
X159002271Y-70499068D01*
X159182911Y-70535000D01*
X159367089Y-70535000D01*
X159547729Y-70499068D01*
X159717889Y-70428586D01*
X159871028Y-70326262D01*
X160001262Y-70196028D01*
X160103586Y-70042889D01*
X160174068Y-69872729D01*
X160210000Y-69692089D01*
X160210000Y-69507911D01*
X160174068Y-69327271D01*
X160103586Y-69157111D01*
X160001262Y-69003972D01*
X159871028Y-68873738D01*
X159717889Y-68771414D01*
X159547729Y-68700932D01*
X159367089Y-68665000D01*
X159182911Y-68665000D01*
X159002271Y-68700932D01*
X158832111Y-68771414D01*
X158678972Y-68873738D01*
X158548738Y-69003972D01*
X158446414Y-69157111D01*
X158375932Y-69327271D01*
X158345271Y-69481414D01*
X158292889Y-69446414D01*
X158122729Y-69375932D01*
X157942089Y-69340000D01*
X157757911Y-69340000D01*
X157577271Y-69375932D01*
X157407111Y-69446414D01*
X157253972Y-69548738D01*
X157123738Y-69678972D01*
X157021414Y-69832111D01*
X156950932Y-70002271D01*
X156915000Y-70182911D01*
X153669196Y-70182911D01*
X153723183Y-70102114D01*
X153793665Y-69931954D01*
X153829597Y-69751314D01*
X153829597Y-69567136D01*
X153793665Y-69386496D01*
X153723183Y-69216336D01*
X153620859Y-69063197D01*
X153490625Y-68932963D01*
X153337486Y-68830639D01*
X153167326Y-68760157D01*
X152986686Y-68724225D01*
X152802508Y-68724225D01*
X152621868Y-68760157D01*
X152451708Y-68830639D01*
X152298569Y-68932963D01*
X152168335Y-69063197D01*
X152066011Y-69216336D01*
X151995529Y-69386496D01*
X151959597Y-69567136D01*
X145191029Y-69567136D01*
X145199068Y-69547729D01*
X145235000Y-69367089D01*
X145235000Y-69182911D01*
X145199068Y-69002271D01*
X145128586Y-68832111D01*
X145026262Y-68678972D01*
X144896028Y-68548738D01*
X144742889Y-68446414D01*
X144572729Y-68375932D01*
X144392089Y-68340000D01*
X144207911Y-68340000D01*
X144027271Y-68375932D01*
X143857111Y-68446414D01*
X143703972Y-68548738D01*
X143573738Y-68678972D01*
X143484836Y-68812023D01*
X143397729Y-68775942D01*
X143217089Y-68740010D01*
X143032911Y-68740010D01*
X142852271Y-68775942D01*
X142682111Y-68846424D01*
X142528972Y-68948748D01*
X142398738Y-69078982D01*
X142296414Y-69232121D01*
X142225932Y-69402281D01*
X142190000Y-69582921D01*
X142101837Y-69582921D01*
X142128586Y-69542889D01*
X142199068Y-69372729D01*
X142235000Y-69192089D01*
X142235000Y-69007911D01*
X142199068Y-68827271D01*
X142128586Y-68657111D01*
X142026262Y-68503972D01*
X141896028Y-68373738D01*
X141742889Y-68271414D01*
X141572729Y-68200932D01*
X141392089Y-68165000D01*
X141207911Y-68165000D01*
X141027271Y-68200932D01*
X140857111Y-68271414D01*
X140703972Y-68373738D01*
X140573738Y-68503972D01*
X140471414Y-68657111D01*
X140400932Y-68827271D01*
X140365000Y-69007911D01*
X131209004Y-69007911D01*
X131208605Y-67232911D01*
X149565000Y-67232911D01*
X149565000Y-67417089D01*
X149600932Y-67597729D01*
X149671414Y-67767889D01*
X149773738Y-67921028D01*
X149903972Y-68051262D01*
X150057111Y-68153586D01*
X150227271Y-68224068D01*
X150407911Y-68260000D01*
X150592089Y-68260000D01*
X150772729Y-68224068D01*
X150942889Y-68153586D01*
X151096028Y-68051262D01*
X151226262Y-67921028D01*
X151328586Y-67767889D01*
X151399068Y-67597729D01*
X151435000Y-67417089D01*
X151435000Y-67232911D01*
X151399068Y-67052271D01*
X151328586Y-66882111D01*
X151228894Y-66732911D01*
X151740000Y-66732911D01*
X151740000Y-66917089D01*
X151775932Y-67097729D01*
X151846414Y-67267889D01*
X151948738Y-67421028D01*
X152078972Y-67551262D01*
X152232111Y-67653586D01*
X152402271Y-67724068D01*
X152582911Y-67760000D01*
X152767089Y-67760000D01*
X152947729Y-67724068D01*
X153117889Y-67653586D01*
X153271028Y-67551262D01*
X153401262Y-67421028D01*
X153503586Y-67267889D01*
X153574068Y-67097729D01*
X153610000Y-66917089D01*
X153610000Y-66732911D01*
X153584931Y-66606882D01*
X153592889Y-66603586D01*
X153746028Y-66501262D01*
X153839379Y-66407911D01*
X154240000Y-66407911D01*
X154240000Y-66592089D01*
X154275932Y-66772729D01*
X154346414Y-66942889D01*
X154448738Y-67096028D01*
X154578972Y-67226262D01*
X154732111Y-67328586D01*
X154902271Y-67399068D01*
X155082911Y-67435000D01*
X155267089Y-67435000D01*
X155447729Y-67399068D01*
X155617889Y-67328586D01*
X155771028Y-67226262D01*
X155901262Y-67096028D01*
X156003586Y-66942889D01*
X156074068Y-66772729D01*
X156110000Y-66592089D01*
X156110000Y-66586546D01*
X156172729Y-66574068D01*
X156342889Y-66503586D01*
X156496028Y-66401262D01*
X156626262Y-66271028D01*
X156728586Y-66117889D01*
X156799068Y-65947729D01*
X156835000Y-65767089D01*
X156835000Y-65582911D01*
X156799068Y-65402271D01*
X156728586Y-65232111D01*
X156626262Y-65078972D01*
X156496028Y-64948738D01*
X156342889Y-64846414D01*
X156172729Y-64775932D01*
X155992089Y-64740000D01*
X155807911Y-64740000D01*
X155627271Y-64775932D01*
X155457111Y-64846414D01*
X155303972Y-64948738D01*
X155173738Y-65078972D01*
X155071414Y-65232111D01*
X155000932Y-65402271D01*
X154965000Y-65582911D01*
X154965000Y-65588454D01*
X154902271Y-65600932D01*
X154732111Y-65671414D01*
X154578972Y-65773738D01*
X154448738Y-65903972D01*
X154346414Y-66057111D01*
X154275932Y-66227271D01*
X154240000Y-66407911D01*
X153839379Y-66407911D01*
X153876262Y-66371028D01*
X153978586Y-66217889D01*
X154049068Y-66047729D01*
X154085000Y-65867089D01*
X154085000Y-65682911D01*
X154049068Y-65502271D01*
X153978586Y-65332111D01*
X153876262Y-65178972D01*
X153746028Y-65048738D01*
X153592889Y-64946414D01*
X153422729Y-64875932D01*
X153242089Y-64840000D01*
X153057911Y-64840000D01*
X152877271Y-64875932D01*
X152707111Y-64946414D01*
X152553972Y-65048738D01*
X152423738Y-65178972D01*
X152321414Y-65332111D01*
X152250932Y-65502271D01*
X152215000Y-65682911D01*
X152215000Y-65867089D01*
X152240069Y-65993118D01*
X152232111Y-65996414D01*
X152078972Y-66098738D01*
X151948738Y-66228972D01*
X151846414Y-66382111D01*
X151775932Y-66552271D01*
X151740000Y-66732911D01*
X151228894Y-66732911D01*
X151226262Y-66728972D01*
X151096028Y-66598738D01*
X150942889Y-66496414D01*
X150772729Y-66425932D01*
X150592089Y-66390000D01*
X150407911Y-66390000D01*
X150227271Y-66425932D01*
X150057111Y-66496414D01*
X149903972Y-66598738D01*
X149773738Y-66728972D01*
X149671414Y-66882111D01*
X149600932Y-67052271D01*
X149565000Y-67232911D01*
X131208605Y-67232911D01*
X131208245Y-65632911D01*
X135390000Y-65632911D01*
X135390000Y-65817089D01*
X135425932Y-65997729D01*
X135496414Y-66167889D01*
X135598738Y-66321028D01*
X135728972Y-66451262D01*
X135882111Y-66553586D01*
X136052271Y-66624068D01*
X136232911Y-66660000D01*
X136417089Y-66660000D01*
X136597729Y-66624068D01*
X136767889Y-66553586D01*
X136921028Y-66451262D01*
X137051262Y-66321028D01*
X137153586Y-66167889D01*
X137224068Y-65997729D01*
X137260000Y-65817089D01*
X137260000Y-65632911D01*
X137224068Y-65452271D01*
X137153586Y-65282111D01*
X137051262Y-65128972D01*
X136921028Y-64998738D01*
X136767889Y-64896414D01*
X136597729Y-64825932D01*
X136417089Y-64790000D01*
X136232911Y-64790000D01*
X136052271Y-64825932D01*
X135882111Y-64896414D01*
X135728972Y-64998738D01*
X135598738Y-65128972D01*
X135496414Y-65282111D01*
X135425932Y-65452271D01*
X135390000Y-65632911D01*
X131208245Y-65632911D01*
X131207650Y-62982911D01*
X135390000Y-62982911D01*
X135390000Y-63167089D01*
X135425932Y-63347729D01*
X135496414Y-63517889D01*
X135598738Y-63671028D01*
X135728972Y-63801262D01*
X135882111Y-63903586D01*
X136052271Y-63974068D01*
X136232911Y-64010000D01*
X136417089Y-64010000D01*
X136597729Y-63974068D01*
X136767889Y-63903586D01*
X136921028Y-63801262D01*
X137051262Y-63671028D01*
X137153586Y-63517889D01*
X137224068Y-63347729D01*
X137260000Y-63167089D01*
X137260000Y-62982911D01*
X137224068Y-62802271D01*
X137153586Y-62632111D01*
X137051262Y-62478972D01*
X137030201Y-62457911D01*
X137915000Y-62457911D01*
X137915000Y-62642089D01*
X137950932Y-62822729D01*
X138021414Y-62992889D01*
X138123738Y-63146028D01*
X138253972Y-63276262D01*
X138407111Y-63378586D01*
X138577271Y-63449068D01*
X138757911Y-63485000D01*
X138942089Y-63485000D01*
X139122729Y-63449068D01*
X139292889Y-63378586D01*
X139446028Y-63276262D01*
X139504820Y-63217470D01*
X139546414Y-63317889D01*
X139648738Y-63471028D01*
X139778972Y-63601262D01*
X139932111Y-63703586D01*
X140102271Y-63774068D01*
X140282911Y-63810000D01*
X140467089Y-63810000D01*
X140647729Y-63774068D01*
X140817889Y-63703586D01*
X140971028Y-63601262D01*
X141101262Y-63471028D01*
X141203586Y-63317889D01*
X141274068Y-63147729D01*
X141306852Y-62982911D01*
X141640000Y-62982911D01*
X141640000Y-63167089D01*
X141675932Y-63347729D01*
X141746414Y-63517889D01*
X141848738Y-63671028D01*
X141978972Y-63801262D01*
X141983951Y-63804589D01*
X141949965Y-63855453D01*
X141879483Y-64025613D01*
X141843551Y-64206253D01*
X141843551Y-64390431D01*
X141879483Y-64571071D01*
X141949965Y-64741231D01*
X142052289Y-64894370D01*
X142182523Y-65024604D01*
X142335662Y-65126928D01*
X142505822Y-65197410D01*
X142686462Y-65233342D01*
X142870640Y-65233342D01*
X143051280Y-65197410D01*
X143221440Y-65126928D01*
X143374579Y-65024604D01*
X143504813Y-64894370D01*
X143607137Y-64741231D01*
X143677619Y-64571071D01*
X143700128Y-64457911D01*
X145665000Y-64457911D01*
X145665000Y-64642089D01*
X145700932Y-64822729D01*
X145771414Y-64992889D01*
X145873738Y-65146028D01*
X146003972Y-65276262D01*
X146157111Y-65378586D01*
X146327271Y-65449068D01*
X146507911Y-65485000D01*
X146692089Y-65485000D01*
X146872729Y-65449068D01*
X147042889Y-65378586D01*
X147196028Y-65276262D01*
X147326262Y-65146028D01*
X147428586Y-64992889D01*
X147499068Y-64822729D01*
X147535000Y-64642089D01*
X147535000Y-64457911D01*
X147499068Y-64277271D01*
X147428586Y-64107111D01*
X147326262Y-63953972D01*
X147196028Y-63823738D01*
X147042889Y-63721414D01*
X146872729Y-63650932D01*
X146692089Y-63615000D01*
X146507911Y-63615000D01*
X146327271Y-63650932D01*
X146157111Y-63721414D01*
X146003972Y-63823738D01*
X145873738Y-63953972D01*
X145771414Y-64107111D01*
X145700932Y-64277271D01*
X145665000Y-64457911D01*
X143700128Y-64457911D01*
X143713551Y-64390431D01*
X143713551Y-64206253D01*
X143677619Y-64025613D01*
X143650441Y-63960000D01*
X143767089Y-63960000D01*
X143947729Y-63924068D01*
X144117889Y-63853586D01*
X144271028Y-63751262D01*
X144401262Y-63621028D01*
X144411117Y-63606279D01*
X144463368Y-63606279D01*
X144644008Y-63570347D01*
X144814168Y-63499865D01*
X144967307Y-63397541D01*
X145097541Y-63267307D01*
X145199865Y-63114168D01*
X145270347Y-62944008D01*
X145306279Y-62763368D01*
X145306279Y-62701112D01*
X150808201Y-62701112D01*
X150808201Y-62885290D01*
X150844133Y-63065930D01*
X150914615Y-63236090D01*
X151016939Y-63389229D01*
X151147173Y-63519463D01*
X151300312Y-63621787D01*
X151470472Y-63692269D01*
X151651112Y-63728201D01*
X151835290Y-63728201D01*
X152015930Y-63692269D01*
X152186090Y-63621787D01*
X152339229Y-63519463D01*
X152468512Y-63390180D01*
X152521414Y-63517899D01*
X152623738Y-63671038D01*
X152753972Y-63801272D01*
X152907111Y-63903596D01*
X153077271Y-63974078D01*
X153257911Y-64010010D01*
X153442089Y-64010010D01*
X153622729Y-63974078D01*
X153792889Y-63903596D01*
X153946028Y-63801272D01*
X153987505Y-63759795D01*
X154003972Y-63776262D01*
X154157111Y-63878586D01*
X154327271Y-63949068D01*
X154507911Y-63985000D01*
X154692089Y-63985000D01*
X154872729Y-63949068D01*
X155042889Y-63878586D01*
X155196028Y-63776262D01*
X155326262Y-63646028D01*
X155428586Y-63492889D01*
X155499068Y-63322729D01*
X155535000Y-63142089D01*
X155535000Y-62957911D01*
X155510134Y-62832901D01*
X156140000Y-62832901D01*
X156140000Y-63017079D01*
X156175932Y-63197719D01*
X156246414Y-63367879D01*
X156348738Y-63521018D01*
X156478972Y-63651252D01*
X156632111Y-63753576D01*
X156802271Y-63824058D01*
X156982911Y-63859990D01*
X157167089Y-63859990D01*
X157269365Y-63839646D01*
X157171404Y-63986255D01*
X157100922Y-64156415D01*
X157064990Y-64337055D01*
X157064990Y-64521233D01*
X157100922Y-64701873D01*
X157171404Y-64872033D01*
X157273728Y-65025172D01*
X157403962Y-65155406D01*
X157557101Y-65257730D01*
X157727261Y-65328212D01*
X157907901Y-65364144D01*
X158092079Y-65364144D01*
X158272719Y-65328212D01*
X158442879Y-65257730D01*
X158573398Y-65170520D01*
X158573738Y-65171028D01*
X158703972Y-65301262D01*
X158857111Y-65403586D01*
X159027271Y-65474068D01*
X159207911Y-65510000D01*
X159392089Y-65510000D01*
X159572729Y-65474068D01*
X159742889Y-65403586D01*
X159896028Y-65301262D01*
X160026262Y-65171028D01*
X160128586Y-65017889D01*
X160199068Y-64847729D01*
X160235000Y-64667089D01*
X160235000Y-64482911D01*
X160199068Y-64302271D01*
X160128586Y-64132111D01*
X160026262Y-63978972D01*
X159896028Y-63848738D01*
X159742889Y-63746414D01*
X159572729Y-63675932D01*
X159392089Y-63640000D01*
X159207911Y-63640000D01*
X159027271Y-63675932D01*
X158857111Y-63746414D01*
X158726592Y-63833624D01*
X158726252Y-63833116D01*
X158596018Y-63702882D01*
X158442879Y-63600558D01*
X158272719Y-63530076D01*
X158092079Y-63494144D01*
X157907901Y-63494144D01*
X157805625Y-63514488D01*
X157903586Y-63367879D01*
X157974068Y-63197719D01*
X158010000Y-63017079D01*
X158010000Y-62832901D01*
X157974068Y-62652261D01*
X157903586Y-62482101D01*
X157801262Y-62328962D01*
X157671028Y-62198728D01*
X157517889Y-62096404D01*
X157347729Y-62025922D01*
X157167089Y-61989990D01*
X156982911Y-61989990D01*
X156802271Y-62025922D01*
X156632111Y-62096404D01*
X156478972Y-62198728D01*
X156348738Y-62328962D01*
X156246414Y-62482101D01*
X156175932Y-62652261D01*
X156140000Y-62832901D01*
X155510134Y-62832901D01*
X155499068Y-62777271D01*
X155428586Y-62607111D01*
X155326262Y-62453972D01*
X155196028Y-62323738D01*
X155042889Y-62221414D01*
X154872729Y-62150932D01*
X154692089Y-62115000D01*
X154507911Y-62115000D01*
X154327271Y-62150932D01*
X154157111Y-62221414D01*
X154003972Y-62323738D01*
X153962495Y-62365215D01*
X153946028Y-62348748D01*
X153792889Y-62246424D01*
X153622729Y-62175942D01*
X153442089Y-62140010D01*
X153257911Y-62140010D01*
X153077271Y-62175942D01*
X152907111Y-62246424D01*
X152753972Y-62348748D01*
X152624689Y-62478031D01*
X152571787Y-62350312D01*
X152469463Y-62197173D01*
X152339229Y-62066939D01*
X152186090Y-61964615D01*
X152015930Y-61894133D01*
X151835290Y-61858201D01*
X151651112Y-61858201D01*
X151470472Y-61894133D01*
X151300312Y-61964615D01*
X151147173Y-62066939D01*
X151016939Y-62197173D01*
X150914615Y-62350312D01*
X150844133Y-62520472D01*
X150808201Y-62701112D01*
X145306279Y-62701112D01*
X145306279Y-62579190D01*
X145270347Y-62398550D01*
X145199865Y-62228390D01*
X145097541Y-62075251D01*
X144967307Y-61945017D01*
X144814168Y-61842693D01*
X144644008Y-61772211D01*
X144463368Y-61736279D01*
X144279190Y-61736279D01*
X144098550Y-61772211D01*
X143928390Y-61842693D01*
X143775251Y-61945017D01*
X143645017Y-62075251D01*
X143635162Y-62090000D01*
X143582911Y-62090000D01*
X143402271Y-62125932D01*
X143232111Y-62196414D01*
X143087585Y-62292983D01*
X143017889Y-62246414D01*
X142847729Y-62175932D01*
X142667089Y-62140000D01*
X142482911Y-62140000D01*
X142302271Y-62175932D01*
X142132111Y-62246414D01*
X141978972Y-62348738D01*
X141848738Y-62478972D01*
X141746414Y-62632111D01*
X141675932Y-62802271D01*
X141640000Y-62982911D01*
X141306852Y-62982911D01*
X141310000Y-62967089D01*
X141310000Y-62782911D01*
X141274068Y-62602271D01*
X141203586Y-62432111D01*
X141101262Y-62278972D01*
X140971028Y-62148738D01*
X140817889Y-62046414D01*
X140647729Y-61975932D01*
X140467089Y-61940000D01*
X140282911Y-61940000D01*
X140102271Y-61975932D01*
X139932111Y-62046414D01*
X139778972Y-62148738D01*
X139720180Y-62207530D01*
X139678586Y-62107111D01*
X139576262Y-61953972D01*
X139446028Y-61823738D01*
X139292889Y-61721414D01*
X139122729Y-61650932D01*
X138942089Y-61615000D01*
X138757911Y-61615000D01*
X138577271Y-61650932D01*
X138407111Y-61721414D01*
X138253972Y-61823738D01*
X138123738Y-61953972D01*
X138021414Y-62107111D01*
X137950932Y-62277271D01*
X137915000Y-62457911D01*
X137030201Y-62457911D01*
X136921028Y-62348738D01*
X136767889Y-62246414D01*
X136597729Y-62175932D01*
X136417089Y-62140000D01*
X136232911Y-62140000D01*
X136052271Y-62175932D01*
X135882111Y-62246414D01*
X135728972Y-62348738D01*
X135598738Y-62478972D01*
X135496414Y-62632111D01*
X135425932Y-62802271D01*
X135390000Y-62982911D01*
X131207650Y-62982911D01*
X131206983Y-60016691D01*
X149398780Y-60016691D01*
X149398780Y-60200869D01*
X149434712Y-60381509D01*
X149505194Y-60551669D01*
X149607518Y-60704808D01*
X149737752Y-60835042D01*
X149890891Y-60937366D01*
X150061051Y-61007848D01*
X150241691Y-61043780D01*
X150425869Y-61043780D01*
X150606509Y-61007848D01*
X150776669Y-60937366D01*
X150929808Y-60835042D01*
X151060042Y-60704808D01*
X151162366Y-60551669D01*
X151232848Y-60381509D01*
X151268780Y-60200869D01*
X151268780Y-60016691D01*
X151232848Y-59836051D01*
X151162366Y-59665891D01*
X151060042Y-59512752D01*
X150929808Y-59382518D01*
X150776669Y-59280194D01*
X150606509Y-59209712D01*
X150425869Y-59173780D01*
X150241691Y-59173780D01*
X150061051Y-59209712D01*
X149890891Y-59280194D01*
X149737752Y-59382518D01*
X149607518Y-59512752D01*
X149505194Y-59665891D01*
X149434712Y-59836051D01*
X149398780Y-60016691D01*
X131206983Y-60016691D01*
X131206602Y-58322395D01*
X131298382Y-58414175D01*
X131607118Y-58620466D01*
X131950166Y-58762561D01*
X132314344Y-58835000D01*
X132685656Y-58835000D01*
X133049834Y-58762561D01*
X133181770Y-58707911D01*
X139115000Y-58707911D01*
X139115000Y-58892089D01*
X139150932Y-59072729D01*
X139221414Y-59242889D01*
X139323738Y-59396028D01*
X139453972Y-59526262D01*
X139607111Y-59628586D01*
X139777271Y-59699068D01*
X139957911Y-59735000D01*
X140142089Y-59735000D01*
X140322729Y-59699068D01*
X140492889Y-59628586D01*
X140646028Y-59526262D01*
X140776262Y-59396028D01*
X140878586Y-59242889D01*
X140949068Y-59072729D01*
X140985000Y-58892089D01*
X140985000Y-58707911D01*
X140949068Y-58527271D01*
X140878586Y-58357111D01*
X140776262Y-58203972D01*
X140646028Y-58073738D01*
X140492889Y-57971414D01*
X140322729Y-57900932D01*
X140142089Y-57865000D01*
X139957911Y-57865000D01*
X139777271Y-57900932D01*
X139607111Y-57971414D01*
X139453972Y-58073738D01*
X139323738Y-58203972D01*
X139221414Y-58357111D01*
X139150932Y-58527271D01*
X139115000Y-58707911D01*
X133181770Y-58707911D01*
X133392882Y-58620466D01*
X133701618Y-58414175D01*
X133964175Y-58151618D01*
X134170466Y-57842882D01*
X134312561Y-57499834D01*
X134385000Y-57135656D01*
X134385000Y-56764344D01*
X134312561Y-56400166D01*
X134170466Y-56057118D01*
X133964175Y-55748382D01*
X133856329Y-55640536D01*
X159144144Y-55640063D01*
X159035825Y-55748382D01*
G37*
G04 #@! TD.AperFunction*
M02*
