G04 #@! TF.GenerationSoftware,KiCad,Pcbnew,5.1.7-a382d34a88~90~ubuntu20.04.1*
G04 #@! TF.CreationDate,2022-01-21T18:15:31-06:00*
G04 #@! TF.ProjectId,strike-controller,73747269-6b65-42d6-936f-6e74726f6c6c,rev?*
G04 #@! TF.SameCoordinates,Original*
G04 #@! TF.FileFunction,Legend,Top*
G04 #@! TF.FilePolarity,Positive*
%FSLAX46Y46*%
G04 Gerber Fmt 4.6, Leading zero omitted, Abs format (unit mm)*
G04 Created by KiCad (PCBNEW 5.1.7-a382d34a88~90~ubuntu20.04.1) date 2022-01-21 18:15:31*
%MOMM*%
%LPD*%
G01*
G04 APERTURE LIST*
%ADD10C,0.120000*%
%ADD11C,0.254000*%
%ADD12C,0.150000*%
G04 APERTURE END LIST*
D10*
X133109165Y-112885000D02*
X133340835Y-112885000D01*
X133109165Y-112165000D02*
X133340835Y-112165000D01*
X132160000Y-102646267D02*
X132160000Y-102353733D01*
X131140000Y-102646267D02*
X131140000Y-102353733D01*
X133084879Y-111580000D02*
X133420121Y-111580000D01*
X133084879Y-110820000D02*
X133420121Y-110820000D01*
X162100781Y-115925000D02*
G75*
G03*
X162100781Y-115925000I-1600781J0D01*
G01*
X162100781Y-56950000D02*
G75*
G03*
X162100781Y-56950000I-1600781J0D01*
G01*
X134125781Y-115900000D02*
G75*
G03*
X134125781Y-115900000I-1600781J0D01*
G01*
X134100781Y-56950000D02*
G75*
G03*
X134100781Y-56950000I-1600781J0D01*
G01*
X148769879Y-103160000D02*
X149105121Y-103160000D01*
X148769879Y-102400000D02*
X149105121Y-102400000D01*
X134715000Y-65540000D02*
X134715000Y-65090000D01*
X134715000Y-65090000D02*
X135665000Y-65090000D01*
X135665000Y-65090000D02*
X135665000Y-63600000D01*
X144185000Y-65540000D02*
X144185000Y-65090000D01*
X144185000Y-65090000D02*
X143235000Y-65090000D01*
X134715000Y-69060000D02*
X134715000Y-69510000D01*
X134715000Y-69510000D02*
X144185000Y-69510000D01*
X144185000Y-69510000D02*
X144185000Y-69060000D01*
X149240000Y-58640000D02*
X149240000Y-58190000D01*
X149240000Y-58190000D02*
X150190000Y-58190000D01*
X150190000Y-58190000D02*
X150190000Y-56700000D01*
X158710000Y-58640000D02*
X158710000Y-58190000D01*
X158710000Y-58190000D02*
X157760000Y-58190000D01*
X149240000Y-62160000D02*
X149240000Y-62610000D01*
X149240000Y-62610000D02*
X158710000Y-62610000D01*
X158710000Y-62610000D02*
X158710000Y-62160000D01*
X149240000Y-65540000D02*
X149240000Y-65090000D01*
X149240000Y-65090000D02*
X150190000Y-65090000D01*
X150190000Y-65090000D02*
X150190000Y-63600000D01*
X158710000Y-65540000D02*
X158710000Y-65090000D01*
X158710000Y-65090000D02*
X157760000Y-65090000D01*
X149240000Y-69060000D02*
X149240000Y-69510000D01*
X149240000Y-69510000D02*
X158710000Y-69510000D01*
X158710000Y-69510000D02*
X158710000Y-69060000D01*
X134715000Y-58640000D02*
X134715000Y-58190000D01*
X134715000Y-58190000D02*
X135665000Y-58190000D01*
X135665000Y-58190000D02*
X135665000Y-56700000D01*
X144185000Y-58640000D02*
X144185000Y-58190000D01*
X144185000Y-58190000D02*
X143235000Y-58190000D01*
X134715000Y-62160000D02*
X134715000Y-62610000D01*
X134715000Y-62610000D02*
X144185000Y-62610000D01*
X144185000Y-62610000D02*
X144185000Y-62160000D01*
X137410000Y-95620000D02*
X137410000Y-96000000D01*
X130990000Y-95620000D02*
X137410000Y-95620000D01*
X130990000Y-77380000D02*
X137410000Y-77380000D01*
X130990000Y-95620000D02*
X130990000Y-77380000D01*
X156735000Y-77380000D02*
X156735000Y-78380000D01*
X155955000Y-77380000D02*
X156735000Y-77380000D01*
X156735000Y-95620000D02*
X156735000Y-94620000D01*
X155955000Y-95620000D02*
X156735000Y-95620000D01*
D11*
X132765000Y-108630500D02*
X132765000Y-103169500D01*
X140385000Y-103169500D02*
X140385000Y-108630500D01*
X132765000Y-108630500D02*
X140385000Y-108630500D01*
X140385000Y-103169500D02*
X132765000Y-103169500D01*
X133146000Y-103169500D02*
X133146000Y-108630500D01*
D10*
X144398335Y-102840000D02*
X144166665Y-102840000D01*
X144398335Y-103560000D02*
X144166665Y-103560000D01*
X139223335Y-96690000D02*
X138991665Y-96690000D01*
X139223335Y-97410000D02*
X138991665Y-97410000D01*
X160082379Y-113055000D02*
X160417621Y-113055000D01*
X160082379Y-112295000D02*
X160417621Y-112295000D01*
X144380000Y-112209879D02*
X144380000Y-112545121D01*
X145140000Y-112209879D02*
X145140000Y-112545121D01*
X149150000Y-105410000D02*
X151650000Y-105410000D01*
X147650000Y-107160000D02*
X147650000Y-109160000D01*
X149150000Y-110910000D02*
X151650000Y-110910000D01*
X153150000Y-107160000D02*
X153150000Y-109160000D01*
X148700000Y-105860000D02*
X149150000Y-105410000D01*
X152100000Y-105860000D02*
X151650000Y-105410000D01*
X152100000Y-110460000D02*
X151650000Y-110910000D01*
X148700000Y-110460000D02*
X149150000Y-110910000D01*
X149150000Y-111825000D02*
X151650000Y-111825000D01*
X147650000Y-113575000D02*
X147650000Y-115575000D01*
X149150000Y-117325000D02*
X151650000Y-117325000D01*
X153150000Y-113575000D02*
X153150000Y-115575000D01*
X148700000Y-112275000D02*
X149150000Y-111825000D01*
X152100000Y-112275000D02*
X151650000Y-111825000D01*
X152100000Y-116875000D02*
X151650000Y-117325000D01*
X148700000Y-116875000D02*
X149150000Y-117325000D01*
X162060000Y-103405000D02*
X162060000Y-109415000D01*
X155240000Y-105655000D02*
X155240000Y-109415000D01*
X162060000Y-109415000D02*
X160800000Y-109415000D01*
X155240000Y-109415000D02*
X156500000Y-109415000D01*
X160104879Y-90630000D02*
X160440121Y-90630000D01*
X160104879Y-89870000D02*
X160440121Y-89870000D01*
X159259879Y-84160000D02*
X159595121Y-84160000D01*
X159259879Y-83400000D02*
X159595121Y-83400000D01*
X160370121Y-85220000D02*
X160034879Y-85220000D01*
X160370121Y-85980000D02*
X160034879Y-85980000D01*
X160954879Y-97455000D02*
X161290121Y-97455000D01*
X160954879Y-96695000D02*
X161290121Y-96695000D01*
X156990000Y-74864879D02*
X156990000Y-75200121D01*
X157750000Y-74864879D02*
X157750000Y-75200121D01*
X160332379Y-92860000D02*
X160667621Y-92860000D01*
X160332379Y-92100000D02*
X160667621Y-92100000D01*
X154640121Y-97630000D02*
X154304879Y-97630000D01*
X154640121Y-96870000D02*
X154304879Y-96870000D01*
X151120000Y-74729879D02*
X151120000Y-75065121D01*
X151880000Y-74729879D02*
X151880000Y-75065121D01*
X151807621Y-101660000D02*
X151472379Y-101660000D01*
X151807621Y-102420000D02*
X151472379Y-102420000D01*
X154112379Y-101620000D02*
X154447621Y-101620000D01*
X154112379Y-102380000D02*
X154447621Y-102380000D01*
X150309879Y-96895000D02*
X150645121Y-96895000D01*
X150309879Y-97655000D02*
X150645121Y-97655000D01*
X144895000Y-74754879D02*
X144895000Y-75090121D01*
X145655000Y-74754879D02*
X145655000Y-75090121D01*
X158615121Y-102380000D02*
X158279879Y-102380000D01*
X158615121Y-101620000D02*
X158279879Y-101620000D01*
X158517621Y-97630000D02*
X158182379Y-97630000D01*
X158517621Y-96870000D02*
X158182379Y-96870000D01*
X138570000Y-74759879D02*
X138570000Y-75095121D01*
X139330000Y-74759879D02*
X139330000Y-75095121D01*
X131495000Y-105745121D02*
X131495000Y-105409879D01*
X132255000Y-105745121D02*
X132255000Y-105409879D01*
X143184879Y-97655000D02*
X143520121Y-97655000D01*
X143184879Y-96895000D02*
X143520121Y-96895000D01*
X147130121Y-96915000D02*
X146794879Y-96915000D01*
X147130121Y-97675000D02*
X146794879Y-97675000D01*
X132255000Y-108342621D02*
X132255000Y-108007379D01*
X131495000Y-108342621D02*
X131495000Y-108007379D01*
X161510000Y-80660000D02*
X161510000Y-82120000D01*
X158350000Y-80660000D02*
X158350000Y-82820000D01*
X158350000Y-80660000D02*
X159280000Y-80660000D01*
X161510000Y-80660000D02*
X160580000Y-80660000D01*
X158685000Y-88690000D02*
X158685000Y-87230000D01*
X161845000Y-88690000D02*
X161845000Y-86530000D01*
X161845000Y-88690000D02*
X160915000Y-88690000D01*
X158685000Y-88690000D02*
X159615000Y-88690000D01*
X161400000Y-73680000D02*
X161400000Y-75140000D01*
X158240000Y-73680000D02*
X158240000Y-75840000D01*
X158240000Y-73680000D02*
X159170000Y-73680000D01*
X161400000Y-73680000D02*
X160470000Y-73680000D01*
X158930000Y-95500000D02*
X158930000Y-94040000D01*
X162090000Y-95500000D02*
X162090000Y-93340000D01*
X162090000Y-95500000D02*
X161160000Y-95500000D01*
X158930000Y-95500000D02*
X159860000Y-95500000D01*
X154760000Y-75855000D02*
X153300000Y-75855000D01*
X154760000Y-72695000D02*
X152600000Y-72695000D01*
X154760000Y-72695000D02*
X154760000Y-73625000D01*
X154760000Y-75855000D02*
X154760000Y-74925000D01*
X155890000Y-98840000D02*
X154960000Y-98840000D01*
X152730000Y-98840000D02*
X153660000Y-98840000D01*
X152730000Y-98840000D02*
X152730000Y-101000000D01*
X155890000Y-98840000D02*
X155890000Y-100300000D01*
X149120000Y-100365000D02*
X150050000Y-100365000D01*
X152280000Y-100365000D02*
X151350000Y-100365000D01*
X152280000Y-100365000D02*
X152280000Y-98205000D01*
X149120000Y-100365000D02*
X149120000Y-98905000D01*
X148505000Y-75855000D02*
X147045000Y-75855000D01*
X148505000Y-72695000D02*
X146345000Y-72695000D01*
X148505000Y-72695000D02*
X148505000Y-73625000D01*
X148505000Y-75855000D02*
X148505000Y-74925000D01*
X156820000Y-100415000D02*
X157750000Y-100415000D01*
X159980000Y-100415000D02*
X159050000Y-100415000D01*
X159980000Y-100415000D02*
X159980000Y-98255000D01*
X156820000Y-100415000D02*
X156820000Y-98955000D01*
X142105000Y-75860000D02*
X140645000Y-75860000D01*
X142105000Y-72700000D02*
X139945000Y-72700000D01*
X142105000Y-72700000D02*
X142105000Y-73630000D01*
X142105000Y-75860000D02*
X142105000Y-74930000D01*
X141770000Y-100360000D02*
X141770000Y-98900000D01*
X144930000Y-100360000D02*
X144930000Y-98200000D01*
X144930000Y-100360000D02*
X144000000Y-100360000D01*
X141770000Y-100360000D02*
X142700000Y-100360000D01*
X145395000Y-100360000D02*
X145395000Y-98900000D01*
X148555000Y-100360000D02*
X148555000Y-98200000D01*
X148555000Y-100360000D02*
X147625000Y-100360000D01*
X145395000Y-100360000D02*
X146325000Y-100360000D01*
X145220000Y-109330000D02*
X145220000Y-103930000D01*
X140720000Y-109330000D02*
X145220000Y-109330000D01*
X142860000Y-114195000D02*
X142860000Y-112215000D01*
X142860000Y-112215000D02*
X142440000Y-112215000D01*
X142860000Y-116165000D02*
X142860000Y-116565000D01*
X135340000Y-116565000D02*
X135340000Y-116165000D01*
X135340000Y-114195000D02*
X135340000Y-112215000D01*
X135340000Y-112215000D02*
X135760000Y-112215000D01*
X137790000Y-111535000D02*
X137340000Y-111535000D01*
X137340000Y-111985000D02*
X137340000Y-111535000D01*
X162100000Y-79270000D02*
X158250000Y-79270000D01*
X162100000Y-77270000D02*
X158250000Y-77270000D01*
X162100000Y-79270000D02*
X162100000Y-77270000D01*
X161560000Y-72310000D02*
X157710000Y-72310000D01*
X161560000Y-70310000D02*
X157710000Y-70310000D01*
X161560000Y-72310000D02*
X161560000Y-70310000D01*
X151375000Y-70225000D02*
X155225000Y-70225000D01*
X151375000Y-72225000D02*
X155225000Y-72225000D01*
X151375000Y-70225000D02*
X151375000Y-72225000D01*
X145050000Y-70250000D02*
X148900000Y-70250000D01*
X145050000Y-72250000D02*
X148900000Y-72250000D01*
X145050000Y-70250000D02*
X145050000Y-72250000D01*
X138650000Y-70275000D02*
X142500000Y-70275000D01*
X138650000Y-72275000D02*
X142500000Y-72275000D01*
X138650000Y-70275000D02*
X138650000Y-72275000D01*
X158485000Y-112190000D02*
X156025000Y-112190000D01*
X158485000Y-113660000D02*
X158485000Y-112190000D01*
X156025000Y-113660000D02*
X158485000Y-113660000D01*
X147865000Y-104935000D02*
X150325000Y-104935000D01*
X147865000Y-103465000D02*
X147865000Y-104935000D01*
X150325000Y-103465000D02*
X147865000Y-103465000D01*
X143745000Y-113710000D02*
X143745000Y-116170000D01*
X145215000Y-113710000D02*
X143745000Y-113710000D01*
X145215000Y-116170000D02*
X145215000Y-113710000D01*
X156946267Y-114115000D02*
X156653733Y-114115000D01*
X156946267Y-115135000D02*
X156653733Y-115135000D01*
X153383767Y-103315000D02*
X153091233Y-103315000D01*
X153383767Y-104335000D02*
X153091233Y-104335000D01*
X141646665Y-103565000D02*
X141878335Y-103565000D01*
X141646665Y-102845000D02*
X141878335Y-102845000D01*
X141716665Y-110560000D02*
X141948335Y-110560000D01*
X141716665Y-109840000D02*
X141948335Y-109840000D01*
X139221267Y-97940000D02*
X138928733Y-97940000D01*
X139221267Y-98960000D02*
X138928733Y-98960000D01*
D12*
X131375000Y-112859285D02*
X131346428Y-112887857D01*
X131260714Y-112916428D01*
X131203571Y-112916428D01*
X131117857Y-112887857D01*
X131060714Y-112830714D01*
X131032142Y-112773571D01*
X131003571Y-112659285D01*
X131003571Y-112573571D01*
X131032142Y-112459285D01*
X131060714Y-112402142D01*
X131117857Y-112345000D01*
X131203571Y-112316428D01*
X131260714Y-112316428D01*
X131346428Y-112345000D01*
X131375000Y-112373571D01*
X131575000Y-112316428D02*
X131975000Y-112316428D01*
X131717857Y-112916428D01*
X131500000Y-100651785D02*
X131471428Y-100680357D01*
X131385714Y-100708928D01*
X131328571Y-100708928D01*
X131242857Y-100680357D01*
X131185714Y-100623214D01*
X131157142Y-100566071D01*
X131128571Y-100451785D01*
X131128571Y-100366071D01*
X131157142Y-100251785D01*
X131185714Y-100194642D01*
X131242857Y-100137500D01*
X131328571Y-100108928D01*
X131385714Y-100108928D01*
X131471428Y-100137500D01*
X131500000Y-100166071D01*
X132014285Y-100108928D02*
X131900000Y-100108928D01*
X131842857Y-100137500D01*
X131814285Y-100166071D01*
X131757142Y-100251785D01*
X131728571Y-100366071D01*
X131728571Y-100594642D01*
X131757142Y-100651785D01*
X131785714Y-100680357D01*
X131842857Y-100708928D01*
X131957142Y-100708928D01*
X132014285Y-100680357D01*
X132042857Y-100651785D01*
X132071428Y-100594642D01*
X132071428Y-100451785D01*
X132042857Y-100394642D01*
X132014285Y-100366071D01*
X131957142Y-100337500D01*
X131842857Y-100337500D01*
X131785714Y-100366071D01*
X131757142Y-100394642D01*
X131728571Y-100451785D01*
X131400000Y-111346428D02*
X131200000Y-111060714D01*
X131057142Y-111346428D02*
X131057142Y-110746428D01*
X131285714Y-110746428D01*
X131342857Y-110775000D01*
X131371428Y-110803571D01*
X131400000Y-110860714D01*
X131400000Y-110946428D01*
X131371428Y-111003571D01*
X131342857Y-111032142D01*
X131285714Y-111060714D01*
X131057142Y-111060714D01*
X131914285Y-110946428D02*
X131914285Y-111346428D01*
X131771428Y-110717857D02*
X131628571Y-111146428D01*
X132000000Y-111146428D01*
X147075000Y-102871428D02*
X146875000Y-102585714D01*
X146732142Y-102871428D02*
X146732142Y-102271428D01*
X146960714Y-102271428D01*
X147017857Y-102300000D01*
X147046428Y-102328571D01*
X147075000Y-102385714D01*
X147075000Y-102471428D01*
X147046428Y-102528571D01*
X147017857Y-102557142D01*
X146960714Y-102585714D01*
X146732142Y-102585714D01*
X147303571Y-102328571D02*
X147332142Y-102300000D01*
X147389285Y-102271428D01*
X147532142Y-102271428D01*
X147589285Y-102300000D01*
X147617857Y-102328571D01*
X147646428Y-102385714D01*
X147646428Y-102442857D01*
X147617857Y-102528571D01*
X147275000Y-102871428D01*
X147646428Y-102871428D01*
X144975000Y-64796428D02*
X144975000Y-65225000D01*
X144946428Y-65310714D01*
X144889285Y-65367857D01*
X144803571Y-65396428D01*
X144746428Y-65396428D01*
X145517857Y-64796428D02*
X145403571Y-64796428D01*
X145346428Y-64825000D01*
X145317857Y-64853571D01*
X145260714Y-64939285D01*
X145232142Y-65053571D01*
X145232142Y-65282142D01*
X145260714Y-65339285D01*
X145289285Y-65367857D01*
X145346428Y-65396428D01*
X145460714Y-65396428D01*
X145517857Y-65367857D01*
X145546428Y-65339285D01*
X145575000Y-65282142D01*
X145575000Y-65139285D01*
X145546428Y-65082142D01*
X145517857Y-65053571D01*
X145460714Y-65025000D01*
X145346428Y-65025000D01*
X145289285Y-65053571D01*
X145260714Y-65082142D01*
X145232142Y-65139285D01*
X147900000Y-57921428D02*
X147900000Y-58350000D01*
X147871428Y-58435714D01*
X147814285Y-58492857D01*
X147728571Y-58521428D01*
X147671428Y-58521428D01*
X148471428Y-57921428D02*
X148185714Y-57921428D01*
X148157142Y-58207142D01*
X148185714Y-58178571D01*
X148242857Y-58150000D01*
X148385714Y-58150000D01*
X148442857Y-58178571D01*
X148471428Y-58207142D01*
X148500000Y-58264285D01*
X148500000Y-58407142D01*
X148471428Y-58464285D01*
X148442857Y-58492857D01*
X148385714Y-58521428D01*
X148242857Y-58521428D01*
X148185714Y-58492857D01*
X148157142Y-58464285D01*
X148075000Y-64821428D02*
X148075000Y-65250000D01*
X148046428Y-65335714D01*
X147989285Y-65392857D01*
X147903571Y-65421428D01*
X147846428Y-65421428D01*
X148617857Y-65021428D02*
X148617857Y-65421428D01*
X148475000Y-64792857D02*
X148332142Y-65221428D01*
X148703571Y-65221428D01*
X144950000Y-57946428D02*
X144950000Y-58375000D01*
X144921428Y-58460714D01*
X144864285Y-58517857D01*
X144778571Y-58546428D01*
X144721428Y-58546428D01*
X145178571Y-57946428D02*
X145550000Y-57946428D01*
X145350000Y-58175000D01*
X145435714Y-58175000D01*
X145492857Y-58203571D01*
X145521428Y-58232142D01*
X145550000Y-58289285D01*
X145550000Y-58432142D01*
X145521428Y-58489285D01*
X145492857Y-58517857D01*
X145435714Y-58546428D01*
X145264285Y-58546428D01*
X145207142Y-58517857D01*
X145178571Y-58489285D01*
X130992857Y-76471428D02*
X130992857Y-76957142D01*
X131021428Y-77014285D01*
X131050000Y-77042857D01*
X131107142Y-77071428D01*
X131221428Y-77071428D01*
X131278571Y-77042857D01*
X131307142Y-77014285D01*
X131335714Y-76957142D01*
X131335714Y-76471428D01*
X131935714Y-77071428D02*
X131592857Y-77071428D01*
X131764285Y-77071428D02*
X131764285Y-76471428D01*
X131707142Y-76557142D01*
X131650000Y-76614285D01*
X131592857Y-76642857D01*
X133492857Y-100671428D02*
X133492857Y-101157142D01*
X133521428Y-101214285D01*
X133550000Y-101242857D01*
X133607142Y-101271428D01*
X133721428Y-101271428D01*
X133778571Y-101242857D01*
X133807142Y-101214285D01*
X133835714Y-101157142D01*
X133835714Y-100671428D01*
X134092857Y-100728571D02*
X134121428Y-100700000D01*
X134178571Y-100671428D01*
X134321428Y-100671428D01*
X134378571Y-100700000D01*
X134407142Y-100728571D01*
X134435714Y-100785714D01*
X134435714Y-100842857D01*
X134407142Y-100928571D01*
X134064285Y-101271428D01*
X134435714Y-101271428D01*
D11*
X132674285Y-110284523D02*
X132553333Y-110224047D01*
X132492857Y-110163571D01*
X132432380Y-110042619D01*
X132432380Y-109679761D01*
X132492857Y-109558809D01*
X132553333Y-109498333D01*
X132674285Y-109437857D01*
X132855714Y-109437857D01*
X132976666Y-109498333D01*
X133037142Y-109558809D01*
X133097619Y-109679761D01*
X133097619Y-110042619D01*
X133037142Y-110163571D01*
X132976666Y-110224047D01*
X132855714Y-110284523D01*
X132674285Y-110284523D01*
D12*
X144875000Y-102439285D02*
X144846428Y-102467857D01*
X144760714Y-102496428D01*
X144703571Y-102496428D01*
X144617857Y-102467857D01*
X144560714Y-102410714D01*
X144532142Y-102353571D01*
X144503571Y-102239285D01*
X144503571Y-102153571D01*
X144532142Y-102039285D01*
X144560714Y-101982142D01*
X144617857Y-101925000D01*
X144703571Y-101896428D01*
X144760714Y-101896428D01*
X144846428Y-101925000D01*
X144875000Y-101953571D01*
X145075000Y-101896428D02*
X145446428Y-101896428D01*
X145246428Y-102125000D01*
X145332142Y-102125000D01*
X145389285Y-102153571D01*
X145417857Y-102182142D01*
X145446428Y-102239285D01*
X145446428Y-102382142D01*
X145417857Y-102439285D01*
X145389285Y-102467857D01*
X145332142Y-102496428D01*
X145160714Y-102496428D01*
X145103571Y-102467857D01*
X145075000Y-102439285D01*
X140700000Y-97264285D02*
X140671428Y-97292857D01*
X140585714Y-97321428D01*
X140528571Y-97321428D01*
X140442857Y-97292857D01*
X140385714Y-97235714D01*
X140357142Y-97178571D01*
X140328571Y-97064285D01*
X140328571Y-96978571D01*
X140357142Y-96864285D01*
X140385714Y-96807142D01*
X140442857Y-96750000D01*
X140528571Y-96721428D01*
X140585714Y-96721428D01*
X140671428Y-96750000D01*
X140700000Y-96778571D01*
X140928571Y-96778571D02*
X140957142Y-96750000D01*
X141014285Y-96721428D01*
X141157142Y-96721428D01*
X141214285Y-96750000D01*
X141242857Y-96778571D01*
X141271428Y-96835714D01*
X141271428Y-96892857D01*
X141242857Y-96978571D01*
X140900000Y-97321428D01*
X141271428Y-97321428D01*
X160047500Y-113916428D02*
X159847500Y-113630714D01*
X159704642Y-113916428D02*
X159704642Y-113316428D01*
X159933214Y-113316428D01*
X159990357Y-113345000D01*
X160018928Y-113373571D01*
X160047500Y-113430714D01*
X160047500Y-113516428D01*
X160018928Y-113573571D01*
X159990357Y-113602142D01*
X159933214Y-113630714D01*
X159704642Y-113630714D01*
X160247500Y-113316428D02*
X160618928Y-113316428D01*
X160418928Y-113545000D01*
X160504642Y-113545000D01*
X160561785Y-113573571D01*
X160590357Y-113602142D01*
X160618928Y-113659285D01*
X160618928Y-113802142D01*
X160590357Y-113859285D01*
X160561785Y-113887857D01*
X160504642Y-113916428D01*
X160333214Y-113916428D01*
X160276071Y-113887857D01*
X160247500Y-113859285D01*
X144630000Y-111066428D02*
X144430000Y-110780714D01*
X144287142Y-111066428D02*
X144287142Y-110466428D01*
X144515714Y-110466428D01*
X144572857Y-110495000D01*
X144601428Y-110523571D01*
X144630000Y-110580714D01*
X144630000Y-110666428D01*
X144601428Y-110723571D01*
X144572857Y-110752142D01*
X144515714Y-110780714D01*
X144287142Y-110780714D01*
X145201428Y-111066428D02*
X144858571Y-111066428D01*
X145030000Y-111066428D02*
X145030000Y-110466428D01*
X144972857Y-110552142D01*
X144915714Y-110609285D01*
X144858571Y-110637857D01*
X145971428Y-109532142D02*
X145371428Y-109532142D01*
X145371428Y-109303571D01*
X145400000Y-109246428D01*
X145428571Y-109217857D01*
X145485714Y-109189285D01*
X145571428Y-109189285D01*
X145628571Y-109217857D01*
X145657142Y-109246428D01*
X145685714Y-109303571D01*
X145685714Y-109532142D01*
X145971428Y-108589285D02*
X145685714Y-108789285D01*
X145971428Y-108932142D02*
X145371428Y-108932142D01*
X145371428Y-108703571D01*
X145400000Y-108646428D01*
X145428571Y-108617857D01*
X145485714Y-108589285D01*
X145571428Y-108589285D01*
X145628571Y-108617857D01*
X145657142Y-108646428D01*
X145685714Y-108703571D01*
X145685714Y-108932142D01*
X145371428Y-108217857D02*
X145371428Y-108103571D01*
X145400000Y-108046428D01*
X145457142Y-107989285D01*
X145571428Y-107960714D01*
X145771428Y-107960714D01*
X145885714Y-107989285D01*
X145942857Y-108046428D01*
X145971428Y-108103571D01*
X145971428Y-108217857D01*
X145942857Y-108275000D01*
X145885714Y-108332142D01*
X145771428Y-108360714D01*
X145571428Y-108360714D01*
X145457142Y-108332142D01*
X145400000Y-108275000D01*
X145371428Y-108217857D01*
X145400000Y-107389285D02*
X145371428Y-107446428D01*
X145371428Y-107532142D01*
X145400000Y-107617857D01*
X145457142Y-107675000D01*
X145514285Y-107703571D01*
X145628571Y-107732142D01*
X145714285Y-107732142D01*
X145828571Y-107703571D01*
X145885714Y-107675000D01*
X145942857Y-107617857D01*
X145971428Y-107532142D01*
X145971428Y-107475000D01*
X145942857Y-107389285D01*
X145914285Y-107360714D01*
X145714285Y-107360714D01*
X145714285Y-107475000D01*
X145971428Y-106789285D02*
X145971428Y-107132142D01*
X145971428Y-106960714D02*
X145371428Y-106960714D01*
X145457142Y-107017857D01*
X145514285Y-107075000D01*
X145542857Y-107132142D01*
X146757142Y-115253571D02*
X146757142Y-115053571D01*
X147071428Y-114967857D02*
X147071428Y-115253571D01*
X146471428Y-115253571D01*
X146471428Y-114967857D01*
X147071428Y-114710714D02*
X146471428Y-114710714D01*
X147071428Y-114367857D01*
X146471428Y-114367857D01*
X147071428Y-113767857D02*
X147071428Y-114110714D01*
X147071428Y-113939285D02*
X146471428Y-113939285D01*
X146557142Y-113996428D01*
X146614285Y-114053571D01*
X146642857Y-114110714D01*
X160967857Y-109721428D02*
X160967857Y-110207142D01*
X160996428Y-110264285D01*
X161025000Y-110292857D01*
X161082142Y-110321428D01*
X161196428Y-110321428D01*
X161253571Y-110292857D01*
X161282142Y-110264285D01*
X161310714Y-110207142D01*
X161310714Y-109721428D01*
X161539285Y-109721428D02*
X161910714Y-109721428D01*
X161710714Y-109950000D01*
X161796428Y-109950000D01*
X161853571Y-109978571D01*
X161882142Y-110007142D01*
X161910714Y-110064285D01*
X161910714Y-110207142D01*
X161882142Y-110264285D01*
X161853571Y-110292857D01*
X161796428Y-110321428D01*
X161625000Y-110321428D01*
X161567857Y-110292857D01*
X161539285Y-110264285D01*
X157839285Y-90546428D02*
X157639285Y-90260714D01*
X157496428Y-90546428D02*
X157496428Y-89946428D01*
X157725000Y-89946428D01*
X157782142Y-89975000D01*
X157810714Y-90003571D01*
X157839285Y-90060714D01*
X157839285Y-90146428D01*
X157810714Y-90203571D01*
X157782142Y-90232142D01*
X157725000Y-90260714D01*
X157496428Y-90260714D01*
X158067857Y-90003571D02*
X158096428Y-89975000D01*
X158153571Y-89946428D01*
X158296428Y-89946428D01*
X158353571Y-89975000D01*
X158382142Y-90003571D01*
X158410714Y-90060714D01*
X158410714Y-90117857D01*
X158382142Y-90203571D01*
X158039285Y-90546428D01*
X158410714Y-90546428D01*
X158925000Y-90146428D02*
X158925000Y-90546428D01*
X158782142Y-89917857D02*
X158639285Y-90346428D01*
X159010714Y-90346428D01*
X161084285Y-84081428D02*
X160884285Y-83795714D01*
X160741428Y-84081428D02*
X160741428Y-83481428D01*
X160970000Y-83481428D01*
X161027142Y-83510000D01*
X161055714Y-83538571D01*
X161084285Y-83595714D01*
X161084285Y-83681428D01*
X161055714Y-83738571D01*
X161027142Y-83767142D01*
X160970000Y-83795714D01*
X160741428Y-83795714D01*
X161312857Y-83538571D02*
X161341428Y-83510000D01*
X161398571Y-83481428D01*
X161541428Y-83481428D01*
X161598571Y-83510000D01*
X161627142Y-83538571D01*
X161655714Y-83595714D01*
X161655714Y-83652857D01*
X161627142Y-83738571D01*
X161284285Y-84081428D01*
X161655714Y-84081428D01*
X161855714Y-83481428D02*
X162227142Y-83481428D01*
X162027142Y-83710000D01*
X162112857Y-83710000D01*
X162170000Y-83738571D01*
X162198571Y-83767142D01*
X162227142Y-83824285D01*
X162227142Y-83967142D01*
X162198571Y-84024285D01*
X162170000Y-84052857D01*
X162112857Y-84081428D01*
X161941428Y-84081428D01*
X161884285Y-84052857D01*
X161855714Y-84024285D01*
X157789285Y-85871428D02*
X157589285Y-85585714D01*
X157446428Y-85871428D02*
X157446428Y-85271428D01*
X157675000Y-85271428D01*
X157732142Y-85300000D01*
X157760714Y-85328571D01*
X157789285Y-85385714D01*
X157789285Y-85471428D01*
X157760714Y-85528571D01*
X157732142Y-85557142D01*
X157675000Y-85585714D01*
X157446428Y-85585714D01*
X158017857Y-85328571D02*
X158046428Y-85300000D01*
X158103571Y-85271428D01*
X158246428Y-85271428D01*
X158303571Y-85300000D01*
X158332142Y-85328571D01*
X158360714Y-85385714D01*
X158360714Y-85442857D01*
X158332142Y-85528571D01*
X157989285Y-85871428D01*
X158360714Y-85871428D01*
X158589285Y-85328571D02*
X158617857Y-85300000D01*
X158675000Y-85271428D01*
X158817857Y-85271428D01*
X158875000Y-85300000D01*
X158903571Y-85328571D01*
X158932142Y-85385714D01*
X158932142Y-85442857D01*
X158903571Y-85528571D01*
X158560714Y-85871428D01*
X158932142Y-85871428D01*
X161064285Y-98371428D02*
X160864285Y-98085714D01*
X160721428Y-98371428D02*
X160721428Y-97771428D01*
X160950000Y-97771428D01*
X161007142Y-97800000D01*
X161035714Y-97828571D01*
X161064285Y-97885714D01*
X161064285Y-97971428D01*
X161035714Y-98028571D01*
X161007142Y-98057142D01*
X160950000Y-98085714D01*
X160721428Y-98085714D01*
X161292857Y-97828571D02*
X161321428Y-97800000D01*
X161378571Y-97771428D01*
X161521428Y-97771428D01*
X161578571Y-97800000D01*
X161607142Y-97828571D01*
X161635714Y-97885714D01*
X161635714Y-97942857D01*
X161607142Y-98028571D01*
X161264285Y-98371428D01*
X161635714Y-98371428D01*
X162207142Y-98371428D02*
X161864285Y-98371428D01*
X162035714Y-98371428D02*
X162035714Y-97771428D01*
X161978571Y-97857142D01*
X161921428Y-97914285D01*
X161864285Y-97942857D01*
X156789285Y-76896428D02*
X156589285Y-76610714D01*
X156446428Y-76896428D02*
X156446428Y-76296428D01*
X156675000Y-76296428D01*
X156732142Y-76325000D01*
X156760714Y-76353571D01*
X156789285Y-76410714D01*
X156789285Y-76496428D01*
X156760714Y-76553571D01*
X156732142Y-76582142D01*
X156675000Y-76610714D01*
X156446428Y-76610714D01*
X157017857Y-76353571D02*
X157046428Y-76325000D01*
X157103571Y-76296428D01*
X157246428Y-76296428D01*
X157303571Y-76325000D01*
X157332142Y-76353571D01*
X157360714Y-76410714D01*
X157360714Y-76467857D01*
X157332142Y-76553571D01*
X156989285Y-76896428D01*
X157360714Y-76896428D01*
X157732142Y-76296428D02*
X157789285Y-76296428D01*
X157846428Y-76325000D01*
X157875000Y-76353571D01*
X157903571Y-76410714D01*
X157932142Y-76525000D01*
X157932142Y-76667857D01*
X157903571Y-76782142D01*
X157875000Y-76839285D01*
X157846428Y-76867857D01*
X157789285Y-76896428D01*
X157732142Y-76896428D01*
X157675000Y-76867857D01*
X157646428Y-76839285D01*
X157617857Y-76782142D01*
X157589285Y-76667857D01*
X157589285Y-76525000D01*
X157617857Y-76410714D01*
X157646428Y-76353571D01*
X157675000Y-76325000D01*
X157732142Y-76296428D01*
X160489285Y-91771428D02*
X160289285Y-91485714D01*
X160146428Y-91771428D02*
X160146428Y-91171428D01*
X160375000Y-91171428D01*
X160432142Y-91200000D01*
X160460714Y-91228571D01*
X160489285Y-91285714D01*
X160489285Y-91371428D01*
X160460714Y-91428571D01*
X160432142Y-91457142D01*
X160375000Y-91485714D01*
X160146428Y-91485714D01*
X161060714Y-91771428D02*
X160717857Y-91771428D01*
X160889285Y-91771428D02*
X160889285Y-91171428D01*
X160832142Y-91257142D01*
X160775000Y-91314285D01*
X160717857Y-91342857D01*
X161346428Y-91771428D02*
X161460714Y-91771428D01*
X161517857Y-91742857D01*
X161546428Y-91714285D01*
X161603571Y-91628571D01*
X161632142Y-91514285D01*
X161632142Y-91285714D01*
X161603571Y-91228571D01*
X161575000Y-91200000D01*
X161517857Y-91171428D01*
X161403571Y-91171428D01*
X161346428Y-91200000D01*
X161317857Y-91228571D01*
X161289285Y-91285714D01*
X161289285Y-91428571D01*
X161317857Y-91485714D01*
X161346428Y-91514285D01*
X161403571Y-91542857D01*
X161517857Y-91542857D01*
X161575000Y-91514285D01*
X161603571Y-91485714D01*
X161632142Y-91428571D01*
X156039285Y-97496428D02*
X155839285Y-97210714D01*
X155696428Y-97496428D02*
X155696428Y-96896428D01*
X155925000Y-96896428D01*
X155982142Y-96925000D01*
X156010714Y-96953571D01*
X156039285Y-97010714D01*
X156039285Y-97096428D01*
X156010714Y-97153571D01*
X155982142Y-97182142D01*
X155925000Y-97210714D01*
X155696428Y-97210714D01*
X156610714Y-97496428D02*
X156267857Y-97496428D01*
X156439285Y-97496428D02*
X156439285Y-96896428D01*
X156382142Y-96982142D01*
X156325000Y-97039285D01*
X156267857Y-97067857D01*
X156953571Y-97153571D02*
X156896428Y-97125000D01*
X156867857Y-97096428D01*
X156839285Y-97039285D01*
X156839285Y-97010714D01*
X156867857Y-96953571D01*
X156896428Y-96925000D01*
X156953571Y-96896428D01*
X157067857Y-96896428D01*
X157125000Y-96925000D01*
X157153571Y-96953571D01*
X157182142Y-97010714D01*
X157182142Y-97039285D01*
X157153571Y-97096428D01*
X157125000Y-97125000D01*
X157067857Y-97153571D01*
X156953571Y-97153571D01*
X156896428Y-97182142D01*
X156867857Y-97210714D01*
X156839285Y-97267857D01*
X156839285Y-97382142D01*
X156867857Y-97439285D01*
X156896428Y-97467857D01*
X156953571Y-97496428D01*
X157067857Y-97496428D01*
X157125000Y-97467857D01*
X157153571Y-97439285D01*
X157182142Y-97382142D01*
X157182142Y-97267857D01*
X157153571Y-97210714D01*
X157125000Y-97182142D01*
X157067857Y-97153571D01*
X150974285Y-73578928D02*
X150774285Y-73293214D01*
X150631428Y-73578928D02*
X150631428Y-72978928D01*
X150860000Y-72978928D01*
X150917142Y-73007500D01*
X150945714Y-73036071D01*
X150974285Y-73093214D01*
X150974285Y-73178928D01*
X150945714Y-73236071D01*
X150917142Y-73264642D01*
X150860000Y-73293214D01*
X150631428Y-73293214D01*
X151545714Y-73578928D02*
X151202857Y-73578928D01*
X151374285Y-73578928D02*
X151374285Y-72978928D01*
X151317142Y-73064642D01*
X151260000Y-73121785D01*
X151202857Y-73150357D01*
X151745714Y-72978928D02*
X152145714Y-72978928D01*
X151888571Y-73578928D01*
X149239285Y-102146428D02*
X149039285Y-101860714D01*
X148896428Y-102146428D02*
X148896428Y-101546428D01*
X149125000Y-101546428D01*
X149182142Y-101575000D01*
X149210714Y-101603571D01*
X149239285Y-101660714D01*
X149239285Y-101746428D01*
X149210714Y-101803571D01*
X149182142Y-101832142D01*
X149125000Y-101860714D01*
X148896428Y-101860714D01*
X149810714Y-102146428D02*
X149467857Y-102146428D01*
X149639285Y-102146428D02*
X149639285Y-101546428D01*
X149582142Y-101632142D01*
X149525000Y-101689285D01*
X149467857Y-101717857D01*
X150325000Y-101546428D02*
X150210714Y-101546428D01*
X150153571Y-101575000D01*
X150125000Y-101603571D01*
X150067857Y-101689285D01*
X150039285Y-101803571D01*
X150039285Y-102032142D01*
X150067857Y-102089285D01*
X150096428Y-102117857D01*
X150153571Y-102146428D01*
X150267857Y-102146428D01*
X150325000Y-102117857D01*
X150353571Y-102089285D01*
X150382142Y-102032142D01*
X150382142Y-101889285D01*
X150353571Y-101832142D01*
X150325000Y-101803571D01*
X150267857Y-101775000D01*
X150153571Y-101775000D01*
X150096428Y-101803571D01*
X150067857Y-101832142D01*
X150039285Y-101889285D01*
X155864285Y-102146428D02*
X155664285Y-101860714D01*
X155521428Y-102146428D02*
X155521428Y-101546428D01*
X155750000Y-101546428D01*
X155807142Y-101575000D01*
X155835714Y-101603571D01*
X155864285Y-101660714D01*
X155864285Y-101746428D01*
X155835714Y-101803571D01*
X155807142Y-101832142D01*
X155750000Y-101860714D01*
X155521428Y-101860714D01*
X156435714Y-102146428D02*
X156092857Y-102146428D01*
X156264285Y-102146428D02*
X156264285Y-101546428D01*
X156207142Y-101632142D01*
X156150000Y-101689285D01*
X156092857Y-101717857D01*
X156978571Y-101546428D02*
X156692857Y-101546428D01*
X156664285Y-101832142D01*
X156692857Y-101803571D01*
X156750000Y-101775000D01*
X156892857Y-101775000D01*
X156950000Y-101803571D01*
X156978571Y-101832142D01*
X157007142Y-101889285D01*
X157007142Y-102032142D01*
X156978571Y-102089285D01*
X156950000Y-102117857D01*
X156892857Y-102146428D01*
X156750000Y-102146428D01*
X156692857Y-102117857D01*
X156664285Y-102089285D01*
X152064285Y-97421428D02*
X151864285Y-97135714D01*
X151721428Y-97421428D02*
X151721428Y-96821428D01*
X151950000Y-96821428D01*
X152007142Y-96850000D01*
X152035714Y-96878571D01*
X152064285Y-96935714D01*
X152064285Y-97021428D01*
X152035714Y-97078571D01*
X152007142Y-97107142D01*
X151950000Y-97135714D01*
X151721428Y-97135714D01*
X152635714Y-97421428D02*
X152292857Y-97421428D01*
X152464285Y-97421428D02*
X152464285Y-96821428D01*
X152407142Y-96907142D01*
X152350000Y-96964285D01*
X152292857Y-96992857D01*
X153150000Y-97021428D02*
X153150000Y-97421428D01*
X153007142Y-96792857D02*
X152864285Y-97221428D01*
X153235714Y-97221428D01*
X144614285Y-73596428D02*
X144414285Y-73310714D01*
X144271428Y-73596428D02*
X144271428Y-72996428D01*
X144500000Y-72996428D01*
X144557142Y-73025000D01*
X144585714Y-73053571D01*
X144614285Y-73110714D01*
X144614285Y-73196428D01*
X144585714Y-73253571D01*
X144557142Y-73282142D01*
X144500000Y-73310714D01*
X144271428Y-73310714D01*
X145185714Y-73596428D02*
X144842857Y-73596428D01*
X145014285Y-73596428D02*
X145014285Y-72996428D01*
X144957142Y-73082142D01*
X144900000Y-73139285D01*
X144842857Y-73167857D01*
X145385714Y-72996428D02*
X145757142Y-72996428D01*
X145557142Y-73225000D01*
X145642857Y-73225000D01*
X145700000Y-73253571D01*
X145728571Y-73282142D01*
X145757142Y-73339285D01*
X145757142Y-73482142D01*
X145728571Y-73539285D01*
X145700000Y-73567857D01*
X145642857Y-73596428D01*
X145471428Y-73596428D01*
X145414285Y-73567857D01*
X145385714Y-73539285D01*
X160089285Y-102141428D02*
X159889285Y-101855714D01*
X159746428Y-102141428D02*
X159746428Y-101541428D01*
X159975000Y-101541428D01*
X160032142Y-101570000D01*
X160060714Y-101598571D01*
X160089285Y-101655714D01*
X160089285Y-101741428D01*
X160060714Y-101798571D01*
X160032142Y-101827142D01*
X159975000Y-101855714D01*
X159746428Y-101855714D01*
X160660714Y-102141428D02*
X160317857Y-102141428D01*
X160489285Y-102141428D02*
X160489285Y-101541428D01*
X160432142Y-101627142D01*
X160375000Y-101684285D01*
X160317857Y-101712857D01*
X160889285Y-101598571D02*
X160917857Y-101570000D01*
X160975000Y-101541428D01*
X161117857Y-101541428D01*
X161175000Y-101570000D01*
X161203571Y-101598571D01*
X161232142Y-101655714D01*
X161232142Y-101712857D01*
X161203571Y-101798571D01*
X160860714Y-102141428D01*
X161232142Y-102141428D01*
X157939285Y-96621428D02*
X157739285Y-96335714D01*
X157596428Y-96621428D02*
X157596428Y-96021428D01*
X157825000Y-96021428D01*
X157882142Y-96050000D01*
X157910714Y-96078571D01*
X157939285Y-96135714D01*
X157939285Y-96221428D01*
X157910714Y-96278571D01*
X157882142Y-96307142D01*
X157825000Y-96335714D01*
X157596428Y-96335714D01*
X158510714Y-96621428D02*
X158167857Y-96621428D01*
X158339285Y-96621428D02*
X158339285Y-96021428D01*
X158282142Y-96107142D01*
X158225000Y-96164285D01*
X158167857Y-96192857D01*
X159082142Y-96621428D02*
X158739285Y-96621428D01*
X158910714Y-96621428D02*
X158910714Y-96021428D01*
X158853571Y-96107142D01*
X158796428Y-96164285D01*
X158739285Y-96192857D01*
X138364285Y-73571428D02*
X138164285Y-73285714D01*
X138021428Y-73571428D02*
X138021428Y-72971428D01*
X138250000Y-72971428D01*
X138307142Y-73000000D01*
X138335714Y-73028571D01*
X138364285Y-73085714D01*
X138364285Y-73171428D01*
X138335714Y-73228571D01*
X138307142Y-73257142D01*
X138250000Y-73285714D01*
X138021428Y-73285714D01*
X138935714Y-73571428D02*
X138592857Y-73571428D01*
X138764285Y-73571428D02*
X138764285Y-72971428D01*
X138707142Y-73057142D01*
X138650000Y-73114285D01*
X138592857Y-73142857D01*
X139307142Y-72971428D02*
X139364285Y-72971428D01*
X139421428Y-73000000D01*
X139450000Y-73028571D01*
X139478571Y-73085714D01*
X139507142Y-73200000D01*
X139507142Y-73342857D01*
X139478571Y-73457142D01*
X139450000Y-73514285D01*
X139421428Y-73542857D01*
X139364285Y-73571428D01*
X139307142Y-73571428D01*
X139250000Y-73542857D01*
X139221428Y-73514285D01*
X139192857Y-73457142D01*
X139164285Y-73342857D01*
X139164285Y-73200000D01*
X139192857Y-73085714D01*
X139221428Y-73028571D01*
X139250000Y-73000000D01*
X139307142Y-72971428D01*
X131775000Y-104276428D02*
X131575000Y-103990714D01*
X131432142Y-104276428D02*
X131432142Y-103676428D01*
X131660714Y-103676428D01*
X131717857Y-103705000D01*
X131746428Y-103733571D01*
X131775000Y-103790714D01*
X131775000Y-103876428D01*
X131746428Y-103933571D01*
X131717857Y-103962142D01*
X131660714Y-103990714D01*
X131432142Y-103990714D01*
X132117857Y-103933571D02*
X132060714Y-103905000D01*
X132032142Y-103876428D01*
X132003571Y-103819285D01*
X132003571Y-103790714D01*
X132032142Y-103733571D01*
X132060714Y-103705000D01*
X132117857Y-103676428D01*
X132232142Y-103676428D01*
X132289285Y-103705000D01*
X132317857Y-103733571D01*
X132346428Y-103790714D01*
X132346428Y-103819285D01*
X132317857Y-103876428D01*
X132289285Y-103905000D01*
X132232142Y-103933571D01*
X132117857Y-103933571D01*
X132060714Y-103962142D01*
X132032142Y-103990714D01*
X132003571Y-104047857D01*
X132003571Y-104162142D01*
X132032142Y-104219285D01*
X132060714Y-104247857D01*
X132117857Y-104276428D01*
X132232142Y-104276428D01*
X132289285Y-104247857D01*
X132317857Y-104219285D01*
X132346428Y-104162142D01*
X132346428Y-104047857D01*
X132317857Y-103990714D01*
X132289285Y-103962142D01*
X132232142Y-103933571D01*
X144950000Y-97421428D02*
X144750000Y-97135714D01*
X144607142Y-97421428D02*
X144607142Y-96821428D01*
X144835714Y-96821428D01*
X144892857Y-96850000D01*
X144921428Y-96878571D01*
X144950000Y-96935714D01*
X144950000Y-97021428D01*
X144921428Y-97078571D01*
X144892857Y-97107142D01*
X144835714Y-97135714D01*
X144607142Y-97135714D01*
X145150000Y-96821428D02*
X145550000Y-96821428D01*
X145292857Y-97421428D01*
X148525000Y-97446428D02*
X148325000Y-97160714D01*
X148182142Y-97446428D02*
X148182142Y-96846428D01*
X148410714Y-96846428D01*
X148467857Y-96875000D01*
X148496428Y-96903571D01*
X148525000Y-96960714D01*
X148525000Y-97046428D01*
X148496428Y-97103571D01*
X148467857Y-97132142D01*
X148410714Y-97160714D01*
X148182142Y-97160714D01*
X149039285Y-96846428D02*
X148925000Y-96846428D01*
X148867857Y-96875000D01*
X148839285Y-96903571D01*
X148782142Y-96989285D01*
X148753571Y-97103571D01*
X148753571Y-97332142D01*
X148782142Y-97389285D01*
X148810714Y-97417857D01*
X148867857Y-97446428D01*
X148982142Y-97446428D01*
X149039285Y-97417857D01*
X149067857Y-97389285D01*
X149096428Y-97332142D01*
X149096428Y-97189285D01*
X149067857Y-97132142D01*
X149039285Y-97103571D01*
X148982142Y-97075000D01*
X148867857Y-97075000D01*
X148810714Y-97103571D01*
X148782142Y-97132142D01*
X148753571Y-97189285D01*
X131500000Y-110071428D02*
X131300000Y-109785714D01*
X131157142Y-110071428D02*
X131157142Y-109471428D01*
X131385714Y-109471428D01*
X131442857Y-109500000D01*
X131471428Y-109528571D01*
X131500000Y-109585714D01*
X131500000Y-109671428D01*
X131471428Y-109728571D01*
X131442857Y-109757142D01*
X131385714Y-109785714D01*
X131157142Y-109785714D01*
X132042857Y-109471428D02*
X131757142Y-109471428D01*
X131728571Y-109757142D01*
X131757142Y-109728571D01*
X131814285Y-109700000D01*
X131957142Y-109700000D01*
X132014285Y-109728571D01*
X132042857Y-109757142D01*
X132071428Y-109814285D01*
X132071428Y-109957142D01*
X132042857Y-110014285D01*
X132014285Y-110042857D01*
X131957142Y-110071428D01*
X131814285Y-110071428D01*
X131757142Y-110042857D01*
X131728571Y-110014285D01*
X161132142Y-80503571D02*
X161075000Y-80475000D01*
X161017857Y-80417857D01*
X160932142Y-80332142D01*
X160875000Y-80303571D01*
X160817857Y-80303571D01*
X160846428Y-80446428D02*
X160789285Y-80417857D01*
X160732142Y-80360714D01*
X160703571Y-80246428D01*
X160703571Y-80046428D01*
X160732142Y-79932142D01*
X160789285Y-79875000D01*
X160846428Y-79846428D01*
X160960714Y-79846428D01*
X161017857Y-79875000D01*
X161075000Y-79932142D01*
X161103571Y-80046428D01*
X161103571Y-80246428D01*
X161075000Y-80360714D01*
X161017857Y-80417857D01*
X160960714Y-80446428D01*
X160846428Y-80446428D01*
X161675000Y-80446428D02*
X161332142Y-80446428D01*
X161503571Y-80446428D02*
X161503571Y-79846428D01*
X161446428Y-79932142D01*
X161389285Y-79989285D01*
X161332142Y-80017857D01*
X161875000Y-79846428D02*
X162246428Y-79846428D01*
X162046428Y-80075000D01*
X162132142Y-80075000D01*
X162189285Y-80103571D01*
X162217857Y-80132142D01*
X162246428Y-80189285D01*
X162246428Y-80332142D01*
X162217857Y-80389285D01*
X162189285Y-80417857D01*
X162132142Y-80446428D01*
X161960714Y-80446428D01*
X161903571Y-80417857D01*
X161875000Y-80389285D01*
X158267142Y-89588571D02*
X158210000Y-89560000D01*
X158152857Y-89502857D01*
X158067142Y-89417142D01*
X158010000Y-89388571D01*
X157952857Y-89388571D01*
X157981428Y-89531428D02*
X157924285Y-89502857D01*
X157867142Y-89445714D01*
X157838571Y-89331428D01*
X157838571Y-89131428D01*
X157867142Y-89017142D01*
X157924285Y-88960000D01*
X157981428Y-88931428D01*
X158095714Y-88931428D01*
X158152857Y-88960000D01*
X158210000Y-89017142D01*
X158238571Y-89131428D01*
X158238571Y-89331428D01*
X158210000Y-89445714D01*
X158152857Y-89502857D01*
X158095714Y-89531428D01*
X157981428Y-89531428D01*
X158810000Y-89531428D02*
X158467142Y-89531428D01*
X158638571Y-89531428D02*
X158638571Y-88931428D01*
X158581428Y-89017142D01*
X158524285Y-89074285D01*
X158467142Y-89102857D01*
X159038571Y-88988571D02*
X159067142Y-88960000D01*
X159124285Y-88931428D01*
X159267142Y-88931428D01*
X159324285Y-88960000D01*
X159352857Y-88988571D01*
X159381428Y-89045714D01*
X159381428Y-89102857D01*
X159352857Y-89188571D01*
X159010000Y-89531428D01*
X159381428Y-89531428D01*
X160932142Y-73478571D02*
X160875000Y-73450000D01*
X160817857Y-73392857D01*
X160732142Y-73307142D01*
X160675000Y-73278571D01*
X160617857Y-73278571D01*
X160646428Y-73421428D02*
X160589285Y-73392857D01*
X160532142Y-73335714D01*
X160503571Y-73221428D01*
X160503571Y-73021428D01*
X160532142Y-72907142D01*
X160589285Y-72850000D01*
X160646428Y-72821428D01*
X160760714Y-72821428D01*
X160817857Y-72850000D01*
X160875000Y-72907142D01*
X160903571Y-73021428D01*
X160903571Y-73221428D01*
X160875000Y-73335714D01*
X160817857Y-73392857D01*
X160760714Y-73421428D01*
X160646428Y-73421428D01*
X161475000Y-73421428D02*
X161132142Y-73421428D01*
X161303571Y-73421428D02*
X161303571Y-72821428D01*
X161246428Y-72907142D01*
X161189285Y-72964285D01*
X161132142Y-72992857D01*
X162046428Y-73421428D02*
X161703571Y-73421428D01*
X161875000Y-73421428D02*
X161875000Y-72821428D01*
X161817857Y-72907142D01*
X161760714Y-72964285D01*
X161703571Y-72992857D01*
X157732142Y-93778571D02*
X157675000Y-93750000D01*
X157617857Y-93692857D01*
X157532142Y-93607142D01*
X157475000Y-93578571D01*
X157417857Y-93578571D01*
X157446428Y-93721428D02*
X157389285Y-93692857D01*
X157332142Y-93635714D01*
X157303571Y-93521428D01*
X157303571Y-93321428D01*
X157332142Y-93207142D01*
X157389285Y-93150000D01*
X157446428Y-93121428D01*
X157560714Y-93121428D01*
X157617857Y-93150000D01*
X157675000Y-93207142D01*
X157703571Y-93321428D01*
X157703571Y-93521428D01*
X157675000Y-93635714D01*
X157617857Y-93692857D01*
X157560714Y-93721428D01*
X157446428Y-93721428D01*
X158275000Y-93721428D02*
X157932142Y-93721428D01*
X158103571Y-93721428D02*
X158103571Y-93121428D01*
X158046428Y-93207142D01*
X157989285Y-93264285D01*
X157932142Y-93292857D01*
X158646428Y-93121428D02*
X158703571Y-93121428D01*
X158760714Y-93150000D01*
X158789285Y-93178571D01*
X158817857Y-93235714D01*
X158846428Y-93350000D01*
X158846428Y-93492857D01*
X158817857Y-93607142D01*
X158789285Y-93664285D01*
X158760714Y-93692857D01*
X158703571Y-93721428D01*
X158646428Y-93721428D01*
X158589285Y-93692857D01*
X158560714Y-93664285D01*
X158532142Y-93607142D01*
X158503571Y-93492857D01*
X158503571Y-93350000D01*
X158532142Y-93235714D01*
X158560714Y-93178571D01*
X158589285Y-93150000D01*
X158646428Y-93121428D01*
X152752857Y-76803571D02*
X152695714Y-76775000D01*
X152638571Y-76717857D01*
X152552857Y-76632142D01*
X152495714Y-76603571D01*
X152438571Y-76603571D01*
X152467142Y-76746428D02*
X152410000Y-76717857D01*
X152352857Y-76660714D01*
X152324285Y-76546428D01*
X152324285Y-76346428D01*
X152352857Y-76232142D01*
X152410000Y-76175000D01*
X152467142Y-76146428D01*
X152581428Y-76146428D01*
X152638571Y-76175000D01*
X152695714Y-76232142D01*
X152724285Y-76346428D01*
X152724285Y-76546428D01*
X152695714Y-76660714D01*
X152638571Y-76717857D01*
X152581428Y-76746428D01*
X152467142Y-76746428D01*
X153010000Y-76746428D02*
X153124285Y-76746428D01*
X153181428Y-76717857D01*
X153210000Y-76689285D01*
X153267142Y-76603571D01*
X153295714Y-76489285D01*
X153295714Y-76260714D01*
X153267142Y-76203571D01*
X153238571Y-76175000D01*
X153181428Y-76146428D01*
X153067142Y-76146428D01*
X153010000Y-76175000D01*
X152981428Y-76203571D01*
X152952857Y-76260714D01*
X152952857Y-76403571D01*
X152981428Y-76460714D01*
X153010000Y-76489285D01*
X153067142Y-76517857D01*
X153181428Y-76517857D01*
X153238571Y-76489285D01*
X153267142Y-76460714D01*
X153295714Y-76403571D01*
X156392857Y-101228571D02*
X156335714Y-101200000D01*
X156278571Y-101142857D01*
X156192857Y-101057142D01*
X156135714Y-101028571D01*
X156078571Y-101028571D01*
X156107142Y-101171428D02*
X156050000Y-101142857D01*
X155992857Y-101085714D01*
X155964285Y-100971428D01*
X155964285Y-100771428D01*
X155992857Y-100657142D01*
X156050000Y-100600000D01*
X156107142Y-100571428D01*
X156221428Y-100571428D01*
X156278571Y-100600000D01*
X156335714Y-100657142D01*
X156364285Y-100771428D01*
X156364285Y-100971428D01*
X156335714Y-101085714D01*
X156278571Y-101142857D01*
X156221428Y-101171428D01*
X156107142Y-101171428D01*
X156707142Y-100828571D02*
X156650000Y-100800000D01*
X156621428Y-100771428D01*
X156592857Y-100714285D01*
X156592857Y-100685714D01*
X156621428Y-100628571D01*
X156650000Y-100600000D01*
X156707142Y-100571428D01*
X156821428Y-100571428D01*
X156878571Y-100600000D01*
X156907142Y-100628571D01*
X156935714Y-100685714D01*
X156935714Y-100714285D01*
X156907142Y-100771428D01*
X156878571Y-100800000D01*
X156821428Y-100828571D01*
X156707142Y-100828571D01*
X156650000Y-100857142D01*
X156621428Y-100885714D01*
X156592857Y-100942857D01*
X156592857Y-101057142D01*
X156621428Y-101114285D01*
X156650000Y-101142857D01*
X156707142Y-101171428D01*
X156821428Y-101171428D01*
X156878571Y-101142857D01*
X156907142Y-101114285D01*
X156935714Y-101057142D01*
X156935714Y-100942857D01*
X156907142Y-100885714D01*
X156878571Y-100857142D01*
X156821428Y-100828571D01*
X151867857Y-101203571D02*
X151810714Y-101175000D01*
X151753571Y-101117857D01*
X151667857Y-101032142D01*
X151610714Y-101003571D01*
X151553571Y-101003571D01*
X151582142Y-101146428D02*
X151525000Y-101117857D01*
X151467857Y-101060714D01*
X151439285Y-100946428D01*
X151439285Y-100746428D01*
X151467857Y-100632142D01*
X151525000Y-100575000D01*
X151582142Y-100546428D01*
X151696428Y-100546428D01*
X151753571Y-100575000D01*
X151810714Y-100632142D01*
X151839285Y-100746428D01*
X151839285Y-100946428D01*
X151810714Y-101060714D01*
X151753571Y-101117857D01*
X151696428Y-101146428D01*
X151582142Y-101146428D01*
X152039285Y-100546428D02*
X152439285Y-100546428D01*
X152182142Y-101146428D01*
X149117857Y-75728571D02*
X149060714Y-75700000D01*
X149003571Y-75642857D01*
X148917857Y-75557142D01*
X148860714Y-75528571D01*
X148803571Y-75528571D01*
X148832142Y-75671428D02*
X148775000Y-75642857D01*
X148717857Y-75585714D01*
X148689285Y-75471428D01*
X148689285Y-75271428D01*
X148717857Y-75157142D01*
X148775000Y-75100000D01*
X148832142Y-75071428D01*
X148946428Y-75071428D01*
X149003571Y-75100000D01*
X149060714Y-75157142D01*
X149089285Y-75271428D01*
X149089285Y-75471428D01*
X149060714Y-75585714D01*
X149003571Y-75642857D01*
X148946428Y-75671428D01*
X148832142Y-75671428D01*
X149603571Y-75071428D02*
X149489285Y-75071428D01*
X149432142Y-75100000D01*
X149403571Y-75128571D01*
X149346428Y-75214285D01*
X149317857Y-75328571D01*
X149317857Y-75557142D01*
X149346428Y-75614285D01*
X149375000Y-75642857D01*
X149432142Y-75671428D01*
X149546428Y-75671428D01*
X149603571Y-75642857D01*
X149632142Y-75614285D01*
X149660714Y-75557142D01*
X149660714Y-75414285D01*
X149632142Y-75357142D01*
X149603571Y-75328571D01*
X149546428Y-75300000D01*
X149432142Y-75300000D01*
X149375000Y-75328571D01*
X149346428Y-75357142D01*
X149317857Y-75414285D01*
X159542857Y-101253571D02*
X159485714Y-101225000D01*
X159428571Y-101167857D01*
X159342857Y-101082142D01*
X159285714Y-101053571D01*
X159228571Y-101053571D01*
X159257142Y-101196428D02*
X159200000Y-101167857D01*
X159142857Y-101110714D01*
X159114285Y-100996428D01*
X159114285Y-100796428D01*
X159142857Y-100682142D01*
X159200000Y-100625000D01*
X159257142Y-100596428D01*
X159371428Y-100596428D01*
X159428571Y-100625000D01*
X159485714Y-100682142D01*
X159514285Y-100796428D01*
X159514285Y-100996428D01*
X159485714Y-101110714D01*
X159428571Y-101167857D01*
X159371428Y-101196428D01*
X159257142Y-101196428D01*
X160057142Y-100596428D02*
X159771428Y-100596428D01*
X159742857Y-100882142D01*
X159771428Y-100853571D01*
X159828571Y-100825000D01*
X159971428Y-100825000D01*
X160028571Y-100853571D01*
X160057142Y-100882142D01*
X160085714Y-100939285D01*
X160085714Y-101082142D01*
X160057142Y-101139285D01*
X160028571Y-101167857D01*
X159971428Y-101196428D01*
X159828571Y-101196428D01*
X159771428Y-101167857D01*
X159742857Y-101139285D01*
X142842857Y-75853571D02*
X142785714Y-75825000D01*
X142728571Y-75767857D01*
X142642857Y-75682142D01*
X142585714Y-75653571D01*
X142528571Y-75653571D01*
X142557142Y-75796428D02*
X142500000Y-75767857D01*
X142442857Y-75710714D01*
X142414285Y-75596428D01*
X142414285Y-75396428D01*
X142442857Y-75282142D01*
X142500000Y-75225000D01*
X142557142Y-75196428D01*
X142671428Y-75196428D01*
X142728571Y-75225000D01*
X142785714Y-75282142D01*
X142814285Y-75396428D01*
X142814285Y-75596428D01*
X142785714Y-75710714D01*
X142728571Y-75767857D01*
X142671428Y-75796428D01*
X142557142Y-75796428D01*
X143328571Y-75396428D02*
X143328571Y-75796428D01*
X143185714Y-75167857D02*
X143042857Y-75596428D01*
X143414285Y-75596428D01*
X144642857Y-101228571D02*
X144585714Y-101200000D01*
X144528571Y-101142857D01*
X144442857Y-101057142D01*
X144385714Y-101028571D01*
X144328571Y-101028571D01*
X144357142Y-101171428D02*
X144300000Y-101142857D01*
X144242857Y-101085714D01*
X144214285Y-100971428D01*
X144214285Y-100771428D01*
X144242857Y-100657142D01*
X144300000Y-100600000D01*
X144357142Y-100571428D01*
X144471428Y-100571428D01*
X144528571Y-100600000D01*
X144585714Y-100657142D01*
X144614285Y-100771428D01*
X144614285Y-100971428D01*
X144585714Y-101085714D01*
X144528571Y-101142857D01*
X144471428Y-101171428D01*
X144357142Y-101171428D01*
X144814285Y-100571428D02*
X145185714Y-100571428D01*
X144985714Y-100800000D01*
X145071428Y-100800000D01*
X145128571Y-100828571D01*
X145157142Y-100857142D01*
X145185714Y-100914285D01*
X145185714Y-101057142D01*
X145157142Y-101114285D01*
X145128571Y-101142857D01*
X145071428Y-101171428D01*
X144900000Y-101171428D01*
X144842857Y-101142857D01*
X144814285Y-101114285D01*
X148167857Y-101278571D02*
X148110714Y-101250000D01*
X148053571Y-101192857D01*
X147967857Y-101107142D01*
X147910714Y-101078571D01*
X147853571Y-101078571D01*
X147882142Y-101221428D02*
X147825000Y-101192857D01*
X147767857Y-101135714D01*
X147739285Y-101021428D01*
X147739285Y-100821428D01*
X147767857Y-100707142D01*
X147825000Y-100650000D01*
X147882142Y-100621428D01*
X147996428Y-100621428D01*
X148053571Y-100650000D01*
X148110714Y-100707142D01*
X148139285Y-100821428D01*
X148139285Y-101021428D01*
X148110714Y-101135714D01*
X148053571Y-101192857D01*
X147996428Y-101221428D01*
X147882142Y-101221428D01*
X148367857Y-100678571D02*
X148396428Y-100650000D01*
X148453571Y-100621428D01*
X148596428Y-100621428D01*
X148653571Y-100650000D01*
X148682142Y-100678571D01*
X148710714Y-100735714D01*
X148710714Y-100792857D01*
X148682142Y-100878571D01*
X148339285Y-101221428D01*
X148710714Y-101221428D01*
X145842857Y-104553571D02*
X145785714Y-104525000D01*
X145728571Y-104467857D01*
X145642857Y-104382142D01*
X145585714Y-104353571D01*
X145528571Y-104353571D01*
X145557142Y-104496428D02*
X145500000Y-104467857D01*
X145442857Y-104410714D01*
X145414285Y-104296428D01*
X145414285Y-104096428D01*
X145442857Y-103982142D01*
X145500000Y-103925000D01*
X145557142Y-103896428D01*
X145671428Y-103896428D01*
X145728571Y-103925000D01*
X145785714Y-103982142D01*
X145814285Y-104096428D01*
X145814285Y-104296428D01*
X145785714Y-104410714D01*
X145728571Y-104467857D01*
X145671428Y-104496428D01*
X145557142Y-104496428D01*
X146385714Y-104496428D02*
X146042857Y-104496428D01*
X146214285Y-104496428D02*
X146214285Y-103896428D01*
X146157142Y-103982142D01*
X146100000Y-104039285D01*
X146042857Y-104067857D01*
X133860000Y-117151428D02*
X133860000Y-117580000D01*
X133831428Y-117665714D01*
X133774285Y-117722857D01*
X133688571Y-117751428D01*
X133631428Y-117751428D01*
X134117142Y-117208571D02*
X134145714Y-117180000D01*
X134202857Y-117151428D01*
X134345714Y-117151428D01*
X134402857Y-117180000D01*
X134431428Y-117208571D01*
X134460000Y-117265714D01*
X134460000Y-117322857D01*
X134431428Y-117408571D01*
X134088571Y-117751428D01*
X134460000Y-117751428D01*
X161232142Y-77046428D02*
X161232142Y-76446428D01*
X161375000Y-76446428D01*
X161460714Y-76475000D01*
X161517857Y-76532142D01*
X161546428Y-76589285D01*
X161575000Y-76703571D01*
X161575000Y-76789285D01*
X161546428Y-76903571D01*
X161517857Y-76960714D01*
X161460714Y-77017857D01*
X161375000Y-77046428D01*
X161232142Y-77046428D01*
X161860714Y-77046428D02*
X161975000Y-77046428D01*
X162032142Y-77017857D01*
X162060714Y-76989285D01*
X162117857Y-76903571D01*
X162146428Y-76789285D01*
X162146428Y-76560714D01*
X162117857Y-76503571D01*
X162089285Y-76475000D01*
X162032142Y-76446428D01*
X161917857Y-76446428D01*
X161860714Y-76475000D01*
X161832142Y-76503571D01*
X161803571Y-76560714D01*
X161803571Y-76703571D01*
X161832142Y-76760714D01*
X161860714Y-76789285D01*
X161917857Y-76817857D01*
X162032142Y-76817857D01*
X162089285Y-76789285D01*
X162117857Y-76760714D01*
X162146428Y-76703571D01*
X156107142Y-70746428D02*
X156107142Y-70146428D01*
X156250000Y-70146428D01*
X156335714Y-70175000D01*
X156392857Y-70232142D01*
X156421428Y-70289285D01*
X156450000Y-70403571D01*
X156450000Y-70489285D01*
X156421428Y-70603571D01*
X156392857Y-70660714D01*
X156335714Y-70717857D01*
X156250000Y-70746428D01*
X156107142Y-70746428D01*
X156792857Y-70403571D02*
X156735714Y-70375000D01*
X156707142Y-70346428D01*
X156678571Y-70289285D01*
X156678571Y-70260714D01*
X156707142Y-70203571D01*
X156735714Y-70175000D01*
X156792857Y-70146428D01*
X156907142Y-70146428D01*
X156964285Y-70175000D01*
X156992857Y-70203571D01*
X157021428Y-70260714D01*
X157021428Y-70289285D01*
X156992857Y-70346428D01*
X156964285Y-70375000D01*
X156907142Y-70403571D01*
X156792857Y-70403571D01*
X156735714Y-70432142D01*
X156707142Y-70460714D01*
X156678571Y-70517857D01*
X156678571Y-70632142D01*
X156707142Y-70689285D01*
X156735714Y-70717857D01*
X156792857Y-70746428D01*
X156907142Y-70746428D01*
X156964285Y-70717857D01*
X156992857Y-70689285D01*
X157021428Y-70632142D01*
X157021428Y-70517857D01*
X156992857Y-70460714D01*
X156964285Y-70432142D01*
X156907142Y-70403571D01*
X150207142Y-70846428D02*
X150207142Y-70246428D01*
X150350000Y-70246428D01*
X150435714Y-70275000D01*
X150492857Y-70332142D01*
X150521428Y-70389285D01*
X150550000Y-70503571D01*
X150550000Y-70589285D01*
X150521428Y-70703571D01*
X150492857Y-70760714D01*
X150435714Y-70817857D01*
X150350000Y-70846428D01*
X150207142Y-70846428D01*
X150750000Y-70246428D02*
X151150000Y-70246428D01*
X150892857Y-70846428D01*
X143907142Y-70921428D02*
X143907142Y-70321428D01*
X144050000Y-70321428D01*
X144135714Y-70350000D01*
X144192857Y-70407142D01*
X144221428Y-70464285D01*
X144250000Y-70578571D01*
X144250000Y-70664285D01*
X144221428Y-70778571D01*
X144192857Y-70835714D01*
X144135714Y-70892857D01*
X144050000Y-70921428D01*
X143907142Y-70921428D01*
X144764285Y-70321428D02*
X144650000Y-70321428D01*
X144592857Y-70350000D01*
X144564285Y-70378571D01*
X144507142Y-70464285D01*
X144478571Y-70578571D01*
X144478571Y-70807142D01*
X144507142Y-70864285D01*
X144535714Y-70892857D01*
X144592857Y-70921428D01*
X144707142Y-70921428D01*
X144764285Y-70892857D01*
X144792857Y-70864285D01*
X144821428Y-70807142D01*
X144821428Y-70664285D01*
X144792857Y-70607142D01*
X144764285Y-70578571D01*
X144707142Y-70550000D01*
X144592857Y-70550000D01*
X144535714Y-70578571D01*
X144507142Y-70607142D01*
X144478571Y-70664285D01*
X137532142Y-70971428D02*
X137532142Y-70371428D01*
X137675000Y-70371428D01*
X137760714Y-70400000D01*
X137817857Y-70457142D01*
X137846428Y-70514285D01*
X137875000Y-70628571D01*
X137875000Y-70714285D01*
X137846428Y-70828571D01*
X137817857Y-70885714D01*
X137760714Y-70942857D01*
X137675000Y-70971428D01*
X137532142Y-70971428D01*
X138417857Y-70371428D02*
X138132142Y-70371428D01*
X138103571Y-70657142D01*
X138132142Y-70628571D01*
X138189285Y-70600000D01*
X138332142Y-70600000D01*
X138389285Y-70628571D01*
X138417857Y-70657142D01*
X138446428Y-70714285D01*
X138446428Y-70857142D01*
X138417857Y-70914285D01*
X138389285Y-70942857D01*
X138332142Y-70971428D01*
X138189285Y-70971428D01*
X138132142Y-70942857D01*
X138103571Y-70914285D01*
X155157142Y-112031428D02*
X155157142Y-111431428D01*
X155300000Y-111431428D01*
X155385714Y-111460000D01*
X155442857Y-111517142D01*
X155471428Y-111574285D01*
X155500000Y-111688571D01*
X155500000Y-111774285D01*
X155471428Y-111888571D01*
X155442857Y-111945714D01*
X155385714Y-112002857D01*
X155300000Y-112031428D01*
X155157142Y-112031428D01*
X156014285Y-111631428D02*
X156014285Y-112031428D01*
X155871428Y-111402857D02*
X155728571Y-111831428D01*
X156100000Y-111831428D01*
X146647142Y-104231428D02*
X146647142Y-103631428D01*
X146790000Y-103631428D01*
X146875714Y-103660000D01*
X146932857Y-103717142D01*
X146961428Y-103774285D01*
X146990000Y-103888571D01*
X146990000Y-103974285D01*
X146961428Y-104088571D01*
X146932857Y-104145714D01*
X146875714Y-104202857D01*
X146790000Y-104231428D01*
X146647142Y-104231428D01*
X147218571Y-103688571D02*
X147247142Y-103660000D01*
X147304285Y-103631428D01*
X147447142Y-103631428D01*
X147504285Y-103660000D01*
X147532857Y-103688571D01*
X147561428Y-103745714D01*
X147561428Y-103802857D01*
X147532857Y-103888571D01*
X147190000Y-104231428D01*
X147561428Y-104231428D01*
X144117142Y-117776428D02*
X144117142Y-117176428D01*
X144260000Y-117176428D01*
X144345714Y-117205000D01*
X144402857Y-117262142D01*
X144431428Y-117319285D01*
X144460000Y-117433571D01*
X144460000Y-117519285D01*
X144431428Y-117633571D01*
X144402857Y-117690714D01*
X144345714Y-117747857D01*
X144260000Y-117776428D01*
X144117142Y-117776428D01*
X145031428Y-117776428D02*
X144688571Y-117776428D01*
X144860000Y-117776428D02*
X144860000Y-117176428D01*
X144802857Y-117262142D01*
X144745714Y-117319285D01*
X144688571Y-117347857D01*
X156722500Y-116029285D02*
X156693928Y-116057857D01*
X156608214Y-116086428D01*
X156551071Y-116086428D01*
X156465357Y-116057857D01*
X156408214Y-116000714D01*
X156379642Y-115943571D01*
X156351071Y-115829285D01*
X156351071Y-115743571D01*
X156379642Y-115629285D01*
X156408214Y-115572142D01*
X156465357Y-115515000D01*
X156551071Y-115486428D01*
X156608214Y-115486428D01*
X156693928Y-115515000D01*
X156722500Y-115543571D01*
X157008214Y-116086428D02*
X157122500Y-116086428D01*
X157179642Y-116057857D01*
X157208214Y-116029285D01*
X157265357Y-115943571D01*
X157293928Y-115829285D01*
X157293928Y-115600714D01*
X157265357Y-115543571D01*
X157236785Y-115515000D01*
X157179642Y-115486428D01*
X157065357Y-115486428D01*
X157008214Y-115515000D01*
X156979642Y-115543571D01*
X156951071Y-115600714D01*
X156951071Y-115743571D01*
X156979642Y-115800714D01*
X157008214Y-115829285D01*
X157065357Y-115857857D01*
X157179642Y-115857857D01*
X157236785Y-115829285D01*
X157265357Y-115800714D01*
X157293928Y-115743571D01*
X154267500Y-105239285D02*
X154238928Y-105267857D01*
X154153214Y-105296428D01*
X154096071Y-105296428D01*
X154010357Y-105267857D01*
X153953214Y-105210714D01*
X153924642Y-105153571D01*
X153896071Y-105039285D01*
X153896071Y-104953571D01*
X153924642Y-104839285D01*
X153953214Y-104782142D01*
X154010357Y-104725000D01*
X154096071Y-104696428D01*
X154153214Y-104696428D01*
X154238928Y-104725000D01*
X154267500Y-104753571D01*
X154610357Y-104953571D02*
X154553214Y-104925000D01*
X154524642Y-104896428D01*
X154496071Y-104839285D01*
X154496071Y-104810714D01*
X154524642Y-104753571D01*
X154553214Y-104725000D01*
X154610357Y-104696428D01*
X154724642Y-104696428D01*
X154781785Y-104725000D01*
X154810357Y-104753571D01*
X154838928Y-104810714D01*
X154838928Y-104839285D01*
X154810357Y-104896428D01*
X154781785Y-104925000D01*
X154724642Y-104953571D01*
X154610357Y-104953571D01*
X154553214Y-104982142D01*
X154524642Y-105010714D01*
X154496071Y-105067857D01*
X154496071Y-105182142D01*
X154524642Y-105239285D01*
X154553214Y-105267857D01*
X154610357Y-105296428D01*
X154724642Y-105296428D01*
X154781785Y-105267857D01*
X154810357Y-105239285D01*
X154838928Y-105182142D01*
X154838928Y-105067857D01*
X154810357Y-105010714D01*
X154781785Y-104982142D01*
X154724642Y-104953571D01*
X142200000Y-102464285D02*
X142171428Y-102492857D01*
X142085714Y-102521428D01*
X142028571Y-102521428D01*
X141942857Y-102492857D01*
X141885714Y-102435714D01*
X141857142Y-102378571D01*
X141828571Y-102264285D01*
X141828571Y-102178571D01*
X141857142Y-102064285D01*
X141885714Y-102007142D01*
X141942857Y-101950000D01*
X142028571Y-101921428D01*
X142085714Y-101921428D01*
X142171428Y-101950000D01*
X142200000Y-101978571D01*
X142742857Y-101921428D02*
X142457142Y-101921428D01*
X142428571Y-102207142D01*
X142457142Y-102178571D01*
X142514285Y-102150000D01*
X142657142Y-102150000D01*
X142714285Y-102178571D01*
X142742857Y-102207142D01*
X142771428Y-102264285D01*
X142771428Y-102407142D01*
X142742857Y-102464285D01*
X142714285Y-102492857D01*
X142657142Y-102521428D01*
X142514285Y-102521428D01*
X142457142Y-102492857D01*
X142428571Y-102464285D01*
X142350000Y-111414285D02*
X142321428Y-111442857D01*
X142235714Y-111471428D01*
X142178571Y-111471428D01*
X142092857Y-111442857D01*
X142035714Y-111385714D01*
X142007142Y-111328571D01*
X141978571Y-111214285D01*
X141978571Y-111128571D01*
X142007142Y-111014285D01*
X142035714Y-110957142D01*
X142092857Y-110900000D01*
X142178571Y-110871428D01*
X142235714Y-110871428D01*
X142321428Y-110900000D01*
X142350000Y-110928571D01*
X142864285Y-111071428D02*
X142864285Y-111471428D01*
X142721428Y-110842857D02*
X142578571Y-111271428D01*
X142950000Y-111271428D01*
X136750000Y-98289285D02*
X136721428Y-98317857D01*
X136635714Y-98346428D01*
X136578571Y-98346428D01*
X136492857Y-98317857D01*
X136435714Y-98260714D01*
X136407142Y-98203571D01*
X136378571Y-98089285D01*
X136378571Y-98003571D01*
X136407142Y-97889285D01*
X136435714Y-97832142D01*
X136492857Y-97775000D01*
X136578571Y-97746428D01*
X136635714Y-97746428D01*
X136721428Y-97775000D01*
X136750000Y-97803571D01*
X137321428Y-98346428D02*
X136978571Y-98346428D01*
X137150000Y-98346428D02*
X137150000Y-97746428D01*
X137092857Y-97832142D01*
X137035714Y-97889285D01*
X136978571Y-97917857D01*
M02*
