G04 #@! TF.GenerationSoftware,KiCad,Pcbnew,5.1.7-a382d34a88~90~ubuntu20.04.1*
G04 #@! TF.CreationDate,2022-01-21T18:15:31-06:00*
G04 #@! TF.ProjectId,strike-controller,73747269-6b65-42d6-936f-6e74726f6c6c,rev?*
G04 #@! TF.SameCoordinates,Original*
G04 #@! TF.FileFunction,Copper,L4,Bot*
G04 #@! TF.FilePolarity,Positive*
%FSLAX46Y46*%
G04 Gerber Fmt 4.6, Leading zero omitted, Abs format (unit mm)*
G04 Created by KiCad (PCBNEW 5.1.7-a382d34a88~90~ubuntu20.04.1) date 2022-01-21 18:15:31*
%MOMM*%
%LPD*%
G01*
G04 APERTURE LIST*
G04 #@! TA.AperFunction,ComponentPad*
%ADD10C,2.500000*%
G04 #@! TD*
G04 #@! TA.AperFunction,SMDPad,CuDef*
%ADD11R,1.000000X3.150000*%
G04 #@! TD*
G04 #@! TA.AperFunction,ComponentPad*
%ADD12O,0.890000X1.550000*%
G04 #@! TD*
G04 #@! TA.AperFunction,ComponentPad*
%ADD13O,1.250000X0.950000*%
G04 #@! TD*
G04 #@! TA.AperFunction,ViaPad*
%ADD14C,0.600000*%
G04 #@! TD*
G04 #@! TA.AperFunction,ViaPad*
%ADD15C,0.800000*%
G04 #@! TD*
G04 #@! TA.AperFunction,ViaPad*
%ADD16C,1.000000*%
G04 #@! TD*
G04 #@! TA.AperFunction,Conductor*
%ADD17C,0.500000*%
G04 #@! TD*
G04 #@! TA.AperFunction,Conductor*
%ADD18C,0.400000*%
G04 #@! TD*
G04 #@! TA.AperFunction,Conductor*
%ADD19C,0.250000*%
G04 #@! TD*
G04 APERTURE END LIST*
D10*
X160500000Y-115925000D03*
X160500000Y-56950000D03*
X132525000Y-115900000D03*
X132500000Y-56950000D03*
D11*
X159310000Y-71710000D03*
X159310000Y-66660000D03*
X156770000Y-71710000D03*
X156770000Y-66660000D03*
X154230000Y-71710000D03*
X154230000Y-66660000D03*
X151690000Y-71710000D03*
X151690000Y-66660000D03*
X149150000Y-71710000D03*
X149150000Y-66660000D03*
X146610000Y-71710000D03*
X146610000Y-66660000D03*
X144070000Y-71710000D03*
X144070000Y-66660000D03*
X141530000Y-71710000D03*
X141530000Y-66660000D03*
X138990000Y-71710000D03*
X138990000Y-66660000D03*
D12*
X142600000Y-115175000D03*
X135600000Y-115175000D03*
D13*
X141600000Y-112475000D03*
X136600000Y-112475000D03*
D14*
X152175000Y-116450000D03*
X148625000Y-116475000D03*
X148625000Y-110050000D03*
X152175000Y-110025000D03*
X140400000Y-111300000D03*
D15*
X140275000Y-108050000D03*
X143700000Y-102300000D03*
D14*
X138200000Y-108500000D03*
X143208051Y-110133051D03*
X137550000Y-97025000D03*
X138600000Y-93450000D03*
D16*
X146075000Y-84275000D03*
X149300000Y-87525000D03*
X146075000Y-90725000D03*
D14*
X154600000Y-92200000D03*
X157700000Y-92225000D03*
X158650000Y-94425000D03*
X158850000Y-87875000D03*
D16*
X142875010Y-87524906D03*
D14*
X149575000Y-99650000D03*
X155575000Y-99650000D03*
X156525000Y-98600000D03*
X161650000Y-112700000D03*
X154800000Y-114625000D03*
D16*
X160925000Y-106100000D03*
X160925000Y-102675000D03*
D14*
X152150000Y-104850000D03*
X161099981Y-74425000D03*
D15*
X145609063Y-104915618D03*
D14*
X160979991Y-81400000D03*
X159300000Y-64575000D03*
X153150000Y-65775000D03*
X140050000Y-58800000D03*
X136325000Y-63075000D03*
X136325000Y-65725000D03*
X142575000Y-63075000D03*
X146600000Y-64550000D03*
X138575000Y-79550000D03*
X138600000Y-76475000D03*
X141350000Y-75175000D03*
X140325000Y-74375000D03*
X153350000Y-63075010D03*
X142778551Y-64298342D03*
X132650000Y-101625000D03*
X134635636Y-112473262D03*
X146775000Y-74325000D03*
X153958051Y-75583051D03*
X147771509Y-74609556D03*
X157999990Y-64429144D03*
X157075000Y-62924990D03*
X159275000Y-69600000D03*
X137975000Y-99900000D03*
X140550000Y-97000000D03*
X139875000Y-93475000D03*
X161775000Y-96175000D03*
D16*
X158650000Y-108925000D03*
X156000000Y-110650000D03*
X161275000Y-110900000D03*
X158675000Y-106075000D03*
D14*
X145550000Y-116225000D03*
X161549991Y-90400000D03*
X154600000Y-63050000D03*
X155175000Y-66500000D03*
X138850000Y-62550000D03*
X151743201Y-62793201D03*
X132725000Y-105000000D03*
X153450010Y-97850000D03*
X143275000Y-99625000D03*
X144634337Y-102044619D03*
X143275000Y-98425000D03*
X142750000Y-93075000D03*
X154275000Y-80200000D03*
X156275000Y-78400000D03*
X132875000Y-109950000D03*
X136100000Y-110775000D03*
X133050000Y-113099990D03*
X140475000Y-72125000D03*
X150550000Y-65525000D03*
X149775000Y-57500000D03*
X150875000Y-58775000D03*
X154600000Y-58775000D03*
X155250000Y-56375000D03*
X136350000Y-56175000D03*
X136325000Y-58800000D03*
X137550000Y-63075000D03*
X137575000Y-65775000D03*
X137950000Y-66700000D03*
X137775000Y-71275000D03*
X140200000Y-66050000D03*
X146600000Y-69550000D03*
X160775000Y-70175000D03*
X141371151Y-63057963D03*
X151155656Y-63380746D03*
X145575010Y-70181834D03*
X150575000Y-71200000D03*
X154000000Y-73900000D03*
X156775000Y-102650000D03*
X160325000Y-78350000D03*
X160150000Y-81425000D03*
X148050000Y-72550000D03*
X144371279Y-62671279D03*
X150500000Y-67325000D03*
X155900000Y-65675000D03*
X157850000Y-70275000D03*
X150333780Y-60108780D03*
X157300000Y-76800000D03*
X146650000Y-103850000D03*
X146425000Y-102475000D03*
X145150000Y-101500000D03*
X143075006Y-96422478D03*
X139800000Y-105525000D03*
X142575000Y-102250000D03*
X138950000Y-101075000D03*
X140900000Y-100700000D03*
X144775000Y-99925000D03*
X145575000Y-97275000D03*
X152550000Y-99200000D03*
X154275000Y-82300000D03*
X152875000Y-79850000D03*
X152380726Y-97056087D03*
X153325000Y-99650000D03*
X152278372Y-101760819D03*
X135625000Y-108350000D03*
X142275000Y-79575000D03*
X135000000Y-107875000D03*
X142225000Y-80650000D03*
X152675000Y-66825000D03*
X157875000Y-96400000D03*
X150525000Y-96525000D03*
X143125000Y-69675010D03*
X152894597Y-69659225D03*
X151625000Y-101100000D03*
X145325000Y-76400000D03*
X148166201Y-75921987D03*
X140375000Y-62875000D03*
X149125000Y-76275000D03*
X144118096Y-76402618D03*
X143675000Y-63025000D03*
X140600000Y-81850000D03*
X139900000Y-79925000D03*
X141300000Y-69100000D03*
X144300000Y-69275000D03*
X144300000Y-75575000D03*
X150547057Y-76470021D03*
D17*
X159310000Y-64585000D02*
X159300000Y-64575000D01*
X159310000Y-66660000D02*
X159310000Y-64585000D01*
X146610000Y-64560000D02*
X146600000Y-64550000D01*
X146610000Y-66660000D02*
X146610000Y-64560000D01*
D18*
X159310000Y-69635000D02*
X159275000Y-69600000D01*
X159310000Y-71710000D02*
X159310000Y-69635000D01*
D17*
X154390000Y-66500000D02*
X154230000Y-66660000D01*
X155175000Y-66500000D02*
X154390000Y-66500000D01*
D19*
X139303723Y-62096277D02*
X151046277Y-62096277D01*
X138850000Y-62550000D02*
X139303723Y-62096277D01*
X151046277Y-62096277D02*
X151743201Y-62793201D01*
D18*
X155175000Y-66500000D02*
X155175000Y-64825000D01*
X155175000Y-64825000D02*
X156375000Y-63625000D01*
X156375000Y-63625000D02*
X160350000Y-63625000D01*
X160350000Y-63625000D02*
X161825000Y-65100000D01*
X161825000Y-90124991D02*
X161549991Y-90400000D01*
X161825000Y-65100000D02*
X161825000Y-90124991D01*
D19*
X143275000Y-99625000D02*
X143275000Y-100685282D01*
X143275000Y-100685282D02*
X144634337Y-102044619D01*
X143275000Y-98425000D02*
X142500000Y-97650000D01*
X142500000Y-93325000D02*
X142750000Y-93075000D01*
X142500000Y-97650000D02*
X142500000Y-93325000D01*
X156075000Y-78400000D02*
X156275000Y-78400000D01*
X154275000Y-80200000D02*
X156075000Y-78400000D01*
X133700000Y-110775000D02*
X136100000Y-110775000D01*
X132875000Y-109950000D02*
X133700000Y-110775000D01*
X136100000Y-110775000D02*
X135374990Y-110775000D01*
X135374990Y-110775000D02*
X133050000Y-113099990D01*
D17*
X141115000Y-72125000D02*
X141530000Y-71710000D01*
X140475000Y-72125000D02*
X141115000Y-72125000D01*
X137990000Y-66660000D02*
X137950000Y-66700000D01*
X138990000Y-66660000D02*
X137990000Y-66660000D01*
X139590000Y-66660000D02*
X140200000Y-66050000D01*
X138990000Y-66660000D02*
X139590000Y-66660000D01*
X146610000Y-69560000D02*
X146600000Y-69550000D01*
X146610000Y-71710000D02*
X146610000Y-69560000D01*
X138210000Y-71710000D02*
X137775000Y-71275000D01*
X138990000Y-71710000D02*
X138210000Y-71710000D01*
X138990000Y-71710000D02*
X138990000Y-66660000D01*
X146610000Y-71710000D02*
X146610000Y-71216824D01*
X146610000Y-71216824D02*
X145575010Y-70181834D01*
D18*
X154230000Y-73670000D02*
X154000000Y-73900000D01*
X154230000Y-71710000D02*
X154230000Y-73670000D01*
D17*
X156775000Y-102650000D02*
X160825000Y-98600000D01*
X160825000Y-98600000D02*
X160825000Y-82875000D01*
X160825000Y-82875000D02*
X160150000Y-82200000D01*
X160150000Y-78525000D02*
X160325000Y-78350000D01*
X160150000Y-81425000D02*
X160150000Y-78525000D01*
X160150000Y-82200000D02*
X160150000Y-81375000D01*
X160150000Y-81375000D02*
X160150000Y-81425000D01*
D18*
X148890000Y-71710000D02*
X148050000Y-72550000D01*
X149150000Y-71710000D02*
X148890000Y-71710000D01*
D19*
X149150000Y-66660000D02*
X149150000Y-64750000D01*
X147071279Y-62671279D02*
X144371279Y-62671279D01*
X149150000Y-64750000D02*
X147071279Y-62671279D01*
X149815000Y-67325000D02*
X149150000Y-66660000D01*
X150500000Y-67325000D02*
X149815000Y-67325000D01*
D17*
X155900000Y-65790000D02*
X156770000Y-66660000D01*
X155900000Y-65675000D02*
X155900000Y-65790000D01*
X157850000Y-67740000D02*
X157850000Y-70275000D01*
X156770000Y-66660000D02*
X157850000Y-67740000D01*
X151690000Y-63882404D02*
X152443202Y-63129202D01*
X152443202Y-62218202D02*
X150333780Y-60108780D01*
X152443202Y-63129202D02*
X152443202Y-62218202D01*
X151690000Y-66660000D02*
X151690000Y-63882404D01*
D18*
X151690000Y-66660000D02*
X151690000Y-67536766D01*
X155500000Y-70274998D02*
X155500000Y-75000000D01*
X155500000Y-75000000D02*
X157300000Y-76800000D01*
X151690000Y-67536766D02*
X153328245Y-69175011D01*
X154400013Y-69175011D02*
X155500000Y-70274998D01*
X153328245Y-69175011D02*
X154400013Y-69175011D01*
D19*
X146650000Y-102700000D02*
X146425000Y-102475000D01*
X146650000Y-103850000D02*
X146650000Y-102700000D01*
X143975000Y-100325000D02*
X143975000Y-97322472D01*
X145150000Y-101500000D02*
X143975000Y-100325000D01*
X143975000Y-97322472D02*
X143075006Y-96422478D01*
X139800000Y-105025000D02*
X142575000Y-102250000D01*
X139800000Y-105525000D02*
X139800000Y-105025000D01*
X140525000Y-101075000D02*
X140900000Y-100700000D01*
X138950000Y-101075000D02*
X140525000Y-101075000D01*
X145575000Y-99125000D02*
X145575000Y-97275000D01*
X144775000Y-99925000D02*
X145575000Y-99125000D01*
X152550000Y-99200000D02*
X152550000Y-97700000D01*
X152550000Y-97700000D02*
X153400000Y-96850000D01*
X153400000Y-83175000D02*
X154275000Y-82300000D01*
X153400000Y-96850000D02*
X153400000Y-83175000D01*
X152875000Y-96561813D02*
X152380726Y-97056087D01*
X152875000Y-79850000D02*
X152875000Y-96561813D01*
X153325000Y-99650000D02*
X153325000Y-100714191D01*
X153325000Y-100714191D02*
X152278372Y-101760819D01*
X142825002Y-80125002D02*
X142275000Y-79575000D01*
X135625000Y-108350000D02*
X142050000Y-101925000D01*
X142050000Y-101925000D02*
X142050000Y-81676004D01*
X142050000Y-81676004D02*
X142825002Y-80901002D01*
X142825002Y-80901002D02*
X142825002Y-80125002D01*
X135000000Y-107875000D02*
X141575000Y-101300000D01*
X141575000Y-101300000D02*
X141575000Y-93150000D01*
X141575000Y-81300000D02*
X142225000Y-80650000D01*
X141575000Y-93150000D02*
X141575000Y-81300000D01*
X156770000Y-71710000D02*
X156770000Y-70670000D01*
X156770000Y-70670000D02*
X154800000Y-68700000D01*
X154800000Y-68700000D02*
X153525000Y-68700000D01*
X152675000Y-67850000D02*
X152675000Y-66825000D01*
X153525000Y-68700000D02*
X152675000Y-67850000D01*
X157875000Y-96400000D02*
X160250000Y-94025000D01*
X159624991Y-82417467D02*
X159624991Y-82399991D01*
X160250000Y-83042476D02*
X159624991Y-82417467D01*
X160250000Y-94025000D02*
X160250000Y-83042476D01*
X159624991Y-82399991D02*
X159450000Y-82225000D01*
X159450000Y-74900000D02*
X158100000Y-73550000D01*
X159450000Y-82225000D02*
X159450000Y-74900000D01*
X158100000Y-73040000D02*
X156770000Y-71710000D01*
X158100000Y-73550000D02*
X158100000Y-73040000D01*
X144070000Y-70620010D02*
X143125000Y-69675010D01*
X144070000Y-71710000D02*
X144070000Y-70620010D01*
X150525000Y-96100736D02*
X150525000Y-96525000D01*
X150525000Y-85315700D02*
X150525000Y-96100736D01*
X150340700Y-85315700D02*
X150525000Y-85315700D01*
X143225000Y-78200000D02*
X150340700Y-85315700D01*
X143225000Y-75798998D02*
X143225000Y-78200000D01*
X144070000Y-74953998D02*
X143225000Y-75798998D01*
X144070000Y-71710000D02*
X144070000Y-74953998D01*
X152894597Y-70505403D02*
X152894597Y-69659225D01*
X151690000Y-71710000D02*
X152894597Y-70505403D01*
X151690000Y-71710000D02*
X151690000Y-76710000D01*
X151690000Y-76710000D02*
X150375000Y-78025000D01*
X150375000Y-78025000D02*
X150375000Y-84600000D01*
X150375000Y-84600000D02*
X151200000Y-85425000D01*
X151200000Y-85425000D02*
X151200000Y-100675000D01*
X151200000Y-100675000D02*
X151625000Y-101100000D01*
X145325000Y-76400000D02*
X147688188Y-76400000D01*
X147688188Y-76400000D02*
X148166201Y-75921987D01*
X140375000Y-62875000D02*
X141530000Y-64030000D01*
X141530000Y-64030000D02*
X141530000Y-66660000D01*
X149125000Y-76275000D02*
X148425000Y-76975000D01*
X148425000Y-76975000D02*
X144690478Y-76975000D01*
X144690478Y-76975000D02*
X144118096Y-76402618D01*
X144070000Y-63420000D02*
X143675000Y-63025000D01*
X144070000Y-66660000D02*
X144070000Y-63420000D01*
X140600000Y-80625000D02*
X139900000Y-79925000D01*
X140600000Y-81850000D02*
X140600000Y-80625000D01*
X144125000Y-69100000D02*
X144300000Y-69275000D01*
X141300000Y-69100000D02*
X144125000Y-69100000D01*
X144300000Y-75575000D02*
X147700000Y-75575000D01*
X147700000Y-75575000D02*
X148125000Y-75150000D01*
X149227036Y-75150000D02*
X150547057Y-76470021D01*
X148125000Y-75150000D02*
X149227036Y-75150000D01*
M02*
