M48
; DRILL file {KiCad 5.1.7-a382d34a8~88~ubuntu20.04.1} date Thu May  6 14:13:05 2021
; FORMAT={-:-/ absolute / inch / decimal}
; #@! TF.CreationDate,2021-05-06T14:13:05-05:00
; #@! TF.GenerationSoftware,Kicad,Pcbnew,5.1.7-a382d34a8~88~ubuntu20.04.1
; #@! TF.FileFunction,Plated,1,4,PTH
FMAT,2
INCH
T1C0.0138
T2C0.0157
T3C0.0236
T4C0.0276
T5C0.0350
T6C0.0394
T7C0.0404
T8C0.0492
T9C0.0591
T10C0.0618
T11C0.0630
T12C0.1083
%
G90
G05
T1
X8.5965Y-3.5423
X8.9656Y-3.3778
X9.2028Y-3.3425
X9.2047Y-3.7264
T2
X5.2593Y-2.7543
X5.2874Y-2.8268
X5.295Y-2.8643
X5.2953Y-2.6496
X5.2972Y-2.8957
X5.3622Y-2.5512
X5.5207Y-2.726
X5.5295Y-2.7815
X5.579Y-2.755
X5.8701Y-2.7106
X5.9154Y-2.7697
X5.9469Y-2.7943
X5.9567Y-2.687
X6.0039Y-3.0157
X6.0079Y-2.7441
X6.0335Y-2.7697
X6.0433Y-2.9134
X6.0527Y-3.0167
X6.063Y-3.0906
X6.0876Y-3.1211
X6.0925Y-4.2717
X6.1024Y-2.9429
X6.1033Y-4.5299
X6.1171Y-3.9665
X6.1348Y-3.9272
X6.1939Y-2.9961
X6.1969Y-2.4272
X6.1998Y-2.6997
X6.2008Y-2.8051
X6.2075Y-3.0266
X6.2126Y-2.4665
X6.2175Y-2.6724
X6.2205Y-4.0157
X6.2224Y-3.1516
X6.2303Y-3.9764
X6.2382Y-2.5935
X6.2657Y-4.5364
X6.3012Y-4.5118
X6.3091Y-2.6181
X6.311Y-2.7264
X6.313Y-2.435
X6.3159Y-2.4705
X6.3219Y-2.9439
X6.3465Y-2.9232
X6.3583Y-4.5965
X6.3642Y-2.3012
X6.378Y-2.6378
X6.3976Y-3.0217
X6.4035Y-2.8424
X6.4173Y-2.8937
X6.4705Y-2.9902
X6.5551Y-2.9508
X6.6043Y-2.6476
X6.6163Y-2.6115
X7.4821Y-2.9853
X7.4852Y-3.189
X7.5Y-2.3524
X7.5098Y-3.2185
X7.5197Y-2.9823
X7.5443Y-2.96
X7.5492Y-3.248
X7.5591Y-4.0945
X7.5591Y-4.1634
X7.5787Y-2.9823
X7.6057Y-3.2569
X7.6181Y-2.9823
X7.6322Y-2.9421
X7.6487Y-3.2489
X7.687Y-2.7854
X7.6969Y-2.2835
X7.6969Y-3.2087
X7.7559Y-2.2441
X7.7953Y-2.2933
X7.8445Y-2.3524
X7.9035Y-2.1654
X7.9429Y-2.687
X8.0284Y-2.4628
X8.0512Y-1.7717
X8.1102Y-1.6831
X8.1201Y-2.3376
X8.1402Y-2.6528
X8.1657Y-1.9305
X8.248Y-2.2933
X8.2677Y-1.8996
X8.2756Y-1.7933
X8.2972Y-1.8504
X8.2994Y-2.2533
X8.4744Y-3.7598
X8.4794Y-1.8786
X8.49Y-2.03
X8.5433Y-3.2972
X8.5807Y-1.911
X8.5906Y-3.4528
X8.5993Y-1.8411
X8.6Y-2.2378
X8.6303Y-1.7461
X8.6322Y-1.8207
X8.6339Y-3.8681
X8.6349Y-3.3224
X8.6516Y-3.685
X8.6614Y-1.8374
X8.6846Y-1.9189
X8.7106Y-3.6909
X8.7209Y-3.4972
X8.7217Y-2.3339
X8.7325Y-3.4679
X8.736Y-1.8228
X8.751Y-1.7466
X8.7534Y-3.4995
X8.7795Y-3.9843
X8.7858Y-1.9575
X8.7885Y-1.9989
X8.7972Y-3.5413
X8.8011Y-1.7912
X8.8052Y-3.4767
X8.8091Y-2.4016
X8.8287Y-2.1063
X8.8306Y-3.499
X8.8397Y-3.4689
X8.8445Y-3.685
X8.8504Y-2.3142
X8.8526Y-1.9644
X8.878Y-3.376
X8.9182Y-3.688
X8.9264Y-3.5986
X8.9272Y-3.376
X8.9311Y-1.6283
X8.9567Y-3.4606
X8.9567Y-3.5039
X9.0Y-3.2953
X9.0059Y-4.3602
X9.0303Y-1.6291
X9.0354Y-4.1043
X9.0453Y-3.7539
X9.065Y-2.0079
X9.0669Y-3.5472
X9.0827Y-3.7343
X9.187Y-4.0197
X9.187Y-4.0453
X9.187Y-4.0728
X9.1949Y-3.4193
X9.1988Y-3.4823
X9.1988Y-3.6516
X9.2028Y-3.5728
X9.2382Y-3.3327
X9.2382Y-3.3898
X9.2441Y-3.7106
X9.2461Y-3.8327
X9.3087Y-2.4972
X9.4461Y-2.7331
X9.4783Y-3.8602
X9.4902Y-4.1437
X9.4976Y-2.4744
X9.5374Y-4.1988
X9.6634Y-4.1063
X9.6673Y-1.7642
X9.6673Y-4.1909
X9.687Y-2.3606
X9.6933Y-1.6008
X9.8268Y-4.6122
X9.8776Y-2.5713
X9.8894Y-2.3217
X9.9307Y-2.5339
X9.9346Y-2.3681
X9.9819Y-2.285
X10.0177Y-4.2697
X10.0551Y-4.1693
X10.0717Y-2.2768
T3
X4.8327Y-3.0846
X4.8346Y-2.9469
X4.9331Y-3.0827
X4.9383Y-2.9419
X5.0335Y-2.9242
X5.0335Y-3.0846
X5.1339Y-3.0846
X5.1466Y-2.9301
X5.5807Y-2.4409
X5.7776Y-3.1693
X5.9744Y-2.6476
X6.0133Y-2.5684
X6.0138Y-2.6083
X6.0531Y-3.4154
X6.1614Y-2.8248
X6.2402Y-3.4154
X6.2473Y-2.3475
X6.3248Y-2.777
X6.4232Y-2.4783
X6.4646Y-3.8346
X6.4685Y-4.1594
X6.4705Y-3.5177
X6.5157Y-2.8268
X6.5256Y-1.752
X6.5945Y-2.5787
X6.6122Y-2.7776
X6.6339Y-3.5827
X6.6348Y-2.0663
X6.6476Y-1.7677
X6.6476Y-1.8642
X6.6476Y-1.9665
X6.6535Y-1.7028
X6.6575Y-3.8366
X6.6614Y-4.1575
X6.6654Y-3.5197
X6.6831Y-2.1555
X6.6929Y-1.939
X6.7106Y-2.8268
X6.7116Y-2.02
X6.7126Y-1.8209
X6.7717Y-2.1949
X6.7815Y-1.811
X6.7815Y-1.9193
X6.7815Y-2.065
X6.7835Y-1.7677
X6.7835Y-1.8661
X6.7835Y-1.9685
X6.7864Y-2.0177
X6.8051Y-2.4764
X6.8504Y-2.7067
X6.8602Y-3.5433
X6.8602Y-3.6516
X6.8602Y-3.937
X6.8996Y-2.5551
X6.9001Y-2.1068
X6.9685Y-3.4744
X6.9783Y-3.2185
X7.0443Y-2.6049
X7.0472Y-2.5591
X7.0571Y-2.6575
X7.0768Y-2.2441
X7.2028Y-3.9252
X7.2028Y-4.124
X7.2028Y-4.2244
X7.2067Y-4.0236
X7.2146Y-2.5295
X7.2364Y-2.4968
X7.2638Y-2.8071
X7.2736Y-1.8602
X7.2736Y-2.0866
X7.2736Y-2.6575
X7.3366Y-3.9252
X7.3366Y-4.0236
X7.3386Y-4.122
X7.3406Y-4.2244
X7.4006Y-2.4719
X7.4311Y-3.8386
X7.4508Y-3.9469
X7.4508Y-4.0453
X7.4902Y-3.7205
X7.5295Y-3.75
X7.5787Y-3.8976
X7.6083Y-3.8091
X7.6088Y-3.7692
X7.6324Y-2.5645
X7.6358Y-2.4587
X7.6378Y-2.6575
X7.6378Y-2.7598
X7.6939Y-2.5453
X7.7559Y-2.6083
X7.7717Y-2.6594
X7.7736Y-2.4587
X7.7736Y-2.5571
X7.7736Y-2.7598
X7.7756Y-2.4114
X7.8346Y-3.8386
X7.874Y-3.8386
X7.9134Y-3.8386
X7.9636Y-3.8386
X7.9724Y-2.0276
X8.0118Y-1.998
X8.1004Y-2.0965
X8.1437Y-2.5098
X8.1693Y-2.2244
X8.2972Y-3.8209
X8.5433Y-3.3465
X8.6319Y-3.9469
X8.6516Y-3.1988
X8.6544Y-3.7631
X9.8209Y-3.9213
X9.9528Y-3.8268
X10.0689Y-4.0472
X10.152Y-3.9968
T4
X5.25Y-2.3051
X5.3228Y-2.3051
X5.3642Y-2.1654
X5.5039Y-2.2461
X5.5079Y-2.189
X5.5439Y-2.9434
X5.5498Y-2.8283
X5.6988Y-2.5157
X5.7008Y-2.4685
X5.7421Y-2.5157
X5.748Y-2.4724
X6.0276Y-2.1969
X6.1713Y-2.1988
X7.1063Y-1.9488
X7.185Y-1.874
X7.3602Y-3.6398
X7.3642Y-3.5177
X7.3941Y-3.8147
X7.5197Y-1.7972
X7.5217Y-1.7303
X8.3346Y-1.8701
X8.3346Y-2.0079
X8.3587Y-2.3173
X8.4055Y-2.3181
X8.435Y-1.8701
X8.4362Y-1.997
X8.4709Y-2.7165
X8.5335Y-3.9921
X8.5335Y-4.122
X8.6339Y-4.126
X8.6347Y-3.9969
X8.65Y-2.7004
X8.7134Y-2.7965
X9.439Y-3.7283
X10.3012Y-4.4764
X10.4091Y-2.222
X10.502Y-2.1642
X10.301Y-4.1341
X10.301Y-4.1971
X10.301Y-4.2601
X10.348Y-4.2291
X10.349Y-4.1651
T5
X9.4394Y-3.1147
X9.4394Y-3.1947
X9.4394Y-3.2747
X9.4394Y-3.4347
X9.4394Y-3.5147
X9.4394Y-3.5947
X9.5394Y-3.1547
X9.5394Y-3.2347
X9.5394Y-3.3147
X9.5394Y-3.3947
X9.5394Y-3.4747
X9.5394Y-3.5547
X9.8189Y-3.1343
X9.8232Y-3.574
X9.8764Y-3.1339
X9.8807Y-3.5736
T6
X7.0709Y-3.7835
X7.1004Y-1.7972
X7.126Y-3.628
X7.185Y-1.6614
X7.2185Y-3.3839
X7.2224Y-3.7953
X7.2244Y-3.6043
X7.685Y-3.9154
X7.6929Y-1.8248
X7.6929Y-1.9173
X7.6929Y-4.0039
X7.6949Y-4.2362
X7.7618Y-1.8248
X7.7638Y-1.9154
X7.7992Y-4.1004
X7.8307Y-1.8287
X7.8327Y-1.9134
X7.8366Y-3.563
X7.8445Y-3.6299
X7.8898Y-4.1063
X7.9016Y-3.5591
X7.9094Y-3.626
X7.9665Y-3.563
X7.9724Y-3.6299
X8.9327Y-2.4709
X9.2461Y-2.6791
X9.2598Y-4.5472
X9.374Y-4.4606
X9.4921Y-1.4961
X9.5858Y-4.6368
X9.5866Y-4.4587
X9.6547Y-2.8996
X9.8693Y-2.8996
X10.2937Y-1.9232
X5.7441Y-3.4016
X5.7441Y-3.9921
T7
X9.3394Y-3.1147
X9.3394Y-3.2147
X9.3394Y-3.4947
X9.3394Y-3.5947
T8
X7.1555Y-1.3189
X7.2362Y-1.3169
X7.3169Y-1.3169
X10.0354Y-2.002
X10.2441Y-2.2106
T10
X10.2644Y-3.0372
X10.2644Y-3.6722
T11
X7.2953Y-1.5236
X7.4953Y-1.5236
X7.6953Y-1.5236
X7.2953Y-4.4213
X7.4953Y-4.4213
X7.6953Y-4.4213
X8.0118Y-1.5236
X8.2118Y-1.5236
X8.4118Y-1.5236
X8.7299Y-1.5236
X8.9299Y-1.5236
X9.1299Y-1.5236
X6.5787Y-4.4173
X6.7787Y-4.4173
X6.9787Y-4.4173
X4.9961Y-3.3661
X4.9961Y-3.5661
X4.9961Y-3.7661
X4.9961Y-3.9661
X5.1465Y-1.5236
X5.3465Y-1.5236
X5.5465Y-1.5236
X5.8622Y-4.4173
X6.0622Y-4.4173
X6.2622Y-4.4173
X8.0118Y-4.4213
X8.2118Y-4.4213
X8.4118Y-4.4213
X4.9961Y-1.9787
X4.9961Y-2.1787
X4.9961Y-2.3787
X4.9961Y-2.5787
X5.8622Y-1.5236
X6.0622Y-1.5236
X6.2622Y-1.5236
X6.5795Y-1.5236
X6.7795Y-1.5236
X6.9795Y-1.5236
X5.1457Y-4.4173
X5.3457Y-4.4173
X5.5457Y-4.4173
X8.7283Y-4.4213
X8.9283Y-4.4213
X9.1283Y-4.4213
T12
X10.4213Y-4.5866
X4.8307Y-1.3583
X4.8307Y-4.5866
X10.4213Y-1.3583
T4
G00X10.5236Y-4.0531
M15
G01X10.4764Y-4.0531
M16
G05
G00X10.5236Y-4.3401
M15
G01X10.4764Y-4.3401
M16
G05
T9
G00X10.0374Y-2.7067
M15
G01X10.0374Y-2.628
M16
G05
G00X10.1949Y-2.4823
M15
G01X10.1161Y-2.4823
M16
G05
G00X10.2736Y-2.7067
M15
G01X10.2736Y-2.628
M16
G05
T0
M30
