G04 #@! TF.GenerationSoftware,KiCad,Pcbnew,5.1.7-a382d34a8~88~ubuntu20.04.1*
G04 #@! TF.CreationDate,2021-01-03T10:10:37-06:00*
G04 #@! TF.ProjectId,access-controller,61636365-7373-42d6-936f-6e74726f6c6c,rev?*
G04 #@! TF.SameCoordinates,Original*
G04 #@! TF.FileFunction,Copper,L4,Bot*
G04 #@! TF.FilePolarity,Positive*
%FSLAX46Y46*%
G04 Gerber Fmt 4.6, Leading zero omitted, Abs format (unit mm)*
G04 Created by KiCad (PCBNEW 5.1.7-a382d34a8~88~ubuntu20.04.1) date 2021-01-03 10:10:37*
%MOMM*%
%LPD*%
G01*
G04 APERTURE LIST*
G04 #@! TA.AperFunction,ComponentPad*
%ADD10R,1.800000X1.800000*%
G04 #@! TD*
G04 #@! TA.AperFunction,ComponentPad*
%ADD11C,2.000000*%
G04 #@! TD*
G04 #@! TA.AperFunction,ComponentPad*
%ADD12C,1.800000*%
G04 #@! TD*
G04 #@! TA.AperFunction,ComponentPad*
%ADD13C,3.000000*%
G04 #@! TD*
G04 #@! TA.AperFunction,ComponentPad*
%ADD14O,2.900000X1.700000*%
G04 #@! TD*
G04 #@! TA.AperFunction,ComponentPad*
%ADD15O,1.300000X1.000000*%
G04 #@! TD*
G04 #@! TA.AperFunction,WasherPad*
%ADD16C,5.000000*%
G04 #@! TD*
G04 #@! TA.AperFunction,ComponentPad*
%ADD17C,1.600000*%
G04 #@! TD*
G04 #@! TA.AperFunction,ComponentPad*
%ADD18R,1.600000X1.600000*%
G04 #@! TD*
G04 #@! TA.AperFunction,ComponentPad*
%ADD19O,1.800000X3.600000*%
G04 #@! TD*
G04 #@! TA.AperFunction,ComponentPad*
%ADD20O,3.600000X1.800000*%
G04 #@! TD*
G04 #@! TA.AperFunction,ComponentPad*
%ADD21C,1.750000*%
G04 #@! TD*
G04 #@! TA.AperFunction,ComponentPad*
%ADD22C,0.800000*%
G04 #@! TD*
G04 #@! TA.AperFunction,ViaPad*
%ADD23C,1.000000*%
G04 #@! TD*
G04 #@! TA.AperFunction,ViaPad*
%ADD24C,1.500000*%
G04 #@! TD*
G04 #@! TA.AperFunction,ViaPad*
%ADD25C,2.000000*%
G04 #@! TD*
G04 #@! TA.AperFunction,ViaPad*
%ADD26C,0.800000*%
G04 #@! TD*
G04 #@! TA.AperFunction,ViaPad*
%ADD27C,0.500000*%
G04 #@! TD*
G04 #@! TA.AperFunction,ViaPad*
%ADD28C,0.600000*%
G04 #@! TD*
G04 #@! TA.AperFunction,ViaPad*
%ADD29C,0.400000*%
G04 #@! TD*
G04 #@! TA.AperFunction,Conductor*
%ADD30C,0.400000*%
G04 #@! TD*
G04 #@! TA.AperFunction,Conductor*
%ADD31C,0.250000*%
G04 #@! TD*
G04 #@! TA.AperFunction,Conductor*
%ADD32C,0.500000*%
G04 #@! TD*
G04 #@! TA.AperFunction,Conductor*
%ADD33C,1.000000*%
G04 #@! TD*
G04 #@! TA.AperFunction,Conductor*
%ADD34C,2.000000*%
G04 #@! TD*
G04 APERTURE END LIST*
D10*
X228800000Y-80000000D03*
D11*
X241750000Y-80920000D03*
D12*
X231340000Y-78730000D03*
X228800000Y-77460000D03*
X231340000Y-76190000D03*
X228800000Y-74920000D03*
X231340000Y-73650000D03*
X228800000Y-72380000D03*
X228800000Y-69840000D03*
X231340000Y-68570000D03*
D11*
X241750000Y-78380000D03*
X241750000Y-70200000D03*
X241750000Y-67660000D03*
D13*
X234640000Y-82040000D03*
X234640000Y-66540000D03*
D12*
X231340000Y-71110000D03*
G04 #@! TA.AperFunction,ComponentPad*
G36*
G01*
X240250000Y-46550000D02*
X240250000Y-48050000D01*
G75*
G02*
X239500000Y-48800000I-750000J0D01*
G01*
X236500000Y-48800000D01*
G75*
G02*
X235750000Y-48050000I0J750000D01*
G01*
X235750000Y-46550000D01*
G75*
G02*
X236500000Y-45800000I750000J0D01*
G01*
X239500000Y-45800000D01*
G75*
G02*
X240250000Y-46550000I0J-750000D01*
G01*
G37*
G04 #@! TD.AperFunction*
G04 #@! TA.AperFunction,ComponentPad*
G36*
G01*
X242500000Y-50500000D02*
X242500000Y-53500000D01*
G75*
G02*
X241750000Y-54250000I-750000J0D01*
G01*
X240250000Y-54250000D01*
G75*
G02*
X239500000Y-53500000I0J750000D01*
G01*
X239500000Y-50500000D01*
G75*
G02*
X240250000Y-49750000I750000J0D01*
G01*
X241750000Y-49750000D01*
G75*
G02*
X242500000Y-50500000I0J-750000D01*
G01*
G37*
G04 #@! TD.AperFunction*
G04 #@! TA.AperFunction,ComponentPad*
G36*
G01*
X236500000Y-50500000D02*
X236500000Y-53500000D01*
G75*
G02*
X235750000Y-54250000I-750000J0D01*
G01*
X234250000Y-54250000D01*
G75*
G02*
X233500000Y-53500000I0J750000D01*
G01*
X233500000Y-50500000D01*
G75*
G02*
X234250000Y-49750000I750000J0D01*
G01*
X235750000Y-49750000D01*
G75*
G02*
X236500000Y-50500000I0J-750000D01*
G01*
G37*
G04 #@! TD.AperFunction*
D14*
X246900000Y-100489800D03*
X246900000Y-93200000D03*
D15*
X241845400Y-96857600D03*
X243064600Y-96044800D03*
X243039200Y-97670400D03*
X241845400Y-98457800D03*
X241845400Y-95257400D03*
D16*
X122700000Y-118800000D03*
X245700000Y-118800000D03*
X245700000Y-35800000D03*
X122700000Y-35800000D03*
D17*
X199800000Y-47000000D03*
D18*
X199800000Y-49500000D03*
X236900000Y-61600000D03*
D17*
X236900000Y-59100000D03*
G04 #@! TA.AperFunction,ComponentPad*
G36*
G01*
X129120000Y-113850000D02*
X129120000Y-110750000D01*
G75*
G02*
X129370000Y-110500000I250000J0D01*
G01*
X130670000Y-110500000D01*
G75*
G02*
X130920000Y-110750000I0J-250000D01*
G01*
X130920000Y-113850000D01*
G75*
G02*
X130670000Y-114100000I-250000J0D01*
G01*
X129370000Y-114100000D01*
G75*
G02*
X129120000Y-113850000I0J250000D01*
G01*
G37*
G04 #@! TD.AperFunction*
D19*
X135100000Y-112300000D03*
X140180000Y-112300000D03*
X145260000Y-112300000D03*
X150340000Y-112300000D03*
X155420000Y-112300000D03*
X160500000Y-112300000D03*
X165580000Y-112300000D03*
X170660000Y-112300000D03*
X175740000Y-112300000D03*
X180820000Y-112300000D03*
X185900000Y-112300000D03*
X237200000Y-112400000D03*
X232120000Y-112400000D03*
X227040000Y-112400000D03*
G04 #@! TA.AperFunction,ComponentPad*
G36*
G01*
X221060000Y-113950000D02*
X221060000Y-110850000D01*
G75*
G02*
X221310000Y-110600000I250000J0D01*
G01*
X222610000Y-110600000D01*
G75*
G02*
X222860000Y-110850000I0J-250000D01*
G01*
X222860000Y-113950000D01*
G75*
G02*
X222610000Y-114200000I-250000J0D01*
G01*
X221310000Y-114200000D01*
G75*
G02*
X221060000Y-113950000I0J250000D01*
G01*
G37*
G04 #@! TD.AperFunction*
G04 #@! TA.AperFunction,ComponentPad*
G36*
G01*
X125450000Y-50500000D02*
X128550000Y-50500000D01*
G75*
G02*
X128800000Y-50750000I0J-250000D01*
G01*
X128800000Y-52050000D01*
G75*
G02*
X128550000Y-52300000I-250000J0D01*
G01*
X125450000Y-52300000D01*
G75*
G02*
X125200000Y-52050000I0J250000D01*
G01*
X125200000Y-50750000D01*
G75*
G02*
X125450000Y-50500000I250000J0D01*
G01*
G37*
G04 #@! TD.AperFunction*
D20*
X127000000Y-56480000D03*
X127000000Y-61560000D03*
X127000000Y-66640000D03*
G04 #@! TA.AperFunction,ComponentPad*
G36*
G01*
X196120000Y-113850000D02*
X196120000Y-110750000D01*
G75*
G02*
X196370000Y-110500000I250000J0D01*
G01*
X197670000Y-110500000D01*
G75*
G02*
X197920000Y-110750000I0J-250000D01*
G01*
X197920000Y-113850000D01*
G75*
G02*
X197670000Y-114100000I-250000J0D01*
G01*
X196370000Y-114100000D01*
G75*
G02*
X196120000Y-113850000I0J250000D01*
G01*
G37*
G04 #@! TD.AperFunction*
D19*
X202100000Y-112300000D03*
X207180000Y-112300000D03*
X212260000Y-112300000D03*
X130000000Y-38600000D03*
X135080000Y-38600000D03*
X140160000Y-38600000D03*
X145240000Y-38600000D03*
X150320000Y-38600000D03*
X155400000Y-38600000D03*
X160480000Y-38600000D03*
X165560000Y-38600000D03*
X170640000Y-38600000D03*
X175720000Y-38600000D03*
X180800000Y-38600000D03*
G04 #@! TA.AperFunction,ComponentPad*
G36*
G01*
X186780000Y-37050000D02*
X186780000Y-40150000D01*
G75*
G02*
X186530000Y-40400000I-250000J0D01*
G01*
X185230000Y-40400000D01*
G75*
G02*
X184980000Y-40150000I0J250000D01*
G01*
X184980000Y-37050000D01*
G75*
G02*
X185230000Y-36800000I250000J0D01*
G01*
X186530000Y-36800000D01*
G75*
G02*
X186780000Y-37050000I0J-250000D01*
G01*
G37*
G04 #@! TD.AperFunction*
X222100000Y-38600000D03*
X227180000Y-38600000D03*
X232260000Y-38600000D03*
G04 #@! TA.AperFunction,ComponentPad*
G36*
G01*
X238240000Y-37050000D02*
X238240000Y-40150000D01*
G75*
G02*
X237990000Y-40400000I-250000J0D01*
G01*
X236690000Y-40400000D01*
G75*
G02*
X236440000Y-40150000I0J250000D01*
G01*
X236440000Y-37050000D01*
G75*
G02*
X236690000Y-36800000I250000J0D01*
G01*
X237990000Y-36800000D01*
G75*
G02*
X238240000Y-37050000I0J-250000D01*
G01*
G37*
G04 #@! TD.AperFunction*
G04 #@! TA.AperFunction,ComponentPad*
G36*
G01*
X125350000Y-82500000D02*
X128450000Y-82500000D01*
G75*
G02*
X128700000Y-82750000I0J-250000D01*
G01*
X128700000Y-84050000D01*
G75*
G02*
X128450000Y-84300000I-250000J0D01*
G01*
X125350000Y-84300000D01*
G75*
G02*
X125100000Y-84050000I0J250000D01*
G01*
X125100000Y-82750000D01*
G75*
G02*
X125350000Y-82500000I250000J0D01*
G01*
G37*
G04 #@! TD.AperFunction*
D20*
X126900000Y-88480000D03*
X126900000Y-93560000D03*
X126900000Y-98640000D03*
D19*
X196500000Y-38600000D03*
X201580000Y-38600000D03*
X206660000Y-38600000D03*
G04 #@! TA.AperFunction,ComponentPad*
G36*
G01*
X212640000Y-37050000D02*
X212640000Y-40150000D01*
G75*
G02*
X212390000Y-40400000I-250000J0D01*
G01*
X211090000Y-40400000D01*
G75*
G02*
X210840000Y-40150000I0J250000D01*
G01*
X210840000Y-37050000D01*
G75*
G02*
X211090000Y-36800000I250000J0D01*
G01*
X212390000Y-36800000D01*
G75*
G02*
X212640000Y-37050000I0J-250000D01*
G01*
G37*
G04 #@! TD.AperFunction*
D21*
X145000000Y-86700000D03*
X145000000Y-101700000D03*
D22*
X204000000Y-62000000D03*
X205000000Y-62000000D03*
X206000000Y-62000000D03*
X204000000Y-63000000D03*
X205000000Y-63000000D03*
X206000000Y-63000000D03*
X205000000Y-64000000D03*
X204000000Y-64000000D03*
X206000000Y-64000000D03*
D23*
X175100000Y-98600000D03*
X179800000Y-98600000D03*
X168400000Y-98500000D03*
X163700000Y-98500000D03*
D24*
X147400000Y-62700000D03*
X151000000Y-66300000D03*
X147425001Y-66300001D03*
D25*
X187600000Y-59775000D03*
D24*
X226400000Y-46800000D03*
X226400000Y-48600000D03*
X228250000Y-61850000D03*
X242325000Y-62725000D03*
X244100000Y-60600000D03*
D26*
X236200000Y-86100000D03*
X238100000Y-87500000D03*
X231200000Y-88400000D03*
X240850000Y-83950000D03*
X221600000Y-76700000D03*
D27*
X237200000Y-94300000D03*
D26*
X232300000Y-106400000D03*
X242900000Y-103500000D03*
D27*
X226200000Y-103100000D03*
X226800000Y-103100000D03*
X223400000Y-101200000D03*
X218900000Y-98600000D03*
D25*
X198800000Y-102500000D03*
D28*
X210800000Y-107600000D03*
D27*
X219800000Y-81600000D03*
X219800000Y-82700000D03*
X220300000Y-82100000D03*
X219300000Y-82100000D03*
X199000000Y-77200000D03*
X199100000Y-74600000D03*
X199100000Y-72100000D03*
X199100000Y-69600000D03*
X195300000Y-69600000D03*
X195300000Y-72100000D03*
X171600000Y-83400000D03*
D28*
X212200000Y-70200000D03*
X215000000Y-72200000D03*
X214900000Y-70700000D03*
X214900000Y-68900000D03*
X220437500Y-71837500D03*
X220500000Y-73400000D03*
D27*
X195300000Y-74600000D03*
X195300000Y-77100000D03*
X202700000Y-89200000D03*
X202700000Y-91700000D03*
X198900000Y-89200000D03*
X202300000Y-52400000D03*
D23*
X183200000Y-106800000D03*
X184700000Y-108700000D03*
X191800000Y-108400000D03*
X191800000Y-96700000D03*
X192700000Y-103900000D03*
X141700000Y-58850000D03*
X139950000Y-57700000D03*
D28*
X121450000Y-73350000D03*
X124000000Y-73350000D03*
X126500000Y-73400000D03*
X129100000Y-73350000D03*
X129050000Y-77050000D03*
X126550000Y-77000000D03*
X124000000Y-77100000D03*
X121450000Y-77100000D03*
X169200000Y-53400000D03*
X169200000Y-50900000D03*
X169150000Y-48350000D03*
X169150000Y-45800000D03*
X172850000Y-45750000D03*
X172800000Y-48300000D03*
X172800000Y-50900000D03*
X172800000Y-53450000D03*
X179950000Y-49900000D03*
X178750000Y-44600000D03*
D23*
X192450000Y-45250000D03*
X190550000Y-43250000D03*
X171850000Y-70750000D03*
D28*
X184650000Y-82500000D03*
X178550000Y-78650000D03*
X175250000Y-78700000D03*
D23*
X142700000Y-78150000D03*
X155150000Y-58800000D03*
X158800000Y-58800000D03*
X156900000Y-57650000D03*
D28*
X193450000Y-113800000D03*
D29*
X211900000Y-82300000D03*
D26*
X222587660Y-77887660D03*
D28*
X223100000Y-86900000D03*
X217800000Y-49000000D03*
X217800000Y-45900000D03*
X215250000Y-45950000D03*
X215300000Y-49000000D03*
D27*
X213600000Y-43150000D03*
X210900000Y-46000000D03*
D28*
X184650237Y-83743745D03*
D23*
X213738898Y-102322156D03*
X211559296Y-102092554D03*
D25*
X198700000Y-108724990D03*
D27*
X198942261Y-91629073D03*
D25*
X204485296Y-102619605D03*
D24*
X147400000Y-69724990D03*
D23*
X162325021Y-78400000D03*
D27*
X162485201Y-83135604D03*
X202509967Y-87075010D03*
X202399989Y-84100000D03*
X198900000Y-87075010D03*
X199200011Y-84100000D03*
D28*
X184375401Y-81424599D03*
D25*
X180900010Y-59800000D03*
X194488208Y-63202278D03*
X194124990Y-57300000D03*
X198070300Y-96775010D03*
D23*
X185974990Y-106806471D03*
D27*
X222800000Y-101650000D03*
X172400000Y-83400000D03*
X222850000Y-104700000D03*
X222850000Y-105400000D03*
X225400000Y-104750000D03*
X167050000Y-83400000D03*
D23*
X213400000Y-92700000D03*
X193000000Y-48800000D03*
D28*
X168700000Y-107600000D03*
X163400000Y-107700000D03*
D24*
X190500000Y-105800000D03*
D26*
X235900000Y-99800000D03*
D23*
X214600000Y-100250000D03*
X212750000Y-98350000D03*
X204692734Y-100932296D03*
D29*
X175000000Y-67600000D03*
X204600000Y-98800000D03*
D27*
X232150000Y-98200000D03*
X230050000Y-98200000D03*
D29*
X158650000Y-75200000D03*
X158150000Y-117950000D03*
X159750000Y-95750000D03*
X158980673Y-87331961D03*
X158729238Y-84600196D03*
X161840250Y-72199933D03*
X157562403Y-115224990D03*
X157024979Y-97082249D03*
D27*
X234300000Y-105900000D03*
D29*
X158700000Y-63900000D03*
D27*
X174341709Y-68728259D03*
X233900000Y-103400000D03*
D29*
X158700000Y-62650000D03*
D27*
X171700000Y-68174968D03*
D29*
X137800000Y-79900000D03*
X138150000Y-77850000D03*
X138250000Y-72850000D03*
X158700000Y-60750000D03*
X153550000Y-60750000D03*
X229400000Y-96050000D03*
X219800000Y-106400000D03*
X218600000Y-108900000D03*
X188750000Y-110050000D03*
X142747671Y-70274990D03*
X220350000Y-102650000D03*
X223600000Y-104124990D03*
D24*
X215400000Y-50700000D03*
X217300000Y-50700000D03*
X213600000Y-50700000D03*
X190100000Y-53600000D03*
D23*
X208000000Y-107200000D03*
X204900000Y-105900000D03*
X204900000Y-104400000D03*
D27*
X203200000Y-54400000D03*
D23*
X208400000Y-48200000D03*
X208362500Y-51062500D03*
X208362500Y-54037500D03*
D27*
X171300000Y-64700000D03*
D29*
X208400000Y-57500000D03*
D23*
X192775000Y-50625000D03*
D29*
X208192373Y-63399685D03*
D23*
X185500000Y-43250000D03*
X185900000Y-47400000D03*
X183450000Y-44900000D03*
X185900000Y-53650000D03*
D28*
X217350000Y-110250000D03*
X177550000Y-118050000D03*
X176900000Y-118050000D03*
X217535668Y-114285668D03*
D27*
X178450000Y-62000000D03*
X181400000Y-53600000D03*
X181400000Y-53000000D03*
X219900000Y-45750000D03*
X172000000Y-64050000D03*
X180650000Y-52700000D03*
D29*
X182500000Y-104850000D03*
X194877759Y-95602760D03*
X203623991Y-72523642D03*
X212200000Y-57000000D03*
X166450000Y-48850000D03*
D28*
X176000000Y-43400000D03*
D27*
X205646013Y-84033626D03*
X205332326Y-78941074D03*
D29*
X181700000Y-105300000D03*
X194971232Y-96271245D03*
D27*
X207450000Y-88200000D03*
X201568004Y-91131997D03*
D28*
X136400000Y-74700000D03*
X138875010Y-74100000D03*
D29*
X196590907Y-89336134D03*
X190779544Y-80612763D03*
X175697500Y-48752500D03*
X175750000Y-52150000D03*
X191175706Y-87397070D03*
X187771705Y-84043069D03*
X176302500Y-47502500D03*
X175200000Y-54150000D03*
X133900000Y-75600000D03*
X142225256Y-73167422D03*
X131725021Y-79305643D03*
X141861317Y-74046205D03*
X187594930Y-75000000D03*
X190500000Y-76700000D03*
X178300000Y-68350000D03*
X180950000Y-66650000D03*
X130750000Y-81600000D03*
X136500000Y-69750000D03*
X131275010Y-80751803D03*
X141679022Y-71907910D03*
X214950000Y-107400000D03*
X188024272Y-80425728D03*
X178150000Y-66300000D03*
D27*
X197400000Y-51650000D03*
D29*
X195112357Y-85219879D03*
X191267351Y-80117351D03*
X221800000Y-42050000D03*
X216565000Y-45315000D03*
X205450011Y-84653383D03*
X203777288Y-78644532D03*
X190800000Y-65900000D03*
X189602708Y-66345514D03*
X195863178Y-62938665D03*
X211400000Y-54100000D03*
X195650000Y-96350000D03*
X186800000Y-105750000D03*
X214400000Y-106874990D03*
X204195306Y-79074968D03*
D27*
X203951855Y-70918217D03*
X203500000Y-69300000D03*
D29*
X191900000Y-70450000D03*
X192650000Y-72400000D03*
D28*
X134000000Y-73400000D03*
X136750000Y-70600000D03*
D29*
X176850000Y-52200000D03*
X175525021Y-49800000D03*
X156900000Y-82050000D03*
X162025021Y-82184277D03*
X156900000Y-81400000D03*
X162900000Y-82420011D03*
X161150000Y-77150000D03*
X151250000Y-71174946D03*
X153100000Y-70450000D03*
X161400000Y-76374990D03*
X196753760Y-87766496D03*
X191711073Y-79673630D03*
X191350000Y-71500000D03*
X192900000Y-74400000D03*
X155100000Y-73750000D03*
X179700000Y-76850000D03*
X183050000Y-75000000D03*
X192750000Y-68200000D03*
X159050000Y-117900000D03*
X154300000Y-80350000D03*
X158250000Y-115224990D03*
X153985445Y-87327922D03*
D23*
X210900000Y-62900000D03*
D29*
X208107616Y-62325010D03*
X209292393Y-63223639D03*
D23*
X212200000Y-63800000D03*
D27*
X208300000Y-80900000D03*
X206624979Y-80869835D03*
D29*
X207900000Y-80100000D03*
X206250000Y-80250000D03*
X154123223Y-72524979D03*
X155203761Y-74596239D03*
X158900000Y-69000000D03*
X189248506Y-86619119D03*
D27*
X159627159Y-87399578D03*
X159499955Y-83548715D03*
X161500000Y-67700000D03*
X159900000Y-65400000D03*
D29*
X220046235Y-84788590D03*
D27*
X219919574Y-78667238D03*
X160215504Y-84002517D03*
X161400000Y-88700000D03*
D29*
X157450000Y-84750000D03*
X153700000Y-70250000D03*
X157684379Y-86998846D03*
X154982576Y-75153995D03*
D28*
X217450000Y-69450000D03*
X220550000Y-68750000D03*
D29*
X216700000Y-81400000D03*
X217050000Y-77750000D03*
D28*
X217600000Y-74250000D03*
X217550000Y-71900000D03*
D29*
X216800000Y-86100000D03*
X216900000Y-77150000D03*
X213276604Y-80512396D03*
X218100000Y-79500000D03*
X219300000Y-77800000D03*
D27*
X220000000Y-87900000D03*
D29*
X219446587Y-84767699D03*
D28*
X221050000Y-78550000D03*
D29*
X224206965Y-80892479D03*
D27*
X224300000Y-76600000D03*
X223406282Y-80816036D03*
D28*
X224250000Y-75200000D03*
D29*
X216700000Y-82150000D03*
X215199978Y-82498708D03*
D27*
X223200000Y-83500000D03*
X224900000Y-82600000D03*
X224200000Y-77900000D03*
X221774818Y-79563373D03*
X224199727Y-80242475D03*
X223586813Y-82286813D03*
D24*
X187000000Y-96200000D03*
X187000000Y-94300000D03*
X187000000Y-92500000D03*
X182800000Y-101500000D03*
X187000000Y-100500000D03*
D23*
X141700000Y-60150000D03*
X137400000Y-61800000D03*
D28*
X134002033Y-82202098D03*
D27*
X190600000Y-72650000D03*
D28*
X175350000Y-77400000D03*
X178650000Y-77400000D03*
D23*
X162100000Y-73250000D03*
D29*
X200550000Y-90150000D03*
D28*
X211000000Y-76900000D03*
X215900000Y-76700000D03*
X212500000Y-76850000D03*
D27*
X190495000Y-75503136D03*
D29*
X133750000Y-78450000D03*
D27*
X194578224Y-85878627D03*
X230750000Y-103050000D03*
D29*
X229800000Y-106400000D03*
D27*
X177750000Y-57150000D03*
D23*
X166049978Y-65323003D03*
D29*
X200550000Y-89150000D03*
D27*
X177750000Y-58150000D03*
D28*
X183400000Y-81800000D03*
X175900000Y-101300000D03*
X168100000Y-91000000D03*
D27*
X179600000Y-90800000D03*
D29*
X203800000Y-59700000D03*
X199225010Y-62658615D03*
X227700000Y-94450000D03*
X227500000Y-96200000D03*
X198700000Y-63300000D03*
X204500000Y-57150000D03*
D27*
X206000000Y-58400000D03*
X206137500Y-57737500D03*
D29*
X141900000Y-63100000D03*
X149100000Y-86600000D03*
D30*
X181799999Y-74399999D02*
X181799999Y-75900000D01*
X175000000Y-67600000D02*
X181799999Y-74399999D01*
X181799999Y-75900000D02*
X193399999Y-87500000D01*
X193399999Y-87500000D02*
X193399999Y-88499999D01*
X203700000Y-98800000D02*
X204600000Y-98800000D01*
X193399999Y-88499999D02*
X203700000Y-98800000D01*
D31*
X158980673Y-87331961D02*
X158729238Y-87080526D01*
X158729238Y-87080526D02*
X158729238Y-84600196D01*
X158650000Y-75200000D02*
X161650067Y-72199933D01*
X161650067Y-72199933D02*
X161840250Y-72199933D01*
X158150000Y-117950000D02*
X157562403Y-117362403D01*
X157562403Y-117362403D02*
X157562403Y-115224990D01*
X159750000Y-95750000D02*
X158417751Y-97082249D01*
X158417751Y-97082249D02*
X157024979Y-97082249D01*
X234300000Y-105900000D02*
X231899956Y-108300044D01*
X215513371Y-108300044D02*
X215388402Y-108425013D01*
X174341709Y-69820596D02*
X174341709Y-68728259D01*
X215388402Y-108425013D02*
X213352191Y-108425013D01*
X204702200Y-99775022D02*
X203296134Y-99775022D01*
X213352191Y-108425013D02*
X204702200Y-99775022D01*
X192424977Y-88903865D02*
X192424977Y-87903864D01*
X192424977Y-87903864D02*
X174341709Y-69820596D01*
X203296134Y-99775022D02*
X192424977Y-88903865D01*
X231899956Y-108300044D02*
X215513371Y-108300044D01*
X174319990Y-68749978D02*
X174341709Y-68728259D01*
X165649978Y-68749978D02*
X174319990Y-68749978D01*
X158700000Y-63900000D02*
X160800000Y-63900000D01*
X160800000Y-63900000D02*
X165649978Y-68749978D01*
X166175032Y-62650000D02*
X171700000Y-68174968D01*
X213538591Y-107975002D02*
X204888600Y-99325011D01*
X215326971Y-107850033D02*
X215202002Y-107975002D01*
X171949999Y-67924969D02*
X171700000Y-68174968D01*
X192874988Y-88717465D02*
X192874988Y-87717465D01*
X204888600Y-99325011D02*
X203482534Y-99325011D01*
X181274988Y-76117465D02*
X181274988Y-74810534D01*
X192874988Y-87717465D02*
X181274988Y-76117465D01*
X181274988Y-74810534D02*
X174389423Y-67924969D01*
X215202002Y-107975002D02*
X213538591Y-107975002D01*
X174389423Y-67924969D02*
X171949999Y-67924969D01*
X203482534Y-99325011D02*
X192874988Y-88717465D01*
X158700000Y-62650000D02*
X166175032Y-62650000D01*
X229449967Y-107850033D02*
X215326971Y-107850033D01*
X233900000Y-103400000D02*
X229449967Y-107850033D01*
X137800000Y-78200000D02*
X138150000Y-77850000D01*
X137800000Y-79900000D02*
X137800000Y-78200000D01*
X158700000Y-60750000D02*
X153550000Y-60750000D01*
X229400000Y-96050000D02*
X229400000Y-104750000D01*
X229400000Y-104750000D02*
X227750000Y-106400000D01*
X227750000Y-106400000D02*
X219800000Y-106400000D01*
X218600000Y-108900000D02*
X201000000Y-108900000D01*
X199850000Y-110050000D02*
X188750000Y-110050000D01*
X201000000Y-108900000D02*
X199850000Y-110050000D01*
X142747671Y-71775906D02*
X142747671Y-70274990D01*
X138250000Y-72850000D02*
X141673577Y-72850000D01*
X141673577Y-72850000D02*
X142747671Y-71775906D01*
X220350000Y-102650000D02*
X222407852Y-102650000D01*
X222407852Y-102650000D02*
X223600000Y-103842148D01*
X223600000Y-103842148D02*
X223600000Y-104124990D01*
D30*
X171300000Y-64700000D02*
X178650000Y-64700000D01*
X189750000Y-53600000D02*
X190100000Y-53600000D01*
X178650000Y-64700000D02*
X189750000Y-53600000D01*
D32*
X208075009Y-61395615D02*
X207350000Y-62120624D01*
X207350000Y-62557312D02*
X208192373Y-63399685D01*
X207350000Y-62120624D02*
X207350000Y-62557312D01*
X208075009Y-61395615D02*
X208075009Y-59824991D01*
X208400000Y-59500000D02*
X208400000Y-57500000D01*
X208075009Y-59824991D02*
X208400000Y-59500000D01*
X217350000Y-114100000D02*
X217535668Y-114285668D01*
X217350000Y-110250000D02*
X217350000Y-114100000D01*
D30*
X178450000Y-62000000D02*
X176400000Y-64050000D01*
D31*
X219900000Y-45750000D02*
X218750000Y-46900000D01*
X218750000Y-46900000D02*
X202100000Y-46900000D01*
X202100000Y-46900000D02*
X200850000Y-45650000D01*
X200850000Y-45650000D02*
X198550000Y-45650000D01*
X196800000Y-47400000D02*
X185900000Y-47400000D01*
X198550000Y-45650000D02*
X196800000Y-47400000D01*
D30*
X172000000Y-64050000D02*
X176400000Y-64050000D01*
D31*
X185630519Y-104850000D02*
X194877759Y-95602760D01*
X182500000Y-104850000D02*
X185630519Y-104850000D01*
X203623991Y-72523642D02*
X206725001Y-69422632D01*
X206725001Y-69422632D02*
X206725001Y-59774999D01*
X206725001Y-59774999D02*
X207350000Y-59150000D01*
X207350000Y-59150000D02*
X207350000Y-57736812D01*
X207350000Y-57736812D02*
X208161823Y-56924989D01*
X208161823Y-56924989D02*
X212124989Y-56924989D01*
X212124989Y-56924989D02*
X212200000Y-57000000D01*
X173050000Y-43400000D02*
X176000000Y-43400000D01*
X167100000Y-48200000D02*
X168250000Y-48200000D01*
X168250000Y-48200000D02*
X173050000Y-43400000D01*
X166450000Y-48850000D02*
X167100000Y-48200000D01*
X205700000Y-79308748D02*
X205332326Y-78941074D01*
X205700000Y-84050000D02*
X205700000Y-79308748D01*
X181700000Y-105300000D02*
X181899999Y-105499999D01*
X181899999Y-105499999D02*
X185742478Y-105499999D01*
X185742478Y-105499999D02*
X194971232Y-96271245D01*
X207450000Y-88200000D02*
X204568003Y-91081997D01*
X201618004Y-91081997D02*
X201568004Y-91131997D01*
X204568003Y-91081997D02*
X201618004Y-91081997D01*
D32*
X136400000Y-74700000D02*
X138275010Y-74700000D01*
X138275010Y-74700000D02*
X138875010Y-74100000D01*
D31*
X196590907Y-89012021D02*
X190779544Y-83200658D01*
X190779544Y-83200658D02*
X190779544Y-80612763D01*
X196590907Y-89336134D02*
X196590907Y-89012021D01*
X175000011Y-51400011D02*
X175750000Y-52150000D01*
X175697500Y-48752500D02*
X175000011Y-49449989D01*
X175000011Y-49449989D02*
X175000011Y-51400011D01*
X191125706Y-87397070D02*
X191175706Y-87397070D01*
X187771705Y-84043069D02*
X191125706Y-87397070D01*
X176302500Y-47502500D02*
X175947500Y-47502500D01*
X175947500Y-47502500D02*
X174550000Y-48900000D01*
X174550000Y-48900000D02*
X174550000Y-51800000D01*
X175200000Y-52450000D02*
X175200000Y-54150000D01*
X174550000Y-51800000D02*
X175200000Y-52450000D01*
X133900000Y-75600000D02*
X139530518Y-75600000D01*
X142025257Y-73367421D02*
X142225256Y-73167422D01*
X141763097Y-73367421D02*
X142025257Y-73367421D01*
X139530518Y-75600000D02*
X141763097Y-73367421D01*
X134930664Y-76100000D02*
X139807522Y-76100000D01*
X139807522Y-76100000D02*
X141861317Y-74046205D01*
X131725021Y-79305643D02*
X134930664Y-76100000D01*
X189294930Y-76700000D02*
X190500000Y-76700000D01*
X187594930Y-75000000D02*
X189294930Y-76700000D01*
X180000000Y-66650000D02*
X180950000Y-66650000D01*
X178300000Y-68350000D02*
X180000000Y-66650000D01*
X130750000Y-81600000D02*
X130750000Y-75250000D01*
X136250000Y-69750000D02*
X136500000Y-69750000D01*
X130750000Y-75250000D02*
X136250000Y-69750000D01*
X131275010Y-80751803D02*
X131200011Y-80676804D01*
X131200011Y-77449989D02*
X136742090Y-71907910D01*
X131200011Y-80676804D02*
X131200011Y-77449989D01*
X136742090Y-71907910D02*
X141679022Y-71907910D01*
X204517465Y-98174989D02*
X194375009Y-88032533D01*
X204767466Y-98174989D02*
X204517465Y-98174989D01*
X214950000Y-107400000D02*
X213992477Y-107400000D01*
X194375009Y-87432533D02*
X188024272Y-81081796D01*
X213992477Y-107400000D02*
X204767466Y-98174989D01*
X188024272Y-81081796D02*
X188024272Y-80425728D01*
X194375009Y-88032533D02*
X194375009Y-87432533D01*
X193600000Y-55450000D02*
X197400000Y-51650000D01*
X189000000Y-55450000D02*
X193600000Y-55450000D01*
X178150000Y-66300000D02*
X189000000Y-55450000D01*
X195112357Y-83962357D02*
X191267351Y-80117351D01*
X195112357Y-85219879D02*
X195112357Y-83962357D01*
X220300000Y-42050000D02*
X221800000Y-42050000D01*
X218000000Y-44350000D02*
X220300000Y-42050000D01*
X217530000Y-44350000D02*
X216565000Y-45315000D01*
X218000000Y-44350000D02*
X217530000Y-44350000D01*
X205450011Y-84653383D02*
X204757324Y-83960696D01*
X203977287Y-78444533D02*
X203777288Y-78644532D01*
X204452913Y-78444533D02*
X203977287Y-78444533D01*
X204757324Y-78748944D02*
X204452913Y-78444533D01*
X204757324Y-83960696D02*
X204757324Y-78748944D01*
X190354486Y-66345514D02*
X189602708Y-66345514D01*
X190800000Y-65900000D02*
X190354486Y-66345514D01*
X202392177Y-56409666D02*
X209092667Y-56409666D01*
X195863178Y-62938665D02*
X202392177Y-56409666D01*
X209092667Y-56407333D02*
X211400000Y-54100000D01*
X209092667Y-56409666D02*
X209092667Y-56407333D01*
X186800000Y-105200000D02*
X186800000Y-105750000D01*
X195650000Y-96350000D02*
X186800000Y-105200000D01*
X199900000Y-83370274D02*
X204195306Y-79074968D01*
X214400000Y-106874990D02*
X199900000Y-92374990D01*
X199900000Y-92374990D02*
X199900000Y-83370274D01*
X203951855Y-69751855D02*
X203500000Y-69300000D01*
X203951855Y-70918217D02*
X203951855Y-69751855D01*
X191900000Y-71650000D02*
X192650000Y-72400000D01*
X191900000Y-70450000D02*
X191900000Y-71650000D01*
D30*
X134000000Y-73350000D02*
X136750000Y-70600000D01*
X134000000Y-73400000D02*
X134000000Y-73350000D01*
D31*
X176850000Y-52200000D02*
X176850000Y-51124979D01*
X176850000Y-51124979D02*
X175525021Y-49800000D01*
D30*
X161890744Y-82050000D02*
X162025021Y-82184277D01*
X156900000Y-82050000D02*
X161890744Y-82050000D01*
X162162831Y-81400000D02*
X162900000Y-82137169D01*
X156900000Y-81400000D02*
X162162831Y-81400000D01*
X162900000Y-82137169D02*
X162900000Y-82420011D01*
D31*
X161150000Y-77150000D02*
X155565166Y-77150000D01*
X151250000Y-72834834D02*
X151250000Y-71174946D01*
X155565166Y-77150000D02*
X151250000Y-72834834D01*
X155426567Y-76374990D02*
X161400000Y-76374990D01*
X153100000Y-70450000D02*
X153100000Y-74048423D01*
X153100000Y-74048423D02*
X155426567Y-76374990D01*
X196753760Y-87766496D02*
X196753760Y-84716317D01*
X196753760Y-84716317D02*
X191711073Y-79673630D01*
X191350000Y-71500000D02*
X191350000Y-72000000D01*
X192900000Y-73550000D02*
X192900000Y-74400000D01*
X191350000Y-72000000D02*
X192900000Y-73550000D01*
X155100000Y-73750000D02*
X155750000Y-74400000D01*
X155750000Y-74400000D02*
X158800000Y-74400000D01*
X158800000Y-74400000D02*
X163450000Y-69750000D01*
X172600000Y-69750000D02*
X179700000Y-76850000D01*
X163450000Y-69750000D02*
X172600000Y-69750000D01*
X183050000Y-75000000D02*
X183650000Y-75000000D01*
X183650000Y-75000000D02*
X190400000Y-68250000D01*
X192700000Y-68250000D02*
X192750000Y-68200000D01*
X190400000Y-68250000D02*
X192700000Y-68250000D01*
X158250000Y-117100000D02*
X158250000Y-115224990D01*
X159050000Y-117900000D02*
X158250000Y-117100000D01*
X154300000Y-87013367D02*
X153985445Y-87327922D01*
X154300000Y-80350000D02*
X154300000Y-87013367D01*
D33*
X228800000Y-69840000D02*
X228800000Y-67800000D01*
X228800000Y-67800000D02*
X226000000Y-65000000D01*
X226000000Y-65000000D02*
X211600000Y-65000000D01*
X210900000Y-64300000D02*
X210900000Y-62900000D01*
X211600000Y-65000000D02*
X210900000Y-64300000D01*
D31*
X208107616Y-62325010D02*
X209006245Y-63223639D01*
X209006245Y-63223639D02*
X209292393Y-63223639D01*
D33*
X226570000Y-63800000D02*
X212200000Y-63800000D01*
X231340000Y-68570000D02*
X226570000Y-63800000D01*
D31*
X206655144Y-80900000D02*
X206624979Y-80869835D01*
X208300000Y-80900000D02*
X206655144Y-80900000D01*
X207900000Y-80100000D02*
X206400000Y-80100000D01*
X206400000Y-80100000D02*
X206250000Y-80250000D01*
X154123223Y-73515701D02*
X155203761Y-74596239D01*
X154123223Y-72524979D02*
X154123223Y-73515701D01*
X159182842Y-69000000D02*
X159382831Y-69199989D01*
X187246703Y-84617316D02*
X189248506Y-86619119D01*
X158900000Y-69000000D02*
X159182842Y-69000000D01*
X159382831Y-69199989D02*
X173286400Y-69199989D01*
X173650011Y-69815309D02*
X187246703Y-83412001D01*
X187246703Y-83412001D02*
X187246703Y-84617316D01*
X173650011Y-69563600D02*
X173650011Y-69815309D01*
X173286400Y-69199989D02*
X173650011Y-69563600D01*
X159627159Y-83675919D02*
X159499955Y-83548715D01*
X159627159Y-87399578D02*
X159627159Y-83675919D01*
X161500000Y-67000000D02*
X159900000Y-65400000D01*
X161500000Y-67700000D02*
X161500000Y-67000000D01*
X221300000Y-83534825D02*
X221300000Y-80047664D01*
X221300000Y-80047664D02*
X219919574Y-78667238D01*
X220046235Y-84788590D02*
X221300000Y-83534825D01*
X160215504Y-84002517D02*
X160215504Y-88065504D01*
X160215504Y-88065504D02*
X160868305Y-88718305D01*
X161381695Y-88718305D02*
X161400000Y-88700000D01*
X160868305Y-88718305D02*
X161381695Y-88718305D01*
X157450000Y-84750000D02*
X157450000Y-86764467D01*
X157450000Y-86764467D02*
X157684379Y-86998846D01*
X153700000Y-72171198D02*
X153598221Y-72272977D01*
X153598221Y-73769640D02*
X154982576Y-75153995D01*
X153598221Y-72272977D02*
X153598221Y-73769640D01*
X153700000Y-70250000D02*
X153700000Y-72171198D01*
D32*
X219850000Y-69450000D02*
X220550000Y-68750000D01*
X217450000Y-69450000D02*
X219850000Y-69450000D01*
D31*
X217050000Y-81050000D02*
X217050000Y-77750000D01*
X216700000Y-81400000D02*
X217050000Y-81050000D01*
D32*
X217600000Y-71950000D02*
X217550000Y-71900000D01*
X217600000Y-74250000D02*
X217600000Y-71950000D01*
D31*
X217225002Y-81925002D02*
X216700000Y-81400000D01*
X216800000Y-86100000D02*
X217225002Y-85674998D01*
X217225002Y-85674998D02*
X217225002Y-81925002D01*
X216900000Y-77150000D02*
X213537604Y-80512396D01*
X213537604Y-80512396D02*
X213276604Y-80512396D01*
X218100000Y-79000000D02*
X219300000Y-77800000D01*
X218100000Y-79500000D02*
X218100000Y-79000000D01*
X220000000Y-87900000D02*
X219446587Y-87346587D01*
X219446587Y-84767699D02*
X219446587Y-87346587D01*
X221050000Y-78550000D02*
X221450000Y-78950000D01*
X221450000Y-78950000D02*
X222050000Y-78950000D01*
X222050000Y-78950000D02*
X222500000Y-79400000D01*
X222500000Y-79400000D02*
X222500000Y-80750000D01*
X222500000Y-80750000D02*
X223300000Y-81550000D01*
X223549444Y-81550000D02*
X224206965Y-80892479D01*
X223300000Y-81550000D02*
X223549444Y-81550000D01*
X227250000Y-73650000D02*
X224300000Y-76600000D01*
X231340000Y-73650000D02*
X227250000Y-73650000D01*
X224300000Y-76600000D02*
X223406282Y-77493718D01*
X223406282Y-77493718D02*
X223406282Y-80816036D01*
X233763999Y-64714999D02*
X237364999Y-64714999D01*
X237364999Y-64714999D02*
X240310000Y-67660000D01*
X232814999Y-68908003D02*
X232814999Y-65663999D01*
X231928001Y-69795001D02*
X232814999Y-68908003D01*
X232814999Y-65663999D02*
X233763999Y-64714999D01*
X229534999Y-71065001D02*
X230804999Y-69795001D01*
X227960735Y-71065001D02*
X229534999Y-71065001D01*
X240310000Y-67660000D02*
X241750000Y-67660000D01*
X230804999Y-69795001D02*
X231928001Y-69795001D01*
X224250000Y-74775736D02*
X227960735Y-71065001D01*
X224250000Y-75200000D02*
X224250000Y-74775736D01*
X216497335Y-81947335D02*
X216700000Y-82150000D01*
X215751351Y-81947335D02*
X216497335Y-81947335D01*
X215751351Y-81947335D02*
X215199978Y-82498708D01*
D33*
X230070000Y-74920000D02*
X231340000Y-76190000D01*
X228800000Y-74920000D02*
X230070000Y-74920000D01*
D32*
X224000000Y-83500000D02*
X224900000Y-82600000D01*
X223200000Y-83500000D02*
X224000000Y-83500000D01*
X224900000Y-82600000D02*
X225149999Y-82350001D01*
X225149999Y-82350001D02*
X225149999Y-80680475D01*
X224711999Y-80242475D02*
X224199727Y-80242475D01*
X224200000Y-80242202D02*
X224199727Y-80242475D01*
X224200000Y-77900000D02*
X224200000Y-80242202D01*
D31*
X223233260Y-82286813D02*
X223586813Y-82286813D01*
D32*
X225149999Y-80680475D02*
X224711999Y-80242475D01*
D31*
X221774818Y-79563373D02*
X221774818Y-80828371D01*
X221774818Y-80828371D02*
X223233260Y-82286813D01*
X200550000Y-90150000D02*
X200550000Y-89150000D01*
X228808489Y-107400022D02*
X229800011Y-106408500D01*
X215202002Y-106874998D02*
X215727026Y-107400022D01*
X200550000Y-90150000D02*
X200550000Y-92272996D01*
X215152002Y-106874998D02*
X215202002Y-106874998D01*
X215727026Y-107400022D02*
X228808489Y-107400022D01*
X200550000Y-92272996D02*
X215152002Y-106874998D01*
X229800011Y-106400011D02*
X229800000Y-106400000D01*
X229800011Y-106408500D02*
X229800011Y-106400011D01*
D30*
X230750000Y-105450000D02*
X229800000Y-106400000D01*
X230750000Y-103050000D02*
X230750000Y-105450000D01*
D31*
X200841385Y-62658615D02*
X199225010Y-62658615D01*
X203800000Y-59700000D02*
X200841385Y-62658615D01*
D33*
X234640000Y-66540000D02*
X234640000Y-82040000D01*
D31*
X227700000Y-96000000D02*
X227500000Y-96200000D01*
X227700000Y-94450000D02*
X227700000Y-96000000D01*
X198700000Y-63300000D02*
X198700000Y-62200000D01*
X203750000Y-57150000D02*
X204500000Y-57150000D01*
X198700000Y-62200000D02*
X203750000Y-57150000D01*
D34*
X205000000Y-62000000D02*
X205399999Y-61600001D01*
X205399999Y-59000001D02*
X206000000Y-58400000D01*
X205399999Y-61600001D02*
X205399999Y-59000001D01*
D31*
X143700000Y-79900000D02*
X143700000Y-64900000D01*
X143700000Y-64900000D02*
X141900000Y-63100000D01*
X149100000Y-86600000D02*
X149100000Y-85300000D01*
X149100000Y-85300000D02*
X143700000Y-79900000D01*
M02*
