G04 #@! TF.GenerationSoftware,KiCad,Pcbnew,5.1.7-a382d34a8~88~ubuntu20.04.1*
G04 #@! TF.CreationDate,2021-01-04T20:08:46-06:00*
G04 #@! TF.ProjectId,access-controller,61636365-7373-42d6-936f-6e74726f6c6c,rev?*
G04 #@! TF.SameCoordinates,Original*
G04 #@! TF.FileFunction,Copper,L4,Bot*
G04 #@! TF.FilePolarity,Positive*
%FSLAX46Y46*%
G04 Gerber Fmt 4.6, Leading zero omitted, Abs format (unit mm)*
G04 Created by KiCad (PCBNEW 5.1.7-a382d34a8~88~ubuntu20.04.1) date 2021-01-04 20:08:46*
%MOMM*%
%LPD*%
G01*
G04 APERTURE LIST*
G04 #@! TA.AperFunction,ComponentPad*
%ADD10R,1.800000X1.800000*%
G04 #@! TD*
G04 #@! TA.AperFunction,ComponentPad*
%ADD11C,2.000000*%
G04 #@! TD*
G04 #@! TA.AperFunction,ComponentPad*
%ADD12C,1.800000*%
G04 #@! TD*
G04 #@! TA.AperFunction,ComponentPad*
%ADD13C,3.000000*%
G04 #@! TD*
G04 #@! TA.AperFunction,ComponentPad*
%ADD14O,2.900000X1.700000*%
G04 #@! TD*
G04 #@! TA.AperFunction,ComponentPad*
%ADD15O,1.300000X1.000000*%
G04 #@! TD*
G04 #@! TA.AperFunction,WasherPad*
%ADD16C,5.000000*%
G04 #@! TD*
G04 #@! TA.AperFunction,ComponentPad*
%ADD17C,1.600000*%
G04 #@! TD*
G04 #@! TA.AperFunction,ComponentPad*
%ADD18R,1.600000X1.600000*%
G04 #@! TD*
G04 #@! TA.AperFunction,ComponentPad*
%ADD19O,1.800000X3.600000*%
G04 #@! TD*
G04 #@! TA.AperFunction,ComponentPad*
%ADD20O,3.600000X1.800000*%
G04 #@! TD*
G04 #@! TA.AperFunction,ComponentPad*
%ADD21C,1.750000*%
G04 #@! TD*
G04 #@! TA.AperFunction,ComponentPad*
%ADD22C,0.800000*%
G04 #@! TD*
G04 #@! TA.AperFunction,ViaPad*
%ADD23C,1.000000*%
G04 #@! TD*
G04 #@! TA.AperFunction,ViaPad*
%ADD24C,1.500000*%
G04 #@! TD*
G04 #@! TA.AperFunction,ViaPad*
%ADD25C,2.000000*%
G04 #@! TD*
G04 #@! TA.AperFunction,ViaPad*
%ADD26C,0.800000*%
G04 #@! TD*
G04 #@! TA.AperFunction,ViaPad*
%ADD27C,0.600000*%
G04 #@! TD*
G04 #@! TA.AperFunction,Conductor*
%ADD28C,0.250000*%
G04 #@! TD*
G04 #@! TA.AperFunction,Conductor*
%ADD29C,0.400000*%
G04 #@! TD*
G04 #@! TA.AperFunction,Conductor*
%ADD30C,0.500000*%
G04 #@! TD*
G04 #@! TA.AperFunction,Conductor*
%ADD31C,1.000000*%
G04 #@! TD*
G04 #@! TA.AperFunction,Conductor*
%ADD32C,2.000000*%
G04 #@! TD*
G04 APERTURE END LIST*
D10*
X228800000Y-80000000D03*
D11*
X241750000Y-80920000D03*
D12*
X231340000Y-78730000D03*
X228800000Y-77460000D03*
X231340000Y-76190000D03*
X228800000Y-74920000D03*
X231340000Y-73650000D03*
X228800000Y-72380000D03*
X228800000Y-69840000D03*
X231340000Y-68570000D03*
D11*
X241750000Y-78380000D03*
X241750000Y-70200000D03*
X241750000Y-67660000D03*
D13*
X234640000Y-82040000D03*
X234640000Y-66540000D03*
D12*
X231340000Y-71110000D03*
G04 #@! TA.AperFunction,ComponentPad*
G36*
G01*
X240250000Y-46550000D02*
X240250000Y-48050000D01*
G75*
G02*
X239500000Y-48800000I-750000J0D01*
G01*
X236500000Y-48800000D01*
G75*
G02*
X235750000Y-48050000I0J750000D01*
G01*
X235750000Y-46550000D01*
G75*
G02*
X236500000Y-45800000I750000J0D01*
G01*
X239500000Y-45800000D01*
G75*
G02*
X240250000Y-46550000I0J-750000D01*
G01*
G37*
G04 #@! TD.AperFunction*
G04 #@! TA.AperFunction,ComponentPad*
G36*
G01*
X242500000Y-50500000D02*
X242500000Y-53500000D01*
G75*
G02*
X241750000Y-54250000I-750000J0D01*
G01*
X240250000Y-54250000D01*
G75*
G02*
X239500000Y-53500000I0J750000D01*
G01*
X239500000Y-50500000D01*
G75*
G02*
X240250000Y-49750000I750000J0D01*
G01*
X241750000Y-49750000D01*
G75*
G02*
X242500000Y-50500000I0J-750000D01*
G01*
G37*
G04 #@! TD.AperFunction*
G04 #@! TA.AperFunction,ComponentPad*
G36*
G01*
X236500000Y-50500000D02*
X236500000Y-53500000D01*
G75*
G02*
X235750000Y-54250000I-750000J0D01*
G01*
X234250000Y-54250000D01*
G75*
G02*
X233500000Y-53500000I0J750000D01*
G01*
X233500000Y-50500000D01*
G75*
G02*
X234250000Y-49750000I750000J0D01*
G01*
X235750000Y-49750000D01*
G75*
G02*
X236500000Y-50500000I0J-750000D01*
G01*
G37*
G04 #@! TD.AperFunction*
D14*
X246900000Y-100489800D03*
X246900000Y-93200000D03*
D15*
X241845400Y-96857600D03*
X243064600Y-96044800D03*
X243039200Y-97670400D03*
X241845400Y-98457800D03*
X241845400Y-95257400D03*
D16*
X122200000Y-117000000D03*
X245200000Y-117000000D03*
X245200000Y-34000000D03*
X122200000Y-34000000D03*
D17*
X199800000Y-47000000D03*
D18*
X199800000Y-49500000D03*
X236900000Y-61600000D03*
D17*
X236900000Y-59100000D03*
G04 #@! TA.AperFunction,ComponentPad*
G36*
G01*
X129120000Y-113850000D02*
X129120000Y-110750000D01*
G75*
G02*
X129370000Y-110500000I250000J0D01*
G01*
X130670000Y-110500000D01*
G75*
G02*
X130920000Y-110750000I0J-250000D01*
G01*
X130920000Y-113850000D01*
G75*
G02*
X130670000Y-114100000I-250000J0D01*
G01*
X129370000Y-114100000D01*
G75*
G02*
X129120000Y-113850000I0J250000D01*
G01*
G37*
G04 #@! TD.AperFunction*
D19*
X135100000Y-112300000D03*
X140180000Y-112300000D03*
X145260000Y-112300000D03*
X150340000Y-112300000D03*
X155420000Y-112300000D03*
X160500000Y-112300000D03*
X165580000Y-112300000D03*
X170660000Y-112300000D03*
X175740000Y-112300000D03*
X180820000Y-112300000D03*
X185900000Y-112300000D03*
X237200000Y-112400000D03*
X232120000Y-112400000D03*
X227040000Y-112400000D03*
G04 #@! TA.AperFunction,ComponentPad*
G36*
G01*
X221060000Y-113950000D02*
X221060000Y-110850000D01*
G75*
G02*
X221310000Y-110600000I250000J0D01*
G01*
X222610000Y-110600000D01*
G75*
G02*
X222860000Y-110850000I0J-250000D01*
G01*
X222860000Y-113950000D01*
G75*
G02*
X222610000Y-114200000I-250000J0D01*
G01*
X221310000Y-114200000D01*
G75*
G02*
X221060000Y-113950000I0J250000D01*
G01*
G37*
G04 #@! TD.AperFunction*
G04 #@! TA.AperFunction,ComponentPad*
G36*
G01*
X125450000Y-50500000D02*
X128550000Y-50500000D01*
G75*
G02*
X128800000Y-50750000I0J-250000D01*
G01*
X128800000Y-52050000D01*
G75*
G02*
X128550000Y-52300000I-250000J0D01*
G01*
X125450000Y-52300000D01*
G75*
G02*
X125200000Y-52050000I0J250000D01*
G01*
X125200000Y-50750000D01*
G75*
G02*
X125450000Y-50500000I250000J0D01*
G01*
G37*
G04 #@! TD.AperFunction*
D20*
X127000000Y-56480000D03*
X127000000Y-61560000D03*
X127000000Y-66640000D03*
G04 #@! TA.AperFunction,ComponentPad*
G36*
G01*
X196120000Y-113850000D02*
X196120000Y-110750000D01*
G75*
G02*
X196370000Y-110500000I250000J0D01*
G01*
X197670000Y-110500000D01*
G75*
G02*
X197920000Y-110750000I0J-250000D01*
G01*
X197920000Y-113850000D01*
G75*
G02*
X197670000Y-114100000I-250000J0D01*
G01*
X196370000Y-114100000D01*
G75*
G02*
X196120000Y-113850000I0J250000D01*
G01*
G37*
G04 #@! TD.AperFunction*
D19*
X202100000Y-112300000D03*
X207180000Y-112300000D03*
X212260000Y-112300000D03*
X130000000Y-38600000D03*
X135080000Y-38600000D03*
X140160000Y-38600000D03*
X145240000Y-38600000D03*
X150320000Y-38600000D03*
X155400000Y-38600000D03*
X160480000Y-38600000D03*
X165560000Y-38600000D03*
X170640000Y-38600000D03*
X175720000Y-38600000D03*
X180800000Y-38600000D03*
G04 #@! TA.AperFunction,ComponentPad*
G36*
G01*
X186780000Y-37050000D02*
X186780000Y-40150000D01*
G75*
G02*
X186530000Y-40400000I-250000J0D01*
G01*
X185230000Y-40400000D01*
G75*
G02*
X184980000Y-40150000I0J250000D01*
G01*
X184980000Y-37050000D01*
G75*
G02*
X185230000Y-36800000I250000J0D01*
G01*
X186530000Y-36800000D01*
G75*
G02*
X186780000Y-37050000I0J-250000D01*
G01*
G37*
G04 #@! TD.AperFunction*
X222100000Y-38600000D03*
X227180000Y-38600000D03*
X232260000Y-38600000D03*
G04 #@! TA.AperFunction,ComponentPad*
G36*
G01*
X238240000Y-37050000D02*
X238240000Y-40150000D01*
G75*
G02*
X237990000Y-40400000I-250000J0D01*
G01*
X236690000Y-40400000D01*
G75*
G02*
X236440000Y-40150000I0J250000D01*
G01*
X236440000Y-37050000D01*
G75*
G02*
X236690000Y-36800000I250000J0D01*
G01*
X237990000Y-36800000D01*
G75*
G02*
X238240000Y-37050000I0J-250000D01*
G01*
G37*
G04 #@! TD.AperFunction*
G04 #@! TA.AperFunction,ComponentPad*
G36*
G01*
X125350000Y-82500000D02*
X128450000Y-82500000D01*
G75*
G02*
X128700000Y-82750000I0J-250000D01*
G01*
X128700000Y-84050000D01*
G75*
G02*
X128450000Y-84300000I-250000J0D01*
G01*
X125350000Y-84300000D01*
G75*
G02*
X125100000Y-84050000I0J250000D01*
G01*
X125100000Y-82750000D01*
G75*
G02*
X125350000Y-82500000I250000J0D01*
G01*
G37*
G04 #@! TD.AperFunction*
D20*
X126900000Y-88480000D03*
X126900000Y-93560000D03*
X126900000Y-98640000D03*
D19*
X196500000Y-38600000D03*
X201580000Y-38600000D03*
X206660000Y-38600000D03*
G04 #@! TA.AperFunction,ComponentPad*
G36*
G01*
X212640000Y-37050000D02*
X212640000Y-40150000D01*
G75*
G02*
X212390000Y-40400000I-250000J0D01*
G01*
X211090000Y-40400000D01*
G75*
G02*
X210840000Y-40150000I0J250000D01*
G01*
X210840000Y-37050000D01*
G75*
G02*
X211090000Y-36800000I250000J0D01*
G01*
X212390000Y-36800000D01*
G75*
G02*
X212640000Y-37050000I0J-250000D01*
G01*
G37*
G04 #@! TD.AperFunction*
D21*
X145000000Y-86700000D03*
X145000000Y-101700000D03*
D22*
X204000000Y-62000000D03*
X205000000Y-62000000D03*
X206000000Y-62000000D03*
X204000000Y-63000000D03*
X205000000Y-63000000D03*
X206000000Y-63000000D03*
X205000000Y-64000000D03*
X204000000Y-64000000D03*
X206000000Y-64000000D03*
D23*
X175100000Y-98600000D03*
X179800000Y-98600000D03*
X168400000Y-98500000D03*
X163700000Y-98500000D03*
D24*
X147400000Y-62700000D03*
X151000000Y-66300000D03*
X147425001Y-66300001D03*
D25*
X187600000Y-59775000D03*
D24*
X226400000Y-46800000D03*
X226400000Y-48600000D03*
X228250000Y-61850000D03*
X242325000Y-62725000D03*
X244100000Y-60600000D03*
D26*
X236200000Y-86100000D03*
X238100000Y-87500000D03*
X231200000Y-88400000D03*
X240850000Y-83950000D03*
X221600000Y-76700000D03*
D27*
X237200000Y-94300000D03*
D26*
X232300000Y-106400000D03*
X242900000Y-103500000D03*
D27*
X226200000Y-103100000D03*
X223400000Y-101200000D03*
X218900000Y-98600000D03*
D25*
X198800000Y-102500000D03*
D27*
X210800000Y-107600000D03*
X219800000Y-81600000D03*
X219800000Y-82700000D03*
X220300000Y-82100000D03*
X219300000Y-82100000D03*
X199100000Y-69600000D03*
X195300000Y-69600000D03*
X171600000Y-83400000D03*
X212200000Y-70200000D03*
X215000000Y-72200000D03*
X214900000Y-70700000D03*
X214900000Y-68900000D03*
X220437500Y-71837500D03*
X220500000Y-73400000D03*
X202700000Y-89200000D03*
X198900000Y-89200000D03*
X202300000Y-52400000D03*
D23*
X183200000Y-106800000D03*
X184700000Y-108700000D03*
X191800000Y-108400000D03*
X191800000Y-96700000D03*
X192700000Y-103900000D03*
X141700000Y-58850000D03*
X139950000Y-57700000D03*
D27*
X121450000Y-73350000D03*
X124000000Y-73350000D03*
X126500000Y-73400000D03*
X129100000Y-73350000D03*
X129050000Y-77050000D03*
X126550000Y-77000000D03*
X124000000Y-77100000D03*
X121450000Y-77100000D03*
X169200000Y-53400000D03*
X169200000Y-50900000D03*
X169150000Y-48350000D03*
X169150000Y-45800000D03*
X172850000Y-45750000D03*
X172800000Y-48300000D03*
X172800000Y-50900000D03*
X172800000Y-53450000D03*
X179950000Y-49900000D03*
X178750000Y-44600000D03*
D23*
X192450000Y-45250000D03*
X190550000Y-43250000D03*
X171850000Y-70750000D03*
D27*
X184650000Y-82500000D03*
X178550000Y-78650000D03*
X175250000Y-78700000D03*
D23*
X142700000Y-78150000D03*
X155150000Y-58800000D03*
X158800000Y-58800000D03*
X156900000Y-57650000D03*
D27*
X193450000Y-113800000D03*
X211900000Y-82300000D03*
X223100000Y-87800000D03*
X217800000Y-49000000D03*
X217800000Y-45900000D03*
X215250000Y-45950000D03*
X215300000Y-49000000D03*
X213600000Y-43150000D03*
X210900000Y-46000000D03*
X184650237Y-83743745D03*
D23*
X213738898Y-102322156D03*
X211559296Y-102092554D03*
D25*
X198700000Y-108724990D03*
D27*
X198942261Y-91629073D03*
D25*
X204485296Y-102619605D03*
D24*
X147400000Y-69724990D03*
D27*
X202509967Y-87075010D03*
X202399989Y-84100000D03*
X198900000Y-87075010D03*
X199200011Y-84100000D03*
X184375401Y-81424599D03*
D25*
X180900010Y-59800000D03*
X194488208Y-63202278D03*
X194124990Y-57300000D03*
X198070300Y-96775010D03*
D27*
X222800000Y-101650000D03*
X172400000Y-83400000D03*
X222850000Y-104700000D03*
X222850000Y-105400000D03*
X225400000Y-104750000D03*
X167050000Y-83400000D03*
D23*
X213400000Y-92700000D03*
X193000000Y-48800000D03*
D27*
X168700000Y-107600000D03*
X163400000Y-107700000D03*
X195300000Y-72100000D03*
X195200000Y-74600000D03*
X195200000Y-77200000D03*
X199100000Y-77200000D03*
X199100000Y-74700000D03*
X199100000Y-72100000D03*
X202700000Y-91800000D03*
D26*
X222574990Y-77886901D03*
D27*
X162925032Y-83132043D03*
D23*
X162455505Y-78276133D03*
X185874981Y-106806471D03*
D24*
X190500000Y-105800000D03*
D26*
X235900000Y-99800000D03*
D23*
X214600000Y-100250000D03*
X212750000Y-98350000D03*
X204692734Y-100932296D03*
D27*
X232150000Y-98200000D03*
X230050000Y-98200000D03*
X204025002Y-98700000D03*
X175000000Y-67600000D03*
X158150000Y-117950000D03*
X159750000Y-95750000D03*
X157024979Y-114687566D03*
X161862108Y-72221791D03*
X158800000Y-87500000D03*
X158600000Y-84400000D03*
X158500000Y-75200000D03*
X156900000Y-96500000D03*
X234300000Y-105900000D03*
X158700000Y-63900000D03*
X174325262Y-68744706D03*
X233900000Y-103400000D03*
X158700000Y-62650000D03*
X171700000Y-68124968D03*
X137800000Y-79900000D03*
X138250000Y-72850000D03*
X153550000Y-60750000D03*
X219800000Y-106400000D03*
X188750000Y-110050000D03*
X142900000Y-70300000D03*
X138300000Y-77700000D03*
X229400000Y-95900000D03*
X159200000Y-60750000D03*
X218600000Y-108925054D03*
X220350000Y-102650000D03*
X224100000Y-104800000D03*
D24*
X215400000Y-50700000D03*
X217300000Y-50700000D03*
X213600000Y-50700000D03*
X190100000Y-53600000D03*
D23*
X208000000Y-107200000D03*
X204900000Y-105900000D03*
X204900000Y-104400000D03*
D27*
X203200000Y-54400000D03*
D23*
X208400000Y-48200000D03*
X208362500Y-51062500D03*
X208362500Y-54037500D03*
X192775000Y-50625000D03*
D27*
X208500000Y-57400000D03*
X208000000Y-63300000D03*
X171355169Y-64750010D03*
D23*
X185500000Y-43250000D03*
X185900000Y-47400000D03*
X183450000Y-44900000D03*
X185900000Y-53650000D03*
D27*
X217350000Y-110250000D03*
X177550000Y-118050000D03*
X176900000Y-118050000D03*
X217535668Y-114285668D03*
X178450000Y-62000000D03*
X181400000Y-53600000D03*
X219900000Y-45750000D03*
X180650000Y-52700000D03*
X181900000Y-52700000D03*
X167701681Y-64079982D03*
X195647762Y-94240794D03*
X184700000Y-104900000D03*
X212200000Y-57000000D03*
X205900000Y-74500000D03*
X166450000Y-48850000D03*
X176000000Y-43400000D03*
X206200000Y-77800000D03*
X205646013Y-84046766D03*
X181700000Y-105300000D03*
X195900000Y-95000000D03*
X207450000Y-88200000D03*
X201568004Y-91131997D03*
X136400000Y-74700000D03*
X138875010Y-74100000D03*
X189500000Y-80500000D03*
X196499998Y-89272613D03*
X175400000Y-48900000D03*
X175600000Y-52800000D03*
X191900000Y-89600000D03*
X187900000Y-83500000D03*
X176302500Y-47502500D03*
X175124990Y-54229982D03*
X133700000Y-76000000D03*
X142225256Y-73224988D03*
X131900000Y-78200000D03*
X141861317Y-74149215D03*
X190600000Y-76800000D03*
X187494930Y-75200000D03*
X180950000Y-66650000D03*
X178199992Y-68350000D03*
X130750000Y-81600000D03*
X137900000Y-68100000D03*
X131323207Y-80800000D03*
X141500000Y-71900000D03*
X187800000Y-80500000D03*
X214925629Y-107349992D03*
X178150000Y-66300000D03*
X197400000Y-51650000D03*
X195112357Y-85219879D03*
X190800000Y-79800000D03*
X221800000Y-42050000D03*
X216565000Y-45315000D03*
X191100000Y-77800000D03*
X205400045Y-84808028D03*
X211400000Y-54100000D03*
X196000000Y-63600000D03*
X189600000Y-66400000D03*
X191100000Y-65900000D03*
X196100000Y-95800000D03*
X186699991Y-105750000D03*
X214400000Y-106724982D03*
X202346693Y-78779960D03*
X203951855Y-70918217D03*
X203500000Y-69300000D03*
X192650000Y-72400000D03*
X191964929Y-70438195D03*
X134000000Y-73400000D03*
X136750000Y-70600000D03*
X175612510Y-49887490D03*
X176927510Y-52200000D03*
X173600000Y-82125010D03*
X156200000Y-82100000D03*
X156600000Y-81200000D03*
X174900000Y-82100000D03*
X150900000Y-71000000D03*
X161949989Y-80245259D03*
X152300000Y-71300000D03*
X161725010Y-78959068D03*
X196500000Y-86500000D03*
X191400000Y-79100000D03*
X191339919Y-71500000D03*
X192600000Y-74900000D03*
X179700000Y-76850000D03*
X183050000Y-75000000D03*
X192750000Y-68200000D03*
X154996738Y-73925010D03*
X159050000Y-117900000D03*
X154300000Y-80350000D03*
X158250000Y-115224990D03*
X153985445Y-87327922D03*
D23*
X210900000Y-62900000D03*
X212200000Y-63800000D03*
D27*
X209292393Y-63316002D03*
X208223388Y-62470245D03*
X206628588Y-80875523D03*
X207886861Y-80891971D03*
X154400000Y-72200000D03*
X157900000Y-77400000D03*
X206200000Y-80200000D03*
X208000008Y-80100000D03*
X158900000Y-69000000D03*
X189500000Y-86800000D03*
X160200000Y-82900000D03*
X160200066Y-88100066D03*
X161500000Y-67700000D03*
X159900000Y-65400000D03*
X219919574Y-78667238D03*
X220202751Y-85474990D03*
X160600000Y-83900000D03*
X161400000Y-88725076D03*
X153700000Y-70250000D03*
X157684379Y-86998846D03*
X156100000Y-76800000D03*
X157351651Y-84745569D03*
X217450000Y-69450000D03*
X220550000Y-68750000D03*
X217050000Y-77750000D03*
X217600000Y-74250000D03*
X217550000Y-71900000D03*
X216800000Y-87000000D03*
X216900000Y-77000000D03*
X216501035Y-81109455D03*
X213223301Y-80565699D03*
X219300000Y-77774948D03*
X217900000Y-79500000D03*
X220000000Y-88800000D03*
X219300000Y-85474990D03*
X221050000Y-78550000D03*
X224170326Y-80792478D03*
X224300000Y-76600000D03*
X223300000Y-80600000D03*
X224250000Y-75200000D03*
X215353720Y-83614054D03*
X216719703Y-82199359D03*
X224900000Y-82600000D03*
X221811738Y-79597164D03*
X222700000Y-83800000D03*
X223601152Y-82227086D03*
X225700000Y-79700000D03*
X226170000Y-77550000D03*
D24*
X187000000Y-96200000D03*
X187000000Y-94300000D03*
X187000000Y-92500000D03*
X182800000Y-101500000D03*
X187000000Y-100500000D03*
D23*
X141700000Y-60150000D03*
X137400000Y-61800000D03*
D27*
X134002033Y-82202098D03*
X190600000Y-72650000D03*
X175350000Y-77400000D03*
X178650000Y-77400000D03*
D23*
X162100000Y-73250000D03*
D27*
X200550000Y-90150000D03*
X211000000Y-76900000D03*
X215900000Y-76700000D03*
X212500000Y-76850000D03*
X133750000Y-78450000D03*
X194578224Y-85878627D03*
X177750000Y-57150000D03*
D23*
X166049978Y-65323003D03*
D27*
X200550000Y-89150000D03*
X177750000Y-58150000D03*
X183400000Y-81800000D03*
X175900000Y-101300000D03*
X168100000Y-91000000D03*
X179600000Y-90800000D03*
X190545000Y-75503136D03*
X230800008Y-103041369D03*
X203800000Y-59700000D03*
X199900000Y-63100000D03*
X227585001Y-96885001D03*
X227700000Y-94100000D03*
X204500000Y-57150000D03*
X198700000Y-63300000D03*
X206000000Y-58400000D03*
X206137500Y-57737500D03*
X141900000Y-63100000D03*
X149100000Y-86600000D03*
D28*
X203600000Y-98700000D02*
X193399999Y-88499999D01*
X204025002Y-98700000D02*
X203600000Y-98700000D01*
D29*
X189500024Y-82636317D02*
X189500024Y-83600023D01*
X188390846Y-81527139D02*
X189500024Y-82636317D01*
X193399999Y-87499998D02*
X193399999Y-88499999D01*
X189500024Y-83600023D02*
X193399999Y-87499998D01*
X187427138Y-81527139D02*
X188390846Y-81527139D01*
X181799999Y-75900000D02*
X187427138Y-81527139D01*
X181799999Y-74399999D02*
X181799999Y-75900000D01*
X175000000Y-67600000D02*
X181799999Y-74399999D01*
D28*
X158150000Y-117950000D02*
X157562403Y-117362403D01*
X157562403Y-117362403D02*
X157562403Y-115224990D01*
X157562403Y-115224990D02*
X157024979Y-114687566D01*
X158650000Y-75200000D02*
X161628209Y-72221791D01*
X161628209Y-72221791D02*
X161862108Y-72221791D01*
X158729238Y-87429238D02*
X158729238Y-84600196D01*
X158800000Y-87500000D02*
X158729238Y-87429238D01*
X158729238Y-84529238D02*
X158600000Y-84400000D01*
X158729238Y-84600196D02*
X158729238Y-84529238D01*
X157650000Y-95750000D02*
X159750000Y-95750000D01*
X156900000Y-96500000D02*
X157650000Y-95750000D01*
X160800000Y-63900000D02*
X165649978Y-68749978D01*
X204702200Y-99775022D02*
X203296134Y-99775022D01*
X192424977Y-87903864D02*
X188525002Y-84003889D01*
X158700000Y-63900000D02*
X160800000Y-63900000D01*
X187023272Y-82502161D02*
X174325262Y-69804151D01*
X231899956Y-108300044D02*
X215513371Y-108300044D01*
X213352191Y-108425013D02*
X204702200Y-99775022D01*
X203296134Y-99775022D02*
X192424977Y-88903865D01*
X192424977Y-88903865D02*
X192424977Y-87903864D01*
X234300000Y-105900000D02*
X231899956Y-108300044D01*
X188525002Y-84003889D02*
X188525002Y-83040183D01*
X174325262Y-69804151D02*
X174325262Y-68744706D01*
X215513371Y-108300044D02*
X215388402Y-108425013D01*
X187986980Y-82502161D02*
X187023272Y-82502161D01*
X165649978Y-68749978D02*
X174319990Y-68749978D01*
X174319990Y-68749978D02*
X174325262Y-68744706D01*
X215388402Y-108425013D02*
X213352191Y-108425013D01*
X188525002Y-83040183D02*
X187986980Y-82502161D01*
X233900000Y-103400000D02*
X229449967Y-107850033D01*
X204888600Y-99325011D02*
X203482534Y-99325011D01*
X213538591Y-107975002D02*
X204888600Y-99325011D01*
X229449967Y-107850033D02*
X215326971Y-107850033D01*
X203482534Y-99325011D02*
X192874988Y-88717465D01*
X188975013Y-82853783D02*
X188173380Y-82052150D01*
X192874988Y-87717464D02*
X188975013Y-83817489D01*
X188975013Y-83817489D02*
X188975013Y-82853783D01*
X192874988Y-88717465D02*
X192874988Y-87717464D01*
X188173380Y-82052150D02*
X187209673Y-82052150D01*
X174289423Y-67824969D02*
X171999999Y-67824969D01*
X181274988Y-76117465D02*
X181274988Y-74810534D01*
X171999999Y-67824969D02*
X171700000Y-68124968D01*
X187209673Y-82052150D02*
X181274988Y-76117465D01*
X215202002Y-107975002D02*
X213538591Y-107975002D01*
X215326971Y-107850033D02*
X215202002Y-107975002D01*
X181274988Y-74810534D02*
X174289423Y-67824969D01*
X165357500Y-62650000D02*
X170832468Y-68124968D01*
X158700000Y-62650000D02*
X165357500Y-62650000D01*
X170832468Y-68124968D02*
X171700000Y-68124968D01*
X137800000Y-78200000D02*
X138150000Y-77850000D01*
X137800000Y-79900000D02*
X137800000Y-78200000D01*
X158700000Y-60750000D02*
X153550000Y-60750000D01*
X229400000Y-96050000D02*
X229400000Y-104750000D01*
X229400000Y-104750000D02*
X227750000Y-106400000D01*
X227750000Y-106400000D02*
X219800000Y-106400000D01*
X142900000Y-70300000D02*
X142900000Y-71623577D01*
X138250000Y-72850000D02*
X141550000Y-72850000D01*
X142776423Y-71623577D02*
X142900000Y-71623577D01*
X141550000Y-72850000D02*
X142776423Y-71623577D01*
X138150000Y-77850000D02*
X138300000Y-77700000D01*
X158700000Y-60750000D02*
X159200000Y-60750000D01*
X199850000Y-110050000D02*
X200974946Y-108925054D01*
X188750000Y-110050000D02*
X199850000Y-110050000D01*
X200974946Y-108925054D02*
X218600000Y-108925054D01*
X220350000Y-102650000D02*
X222407852Y-102650000D01*
X222407852Y-102650000D02*
X223600000Y-103842148D01*
X223600000Y-104300000D02*
X223600000Y-103842148D01*
X224100000Y-104800000D02*
X223600000Y-104300000D01*
D30*
X208500000Y-57400000D02*
X208500000Y-60970624D01*
X208500000Y-60970624D02*
X207350000Y-62120624D01*
X207350000Y-62120624D02*
X207350000Y-63059904D01*
X207759904Y-63059904D02*
X208000000Y-63300000D01*
X207350000Y-63059904D02*
X207759904Y-63059904D01*
D29*
X190100000Y-53600000D02*
X178949990Y-64750010D01*
X178949990Y-64750010D02*
X171355169Y-64750010D01*
D30*
X217350000Y-114100000D02*
X217535668Y-114285668D01*
X217350000Y-110250000D02*
X217350000Y-114100000D01*
D29*
X178450000Y-62000000D02*
X176400000Y-64050000D01*
D28*
X219900000Y-45750000D02*
X218750000Y-46900000D01*
X218750000Y-46900000D02*
X202100000Y-46900000D01*
X202100000Y-46900000D02*
X200850000Y-45650000D01*
X200850000Y-45650000D02*
X198550000Y-45650000D01*
X196800000Y-47400000D02*
X185900000Y-47400000D01*
X198550000Y-45650000D02*
X196800000Y-47400000D01*
D29*
X167701681Y-64079982D02*
X167701681Y-64098319D01*
X167750000Y-64050000D02*
X176400000Y-64050000D01*
X167701681Y-64098319D02*
X167750000Y-64050000D01*
D28*
X185038556Y-104850000D02*
X195647762Y-94240794D01*
X184988556Y-104900000D02*
X185038556Y-104850000D01*
X184700000Y-104900000D02*
X184988556Y-104900000D01*
X211900001Y-56700001D02*
X212200000Y-57000000D01*
X208274995Y-56700001D02*
X211900001Y-56700001D01*
X207350000Y-57624996D02*
X208274995Y-56700001D01*
X207350000Y-59150000D02*
X207350000Y-57624996D01*
X206725001Y-73674999D02*
X206725001Y-59774999D01*
X205900000Y-74500000D02*
X206725001Y-73674999D01*
X206725001Y-59774999D02*
X207350000Y-59150000D01*
X173050000Y-43400000D02*
X176000000Y-43400000D01*
X167100000Y-48200000D02*
X168250000Y-48200000D01*
X168250000Y-48200000D02*
X173050000Y-43400000D01*
X166450000Y-48850000D02*
X167100000Y-48200000D01*
X205700000Y-84050000D02*
X205574999Y-83924999D01*
X205574999Y-78425001D02*
X206200000Y-77800000D01*
X205574999Y-83924999D02*
X205574999Y-78425001D01*
X181999999Y-105599999D02*
X185642478Y-105599999D01*
X194971232Y-95928768D02*
X195900000Y-95000000D01*
X185642478Y-105599999D02*
X194971232Y-96271245D01*
X194971232Y-96271245D02*
X194971232Y-95928768D01*
X181700000Y-105300000D02*
X181999999Y-105599999D01*
X207450000Y-88200000D02*
X204568003Y-91081997D01*
X201618004Y-91081997D02*
X201568004Y-91131997D01*
X204568003Y-91081997D02*
X201618004Y-91081997D01*
D30*
X136400000Y-74700000D02*
X138275010Y-74700000D01*
X138275010Y-74700000D02*
X138875010Y-74100000D01*
D28*
X189500000Y-80500000D02*
X190475046Y-81475046D01*
X190475046Y-82796009D02*
X196590907Y-88911870D01*
X190475046Y-81475046D02*
X190475046Y-82796009D01*
X196590907Y-89181704D02*
X196499998Y-89272613D01*
X196590907Y-88911870D02*
X196590907Y-89181704D01*
X175225020Y-49174999D02*
X175000010Y-49400009D01*
X175275001Y-49174999D02*
X175225020Y-49174999D01*
X175400000Y-49050000D02*
X175275001Y-49174999D01*
X175400000Y-48900000D02*
X175400000Y-49050000D01*
X174987509Y-50187491D02*
X175750000Y-50949982D01*
X174987509Y-49462491D02*
X174987509Y-50187491D01*
X175000011Y-49449989D02*
X174987509Y-49462491D01*
X175750000Y-52650000D02*
X175600000Y-52800000D01*
X175750000Y-50949982D02*
X175750000Y-52650000D01*
X191125706Y-87397070D02*
X191175706Y-87397070D01*
X187771705Y-84043069D02*
X191125706Y-87397070D01*
X191125706Y-87397070D02*
X191281773Y-87397070D01*
X191281773Y-87397070D02*
X191974967Y-88090264D01*
X191900000Y-88165231D02*
X191900000Y-89600000D01*
X191974967Y-88090264D02*
X191900000Y-88165231D01*
X187771705Y-83628295D02*
X187900000Y-83500000D01*
X187771705Y-84043069D02*
X187771705Y-83628295D01*
X174537498Y-53642490D02*
X175124990Y-54229982D01*
X176302500Y-47502500D02*
X175872498Y-47502500D01*
X174537498Y-48837500D02*
X174537498Y-53642490D01*
X175872498Y-47502500D02*
X174537498Y-48837500D01*
X133700000Y-76000000D02*
X138974996Y-76000000D01*
X138974996Y-76000000D02*
X141507575Y-73467421D01*
X141982823Y-73467421D02*
X142225256Y-73224988D01*
X141507575Y-73467421D02*
X141982823Y-73467421D01*
X139560521Y-76450011D02*
X141861317Y-74149215D01*
X134886400Y-76450011D02*
X139560521Y-76450011D01*
X131900000Y-78200000D02*
X132199999Y-77900001D01*
X132199999Y-77900001D02*
X133436410Y-77900001D01*
X133436410Y-77900001D02*
X134886400Y-76450011D01*
X190500000Y-76700000D02*
X190600000Y-76800000D01*
X188994930Y-76700000D02*
X190500000Y-76700000D01*
X187494930Y-75200000D02*
X188994930Y-76700000D01*
X180950000Y-66650000D02*
X179899992Y-66650000D01*
X179899992Y-66650000D02*
X178199992Y-68350000D01*
X130450001Y-81300001D02*
X130450001Y-80748204D01*
X130450001Y-80748204D02*
X130750000Y-80448205D01*
X130750000Y-80448205D02*
X130750000Y-75250000D01*
X137600001Y-68399999D02*
X137900000Y-68100000D01*
X130750000Y-75250000D02*
X137600001Y-68399999D01*
X130750000Y-81600000D02*
X130450001Y-81300001D01*
X131275010Y-80751803D02*
X131200011Y-80676804D01*
X131200011Y-77449989D02*
X136742090Y-71907910D01*
X131200011Y-80676804D02*
X131200011Y-77449989D01*
X141492090Y-71907910D02*
X141500000Y-71900000D01*
X136742090Y-71907910D02*
X141492090Y-71907910D01*
X190025035Y-83082557D02*
X194375009Y-87432533D01*
X190025035Y-82300771D02*
X190025035Y-83082557D01*
X213692468Y-107349992D02*
X214925629Y-107349992D01*
X194375009Y-88032533D02*
X213692468Y-107349992D01*
X187800000Y-80500000D02*
X188224264Y-80500000D01*
X188224264Y-80500000D02*
X190025035Y-82300771D01*
X194375009Y-87432533D02*
X194375009Y-88032533D01*
X193600000Y-55450000D02*
X197400000Y-51650000D01*
X189000000Y-55450000D02*
X193600000Y-55450000D01*
X178150000Y-66300000D02*
X189000000Y-55450000D01*
X195112357Y-83962357D02*
X191267351Y-80117351D01*
X195112357Y-85219879D02*
X195112357Y-83962357D01*
X191117351Y-80117351D02*
X190800000Y-79800000D01*
X191267351Y-80117351D02*
X191117351Y-80117351D01*
X220300000Y-42050000D02*
X221800000Y-42050000D01*
X218000000Y-44350000D02*
X220300000Y-42050000D01*
X217530000Y-44350000D02*
X216565000Y-45315000D01*
X218000000Y-44350000D02*
X217530000Y-44350000D01*
X204757324Y-84165307D02*
X205400045Y-84808028D01*
X191100000Y-77800000D02*
X191454958Y-78154958D01*
X191454958Y-78154958D02*
X202646695Y-78154958D01*
X202646695Y-78154958D02*
X204757324Y-80265587D01*
X204757324Y-80265587D02*
X204757324Y-84165307D01*
X190600000Y-66400000D02*
X191100000Y-65900000D01*
X189600000Y-66400000D02*
X190600000Y-66400000D01*
X210238585Y-54100000D02*
X211400000Y-54100000D01*
X207928919Y-56409666D02*
X210238585Y-54100000D01*
X203190334Y-56409666D02*
X207928919Y-56409666D01*
X196000000Y-63600000D02*
X203190334Y-56409666D01*
X186699991Y-105200009D02*
X186699991Y-105750000D01*
X196100000Y-95800000D02*
X186699991Y-105200009D01*
X213975736Y-106724982D02*
X199900000Y-92649246D01*
X199900000Y-81226653D02*
X202346693Y-78779960D01*
X214400000Y-106724982D02*
X213975736Y-106724982D01*
X199900000Y-92649246D02*
X199900000Y-81226653D01*
X203951855Y-69751855D02*
X203500000Y-69300000D01*
X203951855Y-70918217D02*
X203951855Y-69751855D01*
X192650000Y-72400000D02*
X191964929Y-71714929D01*
X191964929Y-71714929D02*
X191964929Y-70438195D01*
D29*
X134000000Y-73350000D02*
X136750000Y-70600000D01*
X134000000Y-73400000D02*
X134000000Y-73350000D01*
D28*
X176927510Y-51202489D02*
X176927510Y-52200000D01*
X175525021Y-49800000D02*
X176927510Y-51202489D01*
X173524990Y-82050000D02*
X173600000Y-82125010D01*
X156900000Y-82050000D02*
X173524990Y-82050000D01*
X156250000Y-82050000D02*
X156200000Y-82100000D01*
X156900000Y-82050000D02*
X156250000Y-82050000D01*
X156600000Y-81200000D02*
X156900000Y-81500000D01*
X174300000Y-81500000D02*
X174900000Y-82100000D01*
X156900000Y-81500000D02*
X174300000Y-81500000D01*
X150900000Y-73700000D02*
X157445259Y-80245259D01*
X157445259Y-80245259D02*
X161949989Y-80245259D01*
X150900000Y-71000000D02*
X150900000Y-73700000D01*
X157334064Y-78959068D02*
X161725010Y-78959068D01*
X152300000Y-71300000D02*
X152300000Y-73925004D01*
X152300000Y-73925004D02*
X157334064Y-78959068D01*
X196500000Y-84462557D02*
X191711073Y-79673630D01*
X196500000Y-86500000D02*
X196500000Y-84462557D01*
X191711073Y-79411073D02*
X191400000Y-79100000D01*
X191711073Y-79673630D02*
X191711073Y-79411073D01*
X191339919Y-73639919D02*
X192600000Y-74900000D01*
X191339919Y-71500000D02*
X191339919Y-73639919D01*
X183050000Y-75000000D02*
X183650000Y-75000000D01*
X183650000Y-75000000D02*
X190400000Y-68250000D01*
X192700000Y-68250000D02*
X192750000Y-68200000D01*
X190400000Y-68250000D02*
X192700000Y-68250000D01*
X172600000Y-69750000D02*
X159171748Y-69750000D01*
X159171748Y-69750000D02*
X154996738Y-73925010D01*
X179700000Y-76850000D02*
X172600000Y-69750000D01*
X158250000Y-117100000D02*
X158250000Y-115224990D01*
X159050000Y-117900000D02*
X158250000Y-117100000D01*
X154300000Y-87013367D02*
X153985445Y-87327922D01*
X154300000Y-80350000D02*
X154300000Y-87013367D01*
D31*
X228800000Y-69840000D02*
X228800000Y-67800000D01*
X228800000Y-67800000D02*
X226000000Y-65000000D01*
X226000000Y-65000000D02*
X211600000Y-65000000D01*
X210900000Y-64300000D02*
X210900000Y-62900000D01*
X211600000Y-65000000D02*
X210900000Y-64300000D01*
X226570000Y-63800000D02*
X212200000Y-63800000D01*
X231340000Y-68570000D02*
X226570000Y-63800000D01*
D28*
X209292393Y-63316002D02*
X208446636Y-62470245D01*
X208446636Y-62470245D02*
X208223388Y-62470245D01*
X206630667Y-80875523D02*
X206628588Y-80875523D01*
X206655144Y-80900000D02*
X206630667Y-80875523D01*
X206628588Y-80875523D02*
X207870413Y-80875523D01*
X207870413Y-80875523D02*
X207886861Y-80891971D01*
X154400000Y-72200000D02*
X154100001Y-72499999D01*
X155050012Y-74550012D02*
X157900000Y-77400000D01*
X154100001Y-73953277D02*
X154696736Y-74550012D01*
X154696736Y-74550012D02*
X155050012Y-74550012D01*
X154100001Y-72499999D02*
X154100001Y-73953277D01*
X206200000Y-80200000D02*
X207900008Y-80200000D01*
X207900008Y-80200000D02*
X208000008Y-80100000D01*
X159524253Y-69199989D02*
X173034691Y-69199989D01*
X173034691Y-69199989D02*
X187061976Y-83227274D01*
X187061976Y-83227274D02*
X187061976Y-84361976D01*
X159324264Y-69000000D02*
X159524253Y-69199989D01*
X158900000Y-69000000D02*
X159324264Y-69000000D01*
X187061976Y-84361976D02*
X189500000Y-86800000D01*
X159627159Y-83472841D02*
X159627159Y-87527159D01*
X159627159Y-87527159D02*
X160200066Y-88100066D01*
X160200000Y-82900000D02*
X159627159Y-83472841D01*
X161500000Y-67000000D02*
X159900000Y-65400000D01*
X161500000Y-67700000D02*
X161500000Y-67000000D01*
X221300000Y-80047664D02*
X221300000Y-84377741D01*
X219919574Y-78667238D02*
X221300000Y-80047664D01*
X221300000Y-84377741D02*
X220202751Y-85474990D01*
X161400000Y-84700000D02*
X161400000Y-88725076D01*
X160600000Y-83900000D02*
X161400000Y-84700000D01*
X161388466Y-88725076D02*
X161400000Y-88725076D01*
X161381695Y-88718305D02*
X161388466Y-88725076D01*
X153700000Y-72171198D02*
X153598221Y-72272977D01*
X153598221Y-72272977D02*
X153598221Y-73769640D01*
X153700000Y-70250000D02*
X153700000Y-72171198D01*
X153598221Y-73769640D02*
X153598221Y-74298221D01*
X153598221Y-74298221D02*
X156100000Y-76800000D01*
X157351651Y-86666118D02*
X157351651Y-84745569D01*
X157684379Y-86998846D02*
X157351651Y-86666118D01*
D30*
X219850000Y-69450000D02*
X220550000Y-68750000D01*
X217450000Y-69450000D02*
X219850000Y-69450000D01*
D28*
X217050000Y-81050000D02*
X217050000Y-77750000D01*
D30*
X217600000Y-71950000D02*
X217550000Y-71900000D01*
X217600000Y-74250000D02*
X217600000Y-71950000D01*
D28*
X216900000Y-77150000D02*
X213484301Y-80565699D01*
X213484301Y-80565699D02*
X213223301Y-80565699D01*
X216990545Y-81109455D02*
X217050000Y-81050000D01*
X216501035Y-81109455D02*
X216990545Y-81109455D01*
X217425002Y-86374998D02*
X217425002Y-81609158D01*
X217425002Y-81609158D02*
X216925299Y-81109455D01*
X216800000Y-87000000D02*
X217425002Y-86374998D01*
X216925299Y-81109455D02*
X216501035Y-81109455D01*
X218100000Y-78974948D02*
X219300000Y-77774948D01*
X218100000Y-79300000D02*
X217900000Y-79500000D01*
X218100000Y-78974948D02*
X218100000Y-79300000D01*
X220000000Y-88800000D02*
X219446587Y-88246587D01*
X219300000Y-88100000D02*
X219446587Y-88246587D01*
X219300000Y-85474990D02*
X219300000Y-88100000D01*
X221050000Y-78550000D02*
X221450000Y-78950000D01*
X221450000Y-78950000D02*
X222050000Y-78950000D01*
X222050000Y-78950000D02*
X222500000Y-79400000D01*
X222500000Y-79400000D02*
X222500000Y-80750000D01*
X222500000Y-80750000D02*
X223300000Y-81550000D01*
X223300000Y-81550000D02*
X223549444Y-81550000D01*
X224170326Y-80929118D02*
X224170326Y-80792478D01*
X223549444Y-81550000D02*
X224170326Y-80929118D01*
X227250000Y-73650000D02*
X224300000Y-76600000D01*
X231340000Y-73650000D02*
X227250000Y-73650000D01*
X224300000Y-76600000D02*
X223406282Y-77493718D01*
X223300000Y-80600000D02*
X223300000Y-77600000D01*
X223300000Y-77600000D02*
X223406282Y-77493718D01*
X233763999Y-64714999D02*
X237364999Y-64714999D01*
X237364999Y-64714999D02*
X240310000Y-67660000D01*
X232814999Y-68908003D02*
X232814999Y-65663999D01*
X231928001Y-69795001D02*
X232814999Y-68908003D01*
X232814999Y-65663999D02*
X233763999Y-64714999D01*
X229534999Y-71065001D02*
X230804999Y-69795001D01*
X227960735Y-71065001D02*
X229534999Y-71065001D01*
X240310000Y-67660000D02*
X241750000Y-67660000D01*
X230804999Y-69795001D02*
X231928001Y-69795001D01*
X224250000Y-74775736D02*
X227960735Y-71065001D01*
X224250000Y-75200000D02*
X224250000Y-74775736D01*
X215353720Y-83614054D02*
X215751351Y-83216423D01*
X215751351Y-83216423D02*
X215751351Y-83167711D01*
X215751351Y-83167711D02*
X216719703Y-82199359D01*
D31*
X230070000Y-74920000D02*
X231340000Y-76190000D01*
X228800000Y-74920000D02*
X230070000Y-74920000D01*
D30*
X224000000Y-83500000D02*
X224900000Y-82600000D01*
X223200000Y-83500000D02*
X224000000Y-83500000D01*
D28*
X223000000Y-83500000D02*
X223200000Y-83500000D01*
X222700000Y-83800000D02*
X223000000Y-83500000D01*
X223102822Y-82227086D02*
X223601152Y-82227086D01*
X221811738Y-79597164D02*
X221811738Y-80936002D01*
X221811738Y-80936002D02*
X223102822Y-82227086D01*
D29*
X225700000Y-78020000D02*
X226170000Y-77550000D01*
X225700000Y-79700000D02*
X225700000Y-78020000D01*
D30*
X225199999Y-80200001D02*
X225700000Y-79700000D01*
X225199999Y-82300001D02*
X225199999Y-80200001D01*
X224900000Y-82600000D02*
X225199999Y-82300001D01*
D28*
X200550000Y-90150000D02*
X200550000Y-89150000D01*
X229800011Y-106400011D02*
X229800000Y-106400000D01*
X229800011Y-106408500D02*
X229800011Y-106400011D01*
X229800011Y-106399989D02*
X230200000Y-106000000D01*
X229800011Y-106408500D02*
X229800011Y-106399989D01*
X214376984Y-106099980D02*
X214700002Y-106099980D01*
X214700002Y-106099980D02*
X216000044Y-107400022D01*
X216000044Y-107400022D02*
X228808489Y-107400022D01*
X228808489Y-107400022D02*
X229800011Y-106408500D01*
X200550000Y-92272996D02*
X214376984Y-106099980D01*
X200550000Y-90150000D02*
X200550000Y-92272996D01*
D29*
X230800008Y-105399992D02*
X230800008Y-103041369D01*
X230200000Y-106000000D02*
X230800008Y-105399992D01*
D28*
X203800000Y-59700000D02*
X200841385Y-62658615D01*
X200341385Y-62658615D02*
X200841385Y-62658615D01*
X199900000Y-63100000D02*
X200341385Y-62658615D01*
D31*
X234640000Y-66540000D02*
X234640000Y-82040000D01*
D28*
X227700000Y-96770002D02*
X227585001Y-96885001D01*
X227700000Y-94450000D02*
X227700000Y-96770002D01*
X227700000Y-94450000D02*
X227700000Y-94100000D01*
X203750000Y-57150000D02*
X204500000Y-57150000D01*
X198700000Y-62200000D02*
X203750000Y-57150000D01*
X198700000Y-62200000D02*
X198700000Y-63300000D01*
D32*
X205000000Y-62000000D02*
X205399999Y-61600001D01*
X205399999Y-59000001D02*
X206000000Y-58400000D01*
X205399999Y-61600001D02*
X205399999Y-59000001D01*
D28*
X149100000Y-86600000D02*
X149100000Y-85300000D01*
X149100000Y-85300000D02*
X143700000Y-79900000D01*
X143700000Y-64900000D02*
X141900000Y-63100000D01*
X143700000Y-79900000D02*
X143700000Y-64900000D01*
M02*
