G04 #@! TF.GenerationSoftware,KiCad,Pcbnew,5.1.7-a382d34a8~88~ubuntu20.04.1*
G04 #@! TF.CreationDate,2021-01-04T20:08:46-06:00*
G04 #@! TF.ProjectId,access-controller,61636365-7373-42d6-936f-6e74726f6c6c,rev?*
G04 #@! TF.SameCoordinates,Original*
G04 #@! TF.FileFunction,Soldermask,Bot*
G04 #@! TF.FilePolarity,Negative*
%FSLAX46Y46*%
G04 Gerber Fmt 4.6, Leading zero omitted, Abs format (unit mm)*
G04 Created by KiCad (PCBNEW 5.1.7-a382d34a8~88~ubuntu20.04.1) date 2021-01-04 20:08:46*
%MOMM*%
%LPD*%
G01*
G04 APERTURE LIST*
%ADD10C,2.400000*%
%ADD11C,2.200000*%
%ADD12C,3.600000*%
%ADD13C,3.400000*%
%ADD14O,3.300000X2.100000*%
%ADD15O,1.700000X1.400000*%
%ADD16C,5.400000*%
%ADD17C,2.000000*%
%ADD18O,2.200000X4.000000*%
%ADD19O,4.000000X2.200000*%
%ADD20C,2.150000*%
%ADD21C,1.400000*%
%ADD22C,1.900000*%
%ADD23C,1.200000*%
%ADD24C,1.000000*%
G04 APERTURE END LIST*
G36*
G01*
X229700000Y-81100000D02*
X227900000Y-81100000D01*
G75*
G02*
X227700000Y-80900000I0J200000D01*
G01*
X227700000Y-79100000D01*
G75*
G02*
X227900000Y-78900000I200000J0D01*
G01*
X229700000Y-78900000D01*
G75*
G02*
X229900000Y-79100000I0J-200000D01*
G01*
X229900000Y-80900000D01*
G75*
G02*
X229700000Y-81100000I-200000J0D01*
G01*
G37*
D10*
X241750000Y-80920000D03*
D11*
X231340000Y-78730000D03*
X228800000Y-77460000D03*
X231340000Y-76190000D03*
X228800000Y-74920000D03*
X231340000Y-73650000D03*
X228800000Y-72380000D03*
X228800000Y-69840000D03*
X231340000Y-68570000D03*
D10*
X241750000Y-78380000D03*
X241750000Y-70200000D03*
X241750000Y-67660000D03*
D12*
X237690000Y-80000000D03*
X237690000Y-68570000D03*
D13*
X234640000Y-82040000D03*
X234640000Y-66540000D03*
D11*
X231340000Y-71110000D03*
G36*
G01*
X240450000Y-46450000D02*
X240450000Y-48150000D01*
G75*
G02*
X239600000Y-49000000I-850000J0D01*
G01*
X236400000Y-49000000D01*
G75*
G02*
X235550000Y-48150000I0J850000D01*
G01*
X235550000Y-46450000D01*
G75*
G02*
X236400000Y-45600000I850000J0D01*
G01*
X239600000Y-45600000D01*
G75*
G02*
X240450000Y-46450000I0J-850000D01*
G01*
G37*
G36*
G01*
X242700000Y-50400000D02*
X242700000Y-53600000D01*
G75*
G02*
X241850000Y-54450000I-850000J0D01*
G01*
X240150000Y-54450000D01*
G75*
G02*
X239300000Y-53600000I0J850000D01*
G01*
X239300000Y-50400000D01*
G75*
G02*
X240150000Y-49550000I850000J0D01*
G01*
X241850000Y-49550000D01*
G75*
G02*
X242700000Y-50400000I0J-850000D01*
G01*
G37*
G36*
G01*
X236700000Y-50400000D02*
X236700000Y-53600000D01*
G75*
G02*
X235850000Y-54450000I-850000J0D01*
G01*
X234150000Y-54450000D01*
G75*
G02*
X233300000Y-53600000I0J850000D01*
G01*
X233300000Y-50400000D01*
G75*
G02*
X234150000Y-49550000I850000J0D01*
G01*
X235850000Y-49550000D01*
G75*
G02*
X236700000Y-50400000I0J-850000D01*
G01*
G37*
D14*
X246900000Y-100489800D03*
X246900000Y-93200000D03*
D15*
X241845400Y-96857600D03*
X243064600Y-96044800D03*
X243039200Y-97670400D03*
X241845400Y-98457800D03*
X241845400Y-95257400D03*
D16*
X122200000Y-117000000D03*
X245200000Y-117000000D03*
X245200000Y-34000000D03*
X122200000Y-34000000D03*
D17*
X199800000Y-47000000D03*
G36*
G01*
X200600000Y-50500000D02*
X199000000Y-50500000D01*
G75*
G02*
X198800000Y-50300000I0J200000D01*
G01*
X198800000Y-48700000D01*
G75*
G02*
X199000000Y-48500000I200000J0D01*
G01*
X200600000Y-48500000D01*
G75*
G02*
X200800000Y-48700000I0J-200000D01*
G01*
X200800000Y-50300000D01*
G75*
G02*
X200600000Y-50500000I-200000J0D01*
G01*
G37*
G36*
G01*
X237700000Y-62600000D02*
X236100000Y-62600000D01*
G75*
G02*
X235900000Y-62400000I0J200000D01*
G01*
X235900000Y-60800000D01*
G75*
G02*
X236100000Y-60600000I200000J0D01*
G01*
X237700000Y-60600000D01*
G75*
G02*
X237900000Y-60800000I0J-200000D01*
G01*
X237900000Y-62400000D01*
G75*
G02*
X237700000Y-62600000I-200000J0D01*
G01*
G37*
X236900000Y-59100000D03*
G36*
G01*
X128920000Y-113994445D02*
X128920000Y-110605555D01*
G75*
G02*
X129225555Y-110300000I305555J0D01*
G01*
X130814445Y-110300000D01*
G75*
G02*
X131120000Y-110605555I0J-305555D01*
G01*
X131120000Y-113994445D01*
G75*
G02*
X130814445Y-114300000I-305555J0D01*
G01*
X129225555Y-114300000D01*
G75*
G02*
X128920000Y-113994445I0J305555D01*
G01*
G37*
D18*
X135100000Y-112300000D03*
X140180000Y-112300000D03*
X145260000Y-112300000D03*
X150340000Y-112300000D03*
X155420000Y-112300000D03*
X160500000Y-112300000D03*
X165580000Y-112300000D03*
X170660000Y-112300000D03*
X175740000Y-112300000D03*
X180820000Y-112300000D03*
X185900000Y-112300000D03*
X237200000Y-112400000D03*
X232120000Y-112400000D03*
X227040000Y-112400000D03*
G36*
G01*
X220860000Y-114094445D02*
X220860000Y-110705555D01*
G75*
G02*
X221165555Y-110400000I305555J0D01*
G01*
X222754445Y-110400000D01*
G75*
G02*
X223060000Y-110705555I0J-305555D01*
G01*
X223060000Y-114094445D01*
G75*
G02*
X222754445Y-114400000I-305555J0D01*
G01*
X221165555Y-114400000D01*
G75*
G02*
X220860000Y-114094445I0J305555D01*
G01*
G37*
G36*
G01*
X125305555Y-50300000D02*
X128694445Y-50300000D01*
G75*
G02*
X129000000Y-50605555I0J-305555D01*
G01*
X129000000Y-52194445D01*
G75*
G02*
X128694445Y-52500000I-305555J0D01*
G01*
X125305555Y-52500000D01*
G75*
G02*
X125000000Y-52194445I0J305555D01*
G01*
X125000000Y-50605555D01*
G75*
G02*
X125305555Y-50300000I305555J0D01*
G01*
G37*
D19*
X127000000Y-56480000D03*
X127000000Y-61560000D03*
X127000000Y-66640000D03*
G36*
G01*
X195920000Y-113994445D02*
X195920000Y-110605555D01*
G75*
G02*
X196225555Y-110300000I305555J0D01*
G01*
X197814445Y-110300000D01*
G75*
G02*
X198120000Y-110605555I0J-305555D01*
G01*
X198120000Y-113994445D01*
G75*
G02*
X197814445Y-114300000I-305555J0D01*
G01*
X196225555Y-114300000D01*
G75*
G02*
X195920000Y-113994445I0J305555D01*
G01*
G37*
D18*
X202100000Y-112300000D03*
X207180000Y-112300000D03*
X212260000Y-112300000D03*
X130000000Y-38600000D03*
X135080000Y-38600000D03*
X140160000Y-38600000D03*
X145240000Y-38600000D03*
X150320000Y-38600000D03*
X155400000Y-38600000D03*
X160480000Y-38600000D03*
X165560000Y-38600000D03*
X170640000Y-38600000D03*
X175720000Y-38600000D03*
X180800000Y-38600000D03*
G36*
G01*
X186980000Y-36905555D02*
X186980000Y-40294445D01*
G75*
G02*
X186674445Y-40600000I-305555J0D01*
G01*
X185085555Y-40600000D01*
G75*
G02*
X184780000Y-40294445I0J305555D01*
G01*
X184780000Y-36905555D01*
G75*
G02*
X185085555Y-36600000I305555J0D01*
G01*
X186674445Y-36600000D01*
G75*
G02*
X186980000Y-36905555I0J-305555D01*
G01*
G37*
X222100000Y-38600000D03*
X227180000Y-38600000D03*
X232260000Y-38600000D03*
G36*
G01*
X238440000Y-36905555D02*
X238440000Y-40294445D01*
G75*
G02*
X238134445Y-40600000I-305555J0D01*
G01*
X236545555Y-40600000D01*
G75*
G02*
X236240000Y-40294445I0J305555D01*
G01*
X236240000Y-36905555D01*
G75*
G02*
X236545555Y-36600000I305555J0D01*
G01*
X238134445Y-36600000D01*
G75*
G02*
X238440000Y-36905555I0J-305555D01*
G01*
G37*
G36*
G01*
X125205555Y-82300000D02*
X128594445Y-82300000D01*
G75*
G02*
X128900000Y-82605555I0J-305555D01*
G01*
X128900000Y-84194445D01*
G75*
G02*
X128594445Y-84500000I-305555J0D01*
G01*
X125205555Y-84500000D01*
G75*
G02*
X124900000Y-84194445I0J305555D01*
G01*
X124900000Y-82605555D01*
G75*
G02*
X125205555Y-82300000I305555J0D01*
G01*
G37*
D19*
X126900000Y-88480000D03*
X126900000Y-93560000D03*
X126900000Y-98640000D03*
D18*
X196500000Y-38600000D03*
X201580000Y-38600000D03*
X206660000Y-38600000D03*
G36*
G01*
X212840000Y-36905555D02*
X212840000Y-40294445D01*
G75*
G02*
X212534445Y-40600000I-305555J0D01*
G01*
X210945555Y-40600000D01*
G75*
G02*
X210640000Y-40294445I0J305555D01*
G01*
X210640000Y-36905555D01*
G75*
G02*
X210945555Y-36600000I305555J0D01*
G01*
X212534445Y-36600000D01*
G75*
G02*
X212840000Y-36905555I0J-305555D01*
G01*
G37*
D20*
X145000000Y-86700000D03*
X145000000Y-101700000D03*
G36*
G01*
X203549201Y-64399999D02*
X203549201Y-61600001D01*
G75*
G02*
X203600001Y-61549201I50800J0D01*
G01*
X206399999Y-61549201D01*
G75*
G02*
X206450799Y-61600001I0J-50800D01*
G01*
X206450799Y-64399999D01*
G75*
G02*
X206399999Y-64450799I-50800J0D01*
G01*
X203600001Y-64450799D01*
G75*
G02*
X203549201Y-64399999I0J50800D01*
G01*
G37*
D21*
X175100000Y-98600000D03*
X179800000Y-98600000D03*
X168400000Y-98500000D03*
X163700000Y-98500000D03*
D22*
X147400000Y-62700000D03*
X151000000Y-66300000D03*
X147425001Y-66300001D03*
D10*
X187600000Y-59775000D03*
D22*
X226400000Y-46800000D03*
X226400000Y-48600000D03*
X228250000Y-61850000D03*
X242325000Y-62725000D03*
X244100000Y-60600000D03*
D23*
X236200000Y-86100000D03*
X238100000Y-87500000D03*
X231200000Y-88400000D03*
X240850000Y-83950000D03*
X221600000Y-76700000D03*
D24*
X237200000Y-94300000D03*
D23*
X232300000Y-106400000D03*
X242900000Y-103500000D03*
D24*
X226200000Y-103100000D03*
X223400000Y-101200000D03*
X218900000Y-98600000D03*
D10*
X198800000Y-102500000D03*
D24*
X210800000Y-107600000D03*
X219800000Y-81600000D03*
X219800000Y-82700000D03*
X220300000Y-82100000D03*
X219300000Y-82100000D03*
X199100000Y-69600000D03*
X195300000Y-69600000D03*
X171600000Y-83400000D03*
X212200000Y-70200000D03*
X215000000Y-72200000D03*
X214900000Y-70700000D03*
X214900000Y-68900000D03*
X220437500Y-71837500D03*
X220500000Y-73400000D03*
X202700000Y-89200000D03*
X198900000Y-89200000D03*
X202300000Y-52400000D03*
D21*
X183200000Y-106800000D03*
X184700000Y-108700000D03*
X191800000Y-108400000D03*
X191800000Y-96700000D03*
X192700000Y-103900000D03*
X141700000Y-58850000D03*
X139950000Y-57700000D03*
D24*
X121450000Y-73350000D03*
X124000000Y-73350000D03*
X126500000Y-73400000D03*
X129100000Y-73350000D03*
X129050000Y-77050000D03*
X126550000Y-77000000D03*
X124000000Y-77100000D03*
X121450000Y-77100000D03*
X169200000Y-53400000D03*
X169200000Y-50900000D03*
X169150000Y-48350000D03*
X169150000Y-45800000D03*
X172850000Y-45750000D03*
X172800000Y-48300000D03*
X172800000Y-50900000D03*
X172800000Y-53450000D03*
X179950000Y-49900000D03*
X178750000Y-44600000D03*
D21*
X192450000Y-45250000D03*
X190550000Y-43250000D03*
X171850000Y-70750000D03*
D24*
X184650000Y-82500000D03*
X178550000Y-78650000D03*
X175250000Y-78700000D03*
D21*
X142700000Y-78150000D03*
X155150000Y-58800000D03*
X158800000Y-58800000D03*
X156900000Y-57650000D03*
D24*
X193450000Y-113800000D03*
X211900000Y-82300000D03*
X223100000Y-87800000D03*
X217800000Y-49000000D03*
X217800000Y-45900000D03*
X215250000Y-45950000D03*
X215300000Y-49000000D03*
X213600000Y-43150000D03*
X210900000Y-46000000D03*
X184650237Y-83743745D03*
D21*
X213738898Y-102322156D03*
X211559296Y-102092554D03*
D10*
X198700000Y-108724990D03*
D24*
X198942261Y-91629073D03*
D10*
X204485296Y-102619605D03*
D22*
X147400000Y-69724990D03*
D24*
X202509967Y-87075010D03*
X202399989Y-84100000D03*
X198900000Y-87075010D03*
X199200011Y-84100000D03*
X184375401Y-81424599D03*
D10*
X180900010Y-59800000D03*
X194488208Y-63202278D03*
X194124990Y-57300000D03*
X198070300Y-96775010D03*
D24*
X222800000Y-101650000D03*
X172400000Y-83400000D03*
X222850000Y-104700000D03*
X222850000Y-105400000D03*
X225400000Y-104750000D03*
X167050000Y-83400000D03*
D21*
X213400000Y-92700000D03*
X193000000Y-48800000D03*
D24*
X168700000Y-107600000D03*
X163400000Y-107700000D03*
X195300000Y-72100000D03*
X195200000Y-74600000D03*
X195200000Y-77200000D03*
X199100000Y-77200000D03*
X199100000Y-74700000D03*
X199100000Y-72100000D03*
X202700000Y-91800000D03*
D23*
X222574990Y-77886901D03*
D24*
X162925032Y-83132043D03*
D21*
X162455505Y-78276133D03*
X185874981Y-106806471D03*
D22*
X190500000Y-105800000D03*
D23*
X235900000Y-99800000D03*
D21*
X214600000Y-100250000D03*
X212750000Y-98350000D03*
X204692734Y-100932296D03*
D24*
X232150000Y-98200000D03*
X230050000Y-98200000D03*
X204025002Y-98700000D03*
X175000000Y-67600000D03*
X158150000Y-117950000D03*
X159750000Y-95750000D03*
X157024979Y-114687566D03*
X161862108Y-72221791D03*
X158800000Y-87500000D03*
X158600000Y-84400000D03*
X158500000Y-75200000D03*
X156900000Y-96500000D03*
X234300000Y-105900000D03*
X158700000Y-63900000D03*
X174325262Y-68744706D03*
X233900000Y-103400000D03*
X158700000Y-62650000D03*
X171700000Y-68124968D03*
X137800000Y-79900000D03*
X138250000Y-72850000D03*
X153550000Y-60750000D03*
X219800000Y-106400000D03*
X188750000Y-110050000D03*
X142900000Y-70300000D03*
X138300000Y-77700000D03*
X229400000Y-95900000D03*
X159200000Y-60750000D03*
X218600000Y-108925054D03*
X220350000Y-102650000D03*
X224100000Y-104800000D03*
D22*
X215400000Y-50700000D03*
X217300000Y-50700000D03*
X213600000Y-50700000D03*
X190100000Y-53600000D03*
D21*
X208000000Y-107200000D03*
X204900000Y-105900000D03*
X204900000Y-104400000D03*
D24*
X203200000Y-54400000D03*
D21*
X208400000Y-48200000D03*
X208362500Y-51062500D03*
X208362500Y-54037500D03*
X192775000Y-50625000D03*
D24*
X208500000Y-57400000D03*
X208000000Y-63300000D03*
X171355169Y-64750010D03*
D21*
X185500000Y-43250000D03*
X185900000Y-47400000D03*
X183450000Y-44900000D03*
X185900000Y-53650000D03*
D24*
X217350000Y-110250000D03*
X177550000Y-118050000D03*
X176900000Y-118050000D03*
X217535668Y-114285668D03*
X178450000Y-62000000D03*
X181400000Y-53600000D03*
X219900000Y-45750000D03*
X180650000Y-52700000D03*
X181900000Y-52700000D03*
X167701681Y-64079982D03*
X195647762Y-94240794D03*
X184700000Y-104900000D03*
X212200000Y-57000000D03*
X205900000Y-74500000D03*
X166450000Y-48850000D03*
X176000000Y-43400000D03*
X206200000Y-77800000D03*
X205646013Y-84046766D03*
X181700000Y-105300000D03*
X195900000Y-95000000D03*
X207450000Y-88200000D03*
X201568004Y-91131997D03*
X136400000Y-74700000D03*
X138875010Y-74100000D03*
X189500000Y-80500000D03*
X196499998Y-89272613D03*
X175400000Y-48900000D03*
X175600000Y-52800000D03*
X191900000Y-89600000D03*
X187900000Y-83500000D03*
X176302500Y-47502500D03*
X175124990Y-54229982D03*
X133700000Y-76000000D03*
X142225256Y-73224988D03*
X131900000Y-78200000D03*
X141861317Y-74149215D03*
X190600000Y-76800000D03*
X187494930Y-75200000D03*
X180950000Y-66650000D03*
X178199992Y-68350000D03*
X130750000Y-81600000D03*
X137900000Y-68100000D03*
X131323207Y-80800000D03*
X141500000Y-71900000D03*
X187800000Y-80500000D03*
X214925629Y-107349992D03*
X178150000Y-66300000D03*
X197400000Y-51650000D03*
X195112357Y-85219879D03*
X190800000Y-79800000D03*
X221800000Y-42050000D03*
X216565000Y-45315000D03*
X191100000Y-77800000D03*
X205400045Y-84808028D03*
X211400000Y-54100000D03*
X196000000Y-63600000D03*
X189600000Y-66400000D03*
X191100000Y-65900000D03*
X196100000Y-95800000D03*
X186699991Y-105750000D03*
X214400000Y-106724982D03*
X202346693Y-78779960D03*
X203951855Y-70918217D03*
X203500000Y-69300000D03*
X192650000Y-72400000D03*
X191964929Y-70438195D03*
X134000000Y-73400000D03*
X136750000Y-70600000D03*
X175612510Y-49887490D03*
X176927510Y-52200000D03*
X173600000Y-82125010D03*
X156200000Y-82100000D03*
X156600000Y-81200000D03*
X174900000Y-82100000D03*
X150900000Y-71000000D03*
X161949989Y-80245259D03*
X152300000Y-71300000D03*
X161725010Y-78959068D03*
X196500000Y-86500000D03*
X191400000Y-79100000D03*
X191339919Y-71500000D03*
X192600000Y-74900000D03*
X179700000Y-76850000D03*
X183050000Y-75000000D03*
X192750000Y-68200000D03*
X154996738Y-73925010D03*
X159050000Y-117900000D03*
X154300000Y-80350000D03*
X158250000Y-115224990D03*
X153985445Y-87327922D03*
D21*
X210900000Y-62900000D03*
X212200000Y-63800000D03*
D24*
X209292393Y-63316002D03*
X208223388Y-62470245D03*
X206628588Y-80875523D03*
X207886861Y-80891971D03*
X154400000Y-72200000D03*
X157900000Y-77400000D03*
X206200000Y-80200000D03*
X208000008Y-80100000D03*
X158900000Y-69000000D03*
X189500000Y-86800000D03*
X160200000Y-82900000D03*
X160200066Y-88100066D03*
X161500000Y-67700000D03*
X159900000Y-65400000D03*
X219919574Y-78667238D03*
X220202751Y-85474990D03*
X160600000Y-83900000D03*
X161400000Y-88725076D03*
X153700000Y-70250000D03*
X157684379Y-86998846D03*
X156100000Y-76800000D03*
X157351651Y-84745569D03*
X217450000Y-69450000D03*
X220550000Y-68750000D03*
X217050000Y-77750000D03*
X217600000Y-74250000D03*
X217550000Y-71900000D03*
X216800000Y-87000000D03*
X216900000Y-77000000D03*
X216501035Y-81109455D03*
X213223301Y-80565699D03*
X219300000Y-77774948D03*
X217900000Y-79500000D03*
X220000000Y-88800000D03*
X219300000Y-85474990D03*
X221050000Y-78550000D03*
X224170326Y-80792478D03*
X224300000Y-76600000D03*
X223300000Y-80600000D03*
X224250000Y-75200000D03*
X215353720Y-83614054D03*
X216719703Y-82199359D03*
X224900000Y-82600000D03*
X221811738Y-79597164D03*
X222700000Y-83800000D03*
X223601152Y-82227086D03*
X225700000Y-79700000D03*
X226170000Y-77550000D03*
D22*
X187000000Y-96200000D03*
X187000000Y-94300000D03*
X187000000Y-92500000D03*
X182800000Y-101500000D03*
X187000000Y-100500000D03*
D21*
X141700000Y-60150000D03*
X137400000Y-61800000D03*
D24*
X134002033Y-82202098D03*
X190600000Y-72650000D03*
X175350000Y-77400000D03*
X178650000Y-77400000D03*
D21*
X162100000Y-73250000D03*
D24*
X200550000Y-90150000D03*
X211000000Y-76900000D03*
X215900000Y-76700000D03*
X212500000Y-76850000D03*
X133750000Y-78450000D03*
X194578224Y-85878627D03*
X177750000Y-57150000D03*
D21*
X166049978Y-65323003D03*
D24*
X200550000Y-89150000D03*
X177750000Y-58150000D03*
X183400000Y-81800000D03*
X175900000Y-101300000D03*
X168100000Y-91000000D03*
X179600000Y-90800000D03*
X190545000Y-75503136D03*
X230800008Y-103041369D03*
X203800000Y-59700000D03*
X199900000Y-63100000D03*
X227585001Y-96885001D03*
X227700000Y-94100000D03*
X204500000Y-57150000D03*
X198700000Y-63300000D03*
X206000000Y-58400000D03*
X206137500Y-57737500D03*
X141900000Y-63100000D03*
X149100000Y-86600000D03*
M02*
