G04 #@! TF.GenerationSoftware,KiCad,Pcbnew,5.1.7-a382d34a8~88~ubuntu20.04.1*
G04 #@! TF.CreationDate,2021-05-06T14:12:58-05:00*
G04 #@! TF.ProjectId,access-controller,61636365-7373-42d6-936f-6e74726f6c6c,rev?*
G04 #@! TF.SameCoordinates,Original*
G04 #@! TF.FileFunction,Copper,L4,Bot*
G04 #@! TF.FilePolarity,Positive*
%FSLAX46Y46*%
G04 Gerber Fmt 4.6, Leading zero omitted, Abs format (unit mm)*
G04 Created by KiCad (PCBNEW 5.1.7-a382d34a8~88~ubuntu20.04.1) date 2021-05-06 14:12:58*
%MOMM*%
%LPD*%
G01*
G04 APERTURE LIST*
G04 #@! TA.AperFunction,ComponentPad*
%ADD10O,2.400000X3.600000*%
G04 #@! TD*
G04 #@! TA.AperFunction,ComponentPad*
%ADD11C,5.000000*%
G04 #@! TD*
G04 #@! TA.AperFunction,ComponentPad*
%ADD12C,1.750000*%
G04 #@! TD*
G04 #@! TA.AperFunction,ComponentPad*
%ADD13O,1.300000X1.000000*%
G04 #@! TD*
G04 #@! TA.AperFunction,ComponentPad*
%ADD14O,2.900000X1.700000*%
G04 #@! TD*
G04 #@! TA.AperFunction,ComponentPad*
%ADD15O,3.600000X2.400000*%
G04 #@! TD*
G04 #@! TA.AperFunction,ComponentPad*
%ADD16C,1.250000*%
G04 #@! TD*
G04 #@! TA.AperFunction,ComponentPad*
%ADD17R,1.524000X1.524000*%
G04 #@! TD*
G04 #@! TA.AperFunction,ComponentPad*
%ADD18C,1.524000*%
G04 #@! TD*
G04 #@! TA.AperFunction,ComponentPad*
%ADD19C,1.800000*%
G04 #@! TD*
G04 #@! TA.AperFunction,ComponentPad*
%ADD20C,2.610000*%
G04 #@! TD*
G04 #@! TA.AperFunction,ComponentPad*
%ADD21C,2.630000*%
G04 #@! TD*
G04 #@! TA.AperFunction,ViaPad*
%ADD22C,1.500000*%
G04 #@! TD*
G04 #@! TA.AperFunction,ViaPad*
%ADD23C,0.800000*%
G04 #@! TD*
G04 #@! TA.AperFunction,ViaPad*
%ADD24C,1.000000*%
G04 #@! TD*
G04 #@! TA.AperFunction,ViaPad*
%ADD25C,0.600000*%
G04 #@! TD*
G04 #@! TA.AperFunction,ViaPad*
%ADD26C,0.500000*%
G04 #@! TD*
G04 #@! TA.AperFunction,ViaPad*
%ADD27C,2.000000*%
G04 #@! TD*
G04 #@! TA.AperFunction,ViaPad*
%ADD28C,2.500000*%
G04 #@! TD*
G04 #@! TA.AperFunction,Conductor*
%ADD29C,0.500000*%
G04 #@! TD*
G04 #@! TA.AperFunction,Conductor*
%ADD30C,0.250000*%
G04 #@! TD*
G04 #@! TA.AperFunction,Conductor*
%ADD31C,0.400000*%
G04 #@! TD*
G04 #@! TA.AperFunction,Conductor*
%ADD32C,2.000000*%
G04 #@! TD*
G04 #@! TA.AperFunction,Conductor*
%ADD33C,1.000000*%
G04 #@! TD*
G04 APERTURE END LIST*
D10*
X221740000Y-38700000D03*
X226820000Y-38700000D03*
G04 #@! TA.AperFunction,ComponentPad*
G36*
G01*
X233100000Y-37233600D02*
X233100000Y-40166400D01*
G75*
G02*
X232766400Y-40500000I-333600J0D01*
G01*
X231033600Y-40500000D01*
G75*
G02*
X230700000Y-40166400I0J333600D01*
G01*
X230700000Y-37233600D01*
G75*
G02*
X231033600Y-36900000I333600J0D01*
G01*
X232766400Y-36900000D01*
G75*
G02*
X233100000Y-37233600I0J-333600D01*
G01*
G37*
G04 #@! TD.AperFunction*
D11*
X122700000Y-34500000D03*
X264700000Y-34500000D03*
X122700000Y-116500000D03*
X264700000Y-116500000D03*
D12*
X145900000Y-101400000D03*
X145900000Y-86400000D03*
D13*
X261645400Y-105007400D03*
X261645400Y-108207800D03*
X262839200Y-107420400D03*
X262864600Y-105794800D03*
X261645400Y-106607600D03*
D14*
X266700000Y-102950000D03*
X266700000Y-110239800D03*
D15*
X126900000Y-65500000D03*
X126900000Y-60420000D03*
X126900000Y-55340000D03*
G04 #@! TA.AperFunction,ComponentPad*
G36*
G01*
X125433600Y-49060000D02*
X128366400Y-49060000D01*
G75*
G02*
X128700000Y-49393600I0J-333600D01*
G01*
X128700000Y-51126400D01*
G75*
G02*
X128366400Y-51460000I-333600J0D01*
G01*
X125433600Y-51460000D01*
G75*
G02*
X125100000Y-51126400I0J333600D01*
G01*
X125100000Y-49393600D01*
G75*
G02*
X125433600Y-49060000I333600J0D01*
G01*
G37*
G04 #@! TD.AperFunction*
D10*
X203500000Y-38700000D03*
X208580000Y-38700000D03*
G04 #@! TA.AperFunction,ComponentPad*
G36*
G01*
X214860000Y-37233600D02*
X214860000Y-40166400D01*
G75*
G02*
X214526400Y-40500000I-333600J0D01*
G01*
X212793600Y-40500000D01*
G75*
G02*
X212460000Y-40166400I0J333600D01*
G01*
X212460000Y-37233600D01*
G75*
G02*
X212793600Y-36900000I333600J0D01*
G01*
X214526400Y-36900000D01*
G75*
G02*
X214860000Y-37233600I0J-333600D01*
G01*
G37*
G04 #@! TD.AperFunction*
X185300000Y-38700000D03*
X190380000Y-38700000D03*
G04 #@! TA.AperFunction,ComponentPad*
G36*
G01*
X196660000Y-37233600D02*
X196660000Y-40166400D01*
G75*
G02*
X196326400Y-40500000I-333600J0D01*
G01*
X194593600Y-40500000D01*
G75*
G02*
X194260000Y-40166400I0J333600D01*
G01*
X194260000Y-37233600D01*
G75*
G02*
X194593600Y-36900000I333600J0D01*
G01*
X196326400Y-36900000D01*
G75*
G02*
X196660000Y-37233600I0J-333600D01*
G01*
G37*
G04 #@! TD.AperFunction*
X167120000Y-38700000D03*
X172200000Y-38700000D03*
G04 #@! TA.AperFunction,ComponentPad*
G36*
G01*
X178480000Y-37233600D02*
X178480000Y-40166400D01*
G75*
G02*
X178146400Y-40500000I-333600J0D01*
G01*
X176413600Y-40500000D01*
G75*
G02*
X176080000Y-40166400I0J333600D01*
G01*
X176080000Y-37233600D01*
G75*
G02*
X176413600Y-36900000I333600J0D01*
G01*
X178146400Y-36900000D01*
G75*
G02*
X178480000Y-37233600I0J-333600D01*
G01*
G37*
G04 #@! TD.AperFunction*
X148900000Y-38700000D03*
X153980000Y-38700000D03*
G04 #@! TA.AperFunction,ComponentPad*
G36*
G01*
X160260000Y-37233600D02*
X160260000Y-40166400D01*
G75*
G02*
X159926400Y-40500000I-333600J0D01*
G01*
X158193600Y-40500000D01*
G75*
G02*
X157860000Y-40166400I0J333600D01*
G01*
X157860000Y-37233600D01*
G75*
G02*
X158193600Y-36900000I333600J0D01*
G01*
X159926400Y-36900000D01*
G75*
G02*
X160260000Y-37233600I0J-333600D01*
G01*
G37*
G04 #@! TD.AperFunction*
X130720000Y-38700000D03*
X135800000Y-38700000D03*
G04 #@! TA.AperFunction,ComponentPad*
G36*
G01*
X142080000Y-37233600D02*
X142080000Y-40166400D01*
G75*
G02*
X141746400Y-40500000I-333600J0D01*
G01*
X140013600Y-40500000D01*
G75*
G02*
X139680000Y-40166400I0J333600D01*
G01*
X139680000Y-37233600D01*
G75*
G02*
X140013600Y-36900000I333600J0D01*
G01*
X141746400Y-36900000D01*
G75*
G02*
X142080000Y-37233600I0J-333600D01*
G01*
G37*
G04 #@! TD.AperFunction*
D15*
X126900000Y-100740000D03*
X126900000Y-95660000D03*
X126900000Y-90580000D03*
G04 #@! TA.AperFunction,ComponentPad*
G36*
G01*
X125433600Y-84300000D02*
X128366400Y-84300000D01*
G75*
G02*
X128700000Y-84633600I0J-333600D01*
G01*
X128700000Y-86366400D01*
G75*
G02*
X128366400Y-86700000I-333600J0D01*
G01*
X125433600Y-86700000D01*
G75*
G02*
X125100000Y-86366400I0J333600D01*
G01*
X125100000Y-84633600D01*
G75*
G02*
X125433600Y-84300000I333600J0D01*
G01*
G37*
G04 #@! TD.AperFunction*
D10*
X213660000Y-112300000D03*
X208580000Y-112300000D03*
G04 #@! TA.AperFunction,ComponentPad*
G36*
G01*
X202300000Y-113766400D02*
X202300000Y-110833600D01*
G75*
G02*
X202633600Y-110500000I333600J0D01*
G01*
X204366400Y-110500000D01*
G75*
G02*
X204700000Y-110833600I0J-333600D01*
G01*
X204700000Y-113766400D01*
G75*
G02*
X204366400Y-114100000I-333600J0D01*
G01*
X202633600Y-114100000D01*
G75*
G02*
X202300000Y-113766400I0J333600D01*
G01*
G37*
G04 #@! TD.AperFunction*
X231860000Y-112300000D03*
X226780000Y-112300000D03*
G04 #@! TA.AperFunction,ComponentPad*
G36*
G01*
X220500000Y-113766400D02*
X220500000Y-110833600D01*
G75*
G02*
X220833600Y-110500000I333600J0D01*
G01*
X222566400Y-110500000D01*
G75*
G02*
X222900000Y-110833600I0J-333600D01*
G01*
X222900000Y-113766400D01*
G75*
G02*
X222566400Y-114100000I-333600J0D01*
G01*
X220833600Y-114100000D01*
G75*
G02*
X220500000Y-113766400I0J333600D01*
G01*
G37*
G04 #@! TD.AperFunction*
X195460000Y-112300000D03*
X190380000Y-112300000D03*
G04 #@! TA.AperFunction,ComponentPad*
G36*
G01*
X184100000Y-113766400D02*
X184100000Y-110833600D01*
G75*
G02*
X184433600Y-110500000I333600J0D01*
G01*
X186166400Y-110500000D01*
G75*
G02*
X186500000Y-110833600I0J-333600D01*
G01*
X186500000Y-113766400D01*
G75*
G02*
X186166400Y-114100000I-333600J0D01*
G01*
X184433600Y-114100000D01*
G75*
G02*
X184100000Y-113766400I0J333600D01*
G01*
G37*
G04 #@! TD.AperFunction*
X177260000Y-112200000D03*
X172180000Y-112200000D03*
G04 #@! TA.AperFunction,ComponentPad*
G36*
G01*
X165900000Y-113666400D02*
X165900000Y-110733600D01*
G75*
G02*
X166233600Y-110400000I333600J0D01*
G01*
X167966400Y-110400000D01*
G75*
G02*
X168300000Y-110733600I0J-333600D01*
G01*
X168300000Y-113666400D01*
G75*
G02*
X167966400Y-114000000I-333600J0D01*
G01*
X166233600Y-114000000D01*
G75*
G02*
X165900000Y-113666400I0J333600D01*
G01*
G37*
G04 #@! TD.AperFunction*
X159060000Y-112200000D03*
X153980000Y-112200000D03*
G04 #@! TA.AperFunction,ComponentPad*
G36*
G01*
X147700000Y-113666400D02*
X147700000Y-110733600D01*
G75*
G02*
X148033600Y-110400000I333600J0D01*
G01*
X149766400Y-110400000D01*
G75*
G02*
X150100000Y-110733600I0J-333600D01*
G01*
X150100000Y-113666400D01*
G75*
G02*
X149766400Y-114000000I-333600J0D01*
G01*
X148033600Y-114000000D01*
G75*
G02*
X147700000Y-113666400I0J333600D01*
G01*
G37*
G04 #@! TD.AperFunction*
X140860000Y-112200000D03*
X135780000Y-112200000D03*
G04 #@! TA.AperFunction,ComponentPad*
G36*
G01*
X129500000Y-113666400D02*
X129500000Y-110733600D01*
G75*
G02*
X129833600Y-110400000I333600J0D01*
G01*
X131566400Y-110400000D01*
G75*
G02*
X131900000Y-110733600I0J-333600D01*
G01*
X131900000Y-113666400D01*
G75*
G02*
X131566400Y-114000000I-333600J0D01*
G01*
X129833600Y-114000000D01*
G75*
G02*
X129500000Y-113666400I0J333600D01*
G01*
G37*
G04 #@! TD.AperFunction*
G04 #@! TA.AperFunction,ComponentPad*
G36*
G01*
X256450000Y-66250000D02*
X256450000Y-69250000D01*
G75*
G02*
X255700000Y-70000000I-750000J0D01*
G01*
X254200000Y-70000000D01*
G75*
G02*
X253450000Y-69250000I0J750000D01*
G01*
X253450000Y-66250000D01*
G75*
G02*
X254200000Y-65500000I750000J0D01*
G01*
X255700000Y-65500000D01*
G75*
G02*
X256450000Y-66250000I0J-750000D01*
G01*
G37*
G04 #@! TD.AperFunction*
G04 #@! TA.AperFunction,ComponentPad*
G36*
G01*
X262450000Y-66250000D02*
X262450000Y-69250000D01*
G75*
G02*
X261700000Y-70000000I-750000J0D01*
G01*
X260200000Y-70000000D01*
G75*
G02*
X259450000Y-69250000I0J750000D01*
G01*
X259450000Y-66250000D01*
G75*
G02*
X260200000Y-65500000I750000J0D01*
G01*
X261700000Y-65500000D01*
G75*
G02*
X262450000Y-66250000I0J-750000D01*
G01*
G37*
G04 #@! TD.AperFunction*
G04 #@! TA.AperFunction,ComponentPad*
G36*
G01*
X260200000Y-62300000D02*
X260200000Y-63800000D01*
G75*
G02*
X259450000Y-64550000I-750000J0D01*
G01*
X256450000Y-64550000D01*
G75*
G02*
X255700000Y-63800000I0J750000D01*
G01*
X255700000Y-62300000D01*
G75*
G02*
X256450000Y-61550000I750000J0D01*
G01*
X259450000Y-61550000D01*
G75*
G02*
X260200000Y-62300000I0J-750000D01*
G01*
G37*
G04 #@! TD.AperFunction*
D16*
X250970000Y-90770000D03*
X249510000Y-90780000D03*
X250860000Y-79600000D03*
X249400000Y-79610000D03*
D17*
X242300000Y-80130000D03*
D18*
X242300000Y-82162000D03*
X242300000Y-84194000D03*
X242300000Y-86226000D03*
X242300000Y-88258000D03*
X242300000Y-90290000D03*
X239760000Y-79114000D03*
X239760000Y-81146000D03*
X239760000Y-83178000D03*
X239760000Y-87242000D03*
X239760000Y-89274000D03*
X239760000Y-91306000D03*
D19*
X237220000Y-79114000D03*
X237220000Y-81654000D03*
X237220000Y-88766000D03*
X237220000Y-91306000D03*
D20*
X260715000Y-93274500D03*
D21*
X260715000Y-77145500D03*
D22*
X250680000Y-73650000D03*
X197150000Y-46350000D03*
X195400000Y-46350000D03*
X198900000Y-46450000D03*
X197200000Y-48650000D03*
X195400000Y-48700000D03*
X198950000Y-48600000D03*
X182500000Y-42200000D03*
X180350000Y-45650000D03*
X200700000Y-90400000D03*
X199050000Y-90500000D03*
X202350000Y-90500000D03*
X199250000Y-92200000D03*
X202500000Y-92200000D03*
X200900000Y-92100000D03*
X181000000Y-92150000D03*
X179600000Y-96100000D03*
X200400000Y-104300000D03*
X195450000Y-107600000D03*
X195200000Y-99450000D03*
D23*
X186350000Y-99700000D03*
X186350000Y-102200000D03*
X186400000Y-104700000D03*
X186450000Y-107300000D03*
X182950000Y-107300000D03*
X182950000Y-104750000D03*
X183050000Y-102200000D03*
X182950000Y-99700000D03*
X172250000Y-52450000D03*
X172300000Y-50000000D03*
X172300000Y-47400000D03*
X172300000Y-44900000D03*
X168850000Y-49950000D03*
X168850000Y-47350000D03*
X168850000Y-44900000D03*
X167950000Y-70550000D03*
X165500000Y-71800000D03*
X170450000Y-71800000D03*
X184500000Y-71300000D03*
X194000000Y-70100000D03*
X194000000Y-67500000D03*
X193950000Y-62450000D03*
X197450000Y-62450000D03*
X197450000Y-64950000D03*
X197400000Y-67550000D03*
X197450000Y-70100000D03*
D22*
X241100000Y-38000000D03*
D23*
X122800000Y-74850000D03*
X130400000Y-78350000D03*
X127850000Y-78350000D03*
X125300000Y-78300000D03*
X122750000Y-78350000D03*
D24*
X139900000Y-55600000D03*
X136250000Y-55000000D03*
X153100000Y-55800000D03*
X156750000Y-55850000D03*
D23*
X164350000Y-89350000D03*
X169300000Y-89400000D03*
X164200000Y-97400000D03*
X169100000Y-97450000D03*
X169200000Y-105600000D03*
X164300000Y-105650000D03*
X252800000Y-97200000D03*
X249450000Y-99600000D03*
X255750000Y-102800000D03*
X257860000Y-101519611D03*
D25*
X255400000Y-105900000D03*
D24*
X261650000Y-113700000D03*
D22*
X243500000Y-113250000D03*
D25*
X249600000Y-117150000D03*
D23*
X206850000Y-63750000D03*
D25*
X161650000Y-58450000D03*
D24*
X187050000Y-89350000D03*
X186950000Y-92450000D03*
D23*
X210750000Y-97050000D03*
D24*
X216750000Y-101400000D03*
X216750000Y-104700000D03*
X219300000Y-104800000D03*
D25*
X215250000Y-95500000D03*
X219300000Y-98250000D03*
X228600000Y-83700000D03*
D23*
X219750000Y-81250000D03*
D25*
X210200000Y-45550000D03*
D24*
X214250000Y-47500000D03*
X211700000Y-47500000D03*
X211700000Y-51000000D03*
D26*
X233750000Y-84900000D03*
D25*
X223000000Y-101200000D03*
X230700000Y-94850000D03*
X234850000Y-97350000D03*
X240750000Y-98050000D03*
D26*
X218350000Y-89974979D03*
D25*
X229750000Y-95350000D03*
D22*
X243478072Y-117774990D03*
D24*
X144800000Y-62700000D03*
X146000000Y-62800000D03*
X144750000Y-63900000D03*
X145850000Y-63900000D03*
D23*
X127850000Y-74274968D03*
X130724348Y-74424968D03*
X125432660Y-74724979D03*
D24*
X140965339Y-71838278D03*
D25*
X227500000Y-87900000D03*
X227500000Y-89000000D03*
D24*
X140814492Y-74761340D03*
D23*
X178926431Y-66163658D03*
X168524990Y-52484340D03*
X193862340Y-65137660D03*
D25*
X207408459Y-49033449D03*
D24*
X214280024Y-50724979D03*
X219321759Y-101521759D03*
D25*
X241240000Y-62850000D03*
X246050000Y-59960010D03*
X250890000Y-65310000D03*
X252240000Y-64360000D03*
X252340000Y-60150000D03*
X251190000Y-58970000D03*
D24*
X266750000Y-54970000D03*
X264390000Y-56440000D03*
D25*
X206760000Y-67380000D03*
D24*
X215160000Y-69000000D03*
X219710000Y-68590000D03*
X221320000Y-71030000D03*
D25*
X254450000Y-108450000D03*
X233350000Y-102100000D03*
X233350000Y-102750000D03*
X233350000Y-103450000D03*
D23*
X202275000Y-97500000D03*
X201000000Y-97500000D03*
X200000000Y-97500000D03*
X199000000Y-97500000D03*
X174000000Y-68750000D03*
X177250000Y-81750000D03*
D25*
X158250000Y-101000000D03*
D23*
X156500000Y-71750000D03*
D25*
X155825021Y-99750000D03*
D23*
X160650056Y-70535901D03*
D25*
X157800000Y-62650000D03*
X160425008Y-62751910D03*
X160575076Y-74775076D03*
X157671274Y-76874990D03*
X157400000Y-61650000D03*
X160350000Y-61850000D03*
X157324990Y-76100000D03*
X161200077Y-74250488D03*
D23*
X167500000Y-65500000D03*
X168500000Y-91000000D03*
D22*
X245230000Y-73650000D03*
X195400000Y-101700000D03*
X198100000Y-104150000D03*
X238100000Y-113300000D03*
X235200000Y-115500000D03*
D24*
X191050000Y-43950000D03*
X191000000Y-45650000D03*
D23*
X172000000Y-55750000D03*
X184750000Y-47250000D03*
D25*
X203921418Y-62555316D03*
X209500000Y-58250000D03*
X206250000Y-59375010D03*
D24*
X212310000Y-58860000D03*
X213500000Y-58880000D03*
D25*
X210805010Y-57233288D03*
D24*
X182500000Y-47600000D03*
X180500000Y-49500000D03*
D27*
X185850000Y-33450000D03*
X183800000Y-33450000D03*
X181750000Y-33500000D03*
D23*
X169750000Y-54750000D03*
D25*
X206000000Y-42750000D03*
X204500000Y-45000000D03*
D23*
X219250000Y-100250000D03*
D25*
X195500000Y-58000000D03*
X197000000Y-57000000D03*
X210750000Y-47000000D03*
X221250000Y-93750000D03*
X217000000Y-83750000D03*
X160050000Y-114600000D03*
X159150000Y-115225010D03*
X155024957Y-115060387D03*
D23*
X191250000Y-95250000D03*
X189250000Y-100250000D03*
D25*
X191625001Y-75184955D03*
X191750000Y-82500000D03*
D23*
X170500000Y-46250000D03*
X172250000Y-46000000D03*
X190250000Y-94500000D03*
X188750000Y-97500000D03*
D25*
X191000000Y-75750000D03*
X190750000Y-81750000D03*
X134550000Y-73550000D03*
X140450000Y-70650000D03*
X150250000Y-70350000D03*
X152600000Y-69700000D03*
X153250000Y-70350000D03*
X134493914Y-72751957D03*
X141706795Y-69977104D03*
X151050000Y-70975010D03*
D23*
X197500000Y-61250000D03*
X187974946Y-62786240D03*
X183804707Y-63417940D03*
X195424777Y-64649458D03*
D25*
X134500000Y-67300000D03*
X136200000Y-64800000D03*
X134300000Y-71800000D03*
X149100000Y-68850000D03*
X151300000Y-68250000D03*
X140224643Y-69241348D03*
X190124990Y-81000000D03*
X190045999Y-75826730D03*
D23*
X184750000Y-53000000D03*
X203500000Y-50750000D03*
X193250000Y-96750000D03*
X192500000Y-99000000D03*
D25*
X192500000Y-75750000D03*
X193185919Y-82725811D03*
D23*
X170475010Y-51308276D03*
X172375033Y-51250000D03*
D25*
X210000000Y-48250000D03*
X215375859Y-47717050D03*
D23*
X217000000Y-85000000D03*
X219821223Y-95583358D03*
X179750000Y-57000000D03*
X202500000Y-51500000D03*
X165750000Y-44500000D03*
X169000000Y-43250000D03*
D25*
X195500000Y-81500000D03*
X190500000Y-59750000D03*
X198000000Y-58250000D03*
X193859112Y-74729205D03*
X200750000Y-55000000D03*
X199250000Y-59750000D03*
X195250000Y-70750000D03*
D23*
X183250000Y-64250000D03*
X197000000Y-66250000D03*
X151750000Y-67250000D03*
X158681505Y-59626185D03*
X170000000Y-49250000D03*
X172250000Y-48750000D03*
D25*
X166500000Y-74950000D03*
X154000000Y-78500000D03*
X164350000Y-75950000D03*
X153738343Y-76624902D03*
D23*
X179250000Y-67500000D03*
X152737340Y-65237340D03*
D25*
X162000000Y-67000000D03*
X167750000Y-67250000D03*
D23*
X152750000Y-66250000D03*
X179000000Y-65000000D03*
D25*
X160250000Y-66500000D03*
X168054707Y-66332060D03*
D23*
X189250000Y-102750000D03*
X193262660Y-95737340D03*
D25*
X193500000Y-75750000D03*
X194277132Y-82521010D03*
X154750000Y-108500000D03*
X161500000Y-116750000D03*
X158000000Y-102000000D03*
X155375010Y-100750000D03*
X155000000Y-74750000D03*
X162500000Y-76750000D03*
X153500000Y-74000000D03*
X163000000Y-73500000D03*
X223651469Y-88307426D03*
X221804771Y-88085314D03*
X219750000Y-93600000D03*
X158050000Y-80050000D03*
X154624990Y-79275030D03*
X226750000Y-85750000D03*
X225500000Y-85750000D03*
X162649344Y-72196458D03*
X157500000Y-71250000D03*
X223450000Y-89950000D03*
X221511615Y-88829679D03*
X160300000Y-69250000D03*
X157474968Y-68571727D03*
X157924979Y-67879609D03*
X158450716Y-65875010D03*
X224527557Y-88109477D03*
X219326000Y-84388500D03*
X224650000Y-93600000D03*
X218200000Y-87700000D03*
X226729960Y-91403307D03*
X226522042Y-93675011D03*
X224296769Y-88875477D03*
X222337325Y-88887867D03*
D24*
X133350000Y-58550000D03*
X135200000Y-58550000D03*
X139800000Y-57050000D03*
D22*
X183350000Y-85950000D03*
X183500000Y-91550000D03*
X183450000Y-96400000D03*
D23*
X175250000Y-64900000D03*
X172850000Y-62900000D03*
X163150000Y-62950000D03*
D25*
X133584985Y-69960182D03*
X152500000Y-76600000D03*
D23*
X184750000Y-67500000D03*
D24*
X187809809Y-96893460D03*
D23*
X175262660Y-53512660D03*
D25*
X229500000Y-104250000D03*
X228750000Y-110750000D03*
X192000000Y-105750000D03*
X192000000Y-104000000D03*
X201750000Y-68250000D03*
D23*
X174250000Y-90000000D03*
X177000000Y-88250000D03*
X174250000Y-92750000D03*
X174250000Y-100000000D03*
D25*
X241050000Y-105250000D03*
X242250000Y-106650000D03*
X245550000Y-106450000D03*
X245450000Y-104300000D03*
D28*
X260200000Y-56150000D03*
X254900000Y-50850000D03*
D25*
X224250000Y-53500000D03*
X230250000Y-51000000D03*
D23*
X205750000Y-53250000D03*
X207500000Y-56500000D03*
D25*
X218422499Y-46765036D03*
X217950000Y-48540000D03*
X223548701Y-45497422D03*
X221895384Y-46299256D03*
D23*
X141750000Y-62000000D03*
X146750000Y-80500000D03*
X153750000Y-86750000D03*
X158500000Y-86750000D03*
D25*
X218440000Y-56840000D03*
X224800000Y-58780000D03*
X223750000Y-61000000D03*
X221530338Y-59280338D03*
X215645966Y-51562928D03*
X219999996Y-46669000D03*
X222276445Y-44363862D03*
D24*
X239750000Y-94700000D03*
D25*
X233650000Y-88450000D03*
X233550000Y-86850000D03*
X230300000Y-90100000D03*
X234650000Y-86100000D03*
X234650000Y-84650000D03*
X233750000Y-90750000D03*
X234800000Y-94250000D03*
X233650000Y-92750000D03*
D26*
X227724979Y-85796846D03*
X233800000Y-94650000D03*
D22*
X234850000Y-68050000D03*
D25*
X239930000Y-69420000D03*
X236440000Y-63430000D03*
X223228051Y-50771949D03*
X224855155Y-49894845D03*
X223160000Y-49720000D03*
X220590000Y-48740000D03*
X246210000Y-40660000D03*
X245550000Y-44810000D03*
X219210000Y-44351543D03*
X219257796Y-46245010D03*
X226850000Y-41360000D03*
X229370000Y-41380000D03*
D22*
X226890000Y-62760000D03*
X261460000Y-48850000D03*
D25*
X253540000Y-58040000D03*
X255820000Y-57830000D03*
D29*
X254692200Y-108207800D02*
X254450000Y-108450000D01*
X261645400Y-108207800D02*
X254692200Y-108207800D01*
D30*
X174000000Y-78500000D02*
X177250000Y-81750000D01*
X174000000Y-68750000D02*
X174000000Y-78500000D01*
X157000000Y-99750000D02*
X155825021Y-99750000D01*
X158250000Y-101000000D02*
X157000000Y-99750000D01*
X156500000Y-71184315D02*
X157148414Y-70535901D01*
X157148414Y-70535901D02*
X160650056Y-70535901D01*
X156500000Y-71750000D02*
X156500000Y-71184315D01*
X160323098Y-62650000D02*
X160425008Y-62751910D01*
X157800000Y-62650000D02*
X160323098Y-62650000D01*
X160575076Y-74775076D02*
X158475162Y-76874990D01*
X158475162Y-76874990D02*
X157671274Y-76874990D01*
X160150000Y-61650000D02*
X160350000Y-61850000D01*
X157400000Y-61650000D02*
X160150000Y-61650000D01*
X157324990Y-76100000D02*
X159274916Y-74150074D01*
X161099663Y-74150074D02*
X161200077Y-74250488D01*
X159274916Y-74150074D02*
X161099663Y-74150074D01*
X167500000Y-90000000D02*
X167500000Y-71500000D01*
X167500000Y-71500000D02*
X166500000Y-70500000D01*
X166500000Y-66500000D02*
X167500000Y-65500000D01*
X166500000Y-70500000D02*
X166500000Y-66500000D01*
X167500000Y-90000000D02*
X168500000Y-91000000D01*
X172000000Y-55750000D02*
X177000000Y-50750000D01*
X181250000Y-50750000D02*
X184750000Y-47250000D01*
X177000000Y-50750000D02*
X181250000Y-50750000D01*
X203921418Y-62555316D02*
X206250000Y-60226734D01*
X206250000Y-60226734D02*
X206250000Y-59375010D01*
X169750000Y-54750000D02*
X172363590Y-54750000D01*
X172363590Y-54750000D02*
X177613590Y-49500000D01*
X177613590Y-49500000D02*
X180500000Y-49500000D01*
D31*
X206000000Y-43500000D02*
X204500000Y-45000000D01*
X206000000Y-42750000D02*
X206000000Y-43500000D01*
D29*
X185300000Y-112300000D02*
X188350000Y-109250000D01*
X188350000Y-109250000D02*
X210250000Y-109250000D01*
X210250000Y-109250000D02*
X219250000Y-100250000D01*
D30*
X196000000Y-58000000D02*
X197000000Y-57000000D01*
X195500000Y-58000000D02*
X196000000Y-58000000D01*
X219050000Y-38700000D02*
X221740000Y-38700000D01*
X210750000Y-47000000D02*
X219050000Y-38700000D01*
X221250000Y-93750000D02*
X220500000Y-93750000D01*
X220500000Y-93750000D02*
X220000000Y-94250000D01*
X220000000Y-94250000D02*
X219250000Y-94250000D01*
X219250000Y-94250000D02*
X217500000Y-92500000D01*
X217500000Y-92500000D02*
X217500000Y-85750000D01*
X217500000Y-85750000D02*
X217750000Y-85500000D01*
X217750000Y-84500000D02*
X217000000Y-83750000D01*
X217750000Y-85500000D02*
X217750000Y-84500000D01*
X153980000Y-112200000D02*
X154650000Y-112200000D01*
X157050000Y-114600000D02*
X160050000Y-114600000D01*
X154650000Y-112200000D02*
X157050000Y-114600000D01*
X155189580Y-115225010D02*
X155024957Y-115060387D01*
X159150000Y-115225010D02*
X155189580Y-115225010D01*
X191250000Y-96323004D02*
X189250000Y-98323004D01*
X189250000Y-98323004D02*
X189250000Y-100250000D01*
X191250000Y-95250000D02*
X191250000Y-96323004D01*
X191625001Y-75184955D02*
X191625001Y-82375001D01*
X191625001Y-82375001D02*
X191750000Y-82500000D01*
X172000000Y-46250000D02*
X172250000Y-46000000D01*
X170500000Y-46250000D02*
X172000000Y-46250000D01*
X190250000Y-96000000D02*
X188750000Y-97500000D01*
X190250000Y-94500000D02*
X190250000Y-96000000D01*
X191000000Y-75750000D02*
X191000000Y-81500000D01*
X191000000Y-81500000D02*
X190750000Y-81750000D01*
X137550000Y-73550000D02*
X140450000Y-70650000D01*
X134550000Y-73550000D02*
X137550000Y-73550000D01*
X151950000Y-70350000D02*
X152600000Y-69700000D01*
X150250000Y-70350000D02*
X151950000Y-70350000D01*
X137423039Y-72751957D02*
X140197892Y-69977104D01*
X134493914Y-72751957D02*
X137423039Y-72751957D01*
X140197892Y-69977104D02*
X141706795Y-69977104D01*
X153250000Y-70350000D02*
X152624990Y-70975010D01*
X152624990Y-70975010D02*
X151050000Y-70975010D01*
X189511186Y-61250000D02*
X187974946Y-62786240D01*
X197500000Y-61250000D02*
X189511186Y-61250000D01*
X183804707Y-63417940D02*
X187533642Y-63417940D01*
X187533642Y-63417940D02*
X187626944Y-63511242D01*
X187626944Y-63511242D02*
X194286561Y-63511242D01*
X194286561Y-63511242D02*
X195424777Y-64649458D01*
X136200000Y-65600000D02*
X136200000Y-64800000D01*
X134500000Y-67300000D02*
X136200000Y-65600000D01*
X150700000Y-68850000D02*
X151300000Y-68250000D01*
X149100000Y-68850000D02*
X150700000Y-68850000D01*
X137665991Y-71800000D02*
X140224643Y-69241348D01*
X134300000Y-71800000D02*
X137665991Y-71800000D01*
X190045999Y-80921009D02*
X190124990Y-81000000D01*
X190045999Y-75826730D02*
X190045999Y-80921009D01*
X187000000Y-50750000D02*
X203500000Y-50750000D01*
X184750000Y-53000000D02*
X187000000Y-50750000D01*
X192500000Y-97500000D02*
X192500000Y-99000000D01*
X193250000Y-96750000D02*
X192500000Y-97500000D01*
X192500000Y-75750000D02*
X192500000Y-82250000D01*
X192975811Y-82725811D02*
X193185919Y-82725811D01*
X192500000Y-82250000D02*
X192975811Y-82725811D01*
X170475010Y-51308276D02*
X172316757Y-51308276D01*
X172316757Y-51308276D02*
X172375033Y-51250000D01*
X210000000Y-48250000D02*
X210299999Y-48549999D01*
X210299999Y-48549999D02*
X214542910Y-48549999D01*
X214542910Y-48549999D02*
X215375859Y-47717050D01*
X217000000Y-85000000D02*
X217000000Y-92762135D01*
X217000000Y-92762135D02*
X219821223Y-95583358D01*
X179750000Y-57000000D02*
X182500000Y-54250000D01*
X182500000Y-54250000D02*
X185000000Y-54250000D01*
X185000000Y-54250000D02*
X188000000Y-51250000D01*
X202250000Y-51250000D02*
X202500000Y-51500000D01*
X188000000Y-51250000D02*
X202250000Y-51250000D01*
X167000000Y-43250000D02*
X169000000Y-43250000D01*
X165750000Y-44500000D02*
X167000000Y-43250000D01*
X190500000Y-59750000D02*
X196500000Y-59750000D01*
X196500000Y-59750000D02*
X198000000Y-58250000D01*
X195500000Y-81500000D02*
X195500000Y-76370093D01*
X195500000Y-76370093D02*
X193859112Y-74729205D01*
X200750000Y-55000000D02*
X204500000Y-51250000D01*
X204500000Y-51250000D02*
X204500000Y-50250000D01*
X204500000Y-50250000D02*
X203250000Y-49000000D01*
X203250000Y-49000000D02*
X203250000Y-38950000D01*
X203250000Y-38950000D02*
X203500000Y-38700000D01*
X198000000Y-68500000D02*
X199250000Y-67250000D01*
X199250000Y-67250000D02*
X199250000Y-59750000D01*
X197500000Y-68500000D02*
X198000000Y-68500000D01*
X195250000Y-70750000D02*
X197500000Y-68500000D01*
X183250000Y-64250000D02*
X194000000Y-64250000D01*
X194000000Y-64250000D02*
X196000000Y-66250000D01*
X196000000Y-66250000D02*
X197000000Y-66250000D01*
X151750000Y-64500000D02*
X156623815Y-59626185D01*
X151750000Y-67250000D02*
X151750000Y-64500000D01*
X156623815Y-59626185D02*
X158681505Y-59626185D01*
X171750000Y-49250000D02*
X172250000Y-48750000D01*
X170000000Y-49250000D02*
X171750000Y-49250000D01*
X162799980Y-78650020D02*
X155523367Y-78650020D01*
X166500000Y-74950000D02*
X162799980Y-78650020D01*
X154000000Y-78500000D02*
X155373347Y-78500000D01*
X155373347Y-78500000D02*
X155523367Y-78650020D01*
X162099991Y-78200009D02*
X156061842Y-78200009D01*
X156061842Y-78200009D02*
X154486735Y-76624902D01*
X164350000Y-75950000D02*
X162099991Y-78200009D01*
X154486735Y-76624902D02*
X153738343Y-76624902D01*
X179000000Y-67250000D02*
X179250000Y-67500000D01*
X167750000Y-67250000D02*
X179000000Y-67250000D01*
X153224680Y-64750000D02*
X152737340Y-65237340D01*
X159815685Y-64750000D02*
X153224680Y-64750000D01*
X161750000Y-66684315D02*
X159815685Y-64750000D01*
X161750000Y-66750000D02*
X162000000Y-67000000D01*
X161750000Y-66684315D02*
X161750000Y-66750000D01*
X152750000Y-66250000D02*
X153500000Y-65500000D01*
X153500000Y-65500000D02*
X157250000Y-65500000D01*
X157250000Y-65500000D02*
X157500000Y-65250000D01*
X157500000Y-65250000D02*
X159000000Y-65250000D01*
X177667940Y-66332060D02*
X168054707Y-66332060D01*
X179000000Y-65000000D02*
X177667940Y-66332060D01*
X159000000Y-65250000D02*
X160250000Y-66500000D01*
X189975002Y-98459313D02*
X192696975Y-95737340D01*
X189250000Y-102750000D02*
X189975002Y-102024998D01*
X189975002Y-102024998D02*
X189975002Y-98459313D01*
X192696975Y-95737340D02*
X193262660Y-95737340D01*
X194277132Y-76527132D02*
X194277132Y-82521010D01*
X193500000Y-75750000D02*
X194277132Y-76527132D01*
X154750000Y-108500000D02*
X156000000Y-109750000D01*
X156000000Y-109750000D02*
X160500000Y-109750000D01*
X160500000Y-109750000D02*
X161250000Y-110500000D01*
X161250000Y-116500000D02*
X161500000Y-116750000D01*
X161250000Y-110500000D02*
X161250000Y-116500000D01*
X156750000Y-100750000D02*
X155375010Y-100750000D01*
X158000000Y-102000000D02*
X156750000Y-100750000D01*
X155000000Y-74750000D02*
X156000000Y-75750000D01*
X156000000Y-75750000D02*
X156000000Y-76500000D01*
X156000000Y-76500000D02*
X157000000Y-77500000D01*
X161750000Y-77500000D02*
X162500000Y-76750000D01*
X157000000Y-77500000D02*
X161750000Y-77500000D01*
X162408896Y-72908896D02*
X157641104Y-72908896D01*
X156550000Y-74000000D02*
X153500000Y-74000000D01*
X157641104Y-72908896D02*
X156550000Y-74000000D01*
X162408896Y-72908896D02*
X163000000Y-73500000D01*
X221804771Y-88085314D02*
X223429357Y-88085314D01*
X223429357Y-88085314D02*
X223651469Y-88307426D01*
X221804771Y-88085314D02*
X221164686Y-88085314D01*
X221164686Y-88085314D02*
X220250000Y-89000000D01*
X220250000Y-93100000D02*
X219750000Y-93600000D01*
X220250000Y-89000000D02*
X220250000Y-93100000D01*
X158050000Y-80050000D02*
X155399960Y-80050000D01*
X155399960Y-80050000D02*
X154624990Y-79275030D01*
X226750000Y-85750000D02*
X225500000Y-85750000D01*
X162157483Y-71704597D02*
X162649344Y-72196458D01*
X157954597Y-71704597D02*
X162157483Y-71704597D01*
X157500000Y-71250000D02*
X157954597Y-71704597D01*
X223450000Y-89950000D02*
X222207672Y-89950000D01*
X222207672Y-89950000D02*
X221511615Y-89253943D01*
X221511615Y-89253943D02*
X221511615Y-88829679D01*
X160300000Y-69250000D02*
X158153241Y-69250000D01*
X158153241Y-69250000D02*
X157474968Y-68571727D01*
X157924979Y-67879609D02*
X158450716Y-67353872D01*
X158450716Y-67353872D02*
X158450716Y-65875010D01*
X224650000Y-93600000D02*
X225000000Y-93250000D01*
X225000000Y-88581920D02*
X224527557Y-88109477D01*
X225000000Y-93250000D02*
X225000000Y-88581920D01*
X219326000Y-86574000D02*
X219326000Y-84388500D01*
X224527557Y-88109477D02*
X223868080Y-87450000D01*
X218200000Y-87700000D02*
X219326000Y-86574000D01*
X223868080Y-87450000D02*
X218450000Y-87450000D01*
X218450000Y-87450000D02*
X218200000Y-87700000D01*
X226729960Y-93467093D02*
X226522042Y-93675011D01*
X226729960Y-91403307D02*
X226729960Y-93467093D01*
X222624934Y-89175476D02*
X222337325Y-88887867D01*
X224296769Y-88875477D02*
X223996770Y-89175476D01*
X223996770Y-89175476D02*
X222624934Y-89175476D01*
X175262660Y-60487340D02*
X175262660Y-53512660D01*
X172850000Y-62900000D02*
X175262660Y-60487340D01*
D31*
X228750000Y-105000000D02*
X228750000Y-110750000D01*
X229500000Y-104250000D02*
X228750000Y-105000000D01*
X192000000Y-105750000D02*
X192000000Y-104000000D01*
D29*
X241050000Y-105450000D02*
X242250000Y-106650000D01*
X241050000Y-105250000D02*
X241050000Y-105450000D01*
D30*
X245550000Y-104400000D02*
X245450000Y-104300000D01*
X245550000Y-106450000D02*
X245550000Y-104400000D01*
D32*
X260200000Y-56150000D02*
X254900000Y-50850000D01*
D30*
X227750000Y-53500000D02*
X230250000Y-51000000D01*
X224250000Y-53500000D02*
X227750000Y-53500000D01*
D29*
X205750000Y-54750000D02*
X207500000Y-56500000D01*
X205750000Y-53250000D02*
X205750000Y-54750000D01*
D30*
X217950000Y-48540000D02*
X216310000Y-50180000D01*
X216310000Y-50180000D02*
X216110000Y-50180000D01*
X213040000Y-53250000D02*
X205750000Y-53250000D01*
X216110000Y-50180000D02*
X213040000Y-53250000D01*
X218422499Y-46765036D02*
X218951465Y-47294002D01*
X218951465Y-47294002D02*
X220900638Y-47294002D01*
X220900638Y-47294002D02*
X221895384Y-46299256D01*
X223548701Y-45497422D02*
X222746867Y-46299256D01*
X222746867Y-46299256D02*
X221895384Y-46299256D01*
X141750000Y-62000000D02*
X141750000Y-68750000D01*
X141750000Y-68750000D02*
X143000000Y-70000000D01*
X143000000Y-76750000D02*
X146750000Y-80500000D01*
X143000000Y-70000000D02*
X143000000Y-76750000D01*
X153750000Y-86750000D02*
X158500000Y-86750000D01*
X218440000Y-56840000D02*
X219860000Y-58260000D01*
X224280000Y-58260000D02*
X224800000Y-58780000D01*
X219860000Y-58260000D02*
X224280000Y-58260000D01*
X223750000Y-61000000D02*
X222030338Y-59280338D01*
X222030338Y-59280338D02*
X221530338Y-59280338D01*
X222276445Y-44392551D02*
X222276445Y-44363862D01*
X219999996Y-46669000D02*
X222276445Y-44392551D01*
D33*
X241284000Y-91306000D02*
X242300000Y-90290000D01*
X239760000Y-91306000D02*
X241284000Y-91306000D01*
X239760000Y-94690000D02*
X239750000Y-94700000D01*
X239760000Y-91306000D02*
X239760000Y-94690000D01*
D31*
X233650000Y-86950000D02*
X233550000Y-86850000D01*
X233650000Y-88450000D02*
X233650000Y-86950000D01*
D30*
X232000000Y-90100000D02*
X233650000Y-88450000D01*
X230300000Y-90100000D02*
X232000000Y-90100000D01*
X234650000Y-86100000D02*
X234650000Y-84650000D01*
D29*
X233650000Y-90650000D02*
X233750000Y-90750000D01*
X233650000Y-88450000D02*
X233650000Y-90650000D01*
D31*
X234800000Y-93900000D02*
X233650000Y-92750000D01*
X234800000Y-94250000D02*
X234800000Y-93900000D01*
D30*
X233421844Y-85796846D02*
X227724979Y-85796846D01*
X237220000Y-91306000D02*
X234349999Y-88435999D01*
X234349999Y-86725001D02*
X233421844Y-85796846D01*
X234349999Y-88435999D02*
X234349999Y-86725001D01*
X238500000Y-92300000D02*
X235900001Y-94899999D01*
X235900001Y-94899999D02*
X234049999Y-94899999D01*
X237220000Y-88766000D02*
X238500000Y-90046000D01*
X238500000Y-90046000D02*
X238500000Y-92300000D01*
X234049999Y-94899999D02*
X233800000Y-94650000D01*
D33*
X234850000Y-68050000D02*
X234850000Y-71640000D01*
X234850000Y-71640000D02*
X241160000Y-77950000D01*
X241160000Y-77950000D02*
X243720000Y-77950000D01*
X250970000Y-85200000D02*
X250970000Y-90770000D01*
X243720000Y-77950000D02*
X250970000Y-85200000D01*
D30*
X239930000Y-69420000D02*
X237950000Y-69420000D01*
X237950000Y-69420000D02*
X236850000Y-68320000D01*
X236850000Y-63840000D02*
X236440000Y-63430000D01*
X236850000Y-68320000D02*
X236850000Y-63840000D01*
X223978051Y-50771949D02*
X224855155Y-49894845D01*
X223228051Y-50771949D02*
X223978051Y-50771949D01*
X222180000Y-48740000D02*
X220590000Y-48740000D01*
X223160000Y-49720000D02*
X222180000Y-48740000D01*
D31*
X246210000Y-44150000D02*
X245550000Y-44810000D01*
X246210000Y-40660000D02*
X246210000Y-44150000D01*
D30*
X219257796Y-46245010D02*
X219257796Y-44399339D01*
X219257796Y-44399339D02*
X219210000Y-44351543D01*
X229350000Y-41360000D02*
X229370000Y-41380000D01*
X226850000Y-41360000D02*
X229350000Y-41360000D01*
D33*
X226890000Y-62760000D02*
X233860000Y-55790000D01*
X233860000Y-55790000D02*
X244660000Y-55790000D01*
X251600000Y-48850000D02*
X261460000Y-48850000D01*
X244660000Y-55790000D02*
X251600000Y-48850000D01*
D31*
X255610000Y-58040000D02*
X255820000Y-57830000D01*
X253540000Y-58040000D02*
X255610000Y-58040000D01*
M02*
