G04 #@! TF.GenerationSoftware,KiCad,Pcbnew,5.1.7-a382d34a8~88~ubuntu20.04.1*
G04 #@! TF.CreationDate,2021-05-06T14:12:58-05:00*
G04 #@! TF.ProjectId,access-controller,61636365-7373-42d6-936f-6e74726f6c6c,rev?*
G04 #@! TF.SameCoordinates,Original*
G04 #@! TF.FileFunction,Paste,Top*
G04 #@! TF.FilePolarity,Positive*
%FSLAX46Y46*%
G04 Gerber Fmt 4.6, Leading zero omitted, Abs format (unit mm)*
G04 Created by KiCad (PCBNEW 5.1.7-a382d34a8~88~ubuntu20.04.1) date 2021-05-06 14:12:58*
%MOMM*%
%LPD*%
G01*
G04 APERTURE LIST*
%ADD10R,3.400001X2.400000*%
%ADD11R,2.000000X1.500000*%
%ADD12R,1.000000X3.150000*%
%ADD13R,2.100000X1.800000*%
%ADD14R,3.150000X1.000000*%
%ADD15R,2.000000X0.900000*%
%ADD16R,0.900000X2.000000*%
%ADD17R,5.000000X5.000000*%
%ADD18R,0.900000X0.800000*%
%ADD19R,2.000000X0.640000*%
%ADD20R,1.270000X0.325000*%
%ADD21R,4.550000X5.250000*%
%ADD22R,4.600000X1.100000*%
%ADD23R,1.500000X2.000000*%
%ADD24R,3.800000X2.000000*%
%ADD25R,5.250000X4.550000*%
%ADD26R,1.100000X4.600000*%
%ADD27R,1.300000X0.800000*%
%ADD28R,0.800000X1.300000*%
%ADD29R,1.016000X0.635000*%
%ADD30R,1.016000X0.381000*%
%ADD31R,0.500000X0.320000*%
%ADD32R,0.320000X0.500000*%
%ADD33R,1.560000X0.650000*%
%ADD34R,0.400000X1.500000*%
%ADD35R,1.500000X0.400000*%
%ADD36R,1.550000X1.300000*%
%ADD37R,1.500000X2.400000*%
%ADD38R,1.800000X3.500000*%
%ADD39R,1.000000X1.000000*%
%ADD40R,3.500000X2.300000*%
%ADD41R,0.900000X1.200000*%
G04 APERTURE END LIST*
G36*
G01*
X223148851Y-46893200D02*
X223301251Y-46893200D01*
G75*
G02*
X223377451Y-46969400I0J-76200D01*
G01*
X223377451Y-48087000D01*
G75*
G02*
X223301251Y-48163200I-76200J0D01*
G01*
X223148851Y-48163200D01*
G75*
G02*
X223072651Y-48087000I0J76200D01*
G01*
X223072651Y-46969400D01*
G75*
G02*
X223148851Y-46893200I76200J0D01*
G01*
G37*
G36*
G01*
X222498840Y-46893200D02*
X222651240Y-46893200D01*
G75*
G02*
X222727440Y-46969400I0J-76200D01*
G01*
X222727440Y-48087000D01*
G75*
G02*
X222651240Y-48163200I-76200J0D01*
G01*
X222498840Y-48163200D01*
G75*
G02*
X222422640Y-48087000I0J76200D01*
G01*
X222422640Y-46969400D01*
G75*
G02*
X222498840Y-46893200I76200J0D01*
G01*
G37*
G36*
G01*
X221848828Y-46893200D02*
X222001228Y-46893200D01*
G75*
G02*
X222077428Y-46969400I0J-76200D01*
G01*
X222077428Y-48087000D01*
G75*
G02*
X222001228Y-48163200I-76200J0D01*
G01*
X221848828Y-48163200D01*
G75*
G02*
X221772628Y-48087000I0J76200D01*
G01*
X221772628Y-46969400D01*
G75*
G02*
X221848828Y-46893200I76200J0D01*
G01*
G37*
G36*
G01*
X221198817Y-46893200D02*
X221351217Y-46893200D01*
G75*
G02*
X221427417Y-46969400I0J-76200D01*
G01*
X221427417Y-48087000D01*
G75*
G02*
X221351217Y-48163200I-76200J0D01*
G01*
X221198817Y-48163200D01*
G75*
G02*
X221122617Y-48087000I0J76200D01*
G01*
X221122617Y-46969400D01*
G75*
G02*
X221198817Y-46893200I76200J0D01*
G01*
G37*
G36*
G01*
X220548806Y-46893200D02*
X220701206Y-46893200D01*
G75*
G02*
X220777406Y-46969400I0J-76200D01*
G01*
X220777406Y-48087000D01*
G75*
G02*
X220701206Y-48163200I-76200J0D01*
G01*
X220548806Y-48163200D01*
G75*
G02*
X220472606Y-48087000I0J76200D01*
G01*
X220472606Y-46969400D01*
G75*
G02*
X220548806Y-46893200I76200J0D01*
G01*
G37*
G36*
G01*
X219898794Y-46893200D02*
X220051194Y-46893200D01*
G75*
G02*
X220127394Y-46969400I0J-76200D01*
G01*
X220127394Y-48087000D01*
G75*
G02*
X220051194Y-48163200I-76200J0D01*
G01*
X219898794Y-48163200D01*
G75*
G02*
X219822594Y-48087000I0J76200D01*
G01*
X219822594Y-46969400D01*
G75*
G02*
X219898794Y-46893200I76200J0D01*
G01*
G37*
G36*
G01*
X219248783Y-46893200D02*
X219401183Y-46893200D01*
G75*
G02*
X219477383Y-46969400I0J-76200D01*
G01*
X219477383Y-48087000D01*
G75*
G02*
X219401183Y-48163200I-76200J0D01*
G01*
X219248783Y-48163200D01*
G75*
G02*
X219172583Y-48087000I0J76200D01*
G01*
X219172583Y-46969400D01*
G75*
G02*
X219248783Y-46893200I76200J0D01*
G01*
G37*
G36*
G01*
X218598772Y-46893200D02*
X218751172Y-46893200D01*
G75*
G02*
X218827372Y-46969400I0J-76200D01*
G01*
X218827372Y-48087000D01*
G75*
G02*
X218751172Y-48163200I-76200J0D01*
G01*
X218598772Y-48163200D01*
G75*
G02*
X218522572Y-48087000I0J76200D01*
G01*
X218522572Y-46969400D01*
G75*
G02*
X218598772Y-46893200I76200J0D01*
G01*
G37*
G36*
G01*
X217948760Y-46893200D02*
X218101160Y-46893200D01*
G75*
G02*
X218177360Y-46969400I0J-76200D01*
G01*
X218177360Y-48087000D01*
G75*
G02*
X218101160Y-48163200I-76200J0D01*
G01*
X217948760Y-48163200D01*
G75*
G02*
X217872560Y-48087000I0J76200D01*
G01*
X217872560Y-46969400D01*
G75*
G02*
X217948760Y-46893200I76200J0D01*
G01*
G37*
G36*
G01*
X217298749Y-46893200D02*
X217451149Y-46893200D01*
G75*
G02*
X217527349Y-46969400I0J-76200D01*
G01*
X217527349Y-48087000D01*
G75*
G02*
X217451149Y-48163200I-76200J0D01*
G01*
X217298749Y-48163200D01*
G75*
G02*
X217222549Y-48087000I0J76200D01*
G01*
X217222549Y-46969400D01*
G75*
G02*
X217298749Y-46893200I76200J0D01*
G01*
G37*
G36*
G01*
X217298749Y-52836800D02*
X217451149Y-52836800D01*
G75*
G02*
X217527349Y-52913000I0J-76200D01*
G01*
X217527349Y-54030600D01*
G75*
G02*
X217451149Y-54106800I-76200J0D01*
G01*
X217298749Y-54106800D01*
G75*
G02*
X217222549Y-54030600I0J76200D01*
G01*
X217222549Y-52913000D01*
G75*
G02*
X217298749Y-52836800I76200J0D01*
G01*
G37*
G36*
G01*
X217948760Y-52836800D02*
X218101160Y-52836800D01*
G75*
G02*
X218177360Y-52913000I0J-76200D01*
G01*
X218177360Y-54030600D01*
G75*
G02*
X218101160Y-54106800I-76200J0D01*
G01*
X217948760Y-54106800D01*
G75*
G02*
X217872560Y-54030600I0J76200D01*
G01*
X217872560Y-52913000D01*
G75*
G02*
X217948760Y-52836800I76200J0D01*
G01*
G37*
G36*
G01*
X218598772Y-52836800D02*
X218751172Y-52836800D01*
G75*
G02*
X218827372Y-52913000I0J-76200D01*
G01*
X218827372Y-54030600D01*
G75*
G02*
X218751172Y-54106800I-76200J0D01*
G01*
X218598772Y-54106800D01*
G75*
G02*
X218522572Y-54030600I0J76200D01*
G01*
X218522572Y-52913000D01*
G75*
G02*
X218598772Y-52836800I76200J0D01*
G01*
G37*
G36*
G01*
X219248783Y-52836800D02*
X219401183Y-52836800D01*
G75*
G02*
X219477383Y-52913000I0J-76200D01*
G01*
X219477383Y-54030600D01*
G75*
G02*
X219401183Y-54106800I-76200J0D01*
G01*
X219248783Y-54106800D01*
G75*
G02*
X219172583Y-54030600I0J76200D01*
G01*
X219172583Y-52913000D01*
G75*
G02*
X219248783Y-52836800I76200J0D01*
G01*
G37*
G36*
G01*
X219898794Y-52836800D02*
X220051194Y-52836800D01*
G75*
G02*
X220127394Y-52913000I0J-76200D01*
G01*
X220127394Y-54030600D01*
G75*
G02*
X220051194Y-54106800I-76200J0D01*
G01*
X219898794Y-54106800D01*
G75*
G02*
X219822594Y-54030600I0J76200D01*
G01*
X219822594Y-52913000D01*
G75*
G02*
X219898794Y-52836800I76200J0D01*
G01*
G37*
G36*
G01*
X220548806Y-52836800D02*
X220701206Y-52836800D01*
G75*
G02*
X220777406Y-52913000I0J-76200D01*
G01*
X220777406Y-54030600D01*
G75*
G02*
X220701206Y-54106800I-76200J0D01*
G01*
X220548806Y-54106800D01*
G75*
G02*
X220472606Y-54030600I0J76200D01*
G01*
X220472606Y-52913000D01*
G75*
G02*
X220548806Y-52836800I76200J0D01*
G01*
G37*
G36*
G01*
X221198817Y-52836800D02*
X221351217Y-52836800D01*
G75*
G02*
X221427417Y-52913000I0J-76200D01*
G01*
X221427417Y-54030600D01*
G75*
G02*
X221351217Y-54106800I-76200J0D01*
G01*
X221198817Y-54106800D01*
G75*
G02*
X221122617Y-54030600I0J76200D01*
G01*
X221122617Y-52913000D01*
G75*
G02*
X221198817Y-52836800I76200J0D01*
G01*
G37*
G36*
G01*
X221848828Y-52836800D02*
X222001228Y-52836800D01*
G75*
G02*
X222077428Y-52913000I0J-76200D01*
G01*
X222077428Y-54030600D01*
G75*
G02*
X222001228Y-54106800I-76200J0D01*
G01*
X221848828Y-54106800D01*
G75*
G02*
X221772628Y-54030600I0J76200D01*
G01*
X221772628Y-52913000D01*
G75*
G02*
X221848828Y-52836800I76200J0D01*
G01*
G37*
G36*
G01*
X222498840Y-52836800D02*
X222651240Y-52836800D01*
G75*
G02*
X222727440Y-52913000I0J-76200D01*
G01*
X222727440Y-54030600D01*
G75*
G02*
X222651240Y-54106800I-76200J0D01*
G01*
X222498840Y-54106800D01*
G75*
G02*
X222422640Y-54030600I0J76200D01*
G01*
X222422640Y-52913000D01*
G75*
G02*
X222498840Y-52836800I76200J0D01*
G01*
G37*
G36*
G01*
X223148851Y-52836800D02*
X223301251Y-52836800D01*
G75*
G02*
X223377451Y-52913000I0J-76200D01*
G01*
X223377451Y-54030600D01*
G75*
G02*
X223301251Y-54106800I-76200J0D01*
G01*
X223148851Y-54106800D01*
G75*
G02*
X223072651Y-54030600I0J76200D01*
G01*
X223072651Y-52913000D01*
G75*
G02*
X223148851Y-52836800I76200J0D01*
G01*
G37*
D10*
X220300000Y-50500000D03*
G36*
G01*
X247112500Y-36600000D02*
X247112500Y-36920000D01*
G75*
G02*
X246952500Y-37080000I-160000J0D01*
G01*
X246557500Y-37080000D01*
G75*
G02*
X246397500Y-36920000I0J160000D01*
G01*
X246397500Y-36600000D01*
G75*
G02*
X246557500Y-36440000I160000J0D01*
G01*
X246952500Y-36440000D01*
G75*
G02*
X247112500Y-36600000I0J-160000D01*
G01*
G37*
G36*
G01*
X248307500Y-36600000D02*
X248307500Y-36920000D01*
G75*
G02*
X248147500Y-37080000I-160000J0D01*
G01*
X247752500Y-37080000D01*
G75*
G02*
X247592500Y-36920000I0J160000D01*
G01*
X247592500Y-36600000D01*
G75*
G02*
X247752500Y-36440000I160000J0D01*
G01*
X248147500Y-36440000D01*
G75*
G02*
X248307500Y-36600000I0J-160000D01*
G01*
G37*
G36*
G01*
X239665000Y-61540000D02*
X239975000Y-61540000D01*
G75*
G02*
X240130000Y-61695000I0J-155000D01*
G01*
X240130000Y-62120000D01*
G75*
G02*
X239975000Y-62275000I-155000J0D01*
G01*
X239665000Y-62275000D01*
G75*
G02*
X239510000Y-62120000I0J155000D01*
G01*
X239510000Y-61695000D01*
G75*
G02*
X239665000Y-61540000I155000J0D01*
G01*
G37*
G36*
G01*
X239665000Y-60405000D02*
X239975000Y-60405000D01*
G75*
G02*
X240130000Y-60560000I0J-155000D01*
G01*
X240130000Y-60985000D01*
G75*
G02*
X239975000Y-61140000I-155000J0D01*
G01*
X239665000Y-61140000D01*
G75*
G02*
X239510000Y-60985000I0J155000D01*
G01*
X239510000Y-60560000D01*
G75*
G02*
X239665000Y-60405000I155000J0D01*
G01*
G37*
G36*
G01*
X202960000Y-60560000D02*
X202640000Y-60560000D01*
G75*
G02*
X202480000Y-60400000I0J160000D01*
G01*
X202480000Y-60005000D01*
G75*
G02*
X202640000Y-59845000I160000J0D01*
G01*
X202960000Y-59845000D01*
G75*
G02*
X203120000Y-60005000I0J-160000D01*
G01*
X203120000Y-60400000D01*
G75*
G02*
X202960000Y-60560000I-160000J0D01*
G01*
G37*
G36*
G01*
X202960000Y-61755000D02*
X202640000Y-61755000D01*
G75*
G02*
X202480000Y-61595000I0J160000D01*
G01*
X202480000Y-61200000D01*
G75*
G02*
X202640000Y-61040000I160000J0D01*
G01*
X202960000Y-61040000D01*
G75*
G02*
X203120000Y-61200000I0J-160000D01*
G01*
X203120000Y-61595000D01*
G75*
G02*
X202960000Y-61755000I-160000J0D01*
G01*
G37*
G36*
G01*
X201510000Y-60510000D02*
X201190000Y-60510000D01*
G75*
G02*
X201030000Y-60350000I0J160000D01*
G01*
X201030000Y-59955000D01*
G75*
G02*
X201190000Y-59795000I160000J0D01*
G01*
X201510000Y-59795000D01*
G75*
G02*
X201670000Y-59955000I0J-160000D01*
G01*
X201670000Y-60350000D01*
G75*
G02*
X201510000Y-60510000I-160000J0D01*
G01*
G37*
G36*
G01*
X201510000Y-61705000D02*
X201190000Y-61705000D01*
G75*
G02*
X201030000Y-61545000I0J160000D01*
G01*
X201030000Y-61150000D01*
G75*
G02*
X201190000Y-60990000I160000J0D01*
G01*
X201510000Y-60990000D01*
G75*
G02*
X201670000Y-61150000I0J-160000D01*
G01*
X201670000Y-61545000D01*
G75*
G02*
X201510000Y-61705000I-160000J0D01*
G01*
G37*
G36*
G01*
X225110000Y-93990000D02*
X225110000Y-94310000D01*
G75*
G02*
X224950000Y-94470000I-160000J0D01*
G01*
X224555000Y-94470000D01*
G75*
G02*
X224395000Y-94310000I0J160000D01*
G01*
X224395000Y-93990000D01*
G75*
G02*
X224555000Y-93830000I160000J0D01*
G01*
X224950000Y-93830000D01*
G75*
G02*
X225110000Y-93990000I0J-160000D01*
G01*
G37*
G36*
G01*
X226305000Y-93990000D02*
X226305000Y-94310000D01*
G75*
G02*
X226145000Y-94470000I-160000J0D01*
G01*
X225750000Y-94470000D01*
G75*
G02*
X225590000Y-94310000I0J160000D01*
G01*
X225590000Y-93990000D01*
G75*
G02*
X225750000Y-93830000I160000J0D01*
G01*
X226145000Y-93830000D01*
G75*
G02*
X226305000Y-93990000I0J-160000D01*
G01*
G37*
G36*
G01*
X228025000Y-94012500D02*
X228025000Y-94487500D01*
G75*
G02*
X227787500Y-94725000I-237500J0D01*
G01*
X227187500Y-94725000D01*
G75*
G02*
X226950000Y-94487500I0J237500D01*
G01*
X226950000Y-94012500D01*
G75*
G02*
X227187500Y-93775000I237500J0D01*
G01*
X227787500Y-93775000D01*
G75*
G02*
X228025000Y-94012500I0J-237500D01*
G01*
G37*
G36*
G01*
X229750000Y-94012500D02*
X229750000Y-94487500D01*
G75*
G02*
X229512500Y-94725000I-237500J0D01*
G01*
X228912500Y-94725000D01*
G75*
G02*
X228675000Y-94487500I0J237500D01*
G01*
X228675000Y-94012500D01*
G75*
G02*
X228912500Y-93775000I237500J0D01*
G01*
X229512500Y-93775000D01*
G75*
G02*
X229750000Y-94012500I0J-237500D01*
G01*
G37*
G36*
G01*
X232062500Y-92540000D02*
X232062500Y-92860000D01*
G75*
G02*
X231902500Y-93020000I-160000J0D01*
G01*
X231507500Y-93020000D01*
G75*
G02*
X231347500Y-92860000I0J160000D01*
G01*
X231347500Y-92540000D01*
G75*
G02*
X231507500Y-92380000I160000J0D01*
G01*
X231902500Y-92380000D01*
G75*
G02*
X232062500Y-92540000I0J-160000D01*
G01*
G37*
G36*
G01*
X233257500Y-92540000D02*
X233257500Y-92860000D01*
G75*
G02*
X233097500Y-93020000I-160000J0D01*
G01*
X232702500Y-93020000D01*
G75*
G02*
X232542500Y-92860000I0J160000D01*
G01*
X232542500Y-92540000D01*
G75*
G02*
X232702500Y-92380000I160000J0D01*
G01*
X233097500Y-92380000D01*
G75*
G02*
X233257500Y-92540000I0J-160000D01*
G01*
G37*
G36*
G01*
X262750000Y-43297500D02*
X262750000Y-42662500D01*
G75*
G02*
X263067500Y-42345000I317500J0D01*
G01*
X265732500Y-42345000D01*
G75*
G02*
X266050000Y-42662500I0J-317500D01*
G01*
X266050000Y-43297500D01*
G75*
G02*
X265732500Y-43615000I-317500J0D01*
G01*
X263067500Y-43615000D01*
G75*
G02*
X262750000Y-43297500I0J317500D01*
G01*
G37*
G36*
G01*
X262750000Y-55297500D02*
X262750000Y-54662500D01*
G75*
G02*
X263067500Y-54345000I317500J0D01*
G01*
X265732500Y-54345000D01*
G75*
G02*
X266050000Y-54662500I0J-317500D01*
G01*
X266050000Y-55297500D01*
G75*
G02*
X265732500Y-55615000I-317500J0D01*
G01*
X263067500Y-55615000D01*
G75*
G02*
X262750000Y-55297500I0J317500D01*
G01*
G37*
G36*
G01*
X262750000Y-52317500D02*
X262750000Y-51682500D01*
G75*
G02*
X263067500Y-51365000I317500J0D01*
G01*
X265732500Y-51365000D01*
G75*
G02*
X266050000Y-51682500I0J-317500D01*
G01*
X266050000Y-52317500D01*
G75*
G02*
X265732500Y-52635000I-317500J0D01*
G01*
X263067500Y-52635000D01*
G75*
G02*
X262750000Y-52317500I0J317500D01*
G01*
G37*
G36*
G01*
X262750000Y-49297500D02*
X262750000Y-48662500D01*
G75*
G02*
X263067500Y-48345000I317500J0D01*
G01*
X265732500Y-48345000D01*
G75*
G02*
X266050000Y-48662500I0J-317500D01*
G01*
X266050000Y-49297500D01*
G75*
G02*
X265732500Y-49615000I-317500J0D01*
G01*
X263067500Y-49615000D01*
G75*
G02*
X262750000Y-49297500I0J317500D01*
G01*
G37*
G36*
G01*
X262750000Y-46317500D02*
X262750000Y-45682500D01*
G75*
G02*
X263067500Y-45365000I317500J0D01*
G01*
X265732500Y-45365000D01*
G75*
G02*
X266050000Y-45682500I0J-317500D01*
G01*
X266050000Y-46317500D01*
G75*
G02*
X265732500Y-46635000I-317500J0D01*
G01*
X263067500Y-46635000D01*
G75*
G02*
X262750000Y-46317500I0J317500D01*
G01*
G37*
G36*
G01*
X262750000Y-40317500D02*
X262750000Y-39682500D01*
G75*
G02*
X263067500Y-39365000I317500J0D01*
G01*
X265732500Y-39365000D01*
G75*
G02*
X266050000Y-39682500I0J-317500D01*
G01*
X266050000Y-40317500D01*
G75*
G02*
X265732500Y-40635000I-317500J0D01*
G01*
X263067500Y-40635000D01*
G75*
G02*
X262750000Y-40317500I0J317500D01*
G01*
G37*
G36*
G01*
X237450000Y-55297500D02*
X237450000Y-54662500D01*
G75*
G02*
X237767500Y-54345000I317500J0D01*
G01*
X240432500Y-54345000D01*
G75*
G02*
X240750000Y-54662500I0J-317500D01*
G01*
X240750000Y-55297500D01*
G75*
G02*
X240432500Y-55615000I-317500J0D01*
G01*
X237767500Y-55615000D01*
G75*
G02*
X237450000Y-55297500I0J317500D01*
G01*
G37*
G36*
G01*
X237450000Y-52317500D02*
X237450000Y-51682500D01*
G75*
G02*
X237767500Y-51365000I317500J0D01*
G01*
X240432500Y-51365000D01*
G75*
G02*
X240750000Y-51682500I0J-317500D01*
G01*
X240750000Y-52317500D01*
G75*
G02*
X240432500Y-52635000I-317500J0D01*
G01*
X237767500Y-52635000D01*
G75*
G02*
X237450000Y-52317500I0J317500D01*
G01*
G37*
G36*
G01*
X237450000Y-49297500D02*
X237450000Y-48662500D01*
G75*
G02*
X237767500Y-48345000I317500J0D01*
G01*
X240432500Y-48345000D01*
G75*
G02*
X240750000Y-48662500I0J-317500D01*
G01*
X240750000Y-49297500D01*
G75*
G02*
X240432500Y-49615000I-317500J0D01*
G01*
X237767500Y-49615000D01*
G75*
G02*
X237450000Y-49297500I0J317500D01*
G01*
G37*
G36*
G01*
X237450000Y-46317500D02*
X237450000Y-45682500D01*
G75*
G02*
X237767500Y-45365000I317500J0D01*
G01*
X240432500Y-45365000D01*
G75*
G02*
X240750000Y-45682500I0J-317500D01*
G01*
X240750000Y-46317500D01*
G75*
G02*
X240432500Y-46635000I-317500J0D01*
G01*
X237767500Y-46635000D01*
G75*
G02*
X237450000Y-46317500I0J317500D01*
G01*
G37*
G36*
G01*
X237450000Y-43297500D02*
X237450000Y-42662500D01*
G75*
G02*
X237767500Y-42345000I317500J0D01*
G01*
X240432500Y-42345000D01*
G75*
G02*
X240750000Y-42662500I0J-317500D01*
G01*
X240750000Y-43297500D01*
G75*
G02*
X240432500Y-43615000I-317500J0D01*
G01*
X237767500Y-43615000D01*
G75*
G02*
X237450000Y-43297500I0J317500D01*
G01*
G37*
G36*
G01*
X237450000Y-40317500D02*
X237450000Y-39682500D01*
G75*
G02*
X237767500Y-39365000I317500J0D01*
G01*
X240432500Y-39365000D01*
G75*
G02*
X240750000Y-39682500I0J-317500D01*
G01*
X240750000Y-40317500D01*
G75*
G02*
X240432500Y-40635000I-317500J0D01*
G01*
X237767500Y-40635000D01*
G75*
G02*
X237450000Y-40317500I0J317500D01*
G01*
G37*
D11*
X226150000Y-77250000D03*
X226150000Y-74750000D03*
X232050000Y-74750000D03*
X232070000Y-77250000D03*
X232750000Y-67400000D03*
X232750000Y-69900000D03*
X226850000Y-69900000D03*
X226830000Y-67400000D03*
D12*
X231580000Y-50125000D03*
X231580000Y-45075000D03*
X234120000Y-50125000D03*
X234120000Y-45075000D03*
D13*
X252800000Y-98900000D03*
X255700000Y-98900000D03*
X255700000Y-101200000D03*
X252800000Y-101200000D03*
D14*
X170525000Y-70550000D03*
X165475000Y-70550000D03*
X170525000Y-68010000D03*
X165475000Y-68010000D03*
X170525000Y-65470000D03*
X165475000Y-65470000D03*
X170525000Y-62930000D03*
X165475000Y-62930000D03*
X170525000Y-60390000D03*
X165475000Y-60390000D03*
X170525000Y-57850000D03*
X165475000Y-57850000D03*
G36*
G01*
X226574999Y-88675000D02*
X227125001Y-88675000D01*
G75*
G02*
X227375000Y-88924999I0J-249999D01*
G01*
X227375000Y-89475001D01*
G75*
G02*
X227125001Y-89725000I-249999J0D01*
G01*
X226574999Y-89725000D01*
G75*
G02*
X226325000Y-89475001I0J249999D01*
G01*
X226325000Y-88924999D01*
G75*
G02*
X226574999Y-88675000I249999J0D01*
G01*
G37*
G36*
G01*
X227874999Y-88675000D02*
X228425001Y-88675000D01*
G75*
G02*
X228675000Y-88924999I0J-249999D01*
G01*
X228675000Y-89475001D01*
G75*
G02*
X228425001Y-89725000I-249999J0D01*
G01*
X227874999Y-89725000D01*
G75*
G02*
X227625000Y-89475001I0J249999D01*
G01*
X227625000Y-88924999D01*
G75*
G02*
X227874999Y-88675000I249999J0D01*
G01*
G37*
G36*
G01*
X226574999Y-87375000D02*
X227125001Y-87375000D01*
G75*
G02*
X227375000Y-87624999I0J-249999D01*
G01*
X227375000Y-88175001D01*
G75*
G02*
X227125001Y-88425000I-249999J0D01*
G01*
X226574999Y-88425000D01*
G75*
G02*
X226325000Y-88175001I0J249999D01*
G01*
X226325000Y-87624999D01*
G75*
G02*
X226574999Y-87375000I249999J0D01*
G01*
G37*
G36*
G01*
X227874999Y-87375000D02*
X228425001Y-87375000D01*
G75*
G02*
X228675000Y-87624999I0J-249999D01*
G01*
X228675000Y-88175001D01*
G75*
G02*
X228425001Y-88425000I-249999J0D01*
G01*
X227874999Y-88425000D01*
G75*
G02*
X227625000Y-88175001I0J249999D01*
G01*
X227625000Y-87624999D01*
G75*
G02*
X227874999Y-87375000I249999J0D01*
G01*
G37*
G36*
G01*
X229087500Y-87175000D02*
X229787500Y-87175000D01*
G75*
G02*
X229850000Y-87237500I0J-62500D01*
G01*
X229850000Y-87362500D01*
G75*
G02*
X229787500Y-87425000I-62500J0D01*
G01*
X229087500Y-87425000D01*
G75*
G02*
X229025000Y-87362500I0J62500D01*
G01*
X229025000Y-87237500D01*
G75*
G02*
X229087500Y-87175000I62500J0D01*
G01*
G37*
G36*
G01*
X229087500Y-87675000D02*
X229787500Y-87675000D01*
G75*
G02*
X229850000Y-87737500I0J-62500D01*
G01*
X229850000Y-87862500D01*
G75*
G02*
X229787500Y-87925000I-62500J0D01*
G01*
X229087500Y-87925000D01*
G75*
G02*
X229025000Y-87862500I0J62500D01*
G01*
X229025000Y-87737500D01*
G75*
G02*
X229087500Y-87675000I62500J0D01*
G01*
G37*
G36*
G01*
X229087500Y-88175000D02*
X229787500Y-88175000D01*
G75*
G02*
X229850000Y-88237500I0J-62500D01*
G01*
X229850000Y-88362500D01*
G75*
G02*
X229787500Y-88425000I-62500J0D01*
G01*
X229087500Y-88425000D01*
G75*
G02*
X229025000Y-88362500I0J62500D01*
G01*
X229025000Y-88237500D01*
G75*
G02*
X229087500Y-88175000I62500J0D01*
G01*
G37*
G36*
G01*
X229087500Y-88675000D02*
X229787500Y-88675000D01*
G75*
G02*
X229850000Y-88737500I0J-62500D01*
G01*
X229850000Y-88862500D01*
G75*
G02*
X229787500Y-88925000I-62500J0D01*
G01*
X229087500Y-88925000D01*
G75*
G02*
X229025000Y-88862500I0J62500D01*
G01*
X229025000Y-88737500D01*
G75*
G02*
X229087500Y-88675000I62500J0D01*
G01*
G37*
G36*
G01*
X229087500Y-89175000D02*
X229787500Y-89175000D01*
G75*
G02*
X229850000Y-89237500I0J-62500D01*
G01*
X229850000Y-89362500D01*
G75*
G02*
X229787500Y-89425000I-62500J0D01*
G01*
X229087500Y-89425000D01*
G75*
G02*
X229025000Y-89362500I0J62500D01*
G01*
X229025000Y-89237500D01*
G75*
G02*
X229087500Y-89175000I62500J0D01*
G01*
G37*
G36*
G01*
X229087500Y-89675000D02*
X229787500Y-89675000D01*
G75*
G02*
X229850000Y-89737500I0J-62500D01*
G01*
X229850000Y-89862500D01*
G75*
G02*
X229787500Y-89925000I-62500J0D01*
G01*
X229087500Y-89925000D01*
G75*
G02*
X229025000Y-89862500I0J62500D01*
G01*
X229025000Y-89737500D01*
G75*
G02*
X229087500Y-89675000I62500J0D01*
G01*
G37*
G36*
G01*
X228687500Y-90075000D02*
X228812500Y-90075000D01*
G75*
G02*
X228875000Y-90137500I0J-62500D01*
G01*
X228875000Y-90837500D01*
G75*
G02*
X228812500Y-90900000I-62500J0D01*
G01*
X228687500Y-90900000D01*
G75*
G02*
X228625000Y-90837500I0J62500D01*
G01*
X228625000Y-90137500D01*
G75*
G02*
X228687500Y-90075000I62500J0D01*
G01*
G37*
G36*
G01*
X228187500Y-90075000D02*
X228312500Y-90075000D01*
G75*
G02*
X228375000Y-90137500I0J-62500D01*
G01*
X228375000Y-90837500D01*
G75*
G02*
X228312500Y-90900000I-62500J0D01*
G01*
X228187500Y-90900000D01*
G75*
G02*
X228125000Y-90837500I0J62500D01*
G01*
X228125000Y-90137500D01*
G75*
G02*
X228187500Y-90075000I62500J0D01*
G01*
G37*
G36*
G01*
X227687500Y-90075000D02*
X227812500Y-90075000D01*
G75*
G02*
X227875000Y-90137500I0J-62500D01*
G01*
X227875000Y-90837500D01*
G75*
G02*
X227812500Y-90900000I-62500J0D01*
G01*
X227687500Y-90900000D01*
G75*
G02*
X227625000Y-90837500I0J62500D01*
G01*
X227625000Y-90137500D01*
G75*
G02*
X227687500Y-90075000I62500J0D01*
G01*
G37*
G36*
G01*
X227187500Y-90075000D02*
X227312500Y-90075000D01*
G75*
G02*
X227375000Y-90137500I0J-62500D01*
G01*
X227375000Y-90837500D01*
G75*
G02*
X227312500Y-90900000I-62500J0D01*
G01*
X227187500Y-90900000D01*
G75*
G02*
X227125000Y-90837500I0J62500D01*
G01*
X227125000Y-90137500D01*
G75*
G02*
X227187500Y-90075000I62500J0D01*
G01*
G37*
G36*
G01*
X226687500Y-90075000D02*
X226812500Y-90075000D01*
G75*
G02*
X226875000Y-90137500I0J-62500D01*
G01*
X226875000Y-90837500D01*
G75*
G02*
X226812500Y-90900000I-62500J0D01*
G01*
X226687500Y-90900000D01*
G75*
G02*
X226625000Y-90837500I0J62500D01*
G01*
X226625000Y-90137500D01*
G75*
G02*
X226687500Y-90075000I62500J0D01*
G01*
G37*
G36*
G01*
X226187500Y-90075000D02*
X226312500Y-90075000D01*
G75*
G02*
X226375000Y-90137500I0J-62500D01*
G01*
X226375000Y-90837500D01*
G75*
G02*
X226312500Y-90900000I-62500J0D01*
G01*
X226187500Y-90900000D01*
G75*
G02*
X226125000Y-90837500I0J62500D01*
G01*
X226125000Y-90137500D01*
G75*
G02*
X226187500Y-90075000I62500J0D01*
G01*
G37*
G36*
G01*
X225212500Y-89675000D02*
X225912500Y-89675000D01*
G75*
G02*
X225975000Y-89737500I0J-62500D01*
G01*
X225975000Y-89862500D01*
G75*
G02*
X225912500Y-89925000I-62500J0D01*
G01*
X225212500Y-89925000D01*
G75*
G02*
X225150000Y-89862500I0J62500D01*
G01*
X225150000Y-89737500D01*
G75*
G02*
X225212500Y-89675000I62500J0D01*
G01*
G37*
G36*
G01*
X225212500Y-89175000D02*
X225912500Y-89175000D01*
G75*
G02*
X225975000Y-89237500I0J-62500D01*
G01*
X225975000Y-89362500D01*
G75*
G02*
X225912500Y-89425000I-62500J0D01*
G01*
X225212500Y-89425000D01*
G75*
G02*
X225150000Y-89362500I0J62500D01*
G01*
X225150000Y-89237500D01*
G75*
G02*
X225212500Y-89175000I62500J0D01*
G01*
G37*
G36*
G01*
X225212500Y-88675000D02*
X225912500Y-88675000D01*
G75*
G02*
X225975000Y-88737500I0J-62500D01*
G01*
X225975000Y-88862500D01*
G75*
G02*
X225912500Y-88925000I-62500J0D01*
G01*
X225212500Y-88925000D01*
G75*
G02*
X225150000Y-88862500I0J62500D01*
G01*
X225150000Y-88737500D01*
G75*
G02*
X225212500Y-88675000I62500J0D01*
G01*
G37*
G36*
G01*
X225212500Y-88175000D02*
X225912500Y-88175000D01*
G75*
G02*
X225975000Y-88237500I0J-62500D01*
G01*
X225975000Y-88362500D01*
G75*
G02*
X225912500Y-88425000I-62500J0D01*
G01*
X225212500Y-88425000D01*
G75*
G02*
X225150000Y-88362500I0J62500D01*
G01*
X225150000Y-88237500D01*
G75*
G02*
X225212500Y-88175000I62500J0D01*
G01*
G37*
G36*
G01*
X225212500Y-87675000D02*
X225912500Y-87675000D01*
G75*
G02*
X225975000Y-87737500I0J-62500D01*
G01*
X225975000Y-87862500D01*
G75*
G02*
X225912500Y-87925000I-62500J0D01*
G01*
X225212500Y-87925000D01*
G75*
G02*
X225150000Y-87862500I0J62500D01*
G01*
X225150000Y-87737500D01*
G75*
G02*
X225212500Y-87675000I62500J0D01*
G01*
G37*
G36*
G01*
X225212500Y-87175000D02*
X225912500Y-87175000D01*
G75*
G02*
X225975000Y-87237500I0J-62500D01*
G01*
X225975000Y-87362500D01*
G75*
G02*
X225912500Y-87425000I-62500J0D01*
G01*
X225212500Y-87425000D01*
G75*
G02*
X225150000Y-87362500I0J62500D01*
G01*
X225150000Y-87237500D01*
G75*
G02*
X225212500Y-87175000I62500J0D01*
G01*
G37*
G36*
G01*
X226187500Y-86200000D02*
X226312500Y-86200000D01*
G75*
G02*
X226375000Y-86262500I0J-62500D01*
G01*
X226375000Y-86962500D01*
G75*
G02*
X226312500Y-87025000I-62500J0D01*
G01*
X226187500Y-87025000D01*
G75*
G02*
X226125000Y-86962500I0J62500D01*
G01*
X226125000Y-86262500D01*
G75*
G02*
X226187500Y-86200000I62500J0D01*
G01*
G37*
G36*
G01*
X226687500Y-86200000D02*
X226812500Y-86200000D01*
G75*
G02*
X226875000Y-86262500I0J-62500D01*
G01*
X226875000Y-86962500D01*
G75*
G02*
X226812500Y-87025000I-62500J0D01*
G01*
X226687500Y-87025000D01*
G75*
G02*
X226625000Y-86962500I0J62500D01*
G01*
X226625000Y-86262500D01*
G75*
G02*
X226687500Y-86200000I62500J0D01*
G01*
G37*
G36*
G01*
X227187500Y-86200000D02*
X227312500Y-86200000D01*
G75*
G02*
X227375000Y-86262500I0J-62500D01*
G01*
X227375000Y-86962500D01*
G75*
G02*
X227312500Y-87025000I-62500J0D01*
G01*
X227187500Y-87025000D01*
G75*
G02*
X227125000Y-86962500I0J62500D01*
G01*
X227125000Y-86262500D01*
G75*
G02*
X227187500Y-86200000I62500J0D01*
G01*
G37*
G36*
G01*
X227687500Y-86200000D02*
X227812500Y-86200000D01*
G75*
G02*
X227875000Y-86262500I0J-62500D01*
G01*
X227875000Y-86962500D01*
G75*
G02*
X227812500Y-87025000I-62500J0D01*
G01*
X227687500Y-87025000D01*
G75*
G02*
X227625000Y-86962500I0J62500D01*
G01*
X227625000Y-86262500D01*
G75*
G02*
X227687500Y-86200000I62500J0D01*
G01*
G37*
G36*
G01*
X228187500Y-86200000D02*
X228312500Y-86200000D01*
G75*
G02*
X228375000Y-86262500I0J-62500D01*
G01*
X228375000Y-86962500D01*
G75*
G02*
X228312500Y-87025000I-62500J0D01*
G01*
X228187500Y-87025000D01*
G75*
G02*
X228125000Y-86962500I0J62500D01*
G01*
X228125000Y-86262500D01*
G75*
G02*
X228187500Y-86200000I62500J0D01*
G01*
G37*
G36*
G01*
X228687500Y-86200000D02*
X228812500Y-86200000D01*
G75*
G02*
X228875000Y-86262500I0J-62500D01*
G01*
X228875000Y-86962500D01*
G75*
G02*
X228812500Y-87025000I-62500J0D01*
G01*
X228687500Y-87025000D01*
G75*
G02*
X228625000Y-86962500I0J62500D01*
G01*
X228625000Y-86262500D01*
G75*
G02*
X228687500Y-86200000I62500J0D01*
G01*
G37*
D15*
X154900000Y-55800000D03*
X154900000Y-57070000D03*
X154900000Y-58340000D03*
X154900000Y-59610000D03*
X154900000Y-60880000D03*
X154900000Y-62150000D03*
X154900000Y-63420000D03*
X154900000Y-64690000D03*
X154900000Y-65960000D03*
X154900000Y-67230000D03*
X154900000Y-68500000D03*
X154900000Y-69770000D03*
X154900000Y-71040000D03*
X154900000Y-72310000D03*
D16*
X152115000Y-73310000D03*
X150845000Y-73310000D03*
X149575000Y-73310000D03*
X148305000Y-73310000D03*
X147035000Y-73310000D03*
X145765000Y-73310000D03*
X144495000Y-73310000D03*
X143225000Y-73310000D03*
X141955000Y-73310000D03*
X140685000Y-73310000D03*
D15*
X137900000Y-72310000D03*
X137900000Y-71040000D03*
X137900000Y-69770000D03*
X137900000Y-68500000D03*
X137900000Y-67230000D03*
X137900000Y-65960000D03*
X137900000Y-64690000D03*
X137900000Y-63420000D03*
X137900000Y-62150000D03*
X137900000Y-60880000D03*
X137900000Y-59610000D03*
X137900000Y-58340000D03*
X137900000Y-57070000D03*
X137900000Y-55800000D03*
D17*
X145400000Y-63300000D03*
D18*
X206850000Y-64800000D03*
X208850000Y-63850000D03*
X208850000Y-65750000D03*
D19*
X204000000Y-55720000D03*
X204000000Y-53180000D03*
X214150000Y-53180000D03*
X214150000Y-55720000D03*
D20*
X249400000Y-110450000D03*
X249400000Y-109800000D03*
X249400000Y-109150000D03*
X249400000Y-108500000D03*
X249400000Y-107850000D03*
X249400000Y-107200000D03*
X249400000Y-106550000D03*
X249400000Y-105900000D03*
X249400000Y-105250000D03*
X249400000Y-104600000D03*
X256639000Y-104600000D03*
X256639000Y-105250000D03*
X256639000Y-105900000D03*
X256639000Y-106550000D03*
X256639000Y-107200000D03*
X256639000Y-107850000D03*
X256639000Y-108500000D03*
X256639000Y-109150000D03*
X256639000Y-109800000D03*
X256639000Y-110450000D03*
D21*
X194725000Y-50175000D03*
X199575000Y-44625000D03*
X194725000Y-44625000D03*
X199575000Y-50175000D03*
D22*
X188000000Y-50800000D03*
X188000000Y-49100000D03*
X188000000Y-47400000D03*
X188000000Y-45700000D03*
X188000000Y-44000000D03*
D23*
X181150000Y-94400000D03*
X185750000Y-94400000D03*
X183450000Y-94400000D03*
D24*
X183450000Y-88100000D03*
D25*
X203425000Y-94150000D03*
X197875000Y-89300000D03*
X197875000Y-94150000D03*
X203425000Y-89300000D03*
D26*
X204050000Y-100875000D03*
X202350000Y-100875000D03*
X200650000Y-100875000D03*
X198950000Y-100875000D03*
X197250000Y-100875000D03*
D27*
X198840000Y-61200000D03*
X198840000Y-62480000D03*
X198840000Y-63740000D03*
X198840000Y-65010000D03*
X198840000Y-66290000D03*
X198840000Y-67560000D03*
X198840000Y-68820000D03*
X198840000Y-70100000D03*
X192540000Y-70100000D03*
X192540000Y-68820000D03*
X192540000Y-67560000D03*
X192540000Y-66290000D03*
X192540000Y-65010000D03*
X192540000Y-63740000D03*
X192540000Y-62480000D03*
X192540000Y-61200000D03*
X173700000Y-43600000D03*
X173700000Y-44880000D03*
X173700000Y-46140000D03*
X173700000Y-47410000D03*
X173700000Y-48690000D03*
X173700000Y-49960000D03*
X173700000Y-51220000D03*
X173700000Y-52500000D03*
X167400000Y-52500000D03*
X167400000Y-51220000D03*
X167400000Y-49960000D03*
X167400000Y-48690000D03*
X167400000Y-47410000D03*
X167400000Y-46140000D03*
X167400000Y-44880000D03*
X167400000Y-43600000D03*
D28*
X121500000Y-73500000D03*
X122780000Y-73500000D03*
X124040000Y-73500000D03*
X125310000Y-73500000D03*
X126590000Y-73500000D03*
X127860000Y-73500000D03*
X129120000Y-73500000D03*
X130400000Y-73500000D03*
X130400000Y-79800000D03*
X129120000Y-79800000D03*
X127860000Y-79800000D03*
X126590000Y-79800000D03*
X125310000Y-79800000D03*
X124040000Y-79800000D03*
X122780000Y-79800000D03*
X121500000Y-79800000D03*
D27*
X187850000Y-98400000D03*
X187850000Y-99680000D03*
X187850000Y-100940000D03*
X187850000Y-102210000D03*
X187850000Y-103490000D03*
X187850000Y-104760000D03*
X187850000Y-106020000D03*
X187850000Y-107300000D03*
X181550000Y-107300000D03*
X181550000Y-106020000D03*
X181550000Y-104760000D03*
X181550000Y-103490000D03*
X181550000Y-102210000D03*
X181550000Y-100940000D03*
X181550000Y-99680000D03*
X181550000Y-98400000D03*
G36*
G01*
X185325000Y-54895000D02*
X185325000Y-54595000D01*
G75*
G02*
X185475000Y-54445000I150000J0D01*
G01*
X187225000Y-54445000D01*
G75*
G02*
X187375000Y-54595000I0J-150000D01*
G01*
X187375000Y-54895000D01*
G75*
G02*
X187225000Y-55045000I-150000J0D01*
G01*
X185475000Y-55045000D01*
G75*
G02*
X185325000Y-54895000I0J150000D01*
G01*
G37*
G36*
G01*
X185325000Y-56165000D02*
X185325000Y-55865000D01*
G75*
G02*
X185475000Y-55715000I150000J0D01*
G01*
X187225000Y-55715000D01*
G75*
G02*
X187375000Y-55865000I0J-150000D01*
G01*
X187375000Y-56165000D01*
G75*
G02*
X187225000Y-56315000I-150000J0D01*
G01*
X185475000Y-56315000D01*
G75*
G02*
X185325000Y-56165000I0J150000D01*
G01*
G37*
G36*
G01*
X185325000Y-57435000D02*
X185325000Y-57135000D01*
G75*
G02*
X185475000Y-56985000I150000J0D01*
G01*
X187225000Y-56985000D01*
G75*
G02*
X187375000Y-57135000I0J-150000D01*
G01*
X187375000Y-57435000D01*
G75*
G02*
X187225000Y-57585000I-150000J0D01*
G01*
X185475000Y-57585000D01*
G75*
G02*
X185325000Y-57435000I0J150000D01*
G01*
G37*
G36*
G01*
X185325000Y-58705000D02*
X185325000Y-58405000D01*
G75*
G02*
X185475000Y-58255000I150000J0D01*
G01*
X187225000Y-58255000D01*
G75*
G02*
X187375000Y-58405000I0J-150000D01*
G01*
X187375000Y-58705000D01*
G75*
G02*
X187225000Y-58855000I-150000J0D01*
G01*
X185475000Y-58855000D01*
G75*
G02*
X185325000Y-58705000I0J150000D01*
G01*
G37*
G36*
G01*
X185325000Y-59975000D02*
X185325000Y-59675000D01*
G75*
G02*
X185475000Y-59525000I150000J0D01*
G01*
X187225000Y-59525000D01*
G75*
G02*
X187375000Y-59675000I0J-150000D01*
G01*
X187375000Y-59975000D01*
G75*
G02*
X187225000Y-60125000I-150000J0D01*
G01*
X185475000Y-60125000D01*
G75*
G02*
X185325000Y-59975000I0J150000D01*
G01*
G37*
G36*
G01*
X185325000Y-61245000D02*
X185325000Y-60945000D01*
G75*
G02*
X185475000Y-60795000I150000J0D01*
G01*
X187225000Y-60795000D01*
G75*
G02*
X187375000Y-60945000I0J-150000D01*
G01*
X187375000Y-61245000D01*
G75*
G02*
X187225000Y-61395000I-150000J0D01*
G01*
X185475000Y-61395000D01*
G75*
G02*
X185325000Y-61245000I0J150000D01*
G01*
G37*
G36*
G01*
X185325000Y-62515000D02*
X185325000Y-62215000D01*
G75*
G02*
X185475000Y-62065000I150000J0D01*
G01*
X187225000Y-62065000D01*
G75*
G02*
X187375000Y-62215000I0J-150000D01*
G01*
X187375000Y-62515000D01*
G75*
G02*
X187225000Y-62665000I-150000J0D01*
G01*
X185475000Y-62665000D01*
G75*
G02*
X185325000Y-62515000I0J150000D01*
G01*
G37*
G36*
G01*
X185325000Y-63785000D02*
X185325000Y-63485000D01*
G75*
G02*
X185475000Y-63335000I150000J0D01*
G01*
X187225000Y-63335000D01*
G75*
G02*
X187375000Y-63485000I0J-150000D01*
G01*
X187375000Y-63785000D01*
G75*
G02*
X187225000Y-63935000I-150000J0D01*
G01*
X185475000Y-63935000D01*
G75*
G02*
X185325000Y-63785000I0J150000D01*
G01*
G37*
G36*
G01*
X185325000Y-65055000D02*
X185325000Y-64755000D01*
G75*
G02*
X185475000Y-64605000I150000J0D01*
G01*
X187225000Y-64605000D01*
G75*
G02*
X187375000Y-64755000I0J-150000D01*
G01*
X187375000Y-65055000D01*
G75*
G02*
X187225000Y-65205000I-150000J0D01*
G01*
X185475000Y-65205000D01*
G75*
G02*
X185325000Y-65055000I0J150000D01*
G01*
G37*
G36*
G01*
X185325000Y-66325000D02*
X185325000Y-66025000D01*
G75*
G02*
X185475000Y-65875000I150000J0D01*
G01*
X187225000Y-65875000D01*
G75*
G02*
X187375000Y-66025000I0J-150000D01*
G01*
X187375000Y-66325000D01*
G75*
G02*
X187225000Y-66475000I-150000J0D01*
G01*
X185475000Y-66475000D01*
G75*
G02*
X185325000Y-66325000I0J150000D01*
G01*
G37*
G36*
G01*
X185325000Y-67595000D02*
X185325000Y-67295000D01*
G75*
G02*
X185475000Y-67145000I150000J0D01*
G01*
X187225000Y-67145000D01*
G75*
G02*
X187375000Y-67295000I0J-150000D01*
G01*
X187375000Y-67595000D01*
G75*
G02*
X187225000Y-67745000I-150000J0D01*
G01*
X185475000Y-67745000D01*
G75*
G02*
X185325000Y-67595000I0J150000D01*
G01*
G37*
G36*
G01*
X185325000Y-68865000D02*
X185325000Y-68565000D01*
G75*
G02*
X185475000Y-68415000I150000J0D01*
G01*
X187225000Y-68415000D01*
G75*
G02*
X187375000Y-68565000I0J-150000D01*
G01*
X187375000Y-68865000D01*
G75*
G02*
X187225000Y-69015000I-150000J0D01*
G01*
X185475000Y-69015000D01*
G75*
G02*
X185325000Y-68865000I0J150000D01*
G01*
G37*
G36*
G01*
X185325000Y-70135000D02*
X185325000Y-69835000D01*
G75*
G02*
X185475000Y-69685000I150000J0D01*
G01*
X187225000Y-69685000D01*
G75*
G02*
X187375000Y-69835000I0J-150000D01*
G01*
X187375000Y-70135000D01*
G75*
G02*
X187225000Y-70285000I-150000J0D01*
G01*
X185475000Y-70285000D01*
G75*
G02*
X185325000Y-70135000I0J150000D01*
G01*
G37*
G36*
G01*
X185325000Y-71405000D02*
X185325000Y-71105000D01*
G75*
G02*
X185475000Y-70955000I150000J0D01*
G01*
X187225000Y-70955000D01*
G75*
G02*
X187375000Y-71105000I0J-150000D01*
G01*
X187375000Y-71405000D01*
G75*
G02*
X187225000Y-71555000I-150000J0D01*
G01*
X185475000Y-71555000D01*
G75*
G02*
X185325000Y-71405000I0J150000D01*
G01*
G37*
G36*
G01*
X176025000Y-71405000D02*
X176025000Y-71105000D01*
G75*
G02*
X176175000Y-70955000I150000J0D01*
G01*
X177925000Y-70955000D01*
G75*
G02*
X178075000Y-71105000I0J-150000D01*
G01*
X178075000Y-71405000D01*
G75*
G02*
X177925000Y-71555000I-150000J0D01*
G01*
X176175000Y-71555000D01*
G75*
G02*
X176025000Y-71405000I0J150000D01*
G01*
G37*
G36*
G01*
X176025000Y-70135000D02*
X176025000Y-69835000D01*
G75*
G02*
X176175000Y-69685000I150000J0D01*
G01*
X177925000Y-69685000D01*
G75*
G02*
X178075000Y-69835000I0J-150000D01*
G01*
X178075000Y-70135000D01*
G75*
G02*
X177925000Y-70285000I-150000J0D01*
G01*
X176175000Y-70285000D01*
G75*
G02*
X176025000Y-70135000I0J150000D01*
G01*
G37*
G36*
G01*
X176025000Y-68865000D02*
X176025000Y-68565000D01*
G75*
G02*
X176175000Y-68415000I150000J0D01*
G01*
X177925000Y-68415000D01*
G75*
G02*
X178075000Y-68565000I0J-150000D01*
G01*
X178075000Y-68865000D01*
G75*
G02*
X177925000Y-69015000I-150000J0D01*
G01*
X176175000Y-69015000D01*
G75*
G02*
X176025000Y-68865000I0J150000D01*
G01*
G37*
G36*
G01*
X176025000Y-67595000D02*
X176025000Y-67295000D01*
G75*
G02*
X176175000Y-67145000I150000J0D01*
G01*
X177925000Y-67145000D01*
G75*
G02*
X178075000Y-67295000I0J-150000D01*
G01*
X178075000Y-67595000D01*
G75*
G02*
X177925000Y-67745000I-150000J0D01*
G01*
X176175000Y-67745000D01*
G75*
G02*
X176025000Y-67595000I0J150000D01*
G01*
G37*
G36*
G01*
X176025000Y-66325000D02*
X176025000Y-66025000D01*
G75*
G02*
X176175000Y-65875000I150000J0D01*
G01*
X177925000Y-65875000D01*
G75*
G02*
X178075000Y-66025000I0J-150000D01*
G01*
X178075000Y-66325000D01*
G75*
G02*
X177925000Y-66475000I-150000J0D01*
G01*
X176175000Y-66475000D01*
G75*
G02*
X176025000Y-66325000I0J150000D01*
G01*
G37*
G36*
G01*
X176025000Y-65055000D02*
X176025000Y-64755000D01*
G75*
G02*
X176175000Y-64605000I150000J0D01*
G01*
X177925000Y-64605000D01*
G75*
G02*
X178075000Y-64755000I0J-150000D01*
G01*
X178075000Y-65055000D01*
G75*
G02*
X177925000Y-65205000I-150000J0D01*
G01*
X176175000Y-65205000D01*
G75*
G02*
X176025000Y-65055000I0J150000D01*
G01*
G37*
G36*
G01*
X176025000Y-63785000D02*
X176025000Y-63485000D01*
G75*
G02*
X176175000Y-63335000I150000J0D01*
G01*
X177925000Y-63335000D01*
G75*
G02*
X178075000Y-63485000I0J-150000D01*
G01*
X178075000Y-63785000D01*
G75*
G02*
X177925000Y-63935000I-150000J0D01*
G01*
X176175000Y-63935000D01*
G75*
G02*
X176025000Y-63785000I0J150000D01*
G01*
G37*
G36*
G01*
X176025000Y-62515000D02*
X176025000Y-62215000D01*
G75*
G02*
X176175000Y-62065000I150000J0D01*
G01*
X177925000Y-62065000D01*
G75*
G02*
X178075000Y-62215000I0J-150000D01*
G01*
X178075000Y-62515000D01*
G75*
G02*
X177925000Y-62665000I-150000J0D01*
G01*
X176175000Y-62665000D01*
G75*
G02*
X176025000Y-62515000I0J150000D01*
G01*
G37*
G36*
G01*
X176025000Y-61245000D02*
X176025000Y-60945000D01*
G75*
G02*
X176175000Y-60795000I150000J0D01*
G01*
X177925000Y-60795000D01*
G75*
G02*
X178075000Y-60945000I0J-150000D01*
G01*
X178075000Y-61245000D01*
G75*
G02*
X177925000Y-61395000I-150000J0D01*
G01*
X176175000Y-61395000D01*
G75*
G02*
X176025000Y-61245000I0J150000D01*
G01*
G37*
G36*
G01*
X176025000Y-59975000D02*
X176025000Y-59675000D01*
G75*
G02*
X176175000Y-59525000I150000J0D01*
G01*
X177925000Y-59525000D01*
G75*
G02*
X178075000Y-59675000I0J-150000D01*
G01*
X178075000Y-59975000D01*
G75*
G02*
X177925000Y-60125000I-150000J0D01*
G01*
X176175000Y-60125000D01*
G75*
G02*
X176025000Y-59975000I0J150000D01*
G01*
G37*
G36*
G01*
X176025000Y-58705000D02*
X176025000Y-58405000D01*
G75*
G02*
X176175000Y-58255000I150000J0D01*
G01*
X177925000Y-58255000D01*
G75*
G02*
X178075000Y-58405000I0J-150000D01*
G01*
X178075000Y-58705000D01*
G75*
G02*
X177925000Y-58855000I-150000J0D01*
G01*
X176175000Y-58855000D01*
G75*
G02*
X176025000Y-58705000I0J150000D01*
G01*
G37*
G36*
G01*
X176025000Y-57435000D02*
X176025000Y-57135000D01*
G75*
G02*
X176175000Y-56985000I150000J0D01*
G01*
X177925000Y-56985000D01*
G75*
G02*
X178075000Y-57135000I0J-150000D01*
G01*
X178075000Y-57435000D01*
G75*
G02*
X177925000Y-57585000I-150000J0D01*
G01*
X176175000Y-57585000D01*
G75*
G02*
X176025000Y-57435000I0J150000D01*
G01*
G37*
G36*
G01*
X176025000Y-56165000D02*
X176025000Y-55865000D01*
G75*
G02*
X176175000Y-55715000I150000J0D01*
G01*
X177925000Y-55715000D01*
G75*
G02*
X178075000Y-55865000I0J-150000D01*
G01*
X178075000Y-56165000D01*
G75*
G02*
X177925000Y-56315000I-150000J0D01*
G01*
X176175000Y-56315000D01*
G75*
G02*
X176025000Y-56165000I0J150000D01*
G01*
G37*
G36*
G01*
X176025000Y-54895000D02*
X176025000Y-54595000D01*
G75*
G02*
X176175000Y-54445000I150000J0D01*
G01*
X177925000Y-54445000D01*
G75*
G02*
X178075000Y-54595000I0J-150000D01*
G01*
X178075000Y-54895000D01*
G75*
G02*
X177925000Y-55045000I-150000J0D01*
G01*
X176175000Y-55045000D01*
G75*
G02*
X176025000Y-54895000I0J150000D01*
G01*
G37*
D29*
X215262000Y-87230000D03*
X213738000Y-87230000D03*
X215262000Y-89770000D03*
X213738000Y-89770000D03*
D30*
X215262000Y-88119000D03*
X215262000Y-88881000D03*
X213738000Y-88119000D03*
X213738000Y-88881000D03*
D29*
X219326000Y-89801000D03*
X220850000Y-89801000D03*
X219326000Y-87261000D03*
X220850000Y-87261000D03*
D30*
X219326000Y-88912000D03*
X219326000Y-88150000D03*
X220850000Y-88912000D03*
X220850000Y-88150000D03*
G36*
G01*
X232060000Y-94490000D02*
X232060000Y-94810000D01*
G75*
G02*
X231900000Y-94970000I-160000J0D01*
G01*
X231505000Y-94970000D01*
G75*
G02*
X231345000Y-94810000I0J160000D01*
G01*
X231345000Y-94490000D01*
G75*
G02*
X231505000Y-94330000I160000J0D01*
G01*
X231900000Y-94330000D01*
G75*
G02*
X232060000Y-94490000I0J-160000D01*
G01*
G37*
G36*
G01*
X233255000Y-94490000D02*
X233255000Y-94810000D01*
G75*
G02*
X233095000Y-94970000I-160000J0D01*
G01*
X232700000Y-94970000D01*
G75*
G02*
X232540000Y-94810000I0J160000D01*
G01*
X232540000Y-94490000D01*
G75*
G02*
X232700000Y-94330000I160000J0D01*
G01*
X233095000Y-94330000D01*
G75*
G02*
X233255000Y-94490000I0J-160000D01*
G01*
G37*
G36*
G01*
X232590000Y-83060000D02*
X232590000Y-82740000D01*
G75*
G02*
X232750000Y-82580000I160000J0D01*
G01*
X233145000Y-82580000D01*
G75*
G02*
X233305000Y-82740000I0J-160000D01*
G01*
X233305000Y-83060000D01*
G75*
G02*
X233145000Y-83220000I-160000J0D01*
G01*
X232750000Y-83220000D01*
G75*
G02*
X232590000Y-83060000I0J160000D01*
G01*
G37*
G36*
G01*
X231395000Y-83060000D02*
X231395000Y-82740000D01*
G75*
G02*
X231555000Y-82580000I160000J0D01*
G01*
X231950000Y-82580000D01*
G75*
G02*
X232110000Y-82740000I0J-160000D01*
G01*
X232110000Y-83060000D01*
G75*
G02*
X231950000Y-83220000I-160000J0D01*
G01*
X231555000Y-83220000D01*
G75*
G02*
X231395000Y-83060000I0J160000D01*
G01*
G37*
G36*
G01*
X232112500Y-90640000D02*
X232112500Y-90960000D01*
G75*
G02*
X231952500Y-91120000I-160000J0D01*
G01*
X231557500Y-91120000D01*
G75*
G02*
X231397500Y-90960000I0J160000D01*
G01*
X231397500Y-90640000D01*
G75*
G02*
X231557500Y-90480000I160000J0D01*
G01*
X231952500Y-90480000D01*
G75*
G02*
X232112500Y-90640000I0J-160000D01*
G01*
G37*
G36*
G01*
X233307500Y-90640000D02*
X233307500Y-90960000D01*
G75*
G02*
X233147500Y-91120000I-160000J0D01*
G01*
X232752500Y-91120000D01*
G75*
G02*
X232592500Y-90960000I0J160000D01*
G01*
X232592500Y-90640000D01*
G75*
G02*
X232752500Y-90480000I160000J0D01*
G01*
X233147500Y-90480000D01*
G75*
G02*
X233307500Y-90640000I0J-160000D01*
G01*
G37*
G36*
G01*
X232062500Y-86790000D02*
X232062500Y-87110000D01*
G75*
G02*
X231902500Y-87270000I-160000J0D01*
G01*
X231507500Y-87270000D01*
G75*
G02*
X231347500Y-87110000I0J160000D01*
G01*
X231347500Y-86790000D01*
G75*
G02*
X231507500Y-86630000I160000J0D01*
G01*
X231902500Y-86630000D01*
G75*
G02*
X232062500Y-86790000I0J-160000D01*
G01*
G37*
G36*
G01*
X233257500Y-86790000D02*
X233257500Y-87110000D01*
G75*
G02*
X233097500Y-87270000I-160000J0D01*
G01*
X232702500Y-87270000D01*
G75*
G02*
X232542500Y-87110000I0J160000D01*
G01*
X232542500Y-86790000D01*
G75*
G02*
X232702500Y-86630000I160000J0D01*
G01*
X233097500Y-86630000D01*
G75*
G02*
X233257500Y-86790000I0J-160000D01*
G01*
G37*
G36*
G01*
X232542500Y-85110000D02*
X232542500Y-84790000D01*
G75*
G02*
X232702500Y-84630000I160000J0D01*
G01*
X233097500Y-84630000D01*
G75*
G02*
X233257500Y-84790000I0J-160000D01*
G01*
X233257500Y-85110000D01*
G75*
G02*
X233097500Y-85270000I-160000J0D01*
G01*
X232702500Y-85270000D01*
G75*
G02*
X232542500Y-85110000I0J160000D01*
G01*
G37*
G36*
G01*
X231347500Y-85110000D02*
X231347500Y-84790000D01*
G75*
G02*
X231507500Y-84630000I160000J0D01*
G01*
X231902500Y-84630000D01*
G75*
G02*
X232062500Y-84790000I0J-160000D01*
G01*
X232062500Y-85110000D01*
G75*
G02*
X231902500Y-85270000I-160000J0D01*
G01*
X231507500Y-85270000D01*
G75*
G02*
X231347500Y-85110000I0J160000D01*
G01*
G37*
G36*
G01*
X232062500Y-88740000D02*
X232062500Y-89060000D01*
G75*
G02*
X231902500Y-89220000I-160000J0D01*
G01*
X231507500Y-89220000D01*
G75*
G02*
X231347500Y-89060000I0J160000D01*
G01*
X231347500Y-88740000D01*
G75*
G02*
X231507500Y-88580000I160000J0D01*
G01*
X231902500Y-88580000D01*
G75*
G02*
X232062500Y-88740000I0J-160000D01*
G01*
G37*
G36*
G01*
X233257500Y-88740000D02*
X233257500Y-89060000D01*
G75*
G02*
X233097500Y-89220000I-160000J0D01*
G01*
X232702500Y-89220000D01*
G75*
G02*
X232542500Y-89060000I0J160000D01*
G01*
X232542500Y-88740000D01*
G75*
G02*
X232702500Y-88580000I160000J0D01*
G01*
X233097500Y-88580000D01*
G75*
G02*
X233257500Y-88740000I0J-160000D01*
G01*
G37*
G36*
G01*
X228260000Y-100110000D02*
X227940000Y-100110000D01*
G75*
G02*
X227780000Y-99950000I0J160000D01*
G01*
X227780000Y-99555000D01*
G75*
G02*
X227940000Y-99395000I160000J0D01*
G01*
X228260000Y-99395000D01*
G75*
G02*
X228420000Y-99555000I0J-160000D01*
G01*
X228420000Y-99950000D01*
G75*
G02*
X228260000Y-100110000I-160000J0D01*
G01*
G37*
G36*
G01*
X228260000Y-101305000D02*
X227940000Y-101305000D01*
G75*
G02*
X227780000Y-101145000I0J160000D01*
G01*
X227780000Y-100750000D01*
G75*
G02*
X227940000Y-100590000I160000J0D01*
G01*
X228260000Y-100590000D01*
G75*
G02*
X228420000Y-100750000I0J-160000D01*
G01*
X228420000Y-101145000D01*
G75*
G02*
X228260000Y-101305000I-160000J0D01*
G01*
G37*
G36*
G01*
X229540000Y-100590000D02*
X229860000Y-100590000D01*
G75*
G02*
X230020000Y-100750000I0J-160000D01*
G01*
X230020000Y-101145000D01*
G75*
G02*
X229860000Y-101305000I-160000J0D01*
G01*
X229540000Y-101305000D01*
G75*
G02*
X229380000Y-101145000I0J160000D01*
G01*
X229380000Y-100750000D01*
G75*
G02*
X229540000Y-100590000I160000J0D01*
G01*
G37*
G36*
G01*
X229540000Y-99395000D02*
X229860000Y-99395000D01*
G75*
G02*
X230020000Y-99555000I0J-160000D01*
G01*
X230020000Y-99950000D01*
G75*
G02*
X229860000Y-100110000I-160000J0D01*
G01*
X229540000Y-100110000D01*
G75*
G02*
X229380000Y-99950000I0J160000D01*
G01*
X229380000Y-99555000D01*
G75*
G02*
X229540000Y-99395000I160000J0D01*
G01*
G37*
G36*
G01*
X172762500Y-85675000D02*
X173237500Y-85675000D01*
G75*
G02*
X173475000Y-85912500I0J-237500D01*
G01*
X173475000Y-86412500D01*
G75*
G02*
X173237500Y-86650000I-237500J0D01*
G01*
X172762500Y-86650000D01*
G75*
G02*
X172525000Y-86412500I0J237500D01*
G01*
X172525000Y-85912500D01*
G75*
G02*
X172762500Y-85675000I237500J0D01*
G01*
G37*
G36*
G01*
X172762500Y-83850000D02*
X173237500Y-83850000D01*
G75*
G02*
X173475000Y-84087500I0J-237500D01*
G01*
X173475000Y-84587500D01*
G75*
G02*
X173237500Y-84825000I-237500J0D01*
G01*
X172762500Y-84825000D01*
G75*
G02*
X172525000Y-84587500I0J237500D01*
G01*
X172525000Y-84087500D01*
G75*
G02*
X172762500Y-83850000I237500J0D01*
G01*
G37*
G36*
G01*
X173237500Y-104175000D02*
X172762500Y-104175000D01*
G75*
G02*
X172525000Y-103937500I0J237500D01*
G01*
X172525000Y-103437500D01*
G75*
G02*
X172762500Y-103200000I237500J0D01*
G01*
X173237500Y-103200000D01*
G75*
G02*
X173475000Y-103437500I0J-237500D01*
G01*
X173475000Y-103937500D01*
G75*
G02*
X173237500Y-104175000I-237500J0D01*
G01*
G37*
G36*
G01*
X173237500Y-106000000D02*
X172762500Y-106000000D01*
G75*
G02*
X172525000Y-105762500I0J237500D01*
G01*
X172525000Y-105262500D01*
G75*
G02*
X172762500Y-105025000I237500J0D01*
G01*
X173237500Y-105025000D01*
G75*
G02*
X173475000Y-105262500I0J-237500D01*
G01*
X173475000Y-105762500D01*
G75*
G02*
X173237500Y-106000000I-237500J0D01*
G01*
G37*
G36*
G01*
X173187500Y-96975000D02*
X172712500Y-96975000D01*
G75*
G02*
X172475000Y-96737500I0J237500D01*
G01*
X172475000Y-96237500D01*
G75*
G02*
X172712500Y-96000000I237500J0D01*
G01*
X173187500Y-96000000D01*
G75*
G02*
X173425000Y-96237500I0J-237500D01*
G01*
X173425000Y-96737500D01*
G75*
G02*
X173187500Y-96975000I-237500J0D01*
G01*
G37*
G36*
G01*
X173187500Y-98800000D02*
X172712500Y-98800000D01*
G75*
G02*
X172475000Y-98562500I0J237500D01*
G01*
X172475000Y-98062500D01*
G75*
G02*
X172712500Y-97825000I237500J0D01*
G01*
X173187500Y-97825000D01*
G75*
G02*
X173425000Y-98062500I0J-237500D01*
G01*
X173425000Y-98562500D01*
G75*
G02*
X173187500Y-98800000I-237500J0D01*
G01*
G37*
G36*
G01*
X203950000Y-68150000D02*
X203950000Y-68470000D01*
G75*
G02*
X203790000Y-68630000I-160000J0D01*
G01*
X203395000Y-68630000D01*
G75*
G02*
X203235000Y-68470000I0J160000D01*
G01*
X203235000Y-68150000D01*
G75*
G02*
X203395000Y-67990000I160000J0D01*
G01*
X203790000Y-67990000D01*
G75*
G02*
X203950000Y-68150000I0J-160000D01*
G01*
G37*
G36*
G01*
X205145000Y-68150000D02*
X205145000Y-68470000D01*
G75*
G02*
X204985000Y-68630000I-160000J0D01*
G01*
X204590000Y-68630000D01*
G75*
G02*
X204430000Y-68470000I0J160000D01*
G01*
X204430000Y-68150000D01*
G75*
G02*
X204590000Y-67990000I160000J0D01*
G01*
X204985000Y-67990000D01*
G75*
G02*
X205145000Y-68150000I0J-160000D01*
G01*
G37*
G36*
G01*
X212490000Y-57410000D02*
X212490000Y-57090000D01*
G75*
G02*
X212650000Y-56930000I160000J0D01*
G01*
X213045000Y-56930000D01*
G75*
G02*
X213205000Y-57090000I0J-160000D01*
G01*
X213205000Y-57410000D01*
G75*
G02*
X213045000Y-57570000I-160000J0D01*
G01*
X212650000Y-57570000D01*
G75*
G02*
X212490000Y-57410000I0J160000D01*
G01*
G37*
G36*
G01*
X211295000Y-57410000D02*
X211295000Y-57090000D01*
G75*
G02*
X211455000Y-56930000I160000J0D01*
G01*
X211850000Y-56930000D01*
G75*
G02*
X212010000Y-57090000I0J-160000D01*
G01*
X212010000Y-57410000D01*
G75*
G02*
X211850000Y-57570000I-160000J0D01*
G01*
X211455000Y-57570000D01*
G75*
G02*
X211295000Y-57410000I0J160000D01*
G01*
G37*
G36*
G01*
X243297500Y-67365000D02*
X242822500Y-67365000D01*
G75*
G02*
X242585000Y-67127500I0J237500D01*
G01*
X242585000Y-66627500D01*
G75*
G02*
X242822500Y-66390000I237500J0D01*
G01*
X243297500Y-66390000D01*
G75*
G02*
X243535000Y-66627500I0J-237500D01*
G01*
X243535000Y-67127500D01*
G75*
G02*
X243297500Y-67365000I-237500J0D01*
G01*
G37*
G36*
G01*
X243297500Y-69190000D02*
X242822500Y-69190000D01*
G75*
G02*
X242585000Y-68952500I0J237500D01*
G01*
X242585000Y-68452500D01*
G75*
G02*
X242822500Y-68215000I237500J0D01*
G01*
X243297500Y-68215000D01*
G75*
G02*
X243535000Y-68452500I0J-237500D01*
G01*
X243535000Y-68952500D01*
G75*
G02*
X243297500Y-69190000I-237500J0D01*
G01*
G37*
G36*
G01*
X236720000Y-67350000D02*
X236400000Y-67350000D01*
G75*
G02*
X236240000Y-67190000I0J160000D01*
G01*
X236240000Y-66795000D01*
G75*
G02*
X236400000Y-66635000I160000J0D01*
G01*
X236720000Y-66635000D01*
G75*
G02*
X236880000Y-66795000I0J-160000D01*
G01*
X236880000Y-67190000D01*
G75*
G02*
X236720000Y-67350000I-160000J0D01*
G01*
G37*
G36*
G01*
X236720000Y-68545000D02*
X236400000Y-68545000D01*
G75*
G02*
X236240000Y-68385000I0J160000D01*
G01*
X236240000Y-67990000D01*
G75*
G02*
X236400000Y-67830000I160000J0D01*
G01*
X236720000Y-67830000D01*
G75*
G02*
X236880000Y-67990000I0J-160000D01*
G01*
X236880000Y-68385000D01*
G75*
G02*
X236720000Y-68545000I-160000J0D01*
G01*
G37*
G36*
G01*
X221660000Y-56060000D02*
X221340000Y-56060000D01*
G75*
G02*
X221180000Y-55900000I0J160000D01*
G01*
X221180000Y-55505000D01*
G75*
G02*
X221340000Y-55345000I160000J0D01*
G01*
X221660000Y-55345000D01*
G75*
G02*
X221820000Y-55505000I0J-160000D01*
G01*
X221820000Y-55900000D01*
G75*
G02*
X221660000Y-56060000I-160000J0D01*
G01*
G37*
G36*
G01*
X221660000Y-57255000D02*
X221340000Y-57255000D01*
G75*
G02*
X221180000Y-57095000I0J160000D01*
G01*
X221180000Y-56700000D01*
G75*
G02*
X221340000Y-56540000I160000J0D01*
G01*
X221660000Y-56540000D01*
G75*
G02*
X221820000Y-56700000I0J-160000D01*
G01*
X221820000Y-57095000D01*
G75*
G02*
X221660000Y-57255000I-160000J0D01*
G01*
G37*
G36*
G01*
X223110000Y-56110000D02*
X222790000Y-56110000D01*
G75*
G02*
X222630000Y-55950000I0J160000D01*
G01*
X222630000Y-55555000D01*
G75*
G02*
X222790000Y-55395000I160000J0D01*
G01*
X223110000Y-55395000D01*
G75*
G02*
X223270000Y-55555000I0J-160000D01*
G01*
X223270000Y-55950000D01*
G75*
G02*
X223110000Y-56110000I-160000J0D01*
G01*
G37*
G36*
G01*
X223110000Y-57305000D02*
X222790000Y-57305000D01*
G75*
G02*
X222630000Y-57145000I0J160000D01*
G01*
X222630000Y-56750000D01*
G75*
G02*
X222790000Y-56590000I160000J0D01*
G01*
X223110000Y-56590000D01*
G75*
G02*
X223270000Y-56750000I0J-160000D01*
G01*
X223270000Y-57145000D01*
G75*
G02*
X223110000Y-57305000I-160000J0D01*
G01*
G37*
G36*
G01*
X218925000Y-58337500D02*
X218925000Y-57862500D01*
G75*
G02*
X219162500Y-57625000I237500J0D01*
G01*
X219662500Y-57625000D01*
G75*
G02*
X219900000Y-57862500I0J-237500D01*
G01*
X219900000Y-58337500D01*
G75*
G02*
X219662500Y-58575000I-237500J0D01*
G01*
X219162500Y-58575000D01*
G75*
G02*
X218925000Y-58337500I0J237500D01*
G01*
G37*
G36*
G01*
X217100000Y-58337500D02*
X217100000Y-57862500D01*
G75*
G02*
X217337500Y-57625000I237500J0D01*
G01*
X217837500Y-57625000D01*
G75*
G02*
X218075000Y-57862500I0J-237500D01*
G01*
X218075000Y-58337500D01*
G75*
G02*
X217837500Y-58575000I-237500J0D01*
G01*
X217337500Y-58575000D01*
G75*
G02*
X217100000Y-58337500I0J237500D01*
G01*
G37*
G36*
G01*
X218975000Y-56137500D02*
X218975000Y-55662500D01*
G75*
G02*
X219212500Y-55425000I237500J0D01*
G01*
X219712500Y-55425000D01*
G75*
G02*
X219950000Y-55662500I0J-237500D01*
G01*
X219950000Y-56137500D01*
G75*
G02*
X219712500Y-56375000I-237500J0D01*
G01*
X219212500Y-56375000D01*
G75*
G02*
X218975000Y-56137500I0J237500D01*
G01*
G37*
G36*
G01*
X217150000Y-56137500D02*
X217150000Y-55662500D01*
G75*
G02*
X217387500Y-55425000I237500J0D01*
G01*
X217887500Y-55425000D01*
G75*
G02*
X218125000Y-55662500I0J-237500D01*
G01*
X218125000Y-56137500D01*
G75*
G02*
X217887500Y-56375000I-237500J0D01*
G01*
X217387500Y-56375000D01*
G75*
G02*
X217150000Y-56137500I0J237500D01*
G01*
G37*
G36*
G01*
X226925000Y-46912500D02*
X226925000Y-47387500D01*
G75*
G02*
X226687500Y-47625000I-237500J0D01*
G01*
X226187500Y-47625000D01*
G75*
G02*
X225950000Y-47387500I0J237500D01*
G01*
X225950000Y-46912500D01*
G75*
G02*
X226187500Y-46675000I237500J0D01*
G01*
X226687500Y-46675000D01*
G75*
G02*
X226925000Y-46912500I0J-237500D01*
G01*
G37*
G36*
G01*
X228750000Y-46912500D02*
X228750000Y-47387500D01*
G75*
G02*
X228512500Y-47625000I-237500J0D01*
G01*
X228012500Y-47625000D01*
G75*
G02*
X227775000Y-47387500I0J237500D01*
G01*
X227775000Y-46912500D01*
G75*
G02*
X228012500Y-46675000I237500J0D01*
G01*
X228512500Y-46675000D01*
G75*
G02*
X228750000Y-46912500I0J-237500D01*
G01*
G37*
G36*
G01*
X227725000Y-45637500D02*
X227725000Y-45162500D01*
G75*
G02*
X227962500Y-44925000I237500J0D01*
G01*
X228462500Y-44925000D01*
G75*
G02*
X228700000Y-45162500I0J-237500D01*
G01*
X228700000Y-45637500D01*
G75*
G02*
X228462500Y-45875000I-237500J0D01*
G01*
X227962500Y-45875000D01*
G75*
G02*
X227725000Y-45637500I0J237500D01*
G01*
G37*
G36*
G01*
X225900000Y-45637500D02*
X225900000Y-45162500D01*
G75*
G02*
X226137500Y-44925000I237500J0D01*
G01*
X226637500Y-44925000D01*
G75*
G02*
X226875000Y-45162500I0J-237500D01*
G01*
X226875000Y-45637500D01*
G75*
G02*
X226637500Y-45875000I-237500J0D01*
G01*
X226137500Y-45875000D01*
G75*
G02*
X225900000Y-45637500I0J237500D01*
G01*
G37*
G36*
G01*
X249960000Y-113290000D02*
X249960000Y-113610000D01*
G75*
G02*
X249800000Y-113770000I-160000J0D01*
G01*
X249405000Y-113770000D01*
G75*
G02*
X249245000Y-113610000I0J160000D01*
G01*
X249245000Y-113290000D01*
G75*
G02*
X249405000Y-113130000I160000J0D01*
G01*
X249800000Y-113130000D01*
G75*
G02*
X249960000Y-113290000I0J-160000D01*
G01*
G37*
G36*
G01*
X251155000Y-113290000D02*
X251155000Y-113610000D01*
G75*
G02*
X250995000Y-113770000I-160000J0D01*
G01*
X250600000Y-113770000D01*
G75*
G02*
X250440000Y-113610000I0J160000D01*
G01*
X250440000Y-113290000D01*
G75*
G02*
X250600000Y-113130000I160000J0D01*
G01*
X250995000Y-113130000D01*
G75*
G02*
X251155000Y-113290000I0J-160000D01*
G01*
G37*
G36*
G01*
X243960000Y-107862500D02*
X243640000Y-107862500D01*
G75*
G02*
X243480000Y-107702500I0J160000D01*
G01*
X243480000Y-107307500D01*
G75*
G02*
X243640000Y-107147500I160000J0D01*
G01*
X243960000Y-107147500D01*
G75*
G02*
X244120000Y-107307500I0J-160000D01*
G01*
X244120000Y-107702500D01*
G75*
G02*
X243960000Y-107862500I-160000J0D01*
G01*
G37*
G36*
G01*
X243960000Y-109057500D02*
X243640000Y-109057500D01*
G75*
G02*
X243480000Y-108897500I0J160000D01*
G01*
X243480000Y-108502500D01*
G75*
G02*
X243640000Y-108342500I160000J0D01*
G01*
X243960000Y-108342500D01*
G75*
G02*
X244120000Y-108502500I0J-160000D01*
G01*
X244120000Y-108897500D01*
G75*
G02*
X243960000Y-109057500I-160000J0D01*
G01*
G37*
G36*
G01*
X242390000Y-104940000D02*
X242710000Y-104940000D01*
G75*
G02*
X242870000Y-105100000I0J-160000D01*
G01*
X242870000Y-105495000D01*
G75*
G02*
X242710000Y-105655000I-160000J0D01*
G01*
X242390000Y-105655000D01*
G75*
G02*
X242230000Y-105495000I0J160000D01*
G01*
X242230000Y-105100000D01*
G75*
G02*
X242390000Y-104940000I160000J0D01*
G01*
G37*
G36*
G01*
X242390000Y-103745000D02*
X242710000Y-103745000D01*
G75*
G02*
X242870000Y-103905000I0J-160000D01*
G01*
X242870000Y-104300000D01*
G75*
G02*
X242710000Y-104460000I-160000J0D01*
G01*
X242390000Y-104460000D01*
G75*
G02*
X242230000Y-104300000I0J160000D01*
G01*
X242230000Y-103905000D01*
G75*
G02*
X242390000Y-103745000I160000J0D01*
G01*
G37*
G36*
G01*
X245260000Y-107812500D02*
X244940000Y-107812500D01*
G75*
G02*
X244780000Y-107652500I0J160000D01*
G01*
X244780000Y-107257500D01*
G75*
G02*
X244940000Y-107097500I160000J0D01*
G01*
X245260000Y-107097500D01*
G75*
G02*
X245420000Y-107257500I0J-160000D01*
G01*
X245420000Y-107652500D01*
G75*
G02*
X245260000Y-107812500I-160000J0D01*
G01*
G37*
G36*
G01*
X245260000Y-109007500D02*
X244940000Y-109007500D01*
G75*
G02*
X244780000Y-108847500I0J160000D01*
G01*
X244780000Y-108452500D01*
G75*
G02*
X244940000Y-108292500I160000J0D01*
G01*
X245260000Y-108292500D01*
G75*
G02*
X245420000Y-108452500I0J-160000D01*
G01*
X245420000Y-108847500D01*
G75*
G02*
X245260000Y-109007500I-160000J0D01*
G01*
G37*
G36*
G01*
X249962500Y-114640000D02*
X249962500Y-114960000D01*
G75*
G02*
X249802500Y-115120000I-160000J0D01*
G01*
X249407500Y-115120000D01*
G75*
G02*
X249247500Y-114960000I0J160000D01*
G01*
X249247500Y-114640000D01*
G75*
G02*
X249407500Y-114480000I160000J0D01*
G01*
X249802500Y-114480000D01*
G75*
G02*
X249962500Y-114640000I0J-160000D01*
G01*
G37*
G36*
G01*
X251157500Y-114640000D02*
X251157500Y-114960000D01*
G75*
G02*
X250997500Y-115120000I-160000J0D01*
G01*
X250602500Y-115120000D01*
G75*
G02*
X250442500Y-114960000I0J160000D01*
G01*
X250442500Y-114640000D01*
G75*
G02*
X250602500Y-114480000I160000J0D01*
G01*
X250997500Y-114480000D01*
G75*
G02*
X251157500Y-114640000I0J-160000D01*
G01*
G37*
G36*
G01*
X258540000Y-112690000D02*
X258860000Y-112690000D01*
G75*
G02*
X259020000Y-112850000I0J-160000D01*
G01*
X259020000Y-113245000D01*
G75*
G02*
X258860000Y-113405000I-160000J0D01*
G01*
X258540000Y-113405000D01*
G75*
G02*
X258380000Y-113245000I0J160000D01*
G01*
X258380000Y-112850000D01*
G75*
G02*
X258540000Y-112690000I160000J0D01*
G01*
G37*
G36*
G01*
X258540000Y-111495000D02*
X258860000Y-111495000D01*
G75*
G02*
X259020000Y-111655000I0J-160000D01*
G01*
X259020000Y-112050000D01*
G75*
G02*
X258860000Y-112210000I-160000J0D01*
G01*
X258540000Y-112210000D01*
G75*
G02*
X258380000Y-112050000I0J160000D01*
G01*
X258380000Y-111655000D01*
G75*
G02*
X258540000Y-111495000I160000J0D01*
G01*
G37*
G36*
G01*
X195075000Y-56287500D02*
X195075000Y-55812500D01*
G75*
G02*
X195312500Y-55575000I237500J0D01*
G01*
X195812500Y-55575000D01*
G75*
G02*
X196050000Y-55812500I0J-237500D01*
G01*
X196050000Y-56287500D01*
G75*
G02*
X195812500Y-56525000I-237500J0D01*
G01*
X195312500Y-56525000D01*
G75*
G02*
X195075000Y-56287500I0J237500D01*
G01*
G37*
G36*
G01*
X193250000Y-56287500D02*
X193250000Y-55812500D01*
G75*
G02*
X193487500Y-55575000I237500J0D01*
G01*
X193987500Y-55575000D01*
G75*
G02*
X194225000Y-55812500I0J-237500D01*
G01*
X194225000Y-56287500D01*
G75*
G02*
X193987500Y-56525000I-237500J0D01*
G01*
X193487500Y-56525000D01*
G75*
G02*
X193250000Y-56287500I0J237500D01*
G01*
G37*
G36*
G01*
X178112500Y-94362500D02*
X178587500Y-94362500D01*
G75*
G02*
X178825000Y-94600000I0J-237500D01*
G01*
X178825000Y-95100000D01*
G75*
G02*
X178587500Y-95337500I-237500J0D01*
G01*
X178112500Y-95337500D01*
G75*
G02*
X177875000Y-95100000I0J237500D01*
G01*
X177875000Y-94600000D01*
G75*
G02*
X178112500Y-94362500I237500J0D01*
G01*
G37*
G36*
G01*
X178112500Y-92537500D02*
X178587500Y-92537500D01*
G75*
G02*
X178825000Y-92775000I0J-237500D01*
G01*
X178825000Y-93275000D01*
G75*
G02*
X178587500Y-93512500I-237500J0D01*
G01*
X178112500Y-93512500D01*
G75*
G02*
X177875000Y-93275000I0J237500D01*
G01*
X177875000Y-92775000D01*
G75*
G02*
X178112500Y-92537500I237500J0D01*
G01*
G37*
G36*
G01*
X160005000Y-57147500D02*
X160005000Y-56672500D01*
G75*
G02*
X160242500Y-56435000I237500J0D01*
G01*
X160742500Y-56435000D01*
G75*
G02*
X160980000Y-56672500I0J-237500D01*
G01*
X160980000Y-57147500D01*
G75*
G02*
X160742500Y-57385000I-237500J0D01*
G01*
X160242500Y-57385000D01*
G75*
G02*
X160005000Y-57147500I0J237500D01*
G01*
G37*
G36*
G01*
X158180000Y-57147500D02*
X158180000Y-56672500D01*
G75*
G02*
X158417500Y-56435000I237500J0D01*
G01*
X158917500Y-56435000D01*
G75*
G02*
X159155000Y-56672500I0J-237500D01*
G01*
X159155000Y-57147500D01*
G75*
G02*
X158917500Y-57385000I-237500J0D01*
G01*
X158417500Y-57385000D01*
G75*
G02*
X158180000Y-57147500I0J237500D01*
G01*
G37*
G36*
G01*
X209787500Y-97525000D02*
X209312500Y-97525000D01*
G75*
G02*
X209075000Y-97287500I0J237500D01*
G01*
X209075000Y-96787500D01*
G75*
G02*
X209312500Y-96550000I237500J0D01*
G01*
X209787500Y-96550000D01*
G75*
G02*
X210025000Y-96787500I0J-237500D01*
G01*
X210025000Y-97287500D01*
G75*
G02*
X209787500Y-97525000I-237500J0D01*
G01*
G37*
G36*
G01*
X209787500Y-99350000D02*
X209312500Y-99350000D01*
G75*
G02*
X209075000Y-99112500I0J237500D01*
G01*
X209075000Y-98612500D01*
G75*
G02*
X209312500Y-98375000I237500J0D01*
G01*
X209787500Y-98375000D01*
G75*
G02*
X210025000Y-98612500I0J-237500D01*
G01*
X210025000Y-99112500D01*
G75*
G02*
X209787500Y-99350000I-237500J0D01*
G01*
G37*
G36*
G01*
X207987500Y-97525000D02*
X207512500Y-97525000D01*
G75*
G02*
X207275000Y-97287500I0J237500D01*
G01*
X207275000Y-96787500D01*
G75*
G02*
X207512500Y-96550000I237500J0D01*
G01*
X207987500Y-96550000D01*
G75*
G02*
X208225000Y-96787500I0J-237500D01*
G01*
X208225000Y-97287500D01*
G75*
G02*
X207987500Y-97525000I-237500J0D01*
G01*
G37*
G36*
G01*
X207987500Y-99350000D02*
X207512500Y-99350000D01*
G75*
G02*
X207275000Y-99112500I0J237500D01*
G01*
X207275000Y-98612500D01*
G75*
G02*
X207512500Y-98375000I237500J0D01*
G01*
X207987500Y-98375000D01*
G75*
G02*
X208225000Y-98612500I0J-237500D01*
G01*
X208225000Y-99112500D01*
G75*
G02*
X207987500Y-99350000I-237500J0D01*
G01*
G37*
D31*
X202950000Y-65900000D03*
X202950000Y-65400000D03*
X202950000Y-64400000D03*
X202950000Y-64900000D03*
X201950000Y-65900000D03*
X201950000Y-64900000D03*
X201950000Y-65400000D03*
X201950000Y-64400000D03*
G36*
G01*
X198525000Y-72337500D02*
X198525000Y-71862500D01*
G75*
G02*
X198762500Y-71625000I237500J0D01*
G01*
X199262500Y-71625000D01*
G75*
G02*
X199500000Y-71862500I0J-237500D01*
G01*
X199500000Y-72337500D01*
G75*
G02*
X199262500Y-72575000I-237500J0D01*
G01*
X198762500Y-72575000D01*
G75*
G02*
X198525000Y-72337500I0J237500D01*
G01*
G37*
G36*
G01*
X196700000Y-72337500D02*
X196700000Y-71862500D01*
G75*
G02*
X196937500Y-71625000I237500J0D01*
G01*
X197437500Y-71625000D01*
G75*
G02*
X197675000Y-71862500I0J-237500D01*
G01*
X197675000Y-72337500D01*
G75*
G02*
X197437500Y-72575000I-237500J0D01*
G01*
X196937500Y-72575000D01*
G75*
G02*
X196700000Y-72337500I0J237500D01*
G01*
G37*
G36*
G01*
X194512500Y-72437500D02*
X194512500Y-71962500D01*
G75*
G02*
X194750000Y-71725000I237500J0D01*
G01*
X195250000Y-71725000D01*
G75*
G02*
X195487500Y-71962500I0J-237500D01*
G01*
X195487500Y-72437500D01*
G75*
G02*
X195250000Y-72675000I-237500J0D01*
G01*
X194750000Y-72675000D01*
G75*
G02*
X194512500Y-72437500I0J237500D01*
G01*
G37*
G36*
G01*
X192687500Y-72437500D02*
X192687500Y-71962500D01*
G75*
G02*
X192925000Y-71725000I237500J0D01*
G01*
X193425000Y-71725000D01*
G75*
G02*
X193662500Y-71962500I0J-237500D01*
G01*
X193662500Y-72437500D01*
G75*
G02*
X193425000Y-72675000I-237500J0D01*
G01*
X192925000Y-72675000D01*
G75*
G02*
X192687500Y-72437500I0J237500D01*
G01*
G37*
G36*
G01*
X193712500Y-59287500D02*
X193712500Y-58812500D01*
G75*
G02*
X193950000Y-58575000I237500J0D01*
G01*
X194450000Y-58575000D01*
G75*
G02*
X194687500Y-58812500I0J-237500D01*
G01*
X194687500Y-59287500D01*
G75*
G02*
X194450000Y-59525000I-237500J0D01*
G01*
X193950000Y-59525000D01*
G75*
G02*
X193712500Y-59287500I0J237500D01*
G01*
G37*
G36*
G01*
X191887500Y-59287500D02*
X191887500Y-58812500D01*
G75*
G02*
X192125000Y-58575000I237500J0D01*
G01*
X192625000Y-58575000D01*
G75*
G02*
X192862500Y-58812500I0J-237500D01*
G01*
X192862500Y-59287500D01*
G75*
G02*
X192625000Y-59525000I-237500J0D01*
G01*
X192125000Y-59525000D01*
G75*
G02*
X191887500Y-59287500I0J237500D01*
G01*
G37*
G36*
G01*
X197562500Y-59287500D02*
X197562500Y-58812500D01*
G75*
G02*
X197800000Y-58575000I237500J0D01*
G01*
X198300000Y-58575000D01*
G75*
G02*
X198537500Y-58812500I0J-237500D01*
G01*
X198537500Y-59287500D01*
G75*
G02*
X198300000Y-59525000I-237500J0D01*
G01*
X197800000Y-59525000D01*
G75*
G02*
X197562500Y-59287500I0J237500D01*
G01*
G37*
G36*
G01*
X195737500Y-59287500D02*
X195737500Y-58812500D01*
G75*
G02*
X195975000Y-58575000I237500J0D01*
G01*
X196475000Y-58575000D01*
G75*
G02*
X196712500Y-58812500I0J-237500D01*
G01*
X196712500Y-59287500D01*
G75*
G02*
X196475000Y-59525000I-237500J0D01*
G01*
X195975000Y-59525000D01*
G75*
G02*
X195737500Y-59287500I0J237500D01*
G01*
G37*
X178210000Y-47620000D03*
X178210000Y-47120000D03*
X178210000Y-46120000D03*
X178210000Y-46620000D03*
X177210000Y-47620000D03*
X177210000Y-46620000D03*
X177210000Y-47120000D03*
X177210000Y-46120000D03*
G36*
G01*
X162937500Y-50662500D02*
X162937500Y-51137500D01*
G75*
G02*
X162700000Y-51375000I-237500J0D01*
G01*
X162200000Y-51375000D01*
G75*
G02*
X161962500Y-51137500I0J237500D01*
G01*
X161962500Y-50662500D01*
G75*
G02*
X162200000Y-50425000I237500J0D01*
G01*
X162700000Y-50425000D01*
G75*
G02*
X162937500Y-50662500I0J-237500D01*
G01*
G37*
G36*
G01*
X164762500Y-50662500D02*
X164762500Y-51137500D01*
G75*
G02*
X164525000Y-51375000I-237500J0D01*
G01*
X164025000Y-51375000D01*
G75*
G02*
X163787500Y-51137500I0J237500D01*
G01*
X163787500Y-50662500D01*
G75*
G02*
X164025000Y-50425000I237500J0D01*
G01*
X164525000Y-50425000D01*
G75*
G02*
X164762500Y-50662500I0J-237500D01*
G01*
G37*
G36*
G01*
X162925000Y-48662500D02*
X162925000Y-49137500D01*
G75*
G02*
X162687500Y-49375000I-237500J0D01*
G01*
X162187500Y-49375000D01*
G75*
G02*
X161950000Y-49137500I0J237500D01*
G01*
X161950000Y-48662500D01*
G75*
G02*
X162187500Y-48425000I237500J0D01*
G01*
X162687500Y-48425000D01*
G75*
G02*
X162925000Y-48662500I0J-237500D01*
G01*
G37*
G36*
G01*
X164750000Y-48662500D02*
X164750000Y-49137500D01*
G75*
G02*
X164512500Y-49375000I-237500J0D01*
G01*
X164012500Y-49375000D01*
G75*
G02*
X163775000Y-49137500I0J237500D01*
G01*
X163775000Y-48662500D01*
G75*
G02*
X164012500Y-48425000I237500J0D01*
G01*
X164512500Y-48425000D01*
G75*
G02*
X164750000Y-48662500I0J-237500D01*
G01*
G37*
G36*
G01*
X162912500Y-46562500D02*
X162912500Y-47037500D01*
G75*
G02*
X162675000Y-47275000I-237500J0D01*
G01*
X162175000Y-47275000D01*
G75*
G02*
X161937500Y-47037500I0J237500D01*
G01*
X161937500Y-46562500D01*
G75*
G02*
X162175000Y-46325000I237500J0D01*
G01*
X162675000Y-46325000D01*
G75*
G02*
X162912500Y-46562500I0J-237500D01*
G01*
G37*
G36*
G01*
X164737500Y-46562500D02*
X164737500Y-47037500D01*
G75*
G02*
X164500000Y-47275000I-237500J0D01*
G01*
X164000000Y-47275000D01*
G75*
G02*
X163762500Y-47037500I0J237500D01*
G01*
X163762500Y-46562500D01*
G75*
G02*
X164000000Y-46325000I237500J0D01*
G01*
X164500000Y-46325000D01*
G75*
G02*
X164737500Y-46562500I0J-237500D01*
G01*
G37*
G36*
G01*
X162975000Y-44412500D02*
X162975000Y-44887500D01*
G75*
G02*
X162737500Y-45125000I-237500J0D01*
G01*
X162237500Y-45125000D01*
G75*
G02*
X162000000Y-44887500I0J237500D01*
G01*
X162000000Y-44412500D01*
G75*
G02*
X162237500Y-44175000I237500J0D01*
G01*
X162737500Y-44175000D01*
G75*
G02*
X162975000Y-44412500I0J-237500D01*
G01*
G37*
G36*
G01*
X164800000Y-44412500D02*
X164800000Y-44887500D01*
G75*
G02*
X164562500Y-45125000I-237500J0D01*
G01*
X164062500Y-45125000D01*
G75*
G02*
X163825000Y-44887500I0J237500D01*
G01*
X163825000Y-44412500D01*
G75*
G02*
X164062500Y-44175000I237500J0D01*
G01*
X164562500Y-44175000D01*
G75*
G02*
X164800000Y-44412500I0J-237500D01*
G01*
G37*
D32*
X127000000Y-70000000D03*
X126500000Y-70000000D03*
X125500000Y-70000000D03*
X126000000Y-70000000D03*
X127000000Y-71000000D03*
X126000000Y-71000000D03*
X126500000Y-71000000D03*
X125500000Y-71000000D03*
G36*
G01*
X135275000Y-77387500D02*
X135275000Y-76912500D01*
G75*
G02*
X135512500Y-76675000I237500J0D01*
G01*
X136012500Y-76675000D01*
G75*
G02*
X136250000Y-76912500I0J-237500D01*
G01*
X136250000Y-77387500D01*
G75*
G02*
X136012500Y-77625000I-237500J0D01*
G01*
X135512500Y-77625000D01*
G75*
G02*
X135275000Y-77387500I0J237500D01*
G01*
G37*
G36*
G01*
X133450000Y-77387500D02*
X133450000Y-76912500D01*
G75*
G02*
X133687500Y-76675000I237500J0D01*
G01*
X134187500Y-76675000D01*
G75*
G02*
X134425000Y-76912500I0J-237500D01*
G01*
X134425000Y-77387500D01*
G75*
G02*
X134187500Y-77625000I-237500J0D01*
G01*
X133687500Y-77625000D01*
G75*
G02*
X133450000Y-77387500I0J237500D01*
G01*
G37*
G36*
G01*
X135287500Y-75737500D02*
X135287500Y-75262500D01*
G75*
G02*
X135525000Y-75025000I237500J0D01*
G01*
X136025000Y-75025000D01*
G75*
G02*
X136262500Y-75262500I0J-237500D01*
G01*
X136262500Y-75737500D01*
G75*
G02*
X136025000Y-75975000I-237500J0D01*
G01*
X135525000Y-75975000D01*
G75*
G02*
X135287500Y-75737500I0J237500D01*
G01*
G37*
G36*
G01*
X133462500Y-75737500D02*
X133462500Y-75262500D01*
G75*
G02*
X133700000Y-75025000I237500J0D01*
G01*
X134200000Y-75025000D01*
G75*
G02*
X134437500Y-75262500I0J-237500D01*
G01*
X134437500Y-75737500D01*
G75*
G02*
X134200000Y-75975000I-237500J0D01*
G01*
X133700000Y-75975000D01*
G75*
G02*
X133462500Y-75737500I0J237500D01*
G01*
G37*
G36*
G01*
X135225000Y-79287500D02*
X135225000Y-78812500D01*
G75*
G02*
X135462500Y-78575000I237500J0D01*
G01*
X135962500Y-78575000D01*
G75*
G02*
X136200000Y-78812500I0J-237500D01*
G01*
X136200000Y-79287500D01*
G75*
G02*
X135962500Y-79525000I-237500J0D01*
G01*
X135462500Y-79525000D01*
G75*
G02*
X135225000Y-79287500I0J237500D01*
G01*
G37*
G36*
G01*
X133400000Y-79287500D02*
X133400000Y-78812500D01*
G75*
G02*
X133637500Y-78575000I237500J0D01*
G01*
X134137500Y-78575000D01*
G75*
G02*
X134375000Y-78812500I0J-237500D01*
G01*
X134375000Y-79287500D01*
G75*
G02*
X134137500Y-79525000I-237500J0D01*
G01*
X133637500Y-79525000D01*
G75*
G02*
X133400000Y-79287500I0J237500D01*
G01*
G37*
G36*
G01*
X135237500Y-81137500D02*
X135237500Y-80662500D01*
G75*
G02*
X135475000Y-80425000I237500J0D01*
G01*
X135975000Y-80425000D01*
G75*
G02*
X136212500Y-80662500I0J-237500D01*
G01*
X136212500Y-81137500D01*
G75*
G02*
X135975000Y-81375000I-237500J0D01*
G01*
X135475000Y-81375000D01*
G75*
G02*
X135237500Y-81137500I0J237500D01*
G01*
G37*
G36*
G01*
X133412500Y-81137500D02*
X133412500Y-80662500D01*
G75*
G02*
X133650000Y-80425000I237500J0D01*
G01*
X134150000Y-80425000D01*
G75*
G02*
X134387500Y-80662500I0J-237500D01*
G01*
X134387500Y-81137500D01*
G75*
G02*
X134150000Y-81375000I-237500J0D01*
G01*
X133650000Y-81375000D01*
G75*
G02*
X133412500Y-81137500I0J237500D01*
G01*
G37*
D31*
X191800000Y-103450000D03*
X191800000Y-102950000D03*
X191800000Y-101950000D03*
X191800000Y-102450000D03*
X190800000Y-103450000D03*
X190800000Y-102450000D03*
X190800000Y-102950000D03*
X190800000Y-101950000D03*
G36*
G01*
X177475000Y-104462500D02*
X177475000Y-104937500D01*
G75*
G02*
X177237500Y-105175000I-237500J0D01*
G01*
X176737500Y-105175000D01*
G75*
G02*
X176500000Y-104937500I0J237500D01*
G01*
X176500000Y-104462500D01*
G75*
G02*
X176737500Y-104225000I237500J0D01*
G01*
X177237500Y-104225000D01*
G75*
G02*
X177475000Y-104462500I0J-237500D01*
G01*
G37*
G36*
G01*
X179300000Y-104462500D02*
X179300000Y-104937500D01*
G75*
G02*
X179062500Y-105175000I-237500J0D01*
G01*
X178562500Y-105175000D01*
G75*
G02*
X178325000Y-104937500I0J237500D01*
G01*
X178325000Y-104462500D01*
G75*
G02*
X178562500Y-104225000I237500J0D01*
G01*
X179062500Y-104225000D01*
G75*
G02*
X179300000Y-104462500I0J-237500D01*
G01*
G37*
G36*
G01*
X177475000Y-102762500D02*
X177475000Y-103237500D01*
G75*
G02*
X177237500Y-103475000I-237500J0D01*
G01*
X176737500Y-103475000D01*
G75*
G02*
X176500000Y-103237500I0J237500D01*
G01*
X176500000Y-102762500D01*
G75*
G02*
X176737500Y-102525000I237500J0D01*
G01*
X177237500Y-102525000D01*
G75*
G02*
X177475000Y-102762500I0J-237500D01*
G01*
G37*
G36*
G01*
X179300000Y-102762500D02*
X179300000Y-103237500D01*
G75*
G02*
X179062500Y-103475000I-237500J0D01*
G01*
X178562500Y-103475000D01*
G75*
G02*
X178325000Y-103237500I0J237500D01*
G01*
X178325000Y-102762500D01*
G75*
G02*
X178562500Y-102525000I237500J0D01*
G01*
X179062500Y-102525000D01*
G75*
G02*
X179300000Y-102762500I0J-237500D01*
G01*
G37*
G36*
G01*
X177462500Y-101062500D02*
X177462500Y-101537500D01*
G75*
G02*
X177225000Y-101775000I-237500J0D01*
G01*
X176725000Y-101775000D01*
G75*
G02*
X176487500Y-101537500I0J237500D01*
G01*
X176487500Y-101062500D01*
G75*
G02*
X176725000Y-100825000I237500J0D01*
G01*
X177225000Y-100825000D01*
G75*
G02*
X177462500Y-101062500I0J-237500D01*
G01*
G37*
G36*
G01*
X179287500Y-101062500D02*
X179287500Y-101537500D01*
G75*
G02*
X179050000Y-101775000I-237500J0D01*
G01*
X178550000Y-101775000D01*
G75*
G02*
X178312500Y-101537500I0J237500D01*
G01*
X178312500Y-101062500D01*
G75*
G02*
X178550000Y-100825000I237500J0D01*
G01*
X179050000Y-100825000D01*
G75*
G02*
X179287500Y-101062500I0J-237500D01*
G01*
G37*
G36*
G01*
X177475000Y-99362500D02*
X177475000Y-99837500D01*
G75*
G02*
X177237500Y-100075000I-237500J0D01*
G01*
X176737500Y-100075000D01*
G75*
G02*
X176500000Y-99837500I0J237500D01*
G01*
X176500000Y-99362500D01*
G75*
G02*
X176737500Y-99125000I237500J0D01*
G01*
X177237500Y-99125000D01*
G75*
G02*
X177475000Y-99362500I0J-237500D01*
G01*
G37*
G36*
G01*
X179300000Y-99362500D02*
X179300000Y-99837500D01*
G75*
G02*
X179062500Y-100075000I-237500J0D01*
G01*
X178562500Y-100075000D01*
G75*
G02*
X178325000Y-99837500I0J237500D01*
G01*
X178325000Y-99362500D01*
G75*
G02*
X178562500Y-99125000I237500J0D01*
G01*
X179062500Y-99125000D01*
G75*
G02*
X179300000Y-99362500I0J-237500D01*
G01*
G37*
G36*
G01*
X206062500Y-47487500D02*
X206537500Y-47487500D01*
G75*
G02*
X206775000Y-47725000I0J-237500D01*
G01*
X206775000Y-48225000D01*
G75*
G02*
X206537500Y-48462500I-237500J0D01*
G01*
X206062500Y-48462500D01*
G75*
G02*
X205825000Y-48225000I0J237500D01*
G01*
X205825000Y-47725000D01*
G75*
G02*
X206062500Y-47487500I237500J0D01*
G01*
G37*
G36*
G01*
X206062500Y-45662500D02*
X206537500Y-45662500D01*
G75*
G02*
X206775000Y-45900000I0J-237500D01*
G01*
X206775000Y-46400000D01*
G75*
G02*
X206537500Y-46637500I-237500J0D01*
G01*
X206062500Y-46637500D01*
G75*
G02*
X205825000Y-46400000I0J237500D01*
G01*
X205825000Y-45900000D01*
G75*
G02*
X206062500Y-45662500I237500J0D01*
G01*
G37*
G36*
G01*
X204737500Y-46737500D02*
X204262500Y-46737500D01*
G75*
G02*
X204025000Y-46500000I0J237500D01*
G01*
X204025000Y-46000000D01*
G75*
G02*
X204262500Y-45762500I237500J0D01*
G01*
X204737500Y-45762500D01*
G75*
G02*
X204975000Y-46000000I0J-237500D01*
G01*
X204975000Y-46500000D01*
G75*
G02*
X204737500Y-46737500I-237500J0D01*
G01*
G37*
G36*
G01*
X204737500Y-48562500D02*
X204262500Y-48562500D01*
G75*
G02*
X204025000Y-48325000I0J237500D01*
G01*
X204025000Y-47825000D01*
G75*
G02*
X204262500Y-47587500I237500J0D01*
G01*
X204737500Y-47587500D01*
G75*
G02*
X204975000Y-47825000I0J-237500D01*
G01*
X204975000Y-48325000D01*
G75*
G02*
X204737500Y-48562500I-237500J0D01*
G01*
G37*
G36*
G01*
X208362500Y-43512500D02*
X208362500Y-43987500D01*
G75*
G02*
X208125000Y-44225000I-237500J0D01*
G01*
X207625000Y-44225000D01*
G75*
G02*
X207387500Y-43987500I0J237500D01*
G01*
X207387500Y-43512500D01*
G75*
G02*
X207625000Y-43275000I237500J0D01*
G01*
X208125000Y-43275000D01*
G75*
G02*
X208362500Y-43512500I0J-237500D01*
G01*
G37*
G36*
G01*
X210187500Y-43512500D02*
X210187500Y-43987500D01*
G75*
G02*
X209950000Y-44225000I-237500J0D01*
G01*
X209450000Y-44225000D01*
G75*
G02*
X209212500Y-43987500I0J237500D01*
G01*
X209212500Y-43512500D01*
G75*
G02*
X209450000Y-43275000I237500J0D01*
G01*
X209950000Y-43275000D01*
G75*
G02*
X210187500Y-43512500I0J-237500D01*
G01*
G37*
G36*
G01*
X208262500Y-50112500D02*
X208262500Y-50587500D01*
G75*
G02*
X208025000Y-50825000I-237500J0D01*
G01*
X207525000Y-50825000D01*
G75*
G02*
X207287500Y-50587500I0J237500D01*
G01*
X207287500Y-50112500D01*
G75*
G02*
X207525000Y-49875000I237500J0D01*
G01*
X208025000Y-49875000D01*
G75*
G02*
X208262500Y-50112500I0J-237500D01*
G01*
G37*
G36*
G01*
X210087500Y-50112500D02*
X210087500Y-50587500D01*
G75*
G02*
X209850000Y-50825000I-237500J0D01*
G01*
X209350000Y-50825000D01*
G75*
G02*
X209112500Y-50587500I0J237500D01*
G01*
X209112500Y-50112500D01*
G75*
G02*
X209350000Y-49875000I237500J0D01*
G01*
X209850000Y-49875000D01*
G75*
G02*
X210087500Y-50112500I0J-237500D01*
G01*
G37*
G36*
G01*
X217625000Y-99487500D02*
X217625000Y-99012500D01*
G75*
G02*
X217862500Y-98775000I237500J0D01*
G01*
X218362500Y-98775000D01*
G75*
G02*
X218600000Y-99012500I0J-237500D01*
G01*
X218600000Y-99487500D01*
G75*
G02*
X218362500Y-99725000I-237500J0D01*
G01*
X217862500Y-99725000D01*
G75*
G02*
X217625000Y-99487500I0J237500D01*
G01*
G37*
G36*
G01*
X215800000Y-99487500D02*
X215800000Y-99012500D01*
G75*
G02*
X216037500Y-98775000I237500J0D01*
G01*
X216537500Y-98775000D01*
G75*
G02*
X216775000Y-99012500I0J-237500D01*
G01*
X216775000Y-99487500D01*
G75*
G02*
X216537500Y-99725000I-237500J0D01*
G01*
X216037500Y-99725000D01*
G75*
G02*
X215800000Y-99487500I0J237500D01*
G01*
G37*
G36*
G01*
X216887500Y-94312500D02*
X216887500Y-94787500D01*
G75*
G02*
X216650000Y-95025000I-237500J0D01*
G01*
X216150000Y-95025000D01*
G75*
G02*
X215912500Y-94787500I0J237500D01*
G01*
X215912500Y-94312500D01*
G75*
G02*
X216150000Y-94075000I237500J0D01*
G01*
X216650000Y-94075000D01*
G75*
G02*
X216887500Y-94312500I0J-237500D01*
G01*
G37*
G36*
G01*
X218712500Y-94312500D02*
X218712500Y-94787500D01*
G75*
G02*
X218475000Y-95025000I-237500J0D01*
G01*
X217975000Y-95025000D01*
G75*
G02*
X217737500Y-94787500I0J237500D01*
G01*
X217737500Y-94312500D01*
G75*
G02*
X217975000Y-94075000I237500J0D01*
G01*
X218475000Y-94075000D01*
G75*
G02*
X218712500Y-94312500I0J-237500D01*
G01*
G37*
G36*
G01*
X213662500Y-97275000D02*
X214137500Y-97275000D01*
G75*
G02*
X214375000Y-97512500I0J-237500D01*
G01*
X214375000Y-98012500D01*
G75*
G02*
X214137500Y-98250000I-237500J0D01*
G01*
X213662500Y-98250000D01*
G75*
G02*
X213425000Y-98012500I0J237500D01*
G01*
X213425000Y-97512500D01*
G75*
G02*
X213662500Y-97275000I237500J0D01*
G01*
G37*
G36*
G01*
X213662500Y-95450000D02*
X214137500Y-95450000D01*
G75*
G02*
X214375000Y-95687500I0J-237500D01*
G01*
X214375000Y-96187500D01*
G75*
G02*
X214137500Y-96425000I-237500J0D01*
G01*
X213662500Y-96425000D01*
G75*
G02*
X213425000Y-96187500I0J237500D01*
G01*
X213425000Y-95687500D01*
G75*
G02*
X213662500Y-95450000I237500J0D01*
G01*
G37*
G36*
G01*
X220662500Y-97387500D02*
X221137500Y-97387500D01*
G75*
G02*
X221375000Y-97625000I0J-237500D01*
G01*
X221375000Y-98125000D01*
G75*
G02*
X221137500Y-98362500I-237500J0D01*
G01*
X220662500Y-98362500D01*
G75*
G02*
X220425000Y-98125000I0J237500D01*
G01*
X220425000Y-97625000D01*
G75*
G02*
X220662500Y-97387500I237500J0D01*
G01*
G37*
G36*
G01*
X220662500Y-95562500D02*
X221137500Y-95562500D01*
G75*
G02*
X221375000Y-95800000I0J-237500D01*
G01*
X221375000Y-96300000D01*
G75*
G02*
X221137500Y-96537500I-237500J0D01*
G01*
X220662500Y-96537500D01*
G75*
G02*
X220425000Y-96300000I0J237500D01*
G01*
X220425000Y-95800000D01*
G75*
G02*
X220662500Y-95562500I237500J0D01*
G01*
G37*
G36*
G01*
X139637500Y-77425000D02*
X139162500Y-77425000D01*
G75*
G02*
X138925000Y-77187500I0J237500D01*
G01*
X138925000Y-76687500D01*
G75*
G02*
X139162500Y-76450000I237500J0D01*
G01*
X139637500Y-76450000D01*
G75*
G02*
X139875000Y-76687500I0J-237500D01*
G01*
X139875000Y-77187500D01*
G75*
G02*
X139637500Y-77425000I-237500J0D01*
G01*
G37*
G36*
G01*
X139637500Y-79250000D02*
X139162500Y-79250000D01*
G75*
G02*
X138925000Y-79012500I0J237500D01*
G01*
X138925000Y-78512500D01*
G75*
G02*
X139162500Y-78275000I237500J0D01*
G01*
X139637500Y-78275000D01*
G75*
G02*
X139875000Y-78512500I0J-237500D01*
G01*
X139875000Y-79012500D01*
G75*
G02*
X139637500Y-79250000I-237500J0D01*
G01*
G37*
G36*
G01*
X151440000Y-76260000D02*
X151440000Y-75940000D01*
G75*
G02*
X151600000Y-75780000I160000J0D01*
G01*
X151995000Y-75780000D01*
G75*
G02*
X152155000Y-75940000I0J-160000D01*
G01*
X152155000Y-76260000D01*
G75*
G02*
X151995000Y-76420000I-160000J0D01*
G01*
X151600000Y-76420000D01*
G75*
G02*
X151440000Y-76260000I0J160000D01*
G01*
G37*
G36*
G01*
X150245000Y-76260000D02*
X150245000Y-75940000D01*
G75*
G02*
X150405000Y-75780000I160000J0D01*
G01*
X150800000Y-75780000D01*
G75*
G02*
X150960000Y-75940000I0J-160000D01*
G01*
X150960000Y-76260000D01*
G75*
G02*
X150800000Y-76420000I-160000J0D01*
G01*
X150405000Y-76420000D01*
G75*
G02*
X150245000Y-76260000I0J160000D01*
G01*
G37*
G36*
G01*
X151470000Y-77450000D02*
X151470000Y-77130000D01*
G75*
G02*
X151630000Y-76970000I160000J0D01*
G01*
X152025000Y-76970000D01*
G75*
G02*
X152185000Y-77130000I0J-160000D01*
G01*
X152185000Y-77450000D01*
G75*
G02*
X152025000Y-77610000I-160000J0D01*
G01*
X151630000Y-77610000D01*
G75*
G02*
X151470000Y-77450000I0J160000D01*
G01*
G37*
G36*
G01*
X150275000Y-77450000D02*
X150275000Y-77130000D01*
G75*
G02*
X150435000Y-76970000I160000J0D01*
G01*
X150830000Y-76970000D01*
G75*
G02*
X150990000Y-77130000I0J-160000D01*
G01*
X150990000Y-77450000D01*
G75*
G02*
X150830000Y-77610000I-160000J0D01*
G01*
X150435000Y-77610000D01*
G75*
G02*
X150275000Y-77450000I0J160000D01*
G01*
G37*
D18*
X226050000Y-100250000D03*
X224050000Y-101200000D03*
X224050000Y-99300000D03*
D33*
X241060000Y-67740000D03*
X241060000Y-66790000D03*
X241060000Y-68690000D03*
X238360000Y-68690000D03*
X238360000Y-67740000D03*
X238360000Y-66790000D03*
D18*
X246250000Y-104650000D03*
X244250000Y-105600000D03*
X244250000Y-103700000D03*
X237300000Y-108200000D03*
X239300000Y-107250000D03*
X239300000Y-109150000D03*
G36*
G01*
X211845000Y-45250000D02*
X211545000Y-45250000D01*
G75*
G02*
X211395000Y-45100000I0J150000D01*
G01*
X211395000Y-43450000D01*
G75*
G02*
X211545000Y-43300000I150000J0D01*
G01*
X211845000Y-43300000D01*
G75*
G02*
X211995000Y-43450000I0J-150000D01*
G01*
X211995000Y-45100000D01*
G75*
G02*
X211845000Y-45250000I-150000J0D01*
G01*
G37*
G36*
G01*
X213115000Y-45250000D02*
X212815000Y-45250000D01*
G75*
G02*
X212665000Y-45100000I0J150000D01*
G01*
X212665000Y-43450000D01*
G75*
G02*
X212815000Y-43300000I150000J0D01*
G01*
X213115000Y-43300000D01*
G75*
G02*
X213265000Y-43450000I0J-150000D01*
G01*
X213265000Y-45100000D01*
G75*
G02*
X213115000Y-45250000I-150000J0D01*
G01*
G37*
G36*
G01*
X214385000Y-45250000D02*
X214085000Y-45250000D01*
G75*
G02*
X213935000Y-45100000I0J150000D01*
G01*
X213935000Y-43450000D01*
G75*
G02*
X214085000Y-43300000I150000J0D01*
G01*
X214385000Y-43300000D01*
G75*
G02*
X214535000Y-43450000I0J-150000D01*
G01*
X214535000Y-45100000D01*
G75*
G02*
X214385000Y-45250000I-150000J0D01*
G01*
G37*
G36*
G01*
X215655000Y-45250000D02*
X215355000Y-45250000D01*
G75*
G02*
X215205000Y-45100000I0J150000D01*
G01*
X215205000Y-43450000D01*
G75*
G02*
X215355000Y-43300000I150000J0D01*
G01*
X215655000Y-43300000D01*
G75*
G02*
X215805000Y-43450000I0J-150000D01*
G01*
X215805000Y-45100000D01*
G75*
G02*
X215655000Y-45250000I-150000J0D01*
G01*
G37*
G36*
G01*
X215655000Y-50200000D02*
X215355000Y-50200000D01*
G75*
G02*
X215205000Y-50050000I0J150000D01*
G01*
X215205000Y-48400000D01*
G75*
G02*
X215355000Y-48250000I150000J0D01*
G01*
X215655000Y-48250000D01*
G75*
G02*
X215805000Y-48400000I0J-150000D01*
G01*
X215805000Y-50050000D01*
G75*
G02*
X215655000Y-50200000I-150000J0D01*
G01*
G37*
G36*
G01*
X214385000Y-50200000D02*
X214085000Y-50200000D01*
G75*
G02*
X213935000Y-50050000I0J150000D01*
G01*
X213935000Y-48400000D01*
G75*
G02*
X214085000Y-48250000I150000J0D01*
G01*
X214385000Y-48250000D01*
G75*
G02*
X214535000Y-48400000I0J-150000D01*
G01*
X214535000Y-50050000D01*
G75*
G02*
X214385000Y-50200000I-150000J0D01*
G01*
G37*
G36*
G01*
X213115000Y-50200000D02*
X212815000Y-50200000D01*
G75*
G02*
X212665000Y-50050000I0J150000D01*
G01*
X212665000Y-48400000D01*
G75*
G02*
X212815000Y-48250000I150000J0D01*
G01*
X213115000Y-48250000D01*
G75*
G02*
X213265000Y-48400000I0J-150000D01*
G01*
X213265000Y-50050000D01*
G75*
G02*
X213115000Y-50200000I-150000J0D01*
G01*
G37*
G36*
G01*
X211845000Y-50200000D02*
X211545000Y-50200000D01*
G75*
G02*
X211395000Y-50050000I0J150000D01*
G01*
X211395000Y-48400000D01*
G75*
G02*
X211545000Y-48250000I150000J0D01*
G01*
X211845000Y-48250000D01*
G75*
G02*
X211995000Y-48400000I0J-150000D01*
G01*
X211995000Y-50050000D01*
G75*
G02*
X211845000Y-50200000I-150000J0D01*
G01*
G37*
D34*
X208150000Y-45620000D03*
X208800000Y-45620000D03*
X209450000Y-45620000D03*
X209450000Y-48280000D03*
X208800000Y-48280000D03*
X208150000Y-48280000D03*
G36*
G01*
X219155000Y-107100000D02*
X219455000Y-107100000D01*
G75*
G02*
X219605000Y-107250000I0J-150000D01*
G01*
X219605000Y-108900000D01*
G75*
G02*
X219455000Y-109050000I-150000J0D01*
G01*
X219155000Y-109050000D01*
G75*
G02*
X219005000Y-108900000I0J150000D01*
G01*
X219005000Y-107250000D01*
G75*
G02*
X219155000Y-107100000I150000J0D01*
G01*
G37*
G36*
G01*
X217885000Y-107100000D02*
X218185000Y-107100000D01*
G75*
G02*
X218335000Y-107250000I0J-150000D01*
G01*
X218335000Y-108900000D01*
G75*
G02*
X218185000Y-109050000I-150000J0D01*
G01*
X217885000Y-109050000D01*
G75*
G02*
X217735000Y-108900000I0J150000D01*
G01*
X217735000Y-107250000D01*
G75*
G02*
X217885000Y-107100000I150000J0D01*
G01*
G37*
G36*
G01*
X216615000Y-107100000D02*
X216915000Y-107100000D01*
G75*
G02*
X217065000Y-107250000I0J-150000D01*
G01*
X217065000Y-108900000D01*
G75*
G02*
X216915000Y-109050000I-150000J0D01*
G01*
X216615000Y-109050000D01*
G75*
G02*
X216465000Y-108900000I0J150000D01*
G01*
X216465000Y-107250000D01*
G75*
G02*
X216615000Y-107100000I150000J0D01*
G01*
G37*
G36*
G01*
X215345000Y-107100000D02*
X215645000Y-107100000D01*
G75*
G02*
X215795000Y-107250000I0J-150000D01*
G01*
X215795000Y-108900000D01*
G75*
G02*
X215645000Y-109050000I-150000J0D01*
G01*
X215345000Y-109050000D01*
G75*
G02*
X215195000Y-108900000I0J150000D01*
G01*
X215195000Y-107250000D01*
G75*
G02*
X215345000Y-107100000I150000J0D01*
G01*
G37*
G36*
G01*
X215345000Y-102150000D02*
X215645000Y-102150000D01*
G75*
G02*
X215795000Y-102300000I0J-150000D01*
G01*
X215795000Y-103950000D01*
G75*
G02*
X215645000Y-104100000I-150000J0D01*
G01*
X215345000Y-104100000D01*
G75*
G02*
X215195000Y-103950000I0J150000D01*
G01*
X215195000Y-102300000D01*
G75*
G02*
X215345000Y-102150000I150000J0D01*
G01*
G37*
G36*
G01*
X216615000Y-102150000D02*
X216915000Y-102150000D01*
G75*
G02*
X217065000Y-102300000I0J-150000D01*
G01*
X217065000Y-103950000D01*
G75*
G02*
X216915000Y-104100000I-150000J0D01*
G01*
X216615000Y-104100000D01*
G75*
G02*
X216465000Y-103950000I0J150000D01*
G01*
X216465000Y-102300000D01*
G75*
G02*
X216615000Y-102150000I150000J0D01*
G01*
G37*
G36*
G01*
X217885000Y-102150000D02*
X218185000Y-102150000D01*
G75*
G02*
X218335000Y-102300000I0J-150000D01*
G01*
X218335000Y-103950000D01*
G75*
G02*
X218185000Y-104100000I-150000J0D01*
G01*
X217885000Y-104100000D01*
G75*
G02*
X217735000Y-103950000I0J150000D01*
G01*
X217735000Y-102300000D01*
G75*
G02*
X217885000Y-102150000I150000J0D01*
G01*
G37*
G36*
G01*
X219155000Y-102150000D02*
X219455000Y-102150000D01*
G75*
G02*
X219605000Y-102300000I0J-150000D01*
G01*
X219605000Y-103950000D01*
G75*
G02*
X219455000Y-104100000I-150000J0D01*
G01*
X219155000Y-104100000D01*
G75*
G02*
X219005000Y-103950000I0J150000D01*
G01*
X219005000Y-102300000D01*
G75*
G02*
X219155000Y-102150000I150000J0D01*
G01*
G37*
D35*
X215920000Y-97490000D03*
X215920000Y-96840000D03*
X215920000Y-96190000D03*
X218580000Y-96190000D03*
X218580000Y-96840000D03*
X218580000Y-97490000D03*
D36*
X170780000Y-89400000D03*
X170780000Y-84900000D03*
X162820000Y-84900000D03*
X162820000Y-89400000D03*
X170730000Y-105600000D03*
X170730000Y-101100000D03*
X162770000Y-101100000D03*
X162770000Y-105600000D03*
G36*
G01*
X242950001Y-96750000D02*
X241549999Y-96750000D01*
G75*
G02*
X241300000Y-96500001I0J249999D01*
G01*
X241300000Y-95949999D01*
G75*
G02*
X241549999Y-95700000I249999J0D01*
G01*
X242950001Y-95700000D01*
G75*
G02*
X243200000Y-95949999I0J-249999D01*
G01*
X243200000Y-96500001D01*
G75*
G02*
X242950001Y-96750000I-249999J0D01*
G01*
G37*
G36*
G01*
X242950001Y-99900000D02*
X241549999Y-99900000D01*
G75*
G02*
X241300000Y-99650001I0J249999D01*
G01*
X241300000Y-99099999D01*
G75*
G02*
X241549999Y-98850000I249999J0D01*
G01*
X242950001Y-98850000D01*
G75*
G02*
X243200000Y-99099999I0J-249999D01*
G01*
X243200000Y-99650001D01*
G75*
G02*
X242950001Y-99900000I-249999J0D01*
G01*
G37*
D37*
X215650000Y-62350000D03*
X211450000Y-62350000D03*
D18*
X233550000Y-100350000D03*
X231550000Y-101300000D03*
X231550000Y-99400000D03*
D36*
X170630000Y-97450000D03*
X170630000Y-92950000D03*
X162670000Y-92950000D03*
X162670000Y-97450000D03*
G36*
G01*
X172762500Y-89300000D02*
X173237500Y-89300000D01*
G75*
G02*
X173475000Y-89537500I0J-237500D01*
G01*
X173475000Y-90112500D01*
G75*
G02*
X173237500Y-90350000I-237500J0D01*
G01*
X172762500Y-90350000D01*
G75*
G02*
X172525000Y-90112500I0J237500D01*
G01*
X172525000Y-89537500D01*
G75*
G02*
X172762500Y-89300000I237500J0D01*
G01*
G37*
G36*
G01*
X172762500Y-87550000D02*
X173237500Y-87550000D01*
G75*
G02*
X173475000Y-87787500I0J-237500D01*
G01*
X173475000Y-88362500D01*
G75*
G02*
X173237500Y-88600000I-237500J0D01*
G01*
X172762500Y-88600000D01*
G75*
G02*
X172525000Y-88362500I0J237500D01*
G01*
X172525000Y-87787500D01*
G75*
G02*
X172762500Y-87550000I237500J0D01*
G01*
G37*
G36*
G01*
X173237500Y-100525000D02*
X172762500Y-100525000D01*
G75*
G02*
X172525000Y-100287500I0J237500D01*
G01*
X172525000Y-99712500D01*
G75*
G02*
X172762500Y-99475000I237500J0D01*
G01*
X173237500Y-99475000D01*
G75*
G02*
X173475000Y-99712500I0J-237500D01*
G01*
X173475000Y-100287500D01*
G75*
G02*
X173237500Y-100525000I-237500J0D01*
G01*
G37*
G36*
G01*
X173237500Y-102275000D02*
X172762500Y-102275000D01*
G75*
G02*
X172525000Y-102037500I0J237500D01*
G01*
X172525000Y-101462500D01*
G75*
G02*
X172762500Y-101225000I237500J0D01*
G01*
X173237500Y-101225000D01*
G75*
G02*
X173475000Y-101462500I0J-237500D01*
G01*
X173475000Y-102037500D01*
G75*
G02*
X173237500Y-102275000I-237500J0D01*
G01*
G37*
G36*
G01*
X173287500Y-93250000D02*
X172812500Y-93250000D01*
G75*
G02*
X172575000Y-93012500I0J237500D01*
G01*
X172575000Y-92437500D01*
G75*
G02*
X172812500Y-92200000I237500J0D01*
G01*
X173287500Y-92200000D01*
G75*
G02*
X173525000Y-92437500I0J-237500D01*
G01*
X173525000Y-93012500D01*
G75*
G02*
X173287500Y-93250000I-237500J0D01*
G01*
G37*
G36*
G01*
X173287500Y-95000000D02*
X172812500Y-95000000D01*
G75*
G02*
X172575000Y-94762500I0J237500D01*
G01*
X172575000Y-94187500D01*
G75*
G02*
X172812500Y-93950000I237500J0D01*
G01*
X173287500Y-93950000D01*
G75*
G02*
X173525000Y-94187500I0J-237500D01*
G01*
X173525000Y-94762500D01*
G75*
G02*
X173287500Y-95000000I-237500J0D01*
G01*
G37*
D18*
X246250000Y-34150000D03*
X248250000Y-33200000D03*
X248250000Y-35100000D03*
D38*
X229150000Y-61950000D03*
X229150000Y-56950000D03*
X234050000Y-56700000D03*
X234050000Y-61700000D03*
D18*
X239650000Y-103950000D03*
X237650000Y-104900000D03*
X237650000Y-103000000D03*
D39*
X256550000Y-115800000D03*
X254050000Y-115800000D03*
X253800000Y-113550000D03*
X256300000Y-113550000D03*
G36*
G01*
X190350000Y-55912500D02*
X190350000Y-56387500D01*
G75*
G02*
X190112500Y-56625000I-237500J0D01*
G01*
X189537500Y-56625000D01*
G75*
G02*
X189300000Y-56387500I0J237500D01*
G01*
X189300000Y-55912500D01*
G75*
G02*
X189537500Y-55675000I237500J0D01*
G01*
X190112500Y-55675000D01*
G75*
G02*
X190350000Y-55912500I0J-237500D01*
G01*
G37*
G36*
G01*
X192100000Y-55912500D02*
X192100000Y-56387500D01*
G75*
G02*
X191862500Y-56625000I-237500J0D01*
G01*
X191287500Y-56625000D01*
G75*
G02*
X191050000Y-56387500I0J237500D01*
G01*
X191050000Y-55912500D01*
G75*
G02*
X191287500Y-55675000I237500J0D01*
G01*
X191862500Y-55675000D01*
G75*
G02*
X192100000Y-55912500I0J-237500D01*
G01*
G37*
G36*
G01*
X178687500Y-88750000D02*
X178212500Y-88750000D01*
G75*
G02*
X177975000Y-88512500I0J237500D01*
G01*
X177975000Y-87937500D01*
G75*
G02*
X178212500Y-87700000I237500J0D01*
G01*
X178687500Y-87700000D01*
G75*
G02*
X178925000Y-87937500I0J-237500D01*
G01*
X178925000Y-88512500D01*
G75*
G02*
X178687500Y-88750000I-237500J0D01*
G01*
G37*
G36*
G01*
X178687500Y-90500000D02*
X178212500Y-90500000D01*
G75*
G02*
X177975000Y-90262500I0J237500D01*
G01*
X177975000Y-89687500D01*
G75*
G02*
X178212500Y-89450000I237500J0D01*
G01*
X178687500Y-89450000D01*
G75*
G02*
X178925000Y-89687500I0J-237500D01*
G01*
X178925000Y-90262500D01*
G75*
G02*
X178687500Y-90500000I-237500J0D01*
G01*
G37*
G36*
G01*
X209312500Y-102300000D02*
X209787500Y-102300000D01*
G75*
G02*
X210025000Y-102537500I0J-237500D01*
G01*
X210025000Y-103112500D01*
G75*
G02*
X209787500Y-103350000I-237500J0D01*
G01*
X209312500Y-103350000D01*
G75*
G02*
X209075000Y-103112500I0J237500D01*
G01*
X209075000Y-102537500D01*
G75*
G02*
X209312500Y-102300000I237500J0D01*
G01*
G37*
G36*
G01*
X209312500Y-100550000D02*
X209787500Y-100550000D01*
G75*
G02*
X210025000Y-100787500I0J-237500D01*
G01*
X210025000Y-101362500D01*
G75*
G02*
X209787500Y-101600000I-237500J0D01*
G01*
X209312500Y-101600000D01*
G75*
G02*
X209075000Y-101362500I0J237500D01*
G01*
X209075000Y-100787500D01*
G75*
G02*
X209312500Y-100550000I237500J0D01*
G01*
G37*
D40*
X243500000Y-115550000D03*
X238100000Y-115550000D03*
G36*
G01*
X226345000Y-84500000D02*
X226655000Y-84500000D01*
G75*
G02*
X226810000Y-84655000I0J-155000D01*
G01*
X226810000Y-85080000D01*
G75*
G02*
X226655000Y-85235000I-155000J0D01*
G01*
X226345000Y-85235000D01*
G75*
G02*
X226190000Y-85080000I0J155000D01*
G01*
X226190000Y-84655000D01*
G75*
G02*
X226345000Y-84500000I155000J0D01*
G01*
G37*
G36*
G01*
X226345000Y-83365000D02*
X226655000Y-83365000D01*
G75*
G02*
X226810000Y-83520000I0J-155000D01*
G01*
X226810000Y-83945000D01*
G75*
G02*
X226655000Y-84100000I-155000J0D01*
G01*
X226345000Y-84100000D01*
G75*
G02*
X226190000Y-83945000I0J155000D01*
G01*
X226190000Y-83520000D01*
G75*
G02*
X226345000Y-83365000I155000J0D01*
G01*
G37*
G36*
G01*
X227855000Y-84100000D02*
X227545000Y-84100000D01*
G75*
G02*
X227390000Y-83945000I0J155000D01*
G01*
X227390000Y-83520000D01*
G75*
G02*
X227545000Y-83365000I155000J0D01*
G01*
X227855000Y-83365000D01*
G75*
G02*
X228010000Y-83520000I0J-155000D01*
G01*
X228010000Y-83945000D01*
G75*
G02*
X227855000Y-84100000I-155000J0D01*
G01*
G37*
G36*
G01*
X227855000Y-85235000D02*
X227545000Y-85235000D01*
G75*
G02*
X227390000Y-85080000I0J155000D01*
G01*
X227390000Y-84655000D01*
G75*
G02*
X227545000Y-84500000I155000J0D01*
G01*
X227855000Y-84500000D01*
G75*
G02*
X228010000Y-84655000I0J-155000D01*
G01*
X228010000Y-85080000D01*
G75*
G02*
X227855000Y-85235000I-155000J0D01*
G01*
G37*
G36*
G01*
X237155000Y-96600000D02*
X236845000Y-96600000D01*
G75*
G02*
X236690000Y-96445000I0J155000D01*
G01*
X236690000Y-96020000D01*
G75*
G02*
X236845000Y-95865000I155000J0D01*
G01*
X237155000Y-95865000D01*
G75*
G02*
X237310000Y-96020000I0J-155000D01*
G01*
X237310000Y-96445000D01*
G75*
G02*
X237155000Y-96600000I-155000J0D01*
G01*
G37*
G36*
G01*
X237155000Y-97735000D02*
X236845000Y-97735000D01*
G75*
G02*
X236690000Y-97580000I0J155000D01*
G01*
X236690000Y-97155000D01*
G75*
G02*
X236845000Y-97000000I155000J0D01*
G01*
X237155000Y-97000000D01*
G75*
G02*
X237310000Y-97155000I0J-155000D01*
G01*
X237310000Y-97580000D01*
G75*
G02*
X237155000Y-97735000I-155000J0D01*
G01*
G37*
G36*
G01*
X238405000Y-96600000D02*
X238095000Y-96600000D01*
G75*
G02*
X237940000Y-96445000I0J155000D01*
G01*
X237940000Y-96020000D01*
G75*
G02*
X238095000Y-95865000I155000J0D01*
G01*
X238405000Y-95865000D01*
G75*
G02*
X238560000Y-96020000I0J-155000D01*
G01*
X238560000Y-96445000D01*
G75*
G02*
X238405000Y-96600000I-155000J0D01*
G01*
G37*
G36*
G01*
X238405000Y-97735000D02*
X238095000Y-97735000D01*
G75*
G02*
X237940000Y-97580000I0J155000D01*
G01*
X237940000Y-97155000D01*
G75*
G02*
X238095000Y-97000000I155000J0D01*
G01*
X238405000Y-97000000D01*
G75*
G02*
X238560000Y-97155000I0J-155000D01*
G01*
X238560000Y-97580000D01*
G75*
G02*
X238405000Y-97735000I-155000J0D01*
G01*
G37*
G36*
G01*
X239422500Y-97475000D02*
X239897500Y-97475000D01*
G75*
G02*
X240135000Y-97712500I0J-237500D01*
G01*
X240135000Y-98312500D01*
G75*
G02*
X239897500Y-98550000I-237500J0D01*
G01*
X239422500Y-98550000D01*
G75*
G02*
X239185000Y-98312500I0J237500D01*
G01*
X239185000Y-97712500D01*
G75*
G02*
X239422500Y-97475000I237500J0D01*
G01*
G37*
G36*
G01*
X239422500Y-95750000D02*
X239897500Y-95750000D01*
G75*
G02*
X240135000Y-95987500I0J-237500D01*
G01*
X240135000Y-96587500D01*
G75*
G02*
X239897500Y-96825000I-237500J0D01*
G01*
X239422500Y-96825000D01*
G75*
G02*
X239185000Y-96587500I0J237500D01*
G01*
X239185000Y-95987500D01*
G75*
G02*
X239422500Y-95750000I237500J0D01*
G01*
G37*
G36*
G01*
X235855000Y-96610000D02*
X235545000Y-96610000D01*
G75*
G02*
X235390000Y-96455000I0J155000D01*
G01*
X235390000Y-96030000D01*
G75*
G02*
X235545000Y-95875000I155000J0D01*
G01*
X235855000Y-95875000D01*
G75*
G02*
X236010000Y-96030000I0J-155000D01*
G01*
X236010000Y-96455000D01*
G75*
G02*
X235855000Y-96610000I-155000J0D01*
G01*
G37*
G36*
G01*
X235855000Y-97745000D02*
X235545000Y-97745000D01*
G75*
G02*
X235390000Y-97590000I0J155000D01*
G01*
X235390000Y-97165000D01*
G75*
G02*
X235545000Y-97010000I155000J0D01*
G01*
X235855000Y-97010000D01*
G75*
G02*
X236010000Y-97165000I0J-155000D01*
G01*
X236010000Y-97590000D01*
G75*
G02*
X235855000Y-97745000I-155000J0D01*
G01*
G37*
G36*
G01*
X218950000Y-82145000D02*
X218950000Y-82455000D01*
G75*
G02*
X218795000Y-82610000I-155000J0D01*
G01*
X218370000Y-82610000D01*
G75*
G02*
X218215000Y-82455000I0J155000D01*
G01*
X218215000Y-82145000D01*
G75*
G02*
X218370000Y-81990000I155000J0D01*
G01*
X218795000Y-81990000D01*
G75*
G02*
X218950000Y-82145000I0J-155000D01*
G01*
G37*
G36*
G01*
X220085000Y-82145000D02*
X220085000Y-82455000D01*
G75*
G02*
X219930000Y-82610000I-155000J0D01*
G01*
X219505000Y-82610000D01*
G75*
G02*
X219350000Y-82455000I0J155000D01*
G01*
X219350000Y-82145000D01*
G75*
G02*
X219505000Y-81990000I155000J0D01*
G01*
X219930000Y-81990000D01*
G75*
G02*
X220085000Y-82145000I0J-155000D01*
G01*
G37*
G36*
G01*
X219875000Y-83987500D02*
X219875000Y-83512500D01*
G75*
G02*
X220112500Y-83275000I237500J0D01*
G01*
X220712500Y-83275000D01*
G75*
G02*
X220950000Y-83512500I0J-237500D01*
G01*
X220950000Y-83987500D01*
G75*
G02*
X220712500Y-84225000I-237500J0D01*
G01*
X220112500Y-84225000D01*
G75*
G02*
X219875000Y-83987500I0J237500D01*
G01*
G37*
G36*
G01*
X218150000Y-83987500D02*
X218150000Y-83512500D01*
G75*
G02*
X218387500Y-83275000I237500J0D01*
G01*
X218987500Y-83275000D01*
G75*
G02*
X219225000Y-83512500I0J-237500D01*
G01*
X219225000Y-83987500D01*
G75*
G02*
X218987500Y-84225000I-237500J0D01*
G01*
X218387500Y-84225000D01*
G75*
G02*
X218150000Y-83987500I0J237500D01*
G01*
G37*
G36*
G01*
X228475000Y-102812500D02*
X228475000Y-103287500D01*
G75*
G02*
X228237500Y-103525000I-237500J0D01*
G01*
X227637500Y-103525000D01*
G75*
G02*
X227400000Y-103287500I0J237500D01*
G01*
X227400000Y-102812500D01*
G75*
G02*
X227637500Y-102575000I237500J0D01*
G01*
X228237500Y-102575000D01*
G75*
G02*
X228475000Y-102812500I0J-237500D01*
G01*
G37*
G36*
G01*
X230200000Y-102812500D02*
X230200000Y-103287500D01*
G75*
G02*
X229962500Y-103525000I-237500J0D01*
G01*
X229362500Y-103525000D01*
G75*
G02*
X229125000Y-103287500I0J237500D01*
G01*
X229125000Y-102812500D01*
G75*
G02*
X229362500Y-102575000I237500J0D01*
G01*
X229962500Y-102575000D01*
G75*
G02*
X230200000Y-102812500I0J-237500D01*
G01*
G37*
G36*
G01*
X135437500Y-56075000D02*
X134962500Y-56075000D01*
G75*
G02*
X134725000Y-55837500I0J237500D01*
G01*
X134725000Y-55237500D01*
G75*
G02*
X134962500Y-55000000I237500J0D01*
G01*
X135437500Y-55000000D01*
G75*
G02*
X135675000Y-55237500I0J-237500D01*
G01*
X135675000Y-55837500D01*
G75*
G02*
X135437500Y-56075000I-237500J0D01*
G01*
G37*
G36*
G01*
X135437500Y-57800000D02*
X134962500Y-57800000D01*
G75*
G02*
X134725000Y-57562500I0J237500D01*
G01*
X134725000Y-56962500D01*
G75*
G02*
X134962500Y-56725000I237500J0D01*
G01*
X135437500Y-56725000D01*
G75*
G02*
X135675000Y-56962500I0J-237500D01*
G01*
X135675000Y-57562500D01*
G75*
G02*
X135437500Y-57800000I-237500J0D01*
G01*
G37*
G36*
G01*
X133637500Y-56012500D02*
X133162500Y-56012500D01*
G75*
G02*
X132925000Y-55775000I0J237500D01*
G01*
X132925000Y-55175000D01*
G75*
G02*
X133162500Y-54937500I237500J0D01*
G01*
X133637500Y-54937500D01*
G75*
G02*
X133875000Y-55175000I0J-237500D01*
G01*
X133875000Y-55775000D01*
G75*
G02*
X133637500Y-56012500I-237500J0D01*
G01*
G37*
G36*
G01*
X133637500Y-57737500D02*
X133162500Y-57737500D01*
G75*
G02*
X132925000Y-57500000I0J237500D01*
G01*
X132925000Y-56900000D01*
G75*
G02*
X133162500Y-56662500I237500J0D01*
G01*
X133637500Y-56662500D01*
G75*
G02*
X133875000Y-56900000I0J-237500D01*
G01*
X133875000Y-57500000D01*
G75*
G02*
X133637500Y-57737500I-237500J0D01*
G01*
G37*
G36*
G01*
X248880000Y-72250000D02*
X248880000Y-71150000D01*
G75*
G02*
X249130000Y-70900000I250000J0D01*
G01*
X252130000Y-70900000D01*
G75*
G02*
X252380000Y-71150000I0J-250000D01*
G01*
X252380000Y-72250000D01*
G75*
G02*
X252130000Y-72500000I-250000J0D01*
G01*
X249130000Y-72500000D01*
G75*
G02*
X248880000Y-72250000I0J250000D01*
G01*
G37*
G36*
G01*
X243480000Y-72250000D02*
X243480000Y-71150000D01*
G75*
G02*
X243730000Y-70900000I250000J0D01*
G01*
X246730000Y-70900000D01*
G75*
G02*
X246980000Y-71150000I0J-250000D01*
G01*
X246980000Y-72250000D01*
G75*
G02*
X246730000Y-72500000I-250000J0D01*
G01*
X243730000Y-72500000D01*
G75*
G02*
X243480000Y-72250000I0J250000D01*
G01*
G37*
G36*
G01*
X204937500Y-64825000D02*
X204462500Y-64825000D01*
G75*
G02*
X204225000Y-64587500I0J237500D01*
G01*
X204225000Y-63987500D01*
G75*
G02*
X204462500Y-63750000I237500J0D01*
G01*
X204937500Y-63750000D01*
G75*
G02*
X205175000Y-63987500I0J-237500D01*
G01*
X205175000Y-64587500D01*
G75*
G02*
X204937500Y-64825000I-237500J0D01*
G01*
G37*
G36*
G01*
X204937500Y-66550000D02*
X204462500Y-66550000D01*
G75*
G02*
X204225000Y-66312500I0J237500D01*
G01*
X204225000Y-65712500D01*
G75*
G02*
X204462500Y-65475000I237500J0D01*
G01*
X204937500Y-65475000D01*
G75*
G02*
X205175000Y-65712500I0J-237500D01*
G01*
X205175000Y-66312500D01*
G75*
G02*
X204937500Y-66550000I-237500J0D01*
G01*
G37*
G36*
G01*
X214450000Y-68050002D02*
X214450000Y-66749998D01*
G75*
G02*
X214699998Y-66500000I249998J0D01*
G01*
X215525002Y-66500000D01*
G75*
G02*
X215775000Y-66749998I0J-249998D01*
G01*
X215775000Y-68050002D01*
G75*
G02*
X215525002Y-68300000I-249998J0D01*
G01*
X214699998Y-68300000D01*
G75*
G02*
X214450000Y-68050002I0J249998D01*
G01*
G37*
G36*
G01*
X211325000Y-68050002D02*
X211325000Y-66749998D01*
G75*
G02*
X211574998Y-66500000I249998J0D01*
G01*
X212400002Y-66500000D01*
G75*
G02*
X212650000Y-66749998I0J-249998D01*
G01*
X212650000Y-68050002D01*
G75*
G02*
X212400002Y-68300000I-249998J0D01*
G01*
X211574998Y-68300000D01*
G75*
G02*
X211325000Y-68050002I0J249998D01*
G01*
G37*
G36*
G01*
X243099998Y-35500000D02*
X244400002Y-35500000D01*
G75*
G02*
X244650000Y-35749998I0J-249998D01*
G01*
X244650000Y-36575002D01*
G75*
G02*
X244400002Y-36825000I-249998J0D01*
G01*
X243099998Y-36825000D01*
G75*
G02*
X242850000Y-36575002I0J249998D01*
G01*
X242850000Y-35749998D01*
G75*
G02*
X243099998Y-35500000I249998J0D01*
G01*
G37*
G36*
G01*
X243099998Y-32375000D02*
X244400002Y-32375000D01*
G75*
G02*
X244650000Y-32624998I0J-249998D01*
G01*
X244650000Y-33450002D01*
G75*
G02*
X244400002Y-33700000I-249998J0D01*
G01*
X243099998Y-33700000D01*
G75*
G02*
X242850000Y-33450002I0J249998D01*
G01*
X242850000Y-32624998D01*
G75*
G02*
X243099998Y-32375000I249998J0D01*
G01*
G37*
G36*
G01*
X220750000Y-66937500D02*
X221850000Y-66937500D01*
G75*
G02*
X222100000Y-67187500I0J-250000D01*
G01*
X222100000Y-70012500D01*
G75*
G02*
X221850000Y-70262500I-250000J0D01*
G01*
X220750000Y-70262500D01*
G75*
G02*
X220500000Y-70012500I0J250000D01*
G01*
X220500000Y-67187500D01*
G75*
G02*
X220750000Y-66937500I250000J0D01*
G01*
G37*
G36*
G01*
X220750000Y-61862500D02*
X221850000Y-61862500D01*
G75*
G02*
X222100000Y-62112500I0J-250000D01*
G01*
X222100000Y-64937500D01*
G75*
G02*
X221850000Y-65187500I-250000J0D01*
G01*
X220750000Y-65187500D01*
G75*
G02*
X220500000Y-64937500I0J250000D01*
G01*
X220500000Y-62112500D01*
G75*
G02*
X220750000Y-61862500I250000J0D01*
G01*
G37*
G36*
G01*
X202925000Y-58037500D02*
X202925000Y-57562500D01*
G75*
G02*
X203162500Y-57325000I237500J0D01*
G01*
X203762500Y-57325000D01*
G75*
G02*
X204000000Y-57562500I0J-237500D01*
G01*
X204000000Y-58037500D01*
G75*
G02*
X203762500Y-58275000I-237500J0D01*
G01*
X203162500Y-58275000D01*
G75*
G02*
X202925000Y-58037500I0J237500D01*
G01*
G37*
G36*
G01*
X201200000Y-58037500D02*
X201200000Y-57562500D01*
G75*
G02*
X201437500Y-57325000I237500J0D01*
G01*
X202037500Y-57325000D01*
G75*
G02*
X202275000Y-57562500I0J-237500D01*
G01*
X202275000Y-58037500D01*
G75*
G02*
X202037500Y-58275000I-237500J0D01*
G01*
X201437500Y-58275000D01*
G75*
G02*
X201200000Y-58037500I0J237500D01*
G01*
G37*
G36*
G01*
X206525000Y-58037500D02*
X206525000Y-57562500D01*
G75*
G02*
X206762500Y-57325000I237500J0D01*
G01*
X207362500Y-57325000D01*
G75*
G02*
X207600000Y-57562500I0J-237500D01*
G01*
X207600000Y-58037500D01*
G75*
G02*
X207362500Y-58275000I-237500J0D01*
G01*
X206762500Y-58275000D01*
G75*
G02*
X206525000Y-58037500I0J237500D01*
G01*
G37*
G36*
G01*
X204800000Y-58037500D02*
X204800000Y-57562500D01*
G75*
G02*
X205037500Y-57325000I237500J0D01*
G01*
X205637500Y-57325000D01*
G75*
G02*
X205875000Y-57562500I0J-237500D01*
G01*
X205875000Y-58037500D01*
G75*
G02*
X205637500Y-58275000I-237500J0D01*
G01*
X205037500Y-58275000D01*
G75*
G02*
X204800000Y-58037500I0J237500D01*
G01*
G37*
G36*
G01*
X224649998Y-60037500D02*
X225950002Y-60037500D01*
G75*
G02*
X226200000Y-60287498I0J-249998D01*
G01*
X226200000Y-61112502D01*
G75*
G02*
X225950002Y-61362500I-249998J0D01*
G01*
X224649998Y-61362500D01*
G75*
G02*
X224400000Y-61112502I0J249998D01*
G01*
X224400000Y-60287498D01*
G75*
G02*
X224649998Y-60037500I249998J0D01*
G01*
G37*
G36*
G01*
X224649998Y-56912500D02*
X225950002Y-56912500D01*
G75*
G02*
X226200000Y-57162498I0J-249998D01*
G01*
X226200000Y-57987502D01*
G75*
G02*
X225950002Y-58237500I-249998J0D01*
G01*
X224649998Y-58237500D01*
G75*
G02*
X224400000Y-57987502I0J249998D01*
G01*
X224400000Y-57162498D01*
G75*
G02*
X224649998Y-56912500I249998J0D01*
G01*
G37*
G36*
G01*
X240399998Y-35600000D02*
X241700002Y-35600000D01*
G75*
G02*
X241950000Y-35849998I0J-249998D01*
G01*
X241950000Y-36675002D01*
G75*
G02*
X241700002Y-36925000I-249998J0D01*
G01*
X240399998Y-36925000D01*
G75*
G02*
X240150000Y-36675002I0J249998D01*
G01*
X240150000Y-35849998D01*
G75*
G02*
X240399998Y-35600000I249998J0D01*
G01*
G37*
G36*
G01*
X240399998Y-32475000D02*
X241700002Y-32475000D01*
G75*
G02*
X241950000Y-32724998I0J-249998D01*
G01*
X241950000Y-33550002D01*
G75*
G02*
X241700002Y-33800000I-249998J0D01*
G01*
X240399998Y-33800000D01*
G75*
G02*
X240150000Y-33550002I0J249998D01*
G01*
X240150000Y-32724998D01*
G75*
G02*
X240399998Y-32475000I249998J0D01*
G01*
G37*
G36*
G01*
X249950000Y-116095000D02*
X249950000Y-116405000D01*
G75*
G02*
X249795000Y-116560000I-155000J0D01*
G01*
X249370000Y-116560000D01*
G75*
G02*
X249215000Y-116405000I0J155000D01*
G01*
X249215000Y-116095000D01*
G75*
G02*
X249370000Y-115940000I155000J0D01*
G01*
X249795000Y-115940000D01*
G75*
G02*
X249950000Y-116095000I0J-155000D01*
G01*
G37*
G36*
G01*
X251085000Y-116095000D02*
X251085000Y-116405000D01*
G75*
G02*
X250930000Y-116560000I-155000J0D01*
G01*
X250505000Y-116560000D01*
G75*
G02*
X250350000Y-116405000I0J155000D01*
G01*
X250350000Y-116095000D01*
G75*
G02*
X250505000Y-115940000I155000J0D01*
G01*
X250930000Y-115940000D01*
G75*
G02*
X251085000Y-116095000I0J-155000D01*
G01*
G37*
G36*
G01*
X260112500Y-113137500D02*
X260587500Y-113137500D01*
G75*
G02*
X260825000Y-113375000I0J-237500D01*
G01*
X260825000Y-113975000D01*
G75*
G02*
X260587500Y-114212500I-237500J0D01*
G01*
X260112500Y-114212500D01*
G75*
G02*
X259875000Y-113975000I0J237500D01*
G01*
X259875000Y-113375000D01*
G75*
G02*
X260112500Y-113137500I237500J0D01*
G01*
G37*
G36*
G01*
X260112500Y-111412500D02*
X260587500Y-111412500D01*
G75*
G02*
X260825000Y-111650000I0J-237500D01*
G01*
X260825000Y-112250000D01*
G75*
G02*
X260587500Y-112487500I-237500J0D01*
G01*
X260112500Y-112487500D01*
G75*
G02*
X259875000Y-112250000I0J237500D01*
G01*
X259875000Y-111650000D01*
G75*
G02*
X260112500Y-111412500I237500J0D01*
G01*
G37*
G36*
G01*
X257795000Y-100282500D02*
X258105000Y-100282500D01*
G75*
G02*
X258260000Y-100437500I0J-155000D01*
G01*
X258260000Y-100862500D01*
G75*
G02*
X258105000Y-101017500I-155000J0D01*
G01*
X257795000Y-101017500D01*
G75*
G02*
X257640000Y-100862500I0J155000D01*
G01*
X257640000Y-100437500D01*
G75*
G02*
X257795000Y-100282500I155000J0D01*
G01*
G37*
G36*
G01*
X257795000Y-99147500D02*
X258105000Y-99147500D01*
G75*
G02*
X258260000Y-99302500I0J-155000D01*
G01*
X258260000Y-99727500D01*
G75*
G02*
X258105000Y-99882500I-155000J0D01*
G01*
X257795000Y-99882500D01*
G75*
G02*
X257640000Y-99727500I0J155000D01*
G01*
X257640000Y-99302500D01*
G75*
G02*
X257795000Y-99147500I155000J0D01*
G01*
G37*
G36*
G01*
X250755000Y-100017500D02*
X250445000Y-100017500D01*
G75*
G02*
X250290000Y-99862500I0J155000D01*
G01*
X250290000Y-99437500D01*
G75*
G02*
X250445000Y-99282500I155000J0D01*
G01*
X250755000Y-99282500D01*
G75*
G02*
X250910000Y-99437500I0J-155000D01*
G01*
X250910000Y-99862500D01*
G75*
G02*
X250755000Y-100017500I-155000J0D01*
G01*
G37*
G36*
G01*
X250755000Y-101152500D02*
X250445000Y-101152500D01*
G75*
G02*
X250290000Y-100997500I0J155000D01*
G01*
X250290000Y-100572500D01*
G75*
G02*
X250445000Y-100417500I155000J0D01*
G01*
X250755000Y-100417500D01*
G75*
G02*
X250910000Y-100572500I0J-155000D01*
G01*
X250910000Y-100997500D01*
G75*
G02*
X250755000Y-101152500I-155000J0D01*
G01*
G37*
G36*
G01*
X183425001Y-45575000D02*
X181574999Y-45575000D01*
G75*
G02*
X181325000Y-45325001I0J249999D01*
G01*
X181325000Y-43574999D01*
G75*
G02*
X181574999Y-43325000I249999J0D01*
G01*
X183425001Y-43325000D01*
G75*
G02*
X183675000Y-43574999I0J-249999D01*
G01*
X183675000Y-45325001D01*
G75*
G02*
X183425001Y-45575000I-249999J0D01*
G01*
G37*
G36*
G01*
X183425001Y-50675000D02*
X181574999Y-50675000D01*
G75*
G02*
X181325000Y-50425001I0J249999D01*
G01*
X181325000Y-48674999D01*
G75*
G02*
X181574999Y-48425000I249999J0D01*
G01*
X183425001Y-48425000D01*
G75*
G02*
X183675000Y-48674999I0J-249999D01*
G01*
X183675000Y-50425001D01*
G75*
G02*
X183425001Y-50675000I-249999J0D01*
G01*
G37*
G36*
G01*
X188012500Y-88812500D02*
X188487500Y-88812500D01*
G75*
G02*
X188725000Y-89050000I0J-237500D01*
G01*
X188725000Y-89650000D01*
G75*
G02*
X188487500Y-89887500I-237500J0D01*
G01*
X188012500Y-89887500D01*
G75*
G02*
X187775000Y-89650000I0J237500D01*
G01*
X187775000Y-89050000D01*
G75*
G02*
X188012500Y-88812500I237500J0D01*
G01*
G37*
G36*
G01*
X188012500Y-87087500D02*
X188487500Y-87087500D01*
G75*
G02*
X188725000Y-87325000I0J-237500D01*
G01*
X188725000Y-87925000D01*
G75*
G02*
X188487500Y-88162500I-237500J0D01*
G01*
X188012500Y-88162500D01*
G75*
G02*
X187775000Y-87925000I0J237500D01*
G01*
X187775000Y-87325000D01*
G75*
G02*
X188012500Y-87087500I237500J0D01*
G01*
G37*
G36*
G01*
X188387500Y-93662500D02*
X187912500Y-93662500D01*
G75*
G02*
X187675000Y-93425000I0J237500D01*
G01*
X187675000Y-92825000D01*
G75*
G02*
X187912500Y-92587500I237500J0D01*
G01*
X188387500Y-92587500D01*
G75*
G02*
X188625000Y-92825000I0J-237500D01*
G01*
X188625000Y-93425000D01*
G75*
G02*
X188387500Y-93662500I-237500J0D01*
G01*
G37*
G36*
G01*
X188387500Y-95387500D02*
X187912500Y-95387500D01*
G75*
G02*
X187675000Y-95150000I0J237500D01*
G01*
X187675000Y-94550000D01*
G75*
G02*
X187912500Y-94312500I237500J0D01*
G01*
X188387500Y-94312500D01*
G75*
G02*
X188625000Y-94550000I0J-237500D01*
G01*
X188625000Y-95150000D01*
G75*
G02*
X188387500Y-95387500I-237500J0D01*
G01*
G37*
G36*
G01*
X193512500Y-104737500D02*
X193987500Y-104737500D01*
G75*
G02*
X194225000Y-104975000I0J-237500D01*
G01*
X194225000Y-105575000D01*
G75*
G02*
X193987500Y-105812500I-237500J0D01*
G01*
X193512500Y-105812500D01*
G75*
G02*
X193275000Y-105575000I0J237500D01*
G01*
X193275000Y-104975000D01*
G75*
G02*
X193512500Y-104737500I237500J0D01*
G01*
G37*
G36*
G01*
X193512500Y-103012500D02*
X193987500Y-103012500D01*
G75*
G02*
X194225000Y-103250000I0J-237500D01*
G01*
X194225000Y-103850000D01*
G75*
G02*
X193987500Y-104087500I-237500J0D01*
G01*
X193512500Y-104087500D01*
G75*
G02*
X193275000Y-103850000I0J237500D01*
G01*
X193275000Y-103250000D01*
G75*
G02*
X193512500Y-103012500I237500J0D01*
G01*
G37*
G36*
G01*
X198825000Y-105474999D02*
X198825000Y-107325001D01*
G75*
G02*
X198575001Y-107575000I-249999J0D01*
G01*
X196824999Y-107575000D01*
G75*
G02*
X196575000Y-107325001I0J249999D01*
G01*
X196575000Y-105474999D01*
G75*
G02*
X196824999Y-105225000I249999J0D01*
G01*
X198575001Y-105225000D01*
G75*
G02*
X198825000Y-105474999I0J-249999D01*
G01*
G37*
G36*
G01*
X203925000Y-105474999D02*
X203925000Y-107325001D01*
G75*
G02*
X203675001Y-107575000I-249999J0D01*
G01*
X201924999Y-107575000D01*
G75*
G02*
X201675000Y-107325001I0J249999D01*
G01*
X201675000Y-105474999D01*
G75*
G02*
X201924999Y-105225000I249999J0D01*
G01*
X203675001Y-105225000D01*
G75*
G02*
X203925000Y-105474999I0J-249999D01*
G01*
G37*
G36*
G01*
X193987500Y-100362500D02*
X193512500Y-100362500D01*
G75*
G02*
X193275000Y-100125000I0J237500D01*
G01*
X193275000Y-99525000D01*
G75*
G02*
X193512500Y-99287500I237500J0D01*
G01*
X193987500Y-99287500D01*
G75*
G02*
X194225000Y-99525000I0J-237500D01*
G01*
X194225000Y-100125000D01*
G75*
G02*
X193987500Y-100362500I-237500J0D01*
G01*
G37*
G36*
G01*
X193987500Y-102087500D02*
X193512500Y-102087500D01*
G75*
G02*
X193275000Y-101850000I0J237500D01*
G01*
X193275000Y-101250000D01*
G75*
G02*
X193512500Y-101012500I237500J0D01*
G01*
X193987500Y-101012500D01*
G75*
G02*
X194225000Y-101250000I0J-237500D01*
G01*
X194225000Y-101850000D01*
G75*
G02*
X193987500Y-102087500I-237500J0D01*
G01*
G37*
G36*
G01*
X221515000Y-44165000D02*
X221515000Y-44475000D01*
G75*
G02*
X221360000Y-44630000I-155000J0D01*
G01*
X220935000Y-44630000D01*
G75*
G02*
X220780000Y-44475000I0J155000D01*
G01*
X220780000Y-44165000D01*
G75*
G02*
X220935000Y-44010000I155000J0D01*
G01*
X221360000Y-44010000D01*
G75*
G02*
X221515000Y-44165000I0J-155000D01*
G01*
G37*
G36*
G01*
X220380000Y-44165000D02*
X220380000Y-44475000D01*
G75*
G02*
X220225000Y-44630000I-155000J0D01*
G01*
X219800000Y-44630000D01*
G75*
G02*
X219645000Y-44475000I0J155000D01*
G01*
X219645000Y-44165000D01*
G75*
G02*
X219800000Y-44010000I155000J0D01*
G01*
X220225000Y-44010000D01*
G75*
G02*
X220380000Y-44165000I0J-155000D01*
G01*
G37*
D41*
X245990000Y-64000000D03*
X242690000Y-64000000D03*
X251180000Y-60140000D03*
X247880000Y-60140000D03*
D33*
X248160000Y-62450000D03*
X248160000Y-63400000D03*
X248160000Y-64350000D03*
X250860000Y-64350000D03*
X250860000Y-62450000D03*
X250860000Y-63400000D03*
D18*
X244080000Y-59900000D03*
X244080000Y-61800000D03*
X246080000Y-60850000D03*
G36*
G01*
X207810000Y-102715000D02*
X207490000Y-102715000D01*
G75*
G02*
X207330000Y-102555000I0J160000D01*
G01*
X207330000Y-102160000D01*
G75*
G02*
X207490000Y-102000000I160000J0D01*
G01*
X207810000Y-102000000D01*
G75*
G02*
X207970000Y-102160000I0J-160000D01*
G01*
X207970000Y-102555000D01*
G75*
G02*
X207810000Y-102715000I-160000J0D01*
G01*
G37*
G36*
G01*
X207810000Y-101520000D02*
X207490000Y-101520000D01*
G75*
G02*
X207330000Y-101360000I0J160000D01*
G01*
X207330000Y-100965000D01*
G75*
G02*
X207490000Y-100805000I160000J0D01*
G01*
X207810000Y-100805000D01*
G75*
G02*
X207970000Y-100965000I0J-160000D01*
G01*
X207970000Y-101360000D01*
G75*
G02*
X207810000Y-101520000I-160000J0D01*
G01*
G37*
G36*
G01*
X160505000Y-58400000D02*
X160505000Y-58720000D01*
G75*
G02*
X160345000Y-58880000I-160000J0D01*
G01*
X159950000Y-58880000D01*
G75*
G02*
X159790000Y-58720000I0J160000D01*
G01*
X159790000Y-58400000D01*
G75*
G02*
X159950000Y-58240000I160000J0D01*
G01*
X160345000Y-58240000D01*
G75*
G02*
X160505000Y-58400000I0J-160000D01*
G01*
G37*
G36*
G01*
X159310000Y-58400000D02*
X159310000Y-58720000D01*
G75*
G02*
X159150000Y-58880000I-160000J0D01*
G01*
X158755000Y-58880000D01*
G75*
G02*
X158595000Y-58720000I0J160000D01*
G01*
X158595000Y-58400000D01*
G75*
G02*
X158755000Y-58240000I160000J0D01*
G01*
X159150000Y-58240000D01*
G75*
G02*
X159310000Y-58400000I0J-160000D01*
G01*
G37*
G36*
G01*
X190940000Y-54440000D02*
X190940000Y-54120000D01*
G75*
G02*
X191100000Y-53960000I160000J0D01*
G01*
X191495000Y-53960000D01*
G75*
G02*
X191655000Y-54120000I0J-160000D01*
G01*
X191655000Y-54440000D01*
G75*
G02*
X191495000Y-54600000I-160000J0D01*
G01*
X191100000Y-54600000D01*
G75*
G02*
X190940000Y-54440000I0J160000D01*
G01*
G37*
G36*
G01*
X189745000Y-54440000D02*
X189745000Y-54120000D01*
G75*
G02*
X189905000Y-53960000I160000J0D01*
G01*
X190300000Y-53960000D01*
G75*
G02*
X190460000Y-54120000I0J-160000D01*
G01*
X190460000Y-54440000D01*
G75*
G02*
X190300000Y-54600000I-160000J0D01*
G01*
X189905000Y-54600000D01*
G75*
G02*
X189745000Y-54440000I0J160000D01*
G01*
G37*
G36*
G01*
X193675000Y-54370000D02*
X193675000Y-54050000D01*
G75*
G02*
X193835000Y-53890000I160000J0D01*
G01*
X194230000Y-53890000D01*
G75*
G02*
X194390000Y-54050000I0J-160000D01*
G01*
X194390000Y-54370000D01*
G75*
G02*
X194230000Y-54530000I-160000J0D01*
G01*
X193835000Y-54530000D01*
G75*
G02*
X193675000Y-54370000I0J160000D01*
G01*
G37*
G36*
G01*
X194870000Y-54370000D02*
X194870000Y-54050000D01*
G75*
G02*
X195030000Y-53890000I160000J0D01*
G01*
X195425000Y-53890000D01*
G75*
G02*
X195585000Y-54050000I0J-160000D01*
G01*
X195585000Y-54370000D01*
G75*
G02*
X195425000Y-54530000I-160000J0D01*
G01*
X195030000Y-54530000D01*
G75*
G02*
X194870000Y-54370000I0J160000D01*
G01*
G37*
G36*
G01*
X221930000Y-58260000D02*
X221930000Y-58580000D01*
G75*
G02*
X221770000Y-58740000I-160000J0D01*
G01*
X221375000Y-58740000D01*
G75*
G02*
X221215000Y-58580000I0J160000D01*
G01*
X221215000Y-58260000D01*
G75*
G02*
X221375000Y-58100000I160000J0D01*
G01*
X221770000Y-58100000D01*
G75*
G02*
X221930000Y-58260000I0J-160000D01*
G01*
G37*
G36*
G01*
X223125000Y-58260000D02*
X223125000Y-58580000D01*
G75*
G02*
X222965000Y-58740000I-160000J0D01*
G01*
X222570000Y-58740000D01*
G75*
G02*
X222410000Y-58580000I0J160000D01*
G01*
X222410000Y-58260000D01*
G75*
G02*
X222570000Y-58100000I160000J0D01*
G01*
X222965000Y-58100000D01*
G75*
G02*
X223125000Y-58260000I0J-160000D01*
G01*
G37*
G36*
G01*
X242300000Y-61550000D02*
X242620000Y-61550000D01*
G75*
G02*
X242780000Y-61710000I0J-160000D01*
G01*
X242780000Y-62105000D01*
G75*
G02*
X242620000Y-62265000I-160000J0D01*
G01*
X242300000Y-62265000D01*
G75*
G02*
X242140000Y-62105000I0J160000D01*
G01*
X242140000Y-61710000D01*
G75*
G02*
X242300000Y-61550000I160000J0D01*
G01*
G37*
G36*
G01*
X242300000Y-60355000D02*
X242620000Y-60355000D01*
G75*
G02*
X242780000Y-60515000I0J-160000D01*
G01*
X242780000Y-60910000D01*
G75*
G02*
X242620000Y-61070000I-160000J0D01*
G01*
X242300000Y-61070000D01*
G75*
G02*
X242140000Y-60910000I0J160000D01*
G01*
X242140000Y-60515000D01*
G75*
G02*
X242300000Y-60355000I160000J0D01*
G01*
G37*
G36*
G01*
X241390000Y-62305000D02*
X241070000Y-62305000D01*
G75*
G02*
X240910000Y-62145000I0J160000D01*
G01*
X240910000Y-61750000D01*
G75*
G02*
X241070000Y-61590000I160000J0D01*
G01*
X241390000Y-61590000D01*
G75*
G02*
X241550000Y-61750000I0J-160000D01*
G01*
X241550000Y-62145000D01*
G75*
G02*
X241390000Y-62305000I-160000J0D01*
G01*
G37*
G36*
G01*
X241390000Y-61110000D02*
X241070000Y-61110000D01*
G75*
G02*
X240910000Y-60950000I0J160000D01*
G01*
X240910000Y-60555000D01*
G75*
G02*
X241070000Y-60395000I160000J0D01*
G01*
X241390000Y-60395000D01*
G75*
G02*
X241550000Y-60555000I0J-160000D01*
G01*
X241550000Y-60950000D01*
G75*
G02*
X241390000Y-61110000I-160000J0D01*
G01*
G37*
G36*
G01*
X208532500Y-67560000D02*
X208532500Y-67240000D01*
G75*
G02*
X208692500Y-67080000I160000J0D01*
G01*
X209087500Y-67080000D01*
G75*
G02*
X209247500Y-67240000I0J-160000D01*
G01*
X209247500Y-67560000D01*
G75*
G02*
X209087500Y-67720000I-160000J0D01*
G01*
X208692500Y-67720000D01*
G75*
G02*
X208532500Y-67560000I0J160000D01*
G01*
G37*
G36*
G01*
X207337500Y-67560000D02*
X207337500Y-67240000D01*
G75*
G02*
X207497500Y-67080000I160000J0D01*
G01*
X207892500Y-67080000D01*
G75*
G02*
X208052500Y-67240000I0J-160000D01*
G01*
X208052500Y-67560000D01*
G75*
G02*
X207892500Y-67720000I-160000J0D01*
G01*
X207497500Y-67720000D01*
G75*
G02*
X207337500Y-67560000I0J160000D01*
G01*
G37*
M02*
