M48
; DRILL file {KiCad 6.0.4-6f826c9f35~116~ubuntu20.04.1} date Thu 28 Apr 2022 08:03:12 AM CDT
; FORMAT={-:-/ absolute / inch / decimal}
; #@! TF.CreationDate,2022-04-28T08:03:12-05:00
; #@! TF.GenerationSoftware,Kicad,Pcbnew,6.0.4-6f826c9f35~116~ubuntu20.04.1
; #@! TF.FileFunction,Plated,1,4,PTH
FMAT,2
INCH
; #@! TA.AperFunction,Plated,PTH,ViaDrill
T1C0.0138
; #@! TA.AperFunction,Plated,PTH,ViaDrill
T2C0.0157
; #@! TA.AperFunction,Plated,PTH,ViaDrill
T3C0.0236
; #@! TA.AperFunction,Plated,PTH,ViaDrill
T4C0.0276
; #@! TA.AperFunction,Plated,PTH,ComponentDrill
T5C0.0276
; #@! TA.AperFunction,Plated,PTH,ComponentDrill
T6C0.0350
; #@! TA.AperFunction,Plated,PTH,ViaDrill
T7C0.0394
; #@! TA.AperFunction,Plated,PTH,ComponentDrill
T8C0.0394
; #@! TA.AperFunction,Plated,PTH,ComponentDrill
T9C0.0404
; #@! TA.AperFunction,Plated,PTH,ViaDrill
T10C0.0492
; #@! TA.AperFunction,Plated,PTH,ComponentDrill
T11C0.0512
; #@! TA.AperFunction,Plated,PTH,ComponentDrill
T12C0.0591
; #@! TA.AperFunction,Plated,PTH,ComponentDrill
T13C0.0618
; #@! TA.AperFunction,Plated,PTH,ComponentDrill
T14C0.1083
%
G90
G05
T1
X5.1492Y-3.4201
X5.1539Y-3.4783
X5.2878Y-3.2508
X5.3059Y-3.5685
X5.3504Y-2.3331
X5.3803Y-4.0146
X5.4043Y-3.6378
X5.4055Y-3.2528
X5.4067Y-3.8047
X5.4669Y-3.2234
X5.4704Y-3.2518
X5.5156Y-2.4832
X5.5413Y-3.1138
X5.5433Y-2.302
X5.5598Y-3.135
X5.574Y-3.1586
X5.752Y-3.0047
X5.789Y-3.0047
X5.7988Y-3.5866
X5.8012Y-3.035
X5.9591Y-2.7488
X5.9858Y-2.6287
X5.9922Y-3.0463
X5.9961Y-2.7669
X6.0236Y-2.7447
X6.0512Y-3.2244
X6.1134Y-3.0781
X6.1624Y-2.8423
X6.1657Y-2.9461
X6.2581Y-2.8423
X6.2724Y-2.8659
X6.3727Y-2.6254
X6.3807Y-2.4744
X6.4047Y-2.5433
X6.4083Y-3.5827
X6.6311Y-3.0815
X7.1947Y-2.729
X9.13Y-3.85
T2
X5.0106Y-1.6618
X5.0657Y-3.4157
X5.2614Y-3.6591
X5.2661Y-3.4953
X5.2689Y-3.6268
X5.2689Y-3.7976
X5.2741Y-3.5486
X5.286Y-3.6949
X5.29Y-2.44
X5.2948Y-2.5596
X5.3213Y-2.6492
X5.3555Y-2.7567
X5.3614Y-2.6012
X5.3935Y-3.2955
X5.4094Y-3.4772
X5.4344Y-3.1794
X5.4402Y-3.1272
X5.4878Y-3.8244
X5.5252Y-3.0891
X5.5386Y-2.9492
X5.5965Y-3.7232
X5.602Y-4.0472
X5.6028Y-3.4083
X5.8047Y-3.7276
X5.8091Y-3.4091
X5.8091Y-4.0492
X5.878Y-3.3579
X5.9047Y-3.8071
X5.9626Y-3.1118
X5.9744Y-4.1685
X5.9906Y-3.5374
X5.9909Y-3.4437
X6.0098Y-2.6748
X6.0276Y-2.5929
X6.0331Y-3.5004
X6.0573Y-2.9936
X6.0789Y-3.0547
X6.1339Y-2.928
X6.1421Y-3.8382
X6.1429Y-3.6894
X6.1681Y-3.4449
X6.1697Y-3.3217
X6.1758Y-2.5909
X6.1898Y-2.8685
X6.223Y-2.4782
X6.2417Y-3.6913
X6.2417Y-3.8406
X6.2476Y-2.5984
X6.2543Y-2.4862
X6.2732Y-2.6242
X6.2807Y-3.7264
X6.3161Y-2.6587
X6.3177Y-3.5929
X6.3402Y-3.6857
X6.3417Y-3.8398
X6.3516Y-3.5055
X6.3638Y-2.5371
X6.3902Y-4.0846
X6.411Y-2.4362
X6.421Y-2.9818
X6.4343Y-2.6799
X6.4425Y-3.689
X6.4429Y-3.837
X6.4728Y-3.9921
X6.4945Y-2.6969
X6.5319Y-1.7575
X6.5866Y-2.5909
X6.5953Y-3.2728
X6.5988Y-3.1899
X6.6079Y-2.7047
X6.6311Y-1.6657
X6.6374Y-1.7669
X6.6386Y-2.0669
X6.639Y-1.8665
X6.6394Y-1.9657
X6.6941Y-2.7717
X6.6949Y-2.5787
X6.7025Y-2.6791
X6.7303Y-2.1157
X6.7346Y-2.5835
X6.7399Y-3.079
X6.7575Y-1.9299
X6.7707Y-3.0858
X6.7764Y-2.435
X6.7858Y-2.148
X6.79Y-1.77
X6.79Y-1.87
X6.79Y-1.97
X6.79Y-2.07
X6.8071Y-3.1066
X6.8091Y-2.2799
X6.8394Y-4.128
X6.85Y-2.1319
X6.8626Y-2.2122
X6.8921Y-2.4953
X6.8965Y-2.7965
X6.9114Y-2.5795
X6.9146Y-2.3807
X6.9906Y-4.1512
X7.0328Y-2.6065
X7.0333Y-2.3101
X7.0348Y-2.5451
X7.039Y-2.6394
X7.0413Y-2.7075
X7.0606Y-2.0485
X7.0642Y-2.3752
X7.0697Y-3.7713
X7.1075Y-2.3189
X7.1827Y-2.7894
X7.2282Y-2.4272
X7.2525Y-2.7435
X7.2587Y-3.8531
X7.2613Y-2.6019
X7.272Y-2.5484
X7.2729Y-2.7113
X7.2736Y-2.5047
X7.274Y-2.1654
X7.2748Y-2.8028
X7.2768Y-2.6571
X7.2822Y-2.5783
X7.2825Y-2.753
X7.2929Y-3.2339
X7.339Y-3.9461
X7.374Y-2.8949
X7.383Y-3.987
X7.4Y-2.71
X7.4Y-2.75
X7.4Y-2.8
X7.4061Y-3.6408
X7.4075Y-2.4035
X7.4406Y-3.5819
X7.4504Y-2.4372
X7.4555Y-2.078
X7.4787Y-3.2594
X7.51Y-2.72
X7.5185Y-2.5602
X7.5193Y-3.9494
X7.5217Y-4.2398
X7.53Y-2.05
X7.537Y-3.5512
X7.5421Y-2.1398
X7.552Y-4.1504
X7.62Y-2.14
X7.6295Y-2.5708
X7.63Y-2.46
X7.63Y-2.66
X7.63Y-2.76
X7.6508Y-2.5303
X7.6776Y-2.7882
X7.6969Y-4.1665
X7.6972Y-4.2272
X7.7008Y-3.2323
X7.7111Y-2.5049
X7.7299Y-2.4386
X7.7354Y-2.5604
X7.7395Y-2.4913
X7.7421Y-2.739
X7.7612Y-2.5783
X7.771Y-2.71
X7.7752Y-2.6252
X7.7799Y-2.7593
X7.78Y-2.17
X7.78Y-2.66
X7.7815Y-2.4589
X7.7865Y-2.5596
X7.8042Y-3.1887
X7.8156Y-3.0727
X7.8266Y-2.8929
X7.8488Y-3.4151
X7.8873Y-3.2559
X7.9012Y-3.7906
X7.9031Y-2.2402
X7.9039Y-2.5555
X7.9075Y-2.6819
X7.9235Y-3.2163
X7.9406Y-3.3295
X7.9415Y-2.1502
X7.9446Y-2.5911
X7.9756Y-3.2807
X8.0106Y-3.7007
X8.02Y-2.67
X8.026Y-3.3835
X8.0394Y-3.3087
X8.04Y-2.77
X8.0586Y-3.2214
X8.07Y-1.63
X8.08Y-2.47
X8.0921Y-3.8169
X8.1152Y-3.896
X8.1382Y-3.3165
X8.14Y-2.72
X8.1461Y-3.8043
X8.1512Y-3.9264
X8.185Y-2.9157
X8.2Y-2.77
X8.2063Y-3.9004
X8.32Y-2.54
X8.32Y-2.59
X8.32Y-2.64
X8.3799Y-2.8878
X8.4039Y-2.6902
X8.4354Y-3.5114
X8.4362Y-3.4551
X8.4366Y-3.4831
X8.4976Y-2.7925
X8.55Y-3.19
X8.6638Y-3.2287
X8.69Y-3.18
X8.7331Y-4.037
X8.7772Y-4.0866
X8.8319Y-3.2087
X8.8429Y-2.7754
X8.8886Y-4.6727
X8.9035Y-2.913
X8.9256Y-2.3197
X8.9276Y-4.1228
X8.9429Y-2.5024
X8.9521Y-2.609
X8.9594Y-2.5346
X8.9661Y-4.1441
X8.973Y-2.323
X8.9759Y-4.6401
X9.0008Y-4.4165
X9.01Y-2.79
X9.0131Y-4.3875
X9.0138Y-3.898
X9.035Y-4.2626
X9.0563Y-4.0165
X9.0866Y-4.3697
X9.09Y-2.4
X9.09Y-2.63
X9.0957Y-4.4839
X9.1128Y-4.3871
X9.1165Y-4.1689
X9.1268Y-2.6295
X9.1333Y-4.481
X9.1335Y-3.948
X9.1531Y-2.7728
X9.1665Y-4.4142
X9.1732Y-4.4978
X9.18Y-2.39
X9.1807Y-4.3024
X9.1811Y-4.2724
X9.1941Y-3.1114
X9.198Y-4.1051
X9.199Y-3.7423
X9.2028Y-4.1559
X9.2036Y-4.4107
X9.2051Y-3.9768
X9.2083Y-4.2858
X9.211Y-2.9886
X9.2197Y-3.8087
X9.2346Y-4.4054
X9.2346Y-2.9429
X9.2356Y-4.1699
X9.2568Y-4.6162
X9.2661Y-4.4058
X9.2866Y-1.7358
X9.2872Y-4.2277
X9.2872Y-4.2591
X9.2938Y-4.3419
X9.3Y-2.45
X9.3063Y-3.676
X9.3197Y-3.0606
X9.322Y-3.0232
X9.363Y-3.8102
X9.3807Y-2.3923
X9.4016Y-4.0445
X9.42Y-2.28
X9.4252Y-1.7299
X9.4335Y-4.1811
X9.4386Y-4.4484
X9.4387Y-4.2722
X9.4402Y-4.5508
X9.4421Y-4.2138
X9.4539Y-4.0969
X9.4796Y-4.6143
X9.54Y-2.52
X9.55Y-4.2799
X9.6386Y-3.5201
X9.6732Y-1.7012
X9.7103Y-1.2743
X9.7346Y-2.32
X9.74Y-2.17
X9.7976Y-4.6587
X9.81Y-2.28
X9.8476Y-1.9661
X9.88Y-2.09
X9.9039Y-1.2831
X9.9091Y-4.5661
X9.9492Y-1.4016
X9.9539Y-1.285
X9.96Y-2.16
X9.9965Y-4.4276
X10.0205Y-4.3264
X10.0551Y-4.3854
X10.1195Y-1.8601
X10.1213Y-1.4201
X10.13Y-2.1259
X10.1323Y-4.1587
X10.14Y-2.25
X10.1454Y-1.9591
X10.18Y-2.12
X10.1988Y-3.8559
X10.2217Y-4.5272
X10.272Y-1.3657
X10.313Y-3.9465
X10.37Y-2.28
X10.38Y-2.18
T3
X9.6169Y-4.5547
T4
X5.4988Y-2.25
X5.5031Y-2.1957
X5.6059Y-2.489
X5.7248Y-2.3634
X5.8535Y-2.4854
X6.0268Y-2.1976
X6.2004Y-3.3555
X6.2443Y-3.11
X6.2583Y-3.289
X6.3508Y-3.1744
X6.352Y-3.2862
X6.3521Y-3.42
X6.4593Y-3.11
X6.6134Y-3.8744
X6.7085Y-4.2022
X6.7606Y-4.0413
X6.7812Y-4.1402
X6.84Y-4.0665
X7.1799Y-1.8293
X7.187Y-1.876
X7.2701Y-1.9331
X7.28Y-1.87
X7.7161Y-3.1295
X7.9614Y-3.8098
X8.0027Y-2.5574
X8.102Y-3.9709
X8.15Y-2.61
X8.3002Y-3.1449
X8.3059Y-3.5528
X8.4067Y-3.1031
X8.43Y-2.81
X8.5027Y-3.79
X8.5236Y-3.0512
X8.565Y-2.8035
X8.5886Y-3.0563
X8.6036Y-2.9836
X8.6909Y-3.8071
X8.7902Y-3.6453
X8.7913Y-3.4185
X8.7921Y-3.2693
X8.8506Y-2.7361
X8.9087Y-3.7146
X8.9858Y-2.9745
X9.0614Y-3.0551
X9.0728Y-3.3937
X9.1035Y-2.9213
X9.12Y-1.42
X9.1363Y-2.9552
X9.2239Y-2.8793
X9.24Y-2.01
X9.29Y-1.42
X9.574Y-2.3311
X9.5756Y-2.4736
X9.6181Y-2.0701
X9.6602Y-1.8783
X9.74Y-2.0
X9.7844Y-2.1297
X9.8598Y-2.1951
X9.98Y-1.54
X10.01Y-1.69
T5
X10.301Y-4.1341
X10.301Y-4.1971
X10.301Y-4.2601
X10.348Y-4.2291
X10.349Y-4.1651
T6
X9.4394Y-3.1147
X9.4394Y-3.1947
X9.4394Y-3.2747
X9.4394Y-3.4347
X9.4394Y-3.5147
X9.4394Y-3.5947
X9.5394Y-3.1547
X9.5394Y-3.2347
X9.5394Y-3.3147
X9.5394Y-3.3947
X9.5394Y-3.4747
X9.5394Y-3.5547
X9.8189Y-3.1343
X9.8232Y-3.574
X9.8764Y-3.1339
X9.8807Y-3.5736
T7
X9.6508Y-2.9606
X9.6831Y-3.2815
X10.0531Y-2.7673
T8
X4.8122Y-2.9724
X5.1272Y-2.9724
T9
X9.3394Y-3.1147
X9.3394Y-3.2147
X9.3394Y-3.4947
X9.3394Y-3.5947
T10
X6.7222Y-3.4999
X6.726Y-3.6299
X6.8307Y-3.6276
X6.8327Y-3.4886
X6.9311Y-3.6307
X6.9362Y-3.4902
X7.6705Y-1.7909
X7.6787Y-1.9311
X7.7622Y-1.7965
X7.7665Y-1.9358
X7.8516Y-1.9335
X7.8535Y-1.8004
T11
X4.8282Y-3.38
X4.8282Y-3.58
X4.8282Y-3.78
X4.8282Y-3.98
X4.8282Y-4.18
X4.83Y-1.8
X4.83Y-2.0
X4.83Y-2.2
X4.83Y-2.4
X4.83Y-2.6
X5.1945Y-4.6035
X5.2028Y-1.3358
X5.3945Y-4.6035
X5.4028Y-1.3358
X5.5945Y-4.6035
X5.6028Y-1.3358
X5.7945Y-4.6035
X5.8028Y-1.3358
X6.1053Y-4.5976
X6.1169Y-1.3362
X6.3053Y-4.5976
X6.3169Y-1.3362
X6.5053Y-4.5976
X6.5169Y-1.3362
X6.8215Y-4.5925
X6.8343Y-1.3362
X7.0215Y-4.5925
X7.0343Y-1.3362
X7.2215Y-4.5925
X7.2343Y-1.3362
X7.5264Y-4.6047
X7.55Y-1.3362
X7.7264Y-4.6047
X7.75Y-1.3362
X7.9264Y-4.6047
X7.95Y-1.3362
X8.2465Y-4.6035
X8.2654Y-1.337
X8.4465Y-4.6035
X8.4654Y-1.337
X8.6465Y-4.6035
X8.6654Y-1.337
X8.8465Y-4.6035
X8.8654Y-1.337
T13
X10.2644Y-3.0372
X10.2644Y-3.6722
T14
X4.8307Y-1.3583
X4.8307Y-4.5866
X10.4213Y-1.3583
X10.4213Y-4.5866
T5
G00X10.5236Y-4.0531
M15
G01X10.4764Y-4.0531
M16
G05
G00X10.5236Y-4.3401
M15
G01X10.4764Y-4.3401
M16
G05
T12
G00X10.0307Y-2.5953
M15
G01X10.0307Y-2.5165
M16
G05
G00X10.1882Y-2.3709
M15
G01X10.1094Y-2.3709
M16
G05
G00X10.2669Y-2.5953
M15
G01X10.2669Y-2.5165
M16
G05
T0
M30
