M48
; DRILL file {KiCad 5.1.7-a382d34a8~88~ubuntu20.04.1} date Sun Jan  3 10:10:46 2021
; FORMAT={-:-/ absolute / inch / decimal}
; #@! TF.CreationDate,2021-01-03T10:10:46-06:00
; #@! TF.GenerationSoftware,Kicad,Pcbnew,5.1.7-a382d34a8~88~ubuntu20.04.1
; #@! TF.FileFunction,Plated,1,4,PTH
FMAT,2
INCH
T1C0.0118
T2C0.0138
T3C0.0157
T4C0.0236
T5C0.0276
T6C0.0315
T7C0.0354
T8C0.0394
T9C0.0472
T10C0.0492
T11C0.0591
T12C0.0669
%
G90
G05
T1
X5.1476Y-3.2126
X5.1683Y-3.1792
X5.186Y-3.1223
X5.2657Y-3.0886
X5.2717Y-2.9764
X5.374Y-2.7461
X5.4252Y-3.1457
X5.439Y-3.065
X5.4429Y-2.8681
X5.5779Y-2.831
X5.5851Y-2.9152
X5.5866Y-2.4843
X5.5994Y-2.8806
X5.62Y-2.7667
X5.8701Y-3.4094
X5.9547Y-2.8022
X6.0276Y-2.7736
X6.0453Y-2.3917
X6.0512Y-2.7657
X6.0624Y-3.4381
X6.0678Y-2.8553
X6.0748Y-3.1634
X6.1017Y-2.9588
X6.1063Y-2.9035
X6.1104Y-2.9369
X6.1772Y-3.2047
X6.1772Y-3.2303
X6.1821Y-3.8221
X6.1988Y-3.3366
X6.2032Y-4.5364
X6.208Y-3.4252
X6.2264Y-4.6437
X6.2303Y-4.5364
X6.2461Y-2.9606
X6.248Y-2.3917
X6.248Y-2.4665
X6.248Y-2.5157
X6.2492Y-3.3307
X6.2559Y-2.7165
X6.2591Y-3.4383
X6.2618Y-4.6417
X6.2894Y-3.7697
X6.3445Y-3.0374
X6.3543Y-3.0069
X6.3717Y-2.8425
X6.3789Y-3.2356
X6.4134Y-3.2449
X6.5531Y-1.9232
X6.8898Y-2.6614
X6.8976Y-2.1319
X6.9104Y-1.9606
X6.9172Y-1.9194
X6.9193Y-2.0531
X6.941Y-1.8702
X6.9626Y-2.0551
X7.0138Y-2.6102
X7.0197Y-2.6909
X7.0748Y-3.0256
X7.124Y-2.624
X7.1535Y-4.1457
X7.185Y-4.128
X7.2067Y-2.9528
X7.3543Y-4.1634
X7.3856Y-2.9528
X7.3926Y-3.3088
X7.4025Y-3.1664
X7.4311Y-4.3327
X7.4507Y-3.4102
X7.4647Y-2.612
X7.5Y-3.0197
X7.511Y-3.1737
X7.5118Y-2.5945
X7.5266Y-3.4408
X7.5302Y-3.1542
X7.5335Y-2.815
X7.5477Y-3.1368
X7.5551Y-2.7736
X7.5846Y-2.8504
X7.5886Y-2.685
X7.5945Y-2.9291
X7.6724Y-3.7639
X7.676Y-3.7902
X7.6816Y-3.3551
X7.7028Y-3.7933
X7.7111Y-2.4779
X7.7398Y-3.5172
X7.7462Y-3.4554
X7.8228Y-2.4921
X7.8435Y-2.4669
X7.8957Y-3.5098
X7.8957Y-3.5492
X8.0167Y-2.8553
X8.0227Y-3.0962
X8.0236Y-2.3504
X8.0392Y-3.1132
X8.0512Y-2.25
X8.0551Y-3.8898
X8.0886Y-3.3328
X8.1201Y-3.1594
X8.185Y-3.1535
X8.1932Y-2.4537
X8.1966Y-2.4961
X8.2047Y-2.2638
X8.2399Y-2.4891
X8.3228Y-2.1299
X8.3425Y-3.2402
X8.3543Y-2.2441
X8.3967Y-3.1698
X8.4409Y-4.2077
X8.4626Y-4.2283
X8.4724Y-3.248
X8.5262Y-1.7841
X8.5315Y-3.2047
X8.5315Y-3.2343
X8.5354Y-3.3898
X8.5394Y-3.0374
X8.5453Y-3.061
X8.5866Y-3.1299
X8.6063Y-4.2874
X8.6339Y-3.063
X8.6396Y-3.3373
X8.6535Y-4.189
X8.6632Y-3.3381
X8.6752Y-4.0413
X8.7323Y-1.6555
X8.8031Y-4.0994
X8.827Y-3.1847
X8.9567Y-3.7874
X8.9646Y-3.7185
X9.0315Y-3.7815
X9.0472Y-4.189
T2
X6.2795Y-3.2893
X6.2845Y-3.4409
X6.2953Y-2.5748
X6.3077Y-3.3072
X6.3543Y-3.4921
X6.3583Y-2.6654
X6.3971Y-3.2731
X6.5768Y-3.2835
X6.7441Y-2.5472
X6.7559Y-3.2835
X6.7598Y-2.6841
X6.7717Y-2.5217
X6.7874Y-3.2835
X6.8638Y-2.7058
X6.998Y-2.25
X6.998Y-2.2894
X7.0256Y-2.4409
X7.0709Y-3.5748
X7.1122Y-2.0748
X7.1417Y-2.0866
X7.1417Y-2.1102
X7.4998Y-2.9726
X7.5039Y-2.8602
X7.6606Y-3.381
X7.689Y-2.7402
X7.689Y-2.8386
X7.689Y-2.937
X7.689Y-3.0354
X7.7717Y-2.0335
X7.8307Y-3.4282
X7.8307Y-3.5118
X7.8324Y-3.6074
X7.8346Y-3.0394
X7.8386Y-2.7402
X7.8386Y-2.8386
X7.8386Y-2.937
X7.8425Y-3.311
X7.9357Y-3.5879
X7.9646Y-2.063
X7.9685Y-3.311
X7.9728Y-3.4282
X7.9803Y-3.5118
X7.9803Y-3.6102
X8.0Y-2.1417
X8.0118Y-2.7283
X8.0296Y-2.7921
X8.0839Y-3.1079
X8.0963Y-3.3084
X8.1102Y-2.2992
X8.1156Y-2.2731
X8.1348Y-3.1839
X8.1673Y-3.4724
X8.2008Y-3.185
X8.3031Y-1.811
X8.4094Y-1.6988
X8.6181Y-3.8819
X8.6339Y-3.2323
X8.6535Y-3.2126
X8.6535Y-3.2559
X8.6575Y-1.8012
X8.6583Y-3.0971
X8.6614Y-3.4606
X8.6732Y-3.2323
X8.7313Y-3.1324
X8.7717Y-4.002
X8.7736Y-4.122
X8.7736Y-4.1496
X8.7874Y-3.2874
X8.7953Y-3.9843
X8.7955Y-3.1817
X8.8026Y-3.2396
X8.8268Y-3.1592
X8.8268Y-3.0669
X8.8307Y-3.0157
X8.8543Y-3.252
X8.874Y-4.124
X8.9055Y-4.0591
X8.9291Y-4.0591
X9.0571Y-3.8661
X9.0846Y-4.0571
X9.1398Y-3.8661
X9.2087Y-4.0709
X9.2244Y-4.1693
X9.3386Y-3.7126
T3
X4.7815Y-2.8878
X4.7815Y-3.0354
X4.8819Y-2.8878
X4.8819Y-3.0354
X4.9803Y-2.8898
X4.9823Y-3.0315
X5.0807Y-3.0335
X5.0827Y-2.8878
X5.2756Y-2.8898
X5.2757Y-3.2363
X5.3701Y-2.9409
X5.3839Y-2.7795
X5.4675Y-2.9173
X6.4331Y-4.2402
X6.6181Y-3.5827
X6.6417Y-4.2362
X6.6594Y-1.8031
X6.6594Y-1.9035
X6.6614Y-2.0039
X6.6614Y-2.1024
X6.8031Y-1.9016
X6.8031Y-2.0039
X6.8031Y-2.1043
X6.8051Y-1.8012
X6.8996Y-3.0984
X6.9035Y-3.0472
X6.9252Y-3.9882
X6.9291Y-1.7087
X6.9646Y-4.6476
X6.9902Y-4.6476
X7.0295Y-3.0965
X7.0335Y-3.0472
X7.0374Y-1.7559
X7.0846Y-1.9646
X7.2205Y-3.2205
X7.2589Y-3.2057
X7.2697Y-3.248
X7.2697Y-3.297
X7.6161Y-4.4803
X8.2992Y-4.2362
X8.3071Y-3.0276
X8.3543Y-2.7638
X8.3661Y-3.0256
X8.4606Y-2.7126
X8.4606Y-2.7835
X8.4646Y-2.8425
X8.4744Y-1.8091
X8.4764Y-1.9291
X8.5Y-3.0197
X8.5571Y-4.3406
X8.561Y-2.7343
X8.5644Y-4.4994
X8.565Y-2.8307
X8.5669Y-2.9232
X8.5748Y-1.8071
X8.5748Y-1.9291
X8.6786Y-2.8282
X8.6811Y-2.8898
X8.6831Y-2.7067
X8.7028Y-3.0925
X8.7835Y-3.4213
X8.8287Y-2.9606
X8.0315Y-2.4409
X8.0315Y-2.4803
X8.0315Y-2.5197
X8.0709Y-2.4409
X8.0709Y-2.4803
X8.0709Y-2.5197
X8.1102Y-2.4409
X8.1102Y-2.4803
X8.1102Y-2.5197
T4
X8.7244Y-3.0197
X8.7633Y-3.0664
X9.1024Y-3.4803
X9.1457Y-4.189
X9.2874Y-3.9291
X9.2992Y-3.3898
X9.374Y-3.4449
X9.4823Y-3.3051
X9.563Y-4.0748
T5
X5.4094Y-2.4331
X5.5098Y-2.2717
X5.5787Y-2.3169
X5.5787Y-2.3681
X5.6181Y-3.0768
X6.1083Y-2.315
X6.1772Y-2.2697
X6.252Y-2.315
X6.3819Y-2.8839
X6.3907Y-3.0866
X6.4449Y-3.878
X6.5374Y-2.5718
X6.6299Y-3.878
X6.7657Y-2.7854
X6.8937Y-3.8819
X7.0787Y-3.8819
X7.2126Y-4.2047
X7.2224Y-1.7677
X7.2717Y-4.2795
X7.3031Y-1.7028
X7.3189Y-1.8661
X7.3189Y-2.1122
X7.3218Y-4.205
X7.502Y-1.7028
X7.5512Y-3.8071
X7.5512Y-4.2677
X7.5768Y-1.7815
X7.5866Y-4.0906
X7.5896Y-1.9931
X7.5984Y-1.9213
X8.0588Y-3.9737
X8.0669Y-4.1102
X8.0669Y-4.1693
X8.189Y-4.2205
X8.2032Y-2.0103
X8.2032Y-2.1275
X8.2047Y-1.8976
X8.3031Y-2.4764
X8.3291Y-4.0194
X8.3543Y-2.5118
X8.376Y-3.872
X8.4016Y-3.6496
X8.4149Y-4.0284
X8.4488Y-3.9469
X9.5215Y-3.7503
X9.5215Y-3.8133
X9.5215Y-3.8763
X9.5685Y-3.8453
X9.5695Y-3.7813
T6
X9.3268Y-2.3268
X9.3268Y-2.4252
X7.8661Y-1.8504
X7.8661Y-1.9488
T7
X9.0079Y-2.7496
X9.0079Y-2.8496
X9.0079Y-2.9496
X9.0079Y-3.0496
X9.0079Y-3.1496
X9.1079Y-2.6996
X9.1079Y-2.7996
X9.1079Y-2.8996
X9.1079Y-2.9996
X9.1079Y-3.0996
T8
X5.8031Y-2.4685
X5.8031Y-2.7451
X5.8041Y-2.6102
X5.9449Y-2.6102
X7.1969Y-3.9961
X7.3622Y-3.6417
X7.3622Y-3.7126
X7.3622Y-3.7874
X7.3622Y-3.9567
X7.4843Y-2.1102
X7.5Y-4.1654
X8.4094Y-1.9961
X8.4803Y-1.9961
X8.5551Y-1.9961
X8.9134Y-1.8425
X8.9134Y-1.9134
X8.9862Y-2.435
X9.5404Y-2.4695
X9.6102Y-2.3858
X9.5177Y-2.6638
X9.5177Y-2.7638
X9.5177Y-3.0858
X9.5177Y-3.1858
X5.7087Y-3.4134
X5.7087Y-4.0039
T9
X5.1189Y-4.4213
X5.3189Y-4.4213
X5.5189Y-4.4213
X5.7189Y-4.4213
X5.9189Y-4.4213
X6.1189Y-4.4213
X6.3189Y-4.4213
X6.5189Y-4.4213
X6.7189Y-4.4213
X6.9189Y-4.4213
X7.1189Y-4.4213
X7.3189Y-4.4213
X7.7567Y-4.4213
X7.9567Y-4.4213
X8.1567Y-4.4213
X8.3567Y-4.4213
X8.7386Y-4.4252
X8.9386Y-4.4252
X9.1386Y-4.4252
X9.3386Y-4.4252
X5.1181Y-1.5197
X5.3181Y-1.5197
X5.5181Y-1.5197
X5.7181Y-1.5197
X5.9181Y-1.5197
X6.1181Y-1.5197
X6.3181Y-1.5197
X6.5181Y-1.5197
X6.7181Y-1.5197
X6.9181Y-1.5197
X7.1181Y-1.5197
X7.3181Y-1.5197
X5.0Y-2.0236
X5.0Y-2.2236
X5.0Y-2.4236
X5.0Y-2.6236
X4.9961Y-3.2835
X4.9961Y-3.4835
X4.9961Y-3.6835
X4.9961Y-3.8835
X8.7441Y-1.5197
X8.9441Y-1.5197
X9.1441Y-1.5197
X9.3441Y-1.5197
X7.7362Y-1.5197
X7.9362Y-1.5197
X8.1362Y-1.5197
X8.3362Y-1.5197
T10
X7.122Y-2.3543
X7.3858Y-2.3533
X7.6427Y-2.2559
X7.657Y-2.4883
X7.798Y-3.81
X7.8228Y-4.2805
X7.8268Y-4.0354
X8.0506Y-4.0401
T12
X9.2378Y-2.6197
X9.2378Y-3.2299
T5
G00X9.7441Y-3.6693
M15
G01X9.6969Y-3.6693
M16
G05
G00X9.7441Y-3.9563
M15
G01X9.6969Y-3.9563
M16
G05
T11
G00X9.252Y-2.0866
M15
G01X9.252Y-2.0079
M16
G05
G00X9.4094Y-1.8622
M15
G01X9.3307Y-1.8622
M16
G05
G00X9.4882Y-2.0866
M15
G01X9.4882Y-2.0079
M16
G05
T0
M30
