G04 #@! TF.GenerationSoftware,KiCad,Pcbnew,5.1.7-a382d34a8~88~ubuntu20.04.1*
G04 #@! TF.CreationDate,2021-01-03T10:10:37-06:00*
G04 #@! TF.ProjectId,access-controller,61636365-7373-42d6-936f-6e74726f6c6c,rev?*
G04 #@! TF.SameCoordinates,Original*
G04 #@! TF.FileFunction,Soldermask,Top*
G04 #@! TF.FilePolarity,Negative*
%FSLAX46Y46*%
G04 Gerber Fmt 4.6, Leading zero omitted, Abs format (unit mm)*
G04 Created by KiCad (PCBNEW 5.1.7-a382d34a8~88~ubuntu20.04.1) date 2021-01-03 10:10:37*
%MOMM*%
%LPD*%
G01*
G04 APERTURE LIST*
%ADD10C,2.400000*%
%ADD11C,2.200000*%
%ADD12C,3.600000*%
%ADD13C,3.400000*%
%ADD14O,3.300000X2.100000*%
%ADD15O,1.700000X1.400000*%
%ADD16C,5.400000*%
%ADD17C,2.000000*%
%ADD18O,2.200000X4.000000*%
%ADD19O,4.000000X2.200000*%
%ADD20C,2.150000*%
%ADD21C,1.400000*%
%ADD22C,1.900000*%
%ADD23C,1.200000*%
%ADD24C,0.900000*%
%ADD25C,1.000000*%
%ADD26C,0.800000*%
G04 APERTURE END LIST*
G36*
G01*
X220887500Y-79550000D02*
X221212500Y-79550000D01*
G75*
G02*
X221375000Y-79712500I0J-162500D01*
G01*
X221375000Y-80612500D01*
G75*
G02*
X221212500Y-80775000I-162500J0D01*
G01*
X220887500Y-80775000D01*
G75*
G02*
X220725000Y-80612500I0J162500D01*
G01*
X220725000Y-79712500D01*
G75*
G02*
X220887500Y-79550000I162500J0D01*
G01*
G37*
G36*
G01*
X220387500Y-79550000D02*
X220712500Y-79550000D01*
G75*
G02*
X220875000Y-79712500I0J-162500D01*
G01*
X220875000Y-80612500D01*
G75*
G02*
X220712500Y-80775000I-162500J0D01*
G01*
X220387500Y-80775000D01*
G75*
G02*
X220225000Y-80612500I0J162500D01*
G01*
X220225000Y-79712500D01*
G75*
G02*
X220387500Y-79550000I162500J0D01*
G01*
G37*
G36*
G01*
X219887500Y-79550000D02*
X220212500Y-79550000D01*
G75*
G02*
X220375000Y-79712500I0J-162500D01*
G01*
X220375000Y-80612500D01*
G75*
G02*
X220212500Y-80775000I-162500J0D01*
G01*
X219887500Y-80775000D01*
G75*
G02*
X219725000Y-80612500I0J162500D01*
G01*
X219725000Y-79712500D01*
G75*
G02*
X219887500Y-79550000I162500J0D01*
G01*
G37*
G36*
G01*
X219387500Y-79550000D02*
X219712500Y-79550000D01*
G75*
G02*
X219875000Y-79712500I0J-162500D01*
G01*
X219875000Y-80612500D01*
G75*
G02*
X219712500Y-80775000I-162500J0D01*
G01*
X219387500Y-80775000D01*
G75*
G02*
X219225000Y-80612500I0J162500D01*
G01*
X219225000Y-79712500D01*
G75*
G02*
X219387500Y-79550000I162500J0D01*
G01*
G37*
G36*
G01*
X218887500Y-79550000D02*
X219212500Y-79550000D01*
G75*
G02*
X219375000Y-79712500I0J-162500D01*
G01*
X219375000Y-80612500D01*
G75*
G02*
X219212500Y-80775000I-162500J0D01*
G01*
X218887500Y-80775000D01*
G75*
G02*
X218725000Y-80612500I0J162500D01*
G01*
X218725000Y-79712500D01*
G75*
G02*
X218887500Y-79550000I162500J0D01*
G01*
G37*
G36*
G01*
X218387500Y-79550000D02*
X218712500Y-79550000D01*
G75*
G02*
X218875000Y-79712500I0J-162500D01*
G01*
X218875000Y-80612500D01*
G75*
G02*
X218712500Y-80775000I-162500J0D01*
G01*
X218387500Y-80775000D01*
G75*
G02*
X218225000Y-80612500I0J162500D01*
G01*
X218225000Y-79712500D01*
G75*
G02*
X218387500Y-79550000I162500J0D01*
G01*
G37*
G36*
G01*
X217412500Y-80525000D02*
X218312500Y-80525000D01*
G75*
G02*
X218475000Y-80687500I0J-162500D01*
G01*
X218475000Y-81012500D01*
G75*
G02*
X218312500Y-81175000I-162500J0D01*
G01*
X217412500Y-81175000D01*
G75*
G02*
X217250000Y-81012500I0J162500D01*
G01*
X217250000Y-80687500D01*
G75*
G02*
X217412500Y-80525000I162500J0D01*
G01*
G37*
G36*
G01*
X217412500Y-81025000D02*
X218312500Y-81025000D01*
G75*
G02*
X218475000Y-81187500I0J-162500D01*
G01*
X218475000Y-81512500D01*
G75*
G02*
X218312500Y-81675000I-162500J0D01*
G01*
X217412500Y-81675000D01*
G75*
G02*
X217250000Y-81512500I0J162500D01*
G01*
X217250000Y-81187500D01*
G75*
G02*
X217412500Y-81025000I162500J0D01*
G01*
G37*
G36*
G01*
X217412500Y-81525000D02*
X218312500Y-81525000D01*
G75*
G02*
X218475000Y-81687500I0J-162500D01*
G01*
X218475000Y-82012500D01*
G75*
G02*
X218312500Y-82175000I-162500J0D01*
G01*
X217412500Y-82175000D01*
G75*
G02*
X217250000Y-82012500I0J162500D01*
G01*
X217250000Y-81687500D01*
G75*
G02*
X217412500Y-81525000I162500J0D01*
G01*
G37*
G36*
G01*
X217412500Y-82025000D02*
X218312500Y-82025000D01*
G75*
G02*
X218475000Y-82187500I0J-162500D01*
G01*
X218475000Y-82512500D01*
G75*
G02*
X218312500Y-82675000I-162500J0D01*
G01*
X217412500Y-82675000D01*
G75*
G02*
X217250000Y-82512500I0J162500D01*
G01*
X217250000Y-82187500D01*
G75*
G02*
X217412500Y-82025000I162500J0D01*
G01*
G37*
G36*
G01*
X217412500Y-82525000D02*
X218312500Y-82525000D01*
G75*
G02*
X218475000Y-82687500I0J-162500D01*
G01*
X218475000Y-83012500D01*
G75*
G02*
X218312500Y-83175000I-162500J0D01*
G01*
X217412500Y-83175000D01*
G75*
G02*
X217250000Y-83012500I0J162500D01*
G01*
X217250000Y-82687500D01*
G75*
G02*
X217412500Y-82525000I162500J0D01*
G01*
G37*
G36*
G01*
X217412500Y-83025000D02*
X218312500Y-83025000D01*
G75*
G02*
X218475000Y-83187500I0J-162500D01*
G01*
X218475000Y-83512500D01*
G75*
G02*
X218312500Y-83675000I-162500J0D01*
G01*
X217412500Y-83675000D01*
G75*
G02*
X217250000Y-83512500I0J162500D01*
G01*
X217250000Y-83187500D01*
G75*
G02*
X217412500Y-83025000I162500J0D01*
G01*
G37*
G36*
G01*
X218387500Y-83425000D02*
X218712500Y-83425000D01*
G75*
G02*
X218875000Y-83587500I0J-162500D01*
G01*
X218875000Y-84487500D01*
G75*
G02*
X218712500Y-84650000I-162500J0D01*
G01*
X218387500Y-84650000D01*
G75*
G02*
X218225000Y-84487500I0J162500D01*
G01*
X218225000Y-83587500D01*
G75*
G02*
X218387500Y-83425000I162500J0D01*
G01*
G37*
G36*
G01*
X218887500Y-83425000D02*
X219212500Y-83425000D01*
G75*
G02*
X219375000Y-83587500I0J-162500D01*
G01*
X219375000Y-84487500D01*
G75*
G02*
X219212500Y-84650000I-162500J0D01*
G01*
X218887500Y-84650000D01*
G75*
G02*
X218725000Y-84487500I0J162500D01*
G01*
X218725000Y-83587500D01*
G75*
G02*
X218887500Y-83425000I162500J0D01*
G01*
G37*
G36*
G01*
X219387500Y-83425000D02*
X219712500Y-83425000D01*
G75*
G02*
X219875000Y-83587500I0J-162500D01*
G01*
X219875000Y-84487500D01*
G75*
G02*
X219712500Y-84650000I-162500J0D01*
G01*
X219387500Y-84650000D01*
G75*
G02*
X219225000Y-84487500I0J162500D01*
G01*
X219225000Y-83587500D01*
G75*
G02*
X219387500Y-83425000I162500J0D01*
G01*
G37*
G36*
G01*
X219887500Y-83425000D02*
X220212500Y-83425000D01*
G75*
G02*
X220375000Y-83587500I0J-162500D01*
G01*
X220375000Y-84487500D01*
G75*
G02*
X220212500Y-84650000I-162500J0D01*
G01*
X219887500Y-84650000D01*
G75*
G02*
X219725000Y-84487500I0J162500D01*
G01*
X219725000Y-83587500D01*
G75*
G02*
X219887500Y-83425000I162500J0D01*
G01*
G37*
G36*
G01*
X220387500Y-83425000D02*
X220712500Y-83425000D01*
G75*
G02*
X220875000Y-83587500I0J-162500D01*
G01*
X220875000Y-84487500D01*
G75*
G02*
X220712500Y-84650000I-162500J0D01*
G01*
X220387500Y-84650000D01*
G75*
G02*
X220225000Y-84487500I0J162500D01*
G01*
X220225000Y-83587500D01*
G75*
G02*
X220387500Y-83425000I162500J0D01*
G01*
G37*
G36*
G01*
X220887500Y-83425000D02*
X221212500Y-83425000D01*
G75*
G02*
X221375000Y-83587500I0J-162500D01*
G01*
X221375000Y-84487500D01*
G75*
G02*
X221212500Y-84650000I-162500J0D01*
G01*
X220887500Y-84650000D01*
G75*
G02*
X220725000Y-84487500I0J162500D01*
G01*
X220725000Y-83587500D01*
G75*
G02*
X220887500Y-83425000I162500J0D01*
G01*
G37*
G36*
G01*
X221287500Y-83025000D02*
X222187500Y-83025000D01*
G75*
G02*
X222350000Y-83187500I0J-162500D01*
G01*
X222350000Y-83512500D01*
G75*
G02*
X222187500Y-83675000I-162500J0D01*
G01*
X221287500Y-83675000D01*
G75*
G02*
X221125000Y-83512500I0J162500D01*
G01*
X221125000Y-83187500D01*
G75*
G02*
X221287500Y-83025000I162500J0D01*
G01*
G37*
G36*
G01*
X221287500Y-82525000D02*
X222187500Y-82525000D01*
G75*
G02*
X222350000Y-82687500I0J-162500D01*
G01*
X222350000Y-83012500D01*
G75*
G02*
X222187500Y-83175000I-162500J0D01*
G01*
X221287500Y-83175000D01*
G75*
G02*
X221125000Y-83012500I0J162500D01*
G01*
X221125000Y-82687500D01*
G75*
G02*
X221287500Y-82525000I162500J0D01*
G01*
G37*
G36*
G01*
X221287500Y-82025000D02*
X222187500Y-82025000D01*
G75*
G02*
X222350000Y-82187500I0J-162500D01*
G01*
X222350000Y-82512500D01*
G75*
G02*
X222187500Y-82675000I-162500J0D01*
G01*
X221287500Y-82675000D01*
G75*
G02*
X221125000Y-82512500I0J162500D01*
G01*
X221125000Y-82187500D01*
G75*
G02*
X221287500Y-82025000I162500J0D01*
G01*
G37*
G36*
G01*
X221287500Y-81525000D02*
X222187500Y-81525000D01*
G75*
G02*
X222350000Y-81687500I0J-162500D01*
G01*
X222350000Y-82012500D01*
G75*
G02*
X222187500Y-82175000I-162500J0D01*
G01*
X221287500Y-82175000D01*
G75*
G02*
X221125000Y-82012500I0J162500D01*
G01*
X221125000Y-81687500D01*
G75*
G02*
X221287500Y-81525000I162500J0D01*
G01*
G37*
G36*
G01*
X221287500Y-81025000D02*
X222187500Y-81025000D01*
G75*
G02*
X222350000Y-81187500I0J-162500D01*
G01*
X222350000Y-81512500D01*
G75*
G02*
X222187500Y-81675000I-162500J0D01*
G01*
X221287500Y-81675000D01*
G75*
G02*
X221125000Y-81512500I0J162500D01*
G01*
X221125000Y-81187500D01*
G75*
G02*
X221287500Y-81025000I162500J0D01*
G01*
G37*
G36*
G01*
X221287500Y-80525000D02*
X222187500Y-80525000D01*
G75*
G02*
X222350000Y-80687500I0J-162500D01*
G01*
X222350000Y-81012500D01*
G75*
G02*
X222187500Y-81175000I-162500J0D01*
G01*
X221287500Y-81175000D01*
G75*
G02*
X221125000Y-81012500I0J162500D01*
G01*
X221125000Y-80687500D01*
G75*
G02*
X221287500Y-80525000I162500J0D01*
G01*
G37*
G36*
G01*
X218500000Y-80600000D02*
X221100000Y-80600000D01*
G75*
G02*
X221300000Y-80800000I0J-200000D01*
G01*
X221300000Y-83400000D01*
G75*
G02*
X221100000Y-83600000I-200000J0D01*
G01*
X218500000Y-83600000D01*
G75*
G02*
X218300000Y-83400000I0J200000D01*
G01*
X218300000Y-80800000D01*
G75*
G02*
X218500000Y-80600000I200000J0D01*
G01*
G37*
G36*
G01*
X223940000Y-81542500D02*
X224460000Y-81542500D01*
G75*
G02*
X224720000Y-81802500I0J-260000D01*
G01*
X224720000Y-82397500D01*
G75*
G02*
X224460000Y-82657500I-260000J0D01*
G01*
X223940000Y-82657500D01*
G75*
G02*
X223680000Y-82397500I0J260000D01*
G01*
X223680000Y-81802500D01*
G75*
G02*
X223940000Y-81542500I260000J0D01*
G01*
G37*
G36*
G01*
X223940000Y-82737500D02*
X224460000Y-82737500D01*
G75*
G02*
X224720000Y-82997500I0J-260000D01*
G01*
X224720000Y-83592500D01*
G75*
G02*
X224460000Y-83852500I-260000J0D01*
G01*
X223940000Y-83852500D01*
G75*
G02*
X223680000Y-83592500I0J260000D01*
G01*
X223680000Y-82997500D01*
G75*
G02*
X223940000Y-82737500I260000J0D01*
G01*
G37*
G36*
G01*
X229700000Y-81100000D02*
X227900000Y-81100000D01*
G75*
G02*
X227700000Y-80900000I0J200000D01*
G01*
X227700000Y-79100000D01*
G75*
G02*
X227900000Y-78900000I200000J0D01*
G01*
X229700000Y-78900000D01*
G75*
G02*
X229900000Y-79100000I0J-200000D01*
G01*
X229900000Y-80900000D01*
G75*
G02*
X229700000Y-81100000I-200000J0D01*
G01*
G37*
D10*
X241750000Y-80920000D03*
D11*
X231340000Y-78730000D03*
X228800000Y-77460000D03*
X231340000Y-76190000D03*
X228800000Y-74920000D03*
X231340000Y-73650000D03*
X228800000Y-72380000D03*
X228800000Y-69840000D03*
X231340000Y-68570000D03*
D10*
X241750000Y-78380000D03*
X241750000Y-70200000D03*
X241750000Y-67660000D03*
D12*
X237690000Y-80000000D03*
X237690000Y-68570000D03*
D13*
X234640000Y-82040000D03*
X234640000Y-66540000D03*
D11*
X231340000Y-71110000D03*
G36*
G01*
X240450000Y-46450000D02*
X240450000Y-48150000D01*
G75*
G02*
X239600000Y-49000000I-850000J0D01*
G01*
X236400000Y-49000000D01*
G75*
G02*
X235550000Y-48150000I0J850000D01*
G01*
X235550000Y-46450000D01*
G75*
G02*
X236400000Y-45600000I850000J0D01*
G01*
X239600000Y-45600000D01*
G75*
G02*
X240450000Y-46450000I0J-850000D01*
G01*
G37*
G36*
G01*
X242700000Y-50400000D02*
X242700000Y-53600000D01*
G75*
G02*
X241850000Y-54450000I-850000J0D01*
G01*
X240150000Y-54450000D01*
G75*
G02*
X239300000Y-53600000I0J850000D01*
G01*
X239300000Y-50400000D01*
G75*
G02*
X240150000Y-49550000I850000J0D01*
G01*
X241850000Y-49550000D01*
G75*
G02*
X242700000Y-50400000I0J-850000D01*
G01*
G37*
G36*
G01*
X236700000Y-50400000D02*
X236700000Y-53600000D01*
G75*
G02*
X235850000Y-54450000I-850000J0D01*
G01*
X234150000Y-54450000D01*
G75*
G02*
X233300000Y-53600000I0J850000D01*
G01*
X233300000Y-50400000D01*
G75*
G02*
X234150000Y-49550000I850000J0D01*
G01*
X235850000Y-49550000D01*
G75*
G02*
X236700000Y-50400000I0J-850000D01*
G01*
G37*
D14*
X246900000Y-100489800D03*
X246900000Y-93200000D03*
D15*
X241845400Y-96857600D03*
X243064600Y-96044800D03*
X243039200Y-97670400D03*
X241845400Y-98457800D03*
X241845400Y-95257400D03*
D16*
X122700000Y-118800000D03*
X245700000Y-118800000D03*
X245700000Y-35800000D03*
X122700000Y-35800000D03*
G36*
G01*
X207400000Y-109437500D02*
X207400000Y-108762500D01*
G75*
G02*
X207737500Y-108425000I337500J0D01*
G01*
X208537500Y-108425000D01*
G75*
G02*
X208875000Y-108762500I0J-337500D01*
G01*
X208875000Y-109437500D01*
G75*
G02*
X208537500Y-109775000I-337500J0D01*
G01*
X207737500Y-109775000D01*
G75*
G02*
X207400000Y-109437500I0J337500D01*
G01*
G37*
G36*
G01*
X209125000Y-109437500D02*
X209125000Y-108762500D01*
G75*
G02*
X209462500Y-108425000I337500J0D01*
G01*
X210262500Y-108425000D01*
G75*
G02*
X210600000Y-108762500I0J-337500D01*
G01*
X210600000Y-109437500D01*
G75*
G02*
X210262500Y-109775000I-337500J0D01*
G01*
X209462500Y-109775000D01*
G75*
G02*
X209125000Y-109437500I0J337500D01*
G01*
G37*
G36*
G01*
X211619443Y-98925000D02*
X213780557Y-98925000D01*
G75*
G02*
X214075000Y-99219443I0J-294443D01*
G01*
X214075000Y-101280557D01*
G75*
G02*
X213780557Y-101575000I-294443J0D01*
G01*
X211619443Y-101575000D01*
G75*
G02*
X211325000Y-101280557I0J294443D01*
G01*
X211325000Y-99219443D01*
G75*
G02*
X211619443Y-98925000I294443J0D01*
G01*
G37*
G36*
G01*
X211619443Y-104025000D02*
X213780557Y-104025000D01*
G75*
G02*
X214075000Y-104319443I0J-294443D01*
G01*
X214075000Y-106380557D01*
G75*
G02*
X213780557Y-106675000I-294443J0D01*
G01*
X211619443Y-106675000D01*
G75*
G02*
X211325000Y-106380557I0J294443D01*
G01*
X211325000Y-104319443D01*
G75*
G02*
X211619443Y-104025000I294443J0D01*
G01*
G37*
G36*
G01*
X194587500Y-49575000D02*
X193912500Y-49575000D01*
G75*
G02*
X193575000Y-49237500I0J337500D01*
G01*
X193575000Y-48437500D01*
G75*
G02*
X193912500Y-48100000I337500J0D01*
G01*
X194587500Y-48100000D01*
G75*
G02*
X194925000Y-48437500I0J-337500D01*
G01*
X194925000Y-49237500D01*
G75*
G02*
X194587500Y-49575000I-337500J0D01*
G01*
G37*
G36*
G01*
X194587500Y-51300000D02*
X193912500Y-51300000D01*
G75*
G02*
X193575000Y-50962500I0J337500D01*
G01*
X193575000Y-50162500D01*
G75*
G02*
X193912500Y-49825000I337500J0D01*
G01*
X194587500Y-49825000D01*
G75*
G02*
X194925000Y-50162500I0J-337500D01*
G01*
X194925000Y-50962500D01*
G75*
G02*
X194587500Y-51300000I-337500J0D01*
G01*
G37*
G36*
G01*
X191462500Y-104700000D02*
X192137500Y-104700000D01*
G75*
G02*
X192475000Y-105037500I0J-337500D01*
G01*
X192475000Y-105837500D01*
G75*
G02*
X192137500Y-106175000I-337500J0D01*
G01*
X191462500Y-106175000D01*
G75*
G02*
X191125000Y-105837500I0J337500D01*
G01*
X191125000Y-105037500D01*
G75*
G02*
X191462500Y-104700000I337500J0D01*
G01*
G37*
G36*
G01*
X191462500Y-106425000D02*
X192137500Y-106425000D01*
G75*
G02*
X192475000Y-106762500I0J-337500D01*
G01*
X192475000Y-107562500D01*
G75*
G02*
X192137500Y-107900000I-337500J0D01*
G01*
X191462500Y-107900000D01*
G75*
G02*
X191125000Y-107562500I0J337500D01*
G01*
X191125000Y-106762500D01*
G75*
G02*
X191462500Y-106425000I337500J0D01*
G01*
G37*
G36*
G01*
X192137500Y-98775000D02*
X191462500Y-98775000D01*
G75*
G02*
X191125000Y-98437500I0J337500D01*
G01*
X191125000Y-97637500D01*
G75*
G02*
X191462500Y-97300000I337500J0D01*
G01*
X192137500Y-97300000D01*
G75*
G02*
X192475000Y-97637500I0J-337500D01*
G01*
X192475000Y-98437500D01*
G75*
G02*
X192137500Y-98775000I-337500J0D01*
G01*
G37*
G36*
G01*
X192137500Y-100500000D02*
X191462500Y-100500000D01*
G75*
G02*
X191125000Y-100162500I0J337500D01*
G01*
X191125000Y-99362500D01*
G75*
G02*
X191462500Y-99025000I337500J0D01*
G01*
X192137500Y-99025000D01*
G75*
G02*
X192475000Y-99362500I0J-337500D01*
G01*
X192475000Y-100162500D01*
G75*
G02*
X192137500Y-100500000I-337500J0D01*
G01*
G37*
G36*
G01*
X189225000Y-46380557D02*
X189225000Y-44219443D01*
G75*
G02*
X189519443Y-43925000I294443J0D01*
G01*
X191580557Y-43925000D01*
G75*
G02*
X191875000Y-44219443I0J-294443D01*
G01*
X191875000Y-46380557D01*
G75*
G02*
X191580557Y-46675000I-294443J0D01*
G01*
X189519443Y-46675000D01*
G75*
G02*
X189225000Y-46380557I0J294443D01*
G01*
G37*
G36*
G01*
X184125000Y-46380557D02*
X184125000Y-44219443D01*
G75*
G02*
X184419443Y-43925000I294443J0D01*
G01*
X186480557Y-43925000D01*
G75*
G02*
X186775000Y-44219443I0J-294443D01*
G01*
X186775000Y-46380557D01*
G75*
G02*
X186480557Y-46675000I-294443J0D01*
G01*
X184419443Y-46675000D01*
G75*
G02*
X184125000Y-46380557I0J294443D01*
G01*
G37*
G36*
G01*
X231455000Y-91235000D02*
X230945000Y-91235000D01*
G75*
G02*
X230690000Y-90980000I0J255000D01*
G01*
X230690000Y-90355000D01*
G75*
G02*
X230945000Y-90100000I255000J0D01*
G01*
X231455000Y-90100000D01*
G75*
G02*
X231710000Y-90355000I0J-255000D01*
G01*
X231710000Y-90980000D01*
G75*
G02*
X231455000Y-91235000I-255000J0D01*
G01*
G37*
G36*
G01*
X231455000Y-90100000D02*
X230945000Y-90100000D01*
G75*
G02*
X230690000Y-89845000I0J255000D01*
G01*
X230690000Y-89220000D01*
G75*
G02*
X230945000Y-88965000I255000J0D01*
G01*
X231455000Y-88965000D01*
G75*
G02*
X231710000Y-89220000I0J-255000D01*
G01*
X231710000Y-89845000D01*
G75*
G02*
X231455000Y-90100000I-255000J0D01*
G01*
G37*
G36*
G01*
X238355000Y-90100000D02*
X237845000Y-90100000D01*
G75*
G02*
X237590000Y-89845000I0J255000D01*
G01*
X237590000Y-89220000D01*
G75*
G02*
X237845000Y-88965000I255000J0D01*
G01*
X238355000Y-88965000D01*
G75*
G02*
X238610000Y-89220000I0J-255000D01*
G01*
X238610000Y-89845000D01*
G75*
G02*
X238355000Y-90100000I-255000J0D01*
G01*
G37*
G36*
G01*
X238355000Y-91235000D02*
X237845000Y-91235000D01*
G75*
G02*
X237590000Y-90980000I0J255000D01*
G01*
X237590000Y-90355000D01*
G75*
G02*
X237845000Y-90100000I255000J0D01*
G01*
X238355000Y-90100000D01*
G75*
G02*
X238610000Y-90355000I0J-255000D01*
G01*
X238610000Y-90980000D01*
G75*
G02*
X238355000Y-91235000I-255000J0D01*
G01*
G37*
G36*
G01*
X241362500Y-102862500D02*
X242037500Y-102862500D01*
G75*
G02*
X242375000Y-103200000I0J-337500D01*
G01*
X242375000Y-104000000D01*
G75*
G02*
X242037500Y-104337500I-337500J0D01*
G01*
X241362500Y-104337500D01*
G75*
G02*
X241025000Y-104000000I0J337500D01*
G01*
X241025000Y-103200000D01*
G75*
G02*
X241362500Y-102862500I337500J0D01*
G01*
G37*
G36*
G01*
X241362500Y-101137500D02*
X242037500Y-101137500D01*
G75*
G02*
X242375000Y-101475000I0J-337500D01*
G01*
X242375000Y-102275000D01*
G75*
G02*
X242037500Y-102612500I-337500J0D01*
G01*
X241362500Y-102612500D01*
G75*
G02*
X241025000Y-102275000I0J337500D01*
G01*
X241025000Y-101475000D01*
G75*
G02*
X241362500Y-101137500I337500J0D01*
G01*
G37*
G36*
G01*
X209262500Y-49125469D02*
X209262500Y-50674531D01*
G75*
G02*
X208937031Y-51000000I-325469J0D01*
G01*
X207862969Y-51000000D01*
G75*
G02*
X207537500Y-50674531I0J325469D01*
G01*
X207537500Y-49125469D01*
G75*
G02*
X207862969Y-48800000I325469J0D01*
G01*
X208937031Y-48800000D01*
G75*
G02*
X209262500Y-49125469I0J-325469D01*
G01*
G37*
G36*
G01*
X206137500Y-49125469D02*
X206137500Y-50674531D01*
G75*
G02*
X205812031Y-51000000I-325469J0D01*
G01*
X204737969Y-51000000D01*
G75*
G02*
X204412500Y-50674531I0J325469D01*
G01*
X204412500Y-49125469D01*
G75*
G02*
X204737969Y-48800000I325469J0D01*
G01*
X205812031Y-48800000D01*
G75*
G02*
X206137500Y-49125469I0J-325469D01*
G01*
G37*
G36*
G01*
X206100000Y-51525469D02*
X206100000Y-53074531D01*
G75*
G02*
X205774531Y-53400000I-325469J0D01*
G01*
X204700469Y-53400000D01*
G75*
G02*
X204375000Y-53074531I0J325469D01*
G01*
X204375000Y-51525469D01*
G75*
G02*
X204700469Y-51200000I325469J0D01*
G01*
X205774531Y-51200000D01*
G75*
G02*
X206100000Y-51525469I0J-325469D01*
G01*
G37*
G36*
G01*
X209225000Y-51525469D02*
X209225000Y-53074531D01*
G75*
G02*
X208899531Y-53400000I-325469J0D01*
G01*
X207825469Y-53400000D01*
G75*
G02*
X207500000Y-53074531I0J325469D01*
G01*
X207500000Y-51525469D01*
G75*
G02*
X207825469Y-51200000I325469J0D01*
G01*
X208899531Y-51200000D01*
G75*
G02*
X209225000Y-51525469I0J-325469D01*
G01*
G37*
G36*
G01*
X196355000Y-61402500D02*
X195845000Y-61402500D01*
G75*
G02*
X195590000Y-61147500I0J255000D01*
G01*
X195590000Y-60522500D01*
G75*
G02*
X195845000Y-60267500I255000J0D01*
G01*
X196355000Y-60267500D01*
G75*
G02*
X196610000Y-60522500I0J-255000D01*
G01*
X196610000Y-61147500D01*
G75*
G02*
X196355000Y-61402500I-255000J0D01*
G01*
G37*
G36*
G01*
X196355000Y-60267500D02*
X195845000Y-60267500D01*
G75*
G02*
X195590000Y-60012500I0J255000D01*
G01*
X195590000Y-59387500D01*
G75*
G02*
X195845000Y-59132500I255000J0D01*
G01*
X196355000Y-59132500D01*
G75*
G02*
X196610000Y-59387500I0J-255000D01*
G01*
X196610000Y-60012500D01*
G75*
G02*
X196355000Y-60267500I-255000J0D01*
G01*
G37*
D17*
X199800000Y-47000000D03*
G36*
G01*
X200600000Y-50500000D02*
X199000000Y-50500000D01*
G75*
G02*
X198800000Y-50300000I0J200000D01*
G01*
X198800000Y-48700000D01*
G75*
G02*
X199000000Y-48500000I200000J0D01*
G01*
X200600000Y-48500000D01*
G75*
G02*
X200800000Y-48700000I0J-200000D01*
G01*
X200800000Y-50300000D01*
G75*
G02*
X200600000Y-50500000I-200000J0D01*
G01*
G37*
G36*
G01*
X237700000Y-62600000D02*
X236100000Y-62600000D01*
G75*
G02*
X235900000Y-62400000I0J200000D01*
G01*
X235900000Y-60800000D01*
G75*
G02*
X236100000Y-60600000I200000J0D01*
G01*
X237700000Y-60600000D01*
G75*
G02*
X237900000Y-60800000I0J-200000D01*
G01*
X237900000Y-62400000D01*
G75*
G02*
X237700000Y-62600000I-200000J0D01*
G01*
G37*
X236900000Y-59100000D03*
G36*
G01*
X241710106Y-57775000D02*
X242889894Y-57775000D01*
G75*
G02*
X243225000Y-58110106I0J-335106D01*
G01*
X243225000Y-59014894D01*
G75*
G02*
X242889894Y-59350000I-335106J0D01*
G01*
X241710106Y-59350000D01*
G75*
G02*
X241375000Y-59014894I0J335106D01*
G01*
X241375000Y-58110106D01*
G75*
G02*
X241710106Y-57775000I335106J0D01*
G01*
G37*
G36*
G01*
X241710106Y-59850000D02*
X242889894Y-59850000D01*
G75*
G02*
X243225000Y-60185106I0J-335106D01*
G01*
X243225000Y-61089894D01*
G75*
G02*
X242889894Y-61425000I-335106J0D01*
G01*
X241710106Y-61425000D01*
G75*
G02*
X241375000Y-61089894I0J335106D01*
G01*
X241375000Y-60185106D01*
G75*
G02*
X241710106Y-59850000I335106J0D01*
G01*
G37*
G36*
G01*
X225574531Y-69387500D02*
X224025469Y-69387500D01*
G75*
G02*
X223700000Y-69062031I0J325469D01*
G01*
X223700000Y-67987969D01*
G75*
G02*
X224025469Y-67662500I325469J0D01*
G01*
X225574531Y-67662500D01*
G75*
G02*
X225900000Y-67987969I0J-325469D01*
G01*
X225900000Y-69062031D01*
G75*
G02*
X225574531Y-69387500I-325469J0D01*
G01*
G37*
G36*
G01*
X225574531Y-66262500D02*
X224025469Y-66262500D01*
G75*
G02*
X223700000Y-65937031I0J325469D01*
G01*
X223700000Y-64862969D01*
G75*
G02*
X224025469Y-64537500I325469J0D01*
G01*
X225574531Y-64537500D01*
G75*
G02*
X225900000Y-64862969I0J-325469D01*
G01*
X225900000Y-65937031D01*
G75*
G02*
X225574531Y-66262500I-325469J0D01*
G01*
G37*
G36*
G01*
X213637500Y-77362500D02*
X212962500Y-77362500D01*
G75*
G02*
X212625000Y-77025000I0J337500D01*
G01*
X212625000Y-76225000D01*
G75*
G02*
X212962500Y-75887500I337500J0D01*
G01*
X213637500Y-75887500D01*
G75*
G02*
X213975000Y-76225000I0J-337500D01*
G01*
X213975000Y-77025000D01*
G75*
G02*
X213637500Y-77362500I-337500J0D01*
G01*
G37*
G36*
G01*
X213637500Y-75637500D02*
X212962500Y-75637500D01*
G75*
G02*
X212625000Y-75300000I0J337500D01*
G01*
X212625000Y-74500000D01*
G75*
G02*
X212962500Y-74162500I337500J0D01*
G01*
X213637500Y-74162500D01*
G75*
G02*
X213975000Y-74500000I0J-337500D01*
G01*
X213975000Y-75300000D01*
G75*
G02*
X213637500Y-75637500I-337500J0D01*
G01*
G37*
G36*
G01*
X215675000Y-69462500D02*
X215675000Y-70137500D01*
G75*
G02*
X215337500Y-70475000I-337500J0D01*
G01*
X214537500Y-70475000D01*
G75*
G02*
X214200000Y-70137500I0J337500D01*
G01*
X214200000Y-69462500D01*
G75*
G02*
X214537500Y-69125000I337500J0D01*
G01*
X215337500Y-69125000D01*
G75*
G02*
X215675000Y-69462500I0J-337500D01*
G01*
G37*
G36*
G01*
X217400000Y-69462500D02*
X217400000Y-70137500D01*
G75*
G02*
X217062500Y-70475000I-337500J0D01*
G01*
X216262500Y-70475000D01*
G75*
G02*
X215925000Y-70137500I0J337500D01*
G01*
X215925000Y-69462500D01*
G75*
G02*
X216262500Y-69125000I337500J0D01*
G01*
X217062500Y-69125000D01*
G75*
G02*
X217400000Y-69462500I0J-337500D01*
G01*
G37*
G36*
G01*
X217262500Y-67862500D02*
X217262500Y-68537500D01*
G75*
G02*
X216925000Y-68875000I-337500J0D01*
G01*
X216125000Y-68875000D01*
G75*
G02*
X215787500Y-68537500I0J337500D01*
G01*
X215787500Y-67862500D01*
G75*
G02*
X216125000Y-67525000I337500J0D01*
G01*
X216925000Y-67525000D01*
G75*
G02*
X217262500Y-67862500I0J-337500D01*
G01*
G37*
G36*
G01*
X215537500Y-67862500D02*
X215537500Y-68537500D01*
G75*
G02*
X215200000Y-68875000I-337500J0D01*
G01*
X214400000Y-68875000D01*
G75*
G02*
X214062500Y-68537500I0J337500D01*
G01*
X214062500Y-67862500D01*
G75*
G02*
X214400000Y-67525000I337500J0D01*
G01*
X215200000Y-67525000D01*
G75*
G02*
X215537500Y-67862500I0J-337500D01*
G01*
G37*
G36*
G01*
X221067500Y-75955000D02*
X221067500Y-75445000D01*
G75*
G02*
X221322500Y-75190000I255000J0D01*
G01*
X221947500Y-75190000D01*
G75*
G02*
X222202500Y-75445000I0J-255000D01*
G01*
X222202500Y-75955000D01*
G75*
G02*
X221947500Y-76210000I-255000J0D01*
G01*
X221322500Y-76210000D01*
G75*
G02*
X221067500Y-75955000I0J255000D01*
G01*
G37*
G36*
G01*
X219932500Y-75955000D02*
X219932500Y-75445000D01*
G75*
G02*
X220187500Y-75190000I255000J0D01*
G01*
X220812500Y-75190000D01*
G75*
G02*
X221067500Y-75445000I0J-255000D01*
G01*
X221067500Y-75955000D01*
G75*
G02*
X220812500Y-76210000I-255000J0D01*
G01*
X220187500Y-76210000D01*
G75*
G02*
X219932500Y-75955000I0J255000D01*
G01*
G37*
G36*
G01*
X222650000Y-86562500D02*
X222650000Y-87237500D01*
G75*
G02*
X222312500Y-87575000I-337500J0D01*
G01*
X221512500Y-87575000D01*
G75*
G02*
X221175000Y-87237500I0J337500D01*
G01*
X221175000Y-86562500D01*
G75*
G02*
X221512500Y-86225000I337500J0D01*
G01*
X222312500Y-86225000D01*
G75*
G02*
X222650000Y-86562500I0J-337500D01*
G01*
G37*
G36*
G01*
X220925000Y-86562500D02*
X220925000Y-87237500D01*
G75*
G02*
X220587500Y-87575000I-337500J0D01*
G01*
X219787500Y-87575000D01*
G75*
G02*
X219450000Y-87237500I0J337500D01*
G01*
X219450000Y-86562500D01*
G75*
G02*
X219787500Y-86225000I337500J0D01*
G01*
X220587500Y-86225000D01*
G75*
G02*
X220925000Y-86562500I0J-337500D01*
G01*
G37*
G36*
G01*
X136037500Y-61200000D02*
X135362500Y-61200000D01*
G75*
G02*
X135025000Y-60862500I0J337500D01*
G01*
X135025000Y-60062500D01*
G75*
G02*
X135362500Y-59725000I337500J0D01*
G01*
X136037500Y-59725000D01*
G75*
G02*
X136375000Y-60062500I0J-337500D01*
G01*
X136375000Y-60862500D01*
G75*
G02*
X136037500Y-61200000I-337500J0D01*
G01*
G37*
G36*
G01*
X136037500Y-59475000D02*
X135362500Y-59475000D01*
G75*
G02*
X135025000Y-59137500I0J337500D01*
G01*
X135025000Y-58337500D01*
G75*
G02*
X135362500Y-58000000I337500J0D01*
G01*
X136037500Y-58000000D01*
G75*
G02*
X136375000Y-58337500I0J-337500D01*
G01*
X136375000Y-59137500D01*
G75*
G02*
X136037500Y-59475000I-337500J0D01*
G01*
G37*
G36*
G01*
X137737500Y-59475000D02*
X137062500Y-59475000D01*
G75*
G02*
X136725000Y-59137500I0J337500D01*
G01*
X136725000Y-58337500D01*
G75*
G02*
X137062500Y-58000000I337500J0D01*
G01*
X137737500Y-58000000D01*
G75*
G02*
X138075000Y-58337500I0J-337500D01*
G01*
X138075000Y-59137500D01*
G75*
G02*
X137737500Y-59475000I-337500J0D01*
G01*
G37*
G36*
G01*
X137737500Y-61200000D02*
X137062500Y-61200000D01*
G75*
G02*
X136725000Y-60862500I0J337500D01*
G01*
X136725000Y-60062500D01*
G75*
G02*
X137062500Y-59725000I337500J0D01*
G01*
X137737500Y-59725000D01*
G75*
G02*
X138075000Y-60062500I0J-337500D01*
G01*
X138075000Y-60862500D01*
G75*
G02*
X137737500Y-61200000I-337500J0D01*
G01*
G37*
G36*
G01*
X233750000Y-43450000D02*
X233750000Y-45750000D01*
G75*
G02*
X233550000Y-45950000I-200000J0D01*
G01*
X230050000Y-45950000D01*
G75*
G02*
X229850000Y-45750000I0J200000D01*
G01*
X229850000Y-43450000D01*
G75*
G02*
X230050000Y-43250000I200000J0D01*
G01*
X233550000Y-43250000D01*
G75*
G02*
X233750000Y-43450000I0J-200000D01*
G01*
G37*
G36*
G01*
X228350000Y-43450000D02*
X228350000Y-45750000D01*
G75*
G02*
X228150000Y-45950000I-200000J0D01*
G01*
X224650000Y-45950000D01*
G75*
G02*
X224450000Y-45750000I0J200000D01*
G01*
X224450000Y-43450000D01*
G75*
G02*
X224650000Y-43250000I200000J0D01*
G01*
X228150000Y-43250000D01*
G75*
G02*
X228350000Y-43450000I0J-200000D01*
G01*
G37*
G36*
G01*
X214129999Y-95567499D02*
X214129999Y-96242499D01*
G75*
G02*
X213792499Y-96579999I-337500J0D01*
G01*
X213017499Y-96579999D01*
G75*
G02*
X212679999Y-96242499I0J337500D01*
G01*
X212679999Y-95567499D01*
G75*
G02*
X213017499Y-95229999I337500J0D01*
G01*
X213792499Y-95229999D01*
G75*
G02*
X214129999Y-95567499I0J-337500D01*
G01*
G37*
G36*
G01*
X215879999Y-95567499D02*
X215879999Y-96242499D01*
G75*
G02*
X215542499Y-96579999I-337500J0D01*
G01*
X214767499Y-96579999D01*
G75*
G02*
X214429999Y-96242499I0J337500D01*
G01*
X214429999Y-95567499D01*
G75*
G02*
X214767499Y-95229999I337500J0D01*
G01*
X215542499Y-95229999D01*
G75*
G02*
X215879999Y-95567499I0J-337500D01*
G01*
G37*
G36*
G01*
X180712500Y-48250000D02*
X181387500Y-48250000D01*
G75*
G02*
X181725000Y-48587500I0J-337500D01*
G01*
X181725000Y-49362500D01*
G75*
G02*
X181387500Y-49700000I-337500J0D01*
G01*
X180712500Y-49700000D01*
G75*
G02*
X180375000Y-49362500I0J337500D01*
G01*
X180375000Y-48587500D01*
G75*
G02*
X180712500Y-48250000I337500J0D01*
G01*
G37*
G36*
G01*
X180712500Y-50000000D02*
X181387500Y-50000000D01*
G75*
G02*
X181725000Y-50337500I0J-337500D01*
G01*
X181725000Y-51112500D01*
G75*
G02*
X181387500Y-51450000I-337500J0D01*
G01*
X180712500Y-51450000D01*
G75*
G02*
X180375000Y-51112500I0J337500D01*
G01*
X180375000Y-50337500D01*
G75*
G02*
X180712500Y-50000000I337500J0D01*
G01*
G37*
G36*
G01*
X235450000Y-104000000D02*
X235450000Y-105000000D01*
G75*
G02*
X235250000Y-105200000I-200000J0D01*
G01*
X234250000Y-105200000D01*
G75*
G02*
X234050000Y-105000000I0J200000D01*
G01*
X234050000Y-104000000D01*
G75*
G02*
X234250000Y-103800000I200000J0D01*
G01*
X235250000Y-103800000D01*
G75*
G02*
X235450000Y-104000000I0J-200000D01*
G01*
G37*
G36*
G01*
X237950000Y-104000000D02*
X237950000Y-105000000D01*
G75*
G02*
X237750000Y-105200000I-200000J0D01*
G01*
X236750000Y-105200000D01*
G75*
G02*
X236550000Y-105000000I0J200000D01*
G01*
X236550000Y-104000000D01*
G75*
G02*
X236750000Y-103800000I200000J0D01*
G01*
X237750000Y-103800000D01*
G75*
G02*
X237950000Y-104000000I0J-200000D01*
G01*
G37*
G36*
G01*
X234050000Y-102800000D02*
X234050000Y-101800000D01*
G75*
G02*
X234250000Y-101600000I200000J0D01*
G01*
X235250000Y-101600000D01*
G75*
G02*
X235450000Y-101800000I0J-200000D01*
G01*
X235450000Y-102800000D01*
G75*
G02*
X235250000Y-103000000I-200000J0D01*
G01*
X234250000Y-103000000D01*
G75*
G02*
X234050000Y-102800000I0J200000D01*
G01*
G37*
G36*
G01*
X236550000Y-102800000D02*
X236550000Y-101800000D01*
G75*
G02*
X236750000Y-101600000I200000J0D01*
G01*
X237750000Y-101600000D01*
G75*
G02*
X237950000Y-101800000I0J-200000D01*
G01*
X237950000Y-102800000D01*
G75*
G02*
X237750000Y-103000000I-200000J0D01*
G01*
X236750000Y-103000000D01*
G75*
G02*
X236550000Y-102800000I0J200000D01*
G01*
G37*
G36*
G01*
X225850000Y-99100000D02*
X225850000Y-98300000D01*
G75*
G02*
X226050000Y-98100000I200000J0D01*
G01*
X226950000Y-98100000D01*
G75*
G02*
X227150000Y-98300000I0J-200000D01*
G01*
X227150000Y-99100000D01*
G75*
G02*
X226950000Y-99300000I-200000J0D01*
G01*
X226050000Y-99300000D01*
G75*
G02*
X225850000Y-99100000I0J200000D01*
G01*
G37*
G36*
G01*
X225850000Y-101000000D02*
X225850000Y-100200000D01*
G75*
G02*
X226050000Y-100000000I200000J0D01*
G01*
X226950000Y-100000000D01*
G75*
G02*
X227150000Y-100200000I0J-200000D01*
G01*
X227150000Y-101000000D01*
G75*
G02*
X226950000Y-101200000I-200000J0D01*
G01*
X226050000Y-101200000D01*
G75*
G02*
X225850000Y-101000000I0J200000D01*
G01*
G37*
G36*
G01*
X227850000Y-100050000D02*
X227850000Y-99250000D01*
G75*
G02*
X228050000Y-99050000I200000J0D01*
G01*
X228950000Y-99050000D01*
G75*
G02*
X229150000Y-99250000I0J-200000D01*
G01*
X229150000Y-100050000D01*
G75*
G02*
X228950000Y-100250000I-200000J0D01*
G01*
X228050000Y-100250000D01*
G75*
G02*
X227850000Y-100050000I0J200000D01*
G01*
G37*
G36*
G01*
X213550000Y-56650000D02*
X213550000Y-52150000D01*
G75*
G02*
X213750000Y-51950000I200000J0D01*
G01*
X217050000Y-51950000D01*
G75*
G02*
X217250000Y-52150000I0J-200000D01*
G01*
X217250000Y-56650000D01*
G75*
G02*
X217050000Y-56850000I-200000J0D01*
G01*
X213750000Y-56850000D01*
G75*
G02*
X213550000Y-56650000I0J200000D01*
G01*
G37*
G36*
G01*
X213550000Y-65450000D02*
X213550000Y-60950000D01*
G75*
G02*
X213750000Y-60750000I200000J0D01*
G01*
X217050000Y-60750000D01*
G75*
G02*
X217250000Y-60950000I0J-200000D01*
G01*
X217250000Y-65450000D01*
G75*
G02*
X217050000Y-65650000I-200000J0D01*
G01*
X213750000Y-65650000D01*
G75*
G02*
X213550000Y-65450000I0J200000D01*
G01*
G37*
G36*
G01*
X175900000Y-90537500D02*
X175900000Y-89862500D01*
G75*
G02*
X176237500Y-89525000I337500J0D01*
G01*
X177012500Y-89525000D01*
G75*
G02*
X177350000Y-89862500I0J-337500D01*
G01*
X177350000Y-90537500D01*
G75*
G02*
X177012500Y-90875000I-337500J0D01*
G01*
X176237500Y-90875000D01*
G75*
G02*
X175900000Y-90537500I0J337500D01*
G01*
G37*
G36*
G01*
X177650000Y-90537500D02*
X177650000Y-89862500D01*
G75*
G02*
X177987500Y-89525000I337500J0D01*
G01*
X178762500Y-89525000D01*
G75*
G02*
X179100000Y-89862500I0J-337500D01*
G01*
X179100000Y-90537500D01*
G75*
G02*
X178762500Y-90875000I-337500J0D01*
G01*
X177987500Y-90875000D01*
G75*
G02*
X177650000Y-90537500I0J337500D01*
G01*
G37*
G36*
G01*
X166050000Y-90637500D02*
X166050000Y-89962500D01*
G75*
G02*
X166387500Y-89625000I337500J0D01*
G01*
X167162500Y-89625000D01*
G75*
G02*
X167500000Y-89962500I0J-337500D01*
G01*
X167500000Y-90637500D01*
G75*
G02*
X167162500Y-90975000I-337500J0D01*
G01*
X166387500Y-90975000D01*
G75*
G02*
X166050000Y-90637500I0J337500D01*
G01*
G37*
G36*
G01*
X164300000Y-90637500D02*
X164300000Y-89962500D01*
G75*
G02*
X164637500Y-89625000I337500J0D01*
G01*
X165412500Y-89625000D01*
G75*
G02*
X165750000Y-89962500I0J-337500D01*
G01*
X165750000Y-90637500D01*
G75*
G02*
X165412500Y-90975000I-337500J0D01*
G01*
X164637500Y-90975000D01*
G75*
G02*
X164300000Y-90637500I0J337500D01*
G01*
G37*
G36*
G01*
X172545000Y-99200000D02*
X172545000Y-97900000D01*
G75*
G02*
X172745000Y-97700000I200000J0D01*
G01*
X174295000Y-97700000D01*
G75*
G02*
X174495000Y-97900000I0J-200000D01*
G01*
X174495000Y-99200000D01*
G75*
G02*
X174295000Y-99400000I-200000J0D01*
G01*
X172745000Y-99400000D01*
G75*
G02*
X172545000Y-99200000I0J200000D01*
G01*
G37*
G36*
G01*
X172545000Y-94700000D02*
X172545000Y-93400000D01*
G75*
G02*
X172745000Y-93200000I200000J0D01*
G01*
X174295000Y-93200000D01*
G75*
G02*
X174495000Y-93400000I0J-200000D01*
G01*
X174495000Y-94700000D01*
G75*
G02*
X174295000Y-94900000I-200000J0D01*
G01*
X172745000Y-94900000D01*
G75*
G02*
X172545000Y-94700000I0J200000D01*
G01*
G37*
G36*
G01*
X180505000Y-94700000D02*
X180505000Y-93400000D01*
G75*
G02*
X180705000Y-93200000I200000J0D01*
G01*
X182255000Y-93200000D01*
G75*
G02*
X182455000Y-93400000I0J-200000D01*
G01*
X182455000Y-94700000D01*
G75*
G02*
X182255000Y-94900000I-200000J0D01*
G01*
X180705000Y-94900000D01*
G75*
G02*
X180505000Y-94700000I0J200000D01*
G01*
G37*
G36*
G01*
X180505000Y-99200000D02*
X180505000Y-97900000D01*
G75*
G02*
X180705000Y-97700000I200000J0D01*
G01*
X182255000Y-97700000D01*
G75*
G02*
X182455000Y-97900000I0J-200000D01*
G01*
X182455000Y-99200000D01*
G75*
G02*
X182255000Y-99400000I-200000J0D01*
G01*
X180705000Y-99400000D01*
G75*
G02*
X180505000Y-99200000I0J200000D01*
G01*
G37*
G36*
G01*
X216250000Y-76100000D02*
X216250000Y-75300000D01*
G75*
G02*
X216450000Y-75100000I200000J0D01*
G01*
X217350000Y-75100000D01*
G75*
G02*
X217550000Y-75300000I0J-200000D01*
G01*
X217550000Y-76100000D01*
G75*
G02*
X217350000Y-76300000I-200000J0D01*
G01*
X216450000Y-76300000D01*
G75*
G02*
X216250000Y-76100000I0J200000D01*
G01*
G37*
G36*
G01*
X214250000Y-77050000D02*
X214250000Y-76250000D01*
G75*
G02*
X214450000Y-76050000I200000J0D01*
G01*
X215350000Y-76050000D01*
G75*
G02*
X215550000Y-76250000I0J-200000D01*
G01*
X215550000Y-77050000D01*
G75*
G02*
X215350000Y-77250000I-200000J0D01*
G01*
X214450000Y-77250000D01*
G75*
G02*
X214250000Y-77050000I0J200000D01*
G01*
G37*
G36*
G01*
X214250000Y-75150000D02*
X214250000Y-74350000D01*
G75*
G02*
X214450000Y-74150000I200000J0D01*
G01*
X215350000Y-74150000D01*
G75*
G02*
X215550000Y-74350000I0J-200000D01*
G01*
X215550000Y-75150000D01*
G75*
G02*
X215350000Y-75350000I-200000J0D01*
G01*
X214450000Y-75350000D01*
G75*
G02*
X214250000Y-75150000I0J200000D01*
G01*
G37*
G36*
G01*
X128920000Y-113994445D02*
X128920000Y-110605555D01*
G75*
G02*
X129225555Y-110300000I305555J0D01*
G01*
X130814445Y-110300000D01*
G75*
G02*
X131120000Y-110605555I0J-305555D01*
G01*
X131120000Y-113994445D01*
G75*
G02*
X130814445Y-114300000I-305555J0D01*
G01*
X129225555Y-114300000D01*
G75*
G02*
X128920000Y-113994445I0J305555D01*
G01*
G37*
D18*
X135100000Y-112300000D03*
X140180000Y-112300000D03*
X145260000Y-112300000D03*
X150340000Y-112300000D03*
X155420000Y-112300000D03*
X160500000Y-112300000D03*
X165580000Y-112300000D03*
X170660000Y-112300000D03*
X175740000Y-112300000D03*
X180820000Y-112300000D03*
X185900000Y-112300000D03*
X237200000Y-112400000D03*
X232120000Y-112400000D03*
X227040000Y-112400000D03*
G36*
G01*
X220860000Y-114094445D02*
X220860000Y-110705555D01*
G75*
G02*
X221165555Y-110400000I305555J0D01*
G01*
X222754445Y-110400000D01*
G75*
G02*
X223060000Y-110705555I0J-305555D01*
G01*
X223060000Y-114094445D01*
G75*
G02*
X222754445Y-114400000I-305555J0D01*
G01*
X221165555Y-114400000D01*
G75*
G02*
X220860000Y-114094445I0J305555D01*
G01*
G37*
G36*
G01*
X125305555Y-50300000D02*
X128694445Y-50300000D01*
G75*
G02*
X129000000Y-50605555I0J-305555D01*
G01*
X129000000Y-52194445D01*
G75*
G02*
X128694445Y-52500000I-305555J0D01*
G01*
X125305555Y-52500000D01*
G75*
G02*
X125000000Y-52194445I0J305555D01*
G01*
X125000000Y-50605555D01*
G75*
G02*
X125305555Y-50300000I305555J0D01*
G01*
G37*
D19*
X127000000Y-56480000D03*
X127000000Y-61560000D03*
X127000000Y-66640000D03*
G36*
G01*
X195920000Y-113994445D02*
X195920000Y-110605555D01*
G75*
G02*
X196225555Y-110300000I305555J0D01*
G01*
X197814445Y-110300000D01*
G75*
G02*
X198120000Y-110605555I0J-305555D01*
G01*
X198120000Y-113994445D01*
G75*
G02*
X197814445Y-114300000I-305555J0D01*
G01*
X196225555Y-114300000D01*
G75*
G02*
X195920000Y-113994445I0J305555D01*
G01*
G37*
D18*
X202100000Y-112300000D03*
X207180000Y-112300000D03*
X212260000Y-112300000D03*
G36*
G01*
X162700000Y-63640000D02*
X162700000Y-62640000D01*
G75*
G02*
X162900000Y-62440000I200000J0D01*
G01*
X166050000Y-62440000D01*
G75*
G02*
X166250000Y-62640000I0J-200000D01*
G01*
X166250000Y-63640000D01*
G75*
G02*
X166050000Y-63840000I-200000J0D01*
G01*
X162900000Y-63840000D01*
G75*
G02*
X162700000Y-63640000I0J200000D01*
G01*
G37*
G36*
G01*
X167750000Y-63640000D02*
X167750000Y-62640000D01*
G75*
G02*
X167950000Y-62440000I200000J0D01*
G01*
X171100000Y-62440000D01*
G75*
G02*
X171300000Y-62640000I0J-200000D01*
G01*
X171300000Y-63640000D01*
G75*
G02*
X171100000Y-63840000I-200000J0D01*
G01*
X167950000Y-63840000D01*
G75*
G02*
X167750000Y-63640000I0J200000D01*
G01*
G37*
G36*
G01*
X162700000Y-66180000D02*
X162700000Y-65180000D01*
G75*
G02*
X162900000Y-64980000I200000J0D01*
G01*
X166050000Y-64980000D01*
G75*
G02*
X166250000Y-65180000I0J-200000D01*
G01*
X166250000Y-66180000D01*
G75*
G02*
X166050000Y-66380000I-200000J0D01*
G01*
X162900000Y-66380000D01*
G75*
G02*
X162700000Y-66180000I0J200000D01*
G01*
G37*
G36*
G01*
X167750000Y-66180000D02*
X167750000Y-65180000D01*
G75*
G02*
X167950000Y-64980000I200000J0D01*
G01*
X171100000Y-64980000D01*
G75*
G02*
X171300000Y-65180000I0J-200000D01*
G01*
X171300000Y-66180000D01*
G75*
G02*
X171100000Y-66380000I-200000J0D01*
G01*
X167950000Y-66380000D01*
G75*
G02*
X167750000Y-66180000I0J200000D01*
G01*
G37*
G36*
G01*
X162700000Y-68720000D02*
X162700000Y-67720000D01*
G75*
G02*
X162900000Y-67520000I200000J0D01*
G01*
X166050000Y-67520000D01*
G75*
G02*
X166250000Y-67720000I0J-200000D01*
G01*
X166250000Y-68720000D01*
G75*
G02*
X166050000Y-68920000I-200000J0D01*
G01*
X162900000Y-68920000D01*
G75*
G02*
X162700000Y-68720000I0J200000D01*
G01*
G37*
G36*
G01*
X167750000Y-68720000D02*
X167750000Y-67720000D01*
G75*
G02*
X167950000Y-67520000I200000J0D01*
G01*
X171100000Y-67520000D01*
G75*
G02*
X171300000Y-67720000I0J-200000D01*
G01*
X171300000Y-68720000D01*
G75*
G02*
X171100000Y-68920000I-200000J0D01*
G01*
X167950000Y-68920000D01*
G75*
G02*
X167750000Y-68720000I0J200000D01*
G01*
G37*
G36*
G01*
X162700000Y-71260000D02*
X162700000Y-70260000D01*
G75*
G02*
X162900000Y-70060000I200000J0D01*
G01*
X166050000Y-70060000D01*
G75*
G02*
X166250000Y-70260000I0J-200000D01*
G01*
X166250000Y-71260000D01*
G75*
G02*
X166050000Y-71460000I-200000J0D01*
G01*
X162900000Y-71460000D01*
G75*
G02*
X162700000Y-71260000I0J200000D01*
G01*
G37*
G36*
G01*
X167750000Y-71260000D02*
X167750000Y-70260000D01*
G75*
G02*
X167950000Y-70060000I200000J0D01*
G01*
X171100000Y-70060000D01*
G75*
G02*
X171300000Y-70260000I0J-200000D01*
G01*
X171300000Y-71260000D01*
G75*
G02*
X171100000Y-71460000I-200000J0D01*
G01*
X167950000Y-71460000D01*
G75*
G02*
X167750000Y-71260000I0J200000D01*
G01*
G37*
G36*
G01*
X162700000Y-73800000D02*
X162700000Y-72800000D01*
G75*
G02*
X162900000Y-72600000I200000J0D01*
G01*
X166050000Y-72600000D01*
G75*
G02*
X166250000Y-72800000I0J-200000D01*
G01*
X166250000Y-73800000D01*
G75*
G02*
X166050000Y-74000000I-200000J0D01*
G01*
X162900000Y-74000000D01*
G75*
G02*
X162700000Y-73800000I0J200000D01*
G01*
G37*
G36*
G01*
X167750000Y-73800000D02*
X167750000Y-72800000D01*
G75*
G02*
X167950000Y-72600000I200000J0D01*
G01*
X171100000Y-72600000D01*
G75*
G02*
X171300000Y-72800000I0J-200000D01*
G01*
X171300000Y-73800000D01*
G75*
G02*
X171100000Y-74000000I-200000J0D01*
G01*
X167950000Y-74000000D01*
G75*
G02*
X167750000Y-73800000I0J200000D01*
G01*
G37*
G36*
G01*
X162700000Y-76340000D02*
X162700000Y-75340000D01*
G75*
G02*
X162900000Y-75140000I200000J0D01*
G01*
X166050000Y-75140000D01*
G75*
G02*
X166250000Y-75340000I0J-200000D01*
G01*
X166250000Y-76340000D01*
G75*
G02*
X166050000Y-76540000I-200000J0D01*
G01*
X162900000Y-76540000D01*
G75*
G02*
X162700000Y-76340000I0J200000D01*
G01*
G37*
G36*
G01*
X167750000Y-76340000D02*
X167750000Y-75340000D01*
G75*
G02*
X167950000Y-75140000I200000J0D01*
G01*
X171100000Y-75140000D01*
G75*
G02*
X171300000Y-75340000I0J-200000D01*
G01*
X171300000Y-76340000D01*
G75*
G02*
X171100000Y-76540000I-200000J0D01*
G01*
X167950000Y-76540000D01*
G75*
G02*
X167750000Y-76340000I0J200000D01*
G01*
G37*
G36*
G01*
X162700000Y-78880000D02*
X162700000Y-77880000D01*
G75*
G02*
X162900000Y-77680000I200000J0D01*
G01*
X166050000Y-77680000D01*
G75*
G02*
X166250000Y-77880000I0J-200000D01*
G01*
X166250000Y-78880000D01*
G75*
G02*
X166050000Y-79080000I-200000J0D01*
G01*
X162900000Y-79080000D01*
G75*
G02*
X162700000Y-78880000I0J200000D01*
G01*
G37*
G36*
G01*
X167750000Y-78880000D02*
X167750000Y-77880000D01*
G75*
G02*
X167950000Y-77680000I200000J0D01*
G01*
X171100000Y-77680000D01*
G75*
G02*
X171300000Y-77880000I0J-200000D01*
G01*
X171300000Y-78880000D01*
G75*
G02*
X171100000Y-79080000I-200000J0D01*
G01*
X167950000Y-79080000D01*
G75*
G02*
X167750000Y-78880000I0J200000D01*
G01*
G37*
G36*
G01*
X162700000Y-81420000D02*
X162700000Y-80420000D01*
G75*
G02*
X162900000Y-80220000I200000J0D01*
G01*
X166050000Y-80220000D01*
G75*
G02*
X166250000Y-80420000I0J-200000D01*
G01*
X166250000Y-81420000D01*
G75*
G02*
X166050000Y-81620000I-200000J0D01*
G01*
X162900000Y-81620000D01*
G75*
G02*
X162700000Y-81420000I0J200000D01*
G01*
G37*
G36*
G01*
X167750000Y-81420000D02*
X167750000Y-80420000D01*
G75*
G02*
X167950000Y-80220000I200000J0D01*
G01*
X171100000Y-80220000D01*
G75*
G02*
X171300000Y-80420000I0J-200000D01*
G01*
X171300000Y-81420000D01*
G75*
G02*
X171100000Y-81620000I-200000J0D01*
G01*
X167950000Y-81620000D01*
G75*
G02*
X167750000Y-81420000I0J200000D01*
G01*
G37*
G36*
G01*
X162700000Y-83960000D02*
X162700000Y-82960000D01*
G75*
G02*
X162900000Y-82760000I200000J0D01*
G01*
X166050000Y-82760000D01*
G75*
G02*
X166250000Y-82960000I0J-200000D01*
G01*
X166250000Y-83960000D01*
G75*
G02*
X166050000Y-84160000I-200000J0D01*
G01*
X162900000Y-84160000D01*
G75*
G02*
X162700000Y-83960000I0J200000D01*
G01*
G37*
G36*
G01*
X167750000Y-83960000D02*
X167750000Y-82960000D01*
G75*
G02*
X167950000Y-82760000I200000J0D01*
G01*
X171100000Y-82760000D01*
G75*
G02*
X171300000Y-82960000I0J-200000D01*
G01*
X171300000Y-83960000D01*
G75*
G02*
X171100000Y-84160000I-200000J0D01*
G01*
X167950000Y-84160000D01*
G75*
G02*
X167750000Y-83960000I0J200000D01*
G01*
G37*
X130000000Y-38600000D03*
X135080000Y-38600000D03*
X140160000Y-38600000D03*
X145240000Y-38600000D03*
X150320000Y-38600000D03*
X155400000Y-38600000D03*
X160480000Y-38600000D03*
X165560000Y-38600000D03*
X170640000Y-38600000D03*
X175720000Y-38600000D03*
X180800000Y-38600000D03*
G36*
G01*
X186980000Y-36905555D02*
X186980000Y-40294445D01*
G75*
G02*
X186674445Y-40600000I-305555J0D01*
G01*
X185085555Y-40600000D01*
G75*
G02*
X184780000Y-40294445I0J305555D01*
G01*
X184780000Y-36905555D01*
G75*
G02*
X185085555Y-36600000I305555J0D01*
G01*
X186674445Y-36600000D01*
G75*
G02*
X186980000Y-36905555I0J-305555D01*
G01*
G37*
X222100000Y-38600000D03*
X227180000Y-38600000D03*
X232260000Y-38600000D03*
G36*
G01*
X238440000Y-36905555D02*
X238440000Y-40294445D01*
G75*
G02*
X238134445Y-40600000I-305555J0D01*
G01*
X236545555Y-40600000D01*
G75*
G02*
X236240000Y-40294445I0J305555D01*
G01*
X236240000Y-36905555D01*
G75*
G02*
X236545555Y-36600000I305555J0D01*
G01*
X238134445Y-36600000D01*
G75*
G02*
X238440000Y-36905555I0J-305555D01*
G01*
G37*
G36*
G01*
X125205555Y-82300000D02*
X128594445Y-82300000D01*
G75*
G02*
X128900000Y-82605555I0J-305555D01*
G01*
X128900000Y-84194445D01*
G75*
G02*
X128594445Y-84500000I-305555J0D01*
G01*
X125205555Y-84500000D01*
G75*
G02*
X124900000Y-84194445I0J305555D01*
G01*
X124900000Y-82605555D01*
G75*
G02*
X125205555Y-82300000I305555J0D01*
G01*
G37*
D19*
X126900000Y-88480000D03*
X126900000Y-93560000D03*
X126900000Y-98640000D03*
D18*
X196500000Y-38600000D03*
X201580000Y-38600000D03*
X206660000Y-38600000D03*
G36*
G01*
X212840000Y-36905555D02*
X212840000Y-40294445D01*
G75*
G02*
X212534445Y-40600000I-305555J0D01*
G01*
X210945555Y-40600000D01*
G75*
G02*
X210640000Y-40294445I0J305555D01*
G01*
X210640000Y-36905555D01*
G75*
G02*
X210945555Y-36600000I305555J0D01*
G01*
X212534445Y-36600000D01*
G75*
G02*
X212840000Y-36905555I0J-305555D01*
G01*
G37*
G36*
G01*
X219400000Y-58150000D02*
X219400000Y-52750000D01*
G75*
G02*
X219600000Y-52550000I200000J0D01*
G01*
X222500000Y-52550000D01*
G75*
G02*
X222700000Y-52750000I0J-200000D01*
G01*
X222700000Y-58150000D01*
G75*
G02*
X222500000Y-58350000I-200000J0D01*
G01*
X219600000Y-58350000D01*
G75*
G02*
X219400000Y-58150000I0J200000D01*
G01*
G37*
G36*
G01*
X229300000Y-58150000D02*
X229300000Y-52750000D01*
G75*
G02*
X229500000Y-52550000I200000J0D01*
G01*
X232400000Y-52550000D01*
G75*
G02*
X232600000Y-52750000I0J-200000D01*
G01*
X232600000Y-58150000D01*
G75*
G02*
X232400000Y-58350000I-200000J0D01*
G01*
X229500000Y-58350000D01*
G75*
G02*
X229300000Y-58150000I0J200000D01*
G01*
G37*
G36*
G01*
X229000000Y-63045236D02*
X229000000Y-64654764D01*
G75*
G02*
X228654764Y-65000000I-345236J0D01*
G01*
X227895236Y-65000000D01*
G75*
G02*
X227550000Y-64654764I0J345236D01*
G01*
X227550000Y-63045236D01*
G75*
G02*
X227895236Y-62700000I345236J0D01*
G01*
X228654764Y-62700000D01*
G75*
G02*
X229000000Y-63045236I0J-345236D01*
G01*
G37*
G36*
G01*
X232150000Y-63045236D02*
X232150000Y-64654764D01*
G75*
G02*
X231804764Y-65000000I-345236J0D01*
G01*
X231045236Y-65000000D01*
G75*
G02*
X230700000Y-64654764I0J345236D01*
G01*
X230700000Y-63045236D01*
G75*
G02*
X231045236Y-62700000I345236J0D01*
G01*
X231804764Y-62700000D01*
G75*
G02*
X232150000Y-63045236I0J-345236D01*
G01*
G37*
G36*
G01*
X222400000Y-67895236D02*
X222400000Y-69504764D01*
G75*
G02*
X222054764Y-69850000I-345236J0D01*
G01*
X221295236Y-69850000D01*
G75*
G02*
X220950000Y-69504764I0J345236D01*
G01*
X220950000Y-67895236D01*
G75*
G02*
X221295236Y-67550000I345236J0D01*
G01*
X222054764Y-67550000D01*
G75*
G02*
X222400000Y-67895236I0J-345236D01*
G01*
G37*
G36*
G01*
X219250000Y-67895236D02*
X219250000Y-69504764D01*
G75*
G02*
X218904764Y-69850000I-345236J0D01*
G01*
X218145236Y-69850000D01*
G75*
G02*
X217800000Y-69504764I0J345236D01*
G01*
X217800000Y-67895236D01*
G75*
G02*
X218145236Y-67550000I345236J0D01*
G01*
X218904764Y-67550000D01*
G75*
G02*
X219250000Y-67895236I0J-345236D01*
G01*
G37*
D20*
X145000000Y-86700000D03*
X145000000Y-101700000D03*
G36*
G01*
X169105000Y-99200000D02*
X169105000Y-97900000D01*
G75*
G02*
X169305000Y-97700000I200000J0D01*
G01*
X170855000Y-97700000D01*
G75*
G02*
X171055000Y-97900000I0J-200000D01*
G01*
X171055000Y-99200000D01*
G75*
G02*
X170855000Y-99400000I-200000J0D01*
G01*
X169305000Y-99400000D01*
G75*
G02*
X169105000Y-99200000I0J200000D01*
G01*
G37*
G36*
G01*
X169105000Y-94700000D02*
X169105000Y-93400000D01*
G75*
G02*
X169305000Y-93200000I200000J0D01*
G01*
X170855000Y-93200000D01*
G75*
G02*
X171055000Y-93400000I0J-200000D01*
G01*
X171055000Y-94700000D01*
G75*
G02*
X170855000Y-94900000I-200000J0D01*
G01*
X169305000Y-94900000D01*
G75*
G02*
X169105000Y-94700000I0J200000D01*
G01*
G37*
G36*
G01*
X161145000Y-94700000D02*
X161145000Y-93400000D01*
G75*
G02*
X161345000Y-93200000I200000J0D01*
G01*
X162895000Y-93200000D01*
G75*
G02*
X163095000Y-93400000I0J-200000D01*
G01*
X163095000Y-94700000D01*
G75*
G02*
X162895000Y-94900000I-200000J0D01*
G01*
X161345000Y-94900000D01*
G75*
G02*
X161145000Y-94700000I0J200000D01*
G01*
G37*
G36*
G01*
X161145000Y-99200000D02*
X161145000Y-97900000D01*
G75*
G02*
X161345000Y-97700000I200000J0D01*
G01*
X162895000Y-97700000D01*
G75*
G02*
X163095000Y-97900000I0J-200000D01*
G01*
X163095000Y-99200000D01*
G75*
G02*
X162895000Y-99400000I-200000J0D01*
G01*
X161345000Y-99400000D01*
G75*
G02*
X161145000Y-99200000I0J200000D01*
G01*
G37*
G36*
G01*
X223380000Y-100450000D02*
X223380000Y-100850000D01*
G75*
G02*
X223180000Y-101050000I-200000J0D01*
G01*
X221680000Y-101050000D01*
G75*
G02*
X221480000Y-100850000I0J200000D01*
G01*
X221480000Y-100450000D01*
G75*
G02*
X221680000Y-100250000I200000J0D01*
G01*
X223180000Y-100250000D01*
G75*
G02*
X223380000Y-100450000I0J-200000D01*
G01*
G37*
G36*
G01*
X223380000Y-99800000D02*
X223380000Y-100200000D01*
G75*
G02*
X223180000Y-100400000I-200000J0D01*
G01*
X221680000Y-100400000D01*
G75*
G02*
X221480000Y-100200000I0J200000D01*
G01*
X221480000Y-99800000D01*
G75*
G02*
X221680000Y-99600000I200000J0D01*
G01*
X223180000Y-99600000D01*
G75*
G02*
X223380000Y-99800000I0J-200000D01*
G01*
G37*
G36*
G01*
X223380000Y-99150000D02*
X223380000Y-99550000D01*
G75*
G02*
X223180000Y-99750000I-200000J0D01*
G01*
X221680000Y-99750000D01*
G75*
G02*
X221480000Y-99550000I0J200000D01*
G01*
X221480000Y-99150000D01*
G75*
G02*
X221680000Y-98950000I200000J0D01*
G01*
X223180000Y-98950000D01*
G75*
G02*
X223380000Y-99150000I0J-200000D01*
G01*
G37*
G36*
G01*
X220720000Y-99150000D02*
X220720000Y-99550000D01*
G75*
G02*
X220520000Y-99750000I-200000J0D01*
G01*
X219020000Y-99750000D01*
G75*
G02*
X218820000Y-99550000I0J200000D01*
G01*
X218820000Y-99150000D01*
G75*
G02*
X219020000Y-98950000I200000J0D01*
G01*
X220520000Y-98950000D01*
G75*
G02*
X220720000Y-99150000I0J-200000D01*
G01*
G37*
G36*
G01*
X220720000Y-99800000D02*
X220720000Y-100200000D01*
G75*
G02*
X220520000Y-100400000I-200000J0D01*
G01*
X219020000Y-100400000D01*
G75*
G02*
X218820000Y-100200000I0J200000D01*
G01*
X218820000Y-99800000D01*
G75*
G02*
X219020000Y-99600000I200000J0D01*
G01*
X220520000Y-99600000D01*
G75*
G02*
X220720000Y-99800000I0J-200000D01*
G01*
G37*
G36*
G01*
X220720000Y-100450000D02*
X220720000Y-100850000D01*
G75*
G02*
X220520000Y-101050000I-200000J0D01*
G01*
X219020000Y-101050000D01*
G75*
G02*
X218820000Y-100850000I0J200000D01*
G01*
X218820000Y-100450000D01*
G75*
G02*
X219020000Y-100250000I200000J0D01*
G01*
X220520000Y-100250000D01*
G75*
G02*
X220720000Y-100450000I0J-200000D01*
G01*
G37*
G36*
G01*
X225155000Y-101950000D02*
X225655000Y-101950000D01*
G75*
G02*
X225905000Y-102200000I0J-250000D01*
G01*
X225905000Y-104050000D01*
G75*
G02*
X225655000Y-104300000I-250000J0D01*
G01*
X225155000Y-104300000D01*
G75*
G02*
X224905000Y-104050000I0J250000D01*
G01*
X224905000Y-102200000D01*
G75*
G02*
X225155000Y-101950000I250000J0D01*
G01*
G37*
G36*
G01*
X223885000Y-101950000D02*
X224385000Y-101950000D01*
G75*
G02*
X224635000Y-102200000I0J-250000D01*
G01*
X224635000Y-104050000D01*
G75*
G02*
X224385000Y-104300000I-250000J0D01*
G01*
X223885000Y-104300000D01*
G75*
G02*
X223635000Y-104050000I0J250000D01*
G01*
X223635000Y-102200000D01*
G75*
G02*
X223885000Y-101950000I250000J0D01*
G01*
G37*
G36*
G01*
X222615000Y-101950000D02*
X223115000Y-101950000D01*
G75*
G02*
X223365000Y-102200000I0J-250000D01*
G01*
X223365000Y-104050000D01*
G75*
G02*
X223115000Y-104300000I-250000J0D01*
G01*
X222615000Y-104300000D01*
G75*
G02*
X222365000Y-104050000I0J250000D01*
G01*
X222365000Y-102200000D01*
G75*
G02*
X222615000Y-101950000I250000J0D01*
G01*
G37*
G36*
G01*
X221345000Y-101950000D02*
X221845000Y-101950000D01*
G75*
G02*
X222095000Y-102200000I0J-250000D01*
G01*
X222095000Y-104050000D01*
G75*
G02*
X221845000Y-104300000I-250000J0D01*
G01*
X221345000Y-104300000D01*
G75*
G02*
X221095000Y-104050000I0J250000D01*
G01*
X221095000Y-102200000D01*
G75*
G02*
X221345000Y-101950000I250000J0D01*
G01*
G37*
G36*
G01*
X221345000Y-106900000D02*
X221845000Y-106900000D01*
G75*
G02*
X222095000Y-107150000I0J-250000D01*
G01*
X222095000Y-109000000D01*
G75*
G02*
X221845000Y-109250000I-250000J0D01*
G01*
X221345000Y-109250000D01*
G75*
G02*
X221095000Y-109000000I0J250000D01*
G01*
X221095000Y-107150000D01*
G75*
G02*
X221345000Y-106900000I250000J0D01*
G01*
G37*
G36*
G01*
X222615000Y-106900000D02*
X223115000Y-106900000D01*
G75*
G02*
X223365000Y-107150000I0J-250000D01*
G01*
X223365000Y-109000000D01*
G75*
G02*
X223115000Y-109250000I-250000J0D01*
G01*
X222615000Y-109250000D01*
G75*
G02*
X222365000Y-109000000I0J250000D01*
G01*
X222365000Y-107150000D01*
G75*
G02*
X222615000Y-106900000I250000J0D01*
G01*
G37*
G36*
G01*
X223885000Y-106900000D02*
X224385000Y-106900000D01*
G75*
G02*
X224635000Y-107150000I0J-250000D01*
G01*
X224635000Y-109000000D01*
G75*
G02*
X224385000Y-109250000I-250000J0D01*
G01*
X223885000Y-109250000D01*
G75*
G02*
X223635000Y-109000000I0J250000D01*
G01*
X223635000Y-107150000D01*
G75*
G02*
X223885000Y-106900000I250000J0D01*
G01*
G37*
G36*
G01*
X225155000Y-106900000D02*
X225655000Y-106900000D01*
G75*
G02*
X225905000Y-107150000I0J-250000D01*
G01*
X225905000Y-109000000D01*
G75*
G02*
X225655000Y-109250000I-250000J0D01*
G01*
X225155000Y-109250000D01*
G75*
G02*
X224905000Y-109000000I0J250000D01*
G01*
X224905000Y-107150000D01*
G75*
G02*
X225155000Y-106900000I250000J0D01*
G01*
G37*
G36*
G01*
X212750000Y-44880000D02*
X213150000Y-44880000D01*
G75*
G02*
X213350000Y-45080000I0J-200000D01*
G01*
X213350000Y-46580000D01*
G75*
G02*
X213150000Y-46780000I-200000J0D01*
G01*
X212750000Y-46780000D01*
G75*
G02*
X212550000Y-46580000I0J200000D01*
G01*
X212550000Y-45080000D01*
G75*
G02*
X212750000Y-44880000I200000J0D01*
G01*
G37*
G36*
G01*
X212100000Y-44880000D02*
X212500000Y-44880000D01*
G75*
G02*
X212700000Y-45080000I0J-200000D01*
G01*
X212700000Y-46580000D01*
G75*
G02*
X212500000Y-46780000I-200000J0D01*
G01*
X212100000Y-46780000D01*
G75*
G02*
X211900000Y-46580000I0J200000D01*
G01*
X211900000Y-45080000D01*
G75*
G02*
X212100000Y-44880000I200000J0D01*
G01*
G37*
G36*
G01*
X211450000Y-44880000D02*
X211850000Y-44880000D01*
G75*
G02*
X212050000Y-45080000I0J-200000D01*
G01*
X212050000Y-46580000D01*
G75*
G02*
X211850000Y-46780000I-200000J0D01*
G01*
X211450000Y-46780000D01*
G75*
G02*
X211250000Y-46580000I0J200000D01*
G01*
X211250000Y-45080000D01*
G75*
G02*
X211450000Y-44880000I200000J0D01*
G01*
G37*
G36*
G01*
X211450000Y-42220000D02*
X211850000Y-42220000D01*
G75*
G02*
X212050000Y-42420000I0J-200000D01*
G01*
X212050000Y-43920000D01*
G75*
G02*
X211850000Y-44120000I-200000J0D01*
G01*
X211450000Y-44120000D01*
G75*
G02*
X211250000Y-43920000I0J200000D01*
G01*
X211250000Y-42420000D01*
G75*
G02*
X211450000Y-42220000I200000J0D01*
G01*
G37*
G36*
G01*
X212100000Y-42220000D02*
X212500000Y-42220000D01*
G75*
G02*
X212700000Y-42420000I0J-200000D01*
G01*
X212700000Y-43920000D01*
G75*
G02*
X212500000Y-44120000I-200000J0D01*
G01*
X212100000Y-44120000D01*
G75*
G02*
X211900000Y-43920000I0J200000D01*
G01*
X211900000Y-42420000D01*
G75*
G02*
X212100000Y-42220000I200000J0D01*
G01*
G37*
G36*
G01*
X212750000Y-42220000D02*
X213150000Y-42220000D01*
G75*
G02*
X213350000Y-42420000I0J-200000D01*
G01*
X213350000Y-43920000D01*
G75*
G02*
X213150000Y-44120000I-200000J0D01*
G01*
X212750000Y-44120000D01*
G75*
G02*
X212550000Y-43920000I0J200000D01*
G01*
X212550000Y-42420000D01*
G75*
G02*
X212750000Y-42220000I200000J0D01*
G01*
G37*
G36*
G01*
X215545000Y-43700000D02*
X215045000Y-43700000D01*
G75*
G02*
X214795000Y-43450000I0J250000D01*
G01*
X214795000Y-41600000D01*
G75*
G02*
X215045000Y-41350000I250000J0D01*
G01*
X215545000Y-41350000D01*
G75*
G02*
X215795000Y-41600000I0J-250000D01*
G01*
X215795000Y-43450000D01*
G75*
G02*
X215545000Y-43700000I-250000J0D01*
G01*
G37*
G36*
G01*
X216815000Y-43700000D02*
X216315000Y-43700000D01*
G75*
G02*
X216065000Y-43450000I0J250000D01*
G01*
X216065000Y-41600000D01*
G75*
G02*
X216315000Y-41350000I250000J0D01*
G01*
X216815000Y-41350000D01*
G75*
G02*
X217065000Y-41600000I0J-250000D01*
G01*
X217065000Y-43450000D01*
G75*
G02*
X216815000Y-43700000I-250000J0D01*
G01*
G37*
G36*
G01*
X218085000Y-43700000D02*
X217585000Y-43700000D01*
G75*
G02*
X217335000Y-43450000I0J250000D01*
G01*
X217335000Y-41600000D01*
G75*
G02*
X217585000Y-41350000I250000J0D01*
G01*
X218085000Y-41350000D01*
G75*
G02*
X218335000Y-41600000I0J-250000D01*
G01*
X218335000Y-43450000D01*
G75*
G02*
X218085000Y-43700000I-250000J0D01*
G01*
G37*
G36*
G01*
X219355000Y-43700000D02*
X218855000Y-43700000D01*
G75*
G02*
X218605000Y-43450000I0J250000D01*
G01*
X218605000Y-41600000D01*
G75*
G02*
X218855000Y-41350000I250000J0D01*
G01*
X219355000Y-41350000D01*
G75*
G02*
X219605000Y-41600000I0J-250000D01*
G01*
X219605000Y-43450000D01*
G75*
G02*
X219355000Y-43700000I-250000J0D01*
G01*
G37*
G36*
G01*
X219355000Y-48650000D02*
X218855000Y-48650000D01*
G75*
G02*
X218605000Y-48400000I0J250000D01*
G01*
X218605000Y-46550000D01*
G75*
G02*
X218855000Y-46300000I250000J0D01*
G01*
X219355000Y-46300000D01*
G75*
G02*
X219605000Y-46550000I0J-250000D01*
G01*
X219605000Y-48400000D01*
G75*
G02*
X219355000Y-48650000I-250000J0D01*
G01*
G37*
G36*
G01*
X218085000Y-48650000D02*
X217585000Y-48650000D01*
G75*
G02*
X217335000Y-48400000I0J250000D01*
G01*
X217335000Y-46550000D01*
G75*
G02*
X217585000Y-46300000I250000J0D01*
G01*
X218085000Y-46300000D01*
G75*
G02*
X218335000Y-46550000I0J-250000D01*
G01*
X218335000Y-48400000D01*
G75*
G02*
X218085000Y-48650000I-250000J0D01*
G01*
G37*
G36*
G01*
X216815000Y-48650000D02*
X216315000Y-48650000D01*
G75*
G02*
X216065000Y-48400000I0J250000D01*
G01*
X216065000Y-46550000D01*
G75*
G02*
X216315000Y-46300000I250000J0D01*
G01*
X216815000Y-46300000D01*
G75*
G02*
X217065000Y-46550000I0J-250000D01*
G01*
X217065000Y-48400000D01*
G75*
G02*
X216815000Y-48650000I-250000J0D01*
G01*
G37*
G36*
G01*
X215545000Y-48650000D02*
X215045000Y-48650000D01*
G75*
G02*
X214795000Y-48400000I0J250000D01*
G01*
X214795000Y-46550000D01*
G75*
G02*
X215045000Y-46300000I250000J0D01*
G01*
X215545000Y-46300000D01*
G75*
G02*
X215795000Y-46550000I0J-250000D01*
G01*
X215795000Y-48400000D01*
G75*
G02*
X215545000Y-48650000I-250000J0D01*
G01*
G37*
G36*
G01*
X232000000Y-90950000D02*
X232000000Y-89150000D01*
G75*
G02*
X232200000Y-88950000I200000J0D01*
G01*
X234300000Y-88950000D01*
G75*
G02*
X234500000Y-89150000I0J-200000D01*
G01*
X234500000Y-90950000D01*
G75*
G02*
X234300000Y-91150000I-200000J0D01*
G01*
X232200000Y-91150000D01*
G75*
G02*
X232000000Y-90950000I0J200000D01*
G01*
G37*
G36*
G01*
X234900000Y-90950000D02*
X234900000Y-89150000D01*
G75*
G02*
X235100000Y-88950000I200000J0D01*
G01*
X237200000Y-88950000D01*
G75*
G02*
X237400000Y-89150000I0J-200000D01*
G01*
X237400000Y-90950000D01*
G75*
G02*
X237200000Y-91150000I-200000J0D01*
G01*
X235100000Y-91150000D01*
G75*
G02*
X234900000Y-90950000I0J200000D01*
G01*
G37*
G36*
G01*
X234900000Y-88650000D02*
X234900000Y-86850000D01*
G75*
G02*
X235100000Y-86650000I200000J0D01*
G01*
X237200000Y-86650000D01*
G75*
G02*
X237400000Y-86850000I0J-200000D01*
G01*
X237400000Y-88650000D01*
G75*
G02*
X237200000Y-88850000I-200000J0D01*
G01*
X235100000Y-88850000D01*
G75*
G02*
X234900000Y-88650000I0J200000D01*
G01*
G37*
G36*
G01*
X232000000Y-88650000D02*
X232000000Y-86850000D01*
G75*
G02*
X232200000Y-86650000I200000J0D01*
G01*
X234300000Y-86650000D01*
G75*
G02*
X234500000Y-86850000I0J-200000D01*
G01*
X234500000Y-88650000D01*
G75*
G02*
X234300000Y-88850000I-200000J0D01*
G01*
X232200000Y-88850000D01*
G75*
G02*
X232000000Y-88650000I0J200000D01*
G01*
G37*
G36*
G01*
X227865001Y-96335001D02*
X227865001Y-95535001D01*
G75*
G02*
X228065001Y-95335001I200000J0D01*
G01*
X228965001Y-95335001D01*
G75*
G02*
X229165001Y-95535001I0J-200000D01*
G01*
X229165001Y-96335001D01*
G75*
G02*
X228965001Y-96535001I-200000J0D01*
G01*
X228065001Y-96535001D01*
G75*
G02*
X227865001Y-96335001I0J200000D01*
G01*
G37*
G36*
G01*
X225865001Y-97285001D02*
X225865001Y-96485001D01*
G75*
G02*
X226065001Y-96285001I200000J0D01*
G01*
X226965001Y-96285001D01*
G75*
G02*
X227165001Y-96485001I0J-200000D01*
G01*
X227165001Y-97285001D01*
G75*
G02*
X226965001Y-97485001I-200000J0D01*
G01*
X226065001Y-97485001D01*
G75*
G02*
X225865001Y-97285001I0J200000D01*
G01*
G37*
G36*
G01*
X225865001Y-95385001D02*
X225865001Y-94585001D01*
G75*
G02*
X226065001Y-94385001I200000J0D01*
G01*
X226965001Y-94385001D01*
G75*
G02*
X227165001Y-94585001I0J-200000D01*
G01*
X227165001Y-95385001D01*
G75*
G02*
X226965001Y-95585001I-200000J0D01*
G01*
X226065001Y-95585001D01*
G75*
G02*
X225865001Y-95385001I0J200000D01*
G01*
G37*
G36*
G01*
X225895001Y-91685001D02*
X225895001Y-90885001D01*
G75*
G02*
X226095001Y-90685001I200000J0D01*
G01*
X226995001Y-90685001D01*
G75*
G02*
X227195001Y-90885001I0J-200000D01*
G01*
X227195001Y-91685001D01*
G75*
G02*
X226995001Y-91885001I-200000J0D01*
G01*
X226095001Y-91885001D01*
G75*
G02*
X225895001Y-91685001I0J200000D01*
G01*
G37*
G36*
G01*
X225895001Y-93585001D02*
X225895001Y-92785001D01*
G75*
G02*
X226095001Y-92585001I200000J0D01*
G01*
X226995001Y-92585001D01*
G75*
G02*
X227195001Y-92785001I0J-200000D01*
G01*
X227195001Y-93585001D01*
G75*
G02*
X226995001Y-93785001I-200000J0D01*
G01*
X226095001Y-93785001D01*
G75*
G02*
X225895001Y-93585001I0J200000D01*
G01*
G37*
G36*
G01*
X227895001Y-92635001D02*
X227895001Y-91835001D01*
G75*
G02*
X228095001Y-91635001I200000J0D01*
G01*
X228995001Y-91635001D01*
G75*
G02*
X229195001Y-91835001I0J-200000D01*
G01*
X229195001Y-92635001D01*
G75*
G02*
X228995001Y-92835001I-200000J0D01*
G01*
X228095001Y-92835001D01*
G75*
G02*
X227895001Y-92635001I0J200000D01*
G01*
G37*
G36*
G01*
X209805001Y-70864999D02*
X209005001Y-70864999D01*
G75*
G02*
X208805001Y-70664999I0J200000D01*
G01*
X208805001Y-69764999D01*
G75*
G02*
X209005001Y-69564999I200000J0D01*
G01*
X209805001Y-69564999D01*
G75*
G02*
X210005001Y-69764999I0J-200000D01*
G01*
X210005001Y-70664999D01*
G75*
G02*
X209805001Y-70864999I-200000J0D01*
G01*
G37*
G36*
G01*
X211705001Y-70864999D02*
X210905001Y-70864999D01*
G75*
G02*
X210705001Y-70664999I0J200000D01*
G01*
X210705001Y-69764999D01*
G75*
G02*
X210905001Y-69564999I200000J0D01*
G01*
X211705001Y-69564999D01*
G75*
G02*
X211905001Y-69764999I0J-200000D01*
G01*
X211905001Y-70664999D01*
G75*
G02*
X211705001Y-70864999I-200000J0D01*
G01*
G37*
G36*
G01*
X210755001Y-68864999D02*
X209955001Y-68864999D01*
G75*
G02*
X209755001Y-68664999I0J200000D01*
G01*
X209755001Y-67764999D01*
G75*
G02*
X209955001Y-67564999I200000J0D01*
G01*
X210755001Y-67564999D01*
G75*
G02*
X210955001Y-67764999I0J-200000D01*
G01*
X210955001Y-68664999D01*
G75*
G02*
X210755001Y-68864999I-200000J0D01*
G01*
G37*
G36*
G01*
X136537500Y-78975000D02*
X135862500Y-78975000D01*
G75*
G02*
X135525000Y-78637500I0J337500D01*
G01*
X135525000Y-77937500D01*
G75*
G02*
X135862500Y-77600000I337500J0D01*
G01*
X136537500Y-77600000D01*
G75*
G02*
X136875000Y-77937500I0J-337500D01*
G01*
X136875000Y-78637500D01*
G75*
G02*
X136537500Y-78975000I-337500J0D01*
G01*
G37*
G36*
G01*
X136537500Y-80800000D02*
X135862500Y-80800000D01*
G75*
G02*
X135525000Y-80462500I0J337500D01*
G01*
X135525000Y-79762500D01*
G75*
G02*
X135862500Y-79425000I337500J0D01*
G01*
X136537500Y-79425000D01*
G75*
G02*
X136875000Y-79762500I0J-337500D01*
G01*
X136875000Y-80462500D01*
G75*
G02*
X136537500Y-80800000I-337500J0D01*
G01*
G37*
G36*
G01*
X222512500Y-97262500D02*
X222512500Y-97937500D01*
G75*
G02*
X222175000Y-98275000I-337500J0D01*
G01*
X221475000Y-98275000D01*
G75*
G02*
X221137500Y-97937500I0J337500D01*
G01*
X221137500Y-97262500D01*
G75*
G02*
X221475000Y-96925000I337500J0D01*
G01*
X222175000Y-96925000D01*
G75*
G02*
X222512500Y-97262500I0J-337500D01*
G01*
G37*
G36*
G01*
X220687500Y-97262500D02*
X220687500Y-97937500D01*
G75*
G02*
X220350000Y-98275000I-337500J0D01*
G01*
X219650000Y-98275000D01*
G75*
G02*
X219312500Y-97937500I0J337500D01*
G01*
X219312500Y-97262500D01*
G75*
G02*
X219650000Y-96925000I337500J0D01*
G01*
X220350000Y-96925000D01*
G75*
G02*
X220687500Y-97262500I0J-337500D01*
G01*
G37*
G36*
G01*
X217637500Y-100375000D02*
X216962500Y-100375000D01*
G75*
G02*
X216625000Y-100037500I0J337500D01*
G01*
X216625000Y-99337500D01*
G75*
G02*
X216962500Y-99000000I337500J0D01*
G01*
X217637500Y-99000000D01*
G75*
G02*
X217975000Y-99337500I0J-337500D01*
G01*
X217975000Y-100037500D01*
G75*
G02*
X217637500Y-100375000I-337500J0D01*
G01*
G37*
G36*
G01*
X217637500Y-102200000D02*
X216962500Y-102200000D01*
G75*
G02*
X216625000Y-101862500I0J337500D01*
G01*
X216625000Y-101162500D01*
G75*
G02*
X216962500Y-100825000I337500J0D01*
G01*
X217637500Y-100825000D01*
G75*
G02*
X217975000Y-101162500I0J-337500D01*
G01*
X217975000Y-101862500D01*
G75*
G02*
X217637500Y-102200000I-337500J0D01*
G01*
G37*
G36*
G01*
X218762500Y-102800000D02*
X219437500Y-102800000D01*
G75*
G02*
X219775000Y-103137500I0J-337500D01*
G01*
X219775000Y-103837500D01*
G75*
G02*
X219437500Y-104175000I-337500J0D01*
G01*
X218762500Y-104175000D01*
G75*
G02*
X218425000Y-103837500I0J337500D01*
G01*
X218425000Y-103137500D01*
G75*
G02*
X218762500Y-102800000I337500J0D01*
G01*
G37*
G36*
G01*
X218762500Y-104625000D02*
X219437500Y-104625000D01*
G75*
G02*
X219775000Y-104962500I0J-337500D01*
G01*
X219775000Y-105662500D01*
G75*
G02*
X219437500Y-106000000I-337500J0D01*
G01*
X218762500Y-106000000D01*
G75*
G02*
X218425000Y-105662500I0J337500D01*
G01*
X218425000Y-104962500D01*
G75*
G02*
X218762500Y-104625000I337500J0D01*
G01*
G37*
G36*
G01*
X216962500Y-104625000D02*
X217637500Y-104625000D01*
G75*
G02*
X217975000Y-104962500I0J-337500D01*
G01*
X217975000Y-105662500D01*
G75*
G02*
X217637500Y-106000000I-337500J0D01*
G01*
X216962500Y-106000000D01*
G75*
G02*
X216625000Y-105662500I0J337500D01*
G01*
X216625000Y-104962500D01*
G75*
G02*
X216962500Y-104625000I337500J0D01*
G01*
G37*
G36*
G01*
X216962500Y-102800000D02*
X217637500Y-102800000D01*
G75*
G02*
X217975000Y-103137500I0J-337500D01*
G01*
X217975000Y-103837500D01*
G75*
G02*
X217637500Y-104175000I-337500J0D01*
G01*
X216962500Y-104175000D01*
G75*
G02*
X216625000Y-103837500I0J337500D01*
G01*
X216625000Y-103137500D01*
G75*
G02*
X216962500Y-102800000I337500J0D01*
G01*
G37*
G36*
G01*
X209662500Y-42700000D02*
X210337500Y-42700000D01*
G75*
G02*
X210675000Y-43037500I0J-337500D01*
G01*
X210675000Y-43737500D01*
G75*
G02*
X210337500Y-44075000I-337500J0D01*
G01*
X209662500Y-44075000D01*
G75*
G02*
X209325000Y-43737500I0J337500D01*
G01*
X209325000Y-43037500D01*
G75*
G02*
X209662500Y-42700000I337500J0D01*
G01*
G37*
G36*
G01*
X209662500Y-44525000D02*
X210337500Y-44525000D01*
G75*
G02*
X210675000Y-44862500I0J-337500D01*
G01*
X210675000Y-45562500D01*
G75*
G02*
X210337500Y-45900000I-337500J0D01*
G01*
X209662500Y-45900000D01*
G75*
G02*
X209325000Y-45562500I0J337500D01*
G01*
X209325000Y-44862500D01*
G75*
G02*
X209662500Y-44525000I337500J0D01*
G01*
G37*
G36*
G01*
X212075000Y-47562500D02*
X212075000Y-48237500D01*
G75*
G02*
X211737500Y-48575000I-337500J0D01*
G01*
X211037500Y-48575000D01*
G75*
G02*
X210700000Y-48237500I0J337500D01*
G01*
X210700000Y-47562500D01*
G75*
G02*
X211037500Y-47225000I337500J0D01*
G01*
X211737500Y-47225000D01*
G75*
G02*
X212075000Y-47562500I0J-337500D01*
G01*
G37*
G36*
G01*
X213900000Y-47562500D02*
X213900000Y-48237500D01*
G75*
G02*
X213562500Y-48575000I-337500J0D01*
G01*
X212862500Y-48575000D01*
G75*
G02*
X212525000Y-48237500I0J337500D01*
G01*
X212525000Y-47562500D01*
G75*
G02*
X212862500Y-47225000I337500J0D01*
G01*
X213562500Y-47225000D01*
G75*
G02*
X213900000Y-47562500I0J-337500D01*
G01*
G37*
G36*
G01*
X221137500Y-48100000D02*
X220462500Y-48100000D01*
G75*
G02*
X220125000Y-47762500I0J337500D01*
G01*
X220125000Y-47062500D01*
G75*
G02*
X220462500Y-46725000I337500J0D01*
G01*
X221137500Y-46725000D01*
G75*
G02*
X221475000Y-47062500I0J-337500D01*
G01*
X221475000Y-47762500D01*
G75*
G02*
X221137500Y-48100000I-337500J0D01*
G01*
G37*
G36*
G01*
X221137500Y-46275000D02*
X220462500Y-46275000D01*
G75*
G02*
X220125000Y-45937500I0J337500D01*
G01*
X220125000Y-45237500D01*
G75*
G02*
X220462500Y-44900000I337500J0D01*
G01*
X221137500Y-44900000D01*
G75*
G02*
X221475000Y-45237500I0J-337500D01*
G01*
X221475000Y-45937500D01*
G75*
G02*
X221137500Y-46275000I-337500J0D01*
G01*
G37*
G36*
G01*
X220462500Y-43225000D02*
X221137500Y-43225000D01*
G75*
G02*
X221475000Y-43562500I0J-337500D01*
G01*
X221475000Y-44262500D01*
G75*
G02*
X221137500Y-44600000I-337500J0D01*
G01*
X220462500Y-44600000D01*
G75*
G02*
X220125000Y-44262500I0J337500D01*
G01*
X220125000Y-43562500D01*
G75*
G02*
X220462500Y-43225000I337500J0D01*
G01*
G37*
G36*
G01*
X220462500Y-41400000D02*
X221137500Y-41400000D01*
G75*
G02*
X221475000Y-41737500I0J-337500D01*
G01*
X221475000Y-42437500D01*
G75*
G02*
X221137500Y-42775000I-337500J0D01*
G01*
X220462500Y-42775000D01*
G75*
G02*
X220125000Y-42437500I0J337500D01*
G01*
X220125000Y-41737500D01*
G75*
G02*
X220462500Y-41400000I337500J0D01*
G01*
G37*
G36*
G01*
X205812500Y-92437500D02*
X205812500Y-91762500D01*
G75*
G02*
X206150000Y-91425000I337500J0D01*
G01*
X206850000Y-91425000D01*
G75*
G02*
X207187500Y-91762500I0J-337500D01*
G01*
X207187500Y-92437500D01*
G75*
G02*
X206850000Y-92775000I-337500J0D01*
G01*
X206150000Y-92775000D01*
G75*
G02*
X205812500Y-92437500I0J337500D01*
G01*
G37*
G36*
G01*
X207637500Y-92437500D02*
X207637500Y-91762500D01*
G75*
G02*
X207975000Y-91425000I337500J0D01*
G01*
X208675000Y-91425000D01*
G75*
G02*
X209012500Y-91762500I0J-337500D01*
G01*
X209012500Y-92437500D01*
G75*
G02*
X208675000Y-92775000I-337500J0D01*
G01*
X207975000Y-92775000D01*
G75*
G02*
X207637500Y-92437500I0J337500D01*
G01*
G37*
G36*
G01*
X207612500Y-90837500D02*
X207612500Y-90162500D01*
G75*
G02*
X207950000Y-89825000I337500J0D01*
G01*
X208650000Y-89825000D01*
G75*
G02*
X208987500Y-90162500I0J-337500D01*
G01*
X208987500Y-90837500D01*
G75*
G02*
X208650000Y-91175000I-337500J0D01*
G01*
X207950000Y-91175000D01*
G75*
G02*
X207612500Y-90837500I0J337500D01*
G01*
G37*
G36*
G01*
X205787500Y-90837500D02*
X205787500Y-90162500D01*
G75*
G02*
X206125000Y-89825000I337500J0D01*
G01*
X206825000Y-89825000D01*
G75*
G02*
X207162500Y-90162500I0J-337500D01*
G01*
X207162500Y-90837500D01*
G75*
G02*
X206825000Y-91175000I-337500J0D01*
G01*
X206125000Y-91175000D01*
G75*
G02*
X205787500Y-90837500I0J337500D01*
G01*
G37*
G36*
G01*
X207625000Y-89337500D02*
X207625000Y-88662500D01*
G75*
G02*
X207962500Y-88325000I337500J0D01*
G01*
X208662500Y-88325000D01*
G75*
G02*
X209000000Y-88662500I0J-337500D01*
G01*
X209000000Y-89337500D01*
G75*
G02*
X208662500Y-89675000I-337500J0D01*
G01*
X207962500Y-89675000D01*
G75*
G02*
X207625000Y-89337500I0J337500D01*
G01*
G37*
G36*
G01*
X205800000Y-89337500D02*
X205800000Y-88662500D01*
G75*
G02*
X206137500Y-88325000I337500J0D01*
G01*
X206837500Y-88325000D01*
G75*
G02*
X207175000Y-88662500I0J-337500D01*
G01*
X207175000Y-89337500D01*
G75*
G02*
X206837500Y-89675000I-337500J0D01*
G01*
X206137500Y-89675000D01*
G75*
G02*
X205800000Y-89337500I0J337500D01*
G01*
G37*
G36*
G01*
X205800000Y-87837500D02*
X205800000Y-87162500D01*
G75*
G02*
X206137500Y-86825000I337500J0D01*
G01*
X206837500Y-86825000D01*
G75*
G02*
X207175000Y-87162500I0J-337500D01*
G01*
X207175000Y-87837500D01*
G75*
G02*
X206837500Y-88175000I-337500J0D01*
G01*
X206137500Y-88175000D01*
G75*
G02*
X205800000Y-87837500I0J337500D01*
G01*
G37*
G36*
G01*
X207625000Y-87837500D02*
X207625000Y-87162500D01*
G75*
G02*
X207962500Y-86825000I337500J0D01*
G01*
X208662500Y-86825000D01*
G75*
G02*
X209000000Y-87162500I0J-337500D01*
G01*
X209000000Y-87837500D01*
G75*
G02*
X208662500Y-88175000I-337500J0D01*
G01*
X207962500Y-88175000D01*
G75*
G02*
X207625000Y-87837500I0J337500D01*
G01*
G37*
G36*
G01*
X194962500Y-88540000D02*
X194962500Y-89060000D01*
G75*
G02*
X194702500Y-89320000I-260000J0D01*
G01*
X194107500Y-89320000D01*
G75*
G02*
X193847500Y-89060000I0J260000D01*
G01*
X193847500Y-88540000D01*
G75*
G02*
X194107500Y-88280000I260000J0D01*
G01*
X194702500Y-88280000D01*
G75*
G02*
X194962500Y-88540000I0J-260000D01*
G01*
G37*
G36*
G01*
X196157500Y-88540000D02*
X196157500Y-89060000D01*
G75*
G02*
X195897500Y-89320000I-260000J0D01*
G01*
X195302500Y-89320000D01*
G75*
G02*
X195042500Y-89060000I0J260000D01*
G01*
X195042500Y-88540000D01*
G75*
G02*
X195302500Y-88280000I260000J0D01*
G01*
X195897500Y-88280000D01*
G75*
G02*
X196157500Y-88540000I0J-260000D01*
G01*
G37*
G36*
G01*
X196157500Y-89340000D02*
X196157500Y-89860000D01*
G75*
G02*
X195897500Y-90120000I-260000J0D01*
G01*
X195302500Y-90120000D01*
G75*
G02*
X195042500Y-89860000I0J260000D01*
G01*
X195042500Y-89340000D01*
G75*
G02*
X195302500Y-89080000I260000J0D01*
G01*
X195897500Y-89080000D01*
G75*
G02*
X196157500Y-89340000I0J-260000D01*
G01*
G37*
G36*
G01*
X194962500Y-89340000D02*
X194962500Y-89860000D01*
G75*
G02*
X194702500Y-90120000I-260000J0D01*
G01*
X194107500Y-90120000D01*
G75*
G02*
X193847500Y-89860000I0J260000D01*
G01*
X193847500Y-89340000D01*
G75*
G02*
X194107500Y-89080000I260000J0D01*
G01*
X194702500Y-89080000D01*
G75*
G02*
X194962500Y-89340000I0J-260000D01*
G01*
G37*
G36*
G01*
X194962500Y-87740000D02*
X194962500Y-88260000D01*
G75*
G02*
X194702500Y-88520000I-260000J0D01*
G01*
X194107500Y-88520000D01*
G75*
G02*
X193847500Y-88260000I0J260000D01*
G01*
X193847500Y-87740000D01*
G75*
G02*
X194107500Y-87480000I260000J0D01*
G01*
X194702500Y-87480000D01*
G75*
G02*
X194962500Y-87740000I0J-260000D01*
G01*
G37*
G36*
G01*
X196157500Y-87740000D02*
X196157500Y-88260000D01*
G75*
G02*
X195897500Y-88520000I-260000J0D01*
G01*
X195302500Y-88520000D01*
G75*
G02*
X195042500Y-88260000I0J260000D01*
G01*
X195042500Y-87740000D01*
G75*
G02*
X195302500Y-87480000I260000J0D01*
G01*
X195897500Y-87480000D01*
G75*
G02*
X196157500Y-87740000I0J-260000D01*
G01*
G37*
G36*
G01*
X194962500Y-86940000D02*
X194962500Y-87460000D01*
G75*
G02*
X194702500Y-87720000I-260000J0D01*
G01*
X194107500Y-87720000D01*
G75*
G02*
X193847500Y-87460000I0J260000D01*
G01*
X193847500Y-86940000D01*
G75*
G02*
X194107500Y-86680000I260000J0D01*
G01*
X194702500Y-86680000D01*
G75*
G02*
X194962500Y-86940000I0J-260000D01*
G01*
G37*
G36*
G01*
X196157500Y-86940000D02*
X196157500Y-87460000D01*
G75*
G02*
X195897500Y-87720000I-260000J0D01*
G01*
X195302500Y-87720000D01*
G75*
G02*
X195042500Y-87460000I0J260000D01*
G01*
X195042500Y-86940000D01*
G75*
G02*
X195302500Y-86680000I260000J0D01*
G01*
X195897500Y-86680000D01*
G75*
G02*
X196157500Y-86940000I0J-260000D01*
G01*
G37*
G36*
G01*
X133525000Y-71437500D02*
X133525000Y-70762500D01*
G75*
G02*
X133862500Y-70425000I337500J0D01*
G01*
X134562500Y-70425000D01*
G75*
G02*
X134900000Y-70762500I0J-337500D01*
G01*
X134900000Y-71437500D01*
G75*
G02*
X134562500Y-71775000I-337500J0D01*
G01*
X133862500Y-71775000D01*
G75*
G02*
X133525000Y-71437500I0J337500D01*
G01*
G37*
G36*
G01*
X131700000Y-71437500D02*
X131700000Y-70762500D01*
G75*
G02*
X132037500Y-70425000I337500J0D01*
G01*
X132737500Y-70425000D01*
G75*
G02*
X133075000Y-70762500I0J-337500D01*
G01*
X133075000Y-71437500D01*
G75*
G02*
X132737500Y-71775000I-337500J0D01*
G01*
X132037500Y-71775000D01*
G75*
G02*
X131700000Y-71437500I0J337500D01*
G01*
G37*
G36*
G01*
X131687500Y-69837500D02*
X131687500Y-69162500D01*
G75*
G02*
X132025000Y-68825000I337500J0D01*
G01*
X132725000Y-68825000D01*
G75*
G02*
X133062500Y-69162500I0J-337500D01*
G01*
X133062500Y-69837500D01*
G75*
G02*
X132725000Y-70175000I-337500J0D01*
G01*
X132025000Y-70175000D01*
G75*
G02*
X131687500Y-69837500I0J337500D01*
G01*
G37*
G36*
G01*
X133512500Y-69837500D02*
X133512500Y-69162500D01*
G75*
G02*
X133850000Y-68825000I337500J0D01*
G01*
X134550000Y-68825000D01*
G75*
G02*
X134887500Y-69162500I0J-337500D01*
G01*
X134887500Y-69837500D01*
G75*
G02*
X134550000Y-70175000I-337500J0D01*
G01*
X133850000Y-70175000D01*
G75*
G02*
X133512500Y-69837500I0J337500D01*
G01*
G37*
G36*
G01*
X133512500Y-68237500D02*
X133512500Y-67562500D01*
G75*
G02*
X133850000Y-67225000I337500J0D01*
G01*
X134550000Y-67225000D01*
G75*
G02*
X134887500Y-67562500I0J-337500D01*
G01*
X134887500Y-68237500D01*
G75*
G02*
X134550000Y-68575000I-337500J0D01*
G01*
X133850000Y-68575000D01*
G75*
G02*
X133512500Y-68237500I0J337500D01*
G01*
G37*
G36*
G01*
X131687500Y-68237500D02*
X131687500Y-67562500D01*
G75*
G02*
X132025000Y-67225000I337500J0D01*
G01*
X132725000Y-67225000D01*
G75*
G02*
X133062500Y-67562500I0J-337500D01*
G01*
X133062500Y-68237500D01*
G75*
G02*
X132725000Y-68575000I-337500J0D01*
G01*
X132025000Y-68575000D01*
G75*
G02*
X131687500Y-68237500I0J337500D01*
G01*
G37*
G36*
G01*
X131687500Y-66637500D02*
X131687500Y-65962500D01*
G75*
G02*
X132025000Y-65625000I337500J0D01*
G01*
X132725000Y-65625000D01*
G75*
G02*
X133062500Y-65962500I0J-337500D01*
G01*
X133062500Y-66637500D01*
G75*
G02*
X132725000Y-66975000I-337500J0D01*
G01*
X132025000Y-66975000D01*
G75*
G02*
X131687500Y-66637500I0J337500D01*
G01*
G37*
G36*
G01*
X133512500Y-66637500D02*
X133512500Y-65962500D01*
G75*
G02*
X133850000Y-65625000I337500J0D01*
G01*
X134550000Y-65625000D01*
G75*
G02*
X134887500Y-65962500I0J-337500D01*
G01*
X134887500Y-66637500D01*
G75*
G02*
X134550000Y-66975000I-337500J0D01*
G01*
X133850000Y-66975000D01*
G75*
G02*
X133512500Y-66637500I0J337500D01*
G01*
G37*
G36*
G01*
X131942500Y-81860000D02*
X131942500Y-81340000D01*
G75*
G02*
X132202500Y-81080000I260000J0D01*
G01*
X132797500Y-81080000D01*
G75*
G02*
X133057500Y-81340000I0J-260000D01*
G01*
X133057500Y-81860000D01*
G75*
G02*
X132797500Y-82120000I-260000J0D01*
G01*
X132202500Y-82120000D01*
G75*
G02*
X131942500Y-81860000I0J260000D01*
G01*
G37*
G36*
G01*
X133137500Y-81860000D02*
X133137500Y-81340000D01*
G75*
G02*
X133397500Y-81080000I260000J0D01*
G01*
X133992500Y-81080000D01*
G75*
G02*
X134252500Y-81340000I0J-260000D01*
G01*
X134252500Y-81860000D01*
G75*
G02*
X133992500Y-82120000I-260000J0D01*
G01*
X133397500Y-82120000D01*
G75*
G02*
X133137500Y-81860000I0J260000D01*
G01*
G37*
G36*
G01*
X131942500Y-81060000D02*
X131942500Y-80540000D01*
G75*
G02*
X132202500Y-80280000I260000J0D01*
G01*
X132797500Y-80280000D01*
G75*
G02*
X133057500Y-80540000I0J-260000D01*
G01*
X133057500Y-81060000D01*
G75*
G02*
X132797500Y-81320000I-260000J0D01*
G01*
X132202500Y-81320000D01*
G75*
G02*
X131942500Y-81060000I0J260000D01*
G01*
G37*
G36*
G01*
X133137500Y-81060000D02*
X133137500Y-80540000D01*
G75*
G02*
X133397500Y-80280000I260000J0D01*
G01*
X133992500Y-80280000D01*
G75*
G02*
X134252500Y-80540000I0J-260000D01*
G01*
X134252500Y-81060000D01*
G75*
G02*
X133992500Y-81320000I-260000J0D01*
G01*
X133397500Y-81320000D01*
G75*
G02*
X133137500Y-81060000I0J260000D01*
G01*
G37*
G36*
G01*
X133137500Y-79460000D02*
X133137500Y-78940000D01*
G75*
G02*
X133397500Y-78680000I260000J0D01*
G01*
X133992500Y-78680000D01*
G75*
G02*
X134252500Y-78940000I0J-260000D01*
G01*
X134252500Y-79460000D01*
G75*
G02*
X133992500Y-79720000I-260000J0D01*
G01*
X133397500Y-79720000D01*
G75*
G02*
X133137500Y-79460000I0J260000D01*
G01*
G37*
G36*
G01*
X131942500Y-79460000D02*
X131942500Y-78940000D01*
G75*
G02*
X132202500Y-78680000I260000J0D01*
G01*
X132797500Y-78680000D01*
G75*
G02*
X133057500Y-78940000I0J-260000D01*
G01*
X133057500Y-79460000D01*
G75*
G02*
X132797500Y-79720000I-260000J0D01*
G01*
X132202500Y-79720000D01*
G75*
G02*
X131942500Y-79460000I0J260000D01*
G01*
G37*
G36*
G01*
X131942500Y-80260000D02*
X131942500Y-79740000D01*
G75*
G02*
X132202500Y-79480000I260000J0D01*
G01*
X132797500Y-79480000D01*
G75*
G02*
X133057500Y-79740000I0J-260000D01*
G01*
X133057500Y-80260000D01*
G75*
G02*
X132797500Y-80520000I-260000J0D01*
G01*
X132202500Y-80520000D01*
G75*
G02*
X131942500Y-80260000I0J260000D01*
G01*
G37*
G36*
G01*
X133137500Y-80260000D02*
X133137500Y-79740000D01*
G75*
G02*
X133397500Y-79480000I260000J0D01*
G01*
X133992500Y-79480000D01*
G75*
G02*
X134252500Y-79740000I0J-260000D01*
G01*
X134252500Y-80260000D01*
G75*
G02*
X133992500Y-80520000I-260000J0D01*
G01*
X133397500Y-80520000D01*
G75*
G02*
X133137500Y-80260000I0J260000D01*
G01*
G37*
G36*
G01*
X165637500Y-47100000D02*
X164962500Y-47100000D01*
G75*
G02*
X164625000Y-46762500I0J337500D01*
G01*
X164625000Y-46062500D01*
G75*
G02*
X164962500Y-45725000I337500J0D01*
G01*
X165637500Y-45725000D01*
G75*
G02*
X165975000Y-46062500I0J-337500D01*
G01*
X165975000Y-46762500D01*
G75*
G02*
X165637500Y-47100000I-337500J0D01*
G01*
G37*
G36*
G01*
X165637500Y-45275000D02*
X164962500Y-45275000D01*
G75*
G02*
X164625000Y-44937500I0J337500D01*
G01*
X164625000Y-44237500D01*
G75*
G02*
X164962500Y-43900000I337500J0D01*
G01*
X165637500Y-43900000D01*
G75*
G02*
X165975000Y-44237500I0J-337500D01*
G01*
X165975000Y-44937500D01*
G75*
G02*
X165637500Y-45275000I-337500J0D01*
G01*
G37*
G36*
G01*
X163937500Y-45287500D02*
X163262500Y-45287500D01*
G75*
G02*
X162925000Y-44950000I0J337500D01*
G01*
X162925000Y-44250000D01*
G75*
G02*
X163262500Y-43912500I337500J0D01*
G01*
X163937500Y-43912500D01*
G75*
G02*
X164275000Y-44250000I0J-337500D01*
G01*
X164275000Y-44950000D01*
G75*
G02*
X163937500Y-45287500I-337500J0D01*
G01*
G37*
G36*
G01*
X163937500Y-47112500D02*
X163262500Y-47112500D01*
G75*
G02*
X162925000Y-46775000I0J337500D01*
G01*
X162925000Y-46075000D01*
G75*
G02*
X163262500Y-45737500I337500J0D01*
G01*
X163937500Y-45737500D01*
G75*
G02*
X164275000Y-46075000I0J-337500D01*
G01*
X164275000Y-46775000D01*
G75*
G02*
X163937500Y-47112500I-337500J0D01*
G01*
G37*
G36*
G01*
X165637500Y-51000000D02*
X164962500Y-51000000D01*
G75*
G02*
X164625000Y-50662500I0J337500D01*
G01*
X164625000Y-49962500D01*
G75*
G02*
X164962500Y-49625000I337500J0D01*
G01*
X165637500Y-49625000D01*
G75*
G02*
X165975000Y-49962500I0J-337500D01*
G01*
X165975000Y-50662500D01*
G75*
G02*
X165637500Y-51000000I-337500J0D01*
G01*
G37*
G36*
G01*
X165637500Y-49175000D02*
X164962500Y-49175000D01*
G75*
G02*
X164625000Y-48837500I0J337500D01*
G01*
X164625000Y-48137500D01*
G75*
G02*
X164962500Y-47800000I337500J0D01*
G01*
X165637500Y-47800000D01*
G75*
G02*
X165975000Y-48137500I0J-337500D01*
G01*
X165975000Y-48837500D01*
G75*
G02*
X165637500Y-49175000I-337500J0D01*
G01*
G37*
G36*
G01*
X163937500Y-49175000D02*
X163262500Y-49175000D01*
G75*
G02*
X162925000Y-48837500I0J337500D01*
G01*
X162925000Y-48137500D01*
G75*
G02*
X163262500Y-47800000I337500J0D01*
G01*
X163937500Y-47800000D01*
G75*
G02*
X164275000Y-48137500I0J-337500D01*
G01*
X164275000Y-48837500D01*
G75*
G02*
X163937500Y-49175000I-337500J0D01*
G01*
G37*
G36*
G01*
X163937500Y-51000000D02*
X163262500Y-51000000D01*
G75*
G02*
X162925000Y-50662500I0J337500D01*
G01*
X162925000Y-49962500D01*
G75*
G02*
X163262500Y-49625000I337500J0D01*
G01*
X163937500Y-49625000D01*
G75*
G02*
X164275000Y-49962500I0J-337500D01*
G01*
X164275000Y-50662500D01*
G75*
G02*
X163937500Y-51000000I-337500J0D01*
G01*
G37*
G36*
G01*
X176940000Y-49260000D02*
X176940000Y-48740000D01*
G75*
G02*
X177200000Y-48480000I260000J0D01*
G01*
X177795000Y-48480000D01*
G75*
G02*
X178055000Y-48740000I0J-260000D01*
G01*
X178055000Y-49260000D01*
G75*
G02*
X177795000Y-49520000I-260000J0D01*
G01*
X177200000Y-49520000D01*
G75*
G02*
X176940000Y-49260000I0J260000D01*
G01*
G37*
G36*
G01*
X175745000Y-49260000D02*
X175745000Y-48740000D01*
G75*
G02*
X176005000Y-48480000I260000J0D01*
G01*
X176600000Y-48480000D01*
G75*
G02*
X176860000Y-48740000I0J-260000D01*
G01*
X176860000Y-49260000D01*
G75*
G02*
X176600000Y-49520000I-260000J0D01*
G01*
X176005000Y-49520000D01*
G75*
G02*
X175745000Y-49260000I0J260000D01*
G01*
G37*
G36*
G01*
X175745000Y-48460000D02*
X175745000Y-47940000D01*
G75*
G02*
X176005000Y-47680000I260000J0D01*
G01*
X176600000Y-47680000D01*
G75*
G02*
X176860000Y-47940000I0J-260000D01*
G01*
X176860000Y-48460000D01*
G75*
G02*
X176600000Y-48720000I-260000J0D01*
G01*
X176005000Y-48720000D01*
G75*
G02*
X175745000Y-48460000I0J260000D01*
G01*
G37*
G36*
G01*
X176940000Y-48460000D02*
X176940000Y-47940000D01*
G75*
G02*
X177200000Y-47680000I260000J0D01*
G01*
X177795000Y-47680000D01*
G75*
G02*
X178055000Y-47940000I0J-260000D01*
G01*
X178055000Y-48460000D01*
G75*
G02*
X177795000Y-48720000I-260000J0D01*
G01*
X177200000Y-48720000D01*
G75*
G02*
X176940000Y-48460000I0J260000D01*
G01*
G37*
G36*
G01*
X176940000Y-50060000D02*
X176940000Y-49540000D01*
G75*
G02*
X177200000Y-49280000I260000J0D01*
G01*
X177795000Y-49280000D01*
G75*
G02*
X178055000Y-49540000I0J-260000D01*
G01*
X178055000Y-50060000D01*
G75*
G02*
X177795000Y-50320000I-260000J0D01*
G01*
X177200000Y-50320000D01*
G75*
G02*
X176940000Y-50060000I0J260000D01*
G01*
G37*
G36*
G01*
X175745000Y-50060000D02*
X175745000Y-49540000D01*
G75*
G02*
X176005000Y-49280000I260000J0D01*
G01*
X176600000Y-49280000D01*
G75*
G02*
X176860000Y-49540000I0J-260000D01*
G01*
X176860000Y-50060000D01*
G75*
G02*
X176600000Y-50320000I-260000J0D01*
G01*
X176005000Y-50320000D01*
G75*
G02*
X175745000Y-50060000I0J260000D01*
G01*
G37*
G36*
G01*
X176940000Y-50860000D02*
X176940000Y-50340000D01*
G75*
G02*
X177200000Y-50080000I260000J0D01*
G01*
X177795000Y-50080000D01*
G75*
G02*
X178055000Y-50340000I0J-260000D01*
G01*
X178055000Y-50860000D01*
G75*
G02*
X177795000Y-51120000I-260000J0D01*
G01*
X177200000Y-51120000D01*
G75*
G02*
X176940000Y-50860000I0J260000D01*
G01*
G37*
G36*
G01*
X175745000Y-50860000D02*
X175745000Y-50340000D01*
G75*
G02*
X176005000Y-50080000I260000J0D01*
G01*
X176600000Y-50080000D01*
G75*
G02*
X176860000Y-50340000I0J-260000D01*
G01*
X176860000Y-50860000D01*
G75*
G02*
X176600000Y-51120000I-260000J0D01*
G01*
X176005000Y-51120000D01*
G75*
G02*
X175745000Y-50860000I0J260000D01*
G01*
G37*
G36*
G01*
X204137500Y-77037500D02*
X204137500Y-76362500D01*
G75*
G02*
X204475000Y-76025000I337500J0D01*
G01*
X205175000Y-76025000D01*
G75*
G02*
X205512500Y-76362500I0J-337500D01*
G01*
X205512500Y-77037500D01*
G75*
G02*
X205175000Y-77375000I-337500J0D01*
G01*
X204475000Y-77375000D01*
G75*
G02*
X204137500Y-77037500I0J337500D01*
G01*
G37*
G36*
G01*
X202312500Y-77037500D02*
X202312500Y-76362500D01*
G75*
G02*
X202650000Y-76025000I337500J0D01*
G01*
X203350000Y-76025000D01*
G75*
G02*
X203687500Y-76362500I0J-337500D01*
G01*
X203687500Y-77037500D01*
G75*
G02*
X203350000Y-77375000I-337500J0D01*
G01*
X202650000Y-77375000D01*
G75*
G02*
X202312500Y-77037500I0J337500D01*
G01*
G37*
G36*
G01*
X202312500Y-75337500D02*
X202312500Y-74662500D01*
G75*
G02*
X202650000Y-74325000I337500J0D01*
G01*
X203350000Y-74325000D01*
G75*
G02*
X203687500Y-74662500I0J-337500D01*
G01*
X203687500Y-75337500D01*
G75*
G02*
X203350000Y-75675000I-337500J0D01*
G01*
X202650000Y-75675000D01*
G75*
G02*
X202312500Y-75337500I0J337500D01*
G01*
G37*
G36*
G01*
X204137500Y-75337500D02*
X204137500Y-74662500D01*
G75*
G02*
X204475000Y-74325000I337500J0D01*
G01*
X205175000Y-74325000D01*
G75*
G02*
X205512500Y-74662500I0J-337500D01*
G01*
X205512500Y-75337500D01*
G75*
G02*
X205175000Y-75675000I-337500J0D01*
G01*
X204475000Y-75675000D01*
G75*
G02*
X204137500Y-75337500I0J337500D01*
G01*
G37*
G36*
G01*
X204137500Y-73737500D02*
X204137500Y-73062500D01*
G75*
G02*
X204475000Y-72725000I337500J0D01*
G01*
X205175000Y-72725000D01*
G75*
G02*
X205512500Y-73062500I0J-337500D01*
G01*
X205512500Y-73737500D01*
G75*
G02*
X205175000Y-74075000I-337500J0D01*
G01*
X204475000Y-74075000D01*
G75*
G02*
X204137500Y-73737500I0J337500D01*
G01*
G37*
G36*
G01*
X202312500Y-73737500D02*
X202312500Y-73062500D01*
G75*
G02*
X202650000Y-72725000I337500J0D01*
G01*
X203350000Y-72725000D01*
G75*
G02*
X203687500Y-73062500I0J-337500D01*
G01*
X203687500Y-73737500D01*
G75*
G02*
X203350000Y-74075000I-337500J0D01*
G01*
X202650000Y-74075000D01*
G75*
G02*
X202312500Y-73737500I0J337500D01*
G01*
G37*
G36*
G01*
X202312500Y-72037500D02*
X202312500Y-71362500D01*
G75*
G02*
X202650000Y-71025000I337500J0D01*
G01*
X203350000Y-71025000D01*
G75*
G02*
X203687500Y-71362500I0J-337500D01*
G01*
X203687500Y-72037500D01*
G75*
G02*
X203350000Y-72375000I-337500J0D01*
G01*
X202650000Y-72375000D01*
G75*
G02*
X202312500Y-72037500I0J337500D01*
G01*
G37*
G36*
G01*
X204137500Y-72037500D02*
X204137500Y-71362500D01*
G75*
G02*
X204475000Y-71025000I337500J0D01*
G01*
X205175000Y-71025000D01*
G75*
G02*
X205512500Y-71362500I0J-337500D01*
G01*
X205512500Y-72037500D01*
G75*
G02*
X205175000Y-72375000I-337500J0D01*
G01*
X204475000Y-72375000D01*
G75*
G02*
X204137500Y-72037500I0J337500D01*
G01*
G37*
G36*
G01*
X191160000Y-74740000D02*
X191160000Y-75260000D01*
G75*
G02*
X190900000Y-75520000I-260000J0D01*
G01*
X190305000Y-75520000D01*
G75*
G02*
X190045000Y-75260000I0J260000D01*
G01*
X190045000Y-74740000D01*
G75*
G02*
X190305000Y-74480000I260000J0D01*
G01*
X190900000Y-74480000D01*
G75*
G02*
X191160000Y-74740000I0J-260000D01*
G01*
G37*
G36*
G01*
X192355000Y-74740000D02*
X192355000Y-75260000D01*
G75*
G02*
X192095000Y-75520000I-260000J0D01*
G01*
X191500000Y-75520000D01*
G75*
G02*
X191240000Y-75260000I0J260000D01*
G01*
X191240000Y-74740000D01*
G75*
G02*
X191500000Y-74480000I260000J0D01*
G01*
X192095000Y-74480000D01*
G75*
G02*
X192355000Y-74740000I0J-260000D01*
G01*
G37*
G36*
G01*
X192355000Y-75540000D02*
X192355000Y-76060000D01*
G75*
G02*
X192095000Y-76320000I-260000J0D01*
G01*
X191500000Y-76320000D01*
G75*
G02*
X191240000Y-76060000I0J260000D01*
G01*
X191240000Y-75540000D01*
G75*
G02*
X191500000Y-75280000I260000J0D01*
G01*
X192095000Y-75280000D01*
G75*
G02*
X192355000Y-75540000I0J-260000D01*
G01*
G37*
G36*
G01*
X191160000Y-75540000D02*
X191160000Y-76060000D01*
G75*
G02*
X190900000Y-76320000I-260000J0D01*
G01*
X190305000Y-76320000D01*
G75*
G02*
X190045000Y-76060000I0J260000D01*
G01*
X190045000Y-75540000D01*
G75*
G02*
X190305000Y-75280000I260000J0D01*
G01*
X190900000Y-75280000D01*
G75*
G02*
X191160000Y-75540000I0J-260000D01*
G01*
G37*
G36*
G01*
X191160000Y-73940000D02*
X191160000Y-74460000D01*
G75*
G02*
X190900000Y-74720000I-260000J0D01*
G01*
X190305000Y-74720000D01*
G75*
G02*
X190045000Y-74460000I0J260000D01*
G01*
X190045000Y-73940000D01*
G75*
G02*
X190305000Y-73680000I260000J0D01*
G01*
X190900000Y-73680000D01*
G75*
G02*
X191160000Y-73940000I0J-260000D01*
G01*
G37*
G36*
G01*
X192355000Y-73940000D02*
X192355000Y-74460000D01*
G75*
G02*
X192095000Y-74720000I-260000J0D01*
G01*
X191500000Y-74720000D01*
G75*
G02*
X191240000Y-74460000I0J260000D01*
G01*
X191240000Y-73940000D01*
G75*
G02*
X191500000Y-73680000I260000J0D01*
G01*
X192095000Y-73680000D01*
G75*
G02*
X192355000Y-73940000I0J-260000D01*
G01*
G37*
G36*
G01*
X191160000Y-73140000D02*
X191160000Y-73660000D01*
G75*
G02*
X190900000Y-73920000I-260000J0D01*
G01*
X190305000Y-73920000D01*
G75*
G02*
X190045000Y-73660000I0J260000D01*
G01*
X190045000Y-73140000D01*
G75*
G02*
X190305000Y-72880000I260000J0D01*
G01*
X190900000Y-72880000D01*
G75*
G02*
X191160000Y-73140000I0J-260000D01*
G01*
G37*
G36*
G01*
X192355000Y-73140000D02*
X192355000Y-73660000D01*
G75*
G02*
X192095000Y-73920000I-260000J0D01*
G01*
X191500000Y-73920000D01*
G75*
G02*
X191240000Y-73660000I0J260000D01*
G01*
X191240000Y-73140000D01*
G75*
G02*
X191500000Y-72880000I260000J0D01*
G01*
X192095000Y-72880000D01*
G75*
G02*
X192355000Y-73140000I0J-260000D01*
G01*
G37*
G36*
G01*
X210162500Y-95612500D02*
X210162500Y-96287500D01*
G75*
G02*
X209825000Y-96625000I-337500J0D01*
G01*
X209125000Y-96625000D01*
G75*
G02*
X208787500Y-96287500I0J337500D01*
G01*
X208787500Y-95612500D01*
G75*
G02*
X209125000Y-95275000I337500J0D01*
G01*
X209825000Y-95275000D01*
G75*
G02*
X210162500Y-95612500I0J-337500D01*
G01*
G37*
G36*
G01*
X211987500Y-95612500D02*
X211987500Y-96287500D01*
G75*
G02*
X211650000Y-96625000I-337500J0D01*
G01*
X210950000Y-96625000D01*
G75*
G02*
X210612500Y-96287500I0J337500D01*
G01*
X210612500Y-95612500D01*
G75*
G02*
X210950000Y-95275000I337500J0D01*
G01*
X211650000Y-95275000D01*
G75*
G02*
X211987500Y-95612500I0J-337500D01*
G01*
G37*
G36*
G01*
X210512500Y-94487500D02*
X210512500Y-93812500D01*
G75*
G02*
X210850000Y-93475000I337500J0D01*
G01*
X211550000Y-93475000D01*
G75*
G02*
X211887500Y-93812500I0J-337500D01*
G01*
X211887500Y-94487500D01*
G75*
G02*
X211550000Y-94825000I-337500J0D01*
G01*
X210850000Y-94825000D01*
G75*
G02*
X210512500Y-94487500I0J337500D01*
G01*
G37*
G36*
G01*
X208687500Y-94487500D02*
X208687500Y-93812500D01*
G75*
G02*
X209025000Y-93475000I337500J0D01*
G01*
X209725000Y-93475000D01*
G75*
G02*
X210062500Y-93812500I0J-337500D01*
G01*
X210062500Y-94487500D01*
G75*
G02*
X209725000Y-94825000I-337500J0D01*
G01*
X209025000Y-94825000D01*
G75*
G02*
X208687500Y-94487500I0J337500D01*
G01*
G37*
G36*
G01*
X215900000Y-93812500D02*
X215900000Y-94487500D01*
G75*
G02*
X215562500Y-94825000I-337500J0D01*
G01*
X214862500Y-94825000D01*
G75*
G02*
X214525000Y-94487500I0J337500D01*
G01*
X214525000Y-93812500D01*
G75*
G02*
X214862500Y-93475000I337500J0D01*
G01*
X215562500Y-93475000D01*
G75*
G02*
X215900000Y-93812500I0J-337500D01*
G01*
G37*
G36*
G01*
X214075000Y-93812500D02*
X214075000Y-94487500D01*
G75*
G02*
X213737500Y-94825000I-337500J0D01*
G01*
X213037500Y-94825000D01*
G75*
G02*
X212700000Y-94487500I0J337500D01*
G01*
X212700000Y-93812500D01*
G75*
G02*
X213037500Y-93475000I337500J0D01*
G01*
X213737500Y-93475000D01*
G75*
G02*
X214075000Y-93812500I0J-337500D01*
G01*
G37*
G36*
G01*
X191625000Y-112437500D02*
X191625000Y-111762500D01*
G75*
G02*
X191962500Y-111425000I337500J0D01*
G01*
X192662500Y-111425000D01*
G75*
G02*
X193000000Y-111762500I0J-337500D01*
G01*
X193000000Y-112437500D01*
G75*
G02*
X192662500Y-112775000I-337500J0D01*
G01*
X191962500Y-112775000D01*
G75*
G02*
X191625000Y-112437500I0J337500D01*
G01*
G37*
G36*
G01*
X189800000Y-112437500D02*
X189800000Y-111762500D01*
G75*
G02*
X190137500Y-111425000I337500J0D01*
G01*
X190837500Y-111425000D01*
G75*
G02*
X191175000Y-111762500I0J-337500D01*
G01*
X191175000Y-112437500D01*
G75*
G02*
X190837500Y-112775000I-337500J0D01*
G01*
X190137500Y-112775000D01*
G75*
G02*
X189800000Y-112437500I0J337500D01*
G01*
G37*
G36*
G01*
X193112500Y-113462500D02*
X193112500Y-114137500D01*
G75*
G02*
X192775000Y-114475000I-337500J0D01*
G01*
X192075000Y-114475000D01*
G75*
G02*
X191737500Y-114137500I0J337500D01*
G01*
X191737500Y-113462500D01*
G75*
G02*
X192075000Y-113125000I337500J0D01*
G01*
X192775000Y-113125000D01*
G75*
G02*
X193112500Y-113462500I0J-337500D01*
G01*
G37*
G36*
G01*
X191287500Y-113462500D02*
X191287500Y-114137500D01*
G75*
G02*
X190950000Y-114475000I-337500J0D01*
G01*
X190250000Y-114475000D01*
G75*
G02*
X189912500Y-114137500I0J337500D01*
G01*
X189912500Y-113462500D01*
G75*
G02*
X190250000Y-113125000I337500J0D01*
G01*
X190950000Y-113125000D01*
G75*
G02*
X191287500Y-113462500I0J-337500D01*
G01*
G37*
G36*
G01*
X191462500Y-102625000D02*
X192137500Y-102625000D01*
G75*
G02*
X192475000Y-102962500I0J-337500D01*
G01*
X192475000Y-103662500D01*
G75*
G02*
X192137500Y-104000000I-337500J0D01*
G01*
X191462500Y-104000000D01*
G75*
G02*
X191125000Y-103662500I0J337500D01*
G01*
X191125000Y-102962500D01*
G75*
G02*
X191462500Y-102625000I337500J0D01*
G01*
G37*
G36*
G01*
X191462500Y-100800000D02*
X192137500Y-100800000D01*
G75*
G02*
X192475000Y-101137500I0J-337500D01*
G01*
X192475000Y-101837500D01*
G75*
G02*
X192137500Y-102175000I-337500J0D01*
G01*
X191462500Y-102175000D01*
G75*
G02*
X191125000Y-101837500I0J337500D01*
G01*
X191125000Y-101137500D01*
G75*
G02*
X191462500Y-100800000I337500J0D01*
G01*
G37*
G36*
G01*
X181562500Y-43912500D02*
X182237500Y-43912500D01*
G75*
G02*
X182575000Y-44250000I0J-337500D01*
G01*
X182575000Y-44950000D01*
G75*
G02*
X182237500Y-45287500I-337500J0D01*
G01*
X181562500Y-45287500D01*
G75*
G02*
X181225000Y-44950000I0J337500D01*
G01*
X181225000Y-44250000D01*
G75*
G02*
X181562500Y-43912500I337500J0D01*
G01*
G37*
G36*
G01*
X181562500Y-45737500D02*
X182237500Y-45737500D01*
G75*
G02*
X182575000Y-46075000I0J-337500D01*
G01*
X182575000Y-46775000D01*
G75*
G02*
X182237500Y-47112500I-337500J0D01*
G01*
X181562500Y-47112500D01*
G75*
G02*
X181225000Y-46775000I0J337500D01*
G01*
X181225000Y-46075000D01*
G75*
G02*
X181562500Y-45737500I337500J0D01*
G01*
G37*
G36*
G01*
X180237500Y-47087500D02*
X179562500Y-47087500D01*
G75*
G02*
X179225000Y-46750000I0J337500D01*
G01*
X179225000Y-46050000D01*
G75*
G02*
X179562500Y-45712500I337500J0D01*
G01*
X180237500Y-45712500D01*
G75*
G02*
X180575000Y-46050000I0J-337500D01*
G01*
X180575000Y-46750000D01*
G75*
G02*
X180237500Y-47087500I-337500J0D01*
G01*
G37*
G36*
G01*
X180237500Y-45262500D02*
X179562500Y-45262500D01*
G75*
G02*
X179225000Y-44925000I0J337500D01*
G01*
X179225000Y-44225000D01*
G75*
G02*
X179562500Y-43887500I337500J0D01*
G01*
X180237500Y-43887500D01*
G75*
G02*
X180575000Y-44225000I0J-337500D01*
G01*
X180575000Y-44925000D01*
G75*
G02*
X180237500Y-45262500I-337500J0D01*
G01*
G37*
G36*
G01*
X178812500Y-48062500D02*
X179487500Y-48062500D01*
G75*
G02*
X179825000Y-48400000I0J-337500D01*
G01*
X179825000Y-49100000D01*
G75*
G02*
X179487500Y-49437500I-337500J0D01*
G01*
X178812500Y-49437500D01*
G75*
G02*
X178475000Y-49100000I0J337500D01*
G01*
X178475000Y-48400000D01*
G75*
G02*
X178812500Y-48062500I337500J0D01*
G01*
G37*
G36*
G01*
X178812500Y-49887500D02*
X179487500Y-49887500D01*
G75*
G02*
X179825000Y-50225000I0J-337500D01*
G01*
X179825000Y-50925000D01*
G75*
G02*
X179487500Y-51262500I-337500J0D01*
G01*
X178812500Y-51262500D01*
G75*
G02*
X178475000Y-50925000I0J337500D01*
G01*
X178475000Y-50225000D01*
G75*
G02*
X178812500Y-49887500I337500J0D01*
G01*
G37*
G36*
G01*
X235445000Y-100960000D02*
X235445000Y-100440000D01*
G75*
G02*
X235705000Y-100180000I260000J0D01*
G01*
X236300000Y-100180000D01*
G75*
G02*
X236560000Y-100440000I0J-260000D01*
G01*
X236560000Y-100960000D01*
G75*
G02*
X236300000Y-101220000I-260000J0D01*
G01*
X235705000Y-101220000D01*
G75*
G02*
X235445000Y-100960000I0J260000D01*
G01*
G37*
G36*
G01*
X236640000Y-100960000D02*
X236640000Y-100440000D01*
G75*
G02*
X236900000Y-100180000I260000J0D01*
G01*
X237495000Y-100180000D01*
G75*
G02*
X237755000Y-100440000I0J-260000D01*
G01*
X237755000Y-100960000D01*
G75*
G02*
X237495000Y-101220000I-260000J0D01*
G01*
X236900000Y-101220000D01*
G75*
G02*
X236640000Y-100960000I0J260000D01*
G01*
G37*
G36*
G01*
X231145000Y-104260000D02*
X231145000Y-103740000D01*
G75*
G02*
X231405000Y-103480000I260000J0D01*
G01*
X232000000Y-103480000D01*
G75*
G02*
X232260000Y-103740000I0J-260000D01*
G01*
X232260000Y-104260000D01*
G75*
G02*
X232000000Y-104520000I-260000J0D01*
G01*
X231405000Y-104520000D01*
G75*
G02*
X231145000Y-104260000I0J260000D01*
G01*
G37*
G36*
G01*
X232340000Y-104260000D02*
X232340000Y-103740000D01*
G75*
G02*
X232600000Y-103480000I260000J0D01*
G01*
X233195000Y-103480000D01*
G75*
G02*
X233455000Y-103740000I0J-260000D01*
G01*
X233455000Y-104260000D01*
G75*
G02*
X233195000Y-104520000I-260000J0D01*
G01*
X232600000Y-104520000D01*
G75*
G02*
X232340000Y-104260000I0J260000D01*
G01*
G37*
G36*
G01*
X224840000Y-94942500D02*
X225360000Y-94942500D01*
G75*
G02*
X225620000Y-95202500I0J-260000D01*
G01*
X225620000Y-95797500D01*
G75*
G02*
X225360000Y-96057500I-260000J0D01*
G01*
X224840000Y-96057500D01*
G75*
G02*
X224580000Y-95797500I0J260000D01*
G01*
X224580000Y-95202500D01*
G75*
G02*
X224840000Y-94942500I260000J0D01*
G01*
G37*
G36*
G01*
X224840000Y-96137500D02*
X225360000Y-96137500D01*
G75*
G02*
X225620000Y-96397500I0J-260000D01*
G01*
X225620000Y-96992500D01*
G75*
G02*
X225360000Y-97252500I-260000J0D01*
G01*
X224840000Y-97252500D01*
G75*
G02*
X224580000Y-96992500I0J260000D01*
G01*
X224580000Y-96397500D01*
G75*
G02*
X224840000Y-96137500I260000J0D01*
G01*
G37*
G36*
G01*
X224840000Y-92242500D02*
X225360000Y-92242500D01*
G75*
G02*
X225620000Y-92502500I0J-260000D01*
G01*
X225620000Y-93097500D01*
G75*
G02*
X225360000Y-93357500I-260000J0D01*
G01*
X224840000Y-93357500D01*
G75*
G02*
X224580000Y-93097500I0J260000D01*
G01*
X224580000Y-92502500D01*
G75*
G02*
X224840000Y-92242500I260000J0D01*
G01*
G37*
G36*
G01*
X224840000Y-91047500D02*
X225360000Y-91047500D01*
G75*
G02*
X225620000Y-91307500I0J-260000D01*
G01*
X225620000Y-91902500D01*
G75*
G02*
X225360000Y-92162500I-260000J0D01*
G01*
X224840000Y-92162500D01*
G75*
G02*
X224580000Y-91902500I0J260000D01*
G01*
X224580000Y-91307500D01*
G75*
G02*
X224840000Y-91047500I260000J0D01*
G01*
G37*
G36*
G01*
X225360000Y-99860000D02*
X224840000Y-99860000D01*
G75*
G02*
X224580000Y-99600000I0J260000D01*
G01*
X224580000Y-99005000D01*
G75*
G02*
X224840000Y-98745000I260000J0D01*
G01*
X225360000Y-98745000D01*
G75*
G02*
X225620000Y-99005000I0J-260000D01*
G01*
X225620000Y-99600000D01*
G75*
G02*
X225360000Y-99860000I-260000J0D01*
G01*
G37*
G36*
G01*
X225360000Y-101055000D02*
X224840000Y-101055000D01*
G75*
G02*
X224580000Y-100795000I0J260000D01*
G01*
X224580000Y-100200000D01*
G75*
G02*
X224840000Y-99940000I260000J0D01*
G01*
X225360000Y-99940000D01*
G75*
G02*
X225620000Y-100200000I0J-260000D01*
G01*
X225620000Y-100795000D01*
G75*
G02*
X225360000Y-101055000I-260000J0D01*
G01*
G37*
G36*
G01*
X233455000Y-102540000D02*
X233455000Y-103060000D01*
G75*
G02*
X233195000Y-103320000I-260000J0D01*
G01*
X232600000Y-103320000D01*
G75*
G02*
X232340000Y-103060000I0J260000D01*
G01*
X232340000Y-102540000D01*
G75*
G02*
X232600000Y-102280000I260000J0D01*
G01*
X233195000Y-102280000D01*
G75*
G02*
X233455000Y-102540000I0J-260000D01*
G01*
G37*
G36*
G01*
X232260000Y-102540000D02*
X232260000Y-103060000D01*
G75*
G02*
X232000000Y-103320000I-260000J0D01*
G01*
X231405000Y-103320000D01*
G75*
G02*
X231145000Y-103060000I0J260000D01*
G01*
X231145000Y-102540000D01*
G75*
G02*
X231405000Y-102280000I260000J0D01*
G01*
X232000000Y-102280000D01*
G75*
G02*
X232260000Y-102540000I0J-260000D01*
G01*
G37*
G36*
G01*
X197960000Y-59955000D02*
X197440000Y-59955000D01*
G75*
G02*
X197180000Y-59695000I0J260000D01*
G01*
X197180000Y-59100000D01*
G75*
G02*
X197440000Y-58840000I260000J0D01*
G01*
X197960000Y-58840000D01*
G75*
G02*
X198220000Y-59100000I0J-260000D01*
G01*
X198220000Y-59695000D01*
G75*
G02*
X197960000Y-59955000I-260000J0D01*
G01*
G37*
G36*
G01*
X197960000Y-58760000D02*
X197440000Y-58760000D01*
G75*
G02*
X197180000Y-58500000I0J260000D01*
G01*
X197180000Y-57905000D01*
G75*
G02*
X197440000Y-57645000I260000J0D01*
G01*
X197960000Y-57645000D01*
G75*
G02*
X198220000Y-57905000I0J-260000D01*
G01*
X198220000Y-58500000D01*
G75*
G02*
X197960000Y-58760000I-260000J0D01*
G01*
G37*
G36*
G01*
X205640000Y-69260000D02*
X205640000Y-68740000D01*
G75*
G02*
X205900000Y-68480000I260000J0D01*
G01*
X206495000Y-68480000D01*
G75*
G02*
X206755000Y-68740000I0J-260000D01*
G01*
X206755000Y-69260000D01*
G75*
G02*
X206495000Y-69520000I-260000J0D01*
G01*
X205900000Y-69520000D01*
G75*
G02*
X205640000Y-69260000I0J260000D01*
G01*
G37*
G36*
G01*
X204445000Y-69260000D02*
X204445000Y-68740000D01*
G75*
G02*
X204705000Y-68480000I260000J0D01*
G01*
X205300000Y-68480000D01*
G75*
G02*
X205560000Y-68740000I0J-260000D01*
G01*
X205560000Y-69260000D01*
G75*
G02*
X205300000Y-69520000I-260000J0D01*
G01*
X204705000Y-69520000D01*
G75*
G02*
X204445000Y-69260000I0J260000D01*
G01*
G37*
G36*
G01*
X208612500Y-54462500D02*
X208612500Y-55137500D01*
G75*
G02*
X208275000Y-55475000I-337500J0D01*
G01*
X207575000Y-55475000D01*
G75*
G02*
X207237500Y-55137500I0J337500D01*
G01*
X207237500Y-54462500D01*
G75*
G02*
X207575000Y-54125000I337500J0D01*
G01*
X208275000Y-54125000D01*
G75*
G02*
X208612500Y-54462500I0J-337500D01*
G01*
G37*
G36*
G01*
X206787500Y-54462500D02*
X206787500Y-55137500D01*
G75*
G02*
X206450000Y-55475000I-337500J0D01*
G01*
X205750000Y-55475000D01*
G75*
G02*
X205412500Y-55137500I0J337500D01*
G01*
X205412500Y-54462500D01*
G75*
G02*
X205750000Y-54125000I337500J0D01*
G01*
X206450000Y-54125000D01*
G75*
G02*
X206787500Y-54462500I0J-337500D01*
G01*
G37*
G36*
G01*
X201660000Y-54140000D02*
X201660000Y-54660000D01*
G75*
G02*
X201400000Y-54920000I-260000J0D01*
G01*
X200805000Y-54920000D01*
G75*
G02*
X200545000Y-54660000I0J260000D01*
G01*
X200545000Y-54140000D01*
G75*
G02*
X200805000Y-53880000I260000J0D01*
G01*
X201400000Y-53880000D01*
G75*
G02*
X201660000Y-54140000I0J-260000D01*
G01*
G37*
G36*
G01*
X202855000Y-54140000D02*
X202855000Y-54660000D01*
G75*
G02*
X202595000Y-54920000I-260000J0D01*
G01*
X202000000Y-54920000D01*
G75*
G02*
X201740000Y-54660000I0J260000D01*
G01*
X201740000Y-54140000D01*
G75*
G02*
X202000000Y-53880000I260000J0D01*
G01*
X202595000Y-53880000D01*
G75*
G02*
X202855000Y-54140000I0J-260000D01*
G01*
G37*
G36*
G01*
X200547500Y-53560000D02*
X200547500Y-53040000D01*
G75*
G02*
X200807500Y-52780000I260000J0D01*
G01*
X201402500Y-52780000D01*
G75*
G02*
X201662500Y-53040000I0J-260000D01*
G01*
X201662500Y-53560000D01*
G75*
G02*
X201402500Y-53820000I-260000J0D01*
G01*
X200807500Y-53820000D01*
G75*
G02*
X200547500Y-53560000I0J260000D01*
G01*
G37*
G36*
G01*
X201742500Y-53560000D02*
X201742500Y-53040000D01*
G75*
G02*
X202002500Y-52780000I260000J0D01*
G01*
X202597500Y-52780000D01*
G75*
G02*
X202857500Y-53040000I0J-260000D01*
G01*
X202857500Y-53560000D01*
G75*
G02*
X202597500Y-53820000I-260000J0D01*
G01*
X202002500Y-53820000D01*
G75*
G02*
X201742500Y-53560000I0J260000D01*
G01*
G37*
G36*
G01*
X211640000Y-76340000D02*
X212160000Y-76340000D01*
G75*
G02*
X212420000Y-76600000I0J-260000D01*
G01*
X212420000Y-77195000D01*
G75*
G02*
X212160000Y-77455000I-260000J0D01*
G01*
X211640000Y-77455000D01*
G75*
G02*
X211380000Y-77195000I0J260000D01*
G01*
X211380000Y-76600000D01*
G75*
G02*
X211640000Y-76340000I260000J0D01*
G01*
G37*
G36*
G01*
X211640000Y-75145000D02*
X212160000Y-75145000D01*
G75*
G02*
X212420000Y-75405000I0J-260000D01*
G01*
X212420000Y-76000000D01*
G75*
G02*
X212160000Y-76260000I-260000J0D01*
G01*
X211640000Y-76260000D01*
G75*
G02*
X211380000Y-76000000I0J260000D01*
G01*
X211380000Y-75405000D01*
G75*
G02*
X211640000Y-75145000I260000J0D01*
G01*
G37*
G36*
G01*
X210757500Y-71440000D02*
X210757500Y-71960000D01*
G75*
G02*
X210497500Y-72220000I-260000J0D01*
G01*
X209902500Y-72220000D01*
G75*
G02*
X209642500Y-71960000I0J260000D01*
G01*
X209642500Y-71440000D01*
G75*
G02*
X209902500Y-71180000I260000J0D01*
G01*
X210497500Y-71180000D01*
G75*
G02*
X210757500Y-71440000I0J-260000D01*
G01*
G37*
G36*
G01*
X211952500Y-71440000D02*
X211952500Y-71960000D01*
G75*
G02*
X211692500Y-72220000I-260000J0D01*
G01*
X211097500Y-72220000D01*
G75*
G02*
X210837500Y-71960000I0J260000D01*
G01*
X210837500Y-71440000D01*
G75*
G02*
X211097500Y-71180000I260000J0D01*
G01*
X211692500Y-71180000D01*
G75*
G02*
X211952500Y-71440000I0J-260000D01*
G01*
G37*
G36*
G01*
X225260000Y-78107500D02*
X224740000Y-78107500D01*
G75*
G02*
X224480000Y-77847500I0J260000D01*
G01*
X224480000Y-77252500D01*
G75*
G02*
X224740000Y-76992500I260000J0D01*
G01*
X225260000Y-76992500D01*
G75*
G02*
X225520000Y-77252500I0J-260000D01*
G01*
X225520000Y-77847500D01*
G75*
G02*
X225260000Y-78107500I-260000J0D01*
G01*
G37*
G36*
G01*
X225260000Y-76912500D02*
X224740000Y-76912500D01*
G75*
G02*
X224480000Y-76652500I0J260000D01*
G01*
X224480000Y-76057500D01*
G75*
G02*
X224740000Y-75797500I260000J0D01*
G01*
X225260000Y-75797500D01*
G75*
G02*
X225520000Y-76057500I0J-260000D01*
G01*
X225520000Y-76652500D01*
G75*
G02*
X225260000Y-76912500I-260000J0D01*
G01*
G37*
G36*
G01*
X225160000Y-80802500D02*
X224640000Y-80802500D01*
G75*
G02*
X224380000Y-80542500I0J260000D01*
G01*
X224380000Y-79947500D01*
G75*
G02*
X224640000Y-79687500I260000J0D01*
G01*
X225160000Y-79687500D01*
G75*
G02*
X225420000Y-79947500I0J-260000D01*
G01*
X225420000Y-80542500D01*
G75*
G02*
X225160000Y-80802500I-260000J0D01*
G01*
G37*
G36*
G01*
X225160000Y-79607500D02*
X224640000Y-79607500D01*
G75*
G02*
X224380000Y-79347500I0J260000D01*
G01*
X224380000Y-78752500D01*
G75*
G02*
X224640000Y-78492500I260000J0D01*
G01*
X225160000Y-78492500D01*
G75*
G02*
X225420000Y-78752500I0J-260000D01*
G01*
X225420000Y-79347500D01*
G75*
G02*
X225160000Y-79607500I-260000J0D01*
G01*
G37*
G36*
G01*
X225340000Y-82742500D02*
X225860000Y-82742500D01*
G75*
G02*
X226120000Y-83002500I0J-260000D01*
G01*
X226120000Y-83597500D01*
G75*
G02*
X225860000Y-83857500I-260000J0D01*
G01*
X225340000Y-83857500D01*
G75*
G02*
X225080000Y-83597500I0J260000D01*
G01*
X225080000Y-83002500D01*
G75*
G02*
X225340000Y-82742500I260000J0D01*
G01*
G37*
G36*
G01*
X225340000Y-81547500D02*
X225860000Y-81547500D01*
G75*
G02*
X226120000Y-81807500I0J-260000D01*
G01*
X226120000Y-82402500D01*
G75*
G02*
X225860000Y-82662500I-260000J0D01*
G01*
X225340000Y-82662500D01*
G75*
G02*
X225080000Y-82402500I0J260000D01*
G01*
X225080000Y-81807500D01*
G75*
G02*
X225340000Y-81547500I260000J0D01*
G01*
G37*
G36*
G01*
X239540000Y-65210000D02*
X239540000Y-64690000D01*
G75*
G02*
X239800000Y-64430000I260000J0D01*
G01*
X240395000Y-64430000D01*
G75*
G02*
X240655000Y-64690000I0J-260000D01*
G01*
X240655000Y-65210000D01*
G75*
G02*
X240395000Y-65470000I-260000J0D01*
G01*
X239800000Y-65470000D01*
G75*
G02*
X239540000Y-65210000I0J260000D01*
G01*
G37*
G36*
G01*
X238345000Y-65210000D02*
X238345000Y-64690000D01*
G75*
G02*
X238605000Y-64430000I260000J0D01*
G01*
X239200000Y-64430000D01*
G75*
G02*
X239460000Y-64690000I0J-260000D01*
G01*
X239460000Y-65210000D01*
G75*
G02*
X239200000Y-65470000I-260000J0D01*
G01*
X238605000Y-65470000D01*
G75*
G02*
X238345000Y-65210000I0J260000D01*
G01*
G37*
G36*
G01*
X242460000Y-83640000D02*
X242460000Y-84160000D01*
G75*
G02*
X242200000Y-84420000I-260000J0D01*
G01*
X241605000Y-84420000D01*
G75*
G02*
X241345000Y-84160000I0J260000D01*
G01*
X241345000Y-83640000D01*
G75*
G02*
X241605000Y-83380000I260000J0D01*
G01*
X242200000Y-83380000D01*
G75*
G02*
X242460000Y-83640000I0J-260000D01*
G01*
G37*
G36*
G01*
X243655000Y-83640000D02*
X243655000Y-84160000D01*
G75*
G02*
X243395000Y-84420000I-260000J0D01*
G01*
X242800000Y-84420000D01*
G75*
G02*
X242540000Y-84160000I0J260000D01*
G01*
X242540000Y-83640000D01*
G75*
G02*
X242800000Y-83380000I260000J0D01*
G01*
X243395000Y-83380000D01*
G75*
G02*
X243655000Y-83640000I0J-260000D01*
G01*
G37*
G36*
G01*
X223660000Y-78260000D02*
X223140000Y-78260000D01*
G75*
G02*
X222880000Y-78000000I0J260000D01*
G01*
X222880000Y-77405000D01*
G75*
G02*
X223140000Y-77145000I260000J0D01*
G01*
X223660000Y-77145000D01*
G75*
G02*
X223920000Y-77405000I0J-260000D01*
G01*
X223920000Y-78000000D01*
G75*
G02*
X223660000Y-78260000I-260000J0D01*
G01*
G37*
G36*
G01*
X223660000Y-79455000D02*
X223140000Y-79455000D01*
G75*
G02*
X222880000Y-79195000I0J260000D01*
G01*
X222880000Y-78600000D01*
G75*
G02*
X223140000Y-78340000I260000J0D01*
G01*
X223660000Y-78340000D01*
G75*
G02*
X223920000Y-78600000I0J-260000D01*
G01*
X223920000Y-79195000D01*
G75*
G02*
X223660000Y-79455000I-260000J0D01*
G01*
G37*
G36*
G01*
X219302500Y-86640000D02*
X219302500Y-87160000D01*
G75*
G02*
X219042500Y-87420000I-260000J0D01*
G01*
X218447500Y-87420000D01*
G75*
G02*
X218187500Y-87160000I0J260000D01*
G01*
X218187500Y-86640000D01*
G75*
G02*
X218447500Y-86380000I260000J0D01*
G01*
X219042500Y-86380000D01*
G75*
G02*
X219302500Y-86640000I0J-260000D01*
G01*
G37*
G36*
G01*
X218107500Y-86640000D02*
X218107500Y-87160000D01*
G75*
G02*
X217847500Y-87420000I-260000J0D01*
G01*
X217252500Y-87420000D01*
G75*
G02*
X216992500Y-87160000I0J260000D01*
G01*
X216992500Y-86640000D01*
G75*
G02*
X217252500Y-86380000I260000J0D01*
G01*
X217847500Y-86380000D01*
G75*
G02*
X218107500Y-86640000I0J-260000D01*
G01*
G37*
G36*
G01*
X179000000Y-91562500D02*
X179000000Y-92237500D01*
G75*
G02*
X178662500Y-92575000I-337500J0D01*
G01*
X177962500Y-92575000D01*
G75*
G02*
X177625000Y-92237500I0J337500D01*
G01*
X177625000Y-91562500D01*
G75*
G02*
X177962500Y-91225000I337500J0D01*
G01*
X178662500Y-91225000D01*
G75*
G02*
X179000000Y-91562500I0J-337500D01*
G01*
G37*
G36*
G01*
X177175000Y-91562500D02*
X177175000Y-92237500D01*
G75*
G02*
X176837500Y-92575000I-337500J0D01*
G01*
X176137500Y-92575000D01*
G75*
G02*
X175800000Y-92237500I0J337500D01*
G01*
X175800000Y-91562500D01*
G75*
G02*
X176137500Y-91225000I337500J0D01*
G01*
X176837500Y-91225000D01*
G75*
G02*
X177175000Y-91562500I0J-337500D01*
G01*
G37*
G36*
G01*
X165575000Y-91762500D02*
X165575000Y-92437500D01*
G75*
G02*
X165237500Y-92775000I-337500J0D01*
G01*
X164537500Y-92775000D01*
G75*
G02*
X164200000Y-92437500I0J337500D01*
G01*
X164200000Y-91762500D01*
G75*
G02*
X164537500Y-91425000I337500J0D01*
G01*
X165237500Y-91425000D01*
G75*
G02*
X165575000Y-91762500I0J-337500D01*
G01*
G37*
G36*
G01*
X167400000Y-91762500D02*
X167400000Y-92437500D01*
G75*
G02*
X167062500Y-92775000I-337500J0D01*
G01*
X166362500Y-92775000D01*
G75*
G02*
X166025000Y-92437500I0J337500D01*
G01*
X166025000Y-91762500D01*
G75*
G02*
X166362500Y-91425000I337500J0D01*
G01*
X167062500Y-91425000D01*
G75*
G02*
X167400000Y-91762500I0J-337500D01*
G01*
G37*
G36*
G01*
X208480000Y-82089700D02*
X209496000Y-82089700D01*
G75*
G02*
X209546800Y-82140500I0J-50800D01*
G01*
X209546800Y-82521500D01*
G75*
G02*
X209496000Y-82572300I-50800J0D01*
G01*
X208480000Y-82572300D01*
G75*
G02*
X208429200Y-82521500I0J50800D01*
G01*
X208429200Y-82140500D01*
G75*
G02*
X208480000Y-82089700I50800J0D01*
G01*
G37*
G36*
G01*
X208480000Y-81327700D02*
X209496000Y-81327700D01*
G75*
G02*
X209546800Y-81378500I0J-50800D01*
G01*
X209546800Y-81759500D01*
G75*
G02*
X209496000Y-81810300I-50800J0D01*
G01*
X208480000Y-81810300D01*
G75*
G02*
X208429200Y-81759500I0J50800D01*
G01*
X208429200Y-81378500D01*
G75*
G02*
X208480000Y-81327700I50800J0D01*
G01*
G37*
G36*
G01*
X210004000Y-82089700D02*
X211020000Y-82089700D01*
G75*
G02*
X211070800Y-82140500I0J-50800D01*
G01*
X211070800Y-82521500D01*
G75*
G02*
X211020000Y-82572300I-50800J0D01*
G01*
X210004000Y-82572300D01*
G75*
G02*
X209953200Y-82521500I0J50800D01*
G01*
X209953200Y-82140500D01*
G75*
G02*
X210004000Y-82089700I50800J0D01*
G01*
G37*
G36*
G01*
X210004000Y-81327700D02*
X211020000Y-81327700D01*
G75*
G02*
X211070800Y-81378500I0J-50800D01*
G01*
X211070800Y-81759500D01*
G75*
G02*
X211020000Y-81810300I-50800J0D01*
G01*
X210004000Y-81810300D01*
G75*
G02*
X209953200Y-81759500I0J50800D01*
G01*
X209953200Y-81378500D01*
G75*
G02*
X210004000Y-81327700I50800J0D01*
G01*
G37*
G36*
G01*
X208480000Y-82851700D02*
X209496000Y-82851700D01*
G75*
G02*
X209546800Y-82902500I0J-50800D01*
G01*
X209546800Y-83537500D01*
G75*
G02*
X209496000Y-83588300I-50800J0D01*
G01*
X208480000Y-83588300D01*
G75*
G02*
X208429200Y-83537500I0J50800D01*
G01*
X208429200Y-82902500D01*
G75*
G02*
X208480000Y-82851700I50800J0D01*
G01*
G37*
G36*
G01*
X210004000Y-82851700D02*
X211020000Y-82851700D01*
G75*
G02*
X211070800Y-82902500I0J-50800D01*
G01*
X211070800Y-83537500D01*
G75*
G02*
X211020000Y-83588300I-50800J0D01*
G01*
X210004000Y-83588300D01*
G75*
G02*
X209953200Y-83537500I0J50800D01*
G01*
X209953200Y-82902500D01*
G75*
G02*
X210004000Y-82851700I50800J0D01*
G01*
G37*
G36*
G01*
X208480000Y-80311700D02*
X209496000Y-80311700D01*
G75*
G02*
X209546800Y-80362500I0J-50800D01*
G01*
X209546800Y-80997500D01*
G75*
G02*
X209496000Y-81048300I-50800J0D01*
G01*
X208480000Y-81048300D01*
G75*
G02*
X208429200Y-80997500I0J50800D01*
G01*
X208429200Y-80362500D01*
G75*
G02*
X208480000Y-80311700I50800J0D01*
G01*
G37*
G36*
G01*
X210004000Y-80311700D02*
X211020000Y-80311700D01*
G75*
G02*
X211070800Y-80362500I0J-50800D01*
G01*
X211070800Y-80997500D01*
G75*
G02*
X211020000Y-81048300I-50800J0D01*
G01*
X210004000Y-81048300D01*
G75*
G02*
X209953200Y-80997500I0J50800D01*
G01*
X209953200Y-80362500D01*
G75*
G02*
X210004000Y-80311700I50800J0D01*
G01*
G37*
G36*
G01*
X209119000Y-62257200D02*
X209881000Y-62257200D01*
G75*
G02*
X209931800Y-62308000I0J-50800D01*
G01*
X209931800Y-62816000D01*
G75*
G02*
X209881000Y-62866800I-50800J0D01*
G01*
X209119000Y-62866800D01*
G75*
G02*
X209068200Y-62816000I0J50800D01*
G01*
X209068200Y-62308000D01*
G75*
G02*
X209119000Y-62257200I50800J0D01*
G01*
G37*
G36*
G01*
X209119000Y-61495200D02*
X209881000Y-61495200D01*
G75*
G02*
X209931800Y-61546000I0J-50800D01*
G01*
X209931800Y-62054000D01*
G75*
G02*
X209881000Y-62104800I-50800J0D01*
G01*
X209119000Y-62104800D01*
G75*
G02*
X209068200Y-62054000I0J50800D01*
G01*
X209068200Y-61546000D01*
G75*
G02*
X209119000Y-61495200I50800J0D01*
G01*
G37*
G36*
G01*
X209119000Y-63414200D02*
X209881000Y-63414200D01*
G75*
G02*
X209931800Y-63465000I0J-50800D01*
G01*
X209931800Y-63973000D01*
G75*
G02*
X209881000Y-64023800I-50800J0D01*
G01*
X209119000Y-64023800D01*
G75*
G02*
X209068200Y-63973000I0J50800D01*
G01*
X209068200Y-63465000D01*
G75*
G02*
X209119000Y-63414200I50800J0D01*
G01*
G37*
G36*
G01*
X209119000Y-64176200D02*
X209881000Y-64176200D01*
G75*
G02*
X209931800Y-64227000I0J-50800D01*
G01*
X209931800Y-64735000D01*
G75*
G02*
X209881000Y-64785800I-50800J0D01*
G01*
X209119000Y-64785800D01*
G75*
G02*
X209068200Y-64735000I0J50800D01*
G01*
X209068200Y-64227000D01*
G75*
G02*
X209119000Y-64176200I50800J0D01*
G01*
G37*
G36*
G01*
X175725000Y-67495000D02*
X175725000Y-66995000D01*
G75*
G02*
X175975000Y-66745000I250000J0D01*
G01*
X177925000Y-66745000D01*
G75*
G02*
X178175000Y-66995000I0J-250000D01*
G01*
X178175000Y-67495000D01*
G75*
G02*
X177925000Y-67745000I-250000J0D01*
G01*
X175975000Y-67745000D01*
G75*
G02*
X175725000Y-67495000I0J250000D01*
G01*
G37*
G36*
G01*
X175725000Y-68765000D02*
X175725000Y-68265000D01*
G75*
G02*
X175975000Y-68015000I250000J0D01*
G01*
X177925000Y-68015000D01*
G75*
G02*
X178175000Y-68265000I0J-250000D01*
G01*
X178175000Y-68765000D01*
G75*
G02*
X177925000Y-69015000I-250000J0D01*
G01*
X175975000Y-69015000D01*
G75*
G02*
X175725000Y-68765000I0J250000D01*
G01*
G37*
G36*
G01*
X175725000Y-70035000D02*
X175725000Y-69535000D01*
G75*
G02*
X175975000Y-69285000I250000J0D01*
G01*
X177925000Y-69285000D01*
G75*
G02*
X178175000Y-69535000I0J-250000D01*
G01*
X178175000Y-70035000D01*
G75*
G02*
X177925000Y-70285000I-250000J0D01*
G01*
X175975000Y-70285000D01*
G75*
G02*
X175725000Y-70035000I0J250000D01*
G01*
G37*
G36*
G01*
X175725000Y-71305000D02*
X175725000Y-70805000D01*
G75*
G02*
X175975000Y-70555000I250000J0D01*
G01*
X177925000Y-70555000D01*
G75*
G02*
X178175000Y-70805000I0J-250000D01*
G01*
X178175000Y-71305000D01*
G75*
G02*
X177925000Y-71555000I-250000J0D01*
G01*
X175975000Y-71555000D01*
G75*
G02*
X175725000Y-71305000I0J250000D01*
G01*
G37*
G36*
G01*
X175725000Y-72575000D02*
X175725000Y-72075000D01*
G75*
G02*
X175975000Y-71825000I250000J0D01*
G01*
X177925000Y-71825000D01*
G75*
G02*
X178175000Y-72075000I0J-250000D01*
G01*
X178175000Y-72575000D01*
G75*
G02*
X177925000Y-72825000I-250000J0D01*
G01*
X175975000Y-72825000D01*
G75*
G02*
X175725000Y-72575000I0J250000D01*
G01*
G37*
G36*
G01*
X175725000Y-73845000D02*
X175725000Y-73345000D01*
G75*
G02*
X175975000Y-73095000I250000J0D01*
G01*
X177925000Y-73095000D01*
G75*
G02*
X178175000Y-73345000I0J-250000D01*
G01*
X178175000Y-73845000D01*
G75*
G02*
X177925000Y-74095000I-250000J0D01*
G01*
X175975000Y-74095000D01*
G75*
G02*
X175725000Y-73845000I0J250000D01*
G01*
G37*
G36*
G01*
X175725000Y-75115000D02*
X175725000Y-74615000D01*
G75*
G02*
X175975000Y-74365000I250000J0D01*
G01*
X177925000Y-74365000D01*
G75*
G02*
X178175000Y-74615000I0J-250000D01*
G01*
X178175000Y-75115000D01*
G75*
G02*
X177925000Y-75365000I-250000J0D01*
G01*
X175975000Y-75365000D01*
G75*
G02*
X175725000Y-75115000I0J250000D01*
G01*
G37*
G36*
G01*
X175725000Y-76385000D02*
X175725000Y-75885000D01*
G75*
G02*
X175975000Y-75635000I250000J0D01*
G01*
X177925000Y-75635000D01*
G75*
G02*
X178175000Y-75885000I0J-250000D01*
G01*
X178175000Y-76385000D01*
G75*
G02*
X177925000Y-76635000I-250000J0D01*
G01*
X175975000Y-76635000D01*
G75*
G02*
X175725000Y-76385000I0J250000D01*
G01*
G37*
G36*
G01*
X175725000Y-77655000D02*
X175725000Y-77155000D01*
G75*
G02*
X175975000Y-76905000I250000J0D01*
G01*
X177925000Y-76905000D01*
G75*
G02*
X178175000Y-77155000I0J-250000D01*
G01*
X178175000Y-77655000D01*
G75*
G02*
X177925000Y-77905000I-250000J0D01*
G01*
X175975000Y-77905000D01*
G75*
G02*
X175725000Y-77655000I0J250000D01*
G01*
G37*
G36*
G01*
X175725000Y-78925000D02*
X175725000Y-78425000D01*
G75*
G02*
X175975000Y-78175000I250000J0D01*
G01*
X177925000Y-78175000D01*
G75*
G02*
X178175000Y-78425000I0J-250000D01*
G01*
X178175000Y-78925000D01*
G75*
G02*
X177925000Y-79175000I-250000J0D01*
G01*
X175975000Y-79175000D01*
G75*
G02*
X175725000Y-78925000I0J250000D01*
G01*
G37*
G36*
G01*
X175725000Y-80195000D02*
X175725000Y-79695000D01*
G75*
G02*
X175975000Y-79445000I250000J0D01*
G01*
X177925000Y-79445000D01*
G75*
G02*
X178175000Y-79695000I0J-250000D01*
G01*
X178175000Y-80195000D01*
G75*
G02*
X177925000Y-80445000I-250000J0D01*
G01*
X175975000Y-80445000D01*
G75*
G02*
X175725000Y-80195000I0J250000D01*
G01*
G37*
G36*
G01*
X175725000Y-81465000D02*
X175725000Y-80965000D01*
G75*
G02*
X175975000Y-80715000I250000J0D01*
G01*
X177925000Y-80715000D01*
G75*
G02*
X178175000Y-80965000I0J-250000D01*
G01*
X178175000Y-81465000D01*
G75*
G02*
X177925000Y-81715000I-250000J0D01*
G01*
X175975000Y-81715000D01*
G75*
G02*
X175725000Y-81465000I0J250000D01*
G01*
G37*
G36*
G01*
X175725000Y-82735000D02*
X175725000Y-82235000D01*
G75*
G02*
X175975000Y-81985000I250000J0D01*
G01*
X177925000Y-81985000D01*
G75*
G02*
X178175000Y-82235000I0J-250000D01*
G01*
X178175000Y-82735000D01*
G75*
G02*
X177925000Y-82985000I-250000J0D01*
G01*
X175975000Y-82985000D01*
G75*
G02*
X175725000Y-82735000I0J250000D01*
G01*
G37*
G36*
G01*
X175725000Y-84005000D02*
X175725000Y-83505000D01*
G75*
G02*
X175975000Y-83255000I250000J0D01*
G01*
X177925000Y-83255000D01*
G75*
G02*
X178175000Y-83505000I0J-250000D01*
G01*
X178175000Y-84005000D01*
G75*
G02*
X177925000Y-84255000I-250000J0D01*
G01*
X175975000Y-84255000D01*
G75*
G02*
X175725000Y-84005000I0J250000D01*
G01*
G37*
G36*
G01*
X185025000Y-84005000D02*
X185025000Y-83505000D01*
G75*
G02*
X185275000Y-83255000I250000J0D01*
G01*
X187225000Y-83255000D01*
G75*
G02*
X187475000Y-83505000I0J-250000D01*
G01*
X187475000Y-84005000D01*
G75*
G02*
X187225000Y-84255000I-250000J0D01*
G01*
X185275000Y-84255000D01*
G75*
G02*
X185025000Y-84005000I0J250000D01*
G01*
G37*
G36*
G01*
X185025000Y-82735000D02*
X185025000Y-82235000D01*
G75*
G02*
X185275000Y-81985000I250000J0D01*
G01*
X187225000Y-81985000D01*
G75*
G02*
X187475000Y-82235000I0J-250000D01*
G01*
X187475000Y-82735000D01*
G75*
G02*
X187225000Y-82985000I-250000J0D01*
G01*
X185275000Y-82985000D01*
G75*
G02*
X185025000Y-82735000I0J250000D01*
G01*
G37*
G36*
G01*
X185025000Y-81465000D02*
X185025000Y-80965000D01*
G75*
G02*
X185275000Y-80715000I250000J0D01*
G01*
X187225000Y-80715000D01*
G75*
G02*
X187475000Y-80965000I0J-250000D01*
G01*
X187475000Y-81465000D01*
G75*
G02*
X187225000Y-81715000I-250000J0D01*
G01*
X185275000Y-81715000D01*
G75*
G02*
X185025000Y-81465000I0J250000D01*
G01*
G37*
G36*
G01*
X185025000Y-80195000D02*
X185025000Y-79695000D01*
G75*
G02*
X185275000Y-79445000I250000J0D01*
G01*
X187225000Y-79445000D01*
G75*
G02*
X187475000Y-79695000I0J-250000D01*
G01*
X187475000Y-80195000D01*
G75*
G02*
X187225000Y-80445000I-250000J0D01*
G01*
X185275000Y-80445000D01*
G75*
G02*
X185025000Y-80195000I0J250000D01*
G01*
G37*
G36*
G01*
X185025000Y-78925000D02*
X185025000Y-78425000D01*
G75*
G02*
X185275000Y-78175000I250000J0D01*
G01*
X187225000Y-78175000D01*
G75*
G02*
X187475000Y-78425000I0J-250000D01*
G01*
X187475000Y-78925000D01*
G75*
G02*
X187225000Y-79175000I-250000J0D01*
G01*
X185275000Y-79175000D01*
G75*
G02*
X185025000Y-78925000I0J250000D01*
G01*
G37*
G36*
G01*
X185025000Y-77655000D02*
X185025000Y-77155000D01*
G75*
G02*
X185275000Y-76905000I250000J0D01*
G01*
X187225000Y-76905000D01*
G75*
G02*
X187475000Y-77155000I0J-250000D01*
G01*
X187475000Y-77655000D01*
G75*
G02*
X187225000Y-77905000I-250000J0D01*
G01*
X185275000Y-77905000D01*
G75*
G02*
X185025000Y-77655000I0J250000D01*
G01*
G37*
G36*
G01*
X185025000Y-76385000D02*
X185025000Y-75885000D01*
G75*
G02*
X185275000Y-75635000I250000J0D01*
G01*
X187225000Y-75635000D01*
G75*
G02*
X187475000Y-75885000I0J-250000D01*
G01*
X187475000Y-76385000D01*
G75*
G02*
X187225000Y-76635000I-250000J0D01*
G01*
X185275000Y-76635000D01*
G75*
G02*
X185025000Y-76385000I0J250000D01*
G01*
G37*
G36*
G01*
X185025000Y-75115000D02*
X185025000Y-74615000D01*
G75*
G02*
X185275000Y-74365000I250000J0D01*
G01*
X187225000Y-74365000D01*
G75*
G02*
X187475000Y-74615000I0J-250000D01*
G01*
X187475000Y-75115000D01*
G75*
G02*
X187225000Y-75365000I-250000J0D01*
G01*
X185275000Y-75365000D01*
G75*
G02*
X185025000Y-75115000I0J250000D01*
G01*
G37*
G36*
G01*
X185025000Y-73845000D02*
X185025000Y-73345000D01*
G75*
G02*
X185275000Y-73095000I250000J0D01*
G01*
X187225000Y-73095000D01*
G75*
G02*
X187475000Y-73345000I0J-250000D01*
G01*
X187475000Y-73845000D01*
G75*
G02*
X187225000Y-74095000I-250000J0D01*
G01*
X185275000Y-74095000D01*
G75*
G02*
X185025000Y-73845000I0J250000D01*
G01*
G37*
G36*
G01*
X185025000Y-72575000D02*
X185025000Y-72075000D01*
G75*
G02*
X185275000Y-71825000I250000J0D01*
G01*
X187225000Y-71825000D01*
G75*
G02*
X187475000Y-72075000I0J-250000D01*
G01*
X187475000Y-72575000D01*
G75*
G02*
X187225000Y-72825000I-250000J0D01*
G01*
X185275000Y-72825000D01*
G75*
G02*
X185025000Y-72575000I0J250000D01*
G01*
G37*
G36*
G01*
X185025000Y-71305000D02*
X185025000Y-70805000D01*
G75*
G02*
X185275000Y-70555000I250000J0D01*
G01*
X187225000Y-70555000D01*
G75*
G02*
X187475000Y-70805000I0J-250000D01*
G01*
X187475000Y-71305000D01*
G75*
G02*
X187225000Y-71555000I-250000J0D01*
G01*
X185275000Y-71555000D01*
G75*
G02*
X185025000Y-71305000I0J250000D01*
G01*
G37*
G36*
G01*
X185025000Y-70035000D02*
X185025000Y-69535000D01*
G75*
G02*
X185275000Y-69285000I250000J0D01*
G01*
X187225000Y-69285000D01*
G75*
G02*
X187475000Y-69535000I0J-250000D01*
G01*
X187475000Y-70035000D01*
G75*
G02*
X187225000Y-70285000I-250000J0D01*
G01*
X185275000Y-70285000D01*
G75*
G02*
X185025000Y-70035000I0J250000D01*
G01*
G37*
G36*
G01*
X185025000Y-68765000D02*
X185025000Y-68265000D01*
G75*
G02*
X185275000Y-68015000I250000J0D01*
G01*
X187225000Y-68015000D01*
G75*
G02*
X187475000Y-68265000I0J-250000D01*
G01*
X187475000Y-68765000D01*
G75*
G02*
X187225000Y-69015000I-250000J0D01*
G01*
X185275000Y-69015000D01*
G75*
G02*
X185025000Y-68765000I0J250000D01*
G01*
G37*
G36*
G01*
X185025000Y-67495000D02*
X185025000Y-66995000D01*
G75*
G02*
X185275000Y-66745000I250000J0D01*
G01*
X187225000Y-66745000D01*
G75*
G02*
X187475000Y-66995000I0J-250000D01*
G01*
X187475000Y-67495000D01*
G75*
G02*
X187225000Y-67745000I-250000J0D01*
G01*
X185275000Y-67745000D01*
G75*
G02*
X185025000Y-67495000I0J250000D01*
G01*
G37*
G36*
G01*
X198500000Y-92650000D02*
X198500000Y-93450000D01*
G75*
G02*
X198300000Y-93650000I-200000J0D01*
G01*
X197000000Y-93650000D01*
G75*
G02*
X196800000Y-93450000I0J200000D01*
G01*
X196800000Y-92650000D01*
G75*
G02*
X197000000Y-92450000I200000J0D01*
G01*
X198300000Y-92450000D01*
G75*
G02*
X198500000Y-92650000I0J-200000D01*
G01*
G37*
G36*
G01*
X198500000Y-91370000D02*
X198500000Y-92170000D01*
G75*
G02*
X198300000Y-92370000I-200000J0D01*
G01*
X197000000Y-92370000D01*
G75*
G02*
X196800000Y-92170000I0J200000D01*
G01*
X196800000Y-91370000D01*
G75*
G02*
X197000000Y-91170000I200000J0D01*
G01*
X198300000Y-91170000D01*
G75*
G02*
X198500000Y-91370000I0J-200000D01*
G01*
G37*
G36*
G01*
X198500000Y-90110000D02*
X198500000Y-90910000D01*
G75*
G02*
X198300000Y-91110000I-200000J0D01*
G01*
X197000000Y-91110000D01*
G75*
G02*
X196800000Y-90910000I0J200000D01*
G01*
X196800000Y-90110000D01*
G75*
G02*
X197000000Y-89910000I200000J0D01*
G01*
X198300000Y-89910000D01*
G75*
G02*
X198500000Y-90110000I0J-200000D01*
G01*
G37*
G36*
G01*
X198500000Y-88840000D02*
X198500000Y-89640000D01*
G75*
G02*
X198300000Y-89840000I-200000J0D01*
G01*
X197000000Y-89840000D01*
G75*
G02*
X196800000Y-89640000I0J200000D01*
G01*
X196800000Y-88840000D01*
G75*
G02*
X197000000Y-88640000I200000J0D01*
G01*
X198300000Y-88640000D01*
G75*
G02*
X198500000Y-88840000I0J-200000D01*
G01*
G37*
G36*
G01*
X198500000Y-87560000D02*
X198500000Y-88360000D01*
G75*
G02*
X198300000Y-88560000I-200000J0D01*
G01*
X197000000Y-88560000D01*
G75*
G02*
X196800000Y-88360000I0J200000D01*
G01*
X196800000Y-87560000D01*
G75*
G02*
X197000000Y-87360000I200000J0D01*
G01*
X198300000Y-87360000D01*
G75*
G02*
X198500000Y-87560000I0J-200000D01*
G01*
G37*
G36*
G01*
X198500000Y-86290000D02*
X198500000Y-87090000D01*
G75*
G02*
X198300000Y-87290000I-200000J0D01*
G01*
X197000000Y-87290000D01*
G75*
G02*
X196800000Y-87090000I0J200000D01*
G01*
X196800000Y-86290000D01*
G75*
G02*
X197000000Y-86090000I200000J0D01*
G01*
X198300000Y-86090000D01*
G75*
G02*
X198500000Y-86290000I0J-200000D01*
G01*
G37*
G36*
G01*
X198500000Y-85030000D02*
X198500000Y-85830000D01*
G75*
G02*
X198300000Y-86030000I-200000J0D01*
G01*
X197000000Y-86030000D01*
G75*
G02*
X196800000Y-85830000I0J200000D01*
G01*
X196800000Y-85030000D01*
G75*
G02*
X197000000Y-84830000I200000J0D01*
G01*
X198300000Y-84830000D01*
G75*
G02*
X198500000Y-85030000I0J-200000D01*
G01*
G37*
G36*
G01*
X198500000Y-83750000D02*
X198500000Y-84550000D01*
G75*
G02*
X198300000Y-84750000I-200000J0D01*
G01*
X197000000Y-84750000D01*
G75*
G02*
X196800000Y-84550000I0J200000D01*
G01*
X196800000Y-83750000D01*
G75*
G02*
X197000000Y-83550000I200000J0D01*
G01*
X198300000Y-83550000D01*
G75*
G02*
X198500000Y-83750000I0J-200000D01*
G01*
G37*
G36*
G01*
X204800000Y-83750000D02*
X204800000Y-84550000D01*
G75*
G02*
X204600000Y-84750000I-200000J0D01*
G01*
X203300000Y-84750000D01*
G75*
G02*
X203100000Y-84550000I0J200000D01*
G01*
X203100000Y-83750000D01*
G75*
G02*
X203300000Y-83550000I200000J0D01*
G01*
X204600000Y-83550000D01*
G75*
G02*
X204800000Y-83750000I0J-200000D01*
G01*
G37*
G36*
G01*
X204800000Y-85030000D02*
X204800000Y-85830000D01*
G75*
G02*
X204600000Y-86030000I-200000J0D01*
G01*
X203300000Y-86030000D01*
G75*
G02*
X203100000Y-85830000I0J200000D01*
G01*
X203100000Y-85030000D01*
G75*
G02*
X203300000Y-84830000I200000J0D01*
G01*
X204600000Y-84830000D01*
G75*
G02*
X204800000Y-85030000I0J-200000D01*
G01*
G37*
G36*
G01*
X204800000Y-86290000D02*
X204800000Y-87090000D01*
G75*
G02*
X204600000Y-87290000I-200000J0D01*
G01*
X203300000Y-87290000D01*
G75*
G02*
X203100000Y-87090000I0J200000D01*
G01*
X203100000Y-86290000D01*
G75*
G02*
X203300000Y-86090000I200000J0D01*
G01*
X204600000Y-86090000D01*
G75*
G02*
X204800000Y-86290000I0J-200000D01*
G01*
G37*
G36*
G01*
X204800000Y-87560000D02*
X204800000Y-88360000D01*
G75*
G02*
X204600000Y-88560000I-200000J0D01*
G01*
X203300000Y-88560000D01*
G75*
G02*
X203100000Y-88360000I0J200000D01*
G01*
X203100000Y-87560000D01*
G75*
G02*
X203300000Y-87360000I200000J0D01*
G01*
X204600000Y-87360000D01*
G75*
G02*
X204800000Y-87560000I0J-200000D01*
G01*
G37*
G36*
G01*
X204800000Y-88840000D02*
X204800000Y-89640000D01*
G75*
G02*
X204600000Y-89840000I-200000J0D01*
G01*
X203300000Y-89840000D01*
G75*
G02*
X203100000Y-89640000I0J200000D01*
G01*
X203100000Y-88840000D01*
G75*
G02*
X203300000Y-88640000I200000J0D01*
G01*
X204600000Y-88640000D01*
G75*
G02*
X204800000Y-88840000I0J-200000D01*
G01*
G37*
G36*
G01*
X204800000Y-90110000D02*
X204800000Y-90910000D01*
G75*
G02*
X204600000Y-91110000I-200000J0D01*
G01*
X203300000Y-91110000D01*
G75*
G02*
X203100000Y-90910000I0J200000D01*
G01*
X203100000Y-90110000D01*
G75*
G02*
X203300000Y-89910000I200000J0D01*
G01*
X204600000Y-89910000D01*
G75*
G02*
X204800000Y-90110000I0J-200000D01*
G01*
G37*
G36*
G01*
X204800000Y-91370000D02*
X204800000Y-92170000D01*
G75*
G02*
X204600000Y-92370000I-200000J0D01*
G01*
X203300000Y-92370000D01*
G75*
G02*
X203100000Y-92170000I0J200000D01*
G01*
X203100000Y-91370000D01*
G75*
G02*
X203300000Y-91170000I200000J0D01*
G01*
X204600000Y-91170000D01*
G75*
G02*
X204800000Y-91370000I0J-200000D01*
G01*
G37*
G36*
G01*
X204800000Y-92650000D02*
X204800000Y-93450000D01*
G75*
G02*
X204600000Y-93650000I-200000J0D01*
G01*
X203300000Y-93650000D01*
G75*
G02*
X203100000Y-93450000I0J200000D01*
G01*
X203100000Y-92650000D01*
G75*
G02*
X203300000Y-92450000I200000J0D01*
G01*
X204600000Y-92450000D01*
G75*
G02*
X204800000Y-92650000I0J-200000D01*
G01*
G37*
G36*
G01*
X129950000Y-71200000D02*
X130750000Y-71200000D01*
G75*
G02*
X130950000Y-71400000I0J-200000D01*
G01*
X130950000Y-72700000D01*
G75*
G02*
X130750000Y-72900000I-200000J0D01*
G01*
X129950000Y-72900000D01*
G75*
G02*
X129750000Y-72700000I0J200000D01*
G01*
X129750000Y-71400000D01*
G75*
G02*
X129950000Y-71200000I200000J0D01*
G01*
G37*
G36*
G01*
X128670000Y-71200000D02*
X129470000Y-71200000D01*
G75*
G02*
X129670000Y-71400000I0J-200000D01*
G01*
X129670000Y-72700000D01*
G75*
G02*
X129470000Y-72900000I-200000J0D01*
G01*
X128670000Y-72900000D01*
G75*
G02*
X128470000Y-72700000I0J200000D01*
G01*
X128470000Y-71400000D01*
G75*
G02*
X128670000Y-71200000I200000J0D01*
G01*
G37*
G36*
G01*
X127410000Y-71200000D02*
X128210000Y-71200000D01*
G75*
G02*
X128410000Y-71400000I0J-200000D01*
G01*
X128410000Y-72700000D01*
G75*
G02*
X128210000Y-72900000I-200000J0D01*
G01*
X127410000Y-72900000D01*
G75*
G02*
X127210000Y-72700000I0J200000D01*
G01*
X127210000Y-71400000D01*
G75*
G02*
X127410000Y-71200000I200000J0D01*
G01*
G37*
G36*
G01*
X126140000Y-71200000D02*
X126940000Y-71200000D01*
G75*
G02*
X127140000Y-71400000I0J-200000D01*
G01*
X127140000Y-72700000D01*
G75*
G02*
X126940000Y-72900000I-200000J0D01*
G01*
X126140000Y-72900000D01*
G75*
G02*
X125940000Y-72700000I0J200000D01*
G01*
X125940000Y-71400000D01*
G75*
G02*
X126140000Y-71200000I200000J0D01*
G01*
G37*
G36*
G01*
X124860000Y-71200000D02*
X125660000Y-71200000D01*
G75*
G02*
X125860000Y-71400000I0J-200000D01*
G01*
X125860000Y-72700000D01*
G75*
G02*
X125660000Y-72900000I-200000J0D01*
G01*
X124860000Y-72900000D01*
G75*
G02*
X124660000Y-72700000I0J200000D01*
G01*
X124660000Y-71400000D01*
G75*
G02*
X124860000Y-71200000I200000J0D01*
G01*
G37*
G36*
G01*
X123590000Y-71200000D02*
X124390000Y-71200000D01*
G75*
G02*
X124590000Y-71400000I0J-200000D01*
G01*
X124590000Y-72700000D01*
G75*
G02*
X124390000Y-72900000I-200000J0D01*
G01*
X123590000Y-72900000D01*
G75*
G02*
X123390000Y-72700000I0J200000D01*
G01*
X123390000Y-71400000D01*
G75*
G02*
X123590000Y-71200000I200000J0D01*
G01*
G37*
G36*
G01*
X122330000Y-71200000D02*
X123130000Y-71200000D01*
G75*
G02*
X123330000Y-71400000I0J-200000D01*
G01*
X123330000Y-72700000D01*
G75*
G02*
X123130000Y-72900000I-200000J0D01*
G01*
X122330000Y-72900000D01*
G75*
G02*
X122130000Y-72700000I0J200000D01*
G01*
X122130000Y-71400000D01*
G75*
G02*
X122330000Y-71200000I200000J0D01*
G01*
G37*
G36*
G01*
X121050000Y-71200000D02*
X121850000Y-71200000D01*
G75*
G02*
X122050000Y-71400000I0J-200000D01*
G01*
X122050000Y-72700000D01*
G75*
G02*
X121850000Y-72900000I-200000J0D01*
G01*
X121050000Y-72900000D01*
G75*
G02*
X120850000Y-72700000I0J200000D01*
G01*
X120850000Y-71400000D01*
G75*
G02*
X121050000Y-71200000I200000J0D01*
G01*
G37*
G36*
G01*
X121050000Y-77500000D02*
X121850000Y-77500000D01*
G75*
G02*
X122050000Y-77700000I0J-200000D01*
G01*
X122050000Y-79000000D01*
G75*
G02*
X121850000Y-79200000I-200000J0D01*
G01*
X121050000Y-79200000D01*
G75*
G02*
X120850000Y-79000000I0J200000D01*
G01*
X120850000Y-77700000D01*
G75*
G02*
X121050000Y-77500000I200000J0D01*
G01*
G37*
G36*
G01*
X122330000Y-77500000D02*
X123130000Y-77500000D01*
G75*
G02*
X123330000Y-77700000I0J-200000D01*
G01*
X123330000Y-79000000D01*
G75*
G02*
X123130000Y-79200000I-200000J0D01*
G01*
X122330000Y-79200000D01*
G75*
G02*
X122130000Y-79000000I0J200000D01*
G01*
X122130000Y-77700000D01*
G75*
G02*
X122330000Y-77500000I200000J0D01*
G01*
G37*
G36*
G01*
X123590000Y-77500000D02*
X124390000Y-77500000D01*
G75*
G02*
X124590000Y-77700000I0J-200000D01*
G01*
X124590000Y-79000000D01*
G75*
G02*
X124390000Y-79200000I-200000J0D01*
G01*
X123590000Y-79200000D01*
G75*
G02*
X123390000Y-79000000I0J200000D01*
G01*
X123390000Y-77700000D01*
G75*
G02*
X123590000Y-77500000I200000J0D01*
G01*
G37*
G36*
G01*
X124860000Y-77500000D02*
X125660000Y-77500000D01*
G75*
G02*
X125860000Y-77700000I0J-200000D01*
G01*
X125860000Y-79000000D01*
G75*
G02*
X125660000Y-79200000I-200000J0D01*
G01*
X124860000Y-79200000D01*
G75*
G02*
X124660000Y-79000000I0J200000D01*
G01*
X124660000Y-77700000D01*
G75*
G02*
X124860000Y-77500000I200000J0D01*
G01*
G37*
G36*
G01*
X126140000Y-77500000D02*
X126940000Y-77500000D01*
G75*
G02*
X127140000Y-77700000I0J-200000D01*
G01*
X127140000Y-79000000D01*
G75*
G02*
X126940000Y-79200000I-200000J0D01*
G01*
X126140000Y-79200000D01*
G75*
G02*
X125940000Y-79000000I0J200000D01*
G01*
X125940000Y-77700000D01*
G75*
G02*
X126140000Y-77500000I200000J0D01*
G01*
G37*
G36*
G01*
X127410000Y-77500000D02*
X128210000Y-77500000D01*
G75*
G02*
X128410000Y-77700000I0J-200000D01*
G01*
X128410000Y-79000000D01*
G75*
G02*
X128210000Y-79200000I-200000J0D01*
G01*
X127410000Y-79200000D01*
G75*
G02*
X127210000Y-79000000I0J200000D01*
G01*
X127210000Y-77700000D01*
G75*
G02*
X127410000Y-77500000I200000J0D01*
G01*
G37*
G36*
G01*
X128670000Y-77500000D02*
X129470000Y-77500000D01*
G75*
G02*
X129670000Y-77700000I0J-200000D01*
G01*
X129670000Y-79000000D01*
G75*
G02*
X129470000Y-79200000I-200000J0D01*
G01*
X128670000Y-79200000D01*
G75*
G02*
X128470000Y-79000000I0J200000D01*
G01*
X128470000Y-77700000D01*
G75*
G02*
X128670000Y-77500000I200000J0D01*
G01*
G37*
G36*
G01*
X129950000Y-77500000D02*
X130750000Y-77500000D01*
G75*
G02*
X130950000Y-77700000I0J-200000D01*
G01*
X130950000Y-79000000D01*
G75*
G02*
X130750000Y-79200000I-200000J0D01*
G01*
X129950000Y-79200000D01*
G75*
G02*
X129750000Y-79000000I0J200000D01*
G01*
X129750000Y-77700000D01*
G75*
G02*
X129950000Y-77500000I200000J0D01*
G01*
G37*
G36*
G01*
X167000000Y-44950000D02*
X167000000Y-44150000D01*
G75*
G02*
X167200000Y-43950000I200000J0D01*
G01*
X168500000Y-43950000D01*
G75*
G02*
X168700000Y-44150000I0J-200000D01*
G01*
X168700000Y-44950000D01*
G75*
G02*
X168500000Y-45150000I-200000J0D01*
G01*
X167200000Y-45150000D01*
G75*
G02*
X167000000Y-44950000I0J200000D01*
G01*
G37*
G36*
G01*
X167000000Y-46230000D02*
X167000000Y-45430000D01*
G75*
G02*
X167200000Y-45230000I200000J0D01*
G01*
X168500000Y-45230000D01*
G75*
G02*
X168700000Y-45430000I0J-200000D01*
G01*
X168700000Y-46230000D01*
G75*
G02*
X168500000Y-46430000I-200000J0D01*
G01*
X167200000Y-46430000D01*
G75*
G02*
X167000000Y-46230000I0J200000D01*
G01*
G37*
G36*
G01*
X167000000Y-47490000D02*
X167000000Y-46690000D01*
G75*
G02*
X167200000Y-46490000I200000J0D01*
G01*
X168500000Y-46490000D01*
G75*
G02*
X168700000Y-46690000I0J-200000D01*
G01*
X168700000Y-47490000D01*
G75*
G02*
X168500000Y-47690000I-200000J0D01*
G01*
X167200000Y-47690000D01*
G75*
G02*
X167000000Y-47490000I0J200000D01*
G01*
G37*
G36*
G01*
X167000000Y-48760000D02*
X167000000Y-47960000D01*
G75*
G02*
X167200000Y-47760000I200000J0D01*
G01*
X168500000Y-47760000D01*
G75*
G02*
X168700000Y-47960000I0J-200000D01*
G01*
X168700000Y-48760000D01*
G75*
G02*
X168500000Y-48960000I-200000J0D01*
G01*
X167200000Y-48960000D01*
G75*
G02*
X167000000Y-48760000I0J200000D01*
G01*
G37*
G36*
G01*
X167000000Y-50040000D02*
X167000000Y-49240000D01*
G75*
G02*
X167200000Y-49040000I200000J0D01*
G01*
X168500000Y-49040000D01*
G75*
G02*
X168700000Y-49240000I0J-200000D01*
G01*
X168700000Y-50040000D01*
G75*
G02*
X168500000Y-50240000I-200000J0D01*
G01*
X167200000Y-50240000D01*
G75*
G02*
X167000000Y-50040000I0J200000D01*
G01*
G37*
G36*
G01*
X167000000Y-51310000D02*
X167000000Y-50510000D01*
G75*
G02*
X167200000Y-50310000I200000J0D01*
G01*
X168500000Y-50310000D01*
G75*
G02*
X168700000Y-50510000I0J-200000D01*
G01*
X168700000Y-51310000D01*
G75*
G02*
X168500000Y-51510000I-200000J0D01*
G01*
X167200000Y-51510000D01*
G75*
G02*
X167000000Y-51310000I0J200000D01*
G01*
G37*
G36*
G01*
X167000000Y-52570000D02*
X167000000Y-51770000D01*
G75*
G02*
X167200000Y-51570000I200000J0D01*
G01*
X168500000Y-51570000D01*
G75*
G02*
X168700000Y-51770000I0J-200000D01*
G01*
X168700000Y-52570000D01*
G75*
G02*
X168500000Y-52770000I-200000J0D01*
G01*
X167200000Y-52770000D01*
G75*
G02*
X167000000Y-52570000I0J200000D01*
G01*
G37*
G36*
G01*
X167000000Y-53850000D02*
X167000000Y-53050000D01*
G75*
G02*
X167200000Y-52850000I200000J0D01*
G01*
X168500000Y-52850000D01*
G75*
G02*
X168700000Y-53050000I0J-200000D01*
G01*
X168700000Y-53850000D01*
G75*
G02*
X168500000Y-54050000I-200000J0D01*
G01*
X167200000Y-54050000D01*
G75*
G02*
X167000000Y-53850000I0J200000D01*
G01*
G37*
G36*
G01*
X173300000Y-53850000D02*
X173300000Y-53050000D01*
G75*
G02*
X173500000Y-52850000I200000J0D01*
G01*
X174800000Y-52850000D01*
G75*
G02*
X175000000Y-53050000I0J-200000D01*
G01*
X175000000Y-53850000D01*
G75*
G02*
X174800000Y-54050000I-200000J0D01*
G01*
X173500000Y-54050000D01*
G75*
G02*
X173300000Y-53850000I0J200000D01*
G01*
G37*
G36*
G01*
X173300000Y-52570000D02*
X173300000Y-51770000D01*
G75*
G02*
X173500000Y-51570000I200000J0D01*
G01*
X174800000Y-51570000D01*
G75*
G02*
X175000000Y-51770000I0J-200000D01*
G01*
X175000000Y-52570000D01*
G75*
G02*
X174800000Y-52770000I-200000J0D01*
G01*
X173500000Y-52770000D01*
G75*
G02*
X173300000Y-52570000I0J200000D01*
G01*
G37*
G36*
G01*
X173300000Y-51310000D02*
X173300000Y-50510000D01*
G75*
G02*
X173500000Y-50310000I200000J0D01*
G01*
X174800000Y-50310000D01*
G75*
G02*
X175000000Y-50510000I0J-200000D01*
G01*
X175000000Y-51310000D01*
G75*
G02*
X174800000Y-51510000I-200000J0D01*
G01*
X173500000Y-51510000D01*
G75*
G02*
X173300000Y-51310000I0J200000D01*
G01*
G37*
G36*
G01*
X173300000Y-50040000D02*
X173300000Y-49240000D01*
G75*
G02*
X173500000Y-49040000I200000J0D01*
G01*
X174800000Y-49040000D01*
G75*
G02*
X175000000Y-49240000I0J-200000D01*
G01*
X175000000Y-50040000D01*
G75*
G02*
X174800000Y-50240000I-200000J0D01*
G01*
X173500000Y-50240000D01*
G75*
G02*
X173300000Y-50040000I0J200000D01*
G01*
G37*
G36*
G01*
X173300000Y-48760000D02*
X173300000Y-47960000D01*
G75*
G02*
X173500000Y-47760000I200000J0D01*
G01*
X174800000Y-47760000D01*
G75*
G02*
X175000000Y-47960000I0J-200000D01*
G01*
X175000000Y-48760000D01*
G75*
G02*
X174800000Y-48960000I-200000J0D01*
G01*
X173500000Y-48960000D01*
G75*
G02*
X173300000Y-48760000I0J200000D01*
G01*
G37*
G36*
G01*
X173300000Y-47490000D02*
X173300000Y-46690000D01*
G75*
G02*
X173500000Y-46490000I200000J0D01*
G01*
X174800000Y-46490000D01*
G75*
G02*
X175000000Y-46690000I0J-200000D01*
G01*
X175000000Y-47490000D01*
G75*
G02*
X174800000Y-47690000I-200000J0D01*
G01*
X173500000Y-47690000D01*
G75*
G02*
X173300000Y-47490000I0J200000D01*
G01*
G37*
G36*
G01*
X173300000Y-46230000D02*
X173300000Y-45430000D01*
G75*
G02*
X173500000Y-45230000I200000J0D01*
G01*
X174800000Y-45230000D01*
G75*
G02*
X175000000Y-45430000I0J-200000D01*
G01*
X175000000Y-46230000D01*
G75*
G02*
X174800000Y-46430000I-200000J0D01*
G01*
X173500000Y-46430000D01*
G75*
G02*
X173300000Y-46230000I0J200000D01*
G01*
G37*
G36*
G01*
X173300000Y-44950000D02*
X173300000Y-44150000D01*
G75*
G02*
X173500000Y-43950000I200000J0D01*
G01*
X174800000Y-43950000D01*
G75*
G02*
X175000000Y-44150000I0J-200000D01*
G01*
X175000000Y-44950000D01*
G75*
G02*
X174800000Y-45150000I-200000J0D01*
G01*
X173500000Y-45150000D01*
G75*
G02*
X173300000Y-44950000I0J200000D01*
G01*
G37*
G36*
G01*
X201200000Y-78050000D02*
X201200000Y-78850000D01*
G75*
G02*
X201000000Y-79050000I-200000J0D01*
G01*
X199700000Y-79050000D01*
G75*
G02*
X199500000Y-78850000I0J200000D01*
G01*
X199500000Y-78050000D01*
G75*
G02*
X199700000Y-77850000I200000J0D01*
G01*
X201000000Y-77850000D01*
G75*
G02*
X201200000Y-78050000I0J-200000D01*
G01*
G37*
G36*
G01*
X201200000Y-76770000D02*
X201200000Y-77570000D01*
G75*
G02*
X201000000Y-77770000I-200000J0D01*
G01*
X199700000Y-77770000D01*
G75*
G02*
X199500000Y-77570000I0J200000D01*
G01*
X199500000Y-76770000D01*
G75*
G02*
X199700000Y-76570000I200000J0D01*
G01*
X201000000Y-76570000D01*
G75*
G02*
X201200000Y-76770000I0J-200000D01*
G01*
G37*
G36*
G01*
X201200000Y-75510000D02*
X201200000Y-76310000D01*
G75*
G02*
X201000000Y-76510000I-200000J0D01*
G01*
X199700000Y-76510000D01*
G75*
G02*
X199500000Y-76310000I0J200000D01*
G01*
X199500000Y-75510000D01*
G75*
G02*
X199700000Y-75310000I200000J0D01*
G01*
X201000000Y-75310000D01*
G75*
G02*
X201200000Y-75510000I0J-200000D01*
G01*
G37*
G36*
G01*
X201200000Y-74240000D02*
X201200000Y-75040000D01*
G75*
G02*
X201000000Y-75240000I-200000J0D01*
G01*
X199700000Y-75240000D01*
G75*
G02*
X199500000Y-75040000I0J200000D01*
G01*
X199500000Y-74240000D01*
G75*
G02*
X199700000Y-74040000I200000J0D01*
G01*
X201000000Y-74040000D01*
G75*
G02*
X201200000Y-74240000I0J-200000D01*
G01*
G37*
G36*
G01*
X201200000Y-72960000D02*
X201200000Y-73760000D01*
G75*
G02*
X201000000Y-73960000I-200000J0D01*
G01*
X199700000Y-73960000D01*
G75*
G02*
X199500000Y-73760000I0J200000D01*
G01*
X199500000Y-72960000D01*
G75*
G02*
X199700000Y-72760000I200000J0D01*
G01*
X201000000Y-72760000D01*
G75*
G02*
X201200000Y-72960000I0J-200000D01*
G01*
G37*
G36*
G01*
X201200000Y-71690000D02*
X201200000Y-72490000D01*
G75*
G02*
X201000000Y-72690000I-200000J0D01*
G01*
X199700000Y-72690000D01*
G75*
G02*
X199500000Y-72490000I0J200000D01*
G01*
X199500000Y-71690000D01*
G75*
G02*
X199700000Y-71490000I200000J0D01*
G01*
X201000000Y-71490000D01*
G75*
G02*
X201200000Y-71690000I0J-200000D01*
G01*
G37*
G36*
G01*
X201200000Y-70430000D02*
X201200000Y-71230000D01*
G75*
G02*
X201000000Y-71430000I-200000J0D01*
G01*
X199700000Y-71430000D01*
G75*
G02*
X199500000Y-71230000I0J200000D01*
G01*
X199500000Y-70430000D01*
G75*
G02*
X199700000Y-70230000I200000J0D01*
G01*
X201000000Y-70230000D01*
G75*
G02*
X201200000Y-70430000I0J-200000D01*
G01*
G37*
G36*
G01*
X201200000Y-69150000D02*
X201200000Y-69950000D01*
G75*
G02*
X201000000Y-70150000I-200000J0D01*
G01*
X199700000Y-70150000D01*
G75*
G02*
X199500000Y-69950000I0J200000D01*
G01*
X199500000Y-69150000D01*
G75*
G02*
X199700000Y-68950000I200000J0D01*
G01*
X201000000Y-68950000D01*
G75*
G02*
X201200000Y-69150000I0J-200000D01*
G01*
G37*
G36*
G01*
X194900000Y-69150000D02*
X194900000Y-69950000D01*
G75*
G02*
X194700000Y-70150000I-200000J0D01*
G01*
X193400000Y-70150000D01*
G75*
G02*
X193200000Y-69950000I0J200000D01*
G01*
X193200000Y-69150000D01*
G75*
G02*
X193400000Y-68950000I200000J0D01*
G01*
X194700000Y-68950000D01*
G75*
G02*
X194900000Y-69150000I0J-200000D01*
G01*
G37*
G36*
G01*
X194900000Y-70430000D02*
X194900000Y-71230000D01*
G75*
G02*
X194700000Y-71430000I-200000J0D01*
G01*
X193400000Y-71430000D01*
G75*
G02*
X193200000Y-71230000I0J200000D01*
G01*
X193200000Y-70430000D01*
G75*
G02*
X193400000Y-70230000I200000J0D01*
G01*
X194700000Y-70230000D01*
G75*
G02*
X194900000Y-70430000I0J-200000D01*
G01*
G37*
G36*
G01*
X194900000Y-71690000D02*
X194900000Y-72490000D01*
G75*
G02*
X194700000Y-72690000I-200000J0D01*
G01*
X193400000Y-72690000D01*
G75*
G02*
X193200000Y-72490000I0J200000D01*
G01*
X193200000Y-71690000D01*
G75*
G02*
X193400000Y-71490000I200000J0D01*
G01*
X194700000Y-71490000D01*
G75*
G02*
X194900000Y-71690000I0J-200000D01*
G01*
G37*
G36*
G01*
X194900000Y-72960000D02*
X194900000Y-73760000D01*
G75*
G02*
X194700000Y-73960000I-200000J0D01*
G01*
X193400000Y-73960000D01*
G75*
G02*
X193200000Y-73760000I0J200000D01*
G01*
X193200000Y-72960000D01*
G75*
G02*
X193400000Y-72760000I200000J0D01*
G01*
X194700000Y-72760000D01*
G75*
G02*
X194900000Y-72960000I0J-200000D01*
G01*
G37*
G36*
G01*
X194900000Y-74240000D02*
X194900000Y-75040000D01*
G75*
G02*
X194700000Y-75240000I-200000J0D01*
G01*
X193400000Y-75240000D01*
G75*
G02*
X193200000Y-75040000I0J200000D01*
G01*
X193200000Y-74240000D01*
G75*
G02*
X193400000Y-74040000I200000J0D01*
G01*
X194700000Y-74040000D01*
G75*
G02*
X194900000Y-74240000I0J-200000D01*
G01*
G37*
G36*
G01*
X194900000Y-75510000D02*
X194900000Y-76310000D01*
G75*
G02*
X194700000Y-76510000I-200000J0D01*
G01*
X193400000Y-76510000D01*
G75*
G02*
X193200000Y-76310000I0J200000D01*
G01*
X193200000Y-75510000D01*
G75*
G02*
X193400000Y-75310000I200000J0D01*
G01*
X194700000Y-75310000D01*
G75*
G02*
X194900000Y-75510000I0J-200000D01*
G01*
G37*
G36*
G01*
X194900000Y-76770000D02*
X194900000Y-77570000D01*
G75*
G02*
X194700000Y-77770000I-200000J0D01*
G01*
X193400000Y-77770000D01*
G75*
G02*
X193200000Y-77570000I0J200000D01*
G01*
X193200000Y-76770000D01*
G75*
G02*
X193400000Y-76570000I200000J0D01*
G01*
X194700000Y-76570000D01*
G75*
G02*
X194900000Y-76770000I0J-200000D01*
G01*
G37*
G36*
G01*
X194900000Y-78050000D02*
X194900000Y-78850000D01*
G75*
G02*
X194700000Y-79050000I-200000J0D01*
G01*
X193400000Y-79050000D01*
G75*
G02*
X193200000Y-78850000I0J200000D01*
G01*
X193200000Y-78050000D01*
G75*
G02*
X193400000Y-77850000I200000J0D01*
G01*
X194700000Y-77850000D01*
G75*
G02*
X194900000Y-78050000I0J-200000D01*
G01*
G37*
G36*
G01*
X210475000Y-105350000D02*
X210475000Y-106450000D01*
G75*
G02*
X210275000Y-106650000I-200000J0D01*
G01*
X205675000Y-106650000D01*
G75*
G02*
X205475000Y-106450000I0J200000D01*
G01*
X205475000Y-105350000D01*
G75*
G02*
X205675000Y-105150000I200000J0D01*
G01*
X210275000Y-105150000D01*
G75*
G02*
X210475000Y-105350000I0J-200000D01*
G01*
G37*
G36*
G01*
X210475000Y-103650000D02*
X210475000Y-104750000D01*
G75*
G02*
X210275000Y-104950000I-200000J0D01*
G01*
X205675000Y-104950000D01*
G75*
G02*
X205475000Y-104750000I0J200000D01*
G01*
X205475000Y-103650000D01*
G75*
G02*
X205675000Y-103450000I200000J0D01*
G01*
X210275000Y-103450000D01*
G75*
G02*
X210475000Y-103650000I0J-200000D01*
G01*
G37*
G36*
G01*
X210475000Y-101950000D02*
X210475000Y-103050000D01*
G75*
G02*
X210275000Y-103250000I-200000J0D01*
G01*
X205675000Y-103250000D01*
G75*
G02*
X205475000Y-103050000I0J200000D01*
G01*
X205475000Y-101950000D01*
G75*
G02*
X205675000Y-101750000I200000J0D01*
G01*
X210275000Y-101750000D01*
G75*
G02*
X210475000Y-101950000I0J-200000D01*
G01*
G37*
G36*
G01*
X210475000Y-100250000D02*
X210475000Y-101350000D01*
G75*
G02*
X210275000Y-101550000I-200000J0D01*
G01*
X205675000Y-101550000D01*
G75*
G02*
X205475000Y-101350000I0J200000D01*
G01*
X205475000Y-100250000D01*
G75*
G02*
X205675000Y-100050000I200000J0D01*
G01*
X210275000Y-100050000D01*
G75*
G02*
X210475000Y-100250000I0J-200000D01*
G01*
G37*
G36*
G01*
X210475000Y-98550000D02*
X210475000Y-99650000D01*
G75*
G02*
X210275000Y-99850000I-200000J0D01*
G01*
X205675000Y-99850000D01*
G75*
G02*
X205475000Y-99650000I0J200000D01*
G01*
X205475000Y-98550000D01*
G75*
G02*
X205675000Y-98350000I200000J0D01*
G01*
X210275000Y-98350000D01*
G75*
G02*
X210475000Y-98550000I0J-200000D01*
G01*
G37*
G36*
G01*
X203725000Y-97099999D02*
X203725000Y-107900001D01*
G75*
G02*
X203525001Y-108100000I-199999J0D01*
G01*
X194124999Y-108100000D01*
G75*
G02*
X193925000Y-107900001I0J199999D01*
G01*
X193925000Y-97099999D01*
G75*
G02*
X194124999Y-96900000I199999J0D01*
G01*
X203525001Y-96900000D01*
G75*
G02*
X203725000Y-97099999I0J-199999D01*
G01*
G37*
G36*
G01*
X185320000Y-108100000D02*
X184120000Y-108100000D01*
G75*
G02*
X183920000Y-107900000I0J200000D01*
G01*
X183920000Y-105700000D01*
G75*
G02*
X184120000Y-105500000I200000J0D01*
G01*
X185320000Y-105500000D01*
G75*
G02*
X185520000Y-105700000I0J-200000D01*
G01*
X185520000Y-107900000D01*
G75*
G02*
X185320000Y-108100000I-200000J0D01*
G01*
G37*
G36*
G01*
X189880000Y-108100000D02*
X188680000Y-108100000D01*
G75*
G02*
X188480000Y-107900000I0J200000D01*
G01*
X188480000Y-105700000D01*
G75*
G02*
X188680000Y-105500000I200000J0D01*
G01*
X189880000Y-105500000D01*
G75*
G02*
X190080000Y-105700000I0J-200000D01*
G01*
X190080000Y-107900000D01*
G75*
G02*
X189880000Y-108100000I-200000J0D01*
G01*
G37*
G36*
G01*
X189900000Y-103900000D02*
X184100000Y-103900000D01*
G75*
G02*
X183900000Y-103700000I0J200000D01*
G01*
X183900000Y-97300000D01*
G75*
G02*
X184100000Y-97100000I200000J0D01*
G01*
X189900000Y-97100000D01*
G75*
G02*
X190100000Y-97300000I0J-200000D01*
G01*
X190100000Y-103700000D01*
G75*
G02*
X189900000Y-103900000I-200000J0D01*
G01*
G37*
G36*
G01*
X182199999Y-54875000D02*
X193000001Y-54875000D01*
G75*
G02*
X193200000Y-55074999I0J-199999D01*
G01*
X193200000Y-64475001D01*
G75*
G02*
X193000001Y-64675000I-199999J0D01*
G01*
X182199999Y-64675000D01*
G75*
G02*
X182000000Y-64475001I0J199999D01*
G01*
X182000000Y-55074999D01*
G75*
G02*
X182199999Y-54875000I199999J0D01*
G01*
G37*
G36*
G01*
X183650000Y-48125000D02*
X184750000Y-48125000D01*
G75*
G02*
X184950000Y-48325000I0J-200000D01*
G01*
X184950000Y-52925000D01*
G75*
G02*
X184750000Y-53125000I-200000J0D01*
G01*
X183650000Y-53125000D01*
G75*
G02*
X183450000Y-52925000I0J200000D01*
G01*
X183450000Y-48325000D01*
G75*
G02*
X183650000Y-48125000I200000J0D01*
G01*
G37*
G36*
G01*
X185350000Y-48125000D02*
X186450000Y-48125000D01*
G75*
G02*
X186650000Y-48325000I0J-200000D01*
G01*
X186650000Y-52925000D01*
G75*
G02*
X186450000Y-53125000I-200000J0D01*
G01*
X185350000Y-53125000D01*
G75*
G02*
X185150000Y-52925000I0J200000D01*
G01*
X185150000Y-48325000D01*
G75*
G02*
X185350000Y-48125000I200000J0D01*
G01*
G37*
G36*
G01*
X187050000Y-48125000D02*
X188150000Y-48125000D01*
G75*
G02*
X188350000Y-48325000I0J-200000D01*
G01*
X188350000Y-52925000D01*
G75*
G02*
X188150000Y-53125000I-200000J0D01*
G01*
X187050000Y-53125000D01*
G75*
G02*
X186850000Y-52925000I0J200000D01*
G01*
X186850000Y-48325000D01*
G75*
G02*
X187050000Y-48125000I200000J0D01*
G01*
G37*
G36*
G01*
X188750000Y-48125000D02*
X189850000Y-48125000D01*
G75*
G02*
X190050000Y-48325000I0J-200000D01*
G01*
X190050000Y-52925000D01*
G75*
G02*
X189850000Y-53125000I-200000J0D01*
G01*
X188750000Y-53125000D01*
G75*
G02*
X188550000Y-52925000I0J200000D01*
G01*
X188550000Y-48325000D01*
G75*
G02*
X188750000Y-48125000I200000J0D01*
G01*
G37*
G36*
G01*
X190450000Y-48125000D02*
X191550000Y-48125000D01*
G75*
G02*
X191750000Y-48325000I0J-200000D01*
G01*
X191750000Y-52925000D01*
G75*
G02*
X191550000Y-53125000I-200000J0D01*
G01*
X190450000Y-53125000D01*
G75*
G02*
X190250000Y-52925000I0J200000D01*
G01*
X190250000Y-48325000D01*
G75*
G02*
X190450000Y-48125000I200000J0D01*
G01*
G37*
G36*
G01*
X238954500Y-99038300D02*
X237684500Y-99038300D01*
G75*
G02*
X237633700Y-98987500I0J50800D01*
G01*
X237633700Y-98662500D01*
G75*
G02*
X237684500Y-98611700I50800J0D01*
G01*
X238954500Y-98611700D01*
G75*
G02*
X239005300Y-98662500I0J-50800D01*
G01*
X239005300Y-98987500D01*
G75*
G02*
X238954500Y-99038300I-50800J0D01*
G01*
G37*
G36*
G01*
X238954500Y-98388300D02*
X237684500Y-98388300D01*
G75*
G02*
X237633700Y-98337500I0J50800D01*
G01*
X237633700Y-98012500D01*
G75*
G02*
X237684500Y-97961700I50800J0D01*
G01*
X238954500Y-97961700D01*
G75*
G02*
X239005300Y-98012500I0J-50800D01*
G01*
X239005300Y-98337500D01*
G75*
G02*
X238954500Y-98388300I-50800J0D01*
G01*
G37*
G36*
G01*
X238954500Y-97738300D02*
X237684500Y-97738300D01*
G75*
G02*
X237633700Y-97687500I0J50800D01*
G01*
X237633700Y-97362500D01*
G75*
G02*
X237684500Y-97311700I50800J0D01*
G01*
X238954500Y-97311700D01*
G75*
G02*
X239005300Y-97362500I0J-50800D01*
G01*
X239005300Y-97687500D01*
G75*
G02*
X238954500Y-97738300I-50800J0D01*
G01*
G37*
G36*
G01*
X238954500Y-97088300D02*
X237684500Y-97088300D01*
G75*
G02*
X237633700Y-97037500I0J50800D01*
G01*
X237633700Y-96712500D01*
G75*
G02*
X237684500Y-96661700I50800J0D01*
G01*
X238954500Y-96661700D01*
G75*
G02*
X239005300Y-96712500I0J-50800D01*
G01*
X239005300Y-97037500D01*
G75*
G02*
X238954500Y-97088300I-50800J0D01*
G01*
G37*
G36*
G01*
X238954500Y-96438300D02*
X237684500Y-96438300D01*
G75*
G02*
X237633700Y-96387500I0J50800D01*
G01*
X237633700Y-96062500D01*
G75*
G02*
X237684500Y-96011700I50800J0D01*
G01*
X238954500Y-96011700D01*
G75*
G02*
X239005300Y-96062500I0J-50800D01*
G01*
X239005300Y-96387500D01*
G75*
G02*
X238954500Y-96438300I-50800J0D01*
G01*
G37*
G36*
G01*
X238954500Y-95788300D02*
X237684500Y-95788300D01*
G75*
G02*
X237633700Y-95737500I0J50800D01*
G01*
X237633700Y-95412500D01*
G75*
G02*
X237684500Y-95361700I50800J0D01*
G01*
X238954500Y-95361700D01*
G75*
G02*
X239005300Y-95412500I0J-50800D01*
G01*
X239005300Y-95737500D01*
G75*
G02*
X238954500Y-95788300I-50800J0D01*
G01*
G37*
G36*
G01*
X238954500Y-95138300D02*
X237684500Y-95138300D01*
G75*
G02*
X237633700Y-95087500I0J50800D01*
G01*
X237633700Y-94762500D01*
G75*
G02*
X237684500Y-94711700I50800J0D01*
G01*
X238954500Y-94711700D01*
G75*
G02*
X239005300Y-94762500I0J-50800D01*
G01*
X239005300Y-95087500D01*
G75*
G02*
X238954500Y-95138300I-50800J0D01*
G01*
G37*
G36*
G01*
X238954500Y-94488300D02*
X237684500Y-94488300D01*
G75*
G02*
X237633700Y-94437500I0J50800D01*
G01*
X237633700Y-94112500D01*
G75*
G02*
X237684500Y-94061700I50800J0D01*
G01*
X238954500Y-94061700D01*
G75*
G02*
X239005300Y-94112500I0J-50800D01*
G01*
X239005300Y-94437500D01*
G75*
G02*
X238954500Y-94488300I-50800J0D01*
G01*
G37*
G36*
G01*
X238954500Y-93838300D02*
X237684500Y-93838300D01*
G75*
G02*
X237633700Y-93787500I0J50800D01*
G01*
X237633700Y-93462500D01*
G75*
G02*
X237684500Y-93411700I50800J0D01*
G01*
X238954500Y-93411700D01*
G75*
G02*
X239005300Y-93462500I0J-50800D01*
G01*
X239005300Y-93787500D01*
G75*
G02*
X238954500Y-93838300I-50800J0D01*
G01*
G37*
G36*
G01*
X238954500Y-93188300D02*
X237684500Y-93188300D01*
G75*
G02*
X237633700Y-93137500I0J50800D01*
G01*
X237633700Y-92812500D01*
G75*
G02*
X237684500Y-92761700I50800J0D01*
G01*
X238954500Y-92761700D01*
G75*
G02*
X239005300Y-92812500I0J-50800D01*
G01*
X239005300Y-93137500D01*
G75*
G02*
X238954500Y-93188300I-50800J0D01*
G01*
G37*
G36*
G01*
X231715500Y-93188300D02*
X230445500Y-93188300D01*
G75*
G02*
X230394700Y-93137500I0J50800D01*
G01*
X230394700Y-92812500D01*
G75*
G02*
X230445500Y-92761700I50800J0D01*
G01*
X231715500Y-92761700D01*
G75*
G02*
X231766300Y-92812500I0J-50800D01*
G01*
X231766300Y-93137500D01*
G75*
G02*
X231715500Y-93188300I-50800J0D01*
G01*
G37*
G36*
G01*
X231715500Y-93838300D02*
X230445500Y-93838300D01*
G75*
G02*
X230394700Y-93787500I0J50800D01*
G01*
X230394700Y-93462500D01*
G75*
G02*
X230445500Y-93411700I50800J0D01*
G01*
X231715500Y-93411700D01*
G75*
G02*
X231766300Y-93462500I0J-50800D01*
G01*
X231766300Y-93787500D01*
G75*
G02*
X231715500Y-93838300I-50800J0D01*
G01*
G37*
G36*
G01*
X231715500Y-94488300D02*
X230445500Y-94488300D01*
G75*
G02*
X230394700Y-94437500I0J50800D01*
G01*
X230394700Y-94112500D01*
G75*
G02*
X230445500Y-94061700I50800J0D01*
G01*
X231715500Y-94061700D01*
G75*
G02*
X231766300Y-94112500I0J-50800D01*
G01*
X231766300Y-94437500D01*
G75*
G02*
X231715500Y-94488300I-50800J0D01*
G01*
G37*
G36*
G01*
X231715500Y-95138300D02*
X230445500Y-95138300D01*
G75*
G02*
X230394700Y-95087500I0J50800D01*
G01*
X230394700Y-94762500D01*
G75*
G02*
X230445500Y-94711700I50800J0D01*
G01*
X231715500Y-94711700D01*
G75*
G02*
X231766300Y-94762500I0J-50800D01*
G01*
X231766300Y-95087500D01*
G75*
G02*
X231715500Y-95138300I-50800J0D01*
G01*
G37*
G36*
G01*
X231715500Y-95788300D02*
X230445500Y-95788300D01*
G75*
G02*
X230394700Y-95737500I0J50800D01*
G01*
X230394700Y-95412500D01*
G75*
G02*
X230445500Y-95361700I50800J0D01*
G01*
X231715500Y-95361700D01*
G75*
G02*
X231766300Y-95412500I0J-50800D01*
G01*
X231766300Y-95737500D01*
G75*
G02*
X231715500Y-95788300I-50800J0D01*
G01*
G37*
G36*
G01*
X231715500Y-96438300D02*
X230445500Y-96438300D01*
G75*
G02*
X230394700Y-96387500I0J50800D01*
G01*
X230394700Y-96062500D01*
G75*
G02*
X230445500Y-96011700I50800J0D01*
G01*
X231715500Y-96011700D01*
G75*
G02*
X231766300Y-96062500I0J-50800D01*
G01*
X231766300Y-96387500D01*
G75*
G02*
X231715500Y-96438300I-50800J0D01*
G01*
G37*
G36*
G01*
X231715500Y-97088300D02*
X230445500Y-97088300D01*
G75*
G02*
X230394700Y-97037500I0J50800D01*
G01*
X230394700Y-96712500D01*
G75*
G02*
X230445500Y-96661700I50800J0D01*
G01*
X231715500Y-96661700D01*
G75*
G02*
X231766300Y-96712500I0J-50800D01*
G01*
X231766300Y-97037500D01*
G75*
G02*
X231715500Y-97088300I-50800J0D01*
G01*
G37*
G36*
G01*
X231715500Y-97738300D02*
X230445500Y-97738300D01*
G75*
G02*
X230394700Y-97687500I0J50800D01*
G01*
X230394700Y-97362500D01*
G75*
G02*
X230445500Y-97311700I50800J0D01*
G01*
X231715500Y-97311700D01*
G75*
G02*
X231766300Y-97362500I0J-50800D01*
G01*
X231766300Y-97687500D01*
G75*
G02*
X231715500Y-97738300I-50800J0D01*
G01*
G37*
G36*
G01*
X231715500Y-98388300D02*
X230445500Y-98388300D01*
G75*
G02*
X230394700Y-98337500I0J50800D01*
G01*
X230394700Y-98012500D01*
G75*
G02*
X230445500Y-97961700I50800J0D01*
G01*
X231715500Y-97961700D01*
G75*
G02*
X231766300Y-98012500I0J-50800D01*
G01*
X231766300Y-98337500D01*
G75*
G02*
X231715500Y-98388300I-50800J0D01*
G01*
G37*
G36*
G01*
X231715500Y-99038300D02*
X230445500Y-99038300D01*
G75*
G02*
X230394700Y-98987500I0J50800D01*
G01*
X230394700Y-98662500D01*
G75*
G02*
X230445500Y-98611700I50800J0D01*
G01*
X231715500Y-98611700D01*
G75*
G02*
X231766300Y-98662500I0J-50800D01*
G01*
X231766300Y-98987500D01*
G75*
G02*
X231715500Y-99038300I-50800J0D01*
G01*
G37*
G36*
G01*
X203150000Y-62050800D02*
X202150000Y-62050800D01*
G75*
G02*
X202099200Y-62000000I0J50800D01*
G01*
X202099200Y-61600000D01*
G75*
G02*
X202150000Y-61549200I50800J0D01*
G01*
X203150000Y-61549200D01*
G75*
G02*
X203200800Y-61600000I0J-50800D01*
G01*
X203200800Y-62000000D01*
G75*
G02*
X203150000Y-62050800I-50800J0D01*
G01*
G37*
G36*
G01*
X203150000Y-62850800D02*
X202150000Y-62850800D01*
G75*
G02*
X202099200Y-62800000I0J50800D01*
G01*
X202099200Y-62400000D01*
G75*
G02*
X202150000Y-62349200I50800J0D01*
G01*
X203150000Y-62349200D01*
G75*
G02*
X203200800Y-62400000I0J-50800D01*
G01*
X203200800Y-62800000D01*
G75*
G02*
X203150000Y-62850800I-50800J0D01*
G01*
G37*
G36*
G01*
X203150000Y-63650800D02*
X202150000Y-63650800D01*
G75*
G02*
X202099200Y-63600000I0J50800D01*
G01*
X202099200Y-63200000D01*
G75*
G02*
X202150000Y-63149200I50800J0D01*
G01*
X203150000Y-63149200D01*
G75*
G02*
X203200800Y-63200000I0J-50800D01*
G01*
X203200800Y-63600000D01*
G75*
G02*
X203150000Y-63650800I-50800J0D01*
G01*
G37*
G36*
G01*
X203150000Y-64450800D02*
X202150000Y-64450800D01*
G75*
G02*
X202099200Y-64400000I0J50800D01*
G01*
X202099200Y-64000000D01*
G75*
G02*
X202150000Y-63949200I50800J0D01*
G01*
X203150000Y-63949200D01*
G75*
G02*
X203200800Y-64000000I0J-50800D01*
G01*
X203200800Y-64400000D01*
G75*
G02*
X203150000Y-64450800I-50800J0D01*
G01*
G37*
G36*
G01*
X203250800Y-64850000D02*
X203250800Y-65850000D01*
G75*
G02*
X203200000Y-65900800I-50800J0D01*
G01*
X202800000Y-65900800D01*
G75*
G02*
X202749200Y-65850000I0J50800D01*
G01*
X202749200Y-64850000D01*
G75*
G02*
X202800000Y-64799200I50800J0D01*
G01*
X203200000Y-64799200D01*
G75*
G02*
X203250800Y-64850000I0J-50800D01*
G01*
G37*
G36*
G01*
X204050800Y-64850000D02*
X204050800Y-65850000D01*
G75*
G02*
X204000000Y-65900800I-50800J0D01*
G01*
X203600000Y-65900800D01*
G75*
G02*
X203549200Y-65850000I0J50800D01*
G01*
X203549200Y-64850000D01*
G75*
G02*
X203600000Y-64799200I50800J0D01*
G01*
X204000000Y-64799200D01*
G75*
G02*
X204050800Y-64850000I0J-50800D01*
G01*
G37*
G36*
G01*
X204850800Y-64850000D02*
X204850800Y-65850000D01*
G75*
G02*
X204800000Y-65900800I-50800J0D01*
G01*
X204400000Y-65900800D01*
G75*
G02*
X204349200Y-65850000I0J50800D01*
G01*
X204349200Y-64850000D01*
G75*
G02*
X204400000Y-64799200I50800J0D01*
G01*
X204800000Y-64799200D01*
G75*
G02*
X204850800Y-64850000I0J-50800D01*
G01*
G37*
G36*
G01*
X205650800Y-64850000D02*
X205650800Y-65850000D01*
G75*
G02*
X205600000Y-65900800I-50800J0D01*
G01*
X205200000Y-65900800D01*
G75*
G02*
X205149200Y-65850000I0J50800D01*
G01*
X205149200Y-64850000D01*
G75*
G02*
X205200000Y-64799200I50800J0D01*
G01*
X205600000Y-64799200D01*
G75*
G02*
X205650800Y-64850000I0J-50800D01*
G01*
G37*
G36*
G01*
X206450800Y-64850000D02*
X206450800Y-65850000D01*
G75*
G02*
X206400000Y-65900800I-50800J0D01*
G01*
X206000000Y-65900800D01*
G75*
G02*
X205949200Y-65850000I0J50800D01*
G01*
X205949200Y-64850000D01*
G75*
G02*
X206000000Y-64799200I50800J0D01*
G01*
X206400000Y-64799200D01*
G75*
G02*
X206450800Y-64850000I0J-50800D01*
G01*
G37*
G36*
G01*
X207250800Y-64850000D02*
X207250800Y-65850000D01*
G75*
G02*
X207200000Y-65900800I-50800J0D01*
G01*
X206800000Y-65900800D01*
G75*
G02*
X206749200Y-65850000I0J50800D01*
G01*
X206749200Y-64850000D01*
G75*
G02*
X206800000Y-64799200I50800J0D01*
G01*
X207200000Y-64799200D01*
G75*
G02*
X207250800Y-64850000I0J-50800D01*
G01*
G37*
G36*
G01*
X207850000Y-64450800D02*
X206850000Y-64450800D01*
G75*
G02*
X206799200Y-64400000I0J50800D01*
G01*
X206799200Y-64000000D01*
G75*
G02*
X206850000Y-63949200I50800J0D01*
G01*
X207850000Y-63949200D01*
G75*
G02*
X207900800Y-64000000I0J-50800D01*
G01*
X207900800Y-64400000D01*
G75*
G02*
X207850000Y-64450800I-50800J0D01*
G01*
G37*
G36*
G01*
X207850000Y-63650800D02*
X206850000Y-63650800D01*
G75*
G02*
X206799200Y-63600000I0J50800D01*
G01*
X206799200Y-63200000D01*
G75*
G02*
X206850000Y-63149200I50800J0D01*
G01*
X207850000Y-63149200D01*
G75*
G02*
X207900800Y-63200000I0J-50800D01*
G01*
X207900800Y-63600000D01*
G75*
G02*
X207850000Y-63650800I-50800J0D01*
G01*
G37*
G36*
G01*
X207850000Y-62850800D02*
X206850000Y-62850800D01*
G75*
G02*
X206799200Y-62800000I0J50800D01*
G01*
X206799200Y-62400000D01*
G75*
G02*
X206850000Y-62349200I50800J0D01*
G01*
X207850000Y-62349200D01*
G75*
G02*
X207900800Y-62400000I0J-50800D01*
G01*
X207900800Y-62800000D01*
G75*
G02*
X207850000Y-62850800I-50800J0D01*
G01*
G37*
G36*
G01*
X207850000Y-62050800D02*
X206850000Y-62050800D01*
G75*
G02*
X206799200Y-62000000I0J50800D01*
G01*
X206799200Y-61600000D01*
G75*
G02*
X206850000Y-61549200I50800J0D01*
G01*
X207850000Y-61549200D01*
G75*
G02*
X207900800Y-61600000I0J-50800D01*
G01*
X207900800Y-62000000D01*
G75*
G02*
X207850000Y-62050800I-50800J0D01*
G01*
G37*
G36*
G01*
X207250800Y-60150000D02*
X207250800Y-61150000D01*
G75*
G02*
X207200000Y-61200800I-50800J0D01*
G01*
X206800000Y-61200800D01*
G75*
G02*
X206749200Y-61150000I0J50800D01*
G01*
X206749200Y-60150000D01*
G75*
G02*
X206800000Y-60099200I50800J0D01*
G01*
X207200000Y-60099200D01*
G75*
G02*
X207250800Y-60150000I0J-50800D01*
G01*
G37*
G36*
G01*
X206450800Y-60150000D02*
X206450800Y-61150000D01*
G75*
G02*
X206400000Y-61200800I-50800J0D01*
G01*
X206000000Y-61200800D01*
G75*
G02*
X205949200Y-61150000I0J50800D01*
G01*
X205949200Y-60150000D01*
G75*
G02*
X206000000Y-60099200I50800J0D01*
G01*
X206400000Y-60099200D01*
G75*
G02*
X206450800Y-60150000I0J-50800D01*
G01*
G37*
G36*
G01*
X205650800Y-60150000D02*
X205650800Y-61150000D01*
G75*
G02*
X205600000Y-61200800I-50800J0D01*
G01*
X205200000Y-61200800D01*
G75*
G02*
X205149200Y-61150000I0J50800D01*
G01*
X205149200Y-60150000D01*
G75*
G02*
X205200000Y-60099200I50800J0D01*
G01*
X205600000Y-60099200D01*
G75*
G02*
X205650800Y-60150000I0J-50800D01*
G01*
G37*
G36*
G01*
X204850800Y-60150000D02*
X204850800Y-61150000D01*
G75*
G02*
X204800000Y-61200800I-50800J0D01*
G01*
X204400000Y-61200800D01*
G75*
G02*
X204349200Y-61150000I0J50800D01*
G01*
X204349200Y-60150000D01*
G75*
G02*
X204400000Y-60099200I50800J0D01*
G01*
X204800000Y-60099200D01*
G75*
G02*
X204850800Y-60150000I0J-50800D01*
G01*
G37*
G36*
G01*
X204050800Y-60150000D02*
X204050800Y-61150000D01*
G75*
G02*
X204000000Y-61200800I-50800J0D01*
G01*
X203600000Y-61200800D01*
G75*
G02*
X203549200Y-61150000I0J50800D01*
G01*
X203549200Y-60150000D01*
G75*
G02*
X203600000Y-60099200I50800J0D01*
G01*
X204000000Y-60099200D01*
G75*
G02*
X204050800Y-60150000I0J-50800D01*
G01*
G37*
G36*
G01*
X203250800Y-60150000D02*
X203250800Y-61150000D01*
G75*
G02*
X203200000Y-61200800I-50800J0D01*
G01*
X202800000Y-61200800D01*
G75*
G02*
X202749200Y-61150000I0J50800D01*
G01*
X202749200Y-60150000D01*
G75*
G02*
X202800000Y-60099200I50800J0D01*
G01*
X203200000Y-60099200D01*
G75*
G02*
X203250800Y-60150000I0J-50800D01*
G01*
G37*
G36*
G01*
X203549201Y-64399999D02*
X203549201Y-61600001D01*
G75*
G02*
X203600001Y-61549201I50800J0D01*
G01*
X206399999Y-61549201D01*
G75*
G02*
X206450799Y-61600001I0J-50800D01*
G01*
X206450799Y-64399999D01*
G75*
G02*
X206399999Y-64450799I-50800J0D01*
G01*
X203600001Y-64450799D01*
G75*
G02*
X203549201Y-64399999I0J50800D01*
G01*
G37*
G36*
G01*
X144725001Y-68800001D02*
X144725001Y-63800001D01*
G75*
G02*
X144925001Y-63600001I200000J0D01*
G01*
X149925001Y-63600001D01*
G75*
G02*
X150125001Y-63800001I0J-200000D01*
G01*
X150125001Y-68800001D01*
G75*
G02*
X149925001Y-69000001I-200000J0D01*
G01*
X144925001Y-69000001D01*
G75*
G02*
X144725001Y-68800001I0J200000D01*
G01*
G37*
G36*
G01*
X138725001Y-59250001D02*
X138725001Y-58350001D01*
G75*
G02*
X138925001Y-58150001I200000J0D01*
G01*
X140925001Y-58150001D01*
G75*
G02*
X141125001Y-58350001I0J-200000D01*
G01*
X141125001Y-59250001D01*
G75*
G02*
X140925001Y-59450001I-200000J0D01*
G01*
X138925001Y-59450001D01*
G75*
G02*
X138725001Y-59250001I0J200000D01*
G01*
G37*
G36*
G01*
X138725001Y-60520001D02*
X138725001Y-59620001D01*
G75*
G02*
X138925001Y-59420001I200000J0D01*
G01*
X140925001Y-59420001D01*
G75*
G02*
X141125001Y-59620001I0J-200000D01*
G01*
X141125001Y-60520001D01*
G75*
G02*
X140925001Y-60720001I-200000J0D01*
G01*
X138925001Y-60720001D01*
G75*
G02*
X138725001Y-60520001I0J200000D01*
G01*
G37*
G36*
G01*
X138725001Y-61790001D02*
X138725001Y-60890001D01*
G75*
G02*
X138925001Y-60690001I200000J0D01*
G01*
X140925001Y-60690001D01*
G75*
G02*
X141125001Y-60890001I0J-200000D01*
G01*
X141125001Y-61790001D01*
G75*
G02*
X140925001Y-61990001I-200000J0D01*
G01*
X138925001Y-61990001D01*
G75*
G02*
X138725001Y-61790001I0J200000D01*
G01*
G37*
G36*
G01*
X138725001Y-63060001D02*
X138725001Y-62160001D01*
G75*
G02*
X138925001Y-61960001I200000J0D01*
G01*
X140925001Y-61960001D01*
G75*
G02*
X141125001Y-62160001I0J-200000D01*
G01*
X141125001Y-63060001D01*
G75*
G02*
X140925001Y-63260001I-200000J0D01*
G01*
X138925001Y-63260001D01*
G75*
G02*
X138725001Y-63060001I0J200000D01*
G01*
G37*
G36*
G01*
X138725001Y-64330001D02*
X138725001Y-63430001D01*
G75*
G02*
X138925001Y-63230001I200000J0D01*
G01*
X140925001Y-63230001D01*
G75*
G02*
X141125001Y-63430001I0J-200000D01*
G01*
X141125001Y-64330001D01*
G75*
G02*
X140925001Y-64530001I-200000J0D01*
G01*
X138925001Y-64530001D01*
G75*
G02*
X138725001Y-64330001I0J200000D01*
G01*
G37*
G36*
G01*
X138725001Y-65600001D02*
X138725001Y-64700001D01*
G75*
G02*
X138925001Y-64500001I200000J0D01*
G01*
X140925001Y-64500001D01*
G75*
G02*
X141125001Y-64700001I0J-200000D01*
G01*
X141125001Y-65600001D01*
G75*
G02*
X140925001Y-65800001I-200000J0D01*
G01*
X138925001Y-65800001D01*
G75*
G02*
X138725001Y-65600001I0J200000D01*
G01*
G37*
G36*
G01*
X138725001Y-66870001D02*
X138725001Y-65970001D01*
G75*
G02*
X138925001Y-65770001I200000J0D01*
G01*
X140925001Y-65770001D01*
G75*
G02*
X141125001Y-65970001I0J-200000D01*
G01*
X141125001Y-66870001D01*
G75*
G02*
X140925001Y-67070001I-200000J0D01*
G01*
X138925001Y-67070001D01*
G75*
G02*
X138725001Y-66870001I0J200000D01*
G01*
G37*
G36*
G01*
X138725001Y-68140001D02*
X138725001Y-67240001D01*
G75*
G02*
X138925001Y-67040001I200000J0D01*
G01*
X140925001Y-67040001D01*
G75*
G02*
X141125001Y-67240001I0J-200000D01*
G01*
X141125001Y-68140001D01*
G75*
G02*
X140925001Y-68340001I-200000J0D01*
G01*
X138925001Y-68340001D01*
G75*
G02*
X138725001Y-68140001I0J200000D01*
G01*
G37*
G36*
G01*
X138725001Y-69410001D02*
X138725001Y-68510001D01*
G75*
G02*
X138925001Y-68310001I200000J0D01*
G01*
X140925001Y-68310001D01*
G75*
G02*
X141125001Y-68510001I0J-200000D01*
G01*
X141125001Y-69410001D01*
G75*
G02*
X140925001Y-69610001I-200000J0D01*
G01*
X138925001Y-69610001D01*
G75*
G02*
X138725001Y-69410001I0J200000D01*
G01*
G37*
G36*
G01*
X138725001Y-70680001D02*
X138725001Y-69780001D01*
G75*
G02*
X138925001Y-69580001I200000J0D01*
G01*
X140925001Y-69580001D01*
G75*
G02*
X141125001Y-69780001I0J-200000D01*
G01*
X141125001Y-70680001D01*
G75*
G02*
X140925001Y-70880001I-200000J0D01*
G01*
X138925001Y-70880001D01*
G75*
G02*
X138725001Y-70680001I0J200000D01*
G01*
G37*
G36*
G01*
X138725001Y-71950001D02*
X138725001Y-71050001D01*
G75*
G02*
X138925001Y-70850001I200000J0D01*
G01*
X140925001Y-70850001D01*
G75*
G02*
X141125001Y-71050001I0J-200000D01*
G01*
X141125001Y-71950001D01*
G75*
G02*
X140925001Y-72150001I-200000J0D01*
G01*
X138925001Y-72150001D01*
G75*
G02*
X138725001Y-71950001I0J200000D01*
G01*
G37*
G36*
G01*
X138725001Y-73220001D02*
X138725001Y-72320001D01*
G75*
G02*
X138925001Y-72120001I200000J0D01*
G01*
X140925001Y-72120001D01*
G75*
G02*
X141125001Y-72320001I0J-200000D01*
G01*
X141125001Y-73220001D01*
G75*
G02*
X140925001Y-73420001I-200000J0D01*
G01*
X138925001Y-73420001D01*
G75*
G02*
X138725001Y-73220001I0J200000D01*
G01*
G37*
G36*
G01*
X138725001Y-74490001D02*
X138725001Y-73590001D01*
G75*
G02*
X138925001Y-73390001I200000J0D01*
G01*
X140925001Y-73390001D01*
G75*
G02*
X141125001Y-73590001I0J-200000D01*
G01*
X141125001Y-74490001D01*
G75*
G02*
X140925001Y-74690001I-200000J0D01*
G01*
X138925001Y-74690001D01*
G75*
G02*
X138725001Y-74490001I0J200000D01*
G01*
G37*
G36*
G01*
X138725001Y-75760001D02*
X138725001Y-74860001D01*
G75*
G02*
X138925001Y-74660001I200000J0D01*
G01*
X140925001Y-74660001D01*
G75*
G02*
X141125001Y-74860001I0J-200000D01*
G01*
X141125001Y-75760001D01*
G75*
G02*
X140925001Y-75960001I-200000J0D01*
G01*
X138925001Y-75960001D01*
G75*
G02*
X138725001Y-75760001I0J200000D01*
G01*
G37*
G36*
G01*
X143160001Y-77510001D02*
X142260001Y-77510001D01*
G75*
G02*
X142060001Y-77310001I0J200000D01*
G01*
X142060001Y-75310001D01*
G75*
G02*
X142260001Y-75110001I200000J0D01*
G01*
X143160001Y-75110001D01*
G75*
G02*
X143360001Y-75310001I0J-200000D01*
G01*
X143360001Y-77310001D01*
G75*
G02*
X143160001Y-77510001I-200000J0D01*
G01*
G37*
G36*
G01*
X144430001Y-77510001D02*
X143530001Y-77510001D01*
G75*
G02*
X143330001Y-77310001I0J200000D01*
G01*
X143330001Y-75310001D01*
G75*
G02*
X143530001Y-75110001I200000J0D01*
G01*
X144430001Y-75110001D01*
G75*
G02*
X144630001Y-75310001I0J-200000D01*
G01*
X144630001Y-77310001D01*
G75*
G02*
X144430001Y-77510001I-200000J0D01*
G01*
G37*
G36*
G01*
X145700001Y-77510001D02*
X144800001Y-77510001D01*
G75*
G02*
X144600001Y-77310001I0J200000D01*
G01*
X144600001Y-75310001D01*
G75*
G02*
X144800001Y-75110001I200000J0D01*
G01*
X145700001Y-75110001D01*
G75*
G02*
X145900001Y-75310001I0J-200000D01*
G01*
X145900001Y-77310001D01*
G75*
G02*
X145700001Y-77510001I-200000J0D01*
G01*
G37*
G36*
G01*
X146970001Y-77510001D02*
X146070001Y-77510001D01*
G75*
G02*
X145870001Y-77310001I0J200000D01*
G01*
X145870001Y-75310001D01*
G75*
G02*
X146070001Y-75110001I200000J0D01*
G01*
X146970001Y-75110001D01*
G75*
G02*
X147170001Y-75310001I0J-200000D01*
G01*
X147170001Y-77310001D01*
G75*
G02*
X146970001Y-77510001I-200000J0D01*
G01*
G37*
G36*
G01*
X148240001Y-77510001D02*
X147340001Y-77510001D01*
G75*
G02*
X147140001Y-77310001I0J200000D01*
G01*
X147140001Y-75310001D01*
G75*
G02*
X147340001Y-75110001I200000J0D01*
G01*
X148240001Y-75110001D01*
G75*
G02*
X148440001Y-75310001I0J-200000D01*
G01*
X148440001Y-77310001D01*
G75*
G02*
X148240001Y-77510001I-200000J0D01*
G01*
G37*
G36*
G01*
X149510001Y-77510001D02*
X148610001Y-77510001D01*
G75*
G02*
X148410001Y-77310001I0J200000D01*
G01*
X148410001Y-75310001D01*
G75*
G02*
X148610001Y-75110001I200000J0D01*
G01*
X149510001Y-75110001D01*
G75*
G02*
X149710001Y-75310001I0J-200000D01*
G01*
X149710001Y-77310001D01*
G75*
G02*
X149510001Y-77510001I-200000J0D01*
G01*
G37*
G36*
G01*
X150780001Y-77510001D02*
X149880001Y-77510001D01*
G75*
G02*
X149680001Y-77310001I0J200000D01*
G01*
X149680001Y-75310001D01*
G75*
G02*
X149880001Y-75110001I200000J0D01*
G01*
X150780001Y-75110001D01*
G75*
G02*
X150980001Y-75310001I0J-200000D01*
G01*
X150980001Y-77310001D01*
G75*
G02*
X150780001Y-77510001I-200000J0D01*
G01*
G37*
G36*
G01*
X152050001Y-77510001D02*
X151150001Y-77510001D01*
G75*
G02*
X150950001Y-77310001I0J200000D01*
G01*
X150950001Y-75310001D01*
G75*
G02*
X151150001Y-75110001I200000J0D01*
G01*
X152050001Y-75110001D01*
G75*
G02*
X152250001Y-75310001I0J-200000D01*
G01*
X152250001Y-77310001D01*
G75*
G02*
X152050001Y-77510001I-200000J0D01*
G01*
G37*
G36*
G01*
X153320001Y-77510001D02*
X152420001Y-77510001D01*
G75*
G02*
X152220001Y-77310001I0J200000D01*
G01*
X152220001Y-75310001D01*
G75*
G02*
X152420001Y-75110001I200000J0D01*
G01*
X153320001Y-75110001D01*
G75*
G02*
X153520001Y-75310001I0J-200000D01*
G01*
X153520001Y-77310001D01*
G75*
G02*
X153320001Y-77510001I-200000J0D01*
G01*
G37*
G36*
G01*
X154590001Y-77510001D02*
X153690001Y-77510001D01*
G75*
G02*
X153490001Y-77310001I0J200000D01*
G01*
X153490001Y-75310001D01*
G75*
G02*
X153690001Y-75110001I200000J0D01*
G01*
X154590001Y-75110001D01*
G75*
G02*
X154790001Y-75310001I0J-200000D01*
G01*
X154790001Y-77310001D01*
G75*
G02*
X154590001Y-77510001I-200000J0D01*
G01*
G37*
G36*
G01*
X155725001Y-75760001D02*
X155725001Y-74860001D01*
G75*
G02*
X155925001Y-74660001I200000J0D01*
G01*
X157925001Y-74660001D01*
G75*
G02*
X158125001Y-74860001I0J-200000D01*
G01*
X158125001Y-75760001D01*
G75*
G02*
X157925001Y-75960001I-200000J0D01*
G01*
X155925001Y-75960001D01*
G75*
G02*
X155725001Y-75760001I0J200000D01*
G01*
G37*
G36*
G01*
X155725001Y-74490001D02*
X155725001Y-73590001D01*
G75*
G02*
X155925001Y-73390001I200000J0D01*
G01*
X157925001Y-73390001D01*
G75*
G02*
X158125001Y-73590001I0J-200000D01*
G01*
X158125001Y-74490001D01*
G75*
G02*
X157925001Y-74690001I-200000J0D01*
G01*
X155925001Y-74690001D01*
G75*
G02*
X155725001Y-74490001I0J200000D01*
G01*
G37*
G36*
G01*
X155725001Y-73220001D02*
X155725001Y-72320001D01*
G75*
G02*
X155925001Y-72120001I200000J0D01*
G01*
X157925001Y-72120001D01*
G75*
G02*
X158125001Y-72320001I0J-200000D01*
G01*
X158125001Y-73220001D01*
G75*
G02*
X157925001Y-73420001I-200000J0D01*
G01*
X155925001Y-73420001D01*
G75*
G02*
X155725001Y-73220001I0J200000D01*
G01*
G37*
G36*
G01*
X155725001Y-71950001D02*
X155725001Y-71050001D01*
G75*
G02*
X155925001Y-70850001I200000J0D01*
G01*
X157925001Y-70850001D01*
G75*
G02*
X158125001Y-71050001I0J-200000D01*
G01*
X158125001Y-71950001D01*
G75*
G02*
X157925001Y-72150001I-200000J0D01*
G01*
X155925001Y-72150001D01*
G75*
G02*
X155725001Y-71950001I0J200000D01*
G01*
G37*
G36*
G01*
X155725001Y-70680001D02*
X155725001Y-69780001D01*
G75*
G02*
X155925001Y-69580001I200000J0D01*
G01*
X157925001Y-69580001D01*
G75*
G02*
X158125001Y-69780001I0J-200000D01*
G01*
X158125001Y-70680001D01*
G75*
G02*
X157925001Y-70880001I-200000J0D01*
G01*
X155925001Y-70880001D01*
G75*
G02*
X155725001Y-70680001I0J200000D01*
G01*
G37*
G36*
G01*
X155725001Y-69410001D02*
X155725001Y-68510001D01*
G75*
G02*
X155925001Y-68310001I200000J0D01*
G01*
X157925001Y-68310001D01*
G75*
G02*
X158125001Y-68510001I0J-200000D01*
G01*
X158125001Y-69410001D01*
G75*
G02*
X157925001Y-69610001I-200000J0D01*
G01*
X155925001Y-69610001D01*
G75*
G02*
X155725001Y-69410001I0J200000D01*
G01*
G37*
G36*
G01*
X155725001Y-68140001D02*
X155725001Y-67240001D01*
G75*
G02*
X155925001Y-67040001I200000J0D01*
G01*
X157925001Y-67040001D01*
G75*
G02*
X158125001Y-67240001I0J-200000D01*
G01*
X158125001Y-68140001D01*
G75*
G02*
X157925001Y-68340001I-200000J0D01*
G01*
X155925001Y-68340001D01*
G75*
G02*
X155725001Y-68140001I0J200000D01*
G01*
G37*
G36*
G01*
X155725001Y-66870001D02*
X155725001Y-65970001D01*
G75*
G02*
X155925001Y-65770001I200000J0D01*
G01*
X157925001Y-65770001D01*
G75*
G02*
X158125001Y-65970001I0J-200000D01*
G01*
X158125001Y-66870001D01*
G75*
G02*
X157925001Y-67070001I-200000J0D01*
G01*
X155925001Y-67070001D01*
G75*
G02*
X155725001Y-66870001I0J200000D01*
G01*
G37*
G36*
G01*
X155725001Y-65600001D02*
X155725001Y-64700001D01*
G75*
G02*
X155925001Y-64500001I200000J0D01*
G01*
X157925001Y-64500001D01*
G75*
G02*
X158125001Y-64700001I0J-200000D01*
G01*
X158125001Y-65600001D01*
G75*
G02*
X157925001Y-65800001I-200000J0D01*
G01*
X155925001Y-65800001D01*
G75*
G02*
X155725001Y-65600001I0J200000D01*
G01*
G37*
G36*
G01*
X155725001Y-64330001D02*
X155725001Y-63430001D01*
G75*
G02*
X155925001Y-63230001I200000J0D01*
G01*
X157925001Y-63230001D01*
G75*
G02*
X158125001Y-63430001I0J-200000D01*
G01*
X158125001Y-64330001D01*
G75*
G02*
X157925001Y-64530001I-200000J0D01*
G01*
X155925001Y-64530001D01*
G75*
G02*
X155725001Y-64330001I0J200000D01*
G01*
G37*
G36*
G01*
X155725001Y-63060001D02*
X155725001Y-62160001D01*
G75*
G02*
X155925001Y-61960001I200000J0D01*
G01*
X157925001Y-61960001D01*
G75*
G02*
X158125001Y-62160001I0J-200000D01*
G01*
X158125001Y-63060001D01*
G75*
G02*
X157925001Y-63260001I-200000J0D01*
G01*
X155925001Y-63260001D01*
G75*
G02*
X155725001Y-63060001I0J200000D01*
G01*
G37*
G36*
G01*
X155725001Y-61790001D02*
X155725001Y-60890001D01*
G75*
G02*
X155925001Y-60690001I200000J0D01*
G01*
X157925001Y-60690001D01*
G75*
G02*
X158125001Y-60890001I0J-200000D01*
G01*
X158125001Y-61790001D01*
G75*
G02*
X157925001Y-61990001I-200000J0D01*
G01*
X155925001Y-61990001D01*
G75*
G02*
X155725001Y-61790001I0J200000D01*
G01*
G37*
G36*
G01*
X155725001Y-60520001D02*
X155725001Y-59620001D01*
G75*
G02*
X155925001Y-59420001I200000J0D01*
G01*
X157925001Y-59420001D01*
G75*
G02*
X158125001Y-59620001I0J-200000D01*
G01*
X158125001Y-60520001D01*
G75*
G02*
X157925001Y-60720001I-200000J0D01*
G01*
X155925001Y-60720001D01*
G75*
G02*
X155725001Y-60520001I0J200000D01*
G01*
G37*
G36*
G01*
X155725001Y-59250001D02*
X155725001Y-58350001D01*
G75*
G02*
X155925001Y-58150001I200000J0D01*
G01*
X157925001Y-58150001D01*
G75*
G02*
X158125001Y-58350001I0J-200000D01*
G01*
X158125001Y-59250001D01*
G75*
G02*
X157925001Y-59450001I-200000J0D01*
G01*
X155925001Y-59450001D01*
G75*
G02*
X155725001Y-59250001I0J200000D01*
G01*
G37*
G36*
G01*
X214870000Y-81760300D02*
X213854000Y-81760300D01*
G75*
G02*
X213803200Y-81709500I0J50800D01*
G01*
X213803200Y-81328500D01*
G75*
G02*
X213854000Y-81277700I50800J0D01*
G01*
X214870000Y-81277700D01*
G75*
G02*
X214920800Y-81328500I0J-50800D01*
G01*
X214920800Y-81709500D01*
G75*
G02*
X214870000Y-81760300I-50800J0D01*
G01*
G37*
G36*
G01*
X214870000Y-82522300D02*
X213854000Y-82522300D01*
G75*
G02*
X213803200Y-82471500I0J50800D01*
G01*
X213803200Y-82090500D01*
G75*
G02*
X213854000Y-82039700I50800J0D01*
G01*
X214870000Y-82039700D01*
G75*
G02*
X214920800Y-82090500I0J-50800D01*
G01*
X214920800Y-82471500D01*
G75*
G02*
X214870000Y-82522300I-50800J0D01*
G01*
G37*
G36*
G01*
X213346000Y-81760300D02*
X212330000Y-81760300D01*
G75*
G02*
X212279200Y-81709500I0J50800D01*
G01*
X212279200Y-81328500D01*
G75*
G02*
X212330000Y-81277700I50800J0D01*
G01*
X213346000Y-81277700D01*
G75*
G02*
X213396800Y-81328500I0J-50800D01*
G01*
X213396800Y-81709500D01*
G75*
G02*
X213346000Y-81760300I-50800J0D01*
G01*
G37*
G36*
G01*
X213346000Y-82522300D02*
X212330000Y-82522300D01*
G75*
G02*
X212279200Y-82471500I0J50800D01*
G01*
X212279200Y-82090500D01*
G75*
G02*
X212330000Y-82039700I50800J0D01*
G01*
X213346000Y-82039700D01*
G75*
G02*
X213396800Y-82090500I0J-50800D01*
G01*
X213396800Y-82471500D01*
G75*
G02*
X213346000Y-82522300I-50800J0D01*
G01*
G37*
G36*
G01*
X214870000Y-80998300D02*
X213854000Y-80998300D01*
G75*
G02*
X213803200Y-80947500I0J50800D01*
G01*
X213803200Y-80312500D01*
G75*
G02*
X213854000Y-80261700I50800J0D01*
G01*
X214870000Y-80261700D01*
G75*
G02*
X214920800Y-80312500I0J-50800D01*
G01*
X214920800Y-80947500D01*
G75*
G02*
X214870000Y-80998300I-50800J0D01*
G01*
G37*
G36*
G01*
X213346000Y-80998300D02*
X212330000Y-80998300D01*
G75*
G02*
X212279200Y-80947500I0J50800D01*
G01*
X212279200Y-80312500D01*
G75*
G02*
X212330000Y-80261700I50800J0D01*
G01*
X213346000Y-80261700D01*
G75*
G02*
X213396800Y-80312500I0J-50800D01*
G01*
X213396800Y-80947500D01*
G75*
G02*
X213346000Y-80998300I-50800J0D01*
G01*
G37*
G36*
G01*
X214870000Y-83538300D02*
X213854000Y-83538300D01*
G75*
G02*
X213803200Y-83487500I0J50800D01*
G01*
X213803200Y-82852500D01*
G75*
G02*
X213854000Y-82801700I50800J0D01*
G01*
X214870000Y-82801700D01*
G75*
G02*
X214920800Y-82852500I0J-50800D01*
G01*
X214920800Y-83487500D01*
G75*
G02*
X214870000Y-83538300I-50800J0D01*
G01*
G37*
G36*
G01*
X213346000Y-83538300D02*
X212330000Y-83538300D01*
G75*
G02*
X212279200Y-83487500I0J50800D01*
G01*
X212279200Y-82852500D01*
G75*
G02*
X212330000Y-82801700I50800J0D01*
G01*
X213346000Y-82801700D01*
G75*
G02*
X213396800Y-82852500I0J-50800D01*
G01*
X213396800Y-83487500D01*
G75*
G02*
X213346000Y-83538300I-50800J0D01*
G01*
G37*
G36*
G01*
X174937500Y-107200000D02*
X174262500Y-107200000D01*
G75*
G02*
X173925000Y-106862500I0J337500D01*
G01*
X173925000Y-106087500D01*
G75*
G02*
X174262500Y-105750000I337500J0D01*
G01*
X174937500Y-105750000D01*
G75*
G02*
X175275000Y-106087500I0J-337500D01*
G01*
X175275000Y-106862500D01*
G75*
G02*
X174937500Y-107200000I-337500J0D01*
G01*
G37*
G36*
G01*
X174937500Y-105450000D02*
X174262500Y-105450000D01*
G75*
G02*
X173925000Y-105112500I0J337500D01*
G01*
X173925000Y-104337500D01*
G75*
G02*
X174262500Y-104000000I337500J0D01*
G01*
X174937500Y-104000000D01*
G75*
G02*
X175275000Y-104337500I0J-337500D01*
G01*
X175275000Y-105112500D01*
G75*
G02*
X174937500Y-105450000I-337500J0D01*
G01*
G37*
G36*
G01*
X161045000Y-108300000D02*
X161045000Y-107000000D01*
G75*
G02*
X161245000Y-106800000I200000J0D01*
G01*
X162795000Y-106800000D01*
G75*
G02*
X162995000Y-107000000I0J-200000D01*
G01*
X162995000Y-108300000D01*
G75*
G02*
X162795000Y-108500000I-200000J0D01*
G01*
X161245000Y-108500000D01*
G75*
G02*
X161045000Y-108300000I0J200000D01*
G01*
G37*
G36*
G01*
X161045000Y-103800000D02*
X161045000Y-102500000D01*
G75*
G02*
X161245000Y-102300000I200000J0D01*
G01*
X162795000Y-102300000D01*
G75*
G02*
X162995000Y-102500000I0J-200000D01*
G01*
X162995000Y-103800000D01*
G75*
G02*
X162795000Y-104000000I-200000J0D01*
G01*
X161245000Y-104000000D01*
G75*
G02*
X161045000Y-103800000I0J200000D01*
G01*
G37*
G36*
G01*
X169005000Y-103800000D02*
X169005000Y-102500000D01*
G75*
G02*
X169205000Y-102300000I200000J0D01*
G01*
X170755000Y-102300000D01*
G75*
G02*
X170955000Y-102500000I0J-200000D01*
G01*
X170955000Y-103800000D01*
G75*
G02*
X170755000Y-104000000I-200000J0D01*
G01*
X169205000Y-104000000D01*
G75*
G02*
X169005000Y-103800000I0J200000D01*
G01*
G37*
G36*
G01*
X169005000Y-108300000D02*
X169005000Y-107000000D01*
G75*
G02*
X169205000Y-106800000I200000J0D01*
G01*
X170755000Y-106800000D01*
G75*
G02*
X170955000Y-107000000I0J-200000D01*
G01*
X170955000Y-108300000D01*
G75*
G02*
X170755000Y-108500000I-200000J0D01*
G01*
X169205000Y-108500000D01*
G75*
G02*
X169005000Y-108300000I0J200000D01*
G01*
G37*
G36*
G01*
X172162500Y-104000000D02*
X172837500Y-104000000D01*
G75*
G02*
X173175000Y-104337500I0J-337500D01*
G01*
X173175000Y-105037500D01*
G75*
G02*
X172837500Y-105375000I-337500J0D01*
G01*
X172162500Y-105375000D01*
G75*
G02*
X171825000Y-105037500I0J337500D01*
G01*
X171825000Y-104337500D01*
G75*
G02*
X172162500Y-104000000I337500J0D01*
G01*
G37*
G36*
G01*
X172162500Y-105825000D02*
X172837500Y-105825000D01*
G75*
G02*
X173175000Y-106162500I0J-337500D01*
G01*
X173175000Y-106862500D01*
G75*
G02*
X172837500Y-107200000I-337500J0D01*
G01*
X172162500Y-107200000D01*
G75*
G02*
X171825000Y-106862500I0J337500D01*
G01*
X171825000Y-106162500D01*
G75*
G02*
X172162500Y-105825000I337500J0D01*
G01*
G37*
G36*
G01*
X210825000Y-55925469D02*
X210825000Y-57474531D01*
G75*
G02*
X210499531Y-57800000I-325469J0D01*
G01*
X209425469Y-57800000D01*
G75*
G02*
X209100000Y-57474531I0J325469D01*
G01*
X209100000Y-55925469D01*
G75*
G02*
X209425469Y-55600000I325469J0D01*
G01*
X210499531Y-55600000D01*
G75*
G02*
X210825000Y-55925469I0J-325469D01*
G01*
G37*
G36*
G01*
X207700000Y-55925469D02*
X207700000Y-57474531D01*
G75*
G02*
X207374531Y-57800000I-325469J0D01*
G01*
X206300469Y-57800000D01*
G75*
G02*
X205975000Y-57474531I0J325469D01*
G01*
X205975000Y-55925469D01*
G75*
G02*
X206300469Y-55600000I325469J0D01*
G01*
X207374531Y-55600000D01*
G75*
G02*
X207700000Y-55925469I0J-325469D01*
G01*
G37*
G36*
G01*
X230565000Y-105655000D02*
X230565000Y-105145000D01*
G75*
G02*
X230820000Y-104890000I255000J0D01*
G01*
X231445000Y-104890000D01*
G75*
G02*
X231700000Y-105145000I0J-255000D01*
G01*
X231700000Y-105655000D01*
G75*
G02*
X231445000Y-105910000I-255000J0D01*
G01*
X230820000Y-105910000D01*
G75*
G02*
X230565000Y-105655000I0J255000D01*
G01*
G37*
G36*
G01*
X231700000Y-105655000D02*
X231700000Y-105145000D01*
G75*
G02*
X231955000Y-104890000I255000J0D01*
G01*
X232580000Y-104890000D01*
G75*
G02*
X232835000Y-105145000I0J-255000D01*
G01*
X232835000Y-105655000D01*
G75*
G02*
X232580000Y-105910000I-255000J0D01*
G01*
X231955000Y-105910000D01*
G75*
G02*
X231700000Y-105655000I0J255000D01*
G01*
G37*
G36*
G01*
X197955000Y-63035000D02*
X197445000Y-63035000D01*
G75*
G02*
X197190000Y-62780000I0J255000D01*
G01*
X197190000Y-62155000D01*
G75*
G02*
X197445000Y-61900000I255000J0D01*
G01*
X197955000Y-61900000D01*
G75*
G02*
X198210000Y-62155000I0J-255000D01*
G01*
X198210000Y-62780000D01*
G75*
G02*
X197955000Y-63035000I-255000J0D01*
G01*
G37*
G36*
G01*
X197955000Y-61900000D02*
X197445000Y-61900000D01*
G75*
G02*
X197190000Y-61645000I0J255000D01*
G01*
X197190000Y-61020000D01*
G75*
G02*
X197445000Y-60765000I255000J0D01*
G01*
X197955000Y-60765000D01*
G75*
G02*
X198210000Y-61020000I0J-255000D01*
G01*
X198210000Y-61645000D01*
G75*
G02*
X197955000Y-61900000I-255000J0D01*
G01*
G37*
G36*
G01*
X215900000Y-71655000D02*
X215900000Y-71145000D01*
G75*
G02*
X216155000Y-70890000I255000J0D01*
G01*
X216780000Y-70890000D01*
G75*
G02*
X217035000Y-71145000I0J-255000D01*
G01*
X217035000Y-71655000D01*
G75*
G02*
X216780000Y-71910000I-255000J0D01*
G01*
X216155000Y-71910000D01*
G75*
G02*
X215900000Y-71655000I0J255000D01*
G01*
G37*
G36*
G01*
X214765000Y-71655000D02*
X214765000Y-71145000D01*
G75*
G02*
X215020000Y-70890000I255000J0D01*
G01*
X215645000Y-70890000D01*
G75*
G02*
X215900000Y-71145000I0J-255000D01*
G01*
X215900000Y-71655000D01*
G75*
G02*
X215645000Y-71910000I-255000J0D01*
G01*
X215020000Y-71910000D01*
G75*
G02*
X214765000Y-71655000I0J255000D01*
G01*
G37*
G36*
G01*
X220165000Y-71455000D02*
X220165000Y-70945000D01*
G75*
G02*
X220420000Y-70690000I255000J0D01*
G01*
X221045000Y-70690000D01*
G75*
G02*
X221300000Y-70945000I0J-255000D01*
G01*
X221300000Y-71455000D01*
G75*
G02*
X221045000Y-71710000I-255000J0D01*
G01*
X220420000Y-71710000D01*
G75*
G02*
X220165000Y-71455000I0J255000D01*
G01*
G37*
G36*
G01*
X221300000Y-71455000D02*
X221300000Y-70945000D01*
G75*
G02*
X221555000Y-70690000I255000J0D01*
G01*
X222180000Y-70690000D01*
G75*
G02*
X222435000Y-70945000I0J-255000D01*
G01*
X222435000Y-71455000D01*
G75*
G02*
X222180000Y-71710000I-255000J0D01*
G01*
X221555000Y-71710000D01*
G75*
G02*
X221300000Y-71455000I0J255000D01*
G01*
G37*
G36*
G01*
X220270001Y-72940001D02*
X220270001Y-72430001D01*
G75*
G02*
X220525001Y-72175001I255000J0D01*
G01*
X221150001Y-72175001D01*
G75*
G02*
X221405001Y-72430001I0J-255000D01*
G01*
X221405001Y-72940001D01*
G75*
G02*
X221150001Y-73195001I-255000J0D01*
G01*
X220525001Y-73195001D01*
G75*
G02*
X220270001Y-72940001I0J255000D01*
G01*
G37*
G36*
G01*
X221405001Y-72940001D02*
X221405001Y-72430001D01*
G75*
G02*
X221660001Y-72175001I255000J0D01*
G01*
X222285001Y-72175001D01*
G75*
G02*
X222540001Y-72430001I0J-255000D01*
G01*
X222540001Y-72940001D01*
G75*
G02*
X222285001Y-73195001I-255000J0D01*
G01*
X221660001Y-73195001D01*
G75*
G02*
X221405001Y-72940001I0J255000D01*
G01*
G37*
G36*
G01*
X220270001Y-74255000D02*
X220270001Y-73745000D01*
G75*
G02*
X220525001Y-73490000I255000J0D01*
G01*
X221150001Y-73490000D01*
G75*
G02*
X221405001Y-73745000I0J-255000D01*
G01*
X221405001Y-74255000D01*
G75*
G02*
X221150001Y-74510000I-255000J0D01*
G01*
X220525001Y-74510000D01*
G75*
G02*
X220270001Y-74255000I0J255000D01*
G01*
G37*
G36*
G01*
X221405001Y-74255000D02*
X221405001Y-73745000D01*
G75*
G02*
X221660001Y-73490000I255000J0D01*
G01*
X222285001Y-73490000D01*
G75*
G02*
X222540001Y-73745000I0J-255000D01*
G01*
X222540001Y-74255000D01*
G75*
G02*
X222285001Y-74510000I-255000J0D01*
G01*
X221660001Y-74510000D01*
G75*
G02*
X221405001Y-74255000I0J255000D01*
G01*
G37*
G36*
G01*
X215700000Y-73255000D02*
X215700000Y-72745000D01*
G75*
G02*
X215955000Y-72490000I255000J0D01*
G01*
X216580000Y-72490000D01*
G75*
G02*
X216835000Y-72745000I0J-255000D01*
G01*
X216835000Y-73255000D01*
G75*
G02*
X216580000Y-73510000I-255000J0D01*
G01*
X215955000Y-73510000D01*
G75*
G02*
X215700000Y-73255000I0J255000D01*
G01*
G37*
G36*
G01*
X214565000Y-73255000D02*
X214565000Y-72745000D01*
G75*
G02*
X214820000Y-72490000I255000J0D01*
G01*
X215445000Y-72490000D01*
G75*
G02*
X215700000Y-72745000I0J-255000D01*
G01*
X215700000Y-73255000D01*
G75*
G02*
X215445000Y-73510000I-255000J0D01*
G01*
X214820000Y-73510000D01*
G75*
G02*
X214565000Y-73255000I0J255000D01*
G01*
G37*
D21*
X175100000Y-98600000D03*
X179800000Y-98600000D03*
X168400000Y-98500000D03*
X163700000Y-98500000D03*
D22*
X147400000Y-62700000D03*
X151000000Y-66300000D03*
X147425001Y-66300001D03*
D10*
X187600000Y-59775000D03*
D22*
X226400000Y-46800000D03*
X226400000Y-48600000D03*
X228250000Y-61850000D03*
X242325000Y-62725000D03*
X244100000Y-60600000D03*
D23*
X236200000Y-86100000D03*
X238100000Y-87500000D03*
X231200000Y-88400000D03*
X240850000Y-83950000D03*
X221600000Y-76700000D03*
D24*
X237200000Y-94300000D03*
D23*
X232300000Y-106400000D03*
X242900000Y-103500000D03*
D24*
X226200000Y-103100000D03*
X226800000Y-103100000D03*
X223400000Y-101200000D03*
X218900000Y-98600000D03*
D10*
X198800000Y-102500000D03*
D25*
X210800000Y-107600000D03*
D24*
X219800000Y-81600000D03*
X219800000Y-82700000D03*
X220300000Y-82100000D03*
X219300000Y-82100000D03*
X199000000Y-77200000D03*
X199100000Y-74600000D03*
X199100000Y-72100000D03*
X199100000Y-69600000D03*
X195300000Y-69600000D03*
X195300000Y-72100000D03*
X171600000Y-83400000D03*
D25*
X212200000Y-70200000D03*
X215000000Y-72200000D03*
X214900000Y-70700000D03*
X214900000Y-68900000D03*
X220437500Y-71837500D03*
X220500000Y-73400000D03*
D24*
X195300000Y-74600000D03*
X195300000Y-77100000D03*
X202700000Y-89200000D03*
X202700000Y-91700000D03*
X198900000Y-89200000D03*
X202300000Y-52400000D03*
D21*
X183200000Y-106800000D03*
X184700000Y-108700000D03*
X191800000Y-108400000D03*
X191800000Y-96700000D03*
X192700000Y-103900000D03*
X141700000Y-58850000D03*
X139950000Y-57700000D03*
D25*
X121450000Y-73350000D03*
X124000000Y-73350000D03*
X126500000Y-73400000D03*
X129100000Y-73350000D03*
X129050000Y-77050000D03*
X126550000Y-77000000D03*
X124000000Y-77100000D03*
X121450000Y-77100000D03*
X169200000Y-53400000D03*
X169200000Y-50900000D03*
X169150000Y-48350000D03*
X169150000Y-45800000D03*
X172850000Y-45750000D03*
X172800000Y-48300000D03*
X172800000Y-50900000D03*
X172800000Y-53450000D03*
X179950000Y-49900000D03*
X178750000Y-44600000D03*
D21*
X192450000Y-45250000D03*
X190550000Y-43250000D03*
X171850000Y-70750000D03*
D25*
X184650000Y-82500000D03*
X178550000Y-78650000D03*
X175250000Y-78700000D03*
D21*
X142700000Y-78150000D03*
X155150000Y-58800000D03*
X158800000Y-58800000D03*
X156900000Y-57650000D03*
D25*
X193450000Y-113800000D03*
D26*
X211900000Y-82300000D03*
D23*
X222587660Y-77887660D03*
D25*
X223100000Y-86900000D03*
X217800000Y-49000000D03*
X217800000Y-45900000D03*
X215250000Y-45950000D03*
X215300000Y-49000000D03*
D24*
X213600000Y-43150000D03*
X210900000Y-46000000D03*
D25*
X184650237Y-83743745D03*
D21*
X213738898Y-102322156D03*
X211559296Y-102092554D03*
D10*
X198700000Y-108724990D03*
D24*
X198942261Y-91629073D03*
D10*
X204485296Y-102619605D03*
D22*
X147400000Y-69724990D03*
D21*
X162325021Y-78400000D03*
D24*
X162485201Y-83135604D03*
X202509967Y-87075010D03*
X202399989Y-84100000D03*
X198900000Y-87075010D03*
X199200011Y-84100000D03*
D25*
X184375401Y-81424599D03*
D10*
X180900010Y-59800000D03*
X194488208Y-63202278D03*
X194124990Y-57300000D03*
X198070300Y-96775010D03*
D21*
X185974990Y-106806471D03*
D24*
X222800000Y-101650000D03*
X172400000Y-83400000D03*
X222850000Y-104700000D03*
X222850000Y-105400000D03*
X225400000Y-104750000D03*
X167050000Y-83400000D03*
D21*
X213400000Y-92700000D03*
X193000000Y-48800000D03*
D25*
X168700000Y-107600000D03*
X163400000Y-107700000D03*
D22*
X190500000Y-105800000D03*
D23*
X235900000Y-99800000D03*
D21*
X214600000Y-100250000D03*
X212750000Y-98350000D03*
X204692734Y-100932296D03*
D26*
X175000000Y-67600000D03*
X204600000Y-98800000D03*
D24*
X232150000Y-98200000D03*
X230050000Y-98200000D03*
D26*
X158650000Y-75200000D03*
X158150000Y-117950000D03*
X159750000Y-95750000D03*
X158980673Y-87331961D03*
X158729238Y-84600196D03*
X161840250Y-72199933D03*
X157562403Y-115224990D03*
X157024979Y-97082249D03*
D24*
X234300000Y-105900000D03*
D26*
X158700000Y-63900000D03*
D24*
X174341709Y-68728259D03*
X233900000Y-103400000D03*
D26*
X158700000Y-62650000D03*
D24*
X171700000Y-68174968D03*
D26*
X137800000Y-79900000D03*
X138150000Y-77850000D03*
X138250000Y-72850000D03*
X158700000Y-60750000D03*
X153550000Y-60750000D03*
X229400000Y-96050000D03*
X219800000Y-106400000D03*
X218600000Y-108900000D03*
X188750000Y-110050000D03*
X142747671Y-70274990D03*
X220350000Y-102650000D03*
X223600000Y-104124990D03*
D22*
X215400000Y-50700000D03*
X217300000Y-50700000D03*
X213600000Y-50700000D03*
X190100000Y-53600000D03*
D21*
X208000000Y-107200000D03*
X204900000Y-105900000D03*
X204900000Y-104400000D03*
D24*
X203200000Y-54400000D03*
D21*
X208400000Y-48200000D03*
X208362500Y-51062500D03*
X208362500Y-54037500D03*
D24*
X171300000Y-64700000D03*
D26*
X208400000Y-57500000D03*
D21*
X192775000Y-50625000D03*
D26*
X208192373Y-63399685D03*
D21*
X185500000Y-43250000D03*
X185900000Y-47400000D03*
X183450000Y-44900000D03*
X185900000Y-53650000D03*
D25*
X217350000Y-110250000D03*
X177550000Y-118050000D03*
X176900000Y-118050000D03*
X217535668Y-114285668D03*
D24*
X178450000Y-62000000D03*
X181400000Y-53600000D03*
X181400000Y-53000000D03*
X219900000Y-45750000D03*
X172000000Y-64050000D03*
X180650000Y-52700000D03*
D26*
X182500000Y-104850000D03*
X194877759Y-95602760D03*
X203623991Y-72523642D03*
X212200000Y-57000000D03*
X166450000Y-48850000D03*
D25*
X176000000Y-43400000D03*
D24*
X205646013Y-84033626D03*
X205332326Y-78941074D03*
D26*
X181700000Y-105300000D03*
X194971232Y-96271245D03*
D24*
X207450000Y-88200000D03*
X201568004Y-91131997D03*
D25*
X136400000Y-74700000D03*
X138875010Y-74100000D03*
D26*
X196590907Y-89336134D03*
X190779544Y-80612763D03*
X175697500Y-48752500D03*
X175750000Y-52150000D03*
X191175706Y-87397070D03*
X187771705Y-84043069D03*
X176302500Y-47502500D03*
X175200000Y-54150000D03*
X133900000Y-75600000D03*
X142225256Y-73167422D03*
X131725021Y-79305643D03*
X141861317Y-74046205D03*
X187594930Y-75000000D03*
X190500000Y-76700000D03*
X178300000Y-68350000D03*
X180950000Y-66650000D03*
X130750000Y-81600000D03*
X136500000Y-69750000D03*
X131275010Y-80751803D03*
X141679022Y-71907910D03*
X214950000Y-107400000D03*
X188024272Y-80425728D03*
X178150000Y-66300000D03*
D24*
X197400000Y-51650000D03*
D26*
X195112357Y-85219879D03*
X191267351Y-80117351D03*
X221800000Y-42050000D03*
X216565000Y-45315000D03*
X205450011Y-84653383D03*
X203777288Y-78644532D03*
X190800000Y-65900000D03*
X189602708Y-66345514D03*
X195863178Y-62938665D03*
X211400000Y-54100000D03*
X195650000Y-96350000D03*
X186800000Y-105750000D03*
X214400000Y-106874990D03*
X204195306Y-79074968D03*
D24*
X203951855Y-70918217D03*
X203500000Y-69300000D03*
D26*
X191900000Y-70450000D03*
X192650000Y-72400000D03*
D25*
X134000000Y-73400000D03*
X136750000Y-70600000D03*
D26*
X176850000Y-52200000D03*
X175525021Y-49800000D03*
X156900000Y-82050000D03*
X162025021Y-82184277D03*
X156900000Y-81400000D03*
X162900000Y-82420011D03*
X161150000Y-77150000D03*
X151250000Y-71174946D03*
X153100000Y-70450000D03*
X161400000Y-76374990D03*
X196753760Y-87766496D03*
X191711073Y-79673630D03*
X191350000Y-71500000D03*
X192900000Y-74400000D03*
X155100000Y-73750000D03*
X179700000Y-76850000D03*
X183050000Y-75000000D03*
X192750000Y-68200000D03*
X159050000Y-117900000D03*
X154300000Y-80350000D03*
X158250000Y-115224990D03*
X153985445Y-87327922D03*
D21*
X210900000Y-62900000D03*
D26*
X208107616Y-62325010D03*
X209292393Y-63223639D03*
D21*
X212200000Y-63800000D03*
D24*
X208300000Y-80900000D03*
X206624979Y-80869835D03*
D26*
X207900000Y-80100000D03*
X206250000Y-80250000D03*
X154123223Y-72524979D03*
X155203761Y-74596239D03*
X158900000Y-69000000D03*
X189248506Y-86619119D03*
D24*
X159627159Y-87399578D03*
X159499955Y-83548715D03*
X161500000Y-67700000D03*
X159900000Y-65400000D03*
D26*
X220046235Y-84788590D03*
D24*
X219919574Y-78667238D03*
X160215504Y-84002517D03*
X161400000Y-88700000D03*
D26*
X157450000Y-84750000D03*
X153700000Y-70250000D03*
X157684379Y-86998846D03*
X154982576Y-75153995D03*
D25*
X217450000Y-69450000D03*
X220550000Y-68750000D03*
D26*
X216700000Y-81400000D03*
X217050000Y-77750000D03*
D25*
X217600000Y-74250000D03*
X217550000Y-71900000D03*
D26*
X216800000Y-86100000D03*
X216900000Y-77150000D03*
X213276604Y-80512396D03*
X218100000Y-79500000D03*
X219300000Y-77800000D03*
D24*
X220000000Y-87900000D03*
D26*
X219446587Y-84767699D03*
D25*
X221050000Y-78550000D03*
D26*
X224206965Y-80892479D03*
D24*
X224300000Y-76600000D03*
X223406282Y-80816036D03*
D25*
X224250000Y-75200000D03*
D26*
X216700000Y-82150000D03*
X215199978Y-82498708D03*
D24*
X223200000Y-83500000D03*
X224900000Y-82600000D03*
X224200000Y-77900000D03*
X221774818Y-79563373D03*
X224199727Y-80242475D03*
X223586813Y-82286813D03*
D22*
X187000000Y-96200000D03*
X187000000Y-94300000D03*
X187000000Y-92500000D03*
X182800000Y-101500000D03*
X187000000Y-100500000D03*
D21*
X141700000Y-60150000D03*
X137400000Y-61800000D03*
D25*
X134002033Y-82202098D03*
D24*
X190600000Y-72650000D03*
D25*
X175350000Y-77400000D03*
X178650000Y-77400000D03*
D21*
X162100000Y-73250000D03*
D26*
X200550000Y-90150000D03*
D25*
X211000000Y-76900000D03*
X215900000Y-76700000D03*
X212500000Y-76850000D03*
D24*
X190495000Y-75503136D03*
D26*
X133750000Y-78450000D03*
D24*
X194578224Y-85878627D03*
X230750000Y-103050000D03*
D26*
X229800000Y-106400000D03*
D24*
X177750000Y-57150000D03*
D21*
X166049978Y-65323003D03*
D26*
X200550000Y-89150000D03*
D24*
X177750000Y-58150000D03*
D25*
X183400000Y-81800000D03*
X175900000Y-101300000D03*
X168100000Y-91000000D03*
D24*
X179600000Y-90800000D03*
D26*
X203800000Y-59700000D03*
X199225010Y-62658615D03*
X227700000Y-94450000D03*
X227500000Y-96200000D03*
X198700000Y-63300000D03*
X204500000Y-57150000D03*
D24*
X206000000Y-58400000D03*
X206137500Y-57737500D03*
D26*
X141900000Y-63100000D03*
X149100000Y-86600000D03*
M02*
