G04 #@! TF.GenerationSoftware,KiCad,Pcbnew,6.0.0-rc1-unknown-2086226~66~ubuntu18.04.1*
G04 #@! TF.CreationDate,2018-11-28T13:28:41-06:00*
G04 #@! TF.ProjectId,liger,6c696765-722e-46b6-9963-61645f706362,rev?*
G04 #@! TF.SameCoordinates,Original*
G04 #@! TF.FileFunction,Copper,L1,Top*
G04 #@! TF.FilePolarity,Positive*
%FSLAX46Y46*%
G04 Gerber Fmt 4.6, Leading zero omitted, Abs format (unit mm)*
G04 Created by KiCad (PCBNEW 6.0.0-rc1-unknown-2086226~66~ubuntu18.04.1) date Wed 28 Nov 2018 01:28:41 PM CST*
%MOMM*%
%LPD*%
G01*
G04 APERTURE LIST*
G04 #@! TA.AperFunction,ComponentPad*
%ADD10C,3.500000*%
G04 #@! TD*
G04 #@! TA.AperFunction,SMDPad,CuDef*
%ADD11R,7.000000X3.000000*%
G04 #@! TD*
G04 #@! TA.AperFunction,SMDPad,CuDef*
%ADD12R,3.000000X7.000000*%
G04 #@! TD*
G04 #@! TA.AperFunction,ComponentPad*
%ADD13C,2.000000*%
G04 #@! TD*
G04 #@! TA.AperFunction,ComponentPad*
%ADD14O,1.200000X1.200000*%
G04 #@! TD*
G04 #@! TA.AperFunction,ComponentPad*
%ADD15O,1.600000X1.200000*%
G04 #@! TD*
G04 #@! TA.AperFunction,SMDPad,CuDef*
%ADD16R,0.900000X1.000000*%
G04 #@! TD*
G04 #@! TA.AperFunction,ComponentPad*
%ADD17C,1.800000*%
G04 #@! TD*
G04 #@! TA.AperFunction,ComponentPad*
%ADD18R,1.800000X1.800000*%
G04 #@! TD*
G04 #@! TA.AperFunction,Conductor*
%ADD19C,0.100000*%
G04 #@! TD*
G04 #@! TA.AperFunction,SMDPad,CuDef*
%ADD20C,0.950000*%
G04 #@! TD*
G04 #@! TA.AperFunction,ComponentPad*
%ADD21R,1.700000X1.700000*%
G04 #@! TD*
G04 #@! TA.AperFunction,ComponentPad*
%ADD22O,1.700000X1.700000*%
G04 #@! TD*
G04 #@! TA.AperFunction,ComponentPad*
%ADD23C,1.500000*%
G04 #@! TD*
G04 #@! TA.AperFunction,SMDPad,CuDef*
%ADD24R,0.800000X1.800000*%
G04 #@! TD*
G04 #@! TA.AperFunction,ComponentPad*
%ADD25C,1.624000*%
G04 #@! TD*
G04 #@! TA.AperFunction,SMDPad,CuDef*
%ADD26R,0.600000X0.522000*%
G04 #@! TD*
G04 #@! TA.AperFunction,SMDPad,CuDef*
%ADD27R,1.600000X2.500000*%
G04 #@! TD*
G04 #@! TA.AperFunction,SMDPad,CuDef*
%ADD28R,1.250000X0.450000*%
G04 #@! TD*
G04 #@! TA.AperFunction,SMDPad,CuDef*
%ADD29R,0.450000X0.600000*%
G04 #@! TD*
G04 #@! TA.AperFunction,SMDPad,CuDef*
%ADD30R,0.600000X0.450000*%
G04 #@! TD*
G04 #@! TA.AperFunction,SMDPad,CuDef*
%ADD31R,1.500000X1.000000*%
G04 #@! TD*
G04 #@! TA.AperFunction,ViaPad*
%ADD32C,0.600000*%
G04 #@! TD*
G04 #@! TA.AperFunction,ViaPad*
%ADD33C,1.000000*%
G04 #@! TD*
G04 #@! TA.AperFunction,ViaPad*
%ADD34C,1.200000*%
G04 #@! TD*
G04 #@! TA.AperFunction,ViaPad*
%ADD35C,0.800000*%
G04 #@! TD*
G04 #@! TA.AperFunction,Conductor*
%ADD36C,0.250000*%
G04 #@! TD*
G04 #@! TA.AperFunction,Conductor*
%ADD37C,0.400000*%
G04 #@! TD*
G04 #@! TA.AperFunction,Conductor*
%ADD38C,0.500000*%
G04 #@! TD*
G04 #@! TA.AperFunction,Conductor*
%ADD39C,0.254000*%
G04 #@! TD*
G04 APERTURE END LIST*
D10*
G04 #@! TO.P,U7,1*
G04 #@! TO.N,GND*
X133000000Y-124800000D03*
X161000000Y-51800000D03*
G04 #@! TD*
D11*
G04 #@! TO.P,U12,3*
G04 #@! TO.N,/T_UP*
X147050000Y-79000000D03*
D12*
G04 #@! TO.P,U12,1*
G04 #@! TO.N,/T_LEFT*
X138100000Y-87850000D03*
D11*
G04 #@! TO.P,U12,4*
G04 #@! TO.N,/T_DOWN*
X147050000Y-96900000D03*
D12*
G04 #@! TO.P,U12,2*
G04 #@! TO.N,/T_RIGHT*
X156050000Y-87900000D03*
D13*
G04 #@! TO.P,U12,*
G04 #@! TO.N,*
X132550000Y-73400000D03*
X161550000Y-73400000D03*
X132550000Y-102400000D03*
X161550000Y-102400000D03*
G04 #@! TD*
D14*
G04 #@! TO.P,U7,3*
G04 #@! TO.N,GND*
X149730000Y-61400000D03*
G04 #@! TO.P,U7,2*
G04 #@! TO.N,Net-(C4-Pad1)*
X147190000Y-63940000D03*
D15*
G04 #@! TO.P,U7,1*
G04 #@! TO.N,/3V3*
X144650000Y-61400000D03*
G04 #@! TD*
D16*
G04 #@! TO.P,PROG1,1*
G04 #@! TO.N,/PROG*
X134074000Y-111498600D03*
G04 #@! TO.P,PROG1,2*
G04 #@! TO.N,GND*
X135674000Y-111498600D03*
G04 #@! TO.P,PROG1,1*
G04 #@! TO.N,/PROG*
X134074000Y-107398600D03*
G04 #@! TO.P,PROG1,2*
G04 #@! TO.N,GND*
X135674000Y-107398600D03*
G04 #@! TD*
D17*
G04 #@! TO.P,D1,2*
G04 #@! TO.N,Net-(D1-Pad2)*
X159232600Y-64008000D03*
D18*
G04 #@! TO.P,D1,1*
G04 #@! TO.N,Net-(D1-Pad1)*
X156692600Y-64008000D03*
G04 #@! TD*
D19*
G04 #@! TO.N,/3V3*
G04 #@! TO.C,D2*
G36*
X156724779Y-111518144D02*
X156747834Y-111521563D01*
X156770443Y-111527227D01*
X156792387Y-111535079D01*
X156813457Y-111545044D01*
X156833448Y-111557026D01*
X156852168Y-111570910D01*
X156869438Y-111586562D01*
X156885090Y-111603832D01*
X156898974Y-111622552D01*
X156910956Y-111642543D01*
X156920921Y-111663613D01*
X156928773Y-111685557D01*
X156934437Y-111708166D01*
X156937856Y-111731221D01*
X156939000Y-111754500D01*
X156939000Y-112329500D01*
X156937856Y-112352779D01*
X156934437Y-112375834D01*
X156928773Y-112398443D01*
X156920921Y-112420387D01*
X156910956Y-112441457D01*
X156898974Y-112461448D01*
X156885090Y-112480168D01*
X156869438Y-112497438D01*
X156852168Y-112513090D01*
X156833448Y-112526974D01*
X156813457Y-112538956D01*
X156792387Y-112548921D01*
X156770443Y-112556773D01*
X156747834Y-112562437D01*
X156724779Y-112565856D01*
X156701500Y-112567000D01*
X156226500Y-112567000D01*
X156203221Y-112565856D01*
X156180166Y-112562437D01*
X156157557Y-112556773D01*
X156135613Y-112548921D01*
X156114543Y-112538956D01*
X156094552Y-112526974D01*
X156075832Y-112513090D01*
X156058562Y-112497438D01*
X156042910Y-112480168D01*
X156029026Y-112461448D01*
X156017044Y-112441457D01*
X156007079Y-112420387D01*
X155999227Y-112398443D01*
X155993563Y-112375834D01*
X155990144Y-112352779D01*
X155989000Y-112329500D01*
X155989000Y-111754500D01*
X155990144Y-111731221D01*
X155993563Y-111708166D01*
X155999227Y-111685557D01*
X156007079Y-111663613D01*
X156017044Y-111642543D01*
X156029026Y-111622552D01*
X156042910Y-111603832D01*
X156058562Y-111586562D01*
X156075832Y-111570910D01*
X156094552Y-111557026D01*
X156114543Y-111545044D01*
X156135613Y-111535079D01*
X156157557Y-111527227D01*
X156180166Y-111521563D01*
X156203221Y-111518144D01*
X156226500Y-111517000D01*
X156701500Y-111517000D01*
X156724779Y-111518144D01*
X156724779Y-111518144D01*
G37*
D20*
G04 #@! TD*
G04 #@! TO.P,D2,2*
G04 #@! TO.N,/3V3*
X156464000Y-112042000D03*
D19*
G04 #@! TO.N,Net-(D2-Pad1)*
G04 #@! TO.C,D2*
G36*
X156724779Y-113268144D02*
X156747834Y-113271563D01*
X156770443Y-113277227D01*
X156792387Y-113285079D01*
X156813457Y-113295044D01*
X156833448Y-113307026D01*
X156852168Y-113320910D01*
X156869438Y-113336562D01*
X156885090Y-113353832D01*
X156898974Y-113372552D01*
X156910956Y-113392543D01*
X156920921Y-113413613D01*
X156928773Y-113435557D01*
X156934437Y-113458166D01*
X156937856Y-113481221D01*
X156939000Y-113504500D01*
X156939000Y-114079500D01*
X156937856Y-114102779D01*
X156934437Y-114125834D01*
X156928773Y-114148443D01*
X156920921Y-114170387D01*
X156910956Y-114191457D01*
X156898974Y-114211448D01*
X156885090Y-114230168D01*
X156869438Y-114247438D01*
X156852168Y-114263090D01*
X156833448Y-114276974D01*
X156813457Y-114288956D01*
X156792387Y-114298921D01*
X156770443Y-114306773D01*
X156747834Y-114312437D01*
X156724779Y-114315856D01*
X156701500Y-114317000D01*
X156226500Y-114317000D01*
X156203221Y-114315856D01*
X156180166Y-114312437D01*
X156157557Y-114306773D01*
X156135613Y-114298921D01*
X156114543Y-114288956D01*
X156094552Y-114276974D01*
X156075832Y-114263090D01*
X156058562Y-114247438D01*
X156042910Y-114230168D01*
X156029026Y-114211448D01*
X156017044Y-114191457D01*
X156007079Y-114170387D01*
X155999227Y-114148443D01*
X155993563Y-114125834D01*
X155990144Y-114102779D01*
X155989000Y-114079500D01*
X155989000Y-113504500D01*
X155990144Y-113481221D01*
X155993563Y-113458166D01*
X155999227Y-113435557D01*
X156007079Y-113413613D01*
X156017044Y-113392543D01*
X156029026Y-113372552D01*
X156042910Y-113353832D01*
X156058562Y-113336562D01*
X156075832Y-113320910D01*
X156094552Y-113307026D01*
X156114543Y-113295044D01*
X156135613Y-113285079D01*
X156157557Y-113277227D01*
X156180166Y-113271563D01*
X156203221Y-113268144D01*
X156226500Y-113267000D01*
X156701500Y-113267000D01*
X156724779Y-113268144D01*
X156724779Y-113268144D01*
G37*
D20*
G04 #@! TD*
G04 #@! TO.P,D2,1*
G04 #@! TO.N,Net-(D2-Pad1)*
X156464000Y-113792000D03*
D19*
G04 #@! TO.N,Net-(D4-Pad1)*
G04 #@! TO.C,D4*
G36*
X138182779Y-107426144D02*
X138205834Y-107429563D01*
X138228443Y-107435227D01*
X138250387Y-107443079D01*
X138271457Y-107453044D01*
X138291448Y-107465026D01*
X138310168Y-107478910D01*
X138327438Y-107494562D01*
X138343090Y-107511832D01*
X138356974Y-107530552D01*
X138368956Y-107550543D01*
X138378921Y-107571613D01*
X138386773Y-107593557D01*
X138392437Y-107616166D01*
X138395856Y-107639221D01*
X138397000Y-107662500D01*
X138397000Y-108237500D01*
X138395856Y-108260779D01*
X138392437Y-108283834D01*
X138386773Y-108306443D01*
X138378921Y-108328387D01*
X138368956Y-108349457D01*
X138356974Y-108369448D01*
X138343090Y-108388168D01*
X138327438Y-108405438D01*
X138310168Y-108421090D01*
X138291448Y-108434974D01*
X138271457Y-108446956D01*
X138250387Y-108456921D01*
X138228443Y-108464773D01*
X138205834Y-108470437D01*
X138182779Y-108473856D01*
X138159500Y-108475000D01*
X137684500Y-108475000D01*
X137661221Y-108473856D01*
X137638166Y-108470437D01*
X137615557Y-108464773D01*
X137593613Y-108456921D01*
X137572543Y-108446956D01*
X137552552Y-108434974D01*
X137533832Y-108421090D01*
X137516562Y-108405438D01*
X137500910Y-108388168D01*
X137487026Y-108369448D01*
X137475044Y-108349457D01*
X137465079Y-108328387D01*
X137457227Y-108306443D01*
X137451563Y-108283834D01*
X137448144Y-108260779D01*
X137447000Y-108237500D01*
X137447000Y-107662500D01*
X137448144Y-107639221D01*
X137451563Y-107616166D01*
X137457227Y-107593557D01*
X137465079Y-107571613D01*
X137475044Y-107550543D01*
X137487026Y-107530552D01*
X137500910Y-107511832D01*
X137516562Y-107494562D01*
X137533832Y-107478910D01*
X137552552Y-107465026D01*
X137572543Y-107453044D01*
X137593613Y-107443079D01*
X137615557Y-107435227D01*
X137638166Y-107429563D01*
X137661221Y-107426144D01*
X137684500Y-107425000D01*
X138159500Y-107425000D01*
X138182779Y-107426144D01*
X138182779Y-107426144D01*
G37*
D20*
G04 #@! TD*
G04 #@! TO.P,D4,1*
G04 #@! TO.N,Net-(D4-Pad1)*
X137922000Y-107950000D03*
D19*
G04 #@! TO.N,/3V3*
G04 #@! TO.C,D4*
G36*
X138182779Y-109176144D02*
X138205834Y-109179563D01*
X138228443Y-109185227D01*
X138250387Y-109193079D01*
X138271457Y-109203044D01*
X138291448Y-109215026D01*
X138310168Y-109228910D01*
X138327438Y-109244562D01*
X138343090Y-109261832D01*
X138356974Y-109280552D01*
X138368956Y-109300543D01*
X138378921Y-109321613D01*
X138386773Y-109343557D01*
X138392437Y-109366166D01*
X138395856Y-109389221D01*
X138397000Y-109412500D01*
X138397000Y-109987500D01*
X138395856Y-110010779D01*
X138392437Y-110033834D01*
X138386773Y-110056443D01*
X138378921Y-110078387D01*
X138368956Y-110099457D01*
X138356974Y-110119448D01*
X138343090Y-110138168D01*
X138327438Y-110155438D01*
X138310168Y-110171090D01*
X138291448Y-110184974D01*
X138271457Y-110196956D01*
X138250387Y-110206921D01*
X138228443Y-110214773D01*
X138205834Y-110220437D01*
X138182779Y-110223856D01*
X138159500Y-110225000D01*
X137684500Y-110225000D01*
X137661221Y-110223856D01*
X137638166Y-110220437D01*
X137615557Y-110214773D01*
X137593613Y-110206921D01*
X137572543Y-110196956D01*
X137552552Y-110184974D01*
X137533832Y-110171090D01*
X137516562Y-110155438D01*
X137500910Y-110138168D01*
X137487026Y-110119448D01*
X137475044Y-110099457D01*
X137465079Y-110078387D01*
X137457227Y-110056443D01*
X137451563Y-110033834D01*
X137448144Y-110010779D01*
X137447000Y-109987500D01*
X137447000Y-109412500D01*
X137448144Y-109389221D01*
X137451563Y-109366166D01*
X137457227Y-109343557D01*
X137465079Y-109321613D01*
X137475044Y-109300543D01*
X137487026Y-109280552D01*
X137500910Y-109261832D01*
X137516562Y-109244562D01*
X137533832Y-109228910D01*
X137552552Y-109215026D01*
X137572543Y-109203044D01*
X137593613Y-109193079D01*
X137615557Y-109185227D01*
X137638166Y-109179563D01*
X137661221Y-109176144D01*
X137684500Y-109175000D01*
X138159500Y-109175000D01*
X138182779Y-109176144D01*
X138182779Y-109176144D01*
G37*
D20*
G04 #@! TD*
G04 #@! TO.P,D4,2*
G04 #@! TO.N,/3V3*
X137922000Y-109700000D03*
D19*
G04 #@! TO.N,/3V3*
G04 #@! TO.C,D5*
G36*
X138182779Y-115074144D02*
X138205834Y-115077563D01*
X138228443Y-115083227D01*
X138250387Y-115091079D01*
X138271457Y-115101044D01*
X138291448Y-115113026D01*
X138310168Y-115126910D01*
X138327438Y-115142562D01*
X138343090Y-115159832D01*
X138356974Y-115178552D01*
X138368956Y-115198543D01*
X138378921Y-115219613D01*
X138386773Y-115241557D01*
X138392437Y-115264166D01*
X138395856Y-115287221D01*
X138397000Y-115310500D01*
X138397000Y-115885500D01*
X138395856Y-115908779D01*
X138392437Y-115931834D01*
X138386773Y-115954443D01*
X138378921Y-115976387D01*
X138368956Y-115997457D01*
X138356974Y-116017448D01*
X138343090Y-116036168D01*
X138327438Y-116053438D01*
X138310168Y-116069090D01*
X138291448Y-116082974D01*
X138271457Y-116094956D01*
X138250387Y-116104921D01*
X138228443Y-116112773D01*
X138205834Y-116118437D01*
X138182779Y-116121856D01*
X138159500Y-116123000D01*
X137684500Y-116123000D01*
X137661221Y-116121856D01*
X137638166Y-116118437D01*
X137615557Y-116112773D01*
X137593613Y-116104921D01*
X137572543Y-116094956D01*
X137552552Y-116082974D01*
X137533832Y-116069090D01*
X137516562Y-116053438D01*
X137500910Y-116036168D01*
X137487026Y-116017448D01*
X137475044Y-115997457D01*
X137465079Y-115976387D01*
X137457227Y-115954443D01*
X137451563Y-115931834D01*
X137448144Y-115908779D01*
X137447000Y-115885500D01*
X137447000Y-115310500D01*
X137448144Y-115287221D01*
X137451563Y-115264166D01*
X137457227Y-115241557D01*
X137465079Y-115219613D01*
X137475044Y-115198543D01*
X137487026Y-115178552D01*
X137500910Y-115159832D01*
X137516562Y-115142562D01*
X137533832Y-115126910D01*
X137552552Y-115113026D01*
X137572543Y-115101044D01*
X137593613Y-115091079D01*
X137615557Y-115083227D01*
X137638166Y-115077563D01*
X137661221Y-115074144D01*
X137684500Y-115073000D01*
X138159500Y-115073000D01*
X138182779Y-115074144D01*
X138182779Y-115074144D01*
G37*
D20*
G04 #@! TD*
G04 #@! TO.P,D5,2*
G04 #@! TO.N,/3V3*
X137922000Y-115598000D03*
D19*
G04 #@! TO.N,Net-(D5-Pad1)*
G04 #@! TO.C,D5*
G36*
X138182779Y-116824144D02*
X138205834Y-116827563D01*
X138228443Y-116833227D01*
X138250387Y-116841079D01*
X138271457Y-116851044D01*
X138291448Y-116863026D01*
X138310168Y-116876910D01*
X138327438Y-116892562D01*
X138343090Y-116909832D01*
X138356974Y-116928552D01*
X138368956Y-116948543D01*
X138378921Y-116969613D01*
X138386773Y-116991557D01*
X138392437Y-117014166D01*
X138395856Y-117037221D01*
X138397000Y-117060500D01*
X138397000Y-117635500D01*
X138395856Y-117658779D01*
X138392437Y-117681834D01*
X138386773Y-117704443D01*
X138378921Y-117726387D01*
X138368956Y-117747457D01*
X138356974Y-117767448D01*
X138343090Y-117786168D01*
X138327438Y-117803438D01*
X138310168Y-117819090D01*
X138291448Y-117832974D01*
X138271457Y-117844956D01*
X138250387Y-117854921D01*
X138228443Y-117862773D01*
X138205834Y-117868437D01*
X138182779Y-117871856D01*
X138159500Y-117873000D01*
X137684500Y-117873000D01*
X137661221Y-117871856D01*
X137638166Y-117868437D01*
X137615557Y-117862773D01*
X137593613Y-117854921D01*
X137572543Y-117844956D01*
X137552552Y-117832974D01*
X137533832Y-117819090D01*
X137516562Y-117803438D01*
X137500910Y-117786168D01*
X137487026Y-117767448D01*
X137475044Y-117747457D01*
X137465079Y-117726387D01*
X137457227Y-117704443D01*
X137451563Y-117681834D01*
X137448144Y-117658779D01*
X137447000Y-117635500D01*
X137447000Y-117060500D01*
X137448144Y-117037221D01*
X137451563Y-117014166D01*
X137457227Y-116991557D01*
X137465079Y-116969613D01*
X137475044Y-116948543D01*
X137487026Y-116928552D01*
X137500910Y-116909832D01*
X137516562Y-116892562D01*
X137533832Y-116876910D01*
X137552552Y-116863026D01*
X137572543Y-116851044D01*
X137593613Y-116841079D01*
X137615557Y-116833227D01*
X137638166Y-116827563D01*
X137661221Y-116824144D01*
X137684500Y-116823000D01*
X138159500Y-116823000D01*
X138182779Y-116824144D01*
X138182779Y-116824144D01*
G37*
D20*
G04 #@! TD*
G04 #@! TO.P,D5,1*
G04 #@! TO.N,Net-(D5-Pad1)*
X137922000Y-117348000D03*
D16*
G04 #@! TO.P,FACTORY1,2*
G04 #@! TO.N,GND*
X158407200Y-115080000D03*
G04 #@! TO.P,FACTORY1,1*
G04 #@! TO.N,/FACTORY_RST*
X160007200Y-115080000D03*
G04 #@! TO.P,FACTORY1,2*
G04 #@! TO.N,GND*
X158407200Y-110980000D03*
G04 #@! TO.P,FACTORY1,1*
G04 #@! TO.N,/FACTORY_RST*
X160007200Y-110980000D03*
G04 #@! TD*
D21*
G04 #@! TO.P,J1,1*
G04 #@! TO.N,GND*
X156667200Y-124587000D03*
D22*
G04 #@! TO.P,J1,2*
X156667200Y-122047000D03*
G04 #@! TO.P,J1,3*
X154127200Y-124587000D03*
G04 #@! TO.P,J1,4*
G04 #@! TO.N,/V_USB*
X154127200Y-122047000D03*
G04 #@! TO.P,J1,5*
G04 #@! TO.N,/V_BAT*
X151587200Y-124587000D03*
G04 #@! TO.P,J1,6*
G04 #@! TO.N,/TXD*
X151587200Y-122047000D03*
G04 #@! TO.P,J1,7*
G04 #@! TO.N,/3V3*
X149047200Y-124587000D03*
G04 #@! TO.P,J1,8*
G04 #@! TO.N,/RXD*
X149047200Y-122047000D03*
G04 #@! TO.P,J1,9*
G04 #@! TO.N,/ZERO_DETECT*
X146507200Y-124587000D03*
G04 #@! TO.P,J1,10*
G04 #@! TO.N,/RELAY_4*
X146507200Y-122047000D03*
G04 #@! TO.P,J1,11*
G04 #@! TO.N,/I2S_WS*
X143967200Y-124587000D03*
G04 #@! TO.P,J1,12*
G04 #@! TO.N,/RELAY_3*
X143967200Y-122047000D03*
G04 #@! TO.P,J1,13*
G04 #@! TO.N,/I2S_BCLK*
X141427200Y-124587000D03*
G04 #@! TO.P,J1,14*
G04 #@! TO.N,/RELAY_2*
X141427200Y-122047000D03*
G04 #@! TO.P,J1,15*
G04 #@! TO.N,/PROG*
X138887200Y-124587000D03*
G04 #@! TO.P,J1,16*
G04 #@! TO.N,/RELAY_1*
X138887200Y-122047000D03*
G04 #@! TD*
D23*
G04 #@! TO.P,LS1,1*
G04 #@! TO.N,Net-(LS1-Pad1)*
X146253200Y-116828400D03*
G04 #@! TO.P,LS1,2*
G04 #@! TO.N,Net-(LS1-Pad2)*
X146253200Y-109228400D03*
G04 #@! TD*
D16*
G04 #@! TO.P,REBOOT1,2*
G04 #@! TO.N,GND*
X135674000Y-114383600D03*
G04 #@! TO.P,REBOOT1,1*
G04 #@! TO.N,/EN*
X134074000Y-114383600D03*
G04 #@! TO.P,REBOOT1,2*
G04 #@! TO.N,GND*
X135674000Y-118483600D03*
G04 #@! TO.P,REBOOT1,1*
G04 #@! TO.N,/EN*
X134074000Y-118483600D03*
G04 #@! TD*
D24*
G04 #@! TO.P,U2,Vs*
G04 #@! TO.N,/3V3*
X157556200Y-58674000D03*
G04 #@! TO.P,U2,GND*
G04 #@! TO.N,GND*
X156286200Y-58674000D03*
G04 #@! TO.P,U2,OUT*
G04 #@! TO.N,Net-(R3-Pad2)*
X158826200Y-58674000D03*
G04 #@! TO.P,U2,GND*
G04 #@! TO.N,GND*
X160096200Y-58674000D03*
G04 #@! TD*
D25*
G04 #@! TO.P,U3,3*
G04 #@! TO.N,GND*
X139576400Y-60426800D03*
D26*
G04 #@! TO.P,U3,2*
X140476400Y-61676800D03*
G04 #@! TO.P,U3,4*
G04 #@! TO.N,/I2S_BCLK*
X138676400Y-61676800D03*
G04 #@! TO.P,U3,5*
G04 #@! TO.N,/3V3*
X138676400Y-62496800D03*
G04 #@! TO.P,U3,6*
G04 #@! TO.N,Net-(R11-Pad2)*
X139576400Y-62496800D03*
G04 #@! TO.P,U3,1*
G04 #@! TO.N,/I2S_WS*
X140476400Y-62496800D03*
G04 #@! TD*
D27*
G04 #@! TO.P,U6,2*
G04 #@! TO.N,GND*
X134899400Y-63576200D03*
D28*
G04 #@! TO.P,U6,4*
G04 #@! TO.N,N/C*
X136549400Y-64576200D03*
G04 #@! TO.P,U6,6*
G04 #@! TO.N,/SCL*
X136549400Y-62576200D03*
G04 #@! TO.P,U6,5*
G04 #@! TO.N,/3V3*
X136549400Y-63576200D03*
G04 #@! TO.P,U6,3*
G04 #@! TO.N,N/C*
X133249400Y-64576200D03*
G04 #@! TO.P,U6,2*
G04 #@! TO.N,GND*
X133249400Y-63576200D03*
G04 #@! TO.P,U6,1*
G04 #@! TO.N,/SDA*
X133249400Y-62576200D03*
G04 #@! TD*
D29*
G04 #@! TO.P,U8,1*
G04 #@! TO.N,/3V3*
X135432800Y-59253400D03*
D30*
G04 #@! TO.P,U8,2*
G04 #@! TO.N,GND*
X134232800Y-58953400D03*
G04 #@! TO.P,U8,3*
G04 #@! TO.N,/SDA*
X134232800Y-60303400D03*
G04 #@! TO.P,U8,4*
G04 #@! TO.N,/SCL*
X135432800Y-60303400D03*
G04 #@! TO.P,U8,1*
G04 #@! TO.N,/3V3*
X135432800Y-58953400D03*
G04 #@! TD*
D31*
G04 #@! TO.P,D7,3*
G04 #@! TO.N,GND*
X144616000Y-87046000D03*
G04 #@! TO.P,D7,4*
G04 #@! TO.N,/BUTTON_LED*
X144616000Y-90246000D03*
G04 #@! TO.P,D7,2*
G04 #@! TO.N,Net-(D7-Pad2)*
X149516000Y-87046000D03*
G04 #@! TO.P,D7,1*
G04 #@! TO.N,/V_IN*
X149516000Y-90246000D03*
G04 #@! TD*
D32*
G04 #@! TO.N,GND*
X134899400Y-63576200D03*
X140716000Y-67005200D03*
X135382000Y-116332000D03*
X135382000Y-109474000D03*
X154940000Y-107696000D03*
X151130000Y-108458000D03*
X158724600Y-113258600D03*
X152654000Y-99060000D03*
D33*
X138430000Y-79756000D03*
D32*
X160020000Y-106172000D03*
X154940000Y-111252000D03*
X140785972Y-113417970D03*
X152654000Y-112968010D03*
X154624010Y-116115760D03*
X139825010Y-108712000D03*
X137871200Y-68021200D03*
D34*
X153974800Y-68935600D03*
X153517600Y-79908400D03*
X155498800Y-78638400D03*
X144322800Y-88595200D03*
X147167600Y-91592400D03*
X147167600Y-86055200D03*
D32*
X148437600Y-68681600D03*
D34*
X149650000Y-58200000D03*
D32*
X149700000Y-101600000D03*
D35*
X133100000Y-58800000D03*
D32*
X138000000Y-110800000D03*
G04 #@! TO.N,Net-(D2-Pad1)*
X156464000Y-113792000D03*
G04 #@! TO.N,Net-(D4-Pad1)*
X138500000Y-106900000D03*
G04 #@! TO.N,Net-(D5-Pad1)*
X139200000Y-117800000D03*
G04 #@! TO.N,Net-(LS1-Pad1)*
X143624979Y-112610530D03*
G04 #@! TO.N,Net-(LS1-Pad2)*
X143002000Y-111252000D03*
D35*
G04 #@! TO.N,Net-(R3-Pad2)*
X158851600Y-59944000D03*
D32*
G04 #@! TO.N,Net-(R11-Pad2)*
X139672820Y-63985510D03*
G04 #@! TO.N,/V_BAT*
X157226000Y-115316000D03*
X153924000Y-115316000D03*
X152146000Y-118110000D03*
X155892372Y-115464356D03*
G04 #@! TO.N,/3V3*
X138684000Y-63296800D03*
D35*
X152806400Y-110896400D03*
X160869000Y-63957200D03*
X156565600Y-101650800D03*
X159461200Y-91490800D03*
D32*
X145200000Y-57200000D03*
D35*
X137100000Y-57400000D03*
D32*
G04 #@! TO.N,/V_IN*
X149656800Y-112572800D03*
X143433613Y-109448787D03*
X154000000Y-101300000D03*
G04 #@! TO.N,/V_USB*
X160782000Y-118110000D03*
X161500000Y-110600000D03*
G04 #@! TO.N,/BUTTON_LED*
X135800000Y-90600000D03*
G04 #@! TO.N,/FACTORY_RST*
X158242000Y-117094000D03*
D35*
X158850000Y-104800000D03*
D32*
G04 #@! TO.N,/TXD*
X136398000Y-102616000D03*
X143242846Y-102602846D03*
X132774990Y-88896848D03*
X136002999Y-83900000D03*
G04 #@! TO.N,/RXD*
X136398000Y-103378000D03*
X132101011Y-90678000D03*
X143065410Y-103352406D03*
X136002999Y-85300000D03*
G04 #@! TO.N,/SCL*
X135432800Y-61459600D03*
G04 #@! TO.N,/SDA*
X132638800Y-67005200D03*
X135000000Y-69350000D03*
G04 #@! TO.N,/I2S_WS*
X138531600Y-69291200D03*
X141224000Y-108204000D03*
X141732000Y-113538000D03*
X131826000Y-87376000D03*
X132588000Y-83312000D03*
D35*
G04 #@! TO.N,/I2S_BCLK*
X139547600Y-57353200D03*
D32*
X140500000Y-120600000D03*
G04 #@! TO.N,/I2S_DATA_OUT*
X139300000Y-107200000D03*
X141400000Y-105000000D03*
X139200000Y-111600000D03*
X139200000Y-113800000D03*
X157600000Y-96100000D03*
X157200000Y-92100000D03*
G04 #@! TO.N,/PROG*
X134366000Y-99568000D03*
X133654800Y-108407200D03*
X133374000Y-112248600D03*
X134550000Y-104969000D03*
G04 #@! TO.N,/ZERO_DETECT*
X151282400Y-127101600D03*
X161493200Y-109474000D03*
X161000000Y-119400000D03*
G04 #@! TO.N,/IR_RX*
X148590000Y-71374000D03*
X142292010Y-71374000D03*
X134162800Y-85598000D03*
X134112000Y-89712800D03*
X134366000Y-93980000D03*
X135800000Y-94100000D03*
G04 #@! TO.N,/IR_TX*
X135128000Y-89916000D03*
X148590000Y-72390000D03*
X135128000Y-80010000D03*
X135128000Y-83058000D03*
X142494000Y-72390000D03*
X135128000Y-85852000D03*
G04 #@! TO.N,/EN*
X145999200Y-83718400D03*
X143459200Y-83769200D03*
X140309600Y-104241600D03*
X137617200Y-105918000D03*
X134569200Y-115468400D03*
X132706317Y-112590239D03*
G04 #@! TO.N,/T_UP*
X152350000Y-88350000D03*
G04 #@! TO.N,/T_DOWN*
X146720000Y-95492000D03*
G04 #@! TO.N,/T_RIGHT*
X153600000Y-90300000D03*
G04 #@! TO.N,/T_LEFT*
X142900000Y-86700000D03*
G04 #@! TO.N,/RELAY_2*
X145000000Y-123400000D03*
G04 #@! TO.N,/RELAY_4*
X151700000Y-85100000D03*
X151400000Y-87200000D03*
X151800000Y-95500000D03*
X148900000Y-100900000D03*
X148900000Y-106100000D03*
X147500000Y-114000000D03*
G04 #@! TO.N,/RELAY_1*
X147400000Y-107300000D03*
X147300000Y-105700000D03*
X144100000Y-101800000D03*
X143000000Y-100900000D03*
X145803209Y-120100645D03*
G04 #@! TD*
D36*
G04 #@! TO.N,GND*
X135674000Y-114383600D02*
X135674000Y-116040000D01*
X135674000Y-116040000D02*
X135382000Y-116332000D01*
X135674000Y-116624000D02*
X135382000Y-116332000D01*
X135674000Y-118483600D02*
X135674000Y-116624000D01*
X135674000Y-111498600D02*
X135674000Y-109766000D01*
X135674000Y-109766000D02*
X135382000Y-109474000D01*
X135674000Y-109182000D02*
X135382000Y-109474000D01*
X135674000Y-107398600D02*
X135674000Y-109182000D01*
X158407200Y-110980000D02*
X158407200Y-112941200D01*
X158407200Y-112941200D02*
X158724600Y-113258600D01*
X158407200Y-113576000D02*
X158724600Y-113258600D01*
X158407200Y-115080000D02*
X158407200Y-113576000D01*
D37*
X134079400Y-58800000D02*
X134232800Y-58953400D01*
X133100000Y-58800000D02*
X134079400Y-58800000D01*
G04 #@! TO.N,Net-(D4-Pad1)*
X137922000Y-107950000D02*
X137922000Y-107478000D01*
X137922000Y-107478000D02*
X138500000Y-106900000D01*
G04 #@! TO.N,Net-(D5-Pad1)*
X138374000Y-117800000D02*
X137922000Y-117348000D01*
X139200000Y-117800000D02*
X138374000Y-117800000D01*
D36*
G04 #@! TO.N,Net-(LS1-Pad1)*
X143624979Y-112636979D02*
X143624979Y-112610530D01*
X143764000Y-113200264D02*
X143764000Y-112776000D01*
X143764000Y-115399860D02*
X143764000Y-113200264D01*
X143764000Y-112776000D02*
X143624979Y-112636979D01*
X145192540Y-116828400D02*
X143764000Y-115399860D01*
X146253200Y-116828400D02*
X145192540Y-116828400D01*
G04 #@! TO.N,Net-(LS1-Pad2)*
X145025600Y-109228400D02*
X146253200Y-109228400D01*
X143002000Y-111252000D02*
X145025600Y-109228400D01*
G04 #@! TO.N,Net-(R3-Pad2)*
X158851600Y-58699400D02*
X158826200Y-58674000D01*
X158851600Y-59944000D02*
X158851600Y-58699400D01*
G04 #@! TO.N,Net-(R11-Pad2)*
X139576400Y-62496800D02*
X139576400Y-63889090D01*
X139576400Y-63889090D02*
X139672820Y-63985510D01*
D37*
G04 #@! TO.N,/V_BAT*
X153924000Y-116332000D02*
X152146000Y-118110000D01*
X157226000Y-115316000D02*
X156040728Y-115316000D01*
X156040728Y-115316000D02*
X155892372Y-115464356D01*
X153924000Y-115316000D02*
X153924000Y-116332000D01*
G04 #@! TO.N,/3V3*
X135432800Y-59253400D02*
X135432800Y-57669400D01*
X135432800Y-57669400D02*
X135647400Y-57454800D01*
D38*
X138676400Y-62496800D02*
X138676400Y-63289200D01*
X138676400Y-63289200D02*
X138684000Y-63296800D01*
X138404600Y-63576200D02*
X138684000Y-63296800D01*
X136549400Y-63576200D02*
X138404600Y-63576200D01*
D36*
X153952000Y-112042000D02*
X152806400Y-110896400D01*
X156464000Y-112042000D02*
X153952000Y-112042000D01*
X151028400Y-112674400D02*
X151028400Y-117094000D01*
X152806400Y-110896400D02*
X151028400Y-112674400D01*
X137922000Y-114973000D02*
X137160000Y-114211000D01*
X137922000Y-115598000D02*
X137922000Y-114973000D01*
X137160000Y-110462000D02*
X137922000Y-109700000D01*
X137160000Y-114211000D02*
X137160000Y-110462000D01*
X151028400Y-117094000D02*
X150317200Y-117805200D01*
X150317200Y-117805200D02*
X150317200Y-123317000D01*
D38*
X157556200Y-60078715D02*
X157556200Y-58674000D01*
X160869000Y-63391515D02*
X157556200Y-60078715D01*
X160869000Y-63957200D02*
X160869000Y-63391515D01*
X156565600Y-101650800D02*
X159461200Y-98755200D01*
X159461200Y-98755200D02*
X159461200Y-91490800D01*
X157556200Y-57274000D02*
X156882200Y-56600000D01*
X157556200Y-58674000D02*
X157556200Y-57274000D01*
X156882200Y-56600000D02*
X145800000Y-56600000D01*
X145800000Y-56600000D02*
X145200000Y-57200000D01*
D37*
X135647400Y-57454800D02*
X137045200Y-57454800D01*
X137045200Y-57454800D02*
X137100000Y-57400000D01*
D36*
X150317200Y-123317000D02*
X149047200Y-124587000D01*
X138421072Y-116097072D02*
X137922000Y-115598000D01*
X145229802Y-118821200D02*
X145076001Y-118975001D01*
X145076001Y-118975001D02*
X141299001Y-118975001D01*
X151028400Y-117094000D02*
X149301200Y-118821200D01*
X141299001Y-118975001D02*
X138421072Y-116097072D01*
X149301200Y-118821200D02*
X145229802Y-118821200D01*
G04 #@! TO.N,/V_IN*
X147622201Y-109080399D02*
X147622201Y-108449097D01*
X149656800Y-112572800D02*
X149656800Y-111114998D01*
X149656800Y-111114998D02*
X147622201Y-109080399D01*
X146919904Y-107746800D02*
X145542000Y-107746800D01*
X147622201Y-108449097D02*
X146919904Y-107746800D01*
X145542000Y-107746800D02*
X143840013Y-109448787D01*
X143840013Y-109448787D02*
X143433613Y-109448787D01*
D37*
X154000000Y-94480000D02*
X149766000Y-90246000D01*
X149766000Y-90246000D02*
X149516000Y-90246000D01*
X154000000Y-101300000D02*
X154000000Y-94480000D01*
G04 #@! TO.N,/V_USB*
X161724990Y-117167010D02*
X160782000Y-118110000D01*
X161724990Y-111249254D02*
X161724990Y-117167010D01*
X161500000Y-111024264D02*
X161724990Y-111249254D01*
X161500000Y-110600000D02*
X161500000Y-111024264D01*
D36*
G04 #@! TO.N,/BUTTON_LED*
X144616000Y-90996000D02*
X143112000Y-92500000D01*
X144616000Y-90246000D02*
X144616000Y-90996000D01*
X143112000Y-92500000D02*
X136450000Y-92500000D01*
X136450000Y-92500000D02*
X135800000Y-91850000D01*
X135800000Y-91850000D02*
X135800000Y-90600000D01*
G04 #@! TO.N,/FACTORY_RST*
X158242000Y-116895200D02*
X158242000Y-117094000D01*
X160007200Y-115130000D02*
X158242000Y-116895200D01*
X160007200Y-115080000D02*
X160007200Y-115130000D01*
X160007200Y-110980000D02*
X160007200Y-115080000D01*
X160007200Y-110980000D02*
X160007200Y-110502800D01*
X158850000Y-109772800D02*
X158850000Y-104800000D01*
X160007200Y-110980000D02*
X160007200Y-110930000D01*
X160007200Y-110930000D02*
X158850000Y-109772800D01*
G04 #@! TO.N,/TXD*
X143229692Y-102616000D02*
X143242846Y-102602846D01*
X136398000Y-102616000D02*
X143229692Y-102616000D01*
X132774990Y-85099310D02*
X132774990Y-88896848D01*
X136002999Y-83900000D02*
X133974300Y-83900000D01*
X133974300Y-83900000D02*
X132774990Y-85099310D01*
G04 #@! TO.N,/RXD*
X133350000Y-89429011D02*
X132101011Y-90678000D01*
X143039816Y-103378000D02*
X143065410Y-103352406D01*
X136398000Y-103378000D02*
X143039816Y-103378000D01*
X133474400Y-85219600D02*
X133480400Y-85219600D01*
X133480400Y-85219600D02*
X133800000Y-84900000D01*
X133350000Y-85344000D02*
X133350000Y-89429011D01*
X133474400Y-85219600D02*
X133350000Y-85344000D01*
X133800000Y-84900000D02*
X135602999Y-84900000D01*
X135602999Y-84900000D02*
X136002999Y-85300000D01*
G04 #@! TO.N,/SCL*
X135432800Y-61459600D02*
X136549400Y-62576200D01*
X135432800Y-60303400D02*
X135432800Y-61459600D01*
X136549400Y-62576200D02*
X136949400Y-62576200D01*
G04 #@! TO.N,/SDA*
X134232800Y-61592800D02*
X133249400Y-62576200D01*
X134232800Y-60303400D02*
X134232800Y-61592800D01*
X132241800Y-62576200D02*
X131526001Y-63291999D01*
X133249400Y-62576200D02*
X132241800Y-62576200D01*
X131526001Y-63291999D02*
X131526001Y-65892401D01*
X131526001Y-65892401D02*
X132638800Y-67005200D01*
X132655200Y-67005200D02*
X132638800Y-67005200D01*
X135000000Y-69350000D02*
X132655200Y-67005200D01*
G04 #@! TO.N,/I2S_WS*
X140476400Y-62496800D02*
X140476400Y-65568400D01*
X140090999Y-67731801D02*
X138531600Y-69291200D01*
X140476400Y-65568400D02*
X140090999Y-65953801D01*
X140090999Y-65953801D02*
X140090999Y-67731801D01*
X141224000Y-108204000D02*
X141224000Y-111087002D01*
X141732000Y-111595002D02*
X141732000Y-113538000D01*
X141224000Y-111087002D02*
X141732000Y-111595002D01*
X132288001Y-86913999D02*
X131826000Y-87376000D01*
X132588000Y-83312000D02*
X132288001Y-83611999D01*
X132288001Y-83611999D02*
X132288001Y-86913999D01*
G04 #@! TO.N,/I2S_BCLK*
X141427200Y-124779800D02*
X141427200Y-124587000D01*
X141935200Y-124587000D02*
X141427200Y-124587000D01*
X138637400Y-61676800D02*
X138676400Y-61676800D01*
X137922000Y-60961400D02*
X138637400Y-61676800D01*
X137922000Y-58978800D02*
X137922000Y-60961400D01*
X139547600Y-57353200D02*
X137922000Y-58978800D01*
X140302199Y-121297801D02*
X140400000Y-121200000D01*
X140302199Y-123461999D02*
X140302199Y-121297801D01*
X141427200Y-124587000D02*
X140302199Y-123461999D01*
X140400000Y-121200000D02*
X140400000Y-120700000D01*
X140400000Y-120700000D02*
X140500000Y-120600000D01*
G04 #@! TO.N,/I2S_DATA_OUT*
X139300000Y-107200000D02*
X141400000Y-105100000D01*
X139200000Y-113800000D02*
X139200000Y-111600000D01*
X141400000Y-105100000D02*
X141400000Y-105000000D01*
X157600000Y-96100000D02*
X157600000Y-92500000D01*
X157600000Y-92500000D02*
X157200000Y-92100000D01*
G04 #@! TO.N,/PROG*
X134074000Y-108826400D02*
X133654800Y-108407200D01*
X134074000Y-111498600D02*
X134074000Y-108826400D01*
X133654800Y-107817800D02*
X134074000Y-107398600D01*
X133654800Y-108407200D02*
X133654800Y-107817800D01*
X134074000Y-111498600D02*
X134074000Y-111548600D01*
X134074000Y-111548600D02*
X133374000Y-112248600D01*
X134550000Y-99752000D02*
X134366000Y-99568000D01*
X134550000Y-104969000D02*
X134550000Y-99752000D01*
G04 #@! TO.N,/ZERO_DETECT*
X161000000Y-119400000D02*
X162500000Y-117900000D01*
X162500000Y-110480800D02*
X161493200Y-109474000D01*
X162500000Y-117900000D02*
X162500000Y-110480800D01*
X150858136Y-127101600D02*
X150056536Y-126300000D01*
X151282400Y-127101600D02*
X150858136Y-127101600D01*
X148220200Y-126300000D02*
X146507200Y-124587000D01*
X150056536Y-126300000D02*
X148220200Y-126300000D01*
G04 #@! TO.N,/IR_RX*
X148590000Y-71374000D02*
X142292010Y-71374000D01*
X134162800Y-85598000D02*
X134162800Y-89662000D01*
X134162800Y-89662000D02*
X134112000Y-89712800D01*
X134366000Y-93980000D02*
X135680000Y-93980000D01*
X135680000Y-93980000D02*
X135800000Y-94100000D01*
G04 #@! TO.N,/IR_TX*
X135128000Y-80010000D02*
X135128000Y-83058000D01*
X148590000Y-72390000D02*
X142494000Y-72390000D01*
X135128000Y-85852000D02*
X135128000Y-89916000D01*
G04 #@! TO.N,/EN*
X134074000Y-114383600D02*
X134074000Y-118483600D01*
X145999200Y-83718400D02*
X143510000Y-83718400D01*
X143510000Y-83718400D02*
X143459200Y-83769200D01*
X140309600Y-104241600D02*
X138633200Y-105918000D01*
X138633200Y-105918000D02*
X137617200Y-105918000D01*
X134074000Y-114383600D02*
X134074000Y-114973200D01*
X134074000Y-114973200D02*
X134569200Y-115468400D01*
X134074000Y-114333600D02*
X132706317Y-112965917D01*
X132706317Y-112965917D02*
X132706317Y-112590239D01*
X134074000Y-114383600D02*
X134074000Y-114333600D01*
G04 #@! TO.N,/T_UP*
X152350000Y-82300000D02*
X149050000Y-79000000D01*
X149050000Y-79000000D02*
X147050000Y-79000000D01*
X152350000Y-88350000D02*
X152350000Y-82300000D01*
G04 #@! TO.N,/T_RIGHT*
X153600000Y-88600000D02*
X153600000Y-90300000D01*
X156050000Y-87900000D02*
X154300000Y-87900000D01*
X154300000Y-87900000D02*
X153600000Y-88600000D01*
G04 #@! TO.N,/T_LEFT*
X141750000Y-87850000D02*
X138100000Y-87850000D01*
X142900000Y-86700000D02*
X141750000Y-87850000D01*
G04 #@! TO.N,/RELAY_2*
X141427200Y-123249081D02*
X141427200Y-122047000D01*
X141578119Y-123400000D02*
X141427200Y-123249081D01*
X145000000Y-123400000D02*
X141578119Y-123400000D01*
G04 #@! TO.N,/RELAY_4*
X151700000Y-85100000D02*
X151400000Y-85400000D01*
X151400000Y-85400000D02*
X151400000Y-87200000D01*
X151800000Y-95500000D02*
X151800000Y-98500000D01*
X151800000Y-98500000D02*
X150700000Y-99600000D01*
X150700000Y-99600000D02*
X150200000Y-99600000D01*
X150200000Y-99600000D02*
X148900000Y-100900000D01*
X148900000Y-106100000D02*
X148900000Y-108900000D01*
X148900000Y-108900000D02*
X149083001Y-109083001D01*
X149083001Y-109083001D02*
X150400000Y-110400000D01*
X149080602Y-114000000D02*
X147500000Y-114000000D01*
X150400000Y-110400000D02*
X150400000Y-112680602D01*
X150400000Y-112680602D02*
X149080602Y-114000000D01*
G04 #@! TO.N,/RELAY_1*
X147400000Y-106875736D02*
X147300000Y-106775736D01*
X147400000Y-107300000D02*
X147400000Y-106875736D01*
X147300000Y-106775736D02*
X147300000Y-105700000D01*
X144100000Y-101800000D02*
X143900000Y-101800000D01*
X143900000Y-101800000D02*
X143000000Y-100900000D01*
X138887200Y-122047000D02*
X138887200Y-120844919D01*
X139931473Y-119800646D02*
X145503210Y-119800646D01*
X145503210Y-119800646D02*
X145803209Y-120100645D01*
X138887200Y-120844919D02*
X139931473Y-119800646D01*
G04 #@! TD*
D39*
G04 #@! TO.N,GND*
G36*
X152383028Y-43837842D02*
X152383029Y-43837847D01*
X152383028Y-49173350D01*
X152370589Y-49235466D01*
X152383028Y-49298426D01*
X152383028Y-49298842D01*
X152395196Y-49360018D01*
X152419552Y-49483294D01*
X152419788Y-49483648D01*
X152419871Y-49484066D01*
X152490020Y-49589051D01*
X152559629Y-49693519D01*
X152559981Y-49693755D01*
X152560219Y-49694111D01*
X152665344Y-49764354D01*
X152769491Y-49834138D01*
X152769907Y-49834221D01*
X152770263Y-49834459D01*
X152894317Y-49859135D01*
X152954668Y-49871220D01*
X152955078Y-49871221D01*
X153018028Y-49883742D01*
X153080166Y-49871382D01*
X159609633Y-49879815D01*
X159485077Y-50105472D01*
X161000000Y-51620395D01*
X162514923Y-50105472D01*
X162392351Y-49883408D01*
X162990001Y-49884180D01*
X162990001Y-50448169D01*
X162694528Y-50285077D01*
X161179605Y-51800000D01*
X162694528Y-53314923D01*
X162990001Y-53151831D01*
X162990001Y-72604008D01*
X162936086Y-72473847D01*
X162476153Y-72013914D01*
X161875222Y-71765000D01*
X161224778Y-71765000D01*
X160623847Y-72013914D01*
X160163914Y-72473847D01*
X159915000Y-73074778D01*
X159915000Y-73725222D01*
X160163914Y-74326153D01*
X160623847Y-74786086D01*
X161224778Y-75035000D01*
X161875222Y-75035000D01*
X162476153Y-74786086D01*
X162936086Y-74326153D01*
X162990001Y-74195992D01*
X162990000Y-101604008D01*
X162936086Y-101473847D01*
X162476153Y-101013914D01*
X161875222Y-100765000D01*
X161224778Y-100765000D01*
X160623847Y-101013914D01*
X160163914Y-101473847D01*
X159915000Y-102074778D01*
X159915000Y-102725222D01*
X160163914Y-103326153D01*
X160623847Y-103786086D01*
X161224778Y-104035000D01*
X161875222Y-104035000D01*
X162476153Y-103786086D01*
X162936086Y-103326153D01*
X162990000Y-103195992D01*
X162990000Y-109894164D01*
X162984473Y-109890471D01*
X162428200Y-109334199D01*
X162428200Y-109288017D01*
X162285855Y-108944365D01*
X162022835Y-108681345D01*
X161679183Y-108539000D01*
X161307217Y-108539000D01*
X160963565Y-108681345D01*
X160700545Y-108944365D01*
X160558200Y-109288017D01*
X160558200Y-109659983D01*
X160645171Y-109869949D01*
X160457200Y-109832560D01*
X160372078Y-109832560D01*
X160303737Y-109786896D01*
X160007200Y-109727911D01*
X159901031Y-109749029D01*
X159610000Y-109457999D01*
X159610000Y-105503711D01*
X159727431Y-105386280D01*
X159885000Y-105005874D01*
X159885000Y-104594126D01*
X159727431Y-104213720D01*
X159436280Y-103922569D01*
X159055874Y-103765000D01*
X158644126Y-103765000D01*
X158263720Y-103922569D01*
X157972569Y-104213720D01*
X157815000Y-104594126D01*
X157815000Y-105005874D01*
X157972569Y-105386280D01*
X158090001Y-105503712D01*
X158090000Y-109697953D01*
X158075112Y-109772800D01*
X158089474Y-109845000D01*
X157830891Y-109845000D01*
X157597502Y-109941673D01*
X157418873Y-110120301D01*
X157322200Y-110353690D01*
X157322200Y-110694250D01*
X157480950Y-110853000D01*
X158280200Y-110853000D01*
X158280200Y-110833000D01*
X158534200Y-110833000D01*
X158534200Y-110853000D01*
X158554200Y-110853000D01*
X158554200Y-111107000D01*
X158534200Y-111107000D01*
X158534200Y-111956250D01*
X158692950Y-112115000D01*
X158983509Y-112115000D01*
X159216898Y-112018327D01*
X159218098Y-112017127D01*
X159247200Y-112036573D01*
X159247201Y-114023427D01*
X159218098Y-114042873D01*
X159216898Y-114041673D01*
X158983509Y-113945000D01*
X158692950Y-113945000D01*
X158534200Y-114103750D01*
X158534200Y-114953000D01*
X158554200Y-114953000D01*
X158554200Y-115207000D01*
X158534200Y-115207000D01*
X158534200Y-115227000D01*
X158280200Y-115227000D01*
X158280200Y-115207000D01*
X158260200Y-115207000D01*
X158260200Y-114953000D01*
X158280200Y-114953000D01*
X158280200Y-114103750D01*
X158121450Y-113945000D01*
X157830891Y-113945000D01*
X157597502Y-114041673D01*
X157586440Y-114052735D01*
X157586440Y-113504500D01*
X157519078Y-113165848D01*
X157352803Y-112917000D01*
X157519078Y-112668152D01*
X157586440Y-112329500D01*
X157586440Y-112007265D01*
X157597502Y-112018327D01*
X157830891Y-112115000D01*
X158121450Y-112115000D01*
X158280200Y-111956250D01*
X158280200Y-111107000D01*
X157480950Y-111107000D01*
X157380099Y-111207851D01*
X157327247Y-111128753D01*
X157040152Y-110936922D01*
X156701500Y-110869560D01*
X156226500Y-110869560D01*
X155887848Y-110936922D01*
X155600753Y-111128753D01*
X155498356Y-111282000D01*
X154266802Y-111282000D01*
X153841400Y-110856599D01*
X153841400Y-110690526D01*
X153683831Y-110310120D01*
X153392680Y-110018969D01*
X153012274Y-109861400D01*
X152600526Y-109861400D01*
X152220120Y-110018969D01*
X151928969Y-110310120D01*
X151771400Y-110690526D01*
X151771400Y-110856598D01*
X151160000Y-111467999D01*
X151160000Y-110474848D01*
X151174888Y-110400000D01*
X151160000Y-110325152D01*
X151160000Y-110325148D01*
X151115904Y-110103463D01*
X151115904Y-110103462D01*
X150990329Y-109915527D01*
X150947929Y-109852071D01*
X150884473Y-109809671D01*
X149673332Y-108598531D01*
X149673330Y-108598528D01*
X149660000Y-108585198D01*
X149660000Y-106662290D01*
X149692655Y-106629635D01*
X149835000Y-106285983D01*
X149835000Y-105914017D01*
X149692655Y-105570365D01*
X149429635Y-105307345D01*
X149085983Y-105165000D01*
X148714017Y-105165000D01*
X148370365Y-105307345D01*
X148214115Y-105463595D01*
X148092655Y-105170365D01*
X147829635Y-104907345D01*
X147485983Y-104765000D01*
X147114017Y-104765000D01*
X146770365Y-104907345D01*
X146507345Y-105170365D01*
X146365000Y-105514017D01*
X146365000Y-105885983D01*
X146507345Y-106229635D01*
X146540000Y-106262290D01*
X146540000Y-106700889D01*
X146525112Y-106775736D01*
X146540000Y-106850583D01*
X146540000Y-106850587D01*
X146551068Y-106906230D01*
X146517695Y-106986800D01*
X145616846Y-106986800D01*
X145541999Y-106971912D01*
X145467152Y-106986800D01*
X145467148Y-106986800D01*
X145245463Y-107030896D01*
X144994071Y-107198871D01*
X144951671Y-107262327D01*
X143676600Y-108537399D01*
X143619596Y-108513787D01*
X143247630Y-108513787D01*
X142903978Y-108656132D01*
X142640958Y-108919152D01*
X142498613Y-109262804D01*
X142498613Y-109634770D01*
X142640958Y-109978422D01*
X142903978Y-110241442D01*
X142927863Y-110251336D01*
X142862199Y-110317000D01*
X142816017Y-110317000D01*
X142472365Y-110459345D01*
X142209345Y-110722365D01*
X142128747Y-110916947D01*
X141984000Y-110772200D01*
X141984000Y-108766290D01*
X142016655Y-108733635D01*
X142159000Y-108389983D01*
X142159000Y-108018017D01*
X142016655Y-107674365D01*
X141753635Y-107411345D01*
X141409983Y-107269000D01*
X141038017Y-107269000D01*
X140694365Y-107411345D01*
X140431345Y-107674365D01*
X140289000Y-108018017D01*
X140289000Y-108389983D01*
X140431345Y-108733635D01*
X140464000Y-108766290D01*
X140464001Y-111012150D01*
X140449112Y-111087002D01*
X140508097Y-111383539D01*
X140599378Y-111520150D01*
X140676072Y-111634931D01*
X140739527Y-111677330D01*
X140972000Y-111909804D01*
X140972001Y-112975709D01*
X140939345Y-113008365D01*
X140797000Y-113352017D01*
X140797000Y-113723983D01*
X140939345Y-114067635D01*
X141202365Y-114330655D01*
X141546017Y-114473000D01*
X141917983Y-114473000D01*
X142261635Y-114330655D01*
X142524655Y-114067635D01*
X142667000Y-113723983D01*
X142667000Y-113352017D01*
X142524655Y-113008365D01*
X142492000Y-112975710D01*
X142492000Y-112052788D01*
X142792422Y-112177227D01*
X142689979Y-112424547D01*
X142689979Y-112796513D01*
X142832324Y-113140165D01*
X143004001Y-113311842D01*
X143004000Y-115325013D01*
X142989112Y-115399860D01*
X143004000Y-115474707D01*
X143004000Y-115474711D01*
X143048096Y-115696396D01*
X143216071Y-115947789D01*
X143279530Y-115990191D01*
X144602211Y-117312873D01*
X144644611Y-117376329D01*
X144896003Y-117544304D01*
X145064506Y-117577822D01*
X145079053Y-117612940D01*
X145468660Y-118002547D01*
X145610261Y-118061200D01*
X145304648Y-118061200D01*
X145229801Y-118046312D01*
X145154954Y-118061200D01*
X145154950Y-118061200D01*
X144933265Y-118105296D01*
X144769080Y-118215001D01*
X141613803Y-118215001D01*
X139044440Y-115645639D01*
X139044440Y-115310500D01*
X138977078Y-114971848D01*
X138785247Y-114684753D01*
X138529069Y-114513580D01*
X138512329Y-114488527D01*
X138469929Y-114425071D01*
X138406473Y-114382671D01*
X137920000Y-113896199D01*
X137920000Y-111414017D01*
X138265000Y-111414017D01*
X138265000Y-111785983D01*
X138407345Y-112129635D01*
X138440001Y-112162291D01*
X138440000Y-113237710D01*
X138407345Y-113270365D01*
X138265000Y-113614017D01*
X138265000Y-113985983D01*
X138407345Y-114329635D01*
X138670365Y-114592655D01*
X139014017Y-114735000D01*
X139385983Y-114735000D01*
X139729635Y-114592655D01*
X139992655Y-114329635D01*
X140135000Y-113985983D01*
X140135000Y-113614017D01*
X139992655Y-113270365D01*
X139960000Y-113237710D01*
X139960000Y-112162290D01*
X139992655Y-112129635D01*
X140135000Y-111785983D01*
X140135000Y-111414017D01*
X139992655Y-111070365D01*
X139729635Y-110807345D01*
X139385983Y-110665000D01*
X139014017Y-110665000D01*
X138670365Y-110807345D01*
X138407345Y-111070365D01*
X138265000Y-111414017D01*
X137920000Y-111414017D01*
X137920000Y-110872440D01*
X138159500Y-110872440D01*
X138498152Y-110805078D01*
X138785247Y-110613247D01*
X138977078Y-110326152D01*
X139044440Y-109987500D01*
X139044440Y-109412500D01*
X138977078Y-109073848D01*
X138810803Y-108825000D01*
X138977078Y-108576152D01*
X139044440Y-108237500D01*
X139044440Y-108106180D01*
X139114017Y-108135000D01*
X139485983Y-108135000D01*
X139829635Y-107992655D01*
X140092655Y-107729635D01*
X140235000Y-107385983D01*
X140235000Y-107339801D01*
X141677859Y-105896944D01*
X141929635Y-105792655D01*
X142192655Y-105529635D01*
X142335000Y-105185983D01*
X142335000Y-104814017D01*
X142192655Y-104470365D01*
X141929635Y-104207345D01*
X141762221Y-104138000D01*
X142528714Y-104138000D01*
X142535775Y-104145061D01*
X142879427Y-104287406D01*
X143251393Y-104287406D01*
X143595045Y-104145061D01*
X143858065Y-103882041D01*
X144000410Y-103538389D01*
X144000410Y-103167572D01*
X144035501Y-103132481D01*
X144177846Y-102788829D01*
X144177846Y-102735000D01*
X144285983Y-102735000D01*
X144629635Y-102592655D01*
X144892655Y-102329635D01*
X145035000Y-101985983D01*
X145035000Y-101614017D01*
X144892655Y-101270365D01*
X144629635Y-101007345D01*
X144285983Y-100865000D01*
X144039802Y-100865000D01*
X143935000Y-100760199D01*
X143935000Y-100714017D01*
X143792655Y-100370365D01*
X143529635Y-100107345D01*
X143185983Y-99965000D01*
X142814017Y-99965000D01*
X142470365Y-100107345D01*
X142207345Y-100370365D01*
X142065000Y-100714017D01*
X142065000Y-101085983D01*
X142207345Y-101429635D01*
X142470365Y-101692655D01*
X142733667Y-101801718D01*
X142713211Y-101810191D01*
X142667402Y-101856000D01*
X136960290Y-101856000D01*
X136927635Y-101823345D01*
X136583983Y-101681000D01*
X136212017Y-101681000D01*
X135868365Y-101823345D01*
X135605345Y-102086365D01*
X135463000Y-102430017D01*
X135463000Y-102801983D01*
X135543779Y-102997000D01*
X135463000Y-103192017D01*
X135463000Y-103563983D01*
X135605345Y-103907635D01*
X135868365Y-104170655D01*
X136212017Y-104313000D01*
X136583983Y-104313000D01*
X136927635Y-104170655D01*
X136960290Y-104138000D01*
X139338398Y-104138000D01*
X138318399Y-105158000D01*
X138179490Y-105158000D01*
X138146835Y-105125345D01*
X137803183Y-104983000D01*
X137431217Y-104983000D01*
X137087565Y-105125345D01*
X136824545Y-105388365D01*
X136682200Y-105732017D01*
X136682200Y-106103983D01*
X136824545Y-106447635D01*
X137087565Y-106710655D01*
X137383809Y-106833363D01*
X137375268Y-106839070D01*
X137345848Y-106844922D01*
X137058753Y-107036753D01*
X136866922Y-107323848D01*
X136799560Y-107662500D01*
X136799560Y-108237500D01*
X136866922Y-108576152D01*
X137033197Y-108825000D01*
X136866922Y-109073848D01*
X136799560Y-109412500D01*
X136799560Y-109747639D01*
X136675528Y-109871671D01*
X136612072Y-109914071D01*
X136569672Y-109977527D01*
X136569671Y-109977528D01*
X136444097Y-110165463D01*
X136392934Y-110422677D01*
X136250309Y-110363600D01*
X135959750Y-110363600D01*
X135801000Y-110522350D01*
X135801000Y-111371600D01*
X135821000Y-111371600D01*
X135821000Y-111625600D01*
X135801000Y-111625600D01*
X135801000Y-112474850D01*
X135959750Y-112633600D01*
X136250309Y-112633600D01*
X136400000Y-112571596D01*
X136400000Y-113310604D01*
X136250309Y-113248600D01*
X135959750Y-113248600D01*
X135801000Y-113407350D01*
X135801000Y-114256600D01*
X135821000Y-114256600D01*
X135821000Y-114510600D01*
X135801000Y-114510600D01*
X135801000Y-115359850D01*
X135959750Y-115518600D01*
X136250309Y-115518600D01*
X136483698Y-115421927D01*
X136662327Y-115243299D01*
X136759000Y-115009910D01*
X136759000Y-114884801D01*
X136863459Y-114989260D01*
X136799560Y-115310500D01*
X136799560Y-115885500D01*
X136866922Y-116224152D01*
X137033197Y-116473000D01*
X136866922Y-116721848D01*
X136799560Y-117060500D01*
X136799560Y-117635500D01*
X136866922Y-117974152D01*
X137058753Y-118261247D01*
X137345848Y-118453078D01*
X137684500Y-118520440D01*
X137949255Y-118520440D01*
X138048199Y-118586552D01*
X138291763Y-118635000D01*
X138374000Y-118651358D01*
X138456237Y-118635000D01*
X138772595Y-118635000D01*
X139014017Y-118735000D01*
X139385983Y-118735000D01*
X139729635Y-118592655D01*
X139785744Y-118536546D01*
X140289844Y-119040646D01*
X140006319Y-119040646D01*
X139931472Y-119025758D01*
X139856625Y-119040646D01*
X139856621Y-119040646D01*
X139634936Y-119084742D01*
X139383544Y-119252717D01*
X139341144Y-119316173D01*
X138402728Y-120254590D01*
X138339272Y-120296990D01*
X138296872Y-120360446D01*
X138296871Y-120360447D01*
X138171297Y-120548382D01*
X138127487Y-120768630D01*
X137816575Y-120976375D01*
X137488361Y-121467582D01*
X137373108Y-122047000D01*
X137488361Y-122626418D01*
X137816575Y-123117625D01*
X138114961Y-123317000D01*
X137816575Y-123516375D01*
X137488361Y-124007582D01*
X137373108Y-124587000D01*
X137488361Y-125166418D01*
X137816575Y-125657625D01*
X138307782Y-125985839D01*
X138740944Y-126072000D01*
X139033456Y-126072000D01*
X139466618Y-125985839D01*
X139957825Y-125657625D01*
X140157200Y-125359239D01*
X140356575Y-125657625D01*
X140847782Y-125985839D01*
X141280944Y-126072000D01*
X141573456Y-126072000D01*
X142006618Y-125985839D01*
X142497825Y-125657625D01*
X142697200Y-125359239D01*
X142896575Y-125657625D01*
X143387782Y-125985839D01*
X143820944Y-126072000D01*
X144113456Y-126072000D01*
X144546618Y-125985839D01*
X145037825Y-125657625D01*
X145237200Y-125359239D01*
X145436575Y-125657625D01*
X145927782Y-125985839D01*
X146360944Y-126072000D01*
X146653456Y-126072000D01*
X146873608Y-126028209D01*
X147629870Y-126784472D01*
X147653796Y-126820279D01*
X147405418Y-126808783D01*
X146560142Y-126967736D01*
X145774105Y-127316881D01*
X145089470Y-127837489D01*
X144542964Y-128501633D01*
X144163903Y-129273689D01*
X143972619Y-130112239D01*
X143979374Y-130972304D01*
X144183805Y-131807747D01*
X144574947Y-132573753D01*
X145131818Y-133229232D01*
X145824545Y-133739022D01*
X146615970Y-134075777D01*
X147463638Y-134221433D01*
X148322079Y-134168176D01*
X149145244Y-133918864D01*
X149888976Y-133486870D01*
X150513381Y-132895367D01*
X150984963Y-132176084D01*
X151278426Y-131367607D01*
X151378028Y-130513302D01*
X151377570Y-130454972D01*
X151264561Y-129602337D01*
X150958435Y-128798569D01*
X150475613Y-128086782D01*
X149841995Y-127505160D01*
X149091569Y-127084901D01*
X149004442Y-127060000D01*
X149741735Y-127060000D01*
X150267807Y-127586073D01*
X150310207Y-127649529D01*
X150561599Y-127817504D01*
X150704424Y-127845914D01*
X150752765Y-127894255D01*
X151096417Y-128036600D01*
X151468383Y-128036600D01*
X151812035Y-127894255D01*
X152075055Y-127631235D01*
X152217400Y-127287583D01*
X152217400Y-126915617D01*
X152075055Y-126571965D01*
X151812035Y-126308945D01*
X151468383Y-126166600D01*
X151096417Y-126166600D01*
X151026781Y-126195444D01*
X150646867Y-125815530D01*
X150604465Y-125752071D01*
X150353073Y-125584096D01*
X150188790Y-125551418D01*
X150317200Y-125359239D01*
X150516575Y-125657625D01*
X151007782Y-125985839D01*
X151440944Y-126072000D01*
X151733456Y-126072000D01*
X152166618Y-125985839D01*
X152657825Y-125657625D01*
X152871043Y-125338522D01*
X152932017Y-125468358D01*
X153360276Y-125858645D01*
X153770310Y-126028476D01*
X154000200Y-125907155D01*
X154000200Y-124714000D01*
X154254200Y-124714000D01*
X154254200Y-125907155D01*
X154484090Y-126028476D01*
X154894124Y-125858645D01*
X155192064Y-125587122D01*
X155278873Y-125796698D01*
X155457501Y-125975327D01*
X155690890Y-126072000D01*
X156381450Y-126072000D01*
X156540200Y-125913250D01*
X156540200Y-124714000D01*
X156794200Y-124714000D01*
X156794200Y-125913250D01*
X156952950Y-126072000D01*
X157643510Y-126072000D01*
X157876899Y-125975327D01*
X158055527Y-125796698D01*
X158152200Y-125563309D01*
X158152200Y-124872750D01*
X157993450Y-124714000D01*
X156794200Y-124714000D01*
X156540200Y-124714000D01*
X154254200Y-124714000D01*
X154000200Y-124714000D01*
X153980200Y-124714000D01*
X153980200Y-124460000D01*
X154000200Y-124460000D01*
X154000200Y-124440000D01*
X154254200Y-124440000D01*
X154254200Y-124460000D01*
X156540200Y-124460000D01*
X156540200Y-122174000D01*
X156794200Y-122174000D01*
X156794200Y-124460000D01*
X157993450Y-124460000D01*
X158152200Y-124301250D01*
X158152200Y-123610691D01*
X158055527Y-123377302D01*
X157876899Y-123198673D01*
X157662992Y-123110070D01*
X157862383Y-122928358D01*
X158108686Y-122403892D01*
X157988019Y-122174000D01*
X156794200Y-122174000D01*
X156540200Y-122174000D01*
X156520200Y-122174000D01*
X156520200Y-121920000D01*
X156540200Y-121920000D01*
X156540200Y-120726845D01*
X156794200Y-120726845D01*
X156794200Y-121920000D01*
X157988019Y-121920000D01*
X158108686Y-121690108D01*
X157862383Y-121165642D01*
X157434124Y-120775355D01*
X157024090Y-120605524D01*
X156794200Y-120726845D01*
X156540200Y-120726845D01*
X156310310Y-120605524D01*
X155900276Y-120775355D01*
X155472017Y-121165642D01*
X155411043Y-121295478D01*
X155197825Y-120976375D01*
X154706618Y-120648161D01*
X154273456Y-120562000D01*
X153980944Y-120562000D01*
X153547782Y-120648161D01*
X153056575Y-120976375D01*
X152857200Y-121274761D01*
X152657825Y-120976375D01*
X152166618Y-120648161D01*
X151733456Y-120562000D01*
X151440944Y-120562000D01*
X151077200Y-120634353D01*
X151077200Y-118120002D01*
X151211000Y-117986202D01*
X151211000Y-118295983D01*
X151353345Y-118639635D01*
X151616365Y-118902655D01*
X151960017Y-119045000D01*
X152331983Y-119045000D01*
X152675635Y-118902655D01*
X152938655Y-118639635D01*
X153038656Y-118398212D01*
X154456283Y-116980585D01*
X154526001Y-116934001D01*
X154710552Y-116657801D01*
X154759000Y-116414237D01*
X154775358Y-116332000D01*
X154759000Y-116249763D01*
X154759000Y-115743405D01*
X154859000Y-115501983D01*
X154859000Y-115130017D01*
X154716655Y-114786365D01*
X154453635Y-114523345D01*
X154109983Y-114381000D01*
X153738017Y-114381000D01*
X153394365Y-114523345D01*
X153131345Y-114786365D01*
X152989000Y-115130017D01*
X152989000Y-115501983D01*
X153089000Y-115743406D01*
X153089001Y-115986132D01*
X151857788Y-117217344D01*
X151771658Y-117253021D01*
X151788400Y-117168852D01*
X151788400Y-117168848D01*
X151803288Y-117094000D01*
X151788400Y-117019152D01*
X151788400Y-112989201D01*
X152806400Y-111971202D01*
X153361671Y-112526473D01*
X153404071Y-112589929D01*
X153655463Y-112757904D01*
X153877148Y-112802000D01*
X153877152Y-112802000D01*
X153951999Y-112816888D01*
X154026846Y-112802000D01*
X155498356Y-112802000D01*
X155575197Y-112917000D01*
X155408922Y-113165848D01*
X155341560Y-113504500D01*
X155341560Y-114079500D01*
X155408922Y-114418152D01*
X155531602Y-114601755D01*
X155362737Y-114671701D01*
X155099717Y-114934721D01*
X154957372Y-115278373D01*
X154957372Y-115650339D01*
X155099717Y-115993991D01*
X155362737Y-116257011D01*
X155706389Y-116399356D01*
X156078355Y-116399356D01*
X156422007Y-116257011D01*
X156528018Y-116151000D01*
X156798595Y-116151000D01*
X157040017Y-116251000D01*
X157411983Y-116251000D01*
X157664893Y-116146241D01*
X157830891Y-116215000D01*
X157847399Y-116215000D01*
X157795482Y-116266917D01*
X157712365Y-116301345D01*
X157449345Y-116564365D01*
X157307000Y-116908017D01*
X157307000Y-117279983D01*
X157449345Y-117623635D01*
X157712365Y-117886655D01*
X158056017Y-118029000D01*
X158427983Y-118029000D01*
X158771635Y-117886655D01*
X159034655Y-117623635D01*
X159177000Y-117279983D01*
X159177000Y-117035001D01*
X159984562Y-116227440D01*
X160457200Y-116227440D01*
X160704965Y-116178157D01*
X160889991Y-116054526D01*
X160889991Y-116821141D01*
X160493788Y-117217344D01*
X160252365Y-117317345D01*
X159989345Y-117580365D01*
X159847000Y-117924017D01*
X159847000Y-118295983D01*
X159989345Y-118639635D01*
X160213710Y-118864000D01*
X160207345Y-118870365D01*
X160065000Y-119214017D01*
X160065000Y-119585983D01*
X160207345Y-119929635D01*
X160470365Y-120192655D01*
X160814017Y-120335000D01*
X161185983Y-120335000D01*
X161529635Y-120192655D01*
X161792655Y-119929635D01*
X161935000Y-119585983D01*
X161935000Y-119539802D01*
X162984476Y-118490327D01*
X162990000Y-118486636D01*
X162990000Y-126964719D01*
X153080711Y-126960330D01*
X153018028Y-126947862D01*
X152892935Y-126972744D01*
X152770528Y-126997036D01*
X152770407Y-126997116D01*
X152770264Y-126997145D01*
X152665183Y-127067358D01*
X152560422Y-127137291D01*
X152560341Y-127137412D01*
X152560220Y-127137493D01*
X152490397Y-127241990D01*
X152419981Y-127347273D01*
X152419952Y-127347417D01*
X152419872Y-127347537D01*
X152395359Y-127470774D01*
X152370589Y-127595016D01*
X152383029Y-127657702D01*
X152383028Y-134580302D01*
X142985028Y-134580302D01*
X142985028Y-127657716D01*
X142997468Y-127595046D01*
X142973017Y-127472378D01*
X142948185Y-127347537D01*
X142948111Y-127347427D01*
X142948086Y-127347300D01*
X142878861Y-127243788D01*
X142874452Y-127237189D01*
X142867333Y-127201399D01*
X142839803Y-127160197D01*
X142809461Y-127139923D01*
X142807837Y-127137493D01*
X142807727Y-127137419D01*
X142807655Y-127137312D01*
X142703454Y-127067746D01*
X142597792Y-126997145D01*
X142597664Y-126997119D01*
X142597555Y-126997047D01*
X142475027Y-126972726D01*
X142350028Y-126947862D01*
X142287359Y-126960328D01*
X134024472Y-126963603D01*
X134324636Y-126839271D01*
X134514923Y-126494528D01*
X133000000Y-124979605D01*
X131485077Y-126494528D01*
X131675364Y-126839271D01*
X131988928Y-126964410D01*
X131135000Y-126964748D01*
X131135000Y-126220828D01*
X131305472Y-126314923D01*
X132820395Y-124800000D01*
X133179605Y-124800000D01*
X134694528Y-126314923D01*
X135039271Y-126124636D01*
X135390956Y-125243409D01*
X135378641Y-124294677D01*
X135039271Y-123475364D01*
X134694528Y-123285077D01*
X133179605Y-124800000D01*
X132820395Y-124800000D01*
X131305472Y-123285077D01*
X131135000Y-123379172D01*
X131135000Y-123105472D01*
X131485077Y-123105472D01*
X133000000Y-124620395D01*
X134514923Y-123105472D01*
X134324636Y-122760729D01*
X133443409Y-122409044D01*
X132494677Y-122421359D01*
X131675364Y-122760729D01*
X131485077Y-123105472D01*
X131135000Y-123105472D01*
X131135000Y-112404256D01*
X131771317Y-112404256D01*
X131771317Y-112776222D01*
X131913662Y-113119874D01*
X131974068Y-113180280D01*
X131990413Y-113262453D01*
X132158388Y-113513846D01*
X132221847Y-113556248D01*
X132976560Y-114310962D01*
X132976560Y-114883600D01*
X133025843Y-115131365D01*
X133166191Y-115341409D01*
X133314000Y-115440173D01*
X133314001Y-117427027D01*
X133166191Y-117525791D01*
X133025843Y-117735835D01*
X132976560Y-117983600D01*
X132976560Y-118983600D01*
X133025843Y-119231365D01*
X133166191Y-119441409D01*
X133376235Y-119581757D01*
X133624000Y-119631040D01*
X134524000Y-119631040D01*
X134771765Y-119581757D01*
X134863102Y-119520727D01*
X134864302Y-119521927D01*
X135097691Y-119618600D01*
X135388250Y-119618600D01*
X135547000Y-119459850D01*
X135547000Y-118610600D01*
X135801000Y-118610600D01*
X135801000Y-119459850D01*
X135959750Y-119618600D01*
X136250309Y-119618600D01*
X136483698Y-119521927D01*
X136662327Y-119343299D01*
X136759000Y-119109910D01*
X136759000Y-118769350D01*
X136600250Y-118610600D01*
X135801000Y-118610600D01*
X135547000Y-118610600D01*
X135527000Y-118610600D01*
X135527000Y-118356600D01*
X135547000Y-118356600D01*
X135547000Y-117507350D01*
X135801000Y-117507350D01*
X135801000Y-118356600D01*
X136600250Y-118356600D01*
X136759000Y-118197850D01*
X136759000Y-117857290D01*
X136662327Y-117623901D01*
X136483698Y-117445273D01*
X136250309Y-117348600D01*
X135959750Y-117348600D01*
X135801000Y-117507350D01*
X135547000Y-117507350D01*
X135388250Y-117348600D01*
X135097691Y-117348600D01*
X134864302Y-117445273D01*
X134863102Y-117446473D01*
X134834000Y-117427027D01*
X134834000Y-116370753D01*
X135098835Y-116261055D01*
X135361855Y-115998035D01*
X135504200Y-115654383D01*
X135504200Y-115402650D01*
X135547000Y-115359850D01*
X135547000Y-114510600D01*
X135527000Y-114510600D01*
X135527000Y-114256600D01*
X135547000Y-114256600D01*
X135547000Y-113407350D01*
X135388250Y-113248600D01*
X135097691Y-113248600D01*
X134864302Y-113345273D01*
X134863102Y-113346473D01*
X134771765Y-113285443D01*
X134524000Y-113236160D01*
X134051362Y-113236160D01*
X133870275Y-113055073D01*
X133903635Y-113041255D01*
X134166655Y-112778235D01*
X134221412Y-112646040D01*
X134524000Y-112646040D01*
X134771765Y-112596757D01*
X134863102Y-112535727D01*
X134864302Y-112536927D01*
X135097691Y-112633600D01*
X135388250Y-112633600D01*
X135547000Y-112474850D01*
X135547000Y-111625600D01*
X135527000Y-111625600D01*
X135527000Y-111371600D01*
X135547000Y-111371600D01*
X135547000Y-110522350D01*
X135388250Y-110363600D01*
X135097691Y-110363600D01*
X134864302Y-110460273D01*
X134863102Y-110461473D01*
X134834000Y-110442027D01*
X134834000Y-108901246D01*
X134848888Y-108826399D01*
X134834000Y-108751552D01*
X134834000Y-108751548D01*
X134789904Y-108529863D01*
X134768250Y-108497456D01*
X134771765Y-108496757D01*
X134863102Y-108435727D01*
X134864302Y-108436927D01*
X135097691Y-108533600D01*
X135388250Y-108533600D01*
X135547000Y-108374850D01*
X135547000Y-107525600D01*
X135801000Y-107525600D01*
X135801000Y-108374850D01*
X135959750Y-108533600D01*
X136250309Y-108533600D01*
X136483698Y-108436927D01*
X136662327Y-108258299D01*
X136759000Y-108024910D01*
X136759000Y-107684350D01*
X136600250Y-107525600D01*
X135801000Y-107525600D01*
X135547000Y-107525600D01*
X135527000Y-107525600D01*
X135527000Y-107271600D01*
X135547000Y-107271600D01*
X135547000Y-106422350D01*
X135801000Y-106422350D01*
X135801000Y-107271600D01*
X136600250Y-107271600D01*
X136759000Y-107112850D01*
X136759000Y-106772290D01*
X136662327Y-106538901D01*
X136483698Y-106360273D01*
X136250309Y-106263600D01*
X135959750Y-106263600D01*
X135801000Y-106422350D01*
X135547000Y-106422350D01*
X135388250Y-106263600D01*
X135097691Y-106263600D01*
X134864302Y-106360273D01*
X134863102Y-106361473D01*
X134771765Y-106300443D01*
X134524000Y-106251160D01*
X133624000Y-106251160D01*
X133376235Y-106300443D01*
X133166191Y-106440791D01*
X133025843Y-106650835D01*
X132976560Y-106898600D01*
X132976560Y-107464895D01*
X132938896Y-107521263D01*
X132894800Y-107742948D01*
X132894800Y-107742953D01*
X132879912Y-107817800D01*
X132886880Y-107852830D01*
X132862145Y-107877565D01*
X132719800Y-108221217D01*
X132719800Y-108593183D01*
X132862145Y-108936835D01*
X133125165Y-109199855D01*
X133314001Y-109278073D01*
X133314000Y-110442027D01*
X133166191Y-110540791D01*
X133025843Y-110750835D01*
X132976560Y-110998600D01*
X132976560Y-111401188D01*
X132844365Y-111455945D01*
X132645071Y-111655239D01*
X132520334Y-111655239D01*
X132176682Y-111797584D01*
X131913662Y-112060604D01*
X131771317Y-112404256D01*
X131135000Y-112404256D01*
X131135000Y-103256348D01*
X131163914Y-103326153D01*
X131623847Y-103786086D01*
X132224778Y-104035000D01*
X132875222Y-104035000D01*
X133476153Y-103786086D01*
X133790000Y-103472239D01*
X133790000Y-104406710D01*
X133757345Y-104439365D01*
X133615000Y-104783017D01*
X133615000Y-105154983D01*
X133757345Y-105498635D01*
X134020365Y-105761655D01*
X134364017Y-105904000D01*
X134735983Y-105904000D01*
X135079635Y-105761655D01*
X135342655Y-105498635D01*
X135485000Y-105154983D01*
X135485000Y-104783017D01*
X135342655Y-104439365D01*
X135310000Y-104406710D01*
X135310000Y-99826846D01*
X135324888Y-99751999D01*
X135310000Y-99677152D01*
X135310000Y-99677148D01*
X135301000Y-99631902D01*
X135301000Y-99382017D01*
X135158655Y-99038365D01*
X134895635Y-98775345D01*
X134551983Y-98633000D01*
X134180017Y-98633000D01*
X133836365Y-98775345D01*
X133573345Y-99038365D01*
X133431000Y-99382017D01*
X133431000Y-99753983D01*
X133573345Y-100097635D01*
X133790001Y-100314291D01*
X133790001Y-101327762D01*
X133476153Y-101013914D01*
X132875222Y-100765000D01*
X132224778Y-100765000D01*
X131623847Y-101013914D01*
X131163914Y-101473847D01*
X131135000Y-101543652D01*
X131135000Y-95400000D01*
X142902560Y-95400000D01*
X142902560Y-98400000D01*
X142951843Y-98647765D01*
X143092191Y-98857809D01*
X143302235Y-98998157D01*
X143550000Y-99047440D01*
X149659002Y-99047440D01*
X149652071Y-99052071D01*
X149609671Y-99115527D01*
X148760199Y-99965000D01*
X148714017Y-99965000D01*
X148370365Y-100107345D01*
X148107345Y-100370365D01*
X147965000Y-100714017D01*
X147965000Y-101085983D01*
X148107345Y-101429635D01*
X148370365Y-101692655D01*
X148714017Y-101835000D01*
X149085983Y-101835000D01*
X149429635Y-101692655D01*
X149692655Y-101429635D01*
X149835000Y-101085983D01*
X149835000Y-101039801D01*
X150514802Y-100360000D01*
X150625153Y-100360000D01*
X150700000Y-100374888D01*
X150774847Y-100360000D01*
X150774852Y-100360000D01*
X150996537Y-100315904D01*
X151247929Y-100147929D01*
X151290331Y-100084470D01*
X152284473Y-99090329D01*
X152347929Y-99047929D01*
X152515904Y-98796537D01*
X152560000Y-98574852D01*
X152560000Y-98574847D01*
X152574888Y-98500000D01*
X152560000Y-98425153D01*
X152560000Y-96062290D01*
X152592655Y-96029635D01*
X152735000Y-95685983D01*
X152735000Y-95314017D01*
X152592655Y-94970365D01*
X152329635Y-94707345D01*
X151985983Y-94565000D01*
X151614017Y-94565000D01*
X151270365Y-94707345D01*
X151018908Y-94958802D01*
X151007809Y-94942191D01*
X150797765Y-94801843D01*
X150550000Y-94752560D01*
X147302850Y-94752560D01*
X147249635Y-94699345D01*
X146905983Y-94557000D01*
X146534017Y-94557000D01*
X146190365Y-94699345D01*
X146137150Y-94752560D01*
X143550000Y-94752560D01*
X143302235Y-94801843D01*
X143092191Y-94942191D01*
X142951843Y-95152235D01*
X142902560Y-95400000D01*
X131135000Y-95400000D01*
X131135000Y-93794017D01*
X133431000Y-93794017D01*
X133431000Y-94165983D01*
X133573345Y-94509635D01*
X133836365Y-94772655D01*
X134180017Y-94915000D01*
X134551983Y-94915000D01*
X134895635Y-94772655D01*
X134928290Y-94740000D01*
X135117710Y-94740000D01*
X135270365Y-94892655D01*
X135614017Y-95035000D01*
X135985983Y-95035000D01*
X136329635Y-94892655D01*
X136592655Y-94629635D01*
X136735000Y-94285983D01*
X136735000Y-93914017D01*
X136592655Y-93570365D01*
X136329635Y-93307345D01*
X135985983Y-93165000D01*
X135614017Y-93165000D01*
X135481235Y-93220000D01*
X134928290Y-93220000D01*
X134895635Y-93187345D01*
X134551983Y-93045000D01*
X134180017Y-93045000D01*
X133836365Y-93187345D01*
X133573345Y-93450365D01*
X133431000Y-93794017D01*
X131135000Y-93794017D01*
X131135000Y-88007290D01*
X131296365Y-88168655D01*
X131640017Y-88311000D01*
X132011983Y-88311000D01*
X132014991Y-88309754D01*
X132014991Y-88334557D01*
X131982335Y-88367213D01*
X131839990Y-88710865D01*
X131839990Y-89082831D01*
X131982335Y-89426483D01*
X132130031Y-89574179D01*
X131961210Y-89743000D01*
X131915028Y-89743000D01*
X131571376Y-89885345D01*
X131308356Y-90148365D01*
X131166011Y-90492017D01*
X131166011Y-90863983D01*
X131308356Y-91207635D01*
X131571376Y-91470655D01*
X131915028Y-91613000D01*
X132286994Y-91613000D01*
X132630646Y-91470655D01*
X132893666Y-91207635D01*
X133036011Y-90863983D01*
X133036011Y-90817801D01*
X133465361Y-90388451D01*
X133582365Y-90505455D01*
X133926017Y-90647800D01*
X134297983Y-90647800D01*
X134467354Y-90577644D01*
X134598365Y-90708655D01*
X134881558Y-90825957D01*
X135007345Y-91129635D01*
X135040001Y-91162291D01*
X135040000Y-91775153D01*
X135025112Y-91850000D01*
X135040000Y-91924847D01*
X135040000Y-91924851D01*
X135084096Y-92146536D01*
X135252071Y-92397929D01*
X135315530Y-92440331D01*
X135859671Y-92984473D01*
X135902071Y-93047929D01*
X135965527Y-93090329D01*
X136153462Y-93215904D01*
X136201605Y-93225480D01*
X136375148Y-93260000D01*
X136375152Y-93260000D01*
X136450000Y-93274888D01*
X136524848Y-93260000D01*
X143037153Y-93260000D01*
X143112000Y-93274888D01*
X143186847Y-93260000D01*
X143186852Y-93260000D01*
X143408537Y-93215904D01*
X143659929Y-93047929D01*
X143702331Y-92984470D01*
X145100473Y-91586329D01*
X145163929Y-91543929D01*
X145264483Y-91393440D01*
X145366000Y-91393440D01*
X145613765Y-91344157D01*
X145823809Y-91203809D01*
X145964157Y-90993765D01*
X146013440Y-90746000D01*
X146013440Y-89746000D01*
X148118560Y-89746000D01*
X148118560Y-90746000D01*
X148167843Y-90993765D01*
X148308191Y-91203809D01*
X148518235Y-91344157D01*
X148766000Y-91393440D01*
X149732573Y-91393440D01*
X153165001Y-94825869D01*
X153165000Y-100872595D01*
X153065000Y-101114017D01*
X153065000Y-101485983D01*
X153207345Y-101829635D01*
X153470365Y-102092655D01*
X153814017Y-102235000D01*
X154185983Y-102235000D01*
X154529635Y-102092655D01*
X154792655Y-101829635D01*
X154935000Y-101485983D01*
X154935000Y-101444926D01*
X155530600Y-101444926D01*
X155530600Y-101856674D01*
X155688169Y-102237080D01*
X155979320Y-102528231D01*
X156359726Y-102685800D01*
X156771474Y-102685800D01*
X157151880Y-102528231D01*
X157443031Y-102237080D01*
X157593031Y-101874947D01*
X160025356Y-99442623D01*
X160099249Y-99393249D01*
X160159243Y-99303463D01*
X160294852Y-99100510D01*
X160307213Y-99038365D01*
X160346200Y-98842365D01*
X160346200Y-98842361D01*
X160363537Y-98755200D01*
X160346200Y-98668039D01*
X160346200Y-92058807D01*
X160496200Y-91696674D01*
X160496200Y-91284926D01*
X160338631Y-90904520D01*
X160047480Y-90613369D01*
X159667074Y-90455800D01*
X159255326Y-90455800D01*
X158874920Y-90613369D01*
X158583769Y-90904520D01*
X158426200Y-91284926D01*
X158426200Y-91696674D01*
X158576201Y-92058809D01*
X158576200Y-98388621D01*
X156341453Y-100623369D01*
X155979320Y-100773369D01*
X155688169Y-101064520D01*
X155530600Y-101444926D01*
X154935000Y-101444926D01*
X154935000Y-101114017D01*
X154835000Y-100872595D01*
X154835000Y-94562232D01*
X154851357Y-94479999D01*
X154835000Y-94397766D01*
X154835000Y-94397763D01*
X154786552Y-94154199D01*
X154602001Y-93877999D01*
X154532283Y-93831415D01*
X150913440Y-90212573D01*
X150913440Y-89746000D01*
X150864157Y-89498235D01*
X150723809Y-89288191D01*
X150513765Y-89147843D01*
X150266000Y-89098560D01*
X148766000Y-89098560D01*
X148518235Y-89147843D01*
X148308191Y-89288191D01*
X148167843Y-89498235D01*
X148118560Y-89746000D01*
X146013440Y-89746000D01*
X145964157Y-89498235D01*
X145823809Y-89288191D01*
X145613765Y-89147843D01*
X145366000Y-89098560D01*
X143866000Y-89098560D01*
X143618235Y-89147843D01*
X143408191Y-89288191D01*
X143267843Y-89498235D01*
X143218560Y-89746000D01*
X143218560Y-90746000D01*
X143267843Y-90993765D01*
X143378230Y-91158969D01*
X142797199Y-91740000D01*
X140103118Y-91740000D01*
X140198157Y-91597765D01*
X140247440Y-91350000D01*
X140247440Y-88610000D01*
X141675153Y-88610000D01*
X141750000Y-88624888D01*
X141824847Y-88610000D01*
X141824852Y-88610000D01*
X142046537Y-88565904D01*
X142297929Y-88397929D01*
X142340331Y-88334470D01*
X143039802Y-87635000D01*
X143085983Y-87635000D01*
X143231000Y-87574932D01*
X143231000Y-87672310D01*
X143327673Y-87905699D01*
X143506302Y-88084327D01*
X143739691Y-88181000D01*
X144330250Y-88181000D01*
X144489000Y-88022250D01*
X144489000Y-87173000D01*
X144743000Y-87173000D01*
X144743000Y-88022250D01*
X144901750Y-88181000D01*
X145492309Y-88181000D01*
X145725698Y-88084327D01*
X145904327Y-87905699D01*
X146001000Y-87672310D01*
X146001000Y-87331750D01*
X145842250Y-87173000D01*
X144743000Y-87173000D01*
X144489000Y-87173000D01*
X144469000Y-87173000D01*
X144469000Y-86919000D01*
X144489000Y-86919000D01*
X144489000Y-86069750D01*
X144743000Y-86069750D01*
X144743000Y-86919000D01*
X145842250Y-86919000D01*
X146001000Y-86760250D01*
X146001000Y-86419690D01*
X145904327Y-86186301D01*
X145725698Y-86007673D01*
X145492309Y-85911000D01*
X144901750Y-85911000D01*
X144743000Y-86069750D01*
X144489000Y-86069750D01*
X144330250Y-85911000D01*
X143739691Y-85911000D01*
X143523033Y-86000743D01*
X143429635Y-85907345D01*
X143085983Y-85765000D01*
X142714017Y-85765000D01*
X142370365Y-85907345D01*
X142107345Y-86170365D01*
X141965000Y-86514017D01*
X141965000Y-86560198D01*
X141435199Y-87090000D01*
X140247440Y-87090000D01*
X140247440Y-84350000D01*
X140198157Y-84102235D01*
X140057809Y-83892191D01*
X139847765Y-83751843D01*
X139600000Y-83702560D01*
X136933253Y-83702560D01*
X136883820Y-83583217D01*
X142524200Y-83583217D01*
X142524200Y-83955183D01*
X142666545Y-84298835D01*
X142929565Y-84561855D01*
X143273217Y-84704200D01*
X143645183Y-84704200D01*
X143988835Y-84561855D01*
X144072290Y-84478400D01*
X145436910Y-84478400D01*
X145469565Y-84511055D01*
X145813217Y-84653400D01*
X146185183Y-84653400D01*
X146528835Y-84511055D01*
X146791855Y-84248035D01*
X146934200Y-83904383D01*
X146934200Y-83532417D01*
X146791855Y-83188765D01*
X146528835Y-82925745D01*
X146185183Y-82783400D01*
X145813217Y-82783400D01*
X145469565Y-82925745D01*
X145436910Y-82958400D01*
X143945029Y-82958400D01*
X143645183Y-82834200D01*
X143273217Y-82834200D01*
X142929565Y-82976545D01*
X142666545Y-83239565D01*
X142524200Y-83583217D01*
X136883820Y-83583217D01*
X136795654Y-83370365D01*
X136532634Y-83107345D01*
X136188982Y-82965000D01*
X136063000Y-82965000D01*
X136063000Y-82872017D01*
X135920655Y-82528365D01*
X135888000Y-82495710D01*
X135888000Y-80572290D01*
X135920655Y-80539635D01*
X136063000Y-80195983D01*
X136063000Y-79824017D01*
X135920655Y-79480365D01*
X135657635Y-79217345D01*
X135313983Y-79075000D01*
X134942017Y-79075000D01*
X134598365Y-79217345D01*
X134335345Y-79480365D01*
X134193000Y-79824017D01*
X134193000Y-80195983D01*
X134335345Y-80539635D01*
X134368000Y-80572290D01*
X134368001Y-82495709D01*
X134335345Y-82528365D01*
X134193000Y-82872017D01*
X134193000Y-83140000D01*
X134049146Y-83140000D01*
X133974299Y-83125112D01*
X133899452Y-83140000D01*
X133899448Y-83140000D01*
X133677763Y-83184096D01*
X133615202Y-83225898D01*
X133523000Y-83287505D01*
X133523000Y-83126017D01*
X133380655Y-82782365D01*
X133117635Y-82519345D01*
X132773983Y-82377000D01*
X132402017Y-82377000D01*
X132058365Y-82519345D01*
X131795345Y-82782365D01*
X131653000Y-83126017D01*
X131653000Y-83194383D01*
X131572097Y-83315463D01*
X131528001Y-83537148D01*
X131528001Y-83537152D01*
X131513113Y-83611999D01*
X131528001Y-83686846D01*
X131528002Y-86487398D01*
X131296365Y-86583345D01*
X131135000Y-86744710D01*
X131135000Y-77500000D01*
X142902560Y-77500000D01*
X142902560Y-80500000D01*
X142951843Y-80747765D01*
X143092191Y-80957809D01*
X143302235Y-81098157D01*
X143550000Y-81147440D01*
X150122639Y-81147440D01*
X151590001Y-82614803D01*
X151590001Y-84165000D01*
X151514017Y-84165000D01*
X151170365Y-84307345D01*
X150907345Y-84570365D01*
X150765000Y-84914017D01*
X150765000Y-84982382D01*
X150684096Y-85103464D01*
X150640000Y-85325149D01*
X150640000Y-85325153D01*
X150625112Y-85400000D01*
X150640000Y-85474847D01*
X150640000Y-86032191D01*
X150513765Y-85947843D01*
X150266000Y-85898560D01*
X148766000Y-85898560D01*
X148518235Y-85947843D01*
X148308191Y-86088191D01*
X148167843Y-86298235D01*
X148118560Y-86546000D01*
X148118560Y-87546000D01*
X148167843Y-87793765D01*
X148308191Y-88003809D01*
X148518235Y-88144157D01*
X148766000Y-88193440D01*
X150266000Y-88193440D01*
X150513765Y-88144157D01*
X150723809Y-88003809D01*
X150786979Y-87909269D01*
X150870365Y-87992655D01*
X151214017Y-88135000D01*
X151427019Y-88135000D01*
X151415000Y-88164017D01*
X151415000Y-88535983D01*
X151557345Y-88879635D01*
X151820365Y-89142655D01*
X152164017Y-89285000D01*
X152535983Y-89285000D01*
X152840000Y-89159072D01*
X152840001Y-89737709D01*
X152807345Y-89770365D01*
X152665000Y-90114017D01*
X152665000Y-90485983D01*
X152807345Y-90829635D01*
X153070365Y-91092655D01*
X153414017Y-91235000D01*
X153785983Y-91235000D01*
X153902560Y-91186712D01*
X153902560Y-91400000D01*
X153951843Y-91647765D01*
X154092191Y-91857809D01*
X154302235Y-91998157D01*
X154550000Y-92047440D01*
X156265000Y-92047440D01*
X156265000Y-92285983D01*
X156407345Y-92629635D01*
X156670365Y-92892655D01*
X156840001Y-92962920D01*
X156840000Y-95537710D01*
X156807345Y-95570365D01*
X156665000Y-95914017D01*
X156665000Y-96285983D01*
X156807345Y-96629635D01*
X157070365Y-96892655D01*
X157414017Y-97035000D01*
X157785983Y-97035000D01*
X158129635Y-96892655D01*
X158392655Y-96629635D01*
X158535000Y-96285983D01*
X158535000Y-95914017D01*
X158392655Y-95570365D01*
X158360000Y-95537710D01*
X158360000Y-92574846D01*
X158374888Y-92499999D01*
X158360000Y-92425152D01*
X158360000Y-92425148D01*
X158315904Y-92203463D01*
X158147929Y-91952071D01*
X158135000Y-91943432D01*
X158135000Y-91914017D01*
X158071954Y-91761810D01*
X158148157Y-91647765D01*
X158197440Y-91400000D01*
X158197440Y-84400000D01*
X158148157Y-84152235D01*
X158007809Y-83942191D01*
X157797765Y-83801843D01*
X157550000Y-83752560D01*
X154550000Y-83752560D01*
X154302235Y-83801843D01*
X154092191Y-83942191D01*
X153951843Y-84152235D01*
X153902560Y-84400000D01*
X153902560Y-87251517D01*
X153815526Y-87309671D01*
X153815524Y-87309673D01*
X153752071Y-87352071D01*
X153709672Y-87415525D01*
X153190156Y-87935043D01*
X153142655Y-87820365D01*
X153110000Y-87787710D01*
X153110000Y-82374848D01*
X153124888Y-82300000D01*
X153110000Y-82225152D01*
X153110000Y-82225148D01*
X153065904Y-82003463D01*
X153065904Y-82003462D01*
X152940329Y-81815527D01*
X152897929Y-81752071D01*
X152834473Y-81709671D01*
X151197440Y-80072639D01*
X151197440Y-77500000D01*
X151148157Y-77252235D01*
X151007809Y-77042191D01*
X150797765Y-76901843D01*
X150550000Y-76852560D01*
X143550000Y-76852560D01*
X143302235Y-76901843D01*
X143092191Y-77042191D01*
X142951843Y-77252235D01*
X142902560Y-77500000D01*
X131135000Y-77500000D01*
X131135000Y-74256348D01*
X131163914Y-74326153D01*
X131623847Y-74786086D01*
X132224778Y-75035000D01*
X132875222Y-75035000D01*
X133476153Y-74786086D01*
X133936086Y-74326153D01*
X134185000Y-73725222D01*
X134185000Y-73074778D01*
X133936086Y-72473847D01*
X133476153Y-72013914D01*
X132875222Y-71765000D01*
X132224778Y-71765000D01*
X131623847Y-72013914D01*
X131163914Y-72473847D01*
X131135000Y-72543652D01*
X131135000Y-71188017D01*
X141357010Y-71188017D01*
X141357010Y-71559983D01*
X141499355Y-71903635D01*
X141629510Y-72033790D01*
X141559000Y-72204017D01*
X141559000Y-72575983D01*
X141701345Y-72919635D01*
X141964365Y-73182655D01*
X142308017Y-73325000D01*
X142679983Y-73325000D01*
X143023635Y-73182655D01*
X143056290Y-73150000D01*
X148027710Y-73150000D01*
X148060365Y-73182655D01*
X148404017Y-73325000D01*
X148775983Y-73325000D01*
X149119635Y-73182655D01*
X149382655Y-72919635D01*
X149525000Y-72575983D01*
X149525000Y-72204017D01*
X149391616Y-71882000D01*
X149525000Y-71559983D01*
X149525000Y-71188017D01*
X149382655Y-70844365D01*
X149119635Y-70581345D01*
X148775983Y-70439000D01*
X148404017Y-70439000D01*
X148060365Y-70581345D01*
X148027710Y-70614000D01*
X142854300Y-70614000D01*
X142821645Y-70581345D01*
X142477993Y-70439000D01*
X142106027Y-70439000D01*
X141762375Y-70581345D01*
X141499355Y-70844365D01*
X141357010Y-71188017D01*
X131135000Y-71188017D01*
X131135000Y-66576201D01*
X131703800Y-67145002D01*
X131703800Y-67191183D01*
X131846145Y-67534835D01*
X132109165Y-67797855D01*
X132452817Y-67940200D01*
X132515399Y-67940200D01*
X134065000Y-69489802D01*
X134065000Y-69535983D01*
X134207345Y-69879635D01*
X134470365Y-70142655D01*
X134814017Y-70285000D01*
X135185983Y-70285000D01*
X135529635Y-70142655D01*
X135792655Y-69879635D01*
X135935000Y-69535983D01*
X135935000Y-69164017D01*
X135792655Y-68820365D01*
X135529635Y-68557345D01*
X135185983Y-68415000D01*
X135139802Y-68415000D01*
X133573800Y-66848999D01*
X133573800Y-66819217D01*
X133431455Y-66475565D01*
X133168435Y-66212545D01*
X132824783Y-66070200D01*
X132778602Y-66070200D01*
X132286001Y-65577600D01*
X132286001Y-65338797D01*
X132376635Y-65399357D01*
X132624400Y-65448640D01*
X133874400Y-65448640D01*
X133920588Y-65439453D01*
X133973091Y-65461200D01*
X134613650Y-65461200D01*
X134772400Y-65302450D01*
X134772400Y-63703200D01*
X134365150Y-63703200D01*
X134350650Y-63688700D01*
X133376400Y-63688700D01*
X133376400Y-63703760D01*
X133122400Y-63703760D01*
X133122400Y-63688700D01*
X133102400Y-63688700D01*
X133102400Y-63463700D01*
X133122400Y-63463700D01*
X133122400Y-63448640D01*
X133376400Y-63448640D01*
X133376400Y-63463700D01*
X134350650Y-63463700D01*
X134365150Y-63449200D01*
X134772400Y-63449200D01*
X134772400Y-63429200D01*
X135026400Y-63429200D01*
X135026400Y-63449200D01*
X135046400Y-63449200D01*
X135046400Y-63703200D01*
X135026400Y-63703200D01*
X135026400Y-65302450D01*
X135185150Y-65461200D01*
X135825709Y-65461200D01*
X135878212Y-65439453D01*
X135924400Y-65448640D01*
X137174400Y-65448640D01*
X137422165Y-65399357D01*
X137632209Y-65259009D01*
X137772557Y-65048965D01*
X137821840Y-64801200D01*
X137821840Y-64461200D01*
X138317439Y-64461200D01*
X138404600Y-64478537D01*
X138491761Y-64461200D01*
X138491765Y-64461200D01*
X138749910Y-64409852D01*
X138817770Y-64364509D01*
X138880165Y-64515145D01*
X139143185Y-64778165D01*
X139486837Y-64920510D01*
X139716401Y-64920510D01*
X139716401Y-65253598D01*
X139606528Y-65363470D01*
X139543070Y-65405872D01*
X139375095Y-65657265D01*
X139330999Y-65878950D01*
X139330999Y-65878954D01*
X139316111Y-65953801D01*
X139330999Y-66028648D01*
X139331000Y-67416998D01*
X138391799Y-68356200D01*
X138345617Y-68356200D01*
X138001965Y-68498545D01*
X137738945Y-68761565D01*
X137596600Y-69105217D01*
X137596600Y-69477183D01*
X137738945Y-69820835D01*
X138001965Y-70083855D01*
X138345617Y-70226200D01*
X138717583Y-70226200D01*
X139061235Y-70083855D01*
X139324255Y-69820835D01*
X139466600Y-69477183D01*
X139466600Y-69431001D01*
X140575472Y-68322130D01*
X140638928Y-68279730D01*
X140806903Y-68028338D01*
X140850999Y-67806653D01*
X140850999Y-67806649D01*
X140865887Y-67731802D01*
X140850999Y-67656955D01*
X140850999Y-66268603D01*
X140960872Y-66158729D01*
X141024329Y-66116329D01*
X141192304Y-65864937D01*
X141236400Y-65643252D01*
X141236400Y-65643248D01*
X141251288Y-65568401D01*
X141236400Y-65493554D01*
X141236400Y-63940000D01*
X145930805Y-63940000D01*
X146026656Y-64421873D01*
X146299615Y-64830385D01*
X146708127Y-65103344D01*
X147068364Y-65175000D01*
X147311636Y-65175000D01*
X147671873Y-65103344D01*
X148080385Y-64830385D01*
X148353344Y-64421873D01*
X148449195Y-63940000D01*
X148353344Y-63458127D01*
X148080385Y-63049615D01*
X147671873Y-62776656D01*
X147311636Y-62705000D01*
X147068364Y-62705000D01*
X146708127Y-62776656D01*
X146299615Y-63049615D01*
X146026656Y-63458127D01*
X145930805Y-63940000D01*
X141236400Y-63940000D01*
X141236400Y-63212330D01*
X141374557Y-63005565D01*
X141423840Y-62757800D01*
X141423840Y-62235800D01*
X141396733Y-62099520D01*
X141411400Y-62064110D01*
X141411400Y-61962550D01*
X141252650Y-61803800D01*
X141251454Y-61803800D01*
X141234209Y-61777991D01*
X141024165Y-61637643D01*
X140776400Y-61588360D01*
X140368874Y-61588360D01*
X140386773Y-61529800D01*
X140499792Y-61529800D01*
X140528065Y-61558073D01*
X140556338Y-61529800D01*
X140603400Y-61529800D01*
X140603400Y-61549800D01*
X141252650Y-61549800D01*
X141402450Y-61400000D01*
X143190805Y-61400000D01*
X143286656Y-61881873D01*
X143559615Y-62290385D01*
X143968127Y-62563344D01*
X144328364Y-62635000D01*
X144971636Y-62635000D01*
X145331873Y-62563344D01*
X145740385Y-62290385D01*
X146013344Y-61881873D01*
X146046018Y-61717609D01*
X148536538Y-61717609D01*
X148661503Y-62019327D01*
X148979844Y-62381080D01*
X149412389Y-62593472D01*
X149603000Y-62469714D01*
X149603000Y-61527000D01*
X149857000Y-61527000D01*
X149857000Y-62469714D01*
X150047611Y-62593472D01*
X150480156Y-62381080D01*
X150798497Y-62019327D01*
X150923462Y-61717609D01*
X150798731Y-61527000D01*
X149857000Y-61527000D01*
X149603000Y-61527000D01*
X148661269Y-61527000D01*
X148536538Y-61717609D01*
X146046018Y-61717609D01*
X146109195Y-61400000D01*
X146046019Y-61082391D01*
X148536538Y-61082391D01*
X148661269Y-61273000D01*
X149603000Y-61273000D01*
X149603000Y-60330286D01*
X149857000Y-60330286D01*
X149857000Y-61273000D01*
X150798731Y-61273000D01*
X150923462Y-61082391D01*
X150798497Y-60780673D01*
X150480156Y-60418920D01*
X150047611Y-60206528D01*
X149857000Y-60330286D01*
X149603000Y-60330286D01*
X149412389Y-60206528D01*
X148979844Y-60418920D01*
X148661503Y-60780673D01*
X148536538Y-61082391D01*
X146046019Y-61082391D01*
X146013344Y-60918127D01*
X145740385Y-60509615D01*
X145331873Y-60236656D01*
X144971636Y-60165000D01*
X144328364Y-60165000D01*
X143968127Y-60236656D01*
X143559615Y-60509615D01*
X143286656Y-60918127D01*
X143190805Y-61400000D01*
X141402450Y-61400000D01*
X141411400Y-61391050D01*
X141411400Y-61289490D01*
X141314727Y-61056101D01*
X141136098Y-60877473D01*
X140975971Y-60811146D01*
X141035306Y-60646444D01*
X141008308Y-60071425D01*
X140840200Y-59665576D01*
X140592836Y-59589969D01*
X139756005Y-60426800D01*
X139770148Y-60440943D01*
X139590543Y-60620548D01*
X139576400Y-60606405D01*
X139562258Y-60620548D01*
X139382653Y-60440943D01*
X139396795Y-60426800D01*
X139382653Y-60412658D01*
X139562258Y-60233053D01*
X139576400Y-60247195D01*
X140413231Y-59410364D01*
X140337624Y-59163000D01*
X139796044Y-58967894D01*
X139221025Y-58994892D01*
X138815176Y-59163000D01*
X138739570Y-59410362D01*
X138682000Y-59352792D01*
X138682000Y-59293601D01*
X139015851Y-58959750D01*
X155251200Y-58959750D01*
X155251200Y-59700310D01*
X155347873Y-59933699D01*
X155526502Y-60112327D01*
X155759891Y-60209000D01*
X156000450Y-60209000D01*
X156159200Y-60050250D01*
X156159200Y-58801000D01*
X155409950Y-58801000D01*
X155251200Y-58959750D01*
X139015851Y-58959750D01*
X139587402Y-58388200D01*
X139753474Y-58388200D01*
X140133880Y-58230631D01*
X140425031Y-57939480D01*
X140582600Y-57559074D01*
X140582600Y-57147326D01*
X140527382Y-57014017D01*
X144265000Y-57014017D01*
X144265000Y-57385983D01*
X144407345Y-57729635D01*
X144670365Y-57992655D01*
X145014017Y-58135000D01*
X145385983Y-58135000D01*
X145729635Y-57992655D01*
X145992655Y-57729635D01*
X146042655Y-57608923D01*
X146166579Y-57485000D01*
X155318588Y-57485000D01*
X155251200Y-57647690D01*
X155251200Y-58388250D01*
X155409950Y-58547000D01*
X156159200Y-58547000D01*
X156159200Y-58527000D01*
X156413200Y-58527000D01*
X156413200Y-58547000D01*
X156433200Y-58547000D01*
X156433200Y-58801000D01*
X156413200Y-58801000D01*
X156413200Y-60050250D01*
X156571950Y-60209000D01*
X156679777Y-60209000D01*
X156722548Y-60424024D01*
X156918151Y-60716764D01*
X156992047Y-60766140D01*
X158765793Y-62539886D01*
X158363093Y-62706690D01*
X158193875Y-62875908D01*
X158190757Y-62860235D01*
X158050409Y-62650191D01*
X157840365Y-62509843D01*
X157592600Y-62460560D01*
X155792600Y-62460560D01*
X155544835Y-62509843D01*
X155334791Y-62650191D01*
X155194443Y-62860235D01*
X155145160Y-63108000D01*
X155145160Y-64908000D01*
X155194443Y-65155765D01*
X155334791Y-65365809D01*
X155544835Y-65506157D01*
X155792600Y-65555440D01*
X157592600Y-65555440D01*
X157840365Y-65506157D01*
X158050409Y-65365809D01*
X158190757Y-65155765D01*
X158193875Y-65140092D01*
X158363093Y-65309310D01*
X158927270Y-65543000D01*
X159537930Y-65543000D01*
X160102107Y-65309310D01*
X160490656Y-64920761D01*
X160663126Y-64992200D01*
X161074874Y-64992200D01*
X161455280Y-64834631D01*
X161746431Y-64543480D01*
X161904000Y-64163074D01*
X161904000Y-63751326D01*
X161766025Y-63418223D01*
X161771337Y-63391515D01*
X161754000Y-63304354D01*
X161754000Y-63304350D01*
X161702652Y-63046205D01*
X161668747Y-62995463D01*
X161556424Y-62827360D01*
X161556423Y-62827359D01*
X161507049Y-62753466D01*
X161433156Y-62704092D01*
X159494187Y-60765124D01*
X159729031Y-60530280D01*
X159886600Y-60149874D01*
X159886600Y-60132850D01*
X159969200Y-60050250D01*
X159969200Y-58801000D01*
X160223200Y-58801000D01*
X160223200Y-60050250D01*
X160381950Y-60209000D01*
X160622509Y-60209000D01*
X160855898Y-60112327D01*
X161034527Y-59933699D01*
X161131200Y-59700310D01*
X161131200Y-58959750D01*
X160972450Y-58801000D01*
X160223200Y-58801000D01*
X159969200Y-58801000D01*
X159949200Y-58801000D01*
X159949200Y-58547000D01*
X159969200Y-58547000D01*
X159969200Y-57297750D01*
X160223200Y-57297750D01*
X160223200Y-58547000D01*
X160972450Y-58547000D01*
X161131200Y-58388250D01*
X161131200Y-57647690D01*
X161034527Y-57414301D01*
X160855898Y-57235673D01*
X160622509Y-57139000D01*
X160381950Y-57139000D01*
X160223200Y-57297750D01*
X159969200Y-57297750D01*
X159810450Y-57139000D01*
X159569891Y-57139000D01*
X159476636Y-57177628D01*
X159473965Y-57175843D01*
X159226200Y-57126560D01*
X158429211Y-57126560D01*
X158389852Y-56928690D01*
X158194249Y-56635951D01*
X158120356Y-56586577D01*
X157569625Y-56035847D01*
X157520249Y-55961951D01*
X157227510Y-55766348D01*
X156969365Y-55715000D01*
X156969361Y-55715000D01*
X156882200Y-55697663D01*
X156795039Y-55715000D01*
X145887159Y-55715000D01*
X145799999Y-55697663D01*
X145712839Y-55715000D01*
X145712835Y-55715000D01*
X145454690Y-55766348D01*
X145454688Y-55766349D01*
X145454689Y-55766349D01*
X145235845Y-55912576D01*
X145235844Y-55912577D01*
X145161951Y-55961951D01*
X145112577Y-56035844D01*
X144791077Y-56357345D01*
X144670365Y-56407345D01*
X144407345Y-56670365D01*
X144265000Y-57014017D01*
X140527382Y-57014017D01*
X140425031Y-56766920D01*
X140133880Y-56475769D01*
X139753474Y-56318200D01*
X139341726Y-56318200D01*
X138961320Y-56475769D01*
X138670169Y-56766920D01*
X138512600Y-57147326D01*
X138512600Y-57313398D01*
X138074808Y-57751191D01*
X138135000Y-57605874D01*
X138135000Y-57194126D01*
X137977431Y-56813720D01*
X137686280Y-56522569D01*
X137305874Y-56365000D01*
X136894126Y-56365000D01*
X136513720Y-56522569D01*
X136416489Y-56619800D01*
X135729632Y-56619800D01*
X135647399Y-56603443D01*
X135565166Y-56619800D01*
X135565163Y-56619800D01*
X135321599Y-56668248D01*
X135045399Y-56852799D01*
X134998813Y-56922520D01*
X134900518Y-57020815D01*
X134830800Y-57067399D01*
X134766150Y-57164154D01*
X134646248Y-57343600D01*
X134581443Y-57669400D01*
X134597801Y-57751638D01*
X134597801Y-58093400D01*
X134518550Y-58093400D01*
X134359800Y-58252150D01*
X134359800Y-58840900D01*
X134379800Y-58840900D01*
X134379800Y-59065900D01*
X134359800Y-59065900D01*
X134359800Y-59100400D01*
X134105800Y-59100400D01*
X134105800Y-59065900D01*
X133456550Y-59065900D01*
X133297800Y-59224650D01*
X133297800Y-59304709D01*
X133394473Y-59538098D01*
X133476175Y-59619800D01*
X133474991Y-59620591D01*
X133334643Y-59830635D01*
X133285360Y-60078400D01*
X133285360Y-60528400D01*
X133334643Y-60776165D01*
X133472801Y-60982931D01*
X133472801Y-61277998D01*
X133047039Y-61703760D01*
X132624400Y-61703760D01*
X132376635Y-61753043D01*
X132290037Y-61810907D01*
X132241800Y-61801312D01*
X132166952Y-61816200D01*
X132166948Y-61816200D01*
X131997276Y-61849950D01*
X131945262Y-61860296D01*
X131812701Y-61948871D01*
X131693871Y-62028271D01*
X131651471Y-62091727D01*
X131135000Y-62608199D01*
X131135000Y-58602091D01*
X133297800Y-58602091D01*
X133297800Y-58682150D01*
X133456550Y-58840900D01*
X134105800Y-58840900D01*
X134105800Y-58252150D01*
X133947050Y-58093400D01*
X133806490Y-58093400D01*
X133573101Y-58190073D01*
X133394473Y-58368702D01*
X133297800Y-58602091D01*
X131135000Y-58602091D01*
X131135000Y-53494528D01*
X159485077Y-53494528D01*
X159675364Y-53839271D01*
X160556591Y-54190956D01*
X161505323Y-54178641D01*
X162324636Y-53839271D01*
X162514923Y-53494528D01*
X161000000Y-51979605D01*
X159485077Y-53494528D01*
X131135000Y-53494528D01*
X131135000Y-51356591D01*
X158609044Y-51356591D01*
X158621359Y-52305323D01*
X158960729Y-53124636D01*
X159305472Y-53314923D01*
X160820395Y-51800000D01*
X159305472Y-50285077D01*
X158960729Y-50475364D01*
X158609044Y-51356591D01*
X131135000Y-51356591D01*
X131135000Y-49860593D01*
X142541193Y-49871243D01*
X142604028Y-49883742D01*
X142727866Y-49859109D01*
X142851234Y-49834690D01*
X142851490Y-49834519D01*
X142851793Y-49834459D01*
X142956876Y-49764244D01*
X143061409Y-49694538D01*
X143061580Y-49694283D01*
X143061837Y-49694111D01*
X143132137Y-49588901D01*
X143201953Y-49484625D01*
X143202013Y-49484324D01*
X143202185Y-49484067D01*
X143226909Y-49359771D01*
X143251467Y-49236906D01*
X143239028Y-49174064D01*
X143239028Y-47057239D01*
X143992184Y-47057239D01*
X143998939Y-47917304D01*
X144203370Y-48752747D01*
X144594512Y-49518753D01*
X145151383Y-50174232D01*
X145844110Y-50684022D01*
X146635535Y-51020777D01*
X147483203Y-51166433D01*
X148341644Y-51113176D01*
X149164809Y-50863864D01*
X149908541Y-50431870D01*
X150532946Y-49840367D01*
X151004528Y-49121084D01*
X151297991Y-48312607D01*
X151397593Y-47458302D01*
X151397135Y-47399972D01*
X151284126Y-46547337D01*
X150978000Y-45743569D01*
X150495178Y-45031782D01*
X149861560Y-44450160D01*
X149111134Y-44029901D01*
X148284154Y-43793549D01*
X147424983Y-43753783D01*
X146579707Y-43912736D01*
X145793670Y-44261881D01*
X145109035Y-44782489D01*
X144562529Y-45446633D01*
X144183468Y-46218689D01*
X143992184Y-47057239D01*
X143239028Y-47057239D01*
X143239028Y-43648302D01*
X152383028Y-43648302D01*
X152383028Y-43837842D01*
X152383028Y-43837842D01*
G37*
X152383028Y-43837842D02*
X152383029Y-43837847D01*
X152383028Y-49173350D01*
X152370589Y-49235466D01*
X152383028Y-49298426D01*
X152383028Y-49298842D01*
X152395196Y-49360018D01*
X152419552Y-49483294D01*
X152419788Y-49483648D01*
X152419871Y-49484066D01*
X152490020Y-49589051D01*
X152559629Y-49693519D01*
X152559981Y-49693755D01*
X152560219Y-49694111D01*
X152665344Y-49764354D01*
X152769491Y-49834138D01*
X152769907Y-49834221D01*
X152770263Y-49834459D01*
X152894317Y-49859135D01*
X152954668Y-49871220D01*
X152955078Y-49871221D01*
X153018028Y-49883742D01*
X153080166Y-49871382D01*
X159609633Y-49879815D01*
X159485077Y-50105472D01*
X161000000Y-51620395D01*
X162514923Y-50105472D01*
X162392351Y-49883408D01*
X162990001Y-49884180D01*
X162990001Y-50448169D01*
X162694528Y-50285077D01*
X161179605Y-51800000D01*
X162694528Y-53314923D01*
X162990001Y-53151831D01*
X162990001Y-72604008D01*
X162936086Y-72473847D01*
X162476153Y-72013914D01*
X161875222Y-71765000D01*
X161224778Y-71765000D01*
X160623847Y-72013914D01*
X160163914Y-72473847D01*
X159915000Y-73074778D01*
X159915000Y-73725222D01*
X160163914Y-74326153D01*
X160623847Y-74786086D01*
X161224778Y-75035000D01*
X161875222Y-75035000D01*
X162476153Y-74786086D01*
X162936086Y-74326153D01*
X162990001Y-74195992D01*
X162990000Y-101604008D01*
X162936086Y-101473847D01*
X162476153Y-101013914D01*
X161875222Y-100765000D01*
X161224778Y-100765000D01*
X160623847Y-101013914D01*
X160163914Y-101473847D01*
X159915000Y-102074778D01*
X159915000Y-102725222D01*
X160163914Y-103326153D01*
X160623847Y-103786086D01*
X161224778Y-104035000D01*
X161875222Y-104035000D01*
X162476153Y-103786086D01*
X162936086Y-103326153D01*
X162990000Y-103195992D01*
X162990000Y-109894164D01*
X162984473Y-109890471D01*
X162428200Y-109334199D01*
X162428200Y-109288017D01*
X162285855Y-108944365D01*
X162022835Y-108681345D01*
X161679183Y-108539000D01*
X161307217Y-108539000D01*
X160963565Y-108681345D01*
X160700545Y-108944365D01*
X160558200Y-109288017D01*
X160558200Y-109659983D01*
X160645171Y-109869949D01*
X160457200Y-109832560D01*
X160372078Y-109832560D01*
X160303737Y-109786896D01*
X160007200Y-109727911D01*
X159901031Y-109749029D01*
X159610000Y-109457999D01*
X159610000Y-105503711D01*
X159727431Y-105386280D01*
X159885000Y-105005874D01*
X159885000Y-104594126D01*
X159727431Y-104213720D01*
X159436280Y-103922569D01*
X159055874Y-103765000D01*
X158644126Y-103765000D01*
X158263720Y-103922569D01*
X157972569Y-104213720D01*
X157815000Y-104594126D01*
X157815000Y-105005874D01*
X157972569Y-105386280D01*
X158090001Y-105503712D01*
X158090000Y-109697953D01*
X158075112Y-109772800D01*
X158089474Y-109845000D01*
X157830891Y-109845000D01*
X157597502Y-109941673D01*
X157418873Y-110120301D01*
X157322200Y-110353690D01*
X157322200Y-110694250D01*
X157480950Y-110853000D01*
X158280200Y-110853000D01*
X158280200Y-110833000D01*
X158534200Y-110833000D01*
X158534200Y-110853000D01*
X158554200Y-110853000D01*
X158554200Y-111107000D01*
X158534200Y-111107000D01*
X158534200Y-111956250D01*
X158692950Y-112115000D01*
X158983509Y-112115000D01*
X159216898Y-112018327D01*
X159218098Y-112017127D01*
X159247200Y-112036573D01*
X159247201Y-114023427D01*
X159218098Y-114042873D01*
X159216898Y-114041673D01*
X158983509Y-113945000D01*
X158692950Y-113945000D01*
X158534200Y-114103750D01*
X158534200Y-114953000D01*
X158554200Y-114953000D01*
X158554200Y-115207000D01*
X158534200Y-115207000D01*
X158534200Y-115227000D01*
X158280200Y-115227000D01*
X158280200Y-115207000D01*
X158260200Y-115207000D01*
X158260200Y-114953000D01*
X158280200Y-114953000D01*
X158280200Y-114103750D01*
X158121450Y-113945000D01*
X157830891Y-113945000D01*
X157597502Y-114041673D01*
X157586440Y-114052735D01*
X157586440Y-113504500D01*
X157519078Y-113165848D01*
X157352803Y-112917000D01*
X157519078Y-112668152D01*
X157586440Y-112329500D01*
X157586440Y-112007265D01*
X157597502Y-112018327D01*
X157830891Y-112115000D01*
X158121450Y-112115000D01*
X158280200Y-111956250D01*
X158280200Y-111107000D01*
X157480950Y-111107000D01*
X157380099Y-111207851D01*
X157327247Y-111128753D01*
X157040152Y-110936922D01*
X156701500Y-110869560D01*
X156226500Y-110869560D01*
X155887848Y-110936922D01*
X155600753Y-111128753D01*
X155498356Y-111282000D01*
X154266802Y-111282000D01*
X153841400Y-110856599D01*
X153841400Y-110690526D01*
X153683831Y-110310120D01*
X153392680Y-110018969D01*
X153012274Y-109861400D01*
X152600526Y-109861400D01*
X152220120Y-110018969D01*
X151928969Y-110310120D01*
X151771400Y-110690526D01*
X151771400Y-110856598D01*
X151160000Y-111467999D01*
X151160000Y-110474848D01*
X151174888Y-110400000D01*
X151160000Y-110325152D01*
X151160000Y-110325148D01*
X151115904Y-110103463D01*
X151115904Y-110103462D01*
X150990329Y-109915527D01*
X150947929Y-109852071D01*
X150884473Y-109809671D01*
X149673332Y-108598531D01*
X149673330Y-108598528D01*
X149660000Y-108585198D01*
X149660000Y-106662290D01*
X149692655Y-106629635D01*
X149835000Y-106285983D01*
X149835000Y-105914017D01*
X149692655Y-105570365D01*
X149429635Y-105307345D01*
X149085983Y-105165000D01*
X148714017Y-105165000D01*
X148370365Y-105307345D01*
X148214115Y-105463595D01*
X148092655Y-105170365D01*
X147829635Y-104907345D01*
X147485983Y-104765000D01*
X147114017Y-104765000D01*
X146770365Y-104907345D01*
X146507345Y-105170365D01*
X146365000Y-105514017D01*
X146365000Y-105885983D01*
X146507345Y-106229635D01*
X146540000Y-106262290D01*
X146540000Y-106700889D01*
X146525112Y-106775736D01*
X146540000Y-106850583D01*
X146540000Y-106850587D01*
X146551068Y-106906230D01*
X146517695Y-106986800D01*
X145616846Y-106986800D01*
X145541999Y-106971912D01*
X145467152Y-106986800D01*
X145467148Y-106986800D01*
X145245463Y-107030896D01*
X144994071Y-107198871D01*
X144951671Y-107262327D01*
X143676600Y-108537399D01*
X143619596Y-108513787D01*
X143247630Y-108513787D01*
X142903978Y-108656132D01*
X142640958Y-108919152D01*
X142498613Y-109262804D01*
X142498613Y-109634770D01*
X142640958Y-109978422D01*
X142903978Y-110241442D01*
X142927863Y-110251336D01*
X142862199Y-110317000D01*
X142816017Y-110317000D01*
X142472365Y-110459345D01*
X142209345Y-110722365D01*
X142128747Y-110916947D01*
X141984000Y-110772200D01*
X141984000Y-108766290D01*
X142016655Y-108733635D01*
X142159000Y-108389983D01*
X142159000Y-108018017D01*
X142016655Y-107674365D01*
X141753635Y-107411345D01*
X141409983Y-107269000D01*
X141038017Y-107269000D01*
X140694365Y-107411345D01*
X140431345Y-107674365D01*
X140289000Y-108018017D01*
X140289000Y-108389983D01*
X140431345Y-108733635D01*
X140464000Y-108766290D01*
X140464001Y-111012150D01*
X140449112Y-111087002D01*
X140508097Y-111383539D01*
X140599378Y-111520150D01*
X140676072Y-111634931D01*
X140739527Y-111677330D01*
X140972000Y-111909804D01*
X140972001Y-112975709D01*
X140939345Y-113008365D01*
X140797000Y-113352017D01*
X140797000Y-113723983D01*
X140939345Y-114067635D01*
X141202365Y-114330655D01*
X141546017Y-114473000D01*
X141917983Y-114473000D01*
X142261635Y-114330655D01*
X142524655Y-114067635D01*
X142667000Y-113723983D01*
X142667000Y-113352017D01*
X142524655Y-113008365D01*
X142492000Y-112975710D01*
X142492000Y-112052788D01*
X142792422Y-112177227D01*
X142689979Y-112424547D01*
X142689979Y-112796513D01*
X142832324Y-113140165D01*
X143004001Y-113311842D01*
X143004000Y-115325013D01*
X142989112Y-115399860D01*
X143004000Y-115474707D01*
X143004000Y-115474711D01*
X143048096Y-115696396D01*
X143216071Y-115947789D01*
X143279530Y-115990191D01*
X144602211Y-117312873D01*
X144644611Y-117376329D01*
X144896003Y-117544304D01*
X145064506Y-117577822D01*
X145079053Y-117612940D01*
X145468660Y-118002547D01*
X145610261Y-118061200D01*
X145304648Y-118061200D01*
X145229801Y-118046312D01*
X145154954Y-118061200D01*
X145154950Y-118061200D01*
X144933265Y-118105296D01*
X144769080Y-118215001D01*
X141613803Y-118215001D01*
X139044440Y-115645639D01*
X139044440Y-115310500D01*
X138977078Y-114971848D01*
X138785247Y-114684753D01*
X138529069Y-114513580D01*
X138512329Y-114488527D01*
X138469929Y-114425071D01*
X138406473Y-114382671D01*
X137920000Y-113896199D01*
X137920000Y-111414017D01*
X138265000Y-111414017D01*
X138265000Y-111785983D01*
X138407345Y-112129635D01*
X138440001Y-112162291D01*
X138440000Y-113237710D01*
X138407345Y-113270365D01*
X138265000Y-113614017D01*
X138265000Y-113985983D01*
X138407345Y-114329635D01*
X138670365Y-114592655D01*
X139014017Y-114735000D01*
X139385983Y-114735000D01*
X139729635Y-114592655D01*
X139992655Y-114329635D01*
X140135000Y-113985983D01*
X140135000Y-113614017D01*
X139992655Y-113270365D01*
X139960000Y-113237710D01*
X139960000Y-112162290D01*
X139992655Y-112129635D01*
X140135000Y-111785983D01*
X140135000Y-111414017D01*
X139992655Y-111070365D01*
X139729635Y-110807345D01*
X139385983Y-110665000D01*
X139014017Y-110665000D01*
X138670365Y-110807345D01*
X138407345Y-111070365D01*
X138265000Y-111414017D01*
X137920000Y-111414017D01*
X137920000Y-110872440D01*
X138159500Y-110872440D01*
X138498152Y-110805078D01*
X138785247Y-110613247D01*
X138977078Y-110326152D01*
X139044440Y-109987500D01*
X139044440Y-109412500D01*
X138977078Y-109073848D01*
X138810803Y-108825000D01*
X138977078Y-108576152D01*
X139044440Y-108237500D01*
X139044440Y-108106180D01*
X139114017Y-108135000D01*
X139485983Y-108135000D01*
X139829635Y-107992655D01*
X140092655Y-107729635D01*
X140235000Y-107385983D01*
X140235000Y-107339801D01*
X141677859Y-105896944D01*
X141929635Y-105792655D01*
X142192655Y-105529635D01*
X142335000Y-105185983D01*
X142335000Y-104814017D01*
X142192655Y-104470365D01*
X141929635Y-104207345D01*
X141762221Y-104138000D01*
X142528714Y-104138000D01*
X142535775Y-104145061D01*
X142879427Y-104287406D01*
X143251393Y-104287406D01*
X143595045Y-104145061D01*
X143858065Y-103882041D01*
X144000410Y-103538389D01*
X144000410Y-103167572D01*
X144035501Y-103132481D01*
X144177846Y-102788829D01*
X144177846Y-102735000D01*
X144285983Y-102735000D01*
X144629635Y-102592655D01*
X144892655Y-102329635D01*
X145035000Y-101985983D01*
X145035000Y-101614017D01*
X144892655Y-101270365D01*
X144629635Y-101007345D01*
X144285983Y-100865000D01*
X144039802Y-100865000D01*
X143935000Y-100760199D01*
X143935000Y-100714017D01*
X143792655Y-100370365D01*
X143529635Y-100107345D01*
X143185983Y-99965000D01*
X142814017Y-99965000D01*
X142470365Y-100107345D01*
X142207345Y-100370365D01*
X142065000Y-100714017D01*
X142065000Y-101085983D01*
X142207345Y-101429635D01*
X142470365Y-101692655D01*
X142733667Y-101801718D01*
X142713211Y-101810191D01*
X142667402Y-101856000D01*
X136960290Y-101856000D01*
X136927635Y-101823345D01*
X136583983Y-101681000D01*
X136212017Y-101681000D01*
X135868365Y-101823345D01*
X135605345Y-102086365D01*
X135463000Y-102430017D01*
X135463000Y-102801983D01*
X135543779Y-102997000D01*
X135463000Y-103192017D01*
X135463000Y-103563983D01*
X135605345Y-103907635D01*
X135868365Y-104170655D01*
X136212017Y-104313000D01*
X136583983Y-104313000D01*
X136927635Y-104170655D01*
X136960290Y-104138000D01*
X139338398Y-104138000D01*
X138318399Y-105158000D01*
X138179490Y-105158000D01*
X138146835Y-105125345D01*
X137803183Y-104983000D01*
X137431217Y-104983000D01*
X137087565Y-105125345D01*
X136824545Y-105388365D01*
X136682200Y-105732017D01*
X136682200Y-106103983D01*
X136824545Y-106447635D01*
X137087565Y-106710655D01*
X137383809Y-106833363D01*
X137375268Y-106839070D01*
X137345848Y-106844922D01*
X137058753Y-107036753D01*
X136866922Y-107323848D01*
X136799560Y-107662500D01*
X136799560Y-108237500D01*
X136866922Y-108576152D01*
X137033197Y-108825000D01*
X136866922Y-109073848D01*
X136799560Y-109412500D01*
X136799560Y-109747639D01*
X136675528Y-109871671D01*
X136612072Y-109914071D01*
X136569672Y-109977527D01*
X136569671Y-109977528D01*
X136444097Y-110165463D01*
X136392934Y-110422677D01*
X136250309Y-110363600D01*
X135959750Y-110363600D01*
X135801000Y-110522350D01*
X135801000Y-111371600D01*
X135821000Y-111371600D01*
X135821000Y-111625600D01*
X135801000Y-111625600D01*
X135801000Y-112474850D01*
X135959750Y-112633600D01*
X136250309Y-112633600D01*
X136400000Y-112571596D01*
X136400000Y-113310604D01*
X136250309Y-113248600D01*
X135959750Y-113248600D01*
X135801000Y-113407350D01*
X135801000Y-114256600D01*
X135821000Y-114256600D01*
X135821000Y-114510600D01*
X135801000Y-114510600D01*
X135801000Y-115359850D01*
X135959750Y-115518600D01*
X136250309Y-115518600D01*
X136483698Y-115421927D01*
X136662327Y-115243299D01*
X136759000Y-115009910D01*
X136759000Y-114884801D01*
X136863459Y-114989260D01*
X136799560Y-115310500D01*
X136799560Y-115885500D01*
X136866922Y-116224152D01*
X137033197Y-116473000D01*
X136866922Y-116721848D01*
X136799560Y-117060500D01*
X136799560Y-117635500D01*
X136866922Y-117974152D01*
X137058753Y-118261247D01*
X137345848Y-118453078D01*
X137684500Y-118520440D01*
X137949255Y-118520440D01*
X138048199Y-118586552D01*
X138291763Y-118635000D01*
X138374000Y-118651358D01*
X138456237Y-118635000D01*
X138772595Y-118635000D01*
X139014017Y-118735000D01*
X139385983Y-118735000D01*
X139729635Y-118592655D01*
X139785744Y-118536546D01*
X140289844Y-119040646D01*
X140006319Y-119040646D01*
X139931472Y-119025758D01*
X139856625Y-119040646D01*
X139856621Y-119040646D01*
X139634936Y-119084742D01*
X139383544Y-119252717D01*
X139341144Y-119316173D01*
X138402728Y-120254590D01*
X138339272Y-120296990D01*
X138296872Y-120360446D01*
X138296871Y-120360447D01*
X138171297Y-120548382D01*
X138127487Y-120768630D01*
X137816575Y-120976375D01*
X137488361Y-121467582D01*
X137373108Y-122047000D01*
X137488361Y-122626418D01*
X137816575Y-123117625D01*
X138114961Y-123317000D01*
X137816575Y-123516375D01*
X137488361Y-124007582D01*
X137373108Y-124587000D01*
X137488361Y-125166418D01*
X137816575Y-125657625D01*
X138307782Y-125985839D01*
X138740944Y-126072000D01*
X139033456Y-126072000D01*
X139466618Y-125985839D01*
X139957825Y-125657625D01*
X140157200Y-125359239D01*
X140356575Y-125657625D01*
X140847782Y-125985839D01*
X141280944Y-126072000D01*
X141573456Y-126072000D01*
X142006618Y-125985839D01*
X142497825Y-125657625D01*
X142697200Y-125359239D01*
X142896575Y-125657625D01*
X143387782Y-125985839D01*
X143820944Y-126072000D01*
X144113456Y-126072000D01*
X144546618Y-125985839D01*
X145037825Y-125657625D01*
X145237200Y-125359239D01*
X145436575Y-125657625D01*
X145927782Y-125985839D01*
X146360944Y-126072000D01*
X146653456Y-126072000D01*
X146873608Y-126028209D01*
X147629870Y-126784472D01*
X147653796Y-126820279D01*
X147405418Y-126808783D01*
X146560142Y-126967736D01*
X145774105Y-127316881D01*
X145089470Y-127837489D01*
X144542964Y-128501633D01*
X144163903Y-129273689D01*
X143972619Y-130112239D01*
X143979374Y-130972304D01*
X144183805Y-131807747D01*
X144574947Y-132573753D01*
X145131818Y-133229232D01*
X145824545Y-133739022D01*
X146615970Y-134075777D01*
X147463638Y-134221433D01*
X148322079Y-134168176D01*
X149145244Y-133918864D01*
X149888976Y-133486870D01*
X150513381Y-132895367D01*
X150984963Y-132176084D01*
X151278426Y-131367607D01*
X151378028Y-130513302D01*
X151377570Y-130454972D01*
X151264561Y-129602337D01*
X150958435Y-128798569D01*
X150475613Y-128086782D01*
X149841995Y-127505160D01*
X149091569Y-127084901D01*
X149004442Y-127060000D01*
X149741735Y-127060000D01*
X150267807Y-127586073D01*
X150310207Y-127649529D01*
X150561599Y-127817504D01*
X150704424Y-127845914D01*
X150752765Y-127894255D01*
X151096417Y-128036600D01*
X151468383Y-128036600D01*
X151812035Y-127894255D01*
X152075055Y-127631235D01*
X152217400Y-127287583D01*
X152217400Y-126915617D01*
X152075055Y-126571965D01*
X151812035Y-126308945D01*
X151468383Y-126166600D01*
X151096417Y-126166600D01*
X151026781Y-126195444D01*
X150646867Y-125815530D01*
X150604465Y-125752071D01*
X150353073Y-125584096D01*
X150188790Y-125551418D01*
X150317200Y-125359239D01*
X150516575Y-125657625D01*
X151007782Y-125985839D01*
X151440944Y-126072000D01*
X151733456Y-126072000D01*
X152166618Y-125985839D01*
X152657825Y-125657625D01*
X152871043Y-125338522D01*
X152932017Y-125468358D01*
X153360276Y-125858645D01*
X153770310Y-126028476D01*
X154000200Y-125907155D01*
X154000200Y-124714000D01*
X154254200Y-124714000D01*
X154254200Y-125907155D01*
X154484090Y-126028476D01*
X154894124Y-125858645D01*
X155192064Y-125587122D01*
X155278873Y-125796698D01*
X155457501Y-125975327D01*
X155690890Y-126072000D01*
X156381450Y-126072000D01*
X156540200Y-125913250D01*
X156540200Y-124714000D01*
X156794200Y-124714000D01*
X156794200Y-125913250D01*
X156952950Y-126072000D01*
X157643510Y-126072000D01*
X157876899Y-125975327D01*
X158055527Y-125796698D01*
X158152200Y-125563309D01*
X158152200Y-124872750D01*
X157993450Y-124714000D01*
X156794200Y-124714000D01*
X156540200Y-124714000D01*
X154254200Y-124714000D01*
X154000200Y-124714000D01*
X153980200Y-124714000D01*
X153980200Y-124460000D01*
X154000200Y-124460000D01*
X154000200Y-124440000D01*
X154254200Y-124440000D01*
X154254200Y-124460000D01*
X156540200Y-124460000D01*
X156540200Y-122174000D01*
X156794200Y-122174000D01*
X156794200Y-124460000D01*
X157993450Y-124460000D01*
X158152200Y-124301250D01*
X158152200Y-123610691D01*
X158055527Y-123377302D01*
X157876899Y-123198673D01*
X157662992Y-123110070D01*
X157862383Y-122928358D01*
X158108686Y-122403892D01*
X157988019Y-122174000D01*
X156794200Y-122174000D01*
X156540200Y-122174000D01*
X156520200Y-122174000D01*
X156520200Y-121920000D01*
X156540200Y-121920000D01*
X156540200Y-120726845D01*
X156794200Y-120726845D01*
X156794200Y-121920000D01*
X157988019Y-121920000D01*
X158108686Y-121690108D01*
X157862383Y-121165642D01*
X157434124Y-120775355D01*
X157024090Y-120605524D01*
X156794200Y-120726845D01*
X156540200Y-120726845D01*
X156310310Y-120605524D01*
X155900276Y-120775355D01*
X155472017Y-121165642D01*
X155411043Y-121295478D01*
X155197825Y-120976375D01*
X154706618Y-120648161D01*
X154273456Y-120562000D01*
X153980944Y-120562000D01*
X153547782Y-120648161D01*
X153056575Y-120976375D01*
X152857200Y-121274761D01*
X152657825Y-120976375D01*
X152166618Y-120648161D01*
X151733456Y-120562000D01*
X151440944Y-120562000D01*
X151077200Y-120634353D01*
X151077200Y-118120002D01*
X151211000Y-117986202D01*
X151211000Y-118295983D01*
X151353345Y-118639635D01*
X151616365Y-118902655D01*
X151960017Y-119045000D01*
X152331983Y-119045000D01*
X152675635Y-118902655D01*
X152938655Y-118639635D01*
X153038656Y-118398212D01*
X154456283Y-116980585D01*
X154526001Y-116934001D01*
X154710552Y-116657801D01*
X154759000Y-116414237D01*
X154775358Y-116332000D01*
X154759000Y-116249763D01*
X154759000Y-115743405D01*
X154859000Y-115501983D01*
X154859000Y-115130017D01*
X154716655Y-114786365D01*
X154453635Y-114523345D01*
X154109983Y-114381000D01*
X153738017Y-114381000D01*
X153394365Y-114523345D01*
X153131345Y-114786365D01*
X152989000Y-115130017D01*
X152989000Y-115501983D01*
X153089000Y-115743406D01*
X153089001Y-115986132D01*
X151857788Y-117217344D01*
X151771658Y-117253021D01*
X151788400Y-117168852D01*
X151788400Y-117168848D01*
X151803288Y-117094000D01*
X151788400Y-117019152D01*
X151788400Y-112989201D01*
X152806400Y-111971202D01*
X153361671Y-112526473D01*
X153404071Y-112589929D01*
X153655463Y-112757904D01*
X153877148Y-112802000D01*
X153877152Y-112802000D01*
X153951999Y-112816888D01*
X154026846Y-112802000D01*
X155498356Y-112802000D01*
X155575197Y-112917000D01*
X155408922Y-113165848D01*
X155341560Y-113504500D01*
X155341560Y-114079500D01*
X155408922Y-114418152D01*
X155531602Y-114601755D01*
X155362737Y-114671701D01*
X155099717Y-114934721D01*
X154957372Y-115278373D01*
X154957372Y-115650339D01*
X155099717Y-115993991D01*
X155362737Y-116257011D01*
X155706389Y-116399356D01*
X156078355Y-116399356D01*
X156422007Y-116257011D01*
X156528018Y-116151000D01*
X156798595Y-116151000D01*
X157040017Y-116251000D01*
X157411983Y-116251000D01*
X157664893Y-116146241D01*
X157830891Y-116215000D01*
X157847399Y-116215000D01*
X157795482Y-116266917D01*
X157712365Y-116301345D01*
X157449345Y-116564365D01*
X157307000Y-116908017D01*
X157307000Y-117279983D01*
X157449345Y-117623635D01*
X157712365Y-117886655D01*
X158056017Y-118029000D01*
X158427983Y-118029000D01*
X158771635Y-117886655D01*
X159034655Y-117623635D01*
X159177000Y-117279983D01*
X159177000Y-117035001D01*
X159984562Y-116227440D01*
X160457200Y-116227440D01*
X160704965Y-116178157D01*
X160889991Y-116054526D01*
X160889991Y-116821141D01*
X160493788Y-117217344D01*
X160252365Y-117317345D01*
X159989345Y-117580365D01*
X159847000Y-117924017D01*
X159847000Y-118295983D01*
X159989345Y-118639635D01*
X160213710Y-118864000D01*
X160207345Y-118870365D01*
X160065000Y-119214017D01*
X160065000Y-119585983D01*
X160207345Y-119929635D01*
X160470365Y-120192655D01*
X160814017Y-120335000D01*
X161185983Y-120335000D01*
X161529635Y-120192655D01*
X161792655Y-119929635D01*
X161935000Y-119585983D01*
X161935000Y-119539802D01*
X162984476Y-118490327D01*
X162990000Y-118486636D01*
X162990000Y-126964719D01*
X153080711Y-126960330D01*
X153018028Y-126947862D01*
X152892935Y-126972744D01*
X152770528Y-126997036D01*
X152770407Y-126997116D01*
X152770264Y-126997145D01*
X152665183Y-127067358D01*
X152560422Y-127137291D01*
X152560341Y-127137412D01*
X152560220Y-127137493D01*
X152490397Y-127241990D01*
X152419981Y-127347273D01*
X152419952Y-127347417D01*
X152419872Y-127347537D01*
X152395359Y-127470774D01*
X152370589Y-127595016D01*
X152383029Y-127657702D01*
X152383028Y-134580302D01*
X142985028Y-134580302D01*
X142985028Y-127657716D01*
X142997468Y-127595046D01*
X142973017Y-127472378D01*
X142948185Y-127347537D01*
X142948111Y-127347427D01*
X142948086Y-127347300D01*
X142878861Y-127243788D01*
X142874452Y-127237189D01*
X142867333Y-127201399D01*
X142839803Y-127160197D01*
X142809461Y-127139923D01*
X142807837Y-127137493D01*
X142807727Y-127137419D01*
X142807655Y-127137312D01*
X142703454Y-127067746D01*
X142597792Y-126997145D01*
X142597664Y-126997119D01*
X142597555Y-126997047D01*
X142475027Y-126972726D01*
X142350028Y-126947862D01*
X142287359Y-126960328D01*
X134024472Y-126963603D01*
X134324636Y-126839271D01*
X134514923Y-126494528D01*
X133000000Y-124979605D01*
X131485077Y-126494528D01*
X131675364Y-126839271D01*
X131988928Y-126964410D01*
X131135000Y-126964748D01*
X131135000Y-126220828D01*
X131305472Y-126314923D01*
X132820395Y-124800000D01*
X133179605Y-124800000D01*
X134694528Y-126314923D01*
X135039271Y-126124636D01*
X135390956Y-125243409D01*
X135378641Y-124294677D01*
X135039271Y-123475364D01*
X134694528Y-123285077D01*
X133179605Y-124800000D01*
X132820395Y-124800000D01*
X131305472Y-123285077D01*
X131135000Y-123379172D01*
X131135000Y-123105472D01*
X131485077Y-123105472D01*
X133000000Y-124620395D01*
X134514923Y-123105472D01*
X134324636Y-122760729D01*
X133443409Y-122409044D01*
X132494677Y-122421359D01*
X131675364Y-122760729D01*
X131485077Y-123105472D01*
X131135000Y-123105472D01*
X131135000Y-112404256D01*
X131771317Y-112404256D01*
X131771317Y-112776222D01*
X131913662Y-113119874D01*
X131974068Y-113180280D01*
X131990413Y-113262453D01*
X132158388Y-113513846D01*
X132221847Y-113556248D01*
X132976560Y-114310962D01*
X132976560Y-114883600D01*
X133025843Y-115131365D01*
X133166191Y-115341409D01*
X133314000Y-115440173D01*
X133314001Y-117427027D01*
X133166191Y-117525791D01*
X133025843Y-117735835D01*
X132976560Y-117983600D01*
X132976560Y-118983600D01*
X133025843Y-119231365D01*
X133166191Y-119441409D01*
X133376235Y-119581757D01*
X133624000Y-119631040D01*
X134524000Y-119631040D01*
X134771765Y-119581757D01*
X134863102Y-119520727D01*
X134864302Y-119521927D01*
X135097691Y-119618600D01*
X135388250Y-119618600D01*
X135547000Y-119459850D01*
X135547000Y-118610600D01*
X135801000Y-118610600D01*
X135801000Y-119459850D01*
X135959750Y-119618600D01*
X136250309Y-119618600D01*
X136483698Y-119521927D01*
X136662327Y-119343299D01*
X136759000Y-119109910D01*
X136759000Y-118769350D01*
X136600250Y-118610600D01*
X135801000Y-118610600D01*
X135547000Y-118610600D01*
X135527000Y-118610600D01*
X135527000Y-118356600D01*
X135547000Y-118356600D01*
X135547000Y-117507350D01*
X135801000Y-117507350D01*
X135801000Y-118356600D01*
X136600250Y-118356600D01*
X136759000Y-118197850D01*
X136759000Y-117857290D01*
X136662327Y-117623901D01*
X136483698Y-117445273D01*
X136250309Y-117348600D01*
X135959750Y-117348600D01*
X135801000Y-117507350D01*
X135547000Y-117507350D01*
X135388250Y-117348600D01*
X135097691Y-117348600D01*
X134864302Y-117445273D01*
X134863102Y-117446473D01*
X134834000Y-117427027D01*
X134834000Y-116370753D01*
X135098835Y-116261055D01*
X135361855Y-115998035D01*
X135504200Y-115654383D01*
X135504200Y-115402650D01*
X135547000Y-115359850D01*
X135547000Y-114510600D01*
X135527000Y-114510600D01*
X135527000Y-114256600D01*
X135547000Y-114256600D01*
X135547000Y-113407350D01*
X135388250Y-113248600D01*
X135097691Y-113248600D01*
X134864302Y-113345273D01*
X134863102Y-113346473D01*
X134771765Y-113285443D01*
X134524000Y-113236160D01*
X134051362Y-113236160D01*
X133870275Y-113055073D01*
X133903635Y-113041255D01*
X134166655Y-112778235D01*
X134221412Y-112646040D01*
X134524000Y-112646040D01*
X134771765Y-112596757D01*
X134863102Y-112535727D01*
X134864302Y-112536927D01*
X135097691Y-112633600D01*
X135388250Y-112633600D01*
X135547000Y-112474850D01*
X135547000Y-111625600D01*
X135527000Y-111625600D01*
X135527000Y-111371600D01*
X135547000Y-111371600D01*
X135547000Y-110522350D01*
X135388250Y-110363600D01*
X135097691Y-110363600D01*
X134864302Y-110460273D01*
X134863102Y-110461473D01*
X134834000Y-110442027D01*
X134834000Y-108901246D01*
X134848888Y-108826399D01*
X134834000Y-108751552D01*
X134834000Y-108751548D01*
X134789904Y-108529863D01*
X134768250Y-108497456D01*
X134771765Y-108496757D01*
X134863102Y-108435727D01*
X134864302Y-108436927D01*
X135097691Y-108533600D01*
X135388250Y-108533600D01*
X135547000Y-108374850D01*
X135547000Y-107525600D01*
X135801000Y-107525600D01*
X135801000Y-108374850D01*
X135959750Y-108533600D01*
X136250309Y-108533600D01*
X136483698Y-108436927D01*
X136662327Y-108258299D01*
X136759000Y-108024910D01*
X136759000Y-107684350D01*
X136600250Y-107525600D01*
X135801000Y-107525600D01*
X135547000Y-107525600D01*
X135527000Y-107525600D01*
X135527000Y-107271600D01*
X135547000Y-107271600D01*
X135547000Y-106422350D01*
X135801000Y-106422350D01*
X135801000Y-107271600D01*
X136600250Y-107271600D01*
X136759000Y-107112850D01*
X136759000Y-106772290D01*
X136662327Y-106538901D01*
X136483698Y-106360273D01*
X136250309Y-106263600D01*
X135959750Y-106263600D01*
X135801000Y-106422350D01*
X135547000Y-106422350D01*
X135388250Y-106263600D01*
X135097691Y-106263600D01*
X134864302Y-106360273D01*
X134863102Y-106361473D01*
X134771765Y-106300443D01*
X134524000Y-106251160D01*
X133624000Y-106251160D01*
X133376235Y-106300443D01*
X133166191Y-106440791D01*
X133025843Y-106650835D01*
X132976560Y-106898600D01*
X132976560Y-107464895D01*
X132938896Y-107521263D01*
X132894800Y-107742948D01*
X132894800Y-107742953D01*
X132879912Y-107817800D01*
X132886880Y-107852830D01*
X132862145Y-107877565D01*
X132719800Y-108221217D01*
X132719800Y-108593183D01*
X132862145Y-108936835D01*
X133125165Y-109199855D01*
X133314001Y-109278073D01*
X133314000Y-110442027D01*
X133166191Y-110540791D01*
X133025843Y-110750835D01*
X132976560Y-110998600D01*
X132976560Y-111401188D01*
X132844365Y-111455945D01*
X132645071Y-111655239D01*
X132520334Y-111655239D01*
X132176682Y-111797584D01*
X131913662Y-112060604D01*
X131771317Y-112404256D01*
X131135000Y-112404256D01*
X131135000Y-103256348D01*
X131163914Y-103326153D01*
X131623847Y-103786086D01*
X132224778Y-104035000D01*
X132875222Y-104035000D01*
X133476153Y-103786086D01*
X133790000Y-103472239D01*
X133790000Y-104406710D01*
X133757345Y-104439365D01*
X133615000Y-104783017D01*
X133615000Y-105154983D01*
X133757345Y-105498635D01*
X134020365Y-105761655D01*
X134364017Y-105904000D01*
X134735983Y-105904000D01*
X135079635Y-105761655D01*
X135342655Y-105498635D01*
X135485000Y-105154983D01*
X135485000Y-104783017D01*
X135342655Y-104439365D01*
X135310000Y-104406710D01*
X135310000Y-99826846D01*
X135324888Y-99751999D01*
X135310000Y-99677152D01*
X135310000Y-99677148D01*
X135301000Y-99631902D01*
X135301000Y-99382017D01*
X135158655Y-99038365D01*
X134895635Y-98775345D01*
X134551983Y-98633000D01*
X134180017Y-98633000D01*
X133836365Y-98775345D01*
X133573345Y-99038365D01*
X133431000Y-99382017D01*
X133431000Y-99753983D01*
X133573345Y-100097635D01*
X133790001Y-100314291D01*
X133790001Y-101327762D01*
X133476153Y-101013914D01*
X132875222Y-100765000D01*
X132224778Y-100765000D01*
X131623847Y-101013914D01*
X131163914Y-101473847D01*
X131135000Y-101543652D01*
X131135000Y-95400000D01*
X142902560Y-95400000D01*
X142902560Y-98400000D01*
X142951843Y-98647765D01*
X143092191Y-98857809D01*
X143302235Y-98998157D01*
X143550000Y-99047440D01*
X149659002Y-99047440D01*
X149652071Y-99052071D01*
X149609671Y-99115527D01*
X148760199Y-99965000D01*
X148714017Y-99965000D01*
X148370365Y-100107345D01*
X148107345Y-100370365D01*
X147965000Y-100714017D01*
X147965000Y-101085983D01*
X148107345Y-101429635D01*
X148370365Y-101692655D01*
X148714017Y-101835000D01*
X149085983Y-101835000D01*
X149429635Y-101692655D01*
X149692655Y-101429635D01*
X149835000Y-101085983D01*
X149835000Y-101039801D01*
X150514802Y-100360000D01*
X150625153Y-100360000D01*
X150700000Y-100374888D01*
X150774847Y-100360000D01*
X150774852Y-100360000D01*
X150996537Y-100315904D01*
X151247929Y-100147929D01*
X151290331Y-100084470D01*
X152284473Y-99090329D01*
X152347929Y-99047929D01*
X152515904Y-98796537D01*
X152560000Y-98574852D01*
X152560000Y-98574847D01*
X152574888Y-98500000D01*
X152560000Y-98425153D01*
X152560000Y-96062290D01*
X152592655Y-96029635D01*
X152735000Y-95685983D01*
X152735000Y-95314017D01*
X152592655Y-94970365D01*
X152329635Y-94707345D01*
X151985983Y-94565000D01*
X151614017Y-94565000D01*
X151270365Y-94707345D01*
X151018908Y-94958802D01*
X151007809Y-94942191D01*
X150797765Y-94801843D01*
X150550000Y-94752560D01*
X147302850Y-94752560D01*
X147249635Y-94699345D01*
X146905983Y-94557000D01*
X146534017Y-94557000D01*
X146190365Y-94699345D01*
X146137150Y-94752560D01*
X143550000Y-94752560D01*
X143302235Y-94801843D01*
X143092191Y-94942191D01*
X142951843Y-95152235D01*
X142902560Y-95400000D01*
X131135000Y-95400000D01*
X131135000Y-93794017D01*
X133431000Y-93794017D01*
X133431000Y-94165983D01*
X133573345Y-94509635D01*
X133836365Y-94772655D01*
X134180017Y-94915000D01*
X134551983Y-94915000D01*
X134895635Y-94772655D01*
X134928290Y-94740000D01*
X135117710Y-94740000D01*
X135270365Y-94892655D01*
X135614017Y-95035000D01*
X135985983Y-95035000D01*
X136329635Y-94892655D01*
X136592655Y-94629635D01*
X136735000Y-94285983D01*
X136735000Y-93914017D01*
X136592655Y-93570365D01*
X136329635Y-93307345D01*
X135985983Y-93165000D01*
X135614017Y-93165000D01*
X135481235Y-93220000D01*
X134928290Y-93220000D01*
X134895635Y-93187345D01*
X134551983Y-93045000D01*
X134180017Y-93045000D01*
X133836365Y-93187345D01*
X133573345Y-93450365D01*
X133431000Y-93794017D01*
X131135000Y-93794017D01*
X131135000Y-88007290D01*
X131296365Y-88168655D01*
X131640017Y-88311000D01*
X132011983Y-88311000D01*
X132014991Y-88309754D01*
X132014991Y-88334557D01*
X131982335Y-88367213D01*
X131839990Y-88710865D01*
X131839990Y-89082831D01*
X131982335Y-89426483D01*
X132130031Y-89574179D01*
X131961210Y-89743000D01*
X131915028Y-89743000D01*
X131571376Y-89885345D01*
X131308356Y-90148365D01*
X131166011Y-90492017D01*
X131166011Y-90863983D01*
X131308356Y-91207635D01*
X131571376Y-91470655D01*
X131915028Y-91613000D01*
X132286994Y-91613000D01*
X132630646Y-91470655D01*
X132893666Y-91207635D01*
X133036011Y-90863983D01*
X133036011Y-90817801D01*
X133465361Y-90388451D01*
X133582365Y-90505455D01*
X133926017Y-90647800D01*
X134297983Y-90647800D01*
X134467354Y-90577644D01*
X134598365Y-90708655D01*
X134881558Y-90825957D01*
X135007345Y-91129635D01*
X135040001Y-91162291D01*
X135040000Y-91775153D01*
X135025112Y-91850000D01*
X135040000Y-91924847D01*
X135040000Y-91924851D01*
X135084096Y-92146536D01*
X135252071Y-92397929D01*
X135315530Y-92440331D01*
X135859671Y-92984473D01*
X135902071Y-93047929D01*
X135965527Y-93090329D01*
X136153462Y-93215904D01*
X136201605Y-93225480D01*
X136375148Y-93260000D01*
X136375152Y-93260000D01*
X136450000Y-93274888D01*
X136524848Y-93260000D01*
X143037153Y-93260000D01*
X143112000Y-93274888D01*
X143186847Y-93260000D01*
X143186852Y-93260000D01*
X143408537Y-93215904D01*
X143659929Y-93047929D01*
X143702331Y-92984470D01*
X145100473Y-91586329D01*
X145163929Y-91543929D01*
X145264483Y-91393440D01*
X145366000Y-91393440D01*
X145613765Y-91344157D01*
X145823809Y-91203809D01*
X145964157Y-90993765D01*
X146013440Y-90746000D01*
X146013440Y-89746000D01*
X148118560Y-89746000D01*
X148118560Y-90746000D01*
X148167843Y-90993765D01*
X148308191Y-91203809D01*
X148518235Y-91344157D01*
X148766000Y-91393440D01*
X149732573Y-91393440D01*
X153165001Y-94825869D01*
X153165000Y-100872595D01*
X153065000Y-101114017D01*
X153065000Y-101485983D01*
X153207345Y-101829635D01*
X153470365Y-102092655D01*
X153814017Y-102235000D01*
X154185983Y-102235000D01*
X154529635Y-102092655D01*
X154792655Y-101829635D01*
X154935000Y-101485983D01*
X154935000Y-101444926D01*
X155530600Y-101444926D01*
X155530600Y-101856674D01*
X155688169Y-102237080D01*
X155979320Y-102528231D01*
X156359726Y-102685800D01*
X156771474Y-102685800D01*
X157151880Y-102528231D01*
X157443031Y-102237080D01*
X157593031Y-101874947D01*
X160025356Y-99442623D01*
X160099249Y-99393249D01*
X160159243Y-99303463D01*
X160294852Y-99100510D01*
X160307213Y-99038365D01*
X160346200Y-98842365D01*
X160346200Y-98842361D01*
X160363537Y-98755200D01*
X160346200Y-98668039D01*
X160346200Y-92058807D01*
X160496200Y-91696674D01*
X160496200Y-91284926D01*
X160338631Y-90904520D01*
X160047480Y-90613369D01*
X159667074Y-90455800D01*
X159255326Y-90455800D01*
X158874920Y-90613369D01*
X158583769Y-90904520D01*
X158426200Y-91284926D01*
X158426200Y-91696674D01*
X158576201Y-92058809D01*
X158576200Y-98388621D01*
X156341453Y-100623369D01*
X155979320Y-100773369D01*
X155688169Y-101064520D01*
X155530600Y-101444926D01*
X154935000Y-101444926D01*
X154935000Y-101114017D01*
X154835000Y-100872595D01*
X154835000Y-94562232D01*
X154851357Y-94479999D01*
X154835000Y-94397766D01*
X154835000Y-94397763D01*
X154786552Y-94154199D01*
X154602001Y-93877999D01*
X154532283Y-93831415D01*
X150913440Y-90212573D01*
X150913440Y-89746000D01*
X150864157Y-89498235D01*
X150723809Y-89288191D01*
X150513765Y-89147843D01*
X150266000Y-89098560D01*
X148766000Y-89098560D01*
X148518235Y-89147843D01*
X148308191Y-89288191D01*
X148167843Y-89498235D01*
X148118560Y-89746000D01*
X146013440Y-89746000D01*
X145964157Y-89498235D01*
X145823809Y-89288191D01*
X145613765Y-89147843D01*
X145366000Y-89098560D01*
X143866000Y-89098560D01*
X143618235Y-89147843D01*
X143408191Y-89288191D01*
X143267843Y-89498235D01*
X143218560Y-89746000D01*
X143218560Y-90746000D01*
X143267843Y-90993765D01*
X143378230Y-91158969D01*
X142797199Y-91740000D01*
X140103118Y-91740000D01*
X140198157Y-91597765D01*
X140247440Y-91350000D01*
X140247440Y-88610000D01*
X141675153Y-88610000D01*
X141750000Y-88624888D01*
X141824847Y-88610000D01*
X141824852Y-88610000D01*
X142046537Y-88565904D01*
X142297929Y-88397929D01*
X142340331Y-88334470D01*
X143039802Y-87635000D01*
X143085983Y-87635000D01*
X143231000Y-87574932D01*
X143231000Y-87672310D01*
X143327673Y-87905699D01*
X143506302Y-88084327D01*
X143739691Y-88181000D01*
X144330250Y-88181000D01*
X144489000Y-88022250D01*
X144489000Y-87173000D01*
X144743000Y-87173000D01*
X144743000Y-88022250D01*
X144901750Y-88181000D01*
X145492309Y-88181000D01*
X145725698Y-88084327D01*
X145904327Y-87905699D01*
X146001000Y-87672310D01*
X146001000Y-87331750D01*
X145842250Y-87173000D01*
X144743000Y-87173000D01*
X144489000Y-87173000D01*
X144469000Y-87173000D01*
X144469000Y-86919000D01*
X144489000Y-86919000D01*
X144489000Y-86069750D01*
X144743000Y-86069750D01*
X144743000Y-86919000D01*
X145842250Y-86919000D01*
X146001000Y-86760250D01*
X146001000Y-86419690D01*
X145904327Y-86186301D01*
X145725698Y-86007673D01*
X145492309Y-85911000D01*
X144901750Y-85911000D01*
X144743000Y-86069750D01*
X144489000Y-86069750D01*
X144330250Y-85911000D01*
X143739691Y-85911000D01*
X143523033Y-86000743D01*
X143429635Y-85907345D01*
X143085983Y-85765000D01*
X142714017Y-85765000D01*
X142370365Y-85907345D01*
X142107345Y-86170365D01*
X141965000Y-86514017D01*
X141965000Y-86560198D01*
X141435199Y-87090000D01*
X140247440Y-87090000D01*
X140247440Y-84350000D01*
X140198157Y-84102235D01*
X140057809Y-83892191D01*
X139847765Y-83751843D01*
X139600000Y-83702560D01*
X136933253Y-83702560D01*
X136883820Y-83583217D01*
X142524200Y-83583217D01*
X142524200Y-83955183D01*
X142666545Y-84298835D01*
X142929565Y-84561855D01*
X143273217Y-84704200D01*
X143645183Y-84704200D01*
X143988835Y-84561855D01*
X144072290Y-84478400D01*
X145436910Y-84478400D01*
X145469565Y-84511055D01*
X145813217Y-84653400D01*
X146185183Y-84653400D01*
X146528835Y-84511055D01*
X146791855Y-84248035D01*
X146934200Y-83904383D01*
X146934200Y-83532417D01*
X146791855Y-83188765D01*
X146528835Y-82925745D01*
X146185183Y-82783400D01*
X145813217Y-82783400D01*
X145469565Y-82925745D01*
X145436910Y-82958400D01*
X143945029Y-82958400D01*
X143645183Y-82834200D01*
X143273217Y-82834200D01*
X142929565Y-82976545D01*
X142666545Y-83239565D01*
X142524200Y-83583217D01*
X136883820Y-83583217D01*
X136795654Y-83370365D01*
X136532634Y-83107345D01*
X136188982Y-82965000D01*
X136063000Y-82965000D01*
X136063000Y-82872017D01*
X135920655Y-82528365D01*
X135888000Y-82495710D01*
X135888000Y-80572290D01*
X135920655Y-80539635D01*
X136063000Y-80195983D01*
X136063000Y-79824017D01*
X135920655Y-79480365D01*
X135657635Y-79217345D01*
X135313983Y-79075000D01*
X134942017Y-79075000D01*
X134598365Y-79217345D01*
X134335345Y-79480365D01*
X134193000Y-79824017D01*
X134193000Y-80195983D01*
X134335345Y-80539635D01*
X134368000Y-80572290D01*
X134368001Y-82495709D01*
X134335345Y-82528365D01*
X134193000Y-82872017D01*
X134193000Y-83140000D01*
X134049146Y-83140000D01*
X133974299Y-83125112D01*
X133899452Y-83140000D01*
X133899448Y-83140000D01*
X133677763Y-83184096D01*
X133615202Y-83225898D01*
X133523000Y-83287505D01*
X133523000Y-83126017D01*
X133380655Y-82782365D01*
X133117635Y-82519345D01*
X132773983Y-82377000D01*
X132402017Y-82377000D01*
X132058365Y-82519345D01*
X131795345Y-82782365D01*
X131653000Y-83126017D01*
X131653000Y-83194383D01*
X131572097Y-83315463D01*
X131528001Y-83537148D01*
X131528001Y-83537152D01*
X131513113Y-83611999D01*
X131528001Y-83686846D01*
X131528002Y-86487398D01*
X131296365Y-86583345D01*
X131135000Y-86744710D01*
X131135000Y-77500000D01*
X142902560Y-77500000D01*
X142902560Y-80500000D01*
X142951843Y-80747765D01*
X143092191Y-80957809D01*
X143302235Y-81098157D01*
X143550000Y-81147440D01*
X150122639Y-81147440D01*
X151590001Y-82614803D01*
X151590001Y-84165000D01*
X151514017Y-84165000D01*
X151170365Y-84307345D01*
X150907345Y-84570365D01*
X150765000Y-84914017D01*
X150765000Y-84982382D01*
X150684096Y-85103464D01*
X150640000Y-85325149D01*
X150640000Y-85325153D01*
X150625112Y-85400000D01*
X150640000Y-85474847D01*
X150640000Y-86032191D01*
X150513765Y-85947843D01*
X150266000Y-85898560D01*
X148766000Y-85898560D01*
X148518235Y-85947843D01*
X148308191Y-86088191D01*
X148167843Y-86298235D01*
X148118560Y-86546000D01*
X148118560Y-87546000D01*
X148167843Y-87793765D01*
X148308191Y-88003809D01*
X148518235Y-88144157D01*
X148766000Y-88193440D01*
X150266000Y-88193440D01*
X150513765Y-88144157D01*
X150723809Y-88003809D01*
X150786979Y-87909269D01*
X150870365Y-87992655D01*
X151214017Y-88135000D01*
X151427019Y-88135000D01*
X151415000Y-88164017D01*
X151415000Y-88535983D01*
X151557345Y-88879635D01*
X151820365Y-89142655D01*
X152164017Y-89285000D01*
X152535983Y-89285000D01*
X152840000Y-89159072D01*
X152840001Y-89737709D01*
X152807345Y-89770365D01*
X152665000Y-90114017D01*
X152665000Y-90485983D01*
X152807345Y-90829635D01*
X153070365Y-91092655D01*
X153414017Y-91235000D01*
X153785983Y-91235000D01*
X153902560Y-91186712D01*
X153902560Y-91400000D01*
X153951843Y-91647765D01*
X154092191Y-91857809D01*
X154302235Y-91998157D01*
X154550000Y-92047440D01*
X156265000Y-92047440D01*
X156265000Y-92285983D01*
X156407345Y-92629635D01*
X156670365Y-92892655D01*
X156840001Y-92962920D01*
X156840000Y-95537710D01*
X156807345Y-95570365D01*
X156665000Y-95914017D01*
X156665000Y-96285983D01*
X156807345Y-96629635D01*
X157070365Y-96892655D01*
X157414017Y-97035000D01*
X157785983Y-97035000D01*
X158129635Y-96892655D01*
X158392655Y-96629635D01*
X158535000Y-96285983D01*
X158535000Y-95914017D01*
X158392655Y-95570365D01*
X158360000Y-95537710D01*
X158360000Y-92574846D01*
X158374888Y-92499999D01*
X158360000Y-92425152D01*
X158360000Y-92425148D01*
X158315904Y-92203463D01*
X158147929Y-91952071D01*
X158135000Y-91943432D01*
X158135000Y-91914017D01*
X158071954Y-91761810D01*
X158148157Y-91647765D01*
X158197440Y-91400000D01*
X158197440Y-84400000D01*
X158148157Y-84152235D01*
X158007809Y-83942191D01*
X157797765Y-83801843D01*
X157550000Y-83752560D01*
X154550000Y-83752560D01*
X154302235Y-83801843D01*
X154092191Y-83942191D01*
X153951843Y-84152235D01*
X153902560Y-84400000D01*
X153902560Y-87251517D01*
X153815526Y-87309671D01*
X153815524Y-87309673D01*
X153752071Y-87352071D01*
X153709672Y-87415525D01*
X153190156Y-87935043D01*
X153142655Y-87820365D01*
X153110000Y-87787710D01*
X153110000Y-82374848D01*
X153124888Y-82300000D01*
X153110000Y-82225152D01*
X153110000Y-82225148D01*
X153065904Y-82003463D01*
X153065904Y-82003462D01*
X152940329Y-81815527D01*
X152897929Y-81752071D01*
X152834473Y-81709671D01*
X151197440Y-80072639D01*
X151197440Y-77500000D01*
X151148157Y-77252235D01*
X151007809Y-77042191D01*
X150797765Y-76901843D01*
X150550000Y-76852560D01*
X143550000Y-76852560D01*
X143302235Y-76901843D01*
X143092191Y-77042191D01*
X142951843Y-77252235D01*
X142902560Y-77500000D01*
X131135000Y-77500000D01*
X131135000Y-74256348D01*
X131163914Y-74326153D01*
X131623847Y-74786086D01*
X132224778Y-75035000D01*
X132875222Y-75035000D01*
X133476153Y-74786086D01*
X133936086Y-74326153D01*
X134185000Y-73725222D01*
X134185000Y-73074778D01*
X133936086Y-72473847D01*
X133476153Y-72013914D01*
X132875222Y-71765000D01*
X132224778Y-71765000D01*
X131623847Y-72013914D01*
X131163914Y-72473847D01*
X131135000Y-72543652D01*
X131135000Y-71188017D01*
X141357010Y-71188017D01*
X141357010Y-71559983D01*
X141499355Y-71903635D01*
X141629510Y-72033790D01*
X141559000Y-72204017D01*
X141559000Y-72575983D01*
X141701345Y-72919635D01*
X141964365Y-73182655D01*
X142308017Y-73325000D01*
X142679983Y-73325000D01*
X143023635Y-73182655D01*
X143056290Y-73150000D01*
X148027710Y-73150000D01*
X148060365Y-73182655D01*
X148404017Y-73325000D01*
X148775983Y-73325000D01*
X149119635Y-73182655D01*
X149382655Y-72919635D01*
X149525000Y-72575983D01*
X149525000Y-72204017D01*
X149391616Y-71882000D01*
X149525000Y-71559983D01*
X149525000Y-71188017D01*
X149382655Y-70844365D01*
X149119635Y-70581345D01*
X148775983Y-70439000D01*
X148404017Y-70439000D01*
X148060365Y-70581345D01*
X148027710Y-70614000D01*
X142854300Y-70614000D01*
X142821645Y-70581345D01*
X142477993Y-70439000D01*
X142106027Y-70439000D01*
X141762375Y-70581345D01*
X141499355Y-70844365D01*
X141357010Y-71188017D01*
X131135000Y-71188017D01*
X131135000Y-66576201D01*
X131703800Y-67145002D01*
X131703800Y-67191183D01*
X131846145Y-67534835D01*
X132109165Y-67797855D01*
X132452817Y-67940200D01*
X132515399Y-67940200D01*
X134065000Y-69489802D01*
X134065000Y-69535983D01*
X134207345Y-69879635D01*
X134470365Y-70142655D01*
X134814017Y-70285000D01*
X135185983Y-70285000D01*
X135529635Y-70142655D01*
X135792655Y-69879635D01*
X135935000Y-69535983D01*
X135935000Y-69164017D01*
X135792655Y-68820365D01*
X135529635Y-68557345D01*
X135185983Y-68415000D01*
X135139802Y-68415000D01*
X133573800Y-66848999D01*
X133573800Y-66819217D01*
X133431455Y-66475565D01*
X133168435Y-66212545D01*
X132824783Y-66070200D01*
X132778602Y-66070200D01*
X132286001Y-65577600D01*
X132286001Y-65338797D01*
X132376635Y-65399357D01*
X132624400Y-65448640D01*
X133874400Y-65448640D01*
X133920588Y-65439453D01*
X133973091Y-65461200D01*
X134613650Y-65461200D01*
X134772400Y-65302450D01*
X134772400Y-63703200D01*
X134365150Y-63703200D01*
X134350650Y-63688700D01*
X133376400Y-63688700D01*
X133376400Y-63703760D01*
X133122400Y-63703760D01*
X133122400Y-63688700D01*
X133102400Y-63688700D01*
X133102400Y-63463700D01*
X133122400Y-63463700D01*
X133122400Y-63448640D01*
X133376400Y-63448640D01*
X133376400Y-63463700D01*
X134350650Y-63463700D01*
X134365150Y-63449200D01*
X134772400Y-63449200D01*
X134772400Y-63429200D01*
X135026400Y-63429200D01*
X135026400Y-63449200D01*
X135046400Y-63449200D01*
X135046400Y-63703200D01*
X135026400Y-63703200D01*
X135026400Y-65302450D01*
X135185150Y-65461200D01*
X135825709Y-65461200D01*
X135878212Y-65439453D01*
X135924400Y-65448640D01*
X137174400Y-65448640D01*
X137422165Y-65399357D01*
X137632209Y-65259009D01*
X137772557Y-65048965D01*
X137821840Y-64801200D01*
X137821840Y-64461200D01*
X138317439Y-64461200D01*
X138404600Y-64478537D01*
X138491761Y-64461200D01*
X138491765Y-64461200D01*
X138749910Y-64409852D01*
X138817770Y-64364509D01*
X138880165Y-64515145D01*
X139143185Y-64778165D01*
X139486837Y-64920510D01*
X139716401Y-64920510D01*
X139716401Y-65253598D01*
X139606528Y-65363470D01*
X139543070Y-65405872D01*
X139375095Y-65657265D01*
X139330999Y-65878950D01*
X139330999Y-65878954D01*
X139316111Y-65953801D01*
X139330999Y-66028648D01*
X139331000Y-67416998D01*
X138391799Y-68356200D01*
X138345617Y-68356200D01*
X138001965Y-68498545D01*
X137738945Y-68761565D01*
X137596600Y-69105217D01*
X137596600Y-69477183D01*
X137738945Y-69820835D01*
X138001965Y-70083855D01*
X138345617Y-70226200D01*
X138717583Y-70226200D01*
X139061235Y-70083855D01*
X139324255Y-69820835D01*
X139466600Y-69477183D01*
X139466600Y-69431001D01*
X140575472Y-68322130D01*
X140638928Y-68279730D01*
X140806903Y-68028338D01*
X140850999Y-67806653D01*
X140850999Y-67806649D01*
X140865887Y-67731802D01*
X140850999Y-67656955D01*
X140850999Y-66268603D01*
X140960872Y-66158729D01*
X141024329Y-66116329D01*
X141192304Y-65864937D01*
X141236400Y-65643252D01*
X141236400Y-65643248D01*
X141251288Y-65568401D01*
X141236400Y-65493554D01*
X141236400Y-63940000D01*
X145930805Y-63940000D01*
X146026656Y-64421873D01*
X146299615Y-64830385D01*
X146708127Y-65103344D01*
X147068364Y-65175000D01*
X147311636Y-65175000D01*
X147671873Y-65103344D01*
X148080385Y-64830385D01*
X148353344Y-64421873D01*
X148449195Y-63940000D01*
X148353344Y-63458127D01*
X148080385Y-63049615D01*
X147671873Y-62776656D01*
X147311636Y-62705000D01*
X147068364Y-62705000D01*
X146708127Y-62776656D01*
X146299615Y-63049615D01*
X146026656Y-63458127D01*
X145930805Y-63940000D01*
X141236400Y-63940000D01*
X141236400Y-63212330D01*
X141374557Y-63005565D01*
X141423840Y-62757800D01*
X141423840Y-62235800D01*
X141396733Y-62099520D01*
X141411400Y-62064110D01*
X141411400Y-61962550D01*
X141252650Y-61803800D01*
X141251454Y-61803800D01*
X141234209Y-61777991D01*
X141024165Y-61637643D01*
X140776400Y-61588360D01*
X140368874Y-61588360D01*
X140386773Y-61529800D01*
X140499792Y-61529800D01*
X140528065Y-61558073D01*
X140556338Y-61529800D01*
X140603400Y-61529800D01*
X140603400Y-61549800D01*
X141252650Y-61549800D01*
X141402450Y-61400000D01*
X143190805Y-61400000D01*
X143286656Y-61881873D01*
X143559615Y-62290385D01*
X143968127Y-62563344D01*
X144328364Y-62635000D01*
X144971636Y-62635000D01*
X145331873Y-62563344D01*
X145740385Y-62290385D01*
X146013344Y-61881873D01*
X146046018Y-61717609D01*
X148536538Y-61717609D01*
X148661503Y-62019327D01*
X148979844Y-62381080D01*
X149412389Y-62593472D01*
X149603000Y-62469714D01*
X149603000Y-61527000D01*
X149857000Y-61527000D01*
X149857000Y-62469714D01*
X150047611Y-62593472D01*
X150480156Y-62381080D01*
X150798497Y-62019327D01*
X150923462Y-61717609D01*
X150798731Y-61527000D01*
X149857000Y-61527000D01*
X149603000Y-61527000D01*
X148661269Y-61527000D01*
X148536538Y-61717609D01*
X146046018Y-61717609D01*
X146109195Y-61400000D01*
X146046019Y-61082391D01*
X148536538Y-61082391D01*
X148661269Y-61273000D01*
X149603000Y-61273000D01*
X149603000Y-60330286D01*
X149857000Y-60330286D01*
X149857000Y-61273000D01*
X150798731Y-61273000D01*
X150923462Y-61082391D01*
X150798497Y-60780673D01*
X150480156Y-60418920D01*
X150047611Y-60206528D01*
X149857000Y-60330286D01*
X149603000Y-60330286D01*
X149412389Y-60206528D01*
X148979844Y-60418920D01*
X148661503Y-60780673D01*
X148536538Y-61082391D01*
X146046019Y-61082391D01*
X146013344Y-60918127D01*
X145740385Y-60509615D01*
X145331873Y-60236656D01*
X144971636Y-60165000D01*
X144328364Y-60165000D01*
X143968127Y-60236656D01*
X143559615Y-60509615D01*
X143286656Y-60918127D01*
X143190805Y-61400000D01*
X141402450Y-61400000D01*
X141411400Y-61391050D01*
X141411400Y-61289490D01*
X141314727Y-61056101D01*
X141136098Y-60877473D01*
X140975971Y-60811146D01*
X141035306Y-60646444D01*
X141008308Y-60071425D01*
X140840200Y-59665576D01*
X140592836Y-59589969D01*
X139756005Y-60426800D01*
X139770148Y-60440943D01*
X139590543Y-60620548D01*
X139576400Y-60606405D01*
X139562258Y-60620548D01*
X139382653Y-60440943D01*
X139396795Y-60426800D01*
X139382653Y-60412658D01*
X139562258Y-60233053D01*
X139576400Y-60247195D01*
X140413231Y-59410364D01*
X140337624Y-59163000D01*
X139796044Y-58967894D01*
X139221025Y-58994892D01*
X138815176Y-59163000D01*
X138739570Y-59410362D01*
X138682000Y-59352792D01*
X138682000Y-59293601D01*
X139015851Y-58959750D01*
X155251200Y-58959750D01*
X155251200Y-59700310D01*
X155347873Y-59933699D01*
X155526502Y-60112327D01*
X155759891Y-60209000D01*
X156000450Y-60209000D01*
X156159200Y-60050250D01*
X156159200Y-58801000D01*
X155409950Y-58801000D01*
X155251200Y-58959750D01*
X139015851Y-58959750D01*
X139587402Y-58388200D01*
X139753474Y-58388200D01*
X140133880Y-58230631D01*
X140425031Y-57939480D01*
X140582600Y-57559074D01*
X140582600Y-57147326D01*
X140527382Y-57014017D01*
X144265000Y-57014017D01*
X144265000Y-57385983D01*
X144407345Y-57729635D01*
X144670365Y-57992655D01*
X145014017Y-58135000D01*
X145385983Y-58135000D01*
X145729635Y-57992655D01*
X145992655Y-57729635D01*
X146042655Y-57608923D01*
X146166579Y-57485000D01*
X155318588Y-57485000D01*
X155251200Y-57647690D01*
X155251200Y-58388250D01*
X155409950Y-58547000D01*
X156159200Y-58547000D01*
X156159200Y-58527000D01*
X156413200Y-58527000D01*
X156413200Y-58547000D01*
X156433200Y-58547000D01*
X156433200Y-58801000D01*
X156413200Y-58801000D01*
X156413200Y-60050250D01*
X156571950Y-60209000D01*
X156679777Y-60209000D01*
X156722548Y-60424024D01*
X156918151Y-60716764D01*
X156992047Y-60766140D01*
X158765793Y-62539886D01*
X158363093Y-62706690D01*
X158193875Y-62875908D01*
X158190757Y-62860235D01*
X158050409Y-62650191D01*
X157840365Y-62509843D01*
X157592600Y-62460560D01*
X155792600Y-62460560D01*
X155544835Y-62509843D01*
X155334791Y-62650191D01*
X155194443Y-62860235D01*
X155145160Y-63108000D01*
X155145160Y-64908000D01*
X155194443Y-65155765D01*
X155334791Y-65365809D01*
X155544835Y-65506157D01*
X155792600Y-65555440D01*
X157592600Y-65555440D01*
X157840365Y-65506157D01*
X158050409Y-65365809D01*
X158190757Y-65155765D01*
X158193875Y-65140092D01*
X158363093Y-65309310D01*
X158927270Y-65543000D01*
X159537930Y-65543000D01*
X160102107Y-65309310D01*
X160490656Y-64920761D01*
X160663126Y-64992200D01*
X161074874Y-64992200D01*
X161455280Y-64834631D01*
X161746431Y-64543480D01*
X161904000Y-64163074D01*
X161904000Y-63751326D01*
X161766025Y-63418223D01*
X161771337Y-63391515D01*
X161754000Y-63304354D01*
X161754000Y-63304350D01*
X161702652Y-63046205D01*
X161668747Y-62995463D01*
X161556424Y-62827360D01*
X161556423Y-62827359D01*
X161507049Y-62753466D01*
X161433156Y-62704092D01*
X159494187Y-60765124D01*
X159729031Y-60530280D01*
X159886600Y-60149874D01*
X159886600Y-60132850D01*
X159969200Y-60050250D01*
X159969200Y-58801000D01*
X160223200Y-58801000D01*
X160223200Y-60050250D01*
X160381950Y-60209000D01*
X160622509Y-60209000D01*
X160855898Y-60112327D01*
X161034527Y-59933699D01*
X161131200Y-59700310D01*
X161131200Y-58959750D01*
X160972450Y-58801000D01*
X160223200Y-58801000D01*
X159969200Y-58801000D01*
X159949200Y-58801000D01*
X159949200Y-58547000D01*
X159969200Y-58547000D01*
X159969200Y-57297750D01*
X160223200Y-57297750D01*
X160223200Y-58547000D01*
X160972450Y-58547000D01*
X161131200Y-58388250D01*
X161131200Y-57647690D01*
X161034527Y-57414301D01*
X160855898Y-57235673D01*
X160622509Y-57139000D01*
X160381950Y-57139000D01*
X160223200Y-57297750D01*
X159969200Y-57297750D01*
X159810450Y-57139000D01*
X159569891Y-57139000D01*
X159476636Y-57177628D01*
X159473965Y-57175843D01*
X159226200Y-57126560D01*
X158429211Y-57126560D01*
X158389852Y-56928690D01*
X158194249Y-56635951D01*
X158120356Y-56586577D01*
X157569625Y-56035847D01*
X157520249Y-55961951D01*
X157227510Y-55766348D01*
X156969365Y-55715000D01*
X156969361Y-55715000D01*
X156882200Y-55697663D01*
X156795039Y-55715000D01*
X145887159Y-55715000D01*
X145799999Y-55697663D01*
X145712839Y-55715000D01*
X145712835Y-55715000D01*
X145454690Y-55766348D01*
X145454688Y-55766349D01*
X145454689Y-55766349D01*
X145235845Y-55912576D01*
X145235844Y-55912577D01*
X145161951Y-55961951D01*
X145112577Y-56035844D01*
X144791077Y-56357345D01*
X144670365Y-56407345D01*
X144407345Y-56670365D01*
X144265000Y-57014017D01*
X140527382Y-57014017D01*
X140425031Y-56766920D01*
X140133880Y-56475769D01*
X139753474Y-56318200D01*
X139341726Y-56318200D01*
X138961320Y-56475769D01*
X138670169Y-56766920D01*
X138512600Y-57147326D01*
X138512600Y-57313398D01*
X138074808Y-57751191D01*
X138135000Y-57605874D01*
X138135000Y-57194126D01*
X137977431Y-56813720D01*
X137686280Y-56522569D01*
X137305874Y-56365000D01*
X136894126Y-56365000D01*
X136513720Y-56522569D01*
X136416489Y-56619800D01*
X135729632Y-56619800D01*
X135647399Y-56603443D01*
X135565166Y-56619800D01*
X135565163Y-56619800D01*
X135321599Y-56668248D01*
X135045399Y-56852799D01*
X134998813Y-56922520D01*
X134900518Y-57020815D01*
X134830800Y-57067399D01*
X134766150Y-57164154D01*
X134646248Y-57343600D01*
X134581443Y-57669400D01*
X134597801Y-57751638D01*
X134597801Y-58093400D01*
X134518550Y-58093400D01*
X134359800Y-58252150D01*
X134359800Y-58840900D01*
X134379800Y-58840900D01*
X134379800Y-59065900D01*
X134359800Y-59065900D01*
X134359800Y-59100400D01*
X134105800Y-59100400D01*
X134105800Y-59065900D01*
X133456550Y-59065900D01*
X133297800Y-59224650D01*
X133297800Y-59304709D01*
X133394473Y-59538098D01*
X133476175Y-59619800D01*
X133474991Y-59620591D01*
X133334643Y-59830635D01*
X133285360Y-60078400D01*
X133285360Y-60528400D01*
X133334643Y-60776165D01*
X133472801Y-60982931D01*
X133472801Y-61277998D01*
X133047039Y-61703760D01*
X132624400Y-61703760D01*
X132376635Y-61753043D01*
X132290037Y-61810907D01*
X132241800Y-61801312D01*
X132166952Y-61816200D01*
X132166948Y-61816200D01*
X131997276Y-61849950D01*
X131945262Y-61860296D01*
X131812701Y-61948871D01*
X131693871Y-62028271D01*
X131651471Y-62091727D01*
X131135000Y-62608199D01*
X131135000Y-58602091D01*
X133297800Y-58602091D01*
X133297800Y-58682150D01*
X133456550Y-58840900D01*
X134105800Y-58840900D01*
X134105800Y-58252150D01*
X133947050Y-58093400D01*
X133806490Y-58093400D01*
X133573101Y-58190073D01*
X133394473Y-58368702D01*
X133297800Y-58602091D01*
X131135000Y-58602091D01*
X131135000Y-53494528D01*
X159485077Y-53494528D01*
X159675364Y-53839271D01*
X160556591Y-54190956D01*
X161505323Y-54178641D01*
X162324636Y-53839271D01*
X162514923Y-53494528D01*
X161000000Y-51979605D01*
X159485077Y-53494528D01*
X131135000Y-53494528D01*
X131135000Y-51356591D01*
X158609044Y-51356591D01*
X158621359Y-52305323D01*
X158960729Y-53124636D01*
X159305472Y-53314923D01*
X160820395Y-51800000D01*
X159305472Y-50285077D01*
X158960729Y-50475364D01*
X158609044Y-51356591D01*
X131135000Y-51356591D01*
X131135000Y-49860593D01*
X142541193Y-49871243D01*
X142604028Y-49883742D01*
X142727866Y-49859109D01*
X142851234Y-49834690D01*
X142851490Y-49834519D01*
X142851793Y-49834459D01*
X142956876Y-49764244D01*
X143061409Y-49694538D01*
X143061580Y-49694283D01*
X143061837Y-49694111D01*
X143132137Y-49588901D01*
X143201953Y-49484625D01*
X143202013Y-49484324D01*
X143202185Y-49484067D01*
X143226909Y-49359771D01*
X143251467Y-49236906D01*
X143239028Y-49174064D01*
X143239028Y-47057239D01*
X143992184Y-47057239D01*
X143998939Y-47917304D01*
X144203370Y-48752747D01*
X144594512Y-49518753D01*
X145151383Y-50174232D01*
X145844110Y-50684022D01*
X146635535Y-51020777D01*
X147483203Y-51166433D01*
X148341644Y-51113176D01*
X149164809Y-50863864D01*
X149908541Y-50431870D01*
X150532946Y-49840367D01*
X151004528Y-49121084D01*
X151297991Y-48312607D01*
X151397593Y-47458302D01*
X151397135Y-47399972D01*
X151284126Y-46547337D01*
X150978000Y-45743569D01*
X150495178Y-45031782D01*
X149861560Y-44450160D01*
X149111134Y-44029901D01*
X148284154Y-43793549D01*
X147424983Y-43753783D01*
X146579707Y-43912736D01*
X145793670Y-44261881D01*
X145109035Y-44782489D01*
X144562529Y-45446633D01*
X144183468Y-46218689D01*
X143992184Y-47057239D01*
X143239028Y-47057239D01*
X143239028Y-43648302D01*
X152383028Y-43648302D01*
X152383028Y-43837842D01*
G04 #@! TD*
M02*
