G04 #@! TF.GenerationSoftware,KiCad,Pcbnew,6.0.0-rc1-unknown-2086226~66~ubuntu18.04.1*
G04 #@! TF.CreationDate,2018-11-28T13:28:41-06:00*
G04 #@! TF.ProjectId,liger,6c696765-722e-46b6-9963-61645f706362,rev?*
G04 #@! TF.SameCoordinates,Original*
G04 #@! TF.FileFunction,Copper,L2,Bot*
G04 #@! TF.FilePolarity,Positive*
%FSLAX46Y46*%
G04 Gerber Fmt 4.6, Leading zero omitted, Abs format (unit mm)*
G04 Created by KiCad (PCBNEW 6.0.0-rc1-unknown-2086226~66~ubuntu18.04.1) date Wed 28 Nov 2018 01:28:41 PM CST*
%MOMM*%
%LPD*%
G01*
G04 APERTURE LIST*
G04 #@! TA.AperFunction,ComponentPad*
%ADD10C,3.500000*%
G04 #@! TD*
G04 #@! TA.AperFunction,Conductor*
%ADD11C,0.100000*%
G04 #@! TD*
G04 #@! TA.AperFunction,SMDPad,CuDef*
%ADD12C,0.950000*%
G04 #@! TD*
G04 #@! TA.AperFunction,ComponentPad*
%ADD13C,2.000000*%
G04 #@! TD*
G04 #@! TA.AperFunction,ComponentPad*
%ADD14O,1.200000X1.200000*%
G04 #@! TD*
G04 #@! TA.AperFunction,ComponentPad*
%ADD15O,1.600000X1.200000*%
G04 #@! TD*
G04 #@! TA.AperFunction,SMDPad,CuDef*
%ADD16R,0.800000X0.900000*%
G04 #@! TD*
G04 #@! TA.AperFunction,ComponentPad*
%ADD17C,1.800000*%
G04 #@! TD*
G04 #@! TA.AperFunction,ComponentPad*
%ADD18R,1.800000X1.800000*%
G04 #@! TD*
G04 #@! TA.AperFunction,SMDPad,CuDef*
%ADD19R,1.000000X1.000000*%
G04 #@! TD*
G04 #@! TA.AperFunction,ComponentPad*
%ADD20R,1.700000X1.700000*%
G04 #@! TD*
G04 #@! TA.AperFunction,ComponentPad*
%ADD21O,1.700000X1.700000*%
G04 #@! TD*
G04 #@! TA.AperFunction,ComponentPad*
%ADD22C,1.500000*%
G04 #@! TD*
G04 #@! TA.AperFunction,SMDPad,CuDef*
%ADD23R,2.000000X1.000000*%
G04 #@! TD*
G04 #@! TA.AperFunction,SMDPad,CuDef*
%ADD24R,1.000000X2.000000*%
G04 #@! TD*
G04 #@! TA.AperFunction,SMDPad,CuDef*
%ADD25R,4.000000X4.000000*%
G04 #@! TD*
G04 #@! TA.AperFunction,ComponentPad*
%ADD26C,1.624000*%
G04 #@! TD*
G04 #@! TA.AperFunction,SMDPad,CuDef*
%ADD27R,0.650000X1.560000*%
G04 #@! TD*
G04 #@! TA.AperFunction,SMDPad,CuDef*
%ADD28R,0.750000X0.300000*%
G04 #@! TD*
G04 #@! TA.AperFunction,SMDPad,CuDef*
%ADD29R,0.300000X0.750000*%
G04 #@! TD*
G04 #@! TA.AperFunction,ViaPad*
%ADD30C,0.600000*%
G04 #@! TD*
G04 #@! TA.AperFunction,ViaPad*
%ADD31C,1.000000*%
G04 #@! TD*
G04 #@! TA.AperFunction,ViaPad*
%ADD32C,1.200000*%
G04 #@! TD*
G04 #@! TA.AperFunction,ViaPad*
%ADD33C,0.800000*%
G04 #@! TD*
G04 #@! TA.AperFunction,Conductor*
%ADD34C,0.400000*%
G04 #@! TD*
G04 #@! TA.AperFunction,Conductor*
%ADD35C,0.250000*%
G04 #@! TD*
G04 #@! TA.AperFunction,Conductor*
%ADD36C,0.500000*%
G04 #@! TD*
G04 APERTURE END LIST*
D10*
G04 #@! TO.P,U7,1*
G04 #@! TO.N,GND*
X133000000Y-124800000D03*
X161000000Y-51800000D03*
G04 #@! TD*
D11*
G04 #@! TO.N,Net-(D3-Pad2)*
G04 #@! TO.C,D3*
G36*
X162085779Y-116526144D02*
X162108834Y-116529563D01*
X162131443Y-116535227D01*
X162153387Y-116543079D01*
X162174457Y-116553044D01*
X162194448Y-116565026D01*
X162213168Y-116578910D01*
X162230438Y-116594562D01*
X162246090Y-116611832D01*
X162259974Y-116630552D01*
X162271956Y-116650543D01*
X162281921Y-116671613D01*
X162289773Y-116693557D01*
X162295437Y-116716166D01*
X162298856Y-116739221D01*
X162300000Y-116762500D01*
X162300000Y-117237500D01*
X162298856Y-117260779D01*
X162295437Y-117283834D01*
X162289773Y-117306443D01*
X162281921Y-117328387D01*
X162271956Y-117349457D01*
X162259974Y-117369448D01*
X162246090Y-117388168D01*
X162230438Y-117405438D01*
X162213168Y-117421090D01*
X162194448Y-117434974D01*
X162174457Y-117446956D01*
X162153387Y-117456921D01*
X162131443Y-117464773D01*
X162108834Y-117470437D01*
X162085779Y-117473856D01*
X162062500Y-117475000D01*
X161487500Y-117475000D01*
X161464221Y-117473856D01*
X161441166Y-117470437D01*
X161418557Y-117464773D01*
X161396613Y-117456921D01*
X161375543Y-117446956D01*
X161355552Y-117434974D01*
X161336832Y-117421090D01*
X161319562Y-117405438D01*
X161303910Y-117388168D01*
X161290026Y-117369448D01*
X161278044Y-117349457D01*
X161268079Y-117328387D01*
X161260227Y-117306443D01*
X161254563Y-117283834D01*
X161251144Y-117260779D01*
X161250000Y-117237500D01*
X161250000Y-116762500D01*
X161251144Y-116739221D01*
X161254563Y-116716166D01*
X161260227Y-116693557D01*
X161268079Y-116671613D01*
X161278044Y-116650543D01*
X161290026Y-116630552D01*
X161303910Y-116611832D01*
X161319562Y-116594562D01*
X161336832Y-116578910D01*
X161355552Y-116565026D01*
X161375543Y-116553044D01*
X161396613Y-116543079D01*
X161418557Y-116535227D01*
X161441166Y-116529563D01*
X161464221Y-116526144D01*
X161487500Y-116525000D01*
X162062500Y-116525000D01*
X162085779Y-116526144D01*
X162085779Y-116526144D01*
G37*
D12*
G04 #@! TD*
G04 #@! TO.P,D3,2*
G04 #@! TO.N,Net-(D3-Pad2)*
X161775000Y-117000000D03*
D11*
G04 #@! TO.N,Net-(D3-Pad1)*
G04 #@! TO.C,D3*
G36*
X160335779Y-116526144D02*
X160358834Y-116529563D01*
X160381443Y-116535227D01*
X160403387Y-116543079D01*
X160424457Y-116553044D01*
X160444448Y-116565026D01*
X160463168Y-116578910D01*
X160480438Y-116594562D01*
X160496090Y-116611832D01*
X160509974Y-116630552D01*
X160521956Y-116650543D01*
X160531921Y-116671613D01*
X160539773Y-116693557D01*
X160545437Y-116716166D01*
X160548856Y-116739221D01*
X160550000Y-116762500D01*
X160550000Y-117237500D01*
X160548856Y-117260779D01*
X160545437Y-117283834D01*
X160539773Y-117306443D01*
X160531921Y-117328387D01*
X160521956Y-117349457D01*
X160509974Y-117369448D01*
X160496090Y-117388168D01*
X160480438Y-117405438D01*
X160463168Y-117421090D01*
X160444448Y-117434974D01*
X160424457Y-117446956D01*
X160403387Y-117456921D01*
X160381443Y-117464773D01*
X160358834Y-117470437D01*
X160335779Y-117473856D01*
X160312500Y-117475000D01*
X159737500Y-117475000D01*
X159714221Y-117473856D01*
X159691166Y-117470437D01*
X159668557Y-117464773D01*
X159646613Y-117456921D01*
X159625543Y-117446956D01*
X159605552Y-117434974D01*
X159586832Y-117421090D01*
X159569562Y-117405438D01*
X159553910Y-117388168D01*
X159540026Y-117369448D01*
X159528044Y-117349457D01*
X159518079Y-117328387D01*
X159510227Y-117306443D01*
X159504563Y-117283834D01*
X159501144Y-117260779D01*
X159500000Y-117237500D01*
X159500000Y-116762500D01*
X159501144Y-116739221D01*
X159504563Y-116716166D01*
X159510227Y-116693557D01*
X159518079Y-116671613D01*
X159528044Y-116650543D01*
X159540026Y-116630552D01*
X159553910Y-116611832D01*
X159569562Y-116594562D01*
X159586832Y-116578910D01*
X159605552Y-116565026D01*
X159625543Y-116553044D01*
X159646613Y-116543079D01*
X159668557Y-116535227D01*
X159691166Y-116529563D01*
X159714221Y-116526144D01*
X159737500Y-116525000D01*
X160312500Y-116525000D01*
X160335779Y-116526144D01*
X160335779Y-116526144D01*
G37*
D12*
G04 #@! TD*
G04 #@! TO.P,D3,1*
G04 #@! TO.N,Net-(D3-Pad1)*
X160025000Y-117000000D03*
D13*
G04 #@! TO.P,U12,*
G04 #@! TO.N,*
X132550000Y-73400000D03*
X161550000Y-73400000D03*
X132550000Y-102400000D03*
X161550000Y-102400000D03*
G04 #@! TD*
D14*
G04 #@! TO.P,U7,3*
G04 #@! TO.N,GND*
X149730000Y-61400000D03*
G04 #@! TO.P,U7,2*
G04 #@! TO.N,Net-(C4-Pad1)*
X147190000Y-63940000D03*
D15*
G04 #@! TO.P,U7,1*
G04 #@! TO.N,/3V3*
X144650000Y-61400000D03*
G04 #@! TD*
D16*
G04 #@! TO.P,Q1,1*
G04 #@! TO.N,Net-(Q1-Pad1)*
X155229600Y-69529200D03*
G04 #@! TO.P,Q1,2*
G04 #@! TO.N,GND*
X153329600Y-69529200D03*
G04 #@! TO.P,Q1,3*
G04 #@! TO.N,Net-(D1-Pad1)*
X154279600Y-67529200D03*
G04 #@! TD*
D11*
G04 #@! TO.N,GND*
G04 #@! TO.C,C1*
G36*
X158553579Y-79220744D02*
X158576634Y-79224163D01*
X158599243Y-79229827D01*
X158621187Y-79237679D01*
X158642257Y-79247644D01*
X158662248Y-79259626D01*
X158680968Y-79273510D01*
X158698238Y-79289162D01*
X158713890Y-79306432D01*
X158727774Y-79325152D01*
X158739756Y-79345143D01*
X158749721Y-79366213D01*
X158757573Y-79388157D01*
X158763237Y-79410766D01*
X158766656Y-79433821D01*
X158767800Y-79457100D01*
X158767800Y-80032100D01*
X158766656Y-80055379D01*
X158763237Y-80078434D01*
X158757573Y-80101043D01*
X158749721Y-80122987D01*
X158739756Y-80144057D01*
X158727774Y-80164048D01*
X158713890Y-80182768D01*
X158698238Y-80200038D01*
X158680968Y-80215690D01*
X158662248Y-80229574D01*
X158642257Y-80241556D01*
X158621187Y-80251521D01*
X158599243Y-80259373D01*
X158576634Y-80265037D01*
X158553579Y-80268456D01*
X158530300Y-80269600D01*
X158055300Y-80269600D01*
X158032021Y-80268456D01*
X158008966Y-80265037D01*
X157986357Y-80259373D01*
X157964413Y-80251521D01*
X157943343Y-80241556D01*
X157923352Y-80229574D01*
X157904632Y-80215690D01*
X157887362Y-80200038D01*
X157871710Y-80182768D01*
X157857826Y-80164048D01*
X157845844Y-80144057D01*
X157835879Y-80122987D01*
X157828027Y-80101043D01*
X157822363Y-80078434D01*
X157818944Y-80055379D01*
X157817800Y-80032100D01*
X157817800Y-79457100D01*
X157818944Y-79433821D01*
X157822363Y-79410766D01*
X157828027Y-79388157D01*
X157835879Y-79366213D01*
X157845844Y-79345143D01*
X157857826Y-79325152D01*
X157871710Y-79306432D01*
X157887362Y-79289162D01*
X157904632Y-79273510D01*
X157923352Y-79259626D01*
X157943343Y-79247644D01*
X157964413Y-79237679D01*
X157986357Y-79229827D01*
X158008966Y-79224163D01*
X158032021Y-79220744D01*
X158055300Y-79219600D01*
X158530300Y-79219600D01*
X158553579Y-79220744D01*
X158553579Y-79220744D01*
G37*
D12*
G04 #@! TD*
G04 #@! TO.P,C1,2*
G04 #@! TO.N,GND*
X158292800Y-79744600D03*
D11*
G04 #@! TO.N,/3V3*
G04 #@! TO.C,C1*
G36*
X158553579Y-80970744D02*
X158576634Y-80974163D01*
X158599243Y-80979827D01*
X158621187Y-80987679D01*
X158642257Y-80997644D01*
X158662248Y-81009626D01*
X158680968Y-81023510D01*
X158698238Y-81039162D01*
X158713890Y-81056432D01*
X158727774Y-81075152D01*
X158739756Y-81095143D01*
X158749721Y-81116213D01*
X158757573Y-81138157D01*
X158763237Y-81160766D01*
X158766656Y-81183821D01*
X158767800Y-81207100D01*
X158767800Y-81782100D01*
X158766656Y-81805379D01*
X158763237Y-81828434D01*
X158757573Y-81851043D01*
X158749721Y-81872987D01*
X158739756Y-81894057D01*
X158727774Y-81914048D01*
X158713890Y-81932768D01*
X158698238Y-81950038D01*
X158680968Y-81965690D01*
X158662248Y-81979574D01*
X158642257Y-81991556D01*
X158621187Y-82001521D01*
X158599243Y-82009373D01*
X158576634Y-82015037D01*
X158553579Y-82018456D01*
X158530300Y-82019600D01*
X158055300Y-82019600D01*
X158032021Y-82018456D01*
X158008966Y-82015037D01*
X157986357Y-82009373D01*
X157964413Y-82001521D01*
X157943343Y-81991556D01*
X157923352Y-81979574D01*
X157904632Y-81965690D01*
X157887362Y-81950038D01*
X157871710Y-81932768D01*
X157857826Y-81914048D01*
X157845844Y-81894057D01*
X157835879Y-81872987D01*
X157828027Y-81851043D01*
X157822363Y-81828434D01*
X157818944Y-81805379D01*
X157817800Y-81782100D01*
X157817800Y-81207100D01*
X157818944Y-81183821D01*
X157822363Y-81160766D01*
X157828027Y-81138157D01*
X157835879Y-81116213D01*
X157845844Y-81095143D01*
X157857826Y-81075152D01*
X157871710Y-81056432D01*
X157887362Y-81039162D01*
X157904632Y-81023510D01*
X157923352Y-81009626D01*
X157943343Y-80997644D01*
X157964413Y-80987679D01*
X157986357Y-80979827D01*
X158008966Y-80974163D01*
X158032021Y-80970744D01*
X158055300Y-80969600D01*
X158530300Y-80969600D01*
X158553579Y-80970744D01*
X158553579Y-80970744D01*
G37*
D12*
G04 #@! TD*
G04 #@! TO.P,C1,1*
G04 #@! TO.N,/3V3*
X158292800Y-81494600D03*
D11*
G04 #@! TO.N,GND*
G04 #@! TO.C,C2*
G36*
X160331579Y-79220744D02*
X160354634Y-79224163D01*
X160377243Y-79229827D01*
X160399187Y-79237679D01*
X160420257Y-79247644D01*
X160440248Y-79259626D01*
X160458968Y-79273510D01*
X160476238Y-79289162D01*
X160491890Y-79306432D01*
X160505774Y-79325152D01*
X160517756Y-79345143D01*
X160527721Y-79366213D01*
X160535573Y-79388157D01*
X160541237Y-79410766D01*
X160544656Y-79433821D01*
X160545800Y-79457100D01*
X160545800Y-80032100D01*
X160544656Y-80055379D01*
X160541237Y-80078434D01*
X160535573Y-80101043D01*
X160527721Y-80122987D01*
X160517756Y-80144057D01*
X160505774Y-80164048D01*
X160491890Y-80182768D01*
X160476238Y-80200038D01*
X160458968Y-80215690D01*
X160440248Y-80229574D01*
X160420257Y-80241556D01*
X160399187Y-80251521D01*
X160377243Y-80259373D01*
X160354634Y-80265037D01*
X160331579Y-80268456D01*
X160308300Y-80269600D01*
X159833300Y-80269600D01*
X159810021Y-80268456D01*
X159786966Y-80265037D01*
X159764357Y-80259373D01*
X159742413Y-80251521D01*
X159721343Y-80241556D01*
X159701352Y-80229574D01*
X159682632Y-80215690D01*
X159665362Y-80200038D01*
X159649710Y-80182768D01*
X159635826Y-80164048D01*
X159623844Y-80144057D01*
X159613879Y-80122987D01*
X159606027Y-80101043D01*
X159600363Y-80078434D01*
X159596944Y-80055379D01*
X159595800Y-80032100D01*
X159595800Y-79457100D01*
X159596944Y-79433821D01*
X159600363Y-79410766D01*
X159606027Y-79388157D01*
X159613879Y-79366213D01*
X159623844Y-79345143D01*
X159635826Y-79325152D01*
X159649710Y-79306432D01*
X159665362Y-79289162D01*
X159682632Y-79273510D01*
X159701352Y-79259626D01*
X159721343Y-79247644D01*
X159742413Y-79237679D01*
X159764357Y-79229827D01*
X159786966Y-79224163D01*
X159810021Y-79220744D01*
X159833300Y-79219600D01*
X160308300Y-79219600D01*
X160331579Y-79220744D01*
X160331579Y-79220744D01*
G37*
D12*
G04 #@! TD*
G04 #@! TO.P,C2,2*
G04 #@! TO.N,GND*
X160070800Y-79744600D03*
D11*
G04 #@! TO.N,/3V3*
G04 #@! TO.C,C2*
G36*
X160331579Y-80970744D02*
X160354634Y-80974163D01*
X160377243Y-80979827D01*
X160399187Y-80987679D01*
X160420257Y-80997644D01*
X160440248Y-81009626D01*
X160458968Y-81023510D01*
X160476238Y-81039162D01*
X160491890Y-81056432D01*
X160505774Y-81075152D01*
X160517756Y-81095143D01*
X160527721Y-81116213D01*
X160535573Y-81138157D01*
X160541237Y-81160766D01*
X160544656Y-81183821D01*
X160545800Y-81207100D01*
X160545800Y-81782100D01*
X160544656Y-81805379D01*
X160541237Y-81828434D01*
X160535573Y-81851043D01*
X160527721Y-81872987D01*
X160517756Y-81894057D01*
X160505774Y-81914048D01*
X160491890Y-81932768D01*
X160476238Y-81950038D01*
X160458968Y-81965690D01*
X160440248Y-81979574D01*
X160420257Y-81991556D01*
X160399187Y-82001521D01*
X160377243Y-82009373D01*
X160354634Y-82015037D01*
X160331579Y-82018456D01*
X160308300Y-82019600D01*
X159833300Y-82019600D01*
X159810021Y-82018456D01*
X159786966Y-82015037D01*
X159764357Y-82009373D01*
X159742413Y-82001521D01*
X159721343Y-81991556D01*
X159701352Y-81979574D01*
X159682632Y-81965690D01*
X159665362Y-81950038D01*
X159649710Y-81932768D01*
X159635826Y-81914048D01*
X159623844Y-81894057D01*
X159613879Y-81872987D01*
X159606027Y-81851043D01*
X159600363Y-81828434D01*
X159596944Y-81805379D01*
X159595800Y-81782100D01*
X159595800Y-81207100D01*
X159596944Y-81183821D01*
X159600363Y-81160766D01*
X159606027Y-81138157D01*
X159613879Y-81116213D01*
X159623844Y-81095143D01*
X159635826Y-81075152D01*
X159649710Y-81056432D01*
X159665362Y-81039162D01*
X159682632Y-81023510D01*
X159701352Y-81009626D01*
X159721343Y-80997644D01*
X159742413Y-80987679D01*
X159764357Y-80979827D01*
X159786966Y-80974163D01*
X159810021Y-80970744D01*
X159833300Y-80969600D01*
X160308300Y-80969600D01*
X160331579Y-80970744D01*
X160331579Y-80970744D01*
G37*
D12*
G04 #@! TD*
G04 #@! TO.P,C2,1*
G04 #@! TO.N,/3V3*
X160070800Y-81494600D03*
D11*
G04 #@! TO.N,/3V3*
G04 #@! TO.C,C5*
G36*
X140163979Y-64717344D02*
X140187034Y-64720763D01*
X140209643Y-64726427D01*
X140231587Y-64734279D01*
X140252657Y-64744244D01*
X140272648Y-64756226D01*
X140291368Y-64770110D01*
X140308638Y-64785762D01*
X140324290Y-64803032D01*
X140338174Y-64821752D01*
X140350156Y-64841743D01*
X140360121Y-64862813D01*
X140367973Y-64884757D01*
X140373637Y-64907366D01*
X140377056Y-64930421D01*
X140378200Y-64953700D01*
X140378200Y-65528700D01*
X140377056Y-65551979D01*
X140373637Y-65575034D01*
X140367973Y-65597643D01*
X140360121Y-65619587D01*
X140350156Y-65640657D01*
X140338174Y-65660648D01*
X140324290Y-65679368D01*
X140308638Y-65696638D01*
X140291368Y-65712290D01*
X140272648Y-65726174D01*
X140252657Y-65738156D01*
X140231587Y-65748121D01*
X140209643Y-65755973D01*
X140187034Y-65761637D01*
X140163979Y-65765056D01*
X140140700Y-65766200D01*
X139665700Y-65766200D01*
X139642421Y-65765056D01*
X139619366Y-65761637D01*
X139596757Y-65755973D01*
X139574813Y-65748121D01*
X139553743Y-65738156D01*
X139533752Y-65726174D01*
X139515032Y-65712290D01*
X139497762Y-65696638D01*
X139482110Y-65679368D01*
X139468226Y-65660648D01*
X139456244Y-65640657D01*
X139446279Y-65619587D01*
X139438427Y-65597643D01*
X139432763Y-65575034D01*
X139429344Y-65551979D01*
X139428200Y-65528700D01*
X139428200Y-64953700D01*
X139429344Y-64930421D01*
X139432763Y-64907366D01*
X139438427Y-64884757D01*
X139446279Y-64862813D01*
X139456244Y-64841743D01*
X139468226Y-64821752D01*
X139482110Y-64803032D01*
X139497762Y-64785762D01*
X139515032Y-64770110D01*
X139533752Y-64756226D01*
X139553743Y-64744244D01*
X139574813Y-64734279D01*
X139596757Y-64726427D01*
X139619366Y-64720763D01*
X139642421Y-64717344D01*
X139665700Y-64716200D01*
X140140700Y-64716200D01*
X140163979Y-64717344D01*
X140163979Y-64717344D01*
G37*
D12*
G04 #@! TD*
G04 #@! TO.P,C5,1*
G04 #@! TO.N,/3V3*
X139903200Y-65241200D03*
D11*
G04 #@! TO.N,GND*
G04 #@! TO.C,C5*
G36*
X140163979Y-66467344D02*
X140187034Y-66470763D01*
X140209643Y-66476427D01*
X140231587Y-66484279D01*
X140252657Y-66494244D01*
X140272648Y-66506226D01*
X140291368Y-66520110D01*
X140308638Y-66535762D01*
X140324290Y-66553032D01*
X140338174Y-66571752D01*
X140350156Y-66591743D01*
X140360121Y-66612813D01*
X140367973Y-66634757D01*
X140373637Y-66657366D01*
X140377056Y-66680421D01*
X140378200Y-66703700D01*
X140378200Y-67278700D01*
X140377056Y-67301979D01*
X140373637Y-67325034D01*
X140367973Y-67347643D01*
X140360121Y-67369587D01*
X140350156Y-67390657D01*
X140338174Y-67410648D01*
X140324290Y-67429368D01*
X140308638Y-67446638D01*
X140291368Y-67462290D01*
X140272648Y-67476174D01*
X140252657Y-67488156D01*
X140231587Y-67498121D01*
X140209643Y-67505973D01*
X140187034Y-67511637D01*
X140163979Y-67515056D01*
X140140700Y-67516200D01*
X139665700Y-67516200D01*
X139642421Y-67515056D01*
X139619366Y-67511637D01*
X139596757Y-67505973D01*
X139574813Y-67498121D01*
X139553743Y-67488156D01*
X139533752Y-67476174D01*
X139515032Y-67462290D01*
X139497762Y-67446638D01*
X139482110Y-67429368D01*
X139468226Y-67410648D01*
X139456244Y-67390657D01*
X139446279Y-67369587D01*
X139438427Y-67347643D01*
X139432763Y-67325034D01*
X139429344Y-67301979D01*
X139428200Y-67278700D01*
X139428200Y-66703700D01*
X139429344Y-66680421D01*
X139432763Y-66657366D01*
X139438427Y-66634757D01*
X139446279Y-66612813D01*
X139456244Y-66591743D01*
X139468226Y-66571752D01*
X139482110Y-66553032D01*
X139497762Y-66535762D01*
X139515032Y-66520110D01*
X139533752Y-66506226D01*
X139553743Y-66494244D01*
X139574813Y-66484279D01*
X139596757Y-66476427D01*
X139619366Y-66470763D01*
X139642421Y-66467344D01*
X139665700Y-66466200D01*
X140140700Y-66466200D01*
X140163979Y-66467344D01*
X140163979Y-66467344D01*
G37*
D12*
G04 #@! TD*
G04 #@! TO.P,C5,2*
G04 #@! TO.N,GND*
X139903200Y-66991200D03*
D11*
G04 #@! TO.N,GND*
G04 #@! TO.C,C6*
G36*
X140671179Y-108949344D02*
X140694234Y-108952763D01*
X140716843Y-108958427D01*
X140738787Y-108966279D01*
X140759857Y-108976244D01*
X140779848Y-108988226D01*
X140798568Y-109002110D01*
X140815838Y-109017762D01*
X140831490Y-109035032D01*
X140845374Y-109053752D01*
X140857356Y-109073743D01*
X140867321Y-109094813D01*
X140875173Y-109116757D01*
X140880837Y-109139366D01*
X140884256Y-109162421D01*
X140885400Y-109185700D01*
X140885400Y-109660700D01*
X140884256Y-109683979D01*
X140880837Y-109707034D01*
X140875173Y-109729643D01*
X140867321Y-109751587D01*
X140857356Y-109772657D01*
X140845374Y-109792648D01*
X140831490Y-109811368D01*
X140815838Y-109828638D01*
X140798568Y-109844290D01*
X140779848Y-109858174D01*
X140759857Y-109870156D01*
X140738787Y-109880121D01*
X140716843Y-109887973D01*
X140694234Y-109893637D01*
X140671179Y-109897056D01*
X140647900Y-109898200D01*
X140072900Y-109898200D01*
X140049621Y-109897056D01*
X140026566Y-109893637D01*
X140003957Y-109887973D01*
X139982013Y-109880121D01*
X139960943Y-109870156D01*
X139940952Y-109858174D01*
X139922232Y-109844290D01*
X139904962Y-109828638D01*
X139889310Y-109811368D01*
X139875426Y-109792648D01*
X139863444Y-109772657D01*
X139853479Y-109751587D01*
X139845627Y-109729643D01*
X139839963Y-109707034D01*
X139836544Y-109683979D01*
X139835400Y-109660700D01*
X139835400Y-109185700D01*
X139836544Y-109162421D01*
X139839963Y-109139366D01*
X139845627Y-109116757D01*
X139853479Y-109094813D01*
X139863444Y-109073743D01*
X139875426Y-109053752D01*
X139889310Y-109035032D01*
X139904962Y-109017762D01*
X139922232Y-109002110D01*
X139940952Y-108988226D01*
X139960943Y-108976244D01*
X139982013Y-108966279D01*
X140003957Y-108958427D01*
X140026566Y-108952763D01*
X140049621Y-108949344D01*
X140072900Y-108948200D01*
X140647900Y-108948200D01*
X140671179Y-108949344D01*
X140671179Y-108949344D01*
G37*
D12*
G04 #@! TD*
G04 #@! TO.P,C6,2*
G04 #@! TO.N,GND*
X140360400Y-109423200D03*
D11*
G04 #@! TO.N,/V_IN*
G04 #@! TO.C,C6*
G36*
X142421179Y-108949344D02*
X142444234Y-108952763D01*
X142466843Y-108958427D01*
X142488787Y-108966279D01*
X142509857Y-108976244D01*
X142529848Y-108988226D01*
X142548568Y-109002110D01*
X142565838Y-109017762D01*
X142581490Y-109035032D01*
X142595374Y-109053752D01*
X142607356Y-109073743D01*
X142617321Y-109094813D01*
X142625173Y-109116757D01*
X142630837Y-109139366D01*
X142634256Y-109162421D01*
X142635400Y-109185700D01*
X142635400Y-109660700D01*
X142634256Y-109683979D01*
X142630837Y-109707034D01*
X142625173Y-109729643D01*
X142617321Y-109751587D01*
X142607356Y-109772657D01*
X142595374Y-109792648D01*
X142581490Y-109811368D01*
X142565838Y-109828638D01*
X142548568Y-109844290D01*
X142529848Y-109858174D01*
X142509857Y-109870156D01*
X142488787Y-109880121D01*
X142466843Y-109887973D01*
X142444234Y-109893637D01*
X142421179Y-109897056D01*
X142397900Y-109898200D01*
X141822900Y-109898200D01*
X141799621Y-109897056D01*
X141776566Y-109893637D01*
X141753957Y-109887973D01*
X141732013Y-109880121D01*
X141710943Y-109870156D01*
X141690952Y-109858174D01*
X141672232Y-109844290D01*
X141654962Y-109828638D01*
X141639310Y-109811368D01*
X141625426Y-109792648D01*
X141613444Y-109772657D01*
X141603479Y-109751587D01*
X141595627Y-109729643D01*
X141589963Y-109707034D01*
X141586544Y-109683979D01*
X141585400Y-109660700D01*
X141585400Y-109185700D01*
X141586544Y-109162421D01*
X141589963Y-109139366D01*
X141595627Y-109116757D01*
X141603479Y-109094813D01*
X141613444Y-109073743D01*
X141625426Y-109053752D01*
X141639310Y-109035032D01*
X141654962Y-109017762D01*
X141672232Y-109002110D01*
X141690952Y-108988226D01*
X141710943Y-108976244D01*
X141732013Y-108966279D01*
X141753957Y-108958427D01*
X141776566Y-108952763D01*
X141799621Y-108949344D01*
X141822900Y-108948200D01*
X142397900Y-108948200D01*
X142421179Y-108949344D01*
X142421179Y-108949344D01*
G37*
D12*
G04 #@! TD*
G04 #@! TO.P,C6,1*
G04 #@! TO.N,/V_IN*
X142110400Y-109423200D03*
D11*
G04 #@! TO.N,/V_IN*
G04 #@! TO.C,C7*
G36*
X155607179Y-113189344D02*
X155630234Y-113192763D01*
X155652843Y-113198427D01*
X155674787Y-113206279D01*
X155695857Y-113216244D01*
X155715848Y-113228226D01*
X155734568Y-113242110D01*
X155751838Y-113257762D01*
X155767490Y-113275032D01*
X155781374Y-113293752D01*
X155793356Y-113313743D01*
X155803321Y-113334813D01*
X155811173Y-113356757D01*
X155816837Y-113379366D01*
X155820256Y-113402421D01*
X155821400Y-113425700D01*
X155821400Y-114000700D01*
X155820256Y-114023979D01*
X155816837Y-114047034D01*
X155811173Y-114069643D01*
X155803321Y-114091587D01*
X155793356Y-114112657D01*
X155781374Y-114132648D01*
X155767490Y-114151368D01*
X155751838Y-114168638D01*
X155734568Y-114184290D01*
X155715848Y-114198174D01*
X155695857Y-114210156D01*
X155674787Y-114220121D01*
X155652843Y-114227973D01*
X155630234Y-114233637D01*
X155607179Y-114237056D01*
X155583900Y-114238200D01*
X155108900Y-114238200D01*
X155085621Y-114237056D01*
X155062566Y-114233637D01*
X155039957Y-114227973D01*
X155018013Y-114220121D01*
X154996943Y-114210156D01*
X154976952Y-114198174D01*
X154958232Y-114184290D01*
X154940962Y-114168638D01*
X154925310Y-114151368D01*
X154911426Y-114132648D01*
X154899444Y-114112657D01*
X154889479Y-114091587D01*
X154881627Y-114069643D01*
X154875963Y-114047034D01*
X154872544Y-114023979D01*
X154871400Y-114000700D01*
X154871400Y-113425700D01*
X154872544Y-113402421D01*
X154875963Y-113379366D01*
X154881627Y-113356757D01*
X154889479Y-113334813D01*
X154899444Y-113313743D01*
X154911426Y-113293752D01*
X154925310Y-113275032D01*
X154940962Y-113257762D01*
X154958232Y-113242110D01*
X154976952Y-113228226D01*
X154996943Y-113216244D01*
X155018013Y-113206279D01*
X155039957Y-113198427D01*
X155062566Y-113192763D01*
X155085621Y-113189344D01*
X155108900Y-113188200D01*
X155583900Y-113188200D01*
X155607179Y-113189344D01*
X155607179Y-113189344D01*
G37*
D12*
G04 #@! TD*
G04 #@! TO.P,C7,1*
G04 #@! TO.N,/V_IN*
X155346400Y-113713200D03*
D11*
G04 #@! TO.N,GND*
G04 #@! TO.C,C7*
G36*
X155607179Y-111439344D02*
X155630234Y-111442763D01*
X155652843Y-111448427D01*
X155674787Y-111456279D01*
X155695857Y-111466244D01*
X155715848Y-111478226D01*
X155734568Y-111492110D01*
X155751838Y-111507762D01*
X155767490Y-111525032D01*
X155781374Y-111543752D01*
X155793356Y-111563743D01*
X155803321Y-111584813D01*
X155811173Y-111606757D01*
X155816837Y-111629366D01*
X155820256Y-111652421D01*
X155821400Y-111675700D01*
X155821400Y-112250700D01*
X155820256Y-112273979D01*
X155816837Y-112297034D01*
X155811173Y-112319643D01*
X155803321Y-112341587D01*
X155793356Y-112362657D01*
X155781374Y-112382648D01*
X155767490Y-112401368D01*
X155751838Y-112418638D01*
X155734568Y-112434290D01*
X155715848Y-112448174D01*
X155695857Y-112460156D01*
X155674787Y-112470121D01*
X155652843Y-112477973D01*
X155630234Y-112483637D01*
X155607179Y-112487056D01*
X155583900Y-112488200D01*
X155108900Y-112488200D01*
X155085621Y-112487056D01*
X155062566Y-112483637D01*
X155039957Y-112477973D01*
X155018013Y-112470121D01*
X154996943Y-112460156D01*
X154976952Y-112448174D01*
X154958232Y-112434290D01*
X154940962Y-112418638D01*
X154925310Y-112401368D01*
X154911426Y-112382648D01*
X154899444Y-112362657D01*
X154889479Y-112341587D01*
X154881627Y-112319643D01*
X154875963Y-112297034D01*
X154872544Y-112273979D01*
X154871400Y-112250700D01*
X154871400Y-111675700D01*
X154872544Y-111652421D01*
X154875963Y-111629366D01*
X154881627Y-111606757D01*
X154889479Y-111584813D01*
X154899444Y-111563743D01*
X154911426Y-111543752D01*
X154925310Y-111525032D01*
X154940962Y-111507762D01*
X154958232Y-111492110D01*
X154976952Y-111478226D01*
X154996943Y-111466244D01*
X155018013Y-111456279D01*
X155039957Y-111448427D01*
X155062566Y-111442763D01*
X155085621Y-111439344D01*
X155108900Y-111438200D01*
X155583900Y-111438200D01*
X155607179Y-111439344D01*
X155607179Y-111439344D01*
G37*
D12*
G04 #@! TD*
G04 #@! TO.P,C7,2*
G04 #@! TO.N,GND*
X155346400Y-111963200D03*
D11*
G04 #@! TO.N,GND*
G04 #@! TO.C,C8*
G36*
X152089779Y-108390544D02*
X152112834Y-108393963D01*
X152135443Y-108399627D01*
X152157387Y-108407479D01*
X152178457Y-108417444D01*
X152198448Y-108429426D01*
X152217168Y-108443310D01*
X152234438Y-108458962D01*
X152250090Y-108476232D01*
X152263974Y-108494952D01*
X152275956Y-108514943D01*
X152285921Y-108536013D01*
X152293773Y-108557957D01*
X152299437Y-108580566D01*
X152302856Y-108603621D01*
X152304000Y-108626900D01*
X152304000Y-109101900D01*
X152302856Y-109125179D01*
X152299437Y-109148234D01*
X152293773Y-109170843D01*
X152285921Y-109192787D01*
X152275956Y-109213857D01*
X152263974Y-109233848D01*
X152250090Y-109252568D01*
X152234438Y-109269838D01*
X152217168Y-109285490D01*
X152198448Y-109299374D01*
X152178457Y-109311356D01*
X152157387Y-109321321D01*
X152135443Y-109329173D01*
X152112834Y-109334837D01*
X152089779Y-109338256D01*
X152066500Y-109339400D01*
X151491500Y-109339400D01*
X151468221Y-109338256D01*
X151445166Y-109334837D01*
X151422557Y-109329173D01*
X151400613Y-109321321D01*
X151379543Y-109311356D01*
X151359552Y-109299374D01*
X151340832Y-109285490D01*
X151323562Y-109269838D01*
X151307910Y-109252568D01*
X151294026Y-109233848D01*
X151282044Y-109213857D01*
X151272079Y-109192787D01*
X151264227Y-109170843D01*
X151258563Y-109148234D01*
X151255144Y-109125179D01*
X151254000Y-109101900D01*
X151254000Y-108626900D01*
X151255144Y-108603621D01*
X151258563Y-108580566D01*
X151264227Y-108557957D01*
X151272079Y-108536013D01*
X151282044Y-108514943D01*
X151294026Y-108494952D01*
X151307910Y-108476232D01*
X151323562Y-108458962D01*
X151340832Y-108443310D01*
X151359552Y-108429426D01*
X151379543Y-108417444D01*
X151400613Y-108407479D01*
X151422557Y-108399627D01*
X151445166Y-108393963D01*
X151468221Y-108390544D01*
X151491500Y-108389400D01*
X152066500Y-108389400D01*
X152089779Y-108390544D01*
X152089779Y-108390544D01*
G37*
D12*
G04 #@! TD*
G04 #@! TO.P,C8,2*
G04 #@! TO.N,GND*
X151779000Y-108864400D03*
D11*
G04 #@! TO.N,/3V3*
G04 #@! TO.C,C8*
G36*
X153839779Y-108390544D02*
X153862834Y-108393963D01*
X153885443Y-108399627D01*
X153907387Y-108407479D01*
X153928457Y-108417444D01*
X153948448Y-108429426D01*
X153967168Y-108443310D01*
X153984438Y-108458962D01*
X154000090Y-108476232D01*
X154013974Y-108494952D01*
X154025956Y-108514943D01*
X154035921Y-108536013D01*
X154043773Y-108557957D01*
X154049437Y-108580566D01*
X154052856Y-108603621D01*
X154054000Y-108626900D01*
X154054000Y-109101900D01*
X154052856Y-109125179D01*
X154049437Y-109148234D01*
X154043773Y-109170843D01*
X154035921Y-109192787D01*
X154025956Y-109213857D01*
X154013974Y-109233848D01*
X154000090Y-109252568D01*
X153984438Y-109269838D01*
X153967168Y-109285490D01*
X153948448Y-109299374D01*
X153928457Y-109311356D01*
X153907387Y-109321321D01*
X153885443Y-109329173D01*
X153862834Y-109334837D01*
X153839779Y-109338256D01*
X153816500Y-109339400D01*
X153241500Y-109339400D01*
X153218221Y-109338256D01*
X153195166Y-109334837D01*
X153172557Y-109329173D01*
X153150613Y-109321321D01*
X153129543Y-109311356D01*
X153109552Y-109299374D01*
X153090832Y-109285490D01*
X153073562Y-109269838D01*
X153057910Y-109252568D01*
X153044026Y-109233848D01*
X153032044Y-109213857D01*
X153022079Y-109192787D01*
X153014227Y-109170843D01*
X153008563Y-109148234D01*
X153005144Y-109125179D01*
X153004000Y-109101900D01*
X153004000Y-108626900D01*
X153005144Y-108603621D01*
X153008563Y-108580566D01*
X153014227Y-108557957D01*
X153022079Y-108536013D01*
X153032044Y-108514943D01*
X153044026Y-108494952D01*
X153057910Y-108476232D01*
X153073562Y-108458962D01*
X153090832Y-108443310D01*
X153109552Y-108429426D01*
X153129543Y-108417444D01*
X153150613Y-108407479D01*
X153172557Y-108399627D01*
X153195166Y-108393963D01*
X153218221Y-108390544D01*
X153241500Y-108389400D01*
X153816500Y-108389400D01*
X153839779Y-108390544D01*
X153839779Y-108390544D01*
G37*
D12*
G04 #@! TD*
G04 #@! TO.P,C8,1*
G04 #@! TO.N,/3V3*
X153529000Y-108864400D03*
D11*
G04 #@! TO.N,GND*
G04 #@! TO.C,C9*
G36*
X155581779Y-107668744D02*
X155604834Y-107672163D01*
X155627443Y-107677827D01*
X155649387Y-107685679D01*
X155670457Y-107695644D01*
X155690448Y-107707626D01*
X155709168Y-107721510D01*
X155726438Y-107737162D01*
X155742090Y-107754432D01*
X155755974Y-107773152D01*
X155767956Y-107793143D01*
X155777921Y-107814213D01*
X155785773Y-107836157D01*
X155791437Y-107858766D01*
X155794856Y-107881821D01*
X155796000Y-107905100D01*
X155796000Y-108480100D01*
X155794856Y-108503379D01*
X155791437Y-108526434D01*
X155785773Y-108549043D01*
X155777921Y-108570987D01*
X155767956Y-108592057D01*
X155755974Y-108612048D01*
X155742090Y-108630768D01*
X155726438Y-108648038D01*
X155709168Y-108663690D01*
X155690448Y-108677574D01*
X155670457Y-108689556D01*
X155649387Y-108699521D01*
X155627443Y-108707373D01*
X155604834Y-108713037D01*
X155581779Y-108716456D01*
X155558500Y-108717600D01*
X155083500Y-108717600D01*
X155060221Y-108716456D01*
X155037166Y-108713037D01*
X155014557Y-108707373D01*
X154992613Y-108699521D01*
X154971543Y-108689556D01*
X154951552Y-108677574D01*
X154932832Y-108663690D01*
X154915562Y-108648038D01*
X154899910Y-108630768D01*
X154886026Y-108612048D01*
X154874044Y-108592057D01*
X154864079Y-108570987D01*
X154856227Y-108549043D01*
X154850563Y-108526434D01*
X154847144Y-108503379D01*
X154846000Y-108480100D01*
X154846000Y-107905100D01*
X154847144Y-107881821D01*
X154850563Y-107858766D01*
X154856227Y-107836157D01*
X154864079Y-107814213D01*
X154874044Y-107793143D01*
X154886026Y-107773152D01*
X154899910Y-107754432D01*
X154915562Y-107737162D01*
X154932832Y-107721510D01*
X154951552Y-107707626D01*
X154971543Y-107695644D01*
X154992613Y-107685679D01*
X155014557Y-107677827D01*
X155037166Y-107672163D01*
X155060221Y-107668744D01*
X155083500Y-107667600D01*
X155558500Y-107667600D01*
X155581779Y-107668744D01*
X155581779Y-107668744D01*
G37*
D12*
G04 #@! TD*
G04 #@! TO.P,C9,2*
G04 #@! TO.N,GND*
X155321000Y-108192600D03*
D11*
G04 #@! TO.N,/V_BAT*
G04 #@! TO.C,C9*
G36*
X155581779Y-109418744D02*
X155604834Y-109422163D01*
X155627443Y-109427827D01*
X155649387Y-109435679D01*
X155670457Y-109445644D01*
X155690448Y-109457626D01*
X155709168Y-109471510D01*
X155726438Y-109487162D01*
X155742090Y-109504432D01*
X155755974Y-109523152D01*
X155767956Y-109543143D01*
X155777921Y-109564213D01*
X155785773Y-109586157D01*
X155791437Y-109608766D01*
X155794856Y-109631821D01*
X155796000Y-109655100D01*
X155796000Y-110230100D01*
X155794856Y-110253379D01*
X155791437Y-110276434D01*
X155785773Y-110299043D01*
X155777921Y-110320987D01*
X155767956Y-110342057D01*
X155755974Y-110362048D01*
X155742090Y-110380768D01*
X155726438Y-110398038D01*
X155709168Y-110413690D01*
X155690448Y-110427574D01*
X155670457Y-110439556D01*
X155649387Y-110449521D01*
X155627443Y-110457373D01*
X155604834Y-110463037D01*
X155581779Y-110466456D01*
X155558500Y-110467600D01*
X155083500Y-110467600D01*
X155060221Y-110466456D01*
X155037166Y-110463037D01*
X155014557Y-110457373D01*
X154992613Y-110449521D01*
X154971543Y-110439556D01*
X154951552Y-110427574D01*
X154932832Y-110413690D01*
X154915562Y-110398038D01*
X154899910Y-110380768D01*
X154886026Y-110362048D01*
X154874044Y-110342057D01*
X154864079Y-110320987D01*
X154856227Y-110299043D01*
X154850563Y-110276434D01*
X154847144Y-110253379D01*
X154846000Y-110230100D01*
X154846000Y-109655100D01*
X154847144Y-109631821D01*
X154850563Y-109608766D01*
X154856227Y-109586157D01*
X154864079Y-109564213D01*
X154874044Y-109543143D01*
X154886026Y-109523152D01*
X154899910Y-109504432D01*
X154915562Y-109487162D01*
X154932832Y-109471510D01*
X154951552Y-109457626D01*
X154971543Y-109445644D01*
X154992613Y-109435679D01*
X155014557Y-109427827D01*
X155037166Y-109422163D01*
X155060221Y-109418744D01*
X155083500Y-109417600D01*
X155558500Y-109417600D01*
X155581779Y-109418744D01*
X155581779Y-109418744D01*
G37*
D12*
G04 #@! TD*
G04 #@! TO.P,C9,1*
G04 #@! TO.N,/V_BAT*
X155321000Y-109942600D03*
D11*
G04 #@! TO.N,/3V3*
G04 #@! TO.C,C10*
G36*
X138131979Y-64742744D02*
X138155034Y-64746163D01*
X138177643Y-64751827D01*
X138199587Y-64759679D01*
X138220657Y-64769644D01*
X138240648Y-64781626D01*
X138259368Y-64795510D01*
X138276638Y-64811162D01*
X138292290Y-64828432D01*
X138306174Y-64847152D01*
X138318156Y-64867143D01*
X138328121Y-64888213D01*
X138335973Y-64910157D01*
X138341637Y-64932766D01*
X138345056Y-64955821D01*
X138346200Y-64979100D01*
X138346200Y-65554100D01*
X138345056Y-65577379D01*
X138341637Y-65600434D01*
X138335973Y-65623043D01*
X138328121Y-65644987D01*
X138318156Y-65666057D01*
X138306174Y-65686048D01*
X138292290Y-65704768D01*
X138276638Y-65722038D01*
X138259368Y-65737690D01*
X138240648Y-65751574D01*
X138220657Y-65763556D01*
X138199587Y-65773521D01*
X138177643Y-65781373D01*
X138155034Y-65787037D01*
X138131979Y-65790456D01*
X138108700Y-65791600D01*
X137633700Y-65791600D01*
X137610421Y-65790456D01*
X137587366Y-65787037D01*
X137564757Y-65781373D01*
X137542813Y-65773521D01*
X137521743Y-65763556D01*
X137501752Y-65751574D01*
X137483032Y-65737690D01*
X137465762Y-65722038D01*
X137450110Y-65704768D01*
X137436226Y-65686048D01*
X137424244Y-65666057D01*
X137414279Y-65644987D01*
X137406427Y-65623043D01*
X137400763Y-65600434D01*
X137397344Y-65577379D01*
X137396200Y-65554100D01*
X137396200Y-64979100D01*
X137397344Y-64955821D01*
X137400763Y-64932766D01*
X137406427Y-64910157D01*
X137414279Y-64888213D01*
X137424244Y-64867143D01*
X137436226Y-64847152D01*
X137450110Y-64828432D01*
X137465762Y-64811162D01*
X137483032Y-64795510D01*
X137501752Y-64781626D01*
X137521743Y-64769644D01*
X137542813Y-64759679D01*
X137564757Y-64751827D01*
X137587366Y-64746163D01*
X137610421Y-64742744D01*
X137633700Y-64741600D01*
X138108700Y-64741600D01*
X138131979Y-64742744D01*
X138131979Y-64742744D01*
G37*
D12*
G04 #@! TD*
G04 #@! TO.P,C10,1*
G04 #@! TO.N,/3V3*
X137871200Y-65266600D03*
D11*
G04 #@! TO.N,GND*
G04 #@! TO.C,C10*
G36*
X138131979Y-66492744D02*
X138155034Y-66496163D01*
X138177643Y-66501827D01*
X138199587Y-66509679D01*
X138220657Y-66519644D01*
X138240648Y-66531626D01*
X138259368Y-66545510D01*
X138276638Y-66561162D01*
X138292290Y-66578432D01*
X138306174Y-66597152D01*
X138318156Y-66617143D01*
X138328121Y-66638213D01*
X138335973Y-66660157D01*
X138341637Y-66682766D01*
X138345056Y-66705821D01*
X138346200Y-66729100D01*
X138346200Y-67304100D01*
X138345056Y-67327379D01*
X138341637Y-67350434D01*
X138335973Y-67373043D01*
X138328121Y-67394987D01*
X138318156Y-67416057D01*
X138306174Y-67436048D01*
X138292290Y-67454768D01*
X138276638Y-67472038D01*
X138259368Y-67487690D01*
X138240648Y-67501574D01*
X138220657Y-67513556D01*
X138199587Y-67523521D01*
X138177643Y-67531373D01*
X138155034Y-67537037D01*
X138131979Y-67540456D01*
X138108700Y-67541600D01*
X137633700Y-67541600D01*
X137610421Y-67540456D01*
X137587366Y-67537037D01*
X137564757Y-67531373D01*
X137542813Y-67523521D01*
X137521743Y-67513556D01*
X137501752Y-67501574D01*
X137483032Y-67487690D01*
X137465762Y-67472038D01*
X137450110Y-67454768D01*
X137436226Y-67436048D01*
X137424244Y-67416057D01*
X137414279Y-67394987D01*
X137406427Y-67373043D01*
X137400763Y-67350434D01*
X137397344Y-67327379D01*
X137396200Y-67304100D01*
X137396200Y-66729100D01*
X137397344Y-66705821D01*
X137400763Y-66682766D01*
X137406427Y-66660157D01*
X137414279Y-66638213D01*
X137424244Y-66617143D01*
X137436226Y-66597152D01*
X137450110Y-66578432D01*
X137465762Y-66561162D01*
X137483032Y-66545510D01*
X137501752Y-66531626D01*
X137521743Y-66519644D01*
X137542813Y-66509679D01*
X137564757Y-66501827D01*
X137587366Y-66496163D01*
X137610421Y-66492744D01*
X137633700Y-66491600D01*
X138108700Y-66491600D01*
X138131979Y-66492744D01*
X138131979Y-66492744D01*
G37*
D12*
G04 #@! TD*
G04 #@! TO.P,C10,2*
G04 #@! TO.N,GND*
X137871200Y-67016600D03*
D11*
G04 #@! TO.N,/3V3*
G04 #@! TO.C,C11*
G36*
X135958179Y-56980944D02*
X135981234Y-56984363D01*
X136003843Y-56990027D01*
X136025787Y-56997879D01*
X136046857Y-57007844D01*
X136066848Y-57019826D01*
X136085568Y-57033710D01*
X136102838Y-57049362D01*
X136118490Y-57066632D01*
X136132374Y-57085352D01*
X136144356Y-57105343D01*
X136154321Y-57126413D01*
X136162173Y-57148357D01*
X136167837Y-57170966D01*
X136171256Y-57194021D01*
X136172400Y-57217300D01*
X136172400Y-57692300D01*
X136171256Y-57715579D01*
X136167837Y-57738634D01*
X136162173Y-57761243D01*
X136154321Y-57783187D01*
X136144356Y-57804257D01*
X136132374Y-57824248D01*
X136118490Y-57842968D01*
X136102838Y-57860238D01*
X136085568Y-57875890D01*
X136066848Y-57889774D01*
X136046857Y-57901756D01*
X136025787Y-57911721D01*
X136003843Y-57919573D01*
X135981234Y-57925237D01*
X135958179Y-57928656D01*
X135934900Y-57929800D01*
X135359900Y-57929800D01*
X135336621Y-57928656D01*
X135313566Y-57925237D01*
X135290957Y-57919573D01*
X135269013Y-57911721D01*
X135247943Y-57901756D01*
X135227952Y-57889774D01*
X135209232Y-57875890D01*
X135191962Y-57860238D01*
X135176310Y-57842968D01*
X135162426Y-57824248D01*
X135150444Y-57804257D01*
X135140479Y-57783187D01*
X135132627Y-57761243D01*
X135126963Y-57738634D01*
X135123544Y-57715579D01*
X135122400Y-57692300D01*
X135122400Y-57217300D01*
X135123544Y-57194021D01*
X135126963Y-57170966D01*
X135132627Y-57148357D01*
X135140479Y-57126413D01*
X135150444Y-57105343D01*
X135162426Y-57085352D01*
X135176310Y-57066632D01*
X135191962Y-57049362D01*
X135209232Y-57033710D01*
X135227952Y-57019826D01*
X135247943Y-57007844D01*
X135269013Y-56997879D01*
X135290957Y-56990027D01*
X135313566Y-56984363D01*
X135336621Y-56980944D01*
X135359900Y-56979800D01*
X135934900Y-56979800D01*
X135958179Y-56980944D01*
X135958179Y-56980944D01*
G37*
D12*
G04 #@! TD*
G04 #@! TO.P,C11,1*
G04 #@! TO.N,/3V3*
X135647400Y-57454800D03*
D11*
G04 #@! TO.N,GND*
G04 #@! TO.C,C11*
G36*
X134208179Y-56980944D02*
X134231234Y-56984363D01*
X134253843Y-56990027D01*
X134275787Y-56997879D01*
X134296857Y-57007844D01*
X134316848Y-57019826D01*
X134335568Y-57033710D01*
X134352838Y-57049362D01*
X134368490Y-57066632D01*
X134382374Y-57085352D01*
X134394356Y-57105343D01*
X134404321Y-57126413D01*
X134412173Y-57148357D01*
X134417837Y-57170966D01*
X134421256Y-57194021D01*
X134422400Y-57217300D01*
X134422400Y-57692300D01*
X134421256Y-57715579D01*
X134417837Y-57738634D01*
X134412173Y-57761243D01*
X134404321Y-57783187D01*
X134394356Y-57804257D01*
X134382374Y-57824248D01*
X134368490Y-57842968D01*
X134352838Y-57860238D01*
X134335568Y-57875890D01*
X134316848Y-57889774D01*
X134296857Y-57901756D01*
X134275787Y-57911721D01*
X134253843Y-57919573D01*
X134231234Y-57925237D01*
X134208179Y-57928656D01*
X134184900Y-57929800D01*
X133609900Y-57929800D01*
X133586621Y-57928656D01*
X133563566Y-57925237D01*
X133540957Y-57919573D01*
X133519013Y-57911721D01*
X133497943Y-57901756D01*
X133477952Y-57889774D01*
X133459232Y-57875890D01*
X133441962Y-57860238D01*
X133426310Y-57842968D01*
X133412426Y-57824248D01*
X133400444Y-57804257D01*
X133390479Y-57783187D01*
X133382627Y-57761243D01*
X133376963Y-57738634D01*
X133373544Y-57715579D01*
X133372400Y-57692300D01*
X133372400Y-57217300D01*
X133373544Y-57194021D01*
X133376963Y-57170966D01*
X133382627Y-57148357D01*
X133390479Y-57126413D01*
X133400444Y-57105343D01*
X133412426Y-57085352D01*
X133426310Y-57066632D01*
X133441962Y-57049362D01*
X133459232Y-57033710D01*
X133477952Y-57019826D01*
X133497943Y-57007844D01*
X133519013Y-56997879D01*
X133540957Y-56990027D01*
X133563566Y-56984363D01*
X133586621Y-56980944D01*
X133609900Y-56979800D01*
X134184900Y-56979800D01*
X134208179Y-56980944D01*
X134208179Y-56980944D01*
G37*
D12*
G04 #@! TD*
G04 #@! TO.P,C11,2*
G04 #@! TO.N,GND*
X133897400Y-57454800D03*
D11*
G04 #@! TO.N,GND*
G04 #@! TO.C,C12*
G36*
X151110779Y-101126144D02*
X151133834Y-101129563D01*
X151156443Y-101135227D01*
X151178387Y-101143079D01*
X151199457Y-101153044D01*
X151219448Y-101165026D01*
X151238168Y-101178910D01*
X151255438Y-101194562D01*
X151271090Y-101211832D01*
X151284974Y-101230552D01*
X151296956Y-101250543D01*
X151306921Y-101271613D01*
X151314773Y-101293557D01*
X151320437Y-101316166D01*
X151323856Y-101339221D01*
X151325000Y-101362500D01*
X151325000Y-101837500D01*
X151323856Y-101860779D01*
X151320437Y-101883834D01*
X151314773Y-101906443D01*
X151306921Y-101928387D01*
X151296956Y-101949457D01*
X151284974Y-101969448D01*
X151271090Y-101988168D01*
X151255438Y-102005438D01*
X151238168Y-102021090D01*
X151219448Y-102034974D01*
X151199457Y-102046956D01*
X151178387Y-102056921D01*
X151156443Y-102064773D01*
X151133834Y-102070437D01*
X151110779Y-102073856D01*
X151087500Y-102075000D01*
X150512500Y-102075000D01*
X150489221Y-102073856D01*
X150466166Y-102070437D01*
X150443557Y-102064773D01*
X150421613Y-102056921D01*
X150400543Y-102046956D01*
X150380552Y-102034974D01*
X150361832Y-102021090D01*
X150344562Y-102005438D01*
X150328910Y-101988168D01*
X150315026Y-101969448D01*
X150303044Y-101949457D01*
X150293079Y-101928387D01*
X150285227Y-101906443D01*
X150279563Y-101883834D01*
X150276144Y-101860779D01*
X150275000Y-101837500D01*
X150275000Y-101362500D01*
X150276144Y-101339221D01*
X150279563Y-101316166D01*
X150285227Y-101293557D01*
X150293079Y-101271613D01*
X150303044Y-101250543D01*
X150315026Y-101230552D01*
X150328910Y-101211832D01*
X150344562Y-101194562D01*
X150361832Y-101178910D01*
X150380552Y-101165026D01*
X150400543Y-101153044D01*
X150421613Y-101143079D01*
X150443557Y-101135227D01*
X150466166Y-101129563D01*
X150489221Y-101126144D01*
X150512500Y-101125000D01*
X151087500Y-101125000D01*
X151110779Y-101126144D01*
X151110779Y-101126144D01*
G37*
D12*
G04 #@! TD*
G04 #@! TO.P,C12,1*
G04 #@! TO.N,GND*
X150800000Y-101600000D03*
D11*
G04 #@! TO.N,/V_IN*
G04 #@! TO.C,C12*
G36*
X152860779Y-101126144D02*
X152883834Y-101129563D01*
X152906443Y-101135227D01*
X152928387Y-101143079D01*
X152949457Y-101153044D01*
X152969448Y-101165026D01*
X152988168Y-101178910D01*
X153005438Y-101194562D01*
X153021090Y-101211832D01*
X153034974Y-101230552D01*
X153046956Y-101250543D01*
X153056921Y-101271613D01*
X153064773Y-101293557D01*
X153070437Y-101316166D01*
X153073856Y-101339221D01*
X153075000Y-101362500D01*
X153075000Y-101837500D01*
X153073856Y-101860779D01*
X153070437Y-101883834D01*
X153064773Y-101906443D01*
X153056921Y-101928387D01*
X153046956Y-101949457D01*
X153034974Y-101969448D01*
X153021090Y-101988168D01*
X153005438Y-102005438D01*
X152988168Y-102021090D01*
X152969448Y-102034974D01*
X152949457Y-102046956D01*
X152928387Y-102056921D01*
X152906443Y-102064773D01*
X152883834Y-102070437D01*
X152860779Y-102073856D01*
X152837500Y-102075000D01*
X152262500Y-102075000D01*
X152239221Y-102073856D01*
X152216166Y-102070437D01*
X152193557Y-102064773D01*
X152171613Y-102056921D01*
X152150543Y-102046956D01*
X152130552Y-102034974D01*
X152111832Y-102021090D01*
X152094562Y-102005438D01*
X152078910Y-101988168D01*
X152065026Y-101969448D01*
X152053044Y-101949457D01*
X152043079Y-101928387D01*
X152035227Y-101906443D01*
X152029563Y-101883834D01*
X152026144Y-101860779D01*
X152025000Y-101837500D01*
X152025000Y-101362500D01*
X152026144Y-101339221D01*
X152029563Y-101316166D01*
X152035227Y-101293557D01*
X152043079Y-101271613D01*
X152053044Y-101250543D01*
X152065026Y-101230552D01*
X152078910Y-101211832D01*
X152094562Y-101194562D01*
X152111832Y-101178910D01*
X152130552Y-101165026D01*
X152150543Y-101153044D01*
X152171613Y-101143079D01*
X152193557Y-101135227D01*
X152216166Y-101129563D01*
X152239221Y-101126144D01*
X152262500Y-101125000D01*
X152837500Y-101125000D01*
X152860779Y-101126144D01*
X152860779Y-101126144D01*
G37*
D12*
G04 #@! TD*
G04 #@! TO.P,C12,2*
G04 #@! TO.N,/V_IN*
X152550000Y-101600000D03*
D17*
G04 #@! TO.P,D1,2*
G04 #@! TO.N,Net-(D1-Pad2)*
X159232600Y-64008000D03*
D18*
G04 #@! TO.P,D1,1*
G04 #@! TO.N,Net-(D1-Pad1)*
X156692600Y-64008000D03*
G04 #@! TD*
D19*
G04 #@! TO.P,D6,2*
G04 #@! TO.N,/V_USB*
X149783800Y-113949800D03*
G04 #@! TO.P,D6,1*
G04 #@! TO.N,/V_IN*
X149783800Y-111449800D03*
G04 #@! TD*
D20*
G04 #@! TO.P,J1,1*
G04 #@! TO.N,GND*
X156667200Y-124587000D03*
D21*
G04 #@! TO.P,J1,2*
X156667200Y-122047000D03*
G04 #@! TO.P,J1,3*
X154127200Y-124587000D03*
G04 #@! TO.P,J1,4*
G04 #@! TO.N,/V_USB*
X154127200Y-122047000D03*
G04 #@! TO.P,J1,5*
G04 #@! TO.N,/V_BAT*
X151587200Y-124587000D03*
G04 #@! TO.P,J1,6*
G04 #@! TO.N,/TXD*
X151587200Y-122047000D03*
G04 #@! TO.P,J1,7*
G04 #@! TO.N,/3V3*
X149047200Y-124587000D03*
G04 #@! TO.P,J1,8*
G04 #@! TO.N,/RXD*
X149047200Y-122047000D03*
G04 #@! TO.P,J1,9*
G04 #@! TO.N,/ZERO_DETECT*
X146507200Y-124587000D03*
G04 #@! TO.P,J1,10*
G04 #@! TO.N,/RELAY_4*
X146507200Y-122047000D03*
G04 #@! TO.P,J1,11*
G04 #@! TO.N,/I2S_WS*
X143967200Y-124587000D03*
G04 #@! TO.P,J1,12*
G04 #@! TO.N,/RELAY_3*
X143967200Y-122047000D03*
G04 #@! TO.P,J1,13*
G04 #@! TO.N,/I2S_BCLK*
X141427200Y-124587000D03*
G04 #@! TO.P,J1,14*
G04 #@! TO.N,/RELAY_2*
X141427200Y-122047000D03*
G04 #@! TO.P,J1,15*
G04 #@! TO.N,/PROG*
X138887200Y-124587000D03*
G04 #@! TO.P,J1,16*
G04 #@! TO.N,/RELAY_1*
X138887200Y-122047000D03*
G04 #@! TD*
D22*
G04 #@! TO.P,LS1,1*
G04 #@! TO.N,Net-(LS1-Pad1)*
X146253200Y-116828400D03*
G04 #@! TO.P,LS1,2*
G04 #@! TO.N,Net-(LS1-Pad2)*
X146253200Y-109228400D03*
G04 #@! TD*
D16*
G04 #@! TO.P,Q4,3*
G04 #@! TO.N,/V_BAT*
X150418800Y-118246400D03*
G04 #@! TO.P,Q4,2*
G04 #@! TO.N,/V_IN*
X151368800Y-116246400D03*
G04 #@! TO.P,Q4,1*
G04 #@! TO.N,/V_USB*
X149468800Y-116246400D03*
G04 #@! TD*
D11*
G04 #@! TO.N,Net-(R1-Pad1)*
G04 #@! TO.C,R1*
G36*
X158660779Y-92356144D02*
X158683834Y-92359563D01*
X158706443Y-92365227D01*
X158728387Y-92373079D01*
X158749457Y-92383044D01*
X158769448Y-92395026D01*
X158788168Y-92408910D01*
X158805438Y-92424562D01*
X158821090Y-92441832D01*
X158834974Y-92460552D01*
X158846956Y-92480543D01*
X158856921Y-92501613D01*
X158864773Y-92523557D01*
X158870437Y-92546166D01*
X158873856Y-92569221D01*
X158875000Y-92592500D01*
X158875000Y-93067500D01*
X158873856Y-93090779D01*
X158870437Y-93113834D01*
X158864773Y-93136443D01*
X158856921Y-93158387D01*
X158846956Y-93179457D01*
X158834974Y-93199448D01*
X158821090Y-93218168D01*
X158805438Y-93235438D01*
X158788168Y-93251090D01*
X158769448Y-93264974D01*
X158749457Y-93276956D01*
X158728387Y-93286921D01*
X158706443Y-93294773D01*
X158683834Y-93300437D01*
X158660779Y-93303856D01*
X158637500Y-93305000D01*
X158062500Y-93305000D01*
X158039221Y-93303856D01*
X158016166Y-93300437D01*
X157993557Y-93294773D01*
X157971613Y-93286921D01*
X157950543Y-93276956D01*
X157930552Y-93264974D01*
X157911832Y-93251090D01*
X157894562Y-93235438D01*
X157878910Y-93218168D01*
X157865026Y-93199448D01*
X157853044Y-93179457D01*
X157843079Y-93158387D01*
X157835227Y-93136443D01*
X157829563Y-93113834D01*
X157826144Y-93090779D01*
X157825000Y-93067500D01*
X157825000Y-92592500D01*
X157826144Y-92569221D01*
X157829563Y-92546166D01*
X157835227Y-92523557D01*
X157843079Y-92501613D01*
X157853044Y-92480543D01*
X157865026Y-92460552D01*
X157878910Y-92441832D01*
X157894562Y-92424562D01*
X157911832Y-92408910D01*
X157930552Y-92395026D01*
X157950543Y-92383044D01*
X157971613Y-92373079D01*
X157993557Y-92365227D01*
X158016166Y-92359563D01*
X158039221Y-92356144D01*
X158062500Y-92355000D01*
X158637500Y-92355000D01*
X158660779Y-92356144D01*
X158660779Y-92356144D01*
G37*
D12*
G04 #@! TD*
G04 #@! TO.P,R1,1*
G04 #@! TO.N,Net-(R1-Pad1)*
X158350000Y-92830000D03*
D11*
G04 #@! TO.N,/I2S_BCLK*
G04 #@! TO.C,R1*
G36*
X160410779Y-92356144D02*
X160433834Y-92359563D01*
X160456443Y-92365227D01*
X160478387Y-92373079D01*
X160499457Y-92383044D01*
X160519448Y-92395026D01*
X160538168Y-92408910D01*
X160555438Y-92424562D01*
X160571090Y-92441832D01*
X160584974Y-92460552D01*
X160596956Y-92480543D01*
X160606921Y-92501613D01*
X160614773Y-92523557D01*
X160620437Y-92546166D01*
X160623856Y-92569221D01*
X160625000Y-92592500D01*
X160625000Y-93067500D01*
X160623856Y-93090779D01*
X160620437Y-93113834D01*
X160614773Y-93136443D01*
X160606921Y-93158387D01*
X160596956Y-93179457D01*
X160584974Y-93199448D01*
X160571090Y-93218168D01*
X160555438Y-93235438D01*
X160538168Y-93251090D01*
X160519448Y-93264974D01*
X160499457Y-93276956D01*
X160478387Y-93286921D01*
X160456443Y-93294773D01*
X160433834Y-93300437D01*
X160410779Y-93303856D01*
X160387500Y-93305000D01*
X159812500Y-93305000D01*
X159789221Y-93303856D01*
X159766166Y-93300437D01*
X159743557Y-93294773D01*
X159721613Y-93286921D01*
X159700543Y-93276956D01*
X159680552Y-93264974D01*
X159661832Y-93251090D01*
X159644562Y-93235438D01*
X159628910Y-93218168D01*
X159615026Y-93199448D01*
X159603044Y-93179457D01*
X159593079Y-93158387D01*
X159585227Y-93136443D01*
X159579563Y-93113834D01*
X159576144Y-93090779D01*
X159575000Y-93067500D01*
X159575000Y-92592500D01*
X159576144Y-92569221D01*
X159579563Y-92546166D01*
X159585227Y-92523557D01*
X159593079Y-92501613D01*
X159603044Y-92480543D01*
X159615026Y-92460552D01*
X159628910Y-92441832D01*
X159644562Y-92424562D01*
X159661832Y-92408910D01*
X159680552Y-92395026D01*
X159700543Y-92383044D01*
X159721613Y-92373079D01*
X159743557Y-92365227D01*
X159766166Y-92359563D01*
X159789221Y-92356144D01*
X159812500Y-92355000D01*
X160387500Y-92355000D01*
X160410779Y-92356144D01*
X160410779Y-92356144D01*
G37*
D12*
G04 #@! TD*
G04 #@! TO.P,R1,2*
G04 #@! TO.N,/I2S_BCLK*
X160100000Y-92830000D03*
D11*
G04 #@! TO.N,/SCL*
G04 #@! TO.C,R2*
G36*
X136201579Y-66492744D02*
X136224634Y-66496163D01*
X136247243Y-66501827D01*
X136269187Y-66509679D01*
X136290257Y-66519644D01*
X136310248Y-66531626D01*
X136328968Y-66545510D01*
X136346238Y-66561162D01*
X136361890Y-66578432D01*
X136375774Y-66597152D01*
X136387756Y-66617143D01*
X136397721Y-66638213D01*
X136405573Y-66660157D01*
X136411237Y-66682766D01*
X136414656Y-66705821D01*
X136415800Y-66729100D01*
X136415800Y-67304100D01*
X136414656Y-67327379D01*
X136411237Y-67350434D01*
X136405573Y-67373043D01*
X136397721Y-67394987D01*
X136387756Y-67416057D01*
X136375774Y-67436048D01*
X136361890Y-67454768D01*
X136346238Y-67472038D01*
X136328968Y-67487690D01*
X136310248Y-67501574D01*
X136290257Y-67513556D01*
X136269187Y-67523521D01*
X136247243Y-67531373D01*
X136224634Y-67537037D01*
X136201579Y-67540456D01*
X136178300Y-67541600D01*
X135703300Y-67541600D01*
X135680021Y-67540456D01*
X135656966Y-67537037D01*
X135634357Y-67531373D01*
X135612413Y-67523521D01*
X135591343Y-67513556D01*
X135571352Y-67501574D01*
X135552632Y-67487690D01*
X135535362Y-67472038D01*
X135519710Y-67454768D01*
X135505826Y-67436048D01*
X135493844Y-67416057D01*
X135483879Y-67394987D01*
X135476027Y-67373043D01*
X135470363Y-67350434D01*
X135466944Y-67327379D01*
X135465800Y-67304100D01*
X135465800Y-66729100D01*
X135466944Y-66705821D01*
X135470363Y-66682766D01*
X135476027Y-66660157D01*
X135483879Y-66638213D01*
X135493844Y-66617143D01*
X135505826Y-66597152D01*
X135519710Y-66578432D01*
X135535362Y-66561162D01*
X135552632Y-66545510D01*
X135571352Y-66531626D01*
X135591343Y-66519644D01*
X135612413Y-66509679D01*
X135634357Y-66501827D01*
X135656966Y-66496163D01*
X135680021Y-66492744D01*
X135703300Y-66491600D01*
X136178300Y-66491600D01*
X136201579Y-66492744D01*
X136201579Y-66492744D01*
G37*
D12*
G04 #@! TD*
G04 #@! TO.P,R2,2*
G04 #@! TO.N,/SCL*
X135940800Y-67016600D03*
D11*
G04 #@! TO.N,/3V3*
G04 #@! TO.C,R2*
G36*
X136201579Y-64742744D02*
X136224634Y-64746163D01*
X136247243Y-64751827D01*
X136269187Y-64759679D01*
X136290257Y-64769644D01*
X136310248Y-64781626D01*
X136328968Y-64795510D01*
X136346238Y-64811162D01*
X136361890Y-64828432D01*
X136375774Y-64847152D01*
X136387756Y-64867143D01*
X136397721Y-64888213D01*
X136405573Y-64910157D01*
X136411237Y-64932766D01*
X136414656Y-64955821D01*
X136415800Y-64979100D01*
X136415800Y-65554100D01*
X136414656Y-65577379D01*
X136411237Y-65600434D01*
X136405573Y-65623043D01*
X136397721Y-65644987D01*
X136387756Y-65666057D01*
X136375774Y-65686048D01*
X136361890Y-65704768D01*
X136346238Y-65722038D01*
X136328968Y-65737690D01*
X136310248Y-65751574D01*
X136290257Y-65763556D01*
X136269187Y-65773521D01*
X136247243Y-65781373D01*
X136224634Y-65787037D01*
X136201579Y-65790456D01*
X136178300Y-65791600D01*
X135703300Y-65791600D01*
X135680021Y-65790456D01*
X135656966Y-65787037D01*
X135634357Y-65781373D01*
X135612413Y-65773521D01*
X135591343Y-65763556D01*
X135571352Y-65751574D01*
X135552632Y-65737690D01*
X135535362Y-65722038D01*
X135519710Y-65704768D01*
X135505826Y-65686048D01*
X135493844Y-65666057D01*
X135483879Y-65644987D01*
X135476027Y-65623043D01*
X135470363Y-65600434D01*
X135466944Y-65577379D01*
X135465800Y-65554100D01*
X135465800Y-64979100D01*
X135466944Y-64955821D01*
X135470363Y-64932766D01*
X135476027Y-64910157D01*
X135483879Y-64888213D01*
X135493844Y-64867143D01*
X135505826Y-64847152D01*
X135519710Y-64828432D01*
X135535362Y-64811162D01*
X135552632Y-64795510D01*
X135571352Y-64781626D01*
X135591343Y-64769644D01*
X135612413Y-64759679D01*
X135634357Y-64751827D01*
X135656966Y-64746163D01*
X135680021Y-64742744D01*
X135703300Y-64741600D01*
X136178300Y-64741600D01*
X136201579Y-64742744D01*
X136201579Y-64742744D01*
G37*
D12*
G04 #@! TD*
G04 #@! TO.P,R2,1*
G04 #@! TO.N,/3V3*
X135940800Y-65266600D03*
D11*
G04 #@! TO.N,/IR_RX*
G04 #@! TO.C,R3*
G36*
X157423779Y-60740144D02*
X157446834Y-60743563D01*
X157469443Y-60749227D01*
X157491387Y-60757079D01*
X157512457Y-60767044D01*
X157532448Y-60779026D01*
X157551168Y-60792910D01*
X157568438Y-60808562D01*
X157584090Y-60825832D01*
X157597974Y-60844552D01*
X157609956Y-60864543D01*
X157619921Y-60885613D01*
X157627773Y-60907557D01*
X157633437Y-60930166D01*
X157636856Y-60953221D01*
X157638000Y-60976500D01*
X157638000Y-61451500D01*
X157636856Y-61474779D01*
X157633437Y-61497834D01*
X157627773Y-61520443D01*
X157619921Y-61542387D01*
X157609956Y-61563457D01*
X157597974Y-61583448D01*
X157584090Y-61602168D01*
X157568438Y-61619438D01*
X157551168Y-61635090D01*
X157532448Y-61648974D01*
X157512457Y-61660956D01*
X157491387Y-61670921D01*
X157469443Y-61678773D01*
X157446834Y-61684437D01*
X157423779Y-61687856D01*
X157400500Y-61689000D01*
X156825500Y-61689000D01*
X156802221Y-61687856D01*
X156779166Y-61684437D01*
X156756557Y-61678773D01*
X156734613Y-61670921D01*
X156713543Y-61660956D01*
X156693552Y-61648974D01*
X156674832Y-61635090D01*
X156657562Y-61619438D01*
X156641910Y-61602168D01*
X156628026Y-61583448D01*
X156616044Y-61563457D01*
X156606079Y-61542387D01*
X156598227Y-61520443D01*
X156592563Y-61497834D01*
X156589144Y-61474779D01*
X156588000Y-61451500D01*
X156588000Y-60976500D01*
X156589144Y-60953221D01*
X156592563Y-60930166D01*
X156598227Y-60907557D01*
X156606079Y-60885613D01*
X156616044Y-60864543D01*
X156628026Y-60844552D01*
X156641910Y-60825832D01*
X156657562Y-60808562D01*
X156674832Y-60792910D01*
X156693552Y-60779026D01*
X156713543Y-60767044D01*
X156734613Y-60757079D01*
X156756557Y-60749227D01*
X156779166Y-60743563D01*
X156802221Y-60740144D01*
X156825500Y-60739000D01*
X157400500Y-60739000D01*
X157423779Y-60740144D01*
X157423779Y-60740144D01*
G37*
D12*
G04 #@! TD*
G04 #@! TO.P,R3,1*
G04 #@! TO.N,/IR_RX*
X157113000Y-61214000D03*
D11*
G04 #@! TO.N,Net-(R3-Pad2)*
G04 #@! TO.C,R3*
G36*
X159173779Y-60740144D02*
X159196834Y-60743563D01*
X159219443Y-60749227D01*
X159241387Y-60757079D01*
X159262457Y-60767044D01*
X159282448Y-60779026D01*
X159301168Y-60792910D01*
X159318438Y-60808562D01*
X159334090Y-60825832D01*
X159347974Y-60844552D01*
X159359956Y-60864543D01*
X159369921Y-60885613D01*
X159377773Y-60907557D01*
X159383437Y-60930166D01*
X159386856Y-60953221D01*
X159388000Y-60976500D01*
X159388000Y-61451500D01*
X159386856Y-61474779D01*
X159383437Y-61497834D01*
X159377773Y-61520443D01*
X159369921Y-61542387D01*
X159359956Y-61563457D01*
X159347974Y-61583448D01*
X159334090Y-61602168D01*
X159318438Y-61619438D01*
X159301168Y-61635090D01*
X159282448Y-61648974D01*
X159262457Y-61660956D01*
X159241387Y-61670921D01*
X159219443Y-61678773D01*
X159196834Y-61684437D01*
X159173779Y-61687856D01*
X159150500Y-61689000D01*
X158575500Y-61689000D01*
X158552221Y-61687856D01*
X158529166Y-61684437D01*
X158506557Y-61678773D01*
X158484613Y-61670921D01*
X158463543Y-61660956D01*
X158443552Y-61648974D01*
X158424832Y-61635090D01*
X158407562Y-61619438D01*
X158391910Y-61602168D01*
X158378026Y-61583448D01*
X158366044Y-61563457D01*
X158356079Y-61542387D01*
X158348227Y-61520443D01*
X158342563Y-61497834D01*
X158339144Y-61474779D01*
X158338000Y-61451500D01*
X158338000Y-60976500D01*
X158339144Y-60953221D01*
X158342563Y-60930166D01*
X158348227Y-60907557D01*
X158356079Y-60885613D01*
X158366044Y-60864543D01*
X158378026Y-60844552D01*
X158391910Y-60825832D01*
X158407562Y-60808562D01*
X158424832Y-60792910D01*
X158443552Y-60779026D01*
X158463543Y-60767044D01*
X158484613Y-60757079D01*
X158506557Y-60749227D01*
X158529166Y-60743563D01*
X158552221Y-60740144D01*
X158575500Y-60739000D01*
X159150500Y-60739000D01*
X159173779Y-60740144D01*
X159173779Y-60740144D01*
G37*
D12*
G04 #@! TD*
G04 #@! TO.P,R3,2*
G04 #@! TO.N,Net-(R3-Pad2)*
X158863000Y-61214000D03*
D11*
G04 #@! TO.N,/IR_TX*
G04 #@! TO.C,R4*
G36*
X153715379Y-70849344D02*
X153738434Y-70852763D01*
X153761043Y-70858427D01*
X153782987Y-70866279D01*
X153804057Y-70876244D01*
X153824048Y-70888226D01*
X153842768Y-70902110D01*
X153860038Y-70917762D01*
X153875690Y-70935032D01*
X153889574Y-70953752D01*
X153901556Y-70973743D01*
X153911521Y-70994813D01*
X153919373Y-71016757D01*
X153925037Y-71039366D01*
X153928456Y-71062421D01*
X153929600Y-71085700D01*
X153929600Y-71560700D01*
X153928456Y-71583979D01*
X153925037Y-71607034D01*
X153919373Y-71629643D01*
X153911521Y-71651587D01*
X153901556Y-71672657D01*
X153889574Y-71692648D01*
X153875690Y-71711368D01*
X153860038Y-71728638D01*
X153842768Y-71744290D01*
X153824048Y-71758174D01*
X153804057Y-71770156D01*
X153782987Y-71780121D01*
X153761043Y-71787973D01*
X153738434Y-71793637D01*
X153715379Y-71797056D01*
X153692100Y-71798200D01*
X153117100Y-71798200D01*
X153093821Y-71797056D01*
X153070766Y-71793637D01*
X153048157Y-71787973D01*
X153026213Y-71780121D01*
X153005143Y-71770156D01*
X152985152Y-71758174D01*
X152966432Y-71744290D01*
X152949162Y-71728638D01*
X152933510Y-71711368D01*
X152919626Y-71692648D01*
X152907644Y-71672657D01*
X152897679Y-71651587D01*
X152889827Y-71629643D01*
X152884163Y-71607034D01*
X152880744Y-71583979D01*
X152879600Y-71560700D01*
X152879600Y-71085700D01*
X152880744Y-71062421D01*
X152884163Y-71039366D01*
X152889827Y-71016757D01*
X152897679Y-70994813D01*
X152907644Y-70973743D01*
X152919626Y-70953752D01*
X152933510Y-70935032D01*
X152949162Y-70917762D01*
X152966432Y-70902110D01*
X152985152Y-70888226D01*
X153005143Y-70876244D01*
X153026213Y-70866279D01*
X153048157Y-70858427D01*
X153070766Y-70852763D01*
X153093821Y-70849344D01*
X153117100Y-70848200D01*
X153692100Y-70848200D01*
X153715379Y-70849344D01*
X153715379Y-70849344D01*
G37*
D12*
G04 #@! TD*
G04 #@! TO.P,R4,2*
G04 #@! TO.N,/IR_TX*
X153404600Y-71323200D03*
D11*
G04 #@! TO.N,Net-(Q1-Pad1)*
G04 #@! TO.C,R4*
G36*
X155465379Y-70849344D02*
X155488434Y-70852763D01*
X155511043Y-70858427D01*
X155532987Y-70866279D01*
X155554057Y-70876244D01*
X155574048Y-70888226D01*
X155592768Y-70902110D01*
X155610038Y-70917762D01*
X155625690Y-70935032D01*
X155639574Y-70953752D01*
X155651556Y-70973743D01*
X155661521Y-70994813D01*
X155669373Y-71016757D01*
X155675037Y-71039366D01*
X155678456Y-71062421D01*
X155679600Y-71085700D01*
X155679600Y-71560700D01*
X155678456Y-71583979D01*
X155675037Y-71607034D01*
X155669373Y-71629643D01*
X155661521Y-71651587D01*
X155651556Y-71672657D01*
X155639574Y-71692648D01*
X155625690Y-71711368D01*
X155610038Y-71728638D01*
X155592768Y-71744290D01*
X155574048Y-71758174D01*
X155554057Y-71770156D01*
X155532987Y-71780121D01*
X155511043Y-71787973D01*
X155488434Y-71793637D01*
X155465379Y-71797056D01*
X155442100Y-71798200D01*
X154867100Y-71798200D01*
X154843821Y-71797056D01*
X154820766Y-71793637D01*
X154798157Y-71787973D01*
X154776213Y-71780121D01*
X154755143Y-71770156D01*
X154735152Y-71758174D01*
X154716432Y-71744290D01*
X154699162Y-71728638D01*
X154683510Y-71711368D01*
X154669626Y-71692648D01*
X154657644Y-71672657D01*
X154647679Y-71651587D01*
X154639827Y-71629643D01*
X154634163Y-71607034D01*
X154630744Y-71583979D01*
X154629600Y-71560700D01*
X154629600Y-71085700D01*
X154630744Y-71062421D01*
X154634163Y-71039366D01*
X154639827Y-71016757D01*
X154647679Y-70994813D01*
X154657644Y-70973743D01*
X154669626Y-70953752D01*
X154683510Y-70935032D01*
X154699162Y-70917762D01*
X154716432Y-70902110D01*
X154735152Y-70888226D01*
X154755143Y-70876244D01*
X154776213Y-70866279D01*
X154798157Y-70858427D01*
X154820766Y-70852763D01*
X154843821Y-70849344D01*
X154867100Y-70848200D01*
X155442100Y-70848200D01*
X155465379Y-70849344D01*
X155465379Y-70849344D01*
G37*
D12*
G04 #@! TD*
G04 #@! TO.P,R4,1*
G04 #@! TO.N,Net-(Q1-Pad1)*
X155154600Y-71323200D03*
D11*
G04 #@! TO.N,Net-(D1-Pad2)*
G04 #@! TO.C,R5*
G36*
X158693779Y-68614144D02*
X158716834Y-68617563D01*
X158739443Y-68623227D01*
X158761387Y-68631079D01*
X158782457Y-68641044D01*
X158802448Y-68653026D01*
X158821168Y-68666910D01*
X158838438Y-68682562D01*
X158854090Y-68699832D01*
X158867974Y-68718552D01*
X158879956Y-68738543D01*
X158889921Y-68759613D01*
X158897773Y-68781557D01*
X158903437Y-68804166D01*
X158906856Y-68827221D01*
X158908000Y-68850500D01*
X158908000Y-69325500D01*
X158906856Y-69348779D01*
X158903437Y-69371834D01*
X158897773Y-69394443D01*
X158889921Y-69416387D01*
X158879956Y-69437457D01*
X158867974Y-69457448D01*
X158854090Y-69476168D01*
X158838438Y-69493438D01*
X158821168Y-69509090D01*
X158802448Y-69522974D01*
X158782457Y-69534956D01*
X158761387Y-69544921D01*
X158739443Y-69552773D01*
X158716834Y-69558437D01*
X158693779Y-69561856D01*
X158670500Y-69563000D01*
X158095500Y-69563000D01*
X158072221Y-69561856D01*
X158049166Y-69558437D01*
X158026557Y-69552773D01*
X158004613Y-69544921D01*
X157983543Y-69534956D01*
X157963552Y-69522974D01*
X157944832Y-69509090D01*
X157927562Y-69493438D01*
X157911910Y-69476168D01*
X157898026Y-69457448D01*
X157886044Y-69437457D01*
X157876079Y-69416387D01*
X157868227Y-69394443D01*
X157862563Y-69371834D01*
X157859144Y-69348779D01*
X157858000Y-69325500D01*
X157858000Y-68850500D01*
X157859144Y-68827221D01*
X157862563Y-68804166D01*
X157868227Y-68781557D01*
X157876079Y-68759613D01*
X157886044Y-68738543D01*
X157898026Y-68718552D01*
X157911910Y-68699832D01*
X157927562Y-68682562D01*
X157944832Y-68666910D01*
X157963552Y-68653026D01*
X157983543Y-68641044D01*
X158004613Y-68631079D01*
X158026557Y-68623227D01*
X158049166Y-68617563D01*
X158072221Y-68614144D01*
X158095500Y-68613000D01*
X158670500Y-68613000D01*
X158693779Y-68614144D01*
X158693779Y-68614144D01*
G37*
D12*
G04 #@! TD*
G04 #@! TO.P,R5,2*
G04 #@! TO.N,Net-(D1-Pad2)*
X158383000Y-69088000D03*
D11*
G04 #@! TO.N,/3V3*
G04 #@! TO.C,R5*
G36*
X160443779Y-68614144D02*
X160466834Y-68617563D01*
X160489443Y-68623227D01*
X160511387Y-68631079D01*
X160532457Y-68641044D01*
X160552448Y-68653026D01*
X160571168Y-68666910D01*
X160588438Y-68682562D01*
X160604090Y-68699832D01*
X160617974Y-68718552D01*
X160629956Y-68738543D01*
X160639921Y-68759613D01*
X160647773Y-68781557D01*
X160653437Y-68804166D01*
X160656856Y-68827221D01*
X160658000Y-68850500D01*
X160658000Y-69325500D01*
X160656856Y-69348779D01*
X160653437Y-69371834D01*
X160647773Y-69394443D01*
X160639921Y-69416387D01*
X160629956Y-69437457D01*
X160617974Y-69457448D01*
X160604090Y-69476168D01*
X160588438Y-69493438D01*
X160571168Y-69509090D01*
X160552448Y-69522974D01*
X160532457Y-69534956D01*
X160511387Y-69544921D01*
X160489443Y-69552773D01*
X160466834Y-69558437D01*
X160443779Y-69561856D01*
X160420500Y-69563000D01*
X159845500Y-69563000D01*
X159822221Y-69561856D01*
X159799166Y-69558437D01*
X159776557Y-69552773D01*
X159754613Y-69544921D01*
X159733543Y-69534956D01*
X159713552Y-69522974D01*
X159694832Y-69509090D01*
X159677562Y-69493438D01*
X159661910Y-69476168D01*
X159648026Y-69457448D01*
X159636044Y-69437457D01*
X159626079Y-69416387D01*
X159618227Y-69394443D01*
X159612563Y-69371834D01*
X159609144Y-69348779D01*
X159608000Y-69325500D01*
X159608000Y-68850500D01*
X159609144Y-68827221D01*
X159612563Y-68804166D01*
X159618227Y-68781557D01*
X159626079Y-68759613D01*
X159636044Y-68738543D01*
X159648026Y-68718552D01*
X159661910Y-68699832D01*
X159677562Y-68682562D01*
X159694832Y-68666910D01*
X159713552Y-68653026D01*
X159733543Y-68641044D01*
X159754613Y-68631079D01*
X159776557Y-68623227D01*
X159799166Y-68617563D01*
X159822221Y-68614144D01*
X159845500Y-68613000D01*
X160420500Y-68613000D01*
X160443779Y-68614144D01*
X160443779Y-68614144D01*
G37*
D12*
G04 #@! TD*
G04 #@! TO.P,R5,1*
G04 #@! TO.N,/3V3*
X160133000Y-69088000D03*
D11*
G04 #@! TO.N,/3V3*
G04 #@! TO.C,R6*
G36*
X134169579Y-64742744D02*
X134192634Y-64746163D01*
X134215243Y-64751827D01*
X134237187Y-64759679D01*
X134258257Y-64769644D01*
X134278248Y-64781626D01*
X134296968Y-64795510D01*
X134314238Y-64811162D01*
X134329890Y-64828432D01*
X134343774Y-64847152D01*
X134355756Y-64867143D01*
X134365721Y-64888213D01*
X134373573Y-64910157D01*
X134379237Y-64932766D01*
X134382656Y-64955821D01*
X134383800Y-64979100D01*
X134383800Y-65554100D01*
X134382656Y-65577379D01*
X134379237Y-65600434D01*
X134373573Y-65623043D01*
X134365721Y-65644987D01*
X134355756Y-65666057D01*
X134343774Y-65686048D01*
X134329890Y-65704768D01*
X134314238Y-65722038D01*
X134296968Y-65737690D01*
X134278248Y-65751574D01*
X134258257Y-65763556D01*
X134237187Y-65773521D01*
X134215243Y-65781373D01*
X134192634Y-65787037D01*
X134169579Y-65790456D01*
X134146300Y-65791600D01*
X133671300Y-65791600D01*
X133648021Y-65790456D01*
X133624966Y-65787037D01*
X133602357Y-65781373D01*
X133580413Y-65773521D01*
X133559343Y-65763556D01*
X133539352Y-65751574D01*
X133520632Y-65737690D01*
X133503362Y-65722038D01*
X133487710Y-65704768D01*
X133473826Y-65686048D01*
X133461844Y-65666057D01*
X133451879Y-65644987D01*
X133444027Y-65623043D01*
X133438363Y-65600434D01*
X133434944Y-65577379D01*
X133433800Y-65554100D01*
X133433800Y-64979100D01*
X133434944Y-64955821D01*
X133438363Y-64932766D01*
X133444027Y-64910157D01*
X133451879Y-64888213D01*
X133461844Y-64867143D01*
X133473826Y-64847152D01*
X133487710Y-64828432D01*
X133503362Y-64811162D01*
X133520632Y-64795510D01*
X133539352Y-64781626D01*
X133559343Y-64769644D01*
X133580413Y-64759679D01*
X133602357Y-64751827D01*
X133624966Y-64746163D01*
X133648021Y-64742744D01*
X133671300Y-64741600D01*
X134146300Y-64741600D01*
X134169579Y-64742744D01*
X134169579Y-64742744D01*
G37*
D12*
G04 #@! TD*
G04 #@! TO.P,R6,1*
G04 #@! TO.N,/3V3*
X133908800Y-65266600D03*
D11*
G04 #@! TO.N,/SDA*
G04 #@! TO.C,R6*
G36*
X134169579Y-66492744D02*
X134192634Y-66496163D01*
X134215243Y-66501827D01*
X134237187Y-66509679D01*
X134258257Y-66519644D01*
X134278248Y-66531626D01*
X134296968Y-66545510D01*
X134314238Y-66561162D01*
X134329890Y-66578432D01*
X134343774Y-66597152D01*
X134355756Y-66617143D01*
X134365721Y-66638213D01*
X134373573Y-66660157D01*
X134379237Y-66682766D01*
X134382656Y-66705821D01*
X134383800Y-66729100D01*
X134383800Y-67304100D01*
X134382656Y-67327379D01*
X134379237Y-67350434D01*
X134373573Y-67373043D01*
X134365721Y-67394987D01*
X134355756Y-67416057D01*
X134343774Y-67436048D01*
X134329890Y-67454768D01*
X134314238Y-67472038D01*
X134296968Y-67487690D01*
X134278248Y-67501574D01*
X134258257Y-67513556D01*
X134237187Y-67523521D01*
X134215243Y-67531373D01*
X134192634Y-67537037D01*
X134169579Y-67540456D01*
X134146300Y-67541600D01*
X133671300Y-67541600D01*
X133648021Y-67540456D01*
X133624966Y-67537037D01*
X133602357Y-67531373D01*
X133580413Y-67523521D01*
X133559343Y-67513556D01*
X133539352Y-67501574D01*
X133520632Y-67487690D01*
X133503362Y-67472038D01*
X133487710Y-67454768D01*
X133473826Y-67436048D01*
X133461844Y-67416057D01*
X133451879Y-67394987D01*
X133444027Y-67373043D01*
X133438363Y-67350434D01*
X133434944Y-67327379D01*
X133433800Y-67304100D01*
X133433800Y-66729100D01*
X133434944Y-66705821D01*
X133438363Y-66682766D01*
X133444027Y-66660157D01*
X133451879Y-66638213D01*
X133461844Y-66617143D01*
X133473826Y-66597152D01*
X133487710Y-66578432D01*
X133503362Y-66561162D01*
X133520632Y-66545510D01*
X133539352Y-66531626D01*
X133559343Y-66519644D01*
X133580413Y-66509679D01*
X133602357Y-66501827D01*
X133624966Y-66496163D01*
X133648021Y-66492744D01*
X133671300Y-66491600D01*
X134146300Y-66491600D01*
X134169579Y-66492744D01*
X134169579Y-66492744D01*
G37*
D12*
G04 #@! TD*
G04 #@! TO.P,R6,2*
G04 #@! TO.N,/SDA*
X133908800Y-67016600D03*
D11*
G04 #@! TO.N,/I2S_WS*
G04 #@! TO.C,R7*
G36*
X133645779Y-80966144D02*
X133668834Y-80969563D01*
X133691443Y-80975227D01*
X133713387Y-80983079D01*
X133734457Y-80993044D01*
X133754448Y-81005026D01*
X133773168Y-81018910D01*
X133790438Y-81034562D01*
X133806090Y-81051832D01*
X133819974Y-81070552D01*
X133831956Y-81090543D01*
X133841921Y-81111613D01*
X133849773Y-81133557D01*
X133855437Y-81156166D01*
X133858856Y-81179221D01*
X133860000Y-81202500D01*
X133860000Y-81677500D01*
X133858856Y-81700779D01*
X133855437Y-81723834D01*
X133849773Y-81746443D01*
X133841921Y-81768387D01*
X133831956Y-81789457D01*
X133819974Y-81809448D01*
X133806090Y-81828168D01*
X133790438Y-81845438D01*
X133773168Y-81861090D01*
X133754448Y-81874974D01*
X133734457Y-81886956D01*
X133713387Y-81896921D01*
X133691443Y-81904773D01*
X133668834Y-81910437D01*
X133645779Y-81913856D01*
X133622500Y-81915000D01*
X133047500Y-81915000D01*
X133024221Y-81913856D01*
X133001166Y-81910437D01*
X132978557Y-81904773D01*
X132956613Y-81896921D01*
X132935543Y-81886956D01*
X132915552Y-81874974D01*
X132896832Y-81861090D01*
X132879562Y-81845438D01*
X132863910Y-81828168D01*
X132850026Y-81809448D01*
X132838044Y-81789457D01*
X132828079Y-81768387D01*
X132820227Y-81746443D01*
X132814563Y-81723834D01*
X132811144Y-81700779D01*
X132810000Y-81677500D01*
X132810000Y-81202500D01*
X132811144Y-81179221D01*
X132814563Y-81156166D01*
X132820227Y-81133557D01*
X132828079Y-81111613D01*
X132838044Y-81090543D01*
X132850026Y-81070552D01*
X132863910Y-81051832D01*
X132879562Y-81034562D01*
X132896832Y-81018910D01*
X132915552Y-81005026D01*
X132935543Y-80993044D01*
X132956613Y-80983079D01*
X132978557Y-80975227D01*
X133001166Y-80969563D01*
X133024221Y-80966144D01*
X133047500Y-80965000D01*
X133622500Y-80965000D01*
X133645779Y-80966144D01*
X133645779Y-80966144D01*
G37*
D12*
G04 #@! TD*
G04 #@! TO.P,R7,1*
G04 #@! TO.N,/I2S_WS*
X133335000Y-81440000D03*
D11*
G04 #@! TO.N,Net-(R7-Pad2)*
G04 #@! TO.C,R7*
G36*
X135395779Y-80966144D02*
X135418834Y-80969563D01*
X135441443Y-80975227D01*
X135463387Y-80983079D01*
X135484457Y-80993044D01*
X135504448Y-81005026D01*
X135523168Y-81018910D01*
X135540438Y-81034562D01*
X135556090Y-81051832D01*
X135569974Y-81070552D01*
X135581956Y-81090543D01*
X135591921Y-81111613D01*
X135599773Y-81133557D01*
X135605437Y-81156166D01*
X135608856Y-81179221D01*
X135610000Y-81202500D01*
X135610000Y-81677500D01*
X135608856Y-81700779D01*
X135605437Y-81723834D01*
X135599773Y-81746443D01*
X135591921Y-81768387D01*
X135581956Y-81789457D01*
X135569974Y-81809448D01*
X135556090Y-81828168D01*
X135540438Y-81845438D01*
X135523168Y-81861090D01*
X135504448Y-81874974D01*
X135484457Y-81886956D01*
X135463387Y-81896921D01*
X135441443Y-81904773D01*
X135418834Y-81910437D01*
X135395779Y-81913856D01*
X135372500Y-81915000D01*
X134797500Y-81915000D01*
X134774221Y-81913856D01*
X134751166Y-81910437D01*
X134728557Y-81904773D01*
X134706613Y-81896921D01*
X134685543Y-81886956D01*
X134665552Y-81874974D01*
X134646832Y-81861090D01*
X134629562Y-81845438D01*
X134613910Y-81828168D01*
X134600026Y-81809448D01*
X134588044Y-81789457D01*
X134578079Y-81768387D01*
X134570227Y-81746443D01*
X134564563Y-81723834D01*
X134561144Y-81700779D01*
X134560000Y-81677500D01*
X134560000Y-81202500D01*
X134561144Y-81179221D01*
X134564563Y-81156166D01*
X134570227Y-81133557D01*
X134578079Y-81111613D01*
X134588044Y-81090543D01*
X134600026Y-81070552D01*
X134613910Y-81051832D01*
X134629562Y-81034562D01*
X134646832Y-81018910D01*
X134665552Y-81005026D01*
X134685543Y-80993044D01*
X134706613Y-80983079D01*
X134728557Y-80975227D01*
X134751166Y-80969563D01*
X134774221Y-80966144D01*
X134797500Y-80965000D01*
X135372500Y-80965000D01*
X135395779Y-80966144D01*
X135395779Y-80966144D01*
G37*
D12*
G04 #@! TD*
G04 #@! TO.P,R7,2*
G04 #@! TO.N,Net-(R7-Pad2)*
X135085000Y-81440000D03*
D11*
G04 #@! TO.N,Net-(R11-Pad2)*
G04 #@! TO.C,R9*
G36*
X142018179Y-64728744D02*
X142041234Y-64732163D01*
X142063843Y-64737827D01*
X142085787Y-64745679D01*
X142106857Y-64755644D01*
X142126848Y-64767626D01*
X142145568Y-64781510D01*
X142162838Y-64797162D01*
X142178490Y-64814432D01*
X142192374Y-64833152D01*
X142204356Y-64853143D01*
X142214321Y-64874213D01*
X142222173Y-64896157D01*
X142227837Y-64918766D01*
X142231256Y-64941821D01*
X142232400Y-64965100D01*
X142232400Y-65540100D01*
X142231256Y-65563379D01*
X142227837Y-65586434D01*
X142222173Y-65609043D01*
X142214321Y-65630987D01*
X142204356Y-65652057D01*
X142192374Y-65672048D01*
X142178490Y-65690768D01*
X142162838Y-65708038D01*
X142145568Y-65723690D01*
X142126848Y-65737574D01*
X142106857Y-65749556D01*
X142085787Y-65759521D01*
X142063843Y-65767373D01*
X142041234Y-65773037D01*
X142018179Y-65776456D01*
X141994900Y-65777600D01*
X141519900Y-65777600D01*
X141496621Y-65776456D01*
X141473566Y-65773037D01*
X141450957Y-65767373D01*
X141429013Y-65759521D01*
X141407943Y-65749556D01*
X141387952Y-65737574D01*
X141369232Y-65723690D01*
X141351962Y-65708038D01*
X141336310Y-65690768D01*
X141322426Y-65672048D01*
X141310444Y-65652057D01*
X141300479Y-65630987D01*
X141292627Y-65609043D01*
X141286963Y-65586434D01*
X141283544Y-65563379D01*
X141282400Y-65540100D01*
X141282400Y-64965100D01*
X141283544Y-64941821D01*
X141286963Y-64918766D01*
X141292627Y-64896157D01*
X141300479Y-64874213D01*
X141310444Y-64853143D01*
X141322426Y-64833152D01*
X141336310Y-64814432D01*
X141351962Y-64797162D01*
X141369232Y-64781510D01*
X141387952Y-64767626D01*
X141407943Y-64755644D01*
X141429013Y-64745679D01*
X141450957Y-64737827D01*
X141473566Y-64732163D01*
X141496621Y-64728744D01*
X141519900Y-64727600D01*
X141994900Y-64727600D01*
X142018179Y-64728744D01*
X142018179Y-64728744D01*
G37*
D12*
G04 #@! TD*
G04 #@! TO.P,R9,2*
G04 #@! TO.N,Net-(R11-Pad2)*
X141757400Y-65252600D03*
D11*
G04 #@! TO.N,GND*
G04 #@! TO.C,R9*
G36*
X142018179Y-66478744D02*
X142041234Y-66482163D01*
X142063843Y-66487827D01*
X142085787Y-66495679D01*
X142106857Y-66505644D01*
X142126848Y-66517626D01*
X142145568Y-66531510D01*
X142162838Y-66547162D01*
X142178490Y-66564432D01*
X142192374Y-66583152D01*
X142204356Y-66603143D01*
X142214321Y-66624213D01*
X142222173Y-66646157D01*
X142227837Y-66668766D01*
X142231256Y-66691821D01*
X142232400Y-66715100D01*
X142232400Y-67290100D01*
X142231256Y-67313379D01*
X142227837Y-67336434D01*
X142222173Y-67359043D01*
X142214321Y-67380987D01*
X142204356Y-67402057D01*
X142192374Y-67422048D01*
X142178490Y-67440768D01*
X142162838Y-67458038D01*
X142145568Y-67473690D01*
X142126848Y-67487574D01*
X142106857Y-67499556D01*
X142085787Y-67509521D01*
X142063843Y-67517373D01*
X142041234Y-67523037D01*
X142018179Y-67526456D01*
X141994900Y-67527600D01*
X141519900Y-67527600D01*
X141496621Y-67526456D01*
X141473566Y-67523037D01*
X141450957Y-67517373D01*
X141429013Y-67509521D01*
X141407943Y-67499556D01*
X141387952Y-67487574D01*
X141369232Y-67473690D01*
X141351962Y-67458038D01*
X141336310Y-67440768D01*
X141322426Y-67422048D01*
X141310444Y-67402057D01*
X141300479Y-67380987D01*
X141292627Y-67359043D01*
X141286963Y-67336434D01*
X141283544Y-67313379D01*
X141282400Y-67290100D01*
X141282400Y-66715100D01*
X141283544Y-66691821D01*
X141286963Y-66668766D01*
X141292627Y-66646157D01*
X141300479Y-66624213D01*
X141310444Y-66603143D01*
X141322426Y-66583152D01*
X141336310Y-66564432D01*
X141351962Y-66547162D01*
X141369232Y-66531510D01*
X141387952Y-66517626D01*
X141407943Y-66505644D01*
X141429013Y-66495679D01*
X141450957Y-66487827D01*
X141473566Y-66482163D01*
X141496621Y-66478744D01*
X141519900Y-66477600D01*
X141994900Y-66477600D01*
X142018179Y-66478744D01*
X142018179Y-66478744D01*
G37*
D12*
G04 #@! TD*
G04 #@! TO.P,R9,1*
G04 #@! TO.N,GND*
X141757400Y-67002600D03*
D11*
G04 #@! TO.N,Net-(D3-Pad2)*
G04 #@! TO.C,R10*
G36*
X162146379Y-112949344D02*
X162169434Y-112952763D01*
X162192043Y-112958427D01*
X162213987Y-112966279D01*
X162235057Y-112976244D01*
X162255048Y-112988226D01*
X162273768Y-113002110D01*
X162291038Y-113017762D01*
X162306690Y-113035032D01*
X162320574Y-113053752D01*
X162332556Y-113073743D01*
X162342521Y-113094813D01*
X162350373Y-113116757D01*
X162356037Y-113139366D01*
X162359456Y-113162421D01*
X162360600Y-113185700D01*
X162360600Y-113760700D01*
X162359456Y-113783979D01*
X162356037Y-113807034D01*
X162350373Y-113829643D01*
X162342521Y-113851587D01*
X162332556Y-113872657D01*
X162320574Y-113892648D01*
X162306690Y-113911368D01*
X162291038Y-113928638D01*
X162273768Y-113944290D01*
X162255048Y-113958174D01*
X162235057Y-113970156D01*
X162213987Y-113980121D01*
X162192043Y-113987973D01*
X162169434Y-113993637D01*
X162146379Y-113997056D01*
X162123100Y-113998200D01*
X161648100Y-113998200D01*
X161624821Y-113997056D01*
X161601766Y-113993637D01*
X161579157Y-113987973D01*
X161557213Y-113980121D01*
X161536143Y-113970156D01*
X161516152Y-113958174D01*
X161497432Y-113944290D01*
X161480162Y-113928638D01*
X161464510Y-113911368D01*
X161450626Y-113892648D01*
X161438644Y-113872657D01*
X161428679Y-113851587D01*
X161420827Y-113829643D01*
X161415163Y-113807034D01*
X161411744Y-113783979D01*
X161410600Y-113760700D01*
X161410600Y-113185700D01*
X161411744Y-113162421D01*
X161415163Y-113139366D01*
X161420827Y-113116757D01*
X161428679Y-113094813D01*
X161438644Y-113073743D01*
X161450626Y-113053752D01*
X161464510Y-113035032D01*
X161480162Y-113017762D01*
X161497432Y-113002110D01*
X161516152Y-112988226D01*
X161536143Y-112976244D01*
X161557213Y-112966279D01*
X161579157Y-112958427D01*
X161601766Y-112952763D01*
X161624821Y-112949344D01*
X161648100Y-112948200D01*
X162123100Y-112948200D01*
X162146379Y-112949344D01*
X162146379Y-112949344D01*
G37*
D12*
G04 #@! TD*
G04 #@! TO.P,R10,2*
G04 #@! TO.N,Net-(D3-Pad2)*
X161885600Y-113473200D03*
D11*
G04 #@! TO.N,/V_USB*
G04 #@! TO.C,R10*
G36*
X162146379Y-111199344D02*
X162169434Y-111202763D01*
X162192043Y-111208427D01*
X162213987Y-111216279D01*
X162235057Y-111226244D01*
X162255048Y-111238226D01*
X162273768Y-111252110D01*
X162291038Y-111267762D01*
X162306690Y-111285032D01*
X162320574Y-111303752D01*
X162332556Y-111323743D01*
X162342521Y-111344813D01*
X162350373Y-111366757D01*
X162356037Y-111389366D01*
X162359456Y-111412421D01*
X162360600Y-111435700D01*
X162360600Y-112010700D01*
X162359456Y-112033979D01*
X162356037Y-112057034D01*
X162350373Y-112079643D01*
X162342521Y-112101587D01*
X162332556Y-112122657D01*
X162320574Y-112142648D01*
X162306690Y-112161368D01*
X162291038Y-112178638D01*
X162273768Y-112194290D01*
X162255048Y-112208174D01*
X162235057Y-112220156D01*
X162213987Y-112230121D01*
X162192043Y-112237973D01*
X162169434Y-112243637D01*
X162146379Y-112247056D01*
X162123100Y-112248200D01*
X161648100Y-112248200D01*
X161624821Y-112247056D01*
X161601766Y-112243637D01*
X161579157Y-112237973D01*
X161557213Y-112230121D01*
X161536143Y-112220156D01*
X161516152Y-112208174D01*
X161497432Y-112194290D01*
X161480162Y-112178638D01*
X161464510Y-112161368D01*
X161450626Y-112142648D01*
X161438644Y-112122657D01*
X161428679Y-112101587D01*
X161420827Y-112079643D01*
X161415163Y-112057034D01*
X161411744Y-112033979D01*
X161410600Y-112010700D01*
X161410600Y-111435700D01*
X161411744Y-111412421D01*
X161415163Y-111389366D01*
X161420827Y-111366757D01*
X161428679Y-111344813D01*
X161438644Y-111323743D01*
X161450626Y-111303752D01*
X161464510Y-111285032D01*
X161480162Y-111267762D01*
X161497432Y-111252110D01*
X161516152Y-111238226D01*
X161536143Y-111226244D01*
X161557213Y-111216279D01*
X161579157Y-111208427D01*
X161601766Y-111202763D01*
X161624821Y-111199344D01*
X161648100Y-111198200D01*
X162123100Y-111198200D01*
X162146379Y-111199344D01*
X162146379Y-111199344D01*
G37*
D12*
G04 #@! TD*
G04 #@! TO.P,R10,1*
G04 #@! TO.N,/V_USB*
X161885600Y-111723200D03*
D11*
G04 #@! TO.N,/I2S_DATA_IN*
G04 #@! TO.C,R11*
G36*
X143897779Y-66467344D02*
X143920834Y-66470763D01*
X143943443Y-66476427D01*
X143965387Y-66484279D01*
X143986457Y-66494244D01*
X144006448Y-66506226D01*
X144025168Y-66520110D01*
X144042438Y-66535762D01*
X144058090Y-66553032D01*
X144071974Y-66571752D01*
X144083956Y-66591743D01*
X144093921Y-66612813D01*
X144101773Y-66634757D01*
X144107437Y-66657366D01*
X144110856Y-66680421D01*
X144112000Y-66703700D01*
X144112000Y-67278700D01*
X144110856Y-67301979D01*
X144107437Y-67325034D01*
X144101773Y-67347643D01*
X144093921Y-67369587D01*
X144083956Y-67390657D01*
X144071974Y-67410648D01*
X144058090Y-67429368D01*
X144042438Y-67446638D01*
X144025168Y-67462290D01*
X144006448Y-67476174D01*
X143986457Y-67488156D01*
X143965387Y-67498121D01*
X143943443Y-67505973D01*
X143920834Y-67511637D01*
X143897779Y-67515056D01*
X143874500Y-67516200D01*
X143399500Y-67516200D01*
X143376221Y-67515056D01*
X143353166Y-67511637D01*
X143330557Y-67505973D01*
X143308613Y-67498121D01*
X143287543Y-67488156D01*
X143267552Y-67476174D01*
X143248832Y-67462290D01*
X143231562Y-67446638D01*
X143215910Y-67429368D01*
X143202026Y-67410648D01*
X143190044Y-67390657D01*
X143180079Y-67369587D01*
X143172227Y-67347643D01*
X143166563Y-67325034D01*
X143163144Y-67301979D01*
X143162000Y-67278700D01*
X143162000Y-66703700D01*
X143163144Y-66680421D01*
X143166563Y-66657366D01*
X143172227Y-66634757D01*
X143180079Y-66612813D01*
X143190044Y-66591743D01*
X143202026Y-66571752D01*
X143215910Y-66553032D01*
X143231562Y-66535762D01*
X143248832Y-66520110D01*
X143267552Y-66506226D01*
X143287543Y-66494244D01*
X143308613Y-66484279D01*
X143330557Y-66476427D01*
X143353166Y-66470763D01*
X143376221Y-66467344D01*
X143399500Y-66466200D01*
X143874500Y-66466200D01*
X143897779Y-66467344D01*
X143897779Y-66467344D01*
G37*
D12*
G04 #@! TD*
G04 #@! TO.P,R11,1*
G04 #@! TO.N,/I2S_DATA_IN*
X143637000Y-66991200D03*
D11*
G04 #@! TO.N,Net-(R11-Pad2)*
G04 #@! TO.C,R11*
G36*
X143897779Y-64717344D02*
X143920834Y-64720763D01*
X143943443Y-64726427D01*
X143965387Y-64734279D01*
X143986457Y-64744244D01*
X144006448Y-64756226D01*
X144025168Y-64770110D01*
X144042438Y-64785762D01*
X144058090Y-64803032D01*
X144071974Y-64821752D01*
X144083956Y-64841743D01*
X144093921Y-64862813D01*
X144101773Y-64884757D01*
X144107437Y-64907366D01*
X144110856Y-64930421D01*
X144112000Y-64953700D01*
X144112000Y-65528700D01*
X144110856Y-65551979D01*
X144107437Y-65575034D01*
X144101773Y-65597643D01*
X144093921Y-65619587D01*
X144083956Y-65640657D01*
X144071974Y-65660648D01*
X144058090Y-65679368D01*
X144042438Y-65696638D01*
X144025168Y-65712290D01*
X144006448Y-65726174D01*
X143986457Y-65738156D01*
X143965387Y-65748121D01*
X143943443Y-65755973D01*
X143920834Y-65761637D01*
X143897779Y-65765056D01*
X143874500Y-65766200D01*
X143399500Y-65766200D01*
X143376221Y-65765056D01*
X143353166Y-65761637D01*
X143330557Y-65755973D01*
X143308613Y-65748121D01*
X143287543Y-65738156D01*
X143267552Y-65726174D01*
X143248832Y-65712290D01*
X143231562Y-65696638D01*
X143215910Y-65679368D01*
X143202026Y-65660648D01*
X143190044Y-65640657D01*
X143180079Y-65619587D01*
X143172227Y-65597643D01*
X143166563Y-65575034D01*
X143163144Y-65551979D01*
X143162000Y-65528700D01*
X143162000Y-64953700D01*
X143163144Y-64930421D01*
X143166563Y-64907366D01*
X143172227Y-64884757D01*
X143180079Y-64862813D01*
X143190044Y-64841743D01*
X143202026Y-64821752D01*
X143215910Y-64803032D01*
X143231562Y-64785762D01*
X143248832Y-64770110D01*
X143267552Y-64756226D01*
X143287543Y-64744244D01*
X143308613Y-64734279D01*
X143330557Y-64726427D01*
X143353166Y-64720763D01*
X143376221Y-64717344D01*
X143399500Y-64716200D01*
X143874500Y-64716200D01*
X143897779Y-64717344D01*
X143897779Y-64717344D01*
G37*
D12*
G04 #@! TD*
G04 #@! TO.P,R11,2*
G04 #@! TO.N,Net-(R11-Pad2)*
X143637000Y-65241200D03*
D11*
G04 #@! TO.N,/FACTORY_RST*
G04 #@! TO.C,R14*
G36*
X158552779Y-116620144D02*
X158575834Y-116623563D01*
X158598443Y-116629227D01*
X158620387Y-116637079D01*
X158641457Y-116647044D01*
X158661448Y-116659026D01*
X158680168Y-116672910D01*
X158697438Y-116688562D01*
X158713090Y-116705832D01*
X158726974Y-116724552D01*
X158738956Y-116744543D01*
X158748921Y-116765613D01*
X158756773Y-116787557D01*
X158762437Y-116810166D01*
X158765856Y-116833221D01*
X158767000Y-116856500D01*
X158767000Y-117331500D01*
X158765856Y-117354779D01*
X158762437Y-117377834D01*
X158756773Y-117400443D01*
X158748921Y-117422387D01*
X158738956Y-117443457D01*
X158726974Y-117463448D01*
X158713090Y-117482168D01*
X158697438Y-117499438D01*
X158680168Y-117515090D01*
X158661448Y-117528974D01*
X158641457Y-117540956D01*
X158620387Y-117550921D01*
X158598443Y-117558773D01*
X158575834Y-117564437D01*
X158552779Y-117567856D01*
X158529500Y-117569000D01*
X157954500Y-117569000D01*
X157931221Y-117567856D01*
X157908166Y-117564437D01*
X157885557Y-117558773D01*
X157863613Y-117550921D01*
X157842543Y-117540956D01*
X157822552Y-117528974D01*
X157803832Y-117515090D01*
X157786562Y-117499438D01*
X157770910Y-117482168D01*
X157757026Y-117463448D01*
X157745044Y-117443457D01*
X157735079Y-117422387D01*
X157727227Y-117400443D01*
X157721563Y-117377834D01*
X157718144Y-117354779D01*
X157717000Y-117331500D01*
X157717000Y-116856500D01*
X157718144Y-116833221D01*
X157721563Y-116810166D01*
X157727227Y-116787557D01*
X157735079Y-116765613D01*
X157745044Y-116744543D01*
X157757026Y-116724552D01*
X157770910Y-116705832D01*
X157786562Y-116688562D01*
X157803832Y-116672910D01*
X157822552Y-116659026D01*
X157842543Y-116647044D01*
X157863613Y-116637079D01*
X157885557Y-116629227D01*
X157908166Y-116623563D01*
X157931221Y-116620144D01*
X157954500Y-116619000D01*
X158529500Y-116619000D01*
X158552779Y-116620144D01*
X158552779Y-116620144D01*
G37*
D12*
G04 #@! TD*
G04 #@! TO.P,R14,2*
G04 #@! TO.N,/FACTORY_RST*
X158242000Y-117094000D03*
D11*
G04 #@! TO.N,Net-(D2-Pad1)*
G04 #@! TO.C,R14*
G36*
X156802779Y-116620144D02*
X156825834Y-116623563D01*
X156848443Y-116629227D01*
X156870387Y-116637079D01*
X156891457Y-116647044D01*
X156911448Y-116659026D01*
X156930168Y-116672910D01*
X156947438Y-116688562D01*
X156963090Y-116705832D01*
X156976974Y-116724552D01*
X156988956Y-116744543D01*
X156998921Y-116765613D01*
X157006773Y-116787557D01*
X157012437Y-116810166D01*
X157015856Y-116833221D01*
X157017000Y-116856500D01*
X157017000Y-117331500D01*
X157015856Y-117354779D01*
X157012437Y-117377834D01*
X157006773Y-117400443D01*
X156998921Y-117422387D01*
X156988956Y-117443457D01*
X156976974Y-117463448D01*
X156963090Y-117482168D01*
X156947438Y-117499438D01*
X156930168Y-117515090D01*
X156911448Y-117528974D01*
X156891457Y-117540956D01*
X156870387Y-117550921D01*
X156848443Y-117558773D01*
X156825834Y-117564437D01*
X156802779Y-117567856D01*
X156779500Y-117569000D01*
X156204500Y-117569000D01*
X156181221Y-117567856D01*
X156158166Y-117564437D01*
X156135557Y-117558773D01*
X156113613Y-117550921D01*
X156092543Y-117540956D01*
X156072552Y-117528974D01*
X156053832Y-117515090D01*
X156036562Y-117499438D01*
X156020910Y-117482168D01*
X156007026Y-117463448D01*
X155995044Y-117443457D01*
X155985079Y-117422387D01*
X155977227Y-117400443D01*
X155971563Y-117377834D01*
X155968144Y-117354779D01*
X155967000Y-117331500D01*
X155967000Y-116856500D01*
X155968144Y-116833221D01*
X155971563Y-116810166D01*
X155977227Y-116787557D01*
X155985079Y-116765613D01*
X155995044Y-116744543D01*
X156007026Y-116724552D01*
X156020910Y-116705832D01*
X156036562Y-116688562D01*
X156053832Y-116672910D01*
X156072552Y-116659026D01*
X156092543Y-116647044D01*
X156113613Y-116637079D01*
X156135557Y-116629227D01*
X156158166Y-116623563D01*
X156181221Y-116620144D01*
X156204500Y-116619000D01*
X156779500Y-116619000D01*
X156802779Y-116620144D01*
X156802779Y-116620144D01*
G37*
D12*
G04 #@! TD*
G04 #@! TO.P,R14,1*
G04 #@! TO.N,Net-(D2-Pad1)*
X156492000Y-117094000D03*
D11*
G04 #@! TO.N,Net-(D4-Pad1)*
G04 #@! TO.C,R15*
G36*
X138182779Y-107426144D02*
X138205834Y-107429563D01*
X138228443Y-107435227D01*
X138250387Y-107443079D01*
X138271457Y-107453044D01*
X138291448Y-107465026D01*
X138310168Y-107478910D01*
X138327438Y-107494562D01*
X138343090Y-107511832D01*
X138356974Y-107530552D01*
X138368956Y-107550543D01*
X138378921Y-107571613D01*
X138386773Y-107593557D01*
X138392437Y-107616166D01*
X138395856Y-107639221D01*
X138397000Y-107662500D01*
X138397000Y-108237500D01*
X138395856Y-108260779D01*
X138392437Y-108283834D01*
X138386773Y-108306443D01*
X138378921Y-108328387D01*
X138368956Y-108349457D01*
X138356974Y-108369448D01*
X138343090Y-108388168D01*
X138327438Y-108405438D01*
X138310168Y-108421090D01*
X138291448Y-108434974D01*
X138271457Y-108446956D01*
X138250387Y-108456921D01*
X138228443Y-108464773D01*
X138205834Y-108470437D01*
X138182779Y-108473856D01*
X138159500Y-108475000D01*
X137684500Y-108475000D01*
X137661221Y-108473856D01*
X137638166Y-108470437D01*
X137615557Y-108464773D01*
X137593613Y-108456921D01*
X137572543Y-108446956D01*
X137552552Y-108434974D01*
X137533832Y-108421090D01*
X137516562Y-108405438D01*
X137500910Y-108388168D01*
X137487026Y-108369448D01*
X137475044Y-108349457D01*
X137465079Y-108328387D01*
X137457227Y-108306443D01*
X137451563Y-108283834D01*
X137448144Y-108260779D01*
X137447000Y-108237500D01*
X137447000Y-107662500D01*
X137448144Y-107639221D01*
X137451563Y-107616166D01*
X137457227Y-107593557D01*
X137465079Y-107571613D01*
X137475044Y-107550543D01*
X137487026Y-107530552D01*
X137500910Y-107511832D01*
X137516562Y-107494562D01*
X137533832Y-107478910D01*
X137552552Y-107465026D01*
X137572543Y-107453044D01*
X137593613Y-107443079D01*
X137615557Y-107435227D01*
X137638166Y-107429563D01*
X137661221Y-107426144D01*
X137684500Y-107425000D01*
X138159500Y-107425000D01*
X138182779Y-107426144D01*
X138182779Y-107426144D01*
G37*
D12*
G04 #@! TD*
G04 #@! TO.P,R15,1*
G04 #@! TO.N,Net-(D4-Pad1)*
X137922000Y-107950000D03*
D11*
G04 #@! TO.N,/PROG*
G04 #@! TO.C,R15*
G36*
X138182779Y-109176144D02*
X138205834Y-109179563D01*
X138228443Y-109185227D01*
X138250387Y-109193079D01*
X138271457Y-109203044D01*
X138291448Y-109215026D01*
X138310168Y-109228910D01*
X138327438Y-109244562D01*
X138343090Y-109261832D01*
X138356974Y-109280552D01*
X138368956Y-109300543D01*
X138378921Y-109321613D01*
X138386773Y-109343557D01*
X138392437Y-109366166D01*
X138395856Y-109389221D01*
X138397000Y-109412500D01*
X138397000Y-109987500D01*
X138395856Y-110010779D01*
X138392437Y-110033834D01*
X138386773Y-110056443D01*
X138378921Y-110078387D01*
X138368956Y-110099457D01*
X138356974Y-110119448D01*
X138343090Y-110138168D01*
X138327438Y-110155438D01*
X138310168Y-110171090D01*
X138291448Y-110184974D01*
X138271457Y-110196956D01*
X138250387Y-110206921D01*
X138228443Y-110214773D01*
X138205834Y-110220437D01*
X138182779Y-110223856D01*
X138159500Y-110225000D01*
X137684500Y-110225000D01*
X137661221Y-110223856D01*
X137638166Y-110220437D01*
X137615557Y-110214773D01*
X137593613Y-110206921D01*
X137572543Y-110196956D01*
X137552552Y-110184974D01*
X137533832Y-110171090D01*
X137516562Y-110155438D01*
X137500910Y-110138168D01*
X137487026Y-110119448D01*
X137475044Y-110099457D01*
X137465079Y-110078387D01*
X137457227Y-110056443D01*
X137451563Y-110033834D01*
X137448144Y-110010779D01*
X137447000Y-109987500D01*
X137447000Y-109412500D01*
X137448144Y-109389221D01*
X137451563Y-109366166D01*
X137457227Y-109343557D01*
X137465079Y-109321613D01*
X137475044Y-109300543D01*
X137487026Y-109280552D01*
X137500910Y-109261832D01*
X137516562Y-109244562D01*
X137533832Y-109228910D01*
X137552552Y-109215026D01*
X137572543Y-109203044D01*
X137593613Y-109193079D01*
X137615557Y-109185227D01*
X137638166Y-109179563D01*
X137661221Y-109176144D01*
X137684500Y-109175000D01*
X138159500Y-109175000D01*
X138182779Y-109176144D01*
X138182779Y-109176144D01*
G37*
D12*
G04 #@! TD*
G04 #@! TO.P,R15,2*
G04 #@! TO.N,/PROG*
X137922000Y-109700000D03*
D11*
G04 #@! TO.N,Net-(D5-Pad1)*
G04 #@! TO.C,R16*
G36*
X138182779Y-116824144D02*
X138205834Y-116827563D01*
X138228443Y-116833227D01*
X138250387Y-116841079D01*
X138271457Y-116851044D01*
X138291448Y-116863026D01*
X138310168Y-116876910D01*
X138327438Y-116892562D01*
X138343090Y-116909832D01*
X138356974Y-116928552D01*
X138368956Y-116948543D01*
X138378921Y-116969613D01*
X138386773Y-116991557D01*
X138392437Y-117014166D01*
X138395856Y-117037221D01*
X138397000Y-117060500D01*
X138397000Y-117635500D01*
X138395856Y-117658779D01*
X138392437Y-117681834D01*
X138386773Y-117704443D01*
X138378921Y-117726387D01*
X138368956Y-117747457D01*
X138356974Y-117767448D01*
X138343090Y-117786168D01*
X138327438Y-117803438D01*
X138310168Y-117819090D01*
X138291448Y-117832974D01*
X138271457Y-117844956D01*
X138250387Y-117854921D01*
X138228443Y-117862773D01*
X138205834Y-117868437D01*
X138182779Y-117871856D01*
X138159500Y-117873000D01*
X137684500Y-117873000D01*
X137661221Y-117871856D01*
X137638166Y-117868437D01*
X137615557Y-117862773D01*
X137593613Y-117854921D01*
X137572543Y-117844956D01*
X137552552Y-117832974D01*
X137533832Y-117819090D01*
X137516562Y-117803438D01*
X137500910Y-117786168D01*
X137487026Y-117767448D01*
X137475044Y-117747457D01*
X137465079Y-117726387D01*
X137457227Y-117704443D01*
X137451563Y-117681834D01*
X137448144Y-117658779D01*
X137447000Y-117635500D01*
X137447000Y-117060500D01*
X137448144Y-117037221D01*
X137451563Y-117014166D01*
X137457227Y-116991557D01*
X137465079Y-116969613D01*
X137475044Y-116948543D01*
X137487026Y-116928552D01*
X137500910Y-116909832D01*
X137516562Y-116892562D01*
X137533832Y-116876910D01*
X137552552Y-116863026D01*
X137572543Y-116851044D01*
X137593613Y-116841079D01*
X137615557Y-116833227D01*
X137638166Y-116827563D01*
X137661221Y-116824144D01*
X137684500Y-116823000D01*
X138159500Y-116823000D01*
X138182779Y-116824144D01*
X138182779Y-116824144D01*
G37*
D12*
G04 #@! TD*
G04 #@! TO.P,R16,1*
G04 #@! TO.N,Net-(D5-Pad1)*
X137922000Y-117348000D03*
D11*
G04 #@! TO.N,/EN*
G04 #@! TO.C,R16*
G36*
X138182779Y-115074144D02*
X138205834Y-115077563D01*
X138228443Y-115083227D01*
X138250387Y-115091079D01*
X138271457Y-115101044D01*
X138291448Y-115113026D01*
X138310168Y-115126910D01*
X138327438Y-115142562D01*
X138343090Y-115159832D01*
X138356974Y-115178552D01*
X138368956Y-115198543D01*
X138378921Y-115219613D01*
X138386773Y-115241557D01*
X138392437Y-115264166D01*
X138395856Y-115287221D01*
X138397000Y-115310500D01*
X138397000Y-115885500D01*
X138395856Y-115908779D01*
X138392437Y-115931834D01*
X138386773Y-115954443D01*
X138378921Y-115976387D01*
X138368956Y-115997457D01*
X138356974Y-116017448D01*
X138343090Y-116036168D01*
X138327438Y-116053438D01*
X138310168Y-116069090D01*
X138291448Y-116082974D01*
X138271457Y-116094956D01*
X138250387Y-116104921D01*
X138228443Y-116112773D01*
X138205834Y-116118437D01*
X138182779Y-116121856D01*
X138159500Y-116123000D01*
X137684500Y-116123000D01*
X137661221Y-116121856D01*
X137638166Y-116118437D01*
X137615557Y-116112773D01*
X137593613Y-116104921D01*
X137572543Y-116094956D01*
X137552552Y-116082974D01*
X137533832Y-116069090D01*
X137516562Y-116053438D01*
X137500910Y-116036168D01*
X137487026Y-116017448D01*
X137475044Y-115997457D01*
X137465079Y-115976387D01*
X137457227Y-115954443D01*
X137451563Y-115931834D01*
X137448144Y-115908779D01*
X137447000Y-115885500D01*
X137447000Y-115310500D01*
X137448144Y-115287221D01*
X137451563Y-115264166D01*
X137457227Y-115241557D01*
X137465079Y-115219613D01*
X137475044Y-115198543D01*
X137487026Y-115178552D01*
X137500910Y-115159832D01*
X137516562Y-115142562D01*
X137533832Y-115126910D01*
X137552552Y-115113026D01*
X137572543Y-115101044D01*
X137593613Y-115091079D01*
X137615557Y-115083227D01*
X137638166Y-115077563D01*
X137661221Y-115074144D01*
X137684500Y-115073000D01*
X138159500Y-115073000D01*
X138182779Y-115074144D01*
X138182779Y-115074144D01*
G37*
D12*
G04 #@! TD*
G04 #@! TO.P,R16,2*
G04 #@! TO.N,/EN*
X137922000Y-115598000D03*
D11*
G04 #@! TO.N,GND*
G04 #@! TO.C,R17*
G36*
X138233579Y-111351744D02*
X138256634Y-111355163D01*
X138279243Y-111360827D01*
X138301187Y-111368679D01*
X138322257Y-111378644D01*
X138342248Y-111390626D01*
X138360968Y-111404510D01*
X138378238Y-111420162D01*
X138393890Y-111437432D01*
X138407774Y-111456152D01*
X138419756Y-111476143D01*
X138429721Y-111497213D01*
X138437573Y-111519157D01*
X138443237Y-111541766D01*
X138446656Y-111564821D01*
X138447800Y-111588100D01*
X138447800Y-112163100D01*
X138446656Y-112186379D01*
X138443237Y-112209434D01*
X138437573Y-112232043D01*
X138429721Y-112253987D01*
X138419756Y-112275057D01*
X138407774Y-112295048D01*
X138393890Y-112313768D01*
X138378238Y-112331038D01*
X138360968Y-112346690D01*
X138342248Y-112360574D01*
X138322257Y-112372556D01*
X138301187Y-112382521D01*
X138279243Y-112390373D01*
X138256634Y-112396037D01*
X138233579Y-112399456D01*
X138210300Y-112400600D01*
X137735300Y-112400600D01*
X137712021Y-112399456D01*
X137688966Y-112396037D01*
X137666357Y-112390373D01*
X137644413Y-112382521D01*
X137623343Y-112372556D01*
X137603352Y-112360574D01*
X137584632Y-112346690D01*
X137567362Y-112331038D01*
X137551710Y-112313768D01*
X137537826Y-112295048D01*
X137525844Y-112275057D01*
X137515879Y-112253987D01*
X137508027Y-112232043D01*
X137502363Y-112209434D01*
X137498944Y-112186379D01*
X137497800Y-112163100D01*
X137497800Y-111588100D01*
X137498944Y-111564821D01*
X137502363Y-111541766D01*
X137508027Y-111519157D01*
X137515879Y-111497213D01*
X137525844Y-111476143D01*
X137537826Y-111456152D01*
X137551710Y-111437432D01*
X137567362Y-111420162D01*
X137584632Y-111404510D01*
X137603352Y-111390626D01*
X137623343Y-111378644D01*
X137644413Y-111368679D01*
X137666357Y-111360827D01*
X137688966Y-111355163D01*
X137712021Y-111351744D01*
X137735300Y-111350600D01*
X138210300Y-111350600D01*
X138233579Y-111351744D01*
X138233579Y-111351744D01*
G37*
D12*
G04 #@! TD*
G04 #@! TO.P,R17,2*
G04 #@! TO.N,GND*
X137972800Y-111875600D03*
D11*
G04 #@! TO.N,Net-(R17-Pad1)*
G04 #@! TO.C,R17*
G36*
X138233579Y-113101744D02*
X138256634Y-113105163D01*
X138279243Y-113110827D01*
X138301187Y-113118679D01*
X138322257Y-113128644D01*
X138342248Y-113140626D01*
X138360968Y-113154510D01*
X138378238Y-113170162D01*
X138393890Y-113187432D01*
X138407774Y-113206152D01*
X138419756Y-113226143D01*
X138429721Y-113247213D01*
X138437573Y-113269157D01*
X138443237Y-113291766D01*
X138446656Y-113314821D01*
X138447800Y-113338100D01*
X138447800Y-113913100D01*
X138446656Y-113936379D01*
X138443237Y-113959434D01*
X138437573Y-113982043D01*
X138429721Y-114003987D01*
X138419756Y-114025057D01*
X138407774Y-114045048D01*
X138393890Y-114063768D01*
X138378238Y-114081038D01*
X138360968Y-114096690D01*
X138342248Y-114110574D01*
X138322257Y-114122556D01*
X138301187Y-114132521D01*
X138279243Y-114140373D01*
X138256634Y-114146037D01*
X138233579Y-114149456D01*
X138210300Y-114150600D01*
X137735300Y-114150600D01*
X137712021Y-114149456D01*
X137688966Y-114146037D01*
X137666357Y-114140373D01*
X137644413Y-114132521D01*
X137623343Y-114122556D01*
X137603352Y-114110574D01*
X137584632Y-114096690D01*
X137567362Y-114081038D01*
X137551710Y-114063768D01*
X137537826Y-114045048D01*
X137525844Y-114025057D01*
X137515879Y-114003987D01*
X137508027Y-113982043D01*
X137502363Y-113959434D01*
X137498944Y-113936379D01*
X137497800Y-113913100D01*
X137497800Y-113338100D01*
X137498944Y-113314821D01*
X137502363Y-113291766D01*
X137508027Y-113269157D01*
X137515879Y-113247213D01*
X137525844Y-113226143D01*
X137537826Y-113206152D01*
X137551710Y-113187432D01*
X137567362Y-113170162D01*
X137584632Y-113154510D01*
X137603352Y-113140626D01*
X137623343Y-113128644D01*
X137644413Y-113118679D01*
X137666357Y-113110827D01*
X137688966Y-113105163D01*
X137712021Y-113101744D01*
X137735300Y-113100600D01*
X138210300Y-113100600D01*
X138233579Y-113101744D01*
X138233579Y-113101744D01*
G37*
D12*
G04 #@! TD*
G04 #@! TO.P,R17,1*
G04 #@! TO.N,Net-(R17-Pad1)*
X137972800Y-113625600D03*
D11*
G04 #@! TO.N,Net-(R19-Pad2)*
G04 #@! TO.C,R19*
G36*
X159772779Y-107793144D02*
X159795834Y-107796563D01*
X159818443Y-107802227D01*
X159840387Y-107810079D01*
X159861457Y-107820044D01*
X159881448Y-107832026D01*
X159900168Y-107845910D01*
X159917438Y-107861562D01*
X159933090Y-107878832D01*
X159946974Y-107897552D01*
X159958956Y-107917543D01*
X159968921Y-107938613D01*
X159976773Y-107960557D01*
X159982437Y-107983166D01*
X159985856Y-108006221D01*
X159987000Y-108029500D01*
X159987000Y-108604500D01*
X159985856Y-108627779D01*
X159982437Y-108650834D01*
X159976773Y-108673443D01*
X159968921Y-108695387D01*
X159958956Y-108716457D01*
X159946974Y-108736448D01*
X159933090Y-108755168D01*
X159917438Y-108772438D01*
X159900168Y-108788090D01*
X159881448Y-108801974D01*
X159861457Y-108813956D01*
X159840387Y-108823921D01*
X159818443Y-108831773D01*
X159795834Y-108837437D01*
X159772779Y-108840856D01*
X159749500Y-108842000D01*
X159274500Y-108842000D01*
X159251221Y-108840856D01*
X159228166Y-108837437D01*
X159205557Y-108831773D01*
X159183613Y-108823921D01*
X159162543Y-108813956D01*
X159142552Y-108801974D01*
X159123832Y-108788090D01*
X159106562Y-108772438D01*
X159090910Y-108755168D01*
X159077026Y-108736448D01*
X159065044Y-108716457D01*
X159055079Y-108695387D01*
X159047227Y-108673443D01*
X159041563Y-108650834D01*
X159038144Y-108627779D01*
X159037000Y-108604500D01*
X159037000Y-108029500D01*
X159038144Y-108006221D01*
X159041563Y-107983166D01*
X159047227Y-107960557D01*
X159055079Y-107938613D01*
X159065044Y-107917543D01*
X159077026Y-107897552D01*
X159090910Y-107878832D01*
X159106562Y-107861562D01*
X159123832Y-107845910D01*
X159142552Y-107832026D01*
X159162543Y-107820044D01*
X159183613Y-107810079D01*
X159205557Y-107802227D01*
X159228166Y-107796563D01*
X159251221Y-107793144D01*
X159274500Y-107792000D01*
X159749500Y-107792000D01*
X159772779Y-107793144D01*
X159772779Y-107793144D01*
G37*
D12*
G04 #@! TD*
G04 #@! TO.P,R19,2*
G04 #@! TO.N,Net-(R19-Pad2)*
X159512000Y-108317000D03*
D11*
G04 #@! TO.N,GND*
G04 #@! TO.C,R19*
G36*
X159772779Y-106043144D02*
X159795834Y-106046563D01*
X159818443Y-106052227D01*
X159840387Y-106060079D01*
X159861457Y-106070044D01*
X159881448Y-106082026D01*
X159900168Y-106095910D01*
X159917438Y-106111562D01*
X159933090Y-106128832D01*
X159946974Y-106147552D01*
X159958956Y-106167543D01*
X159968921Y-106188613D01*
X159976773Y-106210557D01*
X159982437Y-106233166D01*
X159985856Y-106256221D01*
X159987000Y-106279500D01*
X159987000Y-106854500D01*
X159985856Y-106877779D01*
X159982437Y-106900834D01*
X159976773Y-106923443D01*
X159968921Y-106945387D01*
X159958956Y-106966457D01*
X159946974Y-106986448D01*
X159933090Y-107005168D01*
X159917438Y-107022438D01*
X159900168Y-107038090D01*
X159881448Y-107051974D01*
X159861457Y-107063956D01*
X159840387Y-107073921D01*
X159818443Y-107081773D01*
X159795834Y-107087437D01*
X159772779Y-107090856D01*
X159749500Y-107092000D01*
X159274500Y-107092000D01*
X159251221Y-107090856D01*
X159228166Y-107087437D01*
X159205557Y-107081773D01*
X159183613Y-107073921D01*
X159162543Y-107063956D01*
X159142552Y-107051974D01*
X159123832Y-107038090D01*
X159106562Y-107022438D01*
X159090910Y-107005168D01*
X159077026Y-106986448D01*
X159065044Y-106966457D01*
X159055079Y-106945387D01*
X159047227Y-106923443D01*
X159041563Y-106900834D01*
X159038144Y-106877779D01*
X159037000Y-106854500D01*
X159037000Y-106279500D01*
X159038144Y-106256221D01*
X159041563Y-106233166D01*
X159047227Y-106210557D01*
X159055079Y-106188613D01*
X159065044Y-106167543D01*
X159077026Y-106147552D01*
X159090910Y-106128832D01*
X159106562Y-106111562D01*
X159123832Y-106095910D01*
X159142552Y-106082026D01*
X159162543Y-106070044D01*
X159183613Y-106060079D01*
X159205557Y-106052227D01*
X159228166Y-106046563D01*
X159251221Y-106043144D01*
X159274500Y-106042000D01*
X159749500Y-106042000D01*
X159772779Y-106043144D01*
X159772779Y-106043144D01*
G37*
D12*
G04 #@! TD*
G04 #@! TO.P,R19,1*
G04 #@! TO.N,GND*
X159512000Y-106567000D03*
D11*
G04 #@! TO.N,GND*
G04 #@! TO.C,R20*
G36*
X148736979Y-67191744D02*
X148760034Y-67195163D01*
X148782643Y-67200827D01*
X148804587Y-67208679D01*
X148825657Y-67218644D01*
X148845648Y-67230626D01*
X148864368Y-67244510D01*
X148881638Y-67260162D01*
X148897290Y-67277432D01*
X148911174Y-67296152D01*
X148923156Y-67316143D01*
X148933121Y-67337213D01*
X148940973Y-67359157D01*
X148946637Y-67381766D01*
X148950056Y-67404821D01*
X148951200Y-67428100D01*
X148951200Y-67903100D01*
X148950056Y-67926379D01*
X148946637Y-67949434D01*
X148940973Y-67972043D01*
X148933121Y-67993987D01*
X148923156Y-68015057D01*
X148911174Y-68035048D01*
X148897290Y-68053768D01*
X148881638Y-68071038D01*
X148864368Y-68086690D01*
X148845648Y-68100574D01*
X148825657Y-68112556D01*
X148804587Y-68122521D01*
X148782643Y-68130373D01*
X148760034Y-68136037D01*
X148736979Y-68139456D01*
X148713700Y-68140600D01*
X148138700Y-68140600D01*
X148115421Y-68139456D01*
X148092366Y-68136037D01*
X148069757Y-68130373D01*
X148047813Y-68122521D01*
X148026743Y-68112556D01*
X148006752Y-68100574D01*
X147988032Y-68086690D01*
X147970762Y-68071038D01*
X147955110Y-68053768D01*
X147941226Y-68035048D01*
X147929244Y-68015057D01*
X147919279Y-67993987D01*
X147911427Y-67972043D01*
X147905763Y-67949434D01*
X147902344Y-67926379D01*
X147901200Y-67903100D01*
X147901200Y-67428100D01*
X147902344Y-67404821D01*
X147905763Y-67381766D01*
X147911427Y-67359157D01*
X147919279Y-67337213D01*
X147929244Y-67316143D01*
X147941226Y-67296152D01*
X147955110Y-67277432D01*
X147970762Y-67260162D01*
X147988032Y-67244510D01*
X148006752Y-67230626D01*
X148026743Y-67218644D01*
X148047813Y-67208679D01*
X148069757Y-67200827D01*
X148092366Y-67195163D01*
X148115421Y-67191744D01*
X148138700Y-67190600D01*
X148713700Y-67190600D01*
X148736979Y-67191744D01*
X148736979Y-67191744D01*
G37*
D12*
G04 #@! TD*
G04 #@! TO.P,R20,1*
G04 #@! TO.N,GND*
X148426200Y-67665600D03*
D11*
G04 #@! TO.N,/PIR*
G04 #@! TO.C,R20*
G36*
X150486979Y-67191744D02*
X150510034Y-67195163D01*
X150532643Y-67200827D01*
X150554587Y-67208679D01*
X150575657Y-67218644D01*
X150595648Y-67230626D01*
X150614368Y-67244510D01*
X150631638Y-67260162D01*
X150647290Y-67277432D01*
X150661174Y-67296152D01*
X150673156Y-67316143D01*
X150683121Y-67337213D01*
X150690973Y-67359157D01*
X150696637Y-67381766D01*
X150700056Y-67404821D01*
X150701200Y-67428100D01*
X150701200Y-67903100D01*
X150700056Y-67926379D01*
X150696637Y-67949434D01*
X150690973Y-67972043D01*
X150683121Y-67993987D01*
X150673156Y-68015057D01*
X150661174Y-68035048D01*
X150647290Y-68053768D01*
X150631638Y-68071038D01*
X150614368Y-68086690D01*
X150595648Y-68100574D01*
X150575657Y-68112556D01*
X150554587Y-68122521D01*
X150532643Y-68130373D01*
X150510034Y-68136037D01*
X150486979Y-68139456D01*
X150463700Y-68140600D01*
X149888700Y-68140600D01*
X149865421Y-68139456D01*
X149842366Y-68136037D01*
X149819757Y-68130373D01*
X149797813Y-68122521D01*
X149776743Y-68112556D01*
X149756752Y-68100574D01*
X149738032Y-68086690D01*
X149720762Y-68071038D01*
X149705110Y-68053768D01*
X149691226Y-68035048D01*
X149679244Y-68015057D01*
X149669279Y-67993987D01*
X149661427Y-67972043D01*
X149655763Y-67949434D01*
X149652344Y-67926379D01*
X149651200Y-67903100D01*
X149651200Y-67428100D01*
X149652344Y-67404821D01*
X149655763Y-67381766D01*
X149661427Y-67359157D01*
X149669279Y-67337213D01*
X149679244Y-67316143D01*
X149691226Y-67296152D01*
X149705110Y-67277432D01*
X149720762Y-67260162D01*
X149738032Y-67244510D01*
X149756752Y-67230626D01*
X149776743Y-67218644D01*
X149797813Y-67208679D01*
X149819757Y-67200827D01*
X149842366Y-67195163D01*
X149865421Y-67191744D01*
X149888700Y-67190600D01*
X150463700Y-67190600D01*
X150486979Y-67191744D01*
X150486979Y-67191744D01*
G37*
D12*
G04 #@! TD*
G04 #@! TO.P,R20,2*
G04 #@! TO.N,/PIR*
X150176200Y-67665600D03*
D11*
G04 #@! TO.N,/V_USB*
G04 #@! TO.C,R22*
G36*
X153803779Y-117597544D02*
X153826834Y-117600963D01*
X153849443Y-117606627D01*
X153871387Y-117614479D01*
X153892457Y-117624444D01*
X153912448Y-117636426D01*
X153931168Y-117650310D01*
X153948438Y-117665962D01*
X153964090Y-117683232D01*
X153977974Y-117701952D01*
X153989956Y-117721943D01*
X153999921Y-117743013D01*
X154007773Y-117764957D01*
X154013437Y-117787566D01*
X154016856Y-117810621D01*
X154018000Y-117833900D01*
X154018000Y-118408900D01*
X154016856Y-118432179D01*
X154013437Y-118455234D01*
X154007773Y-118477843D01*
X153999921Y-118499787D01*
X153989956Y-118520857D01*
X153977974Y-118540848D01*
X153964090Y-118559568D01*
X153948438Y-118576838D01*
X153931168Y-118592490D01*
X153912448Y-118606374D01*
X153892457Y-118618356D01*
X153871387Y-118628321D01*
X153849443Y-118636173D01*
X153826834Y-118641837D01*
X153803779Y-118645256D01*
X153780500Y-118646400D01*
X153305500Y-118646400D01*
X153282221Y-118645256D01*
X153259166Y-118641837D01*
X153236557Y-118636173D01*
X153214613Y-118628321D01*
X153193543Y-118618356D01*
X153173552Y-118606374D01*
X153154832Y-118592490D01*
X153137562Y-118576838D01*
X153121910Y-118559568D01*
X153108026Y-118540848D01*
X153096044Y-118520857D01*
X153086079Y-118499787D01*
X153078227Y-118477843D01*
X153072563Y-118455234D01*
X153069144Y-118432179D01*
X153068000Y-118408900D01*
X153068000Y-117833900D01*
X153069144Y-117810621D01*
X153072563Y-117787566D01*
X153078227Y-117764957D01*
X153086079Y-117743013D01*
X153096044Y-117721943D01*
X153108026Y-117701952D01*
X153121910Y-117683232D01*
X153137562Y-117665962D01*
X153154832Y-117650310D01*
X153173552Y-117636426D01*
X153193543Y-117624444D01*
X153214613Y-117614479D01*
X153236557Y-117606627D01*
X153259166Y-117600963D01*
X153282221Y-117597544D01*
X153305500Y-117596400D01*
X153780500Y-117596400D01*
X153803779Y-117597544D01*
X153803779Y-117597544D01*
G37*
D12*
G04 #@! TD*
G04 #@! TO.P,R22,1*
G04 #@! TO.N,/V_USB*
X153543000Y-118121400D03*
D11*
G04 #@! TO.N,GND*
G04 #@! TO.C,R22*
G36*
X153803779Y-115847544D02*
X153826834Y-115850963D01*
X153849443Y-115856627D01*
X153871387Y-115864479D01*
X153892457Y-115874444D01*
X153912448Y-115886426D01*
X153931168Y-115900310D01*
X153948438Y-115915962D01*
X153964090Y-115933232D01*
X153977974Y-115951952D01*
X153989956Y-115971943D01*
X153999921Y-115993013D01*
X154007773Y-116014957D01*
X154013437Y-116037566D01*
X154016856Y-116060621D01*
X154018000Y-116083900D01*
X154018000Y-116658900D01*
X154016856Y-116682179D01*
X154013437Y-116705234D01*
X154007773Y-116727843D01*
X153999921Y-116749787D01*
X153989956Y-116770857D01*
X153977974Y-116790848D01*
X153964090Y-116809568D01*
X153948438Y-116826838D01*
X153931168Y-116842490D01*
X153912448Y-116856374D01*
X153892457Y-116868356D01*
X153871387Y-116878321D01*
X153849443Y-116886173D01*
X153826834Y-116891837D01*
X153803779Y-116895256D01*
X153780500Y-116896400D01*
X153305500Y-116896400D01*
X153282221Y-116895256D01*
X153259166Y-116891837D01*
X153236557Y-116886173D01*
X153214613Y-116878321D01*
X153193543Y-116868356D01*
X153173552Y-116856374D01*
X153154832Y-116842490D01*
X153137562Y-116826838D01*
X153121910Y-116809568D01*
X153108026Y-116790848D01*
X153096044Y-116770857D01*
X153086079Y-116749787D01*
X153078227Y-116727843D01*
X153072563Y-116705234D01*
X153069144Y-116682179D01*
X153068000Y-116658900D01*
X153068000Y-116083900D01*
X153069144Y-116060621D01*
X153072563Y-116037566D01*
X153078227Y-116014957D01*
X153086079Y-115993013D01*
X153096044Y-115971943D01*
X153108026Y-115951952D01*
X153121910Y-115933232D01*
X153137562Y-115915962D01*
X153154832Y-115900310D01*
X153173552Y-115886426D01*
X153193543Y-115874444D01*
X153214613Y-115864479D01*
X153236557Y-115856627D01*
X153259166Y-115850963D01*
X153282221Y-115847544D01*
X153305500Y-115846400D01*
X153780500Y-115846400D01*
X153803779Y-115847544D01*
X153803779Y-115847544D01*
G37*
D12*
G04 #@! TD*
G04 #@! TO.P,R22,2*
G04 #@! TO.N,GND*
X153543000Y-116371400D03*
D23*
G04 #@! TO.P,U1,3*
G04 #@! TO.N,/EN*
X155498800Y-82651600D03*
G04 #@! TO.P,U1,36*
G04 #@! TO.N,/I2S_DATA_IN*
X137464800Y-82679600D03*
D24*
G04 #@! TO.P,U1,23*
G04 #@! TO.N,/PIR*
X142036800Y-98145600D03*
G04 #@! TO.P,U1,24*
G04 #@! TO.N,/RELAY_1*
X140766800Y-98145600D03*
G04 #@! TO.P,U1,19*
G04 #@! TO.N,Net-(U1-Pad19)*
X147116800Y-98145600D03*
G04 #@! TO.P,U1,20*
G04 #@! TO.N,Net-(U1-Pad20)*
X145846800Y-98145600D03*
G04 #@! TO.P,U1,22*
G04 #@! TO.N,Net-(U1-Pad22)*
X143306800Y-98145600D03*
G04 #@! TO.P,U1,21*
G04 #@! TO.N,Net-(U1-Pad21)*
X144576800Y-98145600D03*
G04 #@! TO.P,U1,17*
G04 #@! TO.N,Net-(U1-Pad17)*
X149656800Y-98145600D03*
G04 #@! TO.P,U1,18*
G04 #@! TO.N,Net-(U1-Pad18)*
X148386800Y-98145600D03*
G04 #@! TO.P,U1,16*
G04 #@! TO.N,Net-(U1-Pad16)*
X150926800Y-98145600D03*
G04 #@! TO.P,U1,1*
G04 #@! TO.N,GND*
X152196800Y-98145600D03*
D23*
X137480800Y-80131600D03*
G04 #@! TO.P,U1,37*
G04 #@! TO.N,Net-(R7-Pad2)*
X137464800Y-81409600D03*
G04 #@! TO.P,U1,34*
G04 #@! TO.N,/RXD*
X137464800Y-85219600D03*
G04 #@! TO.P,U1,35*
G04 #@! TO.N,/TXD*
X137480800Y-83941600D03*
G04 #@! TO.P,U1,31*
G04 #@! TO.N,/SDA*
X137480800Y-89021600D03*
G04 #@! TO.P,U1,30*
G04 #@! TO.N,/BUTTON_LED*
X137464800Y-90299600D03*
G04 #@! TO.P,U1,32*
G04 #@! TO.N,N/C*
X137464800Y-87759600D03*
G04 #@! TO.P,U1,33*
G04 #@! TO.N,/SCL*
X137480800Y-86481600D03*
G04 #@! TO.P,U1,25*
G04 #@! TO.N,/PROG*
X137480800Y-96641600D03*
G04 #@! TO.P,U1,27*
G04 #@! TO.N,/IR_RX*
X137480800Y-94101600D03*
G04 #@! TO.P,U1,26*
G04 #@! TO.N,/IR_TX*
X137464800Y-95379600D03*
G04 #@! TO.P,U1,28*
G04 #@! TO.N,/RELAY_3*
X137464800Y-92839600D03*
G04 #@! TO.P,U1,29*
G04 #@! TO.N,/RELAY_2*
X137480800Y-91561600D03*
G04 #@! TO.P,U1,10*
G04 #@! TO.N,/I2S_DATA_OUT*
X155514800Y-91561600D03*
G04 #@! TO.P,U1,11*
G04 #@! TO.N,Net-(R1-Pad1)*
X155498800Y-92839600D03*
G04 #@! TO.P,U1,13*
G04 #@! TO.N,/FACTORY_RST*
X155498800Y-95379600D03*
G04 #@! TO.P,U1,12*
G04 #@! TO.N,/T_UP*
X155514800Y-94101600D03*
G04 #@! TO.P,U1,14*
G04 #@! TO.N,/T_DOWN*
X155514800Y-96641600D03*
G04 #@! TO.P,U1,6*
G04 #@! TO.N,/RELAY_4*
X155514800Y-86481600D03*
G04 #@! TO.P,U1,7*
G04 #@! TO.N,/ZERO_DETECT*
X155498800Y-87759600D03*
G04 #@! TO.P,U1,9*
G04 #@! TO.N,/T_RIGHT*
X155498800Y-90299600D03*
G04 #@! TO.P,U1,8*
G04 #@! TO.N,/T_LEFT*
X155514800Y-89021600D03*
G04 #@! TO.P,U1,4*
G04 #@! TO.N,Net-(U1-Pad4)*
X155514800Y-83941600D03*
G04 #@! TO.P,U1,5*
G04 #@! TO.N,Net-(U1-Pad5)*
X155498800Y-85219600D03*
G04 #@! TO.P,U1,2*
G04 #@! TO.N,/3V3*
X155498800Y-81381600D03*
G04 #@! TO.P,U1,1*
G04 #@! TO.N,GND*
X155498800Y-80111600D03*
D25*
X147172680Y-88798400D03*
G04 #@! TD*
D26*
G04 #@! TO.P,U3,3*
G04 #@! TO.N,GND*
X139576400Y-60426800D03*
G04 #@! TD*
D27*
G04 #@! TO.P,U4,5*
G04 #@! TO.N,Net-(R19-Pad2)*
X159674600Y-110558600D03*
G04 #@! TO.P,U4,4*
G04 #@! TO.N,/V_USB*
X157774600Y-110558600D03*
G04 #@! TO.P,U4,3*
G04 #@! TO.N,/V_BAT*
X157774600Y-113258600D03*
G04 #@! TO.P,U4,2*
G04 #@! TO.N,GND*
X158724600Y-113258600D03*
G04 #@! TO.P,U4,1*
G04 #@! TO.N,Net-(D3-Pad1)*
X159674600Y-113258600D03*
G04 #@! TD*
D28*
G04 #@! TO.P,U5,12*
G04 #@! TO.N,N/C*
X142831000Y-113533400D03*
G04 #@! TO.P,U5,3*
G04 #@! TO.N,GND*
X142831000Y-113033400D03*
G04 #@! TO.P,U5,10*
G04 #@! TO.N,Net-(LS1-Pad1)*
X142831000Y-112533400D03*
G04 #@! TO.P,U5,9*
G04 #@! TO.N,Net-(LS1-Pad2)*
X142831000Y-112033400D03*
D29*
G04 #@! TO.P,U5,13*
G04 #@! TO.N,N/C*
X142131000Y-114293400D03*
G04 #@! TO.P,U5,14*
G04 #@! TO.N,/I2S_WS*
X141631000Y-114293400D03*
G04 #@! TO.P,U5,3*
G04 #@! TO.N,GND*
X141131000Y-114293400D03*
G04 #@! TO.P,U5,16*
G04 #@! TO.N,/I2S_BCLK*
X140631000Y-114293400D03*
G04 #@! TO.P,U5,5*
G04 #@! TO.N,N/C*
X140631000Y-111313400D03*
G04 #@! TO.P,U5,6*
X141131000Y-111313400D03*
G04 #@! TO.P,U5,7*
G04 #@! TO.N,/V_IN*
X141631000Y-111313400D03*
X142131000Y-111313400D03*
D28*
G04 #@! TO.P,U5,2*
G04 #@! TO.N,Net-(R17-Pad1)*
X139911000Y-113073400D03*
G04 #@! TO.P,U5,1*
G04 #@! TO.N,/I2S_DATA_OUT*
X139911000Y-113573400D03*
G04 #@! TO.P,U5,3*
G04 #@! TO.N,GND*
X139911000Y-112573400D03*
G04 #@! TO.P,U5,4*
G04 #@! TO.N,/V_IN*
X139911000Y-112073400D03*
G04 #@! TD*
D27*
G04 #@! TO.P,U9,1*
G04 #@! TO.N,/V_IN*
X153633200Y-113694200D03*
G04 #@! TO.P,U9,2*
G04 #@! TO.N,GND*
X152683200Y-113694200D03*
G04 #@! TO.P,U9,3*
G04 #@! TO.N,/V_IN*
X151733200Y-113694200D03*
G04 #@! TO.P,U9,4*
G04 #@! TO.N,N/C*
X151733200Y-110994200D03*
G04 #@! TO.P,U9,5*
G04 #@! TO.N,/3V3*
X153633200Y-110994200D03*
G04 #@! TD*
D11*
G04 #@! TO.N,/3V3*
G04 #@! TO.C,C3*
G36*
X146685779Y-57676144D02*
X146708834Y-57679563D01*
X146731443Y-57685227D01*
X146753387Y-57693079D01*
X146774457Y-57703044D01*
X146794448Y-57715026D01*
X146813168Y-57728910D01*
X146830438Y-57744562D01*
X146846090Y-57761832D01*
X146859974Y-57780552D01*
X146871956Y-57800543D01*
X146881921Y-57821613D01*
X146889773Y-57843557D01*
X146895437Y-57866166D01*
X146898856Y-57889221D01*
X146900000Y-57912500D01*
X146900000Y-58387500D01*
X146898856Y-58410779D01*
X146895437Y-58433834D01*
X146889773Y-58456443D01*
X146881921Y-58478387D01*
X146871956Y-58499457D01*
X146859974Y-58519448D01*
X146846090Y-58538168D01*
X146830438Y-58555438D01*
X146813168Y-58571090D01*
X146794448Y-58584974D01*
X146774457Y-58596956D01*
X146753387Y-58606921D01*
X146731443Y-58614773D01*
X146708834Y-58620437D01*
X146685779Y-58623856D01*
X146662500Y-58625000D01*
X146087500Y-58625000D01*
X146064221Y-58623856D01*
X146041166Y-58620437D01*
X146018557Y-58614773D01*
X145996613Y-58606921D01*
X145975543Y-58596956D01*
X145955552Y-58584974D01*
X145936832Y-58571090D01*
X145919562Y-58555438D01*
X145903910Y-58538168D01*
X145890026Y-58519448D01*
X145878044Y-58499457D01*
X145868079Y-58478387D01*
X145860227Y-58456443D01*
X145854563Y-58433834D01*
X145851144Y-58410779D01*
X145850000Y-58387500D01*
X145850000Y-57912500D01*
X145851144Y-57889221D01*
X145854563Y-57866166D01*
X145860227Y-57843557D01*
X145868079Y-57821613D01*
X145878044Y-57800543D01*
X145890026Y-57780552D01*
X145903910Y-57761832D01*
X145919562Y-57744562D01*
X145936832Y-57728910D01*
X145955552Y-57715026D01*
X145975543Y-57703044D01*
X145996613Y-57693079D01*
X146018557Y-57685227D01*
X146041166Y-57679563D01*
X146064221Y-57676144D01*
X146087500Y-57675000D01*
X146662500Y-57675000D01*
X146685779Y-57676144D01*
X146685779Y-57676144D01*
G37*
D12*
G04 #@! TD*
G04 #@! TO.P,C3,1*
G04 #@! TO.N,/3V3*
X146375000Y-58150000D03*
D11*
G04 #@! TO.N,GND*
G04 #@! TO.C,C3*
G36*
X148435779Y-57676144D02*
X148458834Y-57679563D01*
X148481443Y-57685227D01*
X148503387Y-57693079D01*
X148524457Y-57703044D01*
X148544448Y-57715026D01*
X148563168Y-57728910D01*
X148580438Y-57744562D01*
X148596090Y-57761832D01*
X148609974Y-57780552D01*
X148621956Y-57800543D01*
X148631921Y-57821613D01*
X148639773Y-57843557D01*
X148645437Y-57866166D01*
X148648856Y-57889221D01*
X148650000Y-57912500D01*
X148650000Y-58387500D01*
X148648856Y-58410779D01*
X148645437Y-58433834D01*
X148639773Y-58456443D01*
X148631921Y-58478387D01*
X148621956Y-58499457D01*
X148609974Y-58519448D01*
X148596090Y-58538168D01*
X148580438Y-58555438D01*
X148563168Y-58571090D01*
X148544448Y-58584974D01*
X148524457Y-58596956D01*
X148503387Y-58606921D01*
X148481443Y-58614773D01*
X148458834Y-58620437D01*
X148435779Y-58623856D01*
X148412500Y-58625000D01*
X147837500Y-58625000D01*
X147814221Y-58623856D01*
X147791166Y-58620437D01*
X147768557Y-58614773D01*
X147746613Y-58606921D01*
X147725543Y-58596956D01*
X147705552Y-58584974D01*
X147686832Y-58571090D01*
X147669562Y-58555438D01*
X147653910Y-58538168D01*
X147640026Y-58519448D01*
X147628044Y-58499457D01*
X147618079Y-58478387D01*
X147610227Y-58456443D01*
X147604563Y-58433834D01*
X147601144Y-58410779D01*
X147600000Y-58387500D01*
X147600000Y-57912500D01*
X147601144Y-57889221D01*
X147604563Y-57866166D01*
X147610227Y-57843557D01*
X147618079Y-57821613D01*
X147628044Y-57800543D01*
X147640026Y-57780552D01*
X147653910Y-57761832D01*
X147669562Y-57744562D01*
X147686832Y-57728910D01*
X147705552Y-57715026D01*
X147725543Y-57703044D01*
X147746613Y-57693079D01*
X147768557Y-57685227D01*
X147791166Y-57679563D01*
X147814221Y-57676144D01*
X147837500Y-57675000D01*
X148412500Y-57675000D01*
X148435779Y-57676144D01*
X148435779Y-57676144D01*
G37*
D12*
G04 #@! TD*
G04 #@! TO.P,C3,2*
G04 #@! TO.N,GND*
X148125000Y-58150000D03*
D11*
G04 #@! TO.N,GND*
G04 #@! TO.C,C4*
G36*
X148435779Y-59276144D02*
X148458834Y-59279563D01*
X148481443Y-59285227D01*
X148503387Y-59293079D01*
X148524457Y-59303044D01*
X148544448Y-59315026D01*
X148563168Y-59328910D01*
X148580438Y-59344562D01*
X148596090Y-59361832D01*
X148609974Y-59380552D01*
X148621956Y-59400543D01*
X148631921Y-59421613D01*
X148639773Y-59443557D01*
X148645437Y-59466166D01*
X148648856Y-59489221D01*
X148650000Y-59512500D01*
X148650000Y-59987500D01*
X148648856Y-60010779D01*
X148645437Y-60033834D01*
X148639773Y-60056443D01*
X148631921Y-60078387D01*
X148621956Y-60099457D01*
X148609974Y-60119448D01*
X148596090Y-60138168D01*
X148580438Y-60155438D01*
X148563168Y-60171090D01*
X148544448Y-60184974D01*
X148524457Y-60196956D01*
X148503387Y-60206921D01*
X148481443Y-60214773D01*
X148458834Y-60220437D01*
X148435779Y-60223856D01*
X148412500Y-60225000D01*
X147837500Y-60225000D01*
X147814221Y-60223856D01*
X147791166Y-60220437D01*
X147768557Y-60214773D01*
X147746613Y-60206921D01*
X147725543Y-60196956D01*
X147705552Y-60184974D01*
X147686832Y-60171090D01*
X147669562Y-60155438D01*
X147653910Y-60138168D01*
X147640026Y-60119448D01*
X147628044Y-60099457D01*
X147618079Y-60078387D01*
X147610227Y-60056443D01*
X147604563Y-60033834D01*
X147601144Y-60010779D01*
X147600000Y-59987500D01*
X147600000Y-59512500D01*
X147601144Y-59489221D01*
X147604563Y-59466166D01*
X147610227Y-59443557D01*
X147618079Y-59421613D01*
X147628044Y-59400543D01*
X147640026Y-59380552D01*
X147653910Y-59361832D01*
X147669562Y-59344562D01*
X147686832Y-59328910D01*
X147705552Y-59315026D01*
X147725543Y-59303044D01*
X147746613Y-59293079D01*
X147768557Y-59285227D01*
X147791166Y-59279563D01*
X147814221Y-59276144D01*
X147837500Y-59275000D01*
X148412500Y-59275000D01*
X148435779Y-59276144D01*
X148435779Y-59276144D01*
G37*
D12*
G04 #@! TD*
G04 #@! TO.P,C4,2*
G04 #@! TO.N,GND*
X148125000Y-59750000D03*
D11*
G04 #@! TO.N,Net-(C4-Pad1)*
G04 #@! TO.C,C4*
G36*
X146685779Y-59276144D02*
X146708834Y-59279563D01*
X146731443Y-59285227D01*
X146753387Y-59293079D01*
X146774457Y-59303044D01*
X146794448Y-59315026D01*
X146813168Y-59328910D01*
X146830438Y-59344562D01*
X146846090Y-59361832D01*
X146859974Y-59380552D01*
X146871956Y-59400543D01*
X146881921Y-59421613D01*
X146889773Y-59443557D01*
X146895437Y-59466166D01*
X146898856Y-59489221D01*
X146900000Y-59512500D01*
X146900000Y-59987500D01*
X146898856Y-60010779D01*
X146895437Y-60033834D01*
X146889773Y-60056443D01*
X146881921Y-60078387D01*
X146871956Y-60099457D01*
X146859974Y-60119448D01*
X146846090Y-60138168D01*
X146830438Y-60155438D01*
X146813168Y-60171090D01*
X146794448Y-60184974D01*
X146774457Y-60196956D01*
X146753387Y-60206921D01*
X146731443Y-60214773D01*
X146708834Y-60220437D01*
X146685779Y-60223856D01*
X146662500Y-60225000D01*
X146087500Y-60225000D01*
X146064221Y-60223856D01*
X146041166Y-60220437D01*
X146018557Y-60214773D01*
X145996613Y-60206921D01*
X145975543Y-60196956D01*
X145955552Y-60184974D01*
X145936832Y-60171090D01*
X145919562Y-60155438D01*
X145903910Y-60138168D01*
X145890026Y-60119448D01*
X145878044Y-60099457D01*
X145868079Y-60078387D01*
X145860227Y-60056443D01*
X145854563Y-60033834D01*
X145851144Y-60010779D01*
X145850000Y-59987500D01*
X145850000Y-59512500D01*
X145851144Y-59489221D01*
X145854563Y-59466166D01*
X145860227Y-59443557D01*
X145868079Y-59421613D01*
X145878044Y-59400543D01*
X145890026Y-59380552D01*
X145903910Y-59361832D01*
X145919562Y-59344562D01*
X145936832Y-59328910D01*
X145955552Y-59315026D01*
X145975543Y-59303044D01*
X145996613Y-59293079D01*
X146018557Y-59285227D01*
X146041166Y-59279563D01*
X146064221Y-59276144D01*
X146087500Y-59275000D01*
X146662500Y-59275000D01*
X146685779Y-59276144D01*
X146685779Y-59276144D01*
G37*
D12*
G04 #@! TD*
G04 #@! TO.P,C4,1*
G04 #@! TO.N,Net-(C4-Pad1)*
X146375000Y-59750000D03*
D11*
G04 #@! TO.N,Net-(C4-Pad1)*
G04 #@! TO.C,R8*
G36*
X148827179Y-65312144D02*
X148850234Y-65315563D01*
X148872843Y-65321227D01*
X148894787Y-65329079D01*
X148915857Y-65339044D01*
X148935848Y-65351026D01*
X148954568Y-65364910D01*
X148971838Y-65380562D01*
X148987490Y-65397832D01*
X149001374Y-65416552D01*
X149013356Y-65436543D01*
X149023321Y-65457613D01*
X149031173Y-65479557D01*
X149036837Y-65502166D01*
X149040256Y-65525221D01*
X149041400Y-65548500D01*
X149041400Y-66023500D01*
X149040256Y-66046779D01*
X149036837Y-66069834D01*
X149031173Y-66092443D01*
X149023321Y-66114387D01*
X149013356Y-66135457D01*
X149001374Y-66155448D01*
X148987490Y-66174168D01*
X148971838Y-66191438D01*
X148954568Y-66207090D01*
X148935848Y-66220974D01*
X148915857Y-66232956D01*
X148894787Y-66242921D01*
X148872843Y-66250773D01*
X148850234Y-66256437D01*
X148827179Y-66259856D01*
X148803900Y-66261000D01*
X148228900Y-66261000D01*
X148205621Y-66259856D01*
X148182566Y-66256437D01*
X148159957Y-66250773D01*
X148138013Y-66242921D01*
X148116943Y-66232956D01*
X148096952Y-66220974D01*
X148078232Y-66207090D01*
X148060962Y-66191438D01*
X148045310Y-66174168D01*
X148031426Y-66155448D01*
X148019444Y-66135457D01*
X148009479Y-66114387D01*
X148001627Y-66092443D01*
X147995963Y-66069834D01*
X147992544Y-66046779D01*
X147991400Y-66023500D01*
X147991400Y-65548500D01*
X147992544Y-65525221D01*
X147995963Y-65502166D01*
X148001627Y-65479557D01*
X148009479Y-65457613D01*
X148019444Y-65436543D01*
X148031426Y-65416552D01*
X148045310Y-65397832D01*
X148060962Y-65380562D01*
X148078232Y-65364910D01*
X148096952Y-65351026D01*
X148116943Y-65339044D01*
X148138013Y-65329079D01*
X148159957Y-65321227D01*
X148182566Y-65315563D01*
X148205621Y-65312144D01*
X148228900Y-65311000D01*
X148803900Y-65311000D01*
X148827179Y-65312144D01*
X148827179Y-65312144D01*
G37*
D12*
G04 #@! TD*
G04 #@! TO.P,R8,2*
G04 #@! TO.N,Net-(C4-Pad1)*
X148516400Y-65786000D03*
D11*
G04 #@! TO.N,/PIR*
G04 #@! TO.C,R8*
G36*
X150577179Y-65312144D02*
X150600234Y-65315563D01*
X150622843Y-65321227D01*
X150644787Y-65329079D01*
X150665857Y-65339044D01*
X150685848Y-65351026D01*
X150704568Y-65364910D01*
X150721838Y-65380562D01*
X150737490Y-65397832D01*
X150751374Y-65416552D01*
X150763356Y-65436543D01*
X150773321Y-65457613D01*
X150781173Y-65479557D01*
X150786837Y-65502166D01*
X150790256Y-65525221D01*
X150791400Y-65548500D01*
X150791400Y-66023500D01*
X150790256Y-66046779D01*
X150786837Y-66069834D01*
X150781173Y-66092443D01*
X150773321Y-66114387D01*
X150763356Y-66135457D01*
X150751374Y-66155448D01*
X150737490Y-66174168D01*
X150721838Y-66191438D01*
X150704568Y-66207090D01*
X150685848Y-66220974D01*
X150665857Y-66232956D01*
X150644787Y-66242921D01*
X150622843Y-66250773D01*
X150600234Y-66256437D01*
X150577179Y-66259856D01*
X150553900Y-66261000D01*
X149978900Y-66261000D01*
X149955621Y-66259856D01*
X149932566Y-66256437D01*
X149909957Y-66250773D01*
X149888013Y-66242921D01*
X149866943Y-66232956D01*
X149846952Y-66220974D01*
X149828232Y-66207090D01*
X149810962Y-66191438D01*
X149795310Y-66174168D01*
X149781426Y-66155448D01*
X149769444Y-66135457D01*
X149759479Y-66114387D01*
X149751627Y-66092443D01*
X149745963Y-66069834D01*
X149742544Y-66046779D01*
X149741400Y-66023500D01*
X149741400Y-65548500D01*
X149742544Y-65525221D01*
X149745963Y-65502166D01*
X149751627Y-65479557D01*
X149759479Y-65457613D01*
X149769444Y-65436543D01*
X149781426Y-65416552D01*
X149795310Y-65397832D01*
X149810962Y-65380562D01*
X149828232Y-65364910D01*
X149846952Y-65351026D01*
X149866943Y-65339044D01*
X149888013Y-65329079D01*
X149909957Y-65321227D01*
X149932566Y-65315563D01*
X149955621Y-65312144D01*
X149978900Y-65311000D01*
X150553900Y-65311000D01*
X150577179Y-65312144D01*
X150577179Y-65312144D01*
G37*
D12*
G04 #@! TD*
G04 #@! TO.P,R8,1*
G04 #@! TO.N,/PIR*
X150266400Y-65786000D03*
D30*
G04 #@! TO.N,GND*
X134899400Y-63576200D03*
X140716000Y-67005200D03*
X135382000Y-116332000D03*
X135382000Y-109474000D03*
X154940000Y-107696000D03*
X151130000Y-108458000D03*
X158724600Y-113258600D03*
X152654000Y-99060000D03*
D31*
X138430000Y-79756000D03*
D30*
X160020000Y-106172000D03*
X154940000Y-111252000D03*
X140785972Y-113417970D03*
X152654000Y-112968010D03*
X154624010Y-116115760D03*
X139825010Y-108712000D03*
X137871200Y-68021200D03*
D32*
X153974800Y-68935600D03*
X153517600Y-79908400D03*
X155498800Y-78638400D03*
X144322800Y-88595200D03*
X147167600Y-91592400D03*
X147167600Y-86055200D03*
D30*
X148437600Y-68681600D03*
D32*
X149650000Y-58200000D03*
D30*
X149700000Y-101600000D03*
D33*
X133100000Y-58800000D03*
D30*
X138000000Y-110800000D03*
G04 #@! TO.N,Net-(D2-Pad1)*
X156464000Y-113792000D03*
G04 #@! TO.N,Net-(D4-Pad1)*
X138500000Y-106900000D03*
G04 #@! TO.N,Net-(D5-Pad1)*
X139200000Y-117800000D03*
G04 #@! TO.N,Net-(LS1-Pad1)*
X143624979Y-112610530D03*
G04 #@! TO.N,Net-(LS1-Pad2)*
X143002000Y-111252000D03*
D33*
G04 #@! TO.N,Net-(R3-Pad2)*
X158851600Y-59944000D03*
D30*
G04 #@! TO.N,Net-(R11-Pad2)*
X139672820Y-63985510D03*
G04 #@! TO.N,/V_BAT*
X157226000Y-115316000D03*
X153924000Y-115316000D03*
X152146000Y-118110000D03*
X155892372Y-115464356D03*
G04 #@! TO.N,/3V3*
X138684000Y-63296800D03*
D33*
X152806400Y-110896400D03*
X160869000Y-63957200D03*
X156565600Y-101650800D03*
X159461200Y-91490800D03*
D30*
X145200000Y-57200000D03*
D33*
X137100000Y-57400000D03*
D30*
G04 #@! TO.N,/V_IN*
X149656800Y-112572800D03*
X143433613Y-109448787D03*
X154000000Y-101300000D03*
G04 #@! TO.N,/V_USB*
X160782000Y-118110000D03*
X161500000Y-110600000D03*
G04 #@! TO.N,/BUTTON_LED*
X135800000Y-90600000D03*
G04 #@! TO.N,/FACTORY_RST*
X158242000Y-117094000D03*
D33*
X158850000Y-104800000D03*
D30*
G04 #@! TO.N,/TXD*
X136398000Y-102616000D03*
X143242846Y-102602846D03*
X132774990Y-88896848D03*
X136002999Y-83900000D03*
G04 #@! TO.N,/RXD*
X136398000Y-103378000D03*
X132101011Y-90678000D03*
X143065410Y-103352406D03*
X136002999Y-85300000D03*
G04 #@! TO.N,/SCL*
X135432800Y-61459600D03*
G04 #@! TO.N,/SDA*
X132638800Y-67005200D03*
X135000000Y-69350000D03*
G04 #@! TO.N,/I2S_WS*
X138531600Y-69291200D03*
X141224000Y-108204000D03*
X141732000Y-113538000D03*
X131826000Y-87376000D03*
X132588000Y-83312000D03*
D33*
G04 #@! TO.N,/I2S_BCLK*
X139547600Y-57353200D03*
D30*
X140500000Y-120600000D03*
G04 #@! TO.N,/I2S_DATA_OUT*
X139300000Y-107200000D03*
X141400000Y-105000000D03*
X139200000Y-111600000D03*
X139200000Y-113800000D03*
X157600000Y-96100000D03*
X157200000Y-92100000D03*
G04 #@! TO.N,/PROG*
X134366000Y-99568000D03*
X133654800Y-108407200D03*
X133374000Y-112248600D03*
X134550000Y-104969000D03*
G04 #@! TO.N,/ZERO_DETECT*
X151282400Y-127101600D03*
X161493200Y-109474000D03*
X161000000Y-119400000D03*
G04 #@! TO.N,/IR_RX*
X148590000Y-71374000D03*
X142292010Y-71374000D03*
X134162800Y-85598000D03*
X134112000Y-89712800D03*
X134366000Y-93980000D03*
X135800000Y-94100000D03*
G04 #@! TO.N,/IR_TX*
X135128000Y-89916000D03*
X148590000Y-72390000D03*
X135128000Y-80010000D03*
X135128000Y-83058000D03*
X142494000Y-72390000D03*
X135128000Y-85852000D03*
G04 #@! TO.N,/EN*
X145999200Y-83718400D03*
X143459200Y-83769200D03*
X140309600Y-104241600D03*
X137617200Y-105918000D03*
X134569200Y-115468400D03*
X132706317Y-112590239D03*
G04 #@! TO.N,/T_UP*
X152350000Y-88350000D03*
G04 #@! TO.N,/T_DOWN*
X146720000Y-95492000D03*
G04 #@! TO.N,/T_RIGHT*
X153600000Y-90300000D03*
G04 #@! TO.N,/T_LEFT*
X142900000Y-86700000D03*
G04 #@! TO.N,/RELAY_2*
X145000000Y-123400000D03*
G04 #@! TO.N,/RELAY_4*
X151700000Y-85100000D03*
X151400000Y-87200000D03*
X151800000Y-95500000D03*
X148900000Y-100900000D03*
X148900000Y-106100000D03*
X147500000Y-114000000D03*
G04 #@! TO.N,/RELAY_1*
X147400000Y-107300000D03*
X147300000Y-105700000D03*
X144100000Y-101800000D03*
X143000000Y-100900000D03*
X145803209Y-120100645D03*
G04 #@! TD*
D34*
G04 #@! TO.N,GND*
X139903200Y-66991200D02*
X140702000Y-66991200D01*
X140702000Y-66991200D02*
X140716000Y-67005200D01*
X140718600Y-67002600D02*
X140716000Y-67005200D01*
X141757400Y-67002600D02*
X140718600Y-67002600D01*
D35*
X139911000Y-112573400D02*
X138670600Y-112573400D01*
X138670600Y-112573400D02*
X137972800Y-111875600D01*
D34*
X155321000Y-108192600D02*
X155321000Y-108077000D01*
X155321000Y-108077000D02*
X154940000Y-107696000D01*
X151779000Y-108864400D02*
X151536400Y-108864400D01*
X151536400Y-108864400D02*
X151130000Y-108458000D01*
X152196800Y-98145600D02*
X152196800Y-98602800D01*
X152196800Y-98602800D02*
X152654000Y-99060000D01*
D36*
X137480800Y-80131600D02*
X138054400Y-80131600D01*
X138054400Y-80131600D02*
X138430000Y-79756000D01*
D34*
X159512000Y-106567000D02*
X159625000Y-106567000D01*
X159625000Y-106567000D02*
X160020000Y-106172000D01*
D35*
X155346400Y-111963200D02*
X155346400Y-111658400D01*
X155346400Y-111658400D02*
X154940000Y-111252000D01*
X141131000Y-114293400D02*
X141131000Y-113762998D01*
X141131000Y-113762998D02*
X140785972Y-113417970D01*
D34*
X152654000Y-113392274D02*
X152654000Y-112968010D01*
X152683200Y-113694200D02*
X152654000Y-113665000D01*
X152654000Y-113665000D02*
X152654000Y-113392274D01*
X154368370Y-116371400D02*
X154624010Y-116115760D01*
X153543000Y-116371400D02*
X154368370Y-116371400D01*
D35*
X141290943Y-112912999D02*
X140785972Y-113417970D01*
X142032001Y-112912999D02*
X141290943Y-112912999D01*
X142152402Y-113033400D02*
X142032001Y-112912999D01*
X142831000Y-113033400D02*
X142152402Y-113033400D01*
X139825010Y-108887810D02*
X139825010Y-108712000D01*
X140360400Y-109423200D02*
X139825010Y-108887810D01*
D34*
X152683200Y-115511600D02*
X153543000Y-116371400D01*
X152683200Y-113694200D02*
X152683200Y-115511600D01*
D36*
X137871200Y-67016600D02*
X137871200Y-68021200D01*
X160070800Y-79744600D02*
X158292800Y-79744600D01*
X153329600Y-69529200D02*
X153381200Y-69529200D01*
X153381200Y-69529200D02*
X153974800Y-68935600D01*
X155498800Y-80111600D02*
X153720800Y-80111600D01*
X153720800Y-80111600D02*
X153517600Y-79908400D01*
X155498800Y-80111600D02*
X155498800Y-78638400D01*
X147172680Y-88798400D02*
X144526000Y-88798400D01*
X144526000Y-88798400D02*
X144322800Y-88595200D01*
X147172680Y-88798400D02*
X147172680Y-91587320D01*
X147172680Y-91587320D02*
X147167600Y-91592400D01*
X147172680Y-88798400D02*
X147172680Y-86619080D01*
X147172680Y-86619080D02*
X147167600Y-86614000D01*
X147172680Y-86619080D02*
X147172680Y-86060280D01*
X147172680Y-86060280D02*
X147167600Y-86055200D01*
D34*
X148426200Y-67665600D02*
X148426200Y-68670200D01*
X148426200Y-68670200D02*
X148437600Y-68681600D01*
D36*
X155865800Y-79744600D02*
X155498800Y-80111600D01*
X158292800Y-79744600D02*
X155865800Y-79744600D01*
D35*
X148125000Y-59795000D02*
X149730000Y-61400000D01*
X148125000Y-59750000D02*
X148125000Y-59795000D01*
X148125000Y-59750000D02*
X148125000Y-58150000D01*
X148125000Y-58150000D02*
X149600000Y-58150000D01*
X149600000Y-58150000D02*
X149650000Y-58200000D01*
D34*
X150800000Y-101600000D02*
X149700000Y-101600000D01*
X133897400Y-57454800D02*
X133897400Y-58002600D01*
X133897400Y-58002600D02*
X133100000Y-58800000D01*
D35*
X137972800Y-111875600D02*
X137972800Y-110827200D01*
X137972800Y-110827200D02*
X138000000Y-110800000D01*
D34*
G04 #@! TO.N,Net-(D1-Pad1)*
X156702000Y-64017400D02*
X156692600Y-64008000D01*
X156692600Y-65308000D02*
X154471400Y-67529200D01*
X154471400Y-67529200D02*
X154279600Y-67529200D01*
X156692600Y-64008000D02*
X156692600Y-65308000D01*
G04 #@! TO.N,Net-(D1-Pad2)*
X159232600Y-68238400D02*
X158383000Y-69088000D01*
X159232600Y-64008000D02*
X159232600Y-68238400D01*
D35*
G04 #@! TO.N,Net-(D2-Pad1)*
X156492000Y-117094000D02*
X156492000Y-113820000D01*
X156492000Y-113820000D02*
X156464000Y-113792000D01*
G04 #@! TO.N,Net-(D3-Pad2)*
X161885600Y-117006400D02*
X161798000Y-117094000D01*
X161885600Y-113473200D02*
X161885600Y-117006400D01*
G04 #@! TO.N,Net-(D3-Pad1)*
X160048000Y-113632000D02*
X159674600Y-113258600D01*
X160048000Y-117094000D02*
X160048000Y-113632000D01*
D34*
G04 #@! TO.N,Net-(Q1-Pad1)*
X154982600Y-71436200D02*
X155057600Y-71511200D01*
D36*
X155154600Y-69604200D02*
X155229600Y-69529200D01*
X155154600Y-71323200D02*
X155154600Y-69604200D01*
D35*
G04 #@! TO.N,Net-(R1-Pad1)*
X155508400Y-92830000D02*
X155498800Y-92839600D01*
X158350000Y-92830000D02*
X155508400Y-92830000D01*
D34*
G04 #@! TO.N,Net-(R19-Pad2)*
X159512000Y-110396000D02*
X159674600Y-110558600D01*
X159512000Y-108317000D02*
X159512000Y-110396000D01*
G04 #@! TO.N,Net-(D4-Pad1)*
X138500000Y-107372000D02*
X137922000Y-107950000D01*
X138500000Y-106900000D02*
X138500000Y-107372000D01*
G04 #@! TO.N,Net-(D5-Pad1)*
X137922000Y-117348000D02*
X138748000Y-117348000D01*
X138748000Y-117348000D02*
X139200000Y-117800000D01*
D35*
G04 #@! TO.N,Net-(LS1-Pad1)*
X142831000Y-112533400D02*
X143547849Y-112533400D01*
X143547849Y-112533400D02*
X143624979Y-112610530D01*
G04 #@! TO.N,Net-(LS1-Pad2)*
X142831000Y-112033400D02*
X142831000Y-111423000D01*
X142831000Y-111423000D02*
X143002000Y-111252000D01*
G04 #@! TO.N,Net-(R3-Pad2)*
X158863000Y-61214000D02*
X158863000Y-59955400D01*
X158863000Y-59955400D02*
X158851600Y-59944000D01*
G04 #@! TO.N,Net-(R11-Pad2)*
X141768800Y-65241200D02*
X141757400Y-65252600D01*
X143637000Y-65241200D02*
X141768800Y-65241200D01*
X141732000Y-65227200D02*
X141757400Y-65252600D01*
X140490310Y-63985510D02*
X141757400Y-65252600D01*
X139672820Y-63985510D02*
X140490310Y-63985510D01*
G04 #@! TO.N,Net-(R17-Pad1)*
X138525000Y-113073400D02*
X139911000Y-113073400D01*
X137972800Y-113625600D02*
X138525000Y-113073400D01*
D34*
G04 #@! TO.N,/V_BAT*
X155321000Y-110350000D02*
X155321000Y-109942600D01*
X157774600Y-112803600D02*
X155321000Y-110350000D01*
X157774600Y-113258600D02*
X157774600Y-112803600D01*
X157774600Y-113258600D02*
X157774600Y-114767400D01*
X157774600Y-114767400D02*
X157226000Y-115316000D01*
X155744016Y-115316000D02*
X155892372Y-115464356D01*
X153924000Y-115316000D02*
X155744016Y-115316000D01*
X150555200Y-118110000D02*
X150418800Y-118246400D01*
X152146000Y-118110000D02*
X150555200Y-118110000D01*
X150418800Y-118296400D02*
X150418800Y-118246400D01*
X152900000Y-120777600D02*
X150418800Y-118296400D01*
X152900000Y-123274200D02*
X152900000Y-120777600D01*
X151587200Y-124587000D02*
X152900000Y-123274200D01*
G04 #@! TO.N,/3V3*
X139903200Y-65241200D02*
X139789200Y-65241200D01*
X139903200Y-65241200D02*
X139646600Y-65241200D01*
D36*
X138684000Y-63296800D02*
X139547600Y-63296800D01*
X139547600Y-63296800D02*
X141817000Y-61027400D01*
X137871200Y-64109600D02*
X138684000Y-63296800D01*
X137871200Y-65266600D02*
X137871200Y-64109600D01*
X139877800Y-65266600D02*
X139903200Y-65241200D01*
X137871200Y-65266600D02*
X139877800Y-65266600D01*
X137871200Y-65266600D02*
X135940800Y-65266600D01*
X135940800Y-65266600D02*
X133908800Y-65266600D01*
X153633200Y-110994200D02*
X152904200Y-110994200D01*
X152904200Y-110994200D02*
X152806400Y-110896400D01*
X153633200Y-108968600D02*
X153529000Y-108864400D01*
X153633200Y-110994200D02*
X153633200Y-108968600D01*
X160133000Y-69088000D02*
X160869000Y-68352000D01*
X160869000Y-68352000D02*
X160869000Y-63957200D01*
X153529000Y-108864400D02*
X153529000Y-104585800D01*
X153529000Y-104585800D02*
X156464000Y-101650800D01*
X156464000Y-101650800D02*
X156565600Y-101650800D01*
X159461200Y-82104200D02*
X160070800Y-81494600D01*
X159461200Y-91490800D02*
X159461200Y-82104200D01*
X160070800Y-81494600D02*
X158292800Y-81494600D01*
X155611800Y-81494600D02*
X155498800Y-81381600D01*
X158292800Y-81494600D02*
X155611800Y-81494600D01*
X145425000Y-57200000D02*
X146375000Y-58150000D01*
X145200000Y-57200000D02*
X145425000Y-57200000D01*
X144650000Y-59875000D02*
X144650000Y-61400000D01*
X146375000Y-58150000D02*
X144650000Y-59875000D01*
X142189600Y-61400000D02*
X141817000Y-61027400D01*
X144650000Y-61400000D02*
X142189600Y-61400000D01*
X160070800Y-81494600D02*
X160705400Y-81494600D01*
X160705400Y-81494600D02*
X161450000Y-80750000D01*
X161450000Y-80750000D02*
X161450000Y-76600000D01*
X161450000Y-76600000D02*
X159300000Y-74450000D01*
X159300000Y-74450000D02*
X159300000Y-71200000D01*
X160133000Y-70367000D02*
X160133000Y-69088000D01*
X159300000Y-71200000D02*
X160133000Y-70367000D01*
X136527600Y-58335000D02*
X135647400Y-57454800D01*
X141817000Y-61027400D02*
X141817000Y-58335000D01*
X141817000Y-58335000D02*
X136527600Y-58335000D01*
D34*
X135702200Y-57400000D02*
X135647400Y-57454800D01*
X137100000Y-57400000D02*
X135702200Y-57400000D01*
D35*
G04 #@! TO.N,/V_IN*
X141631000Y-111313400D02*
X142131000Y-111313400D01*
X142131000Y-111313400D02*
X142131000Y-109443800D01*
X141631000Y-111938400D02*
X141631000Y-111313400D01*
X141496000Y-112073400D02*
X141631000Y-111938400D01*
X139911000Y-112073400D02*
X141496000Y-112073400D01*
D34*
X149783800Y-111744800D02*
X151733200Y-113694200D01*
X151733200Y-115882000D02*
X151368800Y-116246400D01*
X151733200Y-113694200D02*
X151733200Y-115882000D01*
X153633200Y-112514200D02*
X153633200Y-113694200D01*
X151733200Y-112514200D02*
X151979400Y-112268000D01*
X151733200Y-113694200D02*
X151733200Y-112514200D01*
X153387000Y-112268000D02*
X153633200Y-112514200D01*
X151979400Y-112268000D02*
X153387000Y-112268000D01*
X155327400Y-113694200D02*
X155346400Y-113713200D01*
X153633200Y-113694200D02*
X155327400Y-113694200D01*
D35*
X149783800Y-111449800D02*
X149783800Y-112445800D01*
X149783800Y-112445800D02*
X149656800Y-112572800D01*
X142135987Y-109448787D02*
X142110400Y-109423200D01*
X143433613Y-109448787D02*
X142135987Y-109448787D01*
D34*
X149783800Y-104366200D02*
X152550000Y-101600000D01*
X149783800Y-111449800D02*
X149783800Y-104366200D01*
X152550000Y-101600000D02*
X153700000Y-101600000D01*
X153700000Y-101600000D02*
X154000000Y-101300000D01*
G04 #@! TO.N,/V_USB*
X149783800Y-115931400D02*
X149468800Y-116246400D01*
X149783800Y-113949800D02*
X149783800Y-115931400D01*
X153543000Y-121462800D02*
X154127200Y-122047000D01*
X153543000Y-118121400D02*
X153543000Y-121462800D01*
X149468800Y-116296400D02*
X149468800Y-116246400D01*
X150618799Y-117446399D02*
X149468800Y-116296400D01*
X152867999Y-117446399D02*
X150618799Y-117446399D01*
X153543000Y-118121400D02*
X152867999Y-117446399D01*
X153543000Y-118121400D02*
X160770600Y-118121400D01*
X160770600Y-118121400D02*
X160782000Y-118110000D01*
X157774600Y-110558600D02*
X157774600Y-111013600D01*
X158484200Y-111723200D02*
X161724990Y-111723200D01*
X157774600Y-111013600D02*
X158484200Y-111723200D01*
X161885600Y-111723200D02*
X161885600Y-110985600D01*
X161885600Y-110985600D02*
X161500000Y-110600000D01*
D35*
G04 #@! TO.N,/BUTTON_LED*
X137164400Y-90600000D02*
X137464800Y-90299600D01*
X135800000Y-90600000D02*
X137164400Y-90600000D01*
G04 #@! TO.N,/FACTORY_RST*
X158117598Y-95379600D02*
X155498800Y-95379600D01*
X158850000Y-104800000D02*
X158850000Y-104234315D01*
X159299978Y-100818622D02*
X159299978Y-96561980D01*
X158749978Y-101368622D02*
X159299978Y-100818622D01*
X158850000Y-104234315D02*
X158749978Y-104134293D01*
X159299978Y-96561980D02*
X158117598Y-95379600D01*
X158749978Y-104134293D02*
X158749978Y-101368622D01*
G04 #@! TO.N,/TXD*
X132774990Y-98992990D02*
X132774990Y-88896848D01*
X136398000Y-102616000D02*
X132774990Y-98992990D01*
X148775013Y-119234813D02*
X148775013Y-107058309D01*
X146964987Y-106324987D02*
X143242846Y-102602846D01*
X151587200Y-122047000D02*
X148775013Y-119234813D01*
X148775013Y-107058309D02*
X148041691Y-106324987D01*
X148041691Y-106324987D02*
X146964987Y-106324987D01*
X137480800Y-83941600D02*
X136044599Y-83941600D01*
X136044599Y-83941600D02*
X136002999Y-83900000D01*
G04 #@! TO.N,/RXD*
X136398000Y-103378000D02*
X135973736Y-103378000D01*
X132101011Y-99505275D02*
X132101011Y-90678000D01*
X135973736Y-103378000D02*
X132101011Y-99505275D01*
X149047200Y-122047000D02*
X148197201Y-121197001D01*
X148197201Y-121197001D02*
X148197201Y-107246197D01*
X148197201Y-107246197D02*
X147676002Y-106724998D01*
X146438002Y-106724998D02*
X143065410Y-103352406D01*
X147676002Y-106724998D02*
X146438002Y-106724998D01*
X137464800Y-85219600D02*
X136719600Y-85219600D01*
X137384400Y-85300000D02*
X137464800Y-85219600D01*
X136002999Y-85300000D02*
X137384400Y-85300000D01*
G04 #@! TO.N,/SCL*
X134526800Y-61459600D02*
X135432800Y-61459600D01*
X131927600Y-64058800D02*
X134526800Y-61459600D01*
X131927600Y-68326000D02*
X134631400Y-68326000D01*
X131927600Y-68326000D02*
X131927600Y-64058800D01*
X134631400Y-68326000D02*
X135940800Y-67016600D01*
X135940800Y-74309200D02*
X135940800Y-67016600D01*
X131927600Y-78322400D02*
X135940800Y-74309200D01*
X131927600Y-85641902D02*
X131927600Y-78322400D01*
X132767298Y-86481600D02*
X131927600Y-85641902D01*
X137480800Y-86481600D02*
X132767298Y-86481600D01*
G04 #@! TO.N,/SDA*
X133897400Y-67005200D02*
X133908800Y-67016600D01*
X132638800Y-67005200D02*
X133897400Y-67005200D01*
X131526001Y-85806001D02*
X131526001Y-77273999D01*
X131526001Y-77273999D02*
X135000000Y-73800000D01*
X135000000Y-73800000D02*
X135000000Y-69350000D01*
X131526001Y-85806001D02*
X134741600Y-89021600D01*
X134741600Y-89021600D02*
X137480800Y-89021600D01*
G04 #@! TO.N,/I2S_WS*
X133335000Y-81440000D02*
X133335000Y-78265000D01*
X138531600Y-73068400D02*
X138531600Y-69291200D01*
X133335000Y-78265000D02*
X138531600Y-73068400D01*
X141631000Y-113639000D02*
X141631000Y-114293400D01*
X141732000Y-113538000D02*
X141631000Y-113639000D01*
X131526001Y-101323999D02*
X131150000Y-101700000D01*
X131526001Y-87675999D02*
X131526001Y-101323999D01*
X131150000Y-101700000D02*
X131150000Y-103450000D01*
X131150000Y-103450000D02*
X132094000Y-104394000D01*
X137414000Y-104394000D02*
X141224000Y-108204000D01*
X131826000Y-87376000D02*
X131526001Y-87675999D01*
X132094000Y-104394000D02*
X137414000Y-104394000D01*
X133335000Y-81440000D02*
X133335000Y-82565000D01*
X133335000Y-82565000D02*
X132588000Y-83312000D01*
X143967200Y-124587000D02*
X142765119Y-124587000D01*
X141631000Y-114918400D02*
X141631000Y-114293400D01*
X142700000Y-124521881D02*
X142700000Y-115987400D01*
X142700000Y-115987400D02*
X141631000Y-114918400D01*
X142765119Y-124587000D02*
X142700000Y-124521881D01*
G04 #@! TO.N,/I2S_BCLK*
X140631000Y-114293400D02*
X140631000Y-119124520D01*
X140309600Y-56591200D02*
X139547600Y-57353200D01*
X161950000Y-57403600D02*
X161137600Y-56591200D01*
X161950000Y-70400000D02*
X161950000Y-57403600D01*
X160100000Y-92830000D02*
X160100000Y-92255000D01*
X160450000Y-91905000D02*
X160450000Y-83500000D01*
X159950000Y-74150000D02*
X159950000Y-72400000D01*
X160450000Y-83500000D02*
X162300000Y-81650000D01*
X159950000Y-72400000D02*
X161950000Y-70400000D01*
X162300000Y-81650000D02*
X162300000Y-76500000D01*
X161137600Y-56591200D02*
X140309600Y-56591200D01*
X160100000Y-92255000D02*
X160450000Y-91905000D01*
X162300000Y-76500000D02*
X159950000Y-74150000D01*
X157139202Y-126400000D02*
X158600000Y-124939202D01*
X159300000Y-118800000D02*
X162200000Y-118800000D01*
X162864800Y-118135200D02*
X162864800Y-109564800D01*
X158600000Y-124939202D02*
X158600000Y-119500000D01*
X162200000Y-118800000D02*
X162864800Y-118135200D01*
X158600000Y-119500000D02*
X159300000Y-118800000D01*
X159550000Y-101700000D02*
X160100000Y-101150000D01*
X162100000Y-106150000D02*
X159550000Y-103600000D01*
X160100000Y-101150000D02*
X160100000Y-92830000D01*
X162864800Y-109564800D02*
X162100000Y-108800000D01*
X162100000Y-108800000D02*
X162100000Y-106150000D01*
X159550000Y-103600000D02*
X159550000Y-101700000D01*
X143240200Y-126400000D02*
X141427200Y-124587000D01*
X157139202Y-126400000D02*
X143240200Y-126400000D01*
X140500000Y-119255520D02*
X140631000Y-119124520D01*
X140500000Y-120600000D02*
X140500000Y-119255520D01*
G04 #@! TO.N,/I2S_DATA_OUT*
X155653200Y-91700000D02*
X155514800Y-91561600D01*
X157600000Y-97200000D02*
X154500000Y-100300000D01*
X157600000Y-96100000D02*
X157600000Y-97200000D01*
X141400000Y-103557600D02*
X141400000Y-105000000D01*
X154500000Y-100300000D02*
X144657600Y-100300000D01*
X144657600Y-100300000D02*
X141400000Y-103557600D01*
X139200000Y-111600000D02*
X139200000Y-107300000D01*
X139200000Y-107300000D02*
X139300000Y-107200000D01*
X139426600Y-113573400D02*
X139200000Y-113800000D01*
X139911000Y-113573400D02*
X139426600Y-113573400D01*
X156661600Y-91561600D02*
X155514800Y-91561600D01*
X157200000Y-92100000D02*
X156661600Y-91561600D01*
G04 #@! TO.N,/PROG*
X137922000Y-109700000D02*
X136934000Y-109700000D01*
X136934000Y-109700000D02*
X135135400Y-111498600D01*
X135135400Y-111498600D02*
X134074000Y-111498600D01*
X134074000Y-111548600D02*
X133374000Y-112248600D01*
X134074000Y-111498600D02*
X134074000Y-111548600D01*
X137480800Y-96641600D02*
X136980800Y-96641600D01*
X136980800Y-96641600D02*
X134366000Y-99256400D01*
X134366000Y-99256400D02*
X134366000Y-99568000D01*
X134074000Y-107988000D02*
X133654800Y-108407200D01*
X134074000Y-107398600D02*
X134074000Y-107988000D01*
X134550000Y-104969000D02*
X134550000Y-106922600D01*
X134550000Y-106922600D02*
X134074000Y-107398600D01*
X133374000Y-112248600D02*
X133374000Y-117974000D01*
X133374000Y-117974000D02*
X137100000Y-121700000D01*
X137100000Y-122799800D02*
X138887200Y-124587000D01*
X137100000Y-121700000D02*
X137100000Y-122799800D01*
G04 #@! TO.N,/ZERO_DETECT*
X151282400Y-127101600D02*
X151583990Y-126800010D01*
X151583990Y-126800010D02*
X157304891Y-126800010D01*
X159699989Y-100984311D02*
X159699989Y-96396291D01*
X157784800Y-88795600D02*
X156748800Y-87759600D01*
X157784800Y-90779600D02*
X157784800Y-88795600D01*
X156748800Y-87759600D02*
X155498800Y-87759600D01*
X159258000Y-95954302D02*
X159258000Y-92252800D01*
X159258000Y-92252800D02*
X157784800Y-90779600D01*
X159149989Y-101534311D02*
X159699989Y-100984311D01*
X159699989Y-96396291D02*
X159258000Y-95954302D01*
X161493200Y-109474000D02*
X161493200Y-106108900D01*
X159149989Y-103765689D02*
X159149989Y-101534311D01*
X161493200Y-106108900D02*
X159149989Y-103765689D01*
X157304891Y-126800010D02*
X157304901Y-126800000D01*
X157304901Y-126800000D02*
X157900000Y-126800000D01*
X157900000Y-126800000D02*
X159100000Y-125600000D01*
X159100000Y-125600000D02*
X159100000Y-122800000D01*
X159100000Y-122800000D02*
X159100000Y-119800000D01*
X159100000Y-119800000D02*
X159600000Y-119300000D01*
X159600000Y-119300000D02*
X160900000Y-119300000D01*
X160900000Y-119300000D02*
X161000000Y-119400000D01*
G04 #@! TO.N,/IR_RX*
X155956000Y-61214000D02*
X157113000Y-61214000D01*
X150876000Y-71374000D02*
X152044400Y-70205600D01*
X154787600Y-64109600D02*
X154787600Y-62382400D01*
X152044400Y-70205600D02*
X152044400Y-66852800D01*
X148590000Y-71374000D02*
X150876000Y-71374000D01*
X152044400Y-66852800D02*
X154787600Y-64109600D01*
X154787600Y-62382400D02*
X155956000Y-61214000D01*
X134264400Y-85496400D02*
X134162800Y-85598000D01*
X134416800Y-79249210D02*
X134415590Y-79249210D01*
X142292010Y-71374000D02*
X134416800Y-79249210D01*
X134415590Y-79249210D02*
X134213600Y-79451200D01*
X134213600Y-79451200D02*
X134213600Y-82296000D01*
X134162800Y-82346800D02*
X134162800Y-85598000D01*
X134213600Y-82296000D02*
X134162800Y-82346800D01*
X134112000Y-89712800D02*
X134112000Y-93726000D01*
X134112000Y-93726000D02*
X134366000Y-93980000D01*
X137479200Y-94100000D02*
X137480800Y-94101600D01*
X135800000Y-94100000D02*
X137479200Y-94100000D01*
G04 #@! TO.N,/IR_TX*
X135427999Y-83357999D02*
X135427999Y-85552001D01*
X135427999Y-85552001D02*
X135128000Y-85852000D01*
X142494000Y-72390000D02*
X135128000Y-79756000D01*
X135128000Y-79756000D02*
X135128000Y-80010000D01*
X135128000Y-83058000D02*
X135427999Y-83357999D01*
X135128000Y-94292800D02*
X136214800Y-95379600D01*
X135128000Y-89916000D02*
X135128000Y-94292800D01*
X136214800Y-95379600D02*
X137464800Y-95379600D01*
X152337800Y-72390000D02*
X153404600Y-71323200D01*
X148590000Y-72390000D02*
X152337800Y-72390000D01*
G04 #@! TO.N,Net-(R7-Pad2)*
X135115400Y-81409600D02*
X135085000Y-81440000D01*
X137464800Y-81409600D02*
X135115400Y-81409600D01*
G04 #@! TO.N,/I2S_DATA_IN*
X138714800Y-82679600D02*
X137464800Y-82679600D01*
X141224000Y-80170400D02*
X138714800Y-82679600D01*
X141224000Y-80170400D02*
X141224000Y-80162400D01*
X143637000Y-77749400D02*
X143637000Y-66991200D01*
X141224000Y-80162400D02*
X143637000Y-77749400D01*
G04 #@! TO.N,/EN*
X155498800Y-82651600D02*
X147066000Y-82651600D01*
X147066000Y-82651600D02*
X145999200Y-83718400D01*
X137792400Y-115468400D02*
X137922000Y-115598000D01*
X134569200Y-115468400D02*
X137792400Y-115468400D01*
X132706317Y-110828883D02*
X132706317Y-112590239D01*
X137617200Y-105918000D02*
X132706317Y-110828883D01*
X139900011Y-98265689D02*
X139750800Y-98414900D01*
X139750800Y-98414900D02*
X139750800Y-103682800D01*
X140009601Y-103941601D02*
X140309600Y-104241600D01*
X139750800Y-103682800D02*
X140009601Y-103941601D01*
X139900011Y-87328389D02*
X139900011Y-98265689D01*
X143459200Y-83769200D02*
X139900011Y-87328389D01*
G04 #@! TO.N,/PIR*
X149677128Y-68164672D02*
X149677128Y-68915272D01*
X150176200Y-67665600D02*
X149677128Y-68164672D01*
X149677128Y-68915272D02*
X147624800Y-70967600D01*
X147624800Y-70967600D02*
X147624800Y-80924400D01*
X142036800Y-86512400D02*
X142036800Y-98145600D01*
X147624800Y-80924400D02*
X142036800Y-86512400D01*
X150176200Y-65876200D02*
X150266400Y-65786000D01*
X150176200Y-67665600D02*
X150176200Y-65876200D01*
G04 #@! TO.N,/T_UP*
X152350000Y-92186800D02*
X152350000Y-88350000D01*
X155514800Y-94101600D02*
X154264800Y-94101600D01*
X154264800Y-94101600D02*
X152350000Y-92186800D01*
G04 #@! TO.N,/T_DOWN*
X155514800Y-96641600D02*
X147869600Y-96641600D01*
X147869600Y-96641600D02*
X146720000Y-95492000D01*
G04 #@! TO.N,/T_RIGHT*
X155498400Y-90300000D02*
X155498800Y-90299600D01*
X153600000Y-90300000D02*
X155498400Y-90300000D01*
G04 #@! TO.N,/T_LEFT*
X154264800Y-89021600D02*
X155514800Y-89021600D01*
X151180800Y-85937600D02*
X154264800Y-89021600D01*
X151180800Y-85937600D02*
X151164800Y-85937600D01*
X151180800Y-85937600D02*
X149537600Y-85937600D01*
X149537600Y-85937600D02*
X148300000Y-84700000D01*
X148300000Y-84700000D02*
X144900000Y-84700000D01*
X144900000Y-84700000D02*
X142900000Y-86700000D01*
G04 #@! TO.N,Net-(C4-Pad1)*
X146375000Y-63125000D02*
X147190000Y-63940000D01*
X146375000Y-59750000D02*
X146375000Y-63125000D01*
X147190000Y-64459600D02*
X148516400Y-65786000D01*
X147190000Y-63940000D02*
X147190000Y-64459600D01*
G04 #@! TO.N,/RELAY_2*
X138730800Y-91561600D02*
X139400000Y-92230800D01*
X137480800Y-91561600D02*
X138730800Y-91561600D01*
X139400000Y-92230800D02*
X139400000Y-97800000D01*
X139400000Y-97800000D02*
X139400000Y-97900000D01*
X139400000Y-97900000D02*
X137500000Y-99800000D01*
X137500000Y-99800000D02*
X137500000Y-102500000D01*
X137500000Y-102500000D02*
X142400000Y-107400000D01*
X142400000Y-107400000D02*
X143300000Y-107400000D01*
X145228199Y-123171801D02*
X145000000Y-123400000D01*
X143300000Y-107400000D02*
X144828188Y-108928188D01*
X144828188Y-108928188D02*
X144828188Y-117486090D01*
X144828188Y-117486090D02*
X145228199Y-117886101D01*
X145228199Y-117886101D02*
X145228199Y-123171801D01*
G04 #@! TO.N,/RELAY_4*
X155514800Y-86481600D02*
X153081600Y-86481600D01*
X153081600Y-86481600D02*
X151700000Y-85100000D01*
X151400000Y-87200000D02*
X151400000Y-95100000D01*
X151400000Y-95100000D02*
X151800000Y-95500000D01*
X148900000Y-100900000D02*
X148900000Y-106100000D01*
X147500000Y-121054200D02*
X146507200Y-122047000D01*
X147500000Y-114000000D02*
X147500000Y-121054200D01*
G04 #@! TO.N,/RELAY_3*
X138714800Y-92839600D02*
X137464800Y-92839600D01*
X138899989Y-97600011D02*
X138899989Y-93024789D01*
X137099989Y-99400011D02*
X138899989Y-97600011D01*
X137099989Y-102665689D02*
X137099989Y-99400011D01*
X143967200Y-122047000D02*
X143967200Y-120844919D01*
X138899989Y-93024789D02*
X138714800Y-92839600D01*
X143967200Y-120844919D02*
X144199989Y-120612130D01*
X142234309Y-107800009D02*
X137099989Y-102665689D01*
X144199989Y-108999989D02*
X143000009Y-107800009D01*
X144199989Y-120612130D02*
X144199989Y-108999989D01*
X143000009Y-107800009D02*
X142234309Y-107800009D01*
G04 #@! TO.N,/RELAY_1*
X147300000Y-105700000D02*
X147300000Y-105000000D01*
X147300000Y-105000000D02*
X144100000Y-101800000D01*
X142575736Y-100900000D02*
X143000000Y-100900000D01*
X142271200Y-100900000D02*
X142575736Y-100900000D01*
X140766800Y-99395600D02*
X142271200Y-100900000D01*
X140766800Y-98145600D02*
X140766800Y-99395600D01*
X145803209Y-117895411D02*
X145803209Y-119676381D01*
X145228199Y-117320401D02*
X145803209Y-117895411D01*
X147400000Y-113199000D02*
X145761199Y-114837801D01*
X145803209Y-119676381D02*
X145803209Y-120100645D01*
X147400000Y-107300000D02*
X147400000Y-113199000D01*
X145761199Y-114837801D02*
X145761199Y-115803399D01*
X145761199Y-115803399D02*
X145228199Y-116336399D01*
X145228199Y-116336399D02*
X145228199Y-117320401D01*
G04 #@! TD*
M02*
