M48
;DRILL file {KiCad 6.0.0-rc1-unknown-2086226~66~ubuntu18.04.1} date Wed 28 Nov 2018 01:28:43 PM CST
;FORMAT={-:-/ absolute / inch / decimal}
FMAT,2
INCH
T1C0.0157
T2C0.0236
T3C0.0276
T4C0.0295
T5C0.0354
T6C0.0394
T7C0.0488
T8C0.0591
T9C0.0866
%
G90
G05
T1
X5.19Y-3.44
X5.2008Y-3.57
X5.22Y-3.28
X5.222Y-2.638
X5.2247Y-4.4327
X5.2274Y-3.4999
X5.2402Y-2.315
X5.2509Y-4.4192
X5.262Y-4.268
X5.28Y-3.532
X5.282Y-3.37
X5.29Y-3.7
X5.29Y-3.92
X5.2972Y-4.1326
X5.298Y-4.546
X5.311Y-2.503
X5.315Y-2.7303
X5.32Y-3.15
X5.32Y-3.27
X5.32Y-3.38
X5.32Y-3.54
X5.33Y-4.31
X5.33Y-4.58
X5.332Y-2.4197
X5.3465Y-3.5669
X5.3465Y-3.7047
X5.3544Y-3.3031
X5.3544Y-3.3583
X5.37Y-4.04
X5.37Y-4.07
X5.3976Y-2.2598
X5.418Y-4.17
X5.428Y-2.678
X5.4331Y-4.3622
X5.4528Y-4.2087
X5.454Y-2.728
X5.46Y-2.492
X5.4803Y-4.3937
X5.4803Y-4.4803
X5.4803Y-4.6378
X5.4843Y-4.2205
X5.494Y-2.258
X5.4989Y-2.5191
X5.5049Y-4.28
X5.524Y-4.104
X5.5315Y-4.748
X5.54Y-2.638
X5.5428Y-4.4653
X5.56Y-4.26
X5.5669Y-4.1339
X5.58Y-4.47
X5.602Y-2.81
X5.61Y-2.85
X5.626Y-3.4134
X5.6299Y-3.9724
X5.63Y-4.38
X5.6325Y-4.069
X5.6395Y-4.0395
X5.647Y-4.309
X5.648Y-3.298
X5.6545Y-4.4335
X5.6732Y-4.0079
X5.7087Y-4.8583
X5.7165Y-2.252
X5.7403Y-4.7284
X5.748Y-3.296
X5.7764Y-3.7595
X5.7992Y-4.1614
X5.8031Y-4.2244
X5.8071Y-4.4882
X5.844Y-2.704
X5.85Y-2.81
X5.85Y-2.85
X5.8622Y-3.9724
X5.8622Y-4.1772
X5.892Y-4.432
X5.8937Y-4.0
X5.95Y-4.27
X5.956Y-5.004
X5.9606Y-3.4331
X5.9724Y-3.3504
X5.9764Y-3.7598
X5.99Y-4.65
X5.998Y-3.4783
X6.01Y-3.9
X6.01Y-4.4476
X6.016Y-4.366
X6.0472Y-3.5551
X6.06Y-4.54
X6.063Y-3.9882
X6.0876Y-4.5715
X6.1Y-4.24
X6.1Y-4.38
X6.1375Y-4.5458
X6.16Y-4.48
X6.164Y-4.002
X6.189Y-3.626
X6.19Y-4.54
X6.2047Y-3.7835
X6.23Y-4.61
X6.249Y-4.459
X6.2539Y-4.126
X6.254Y-2.36
X6.278Y-3.602
X6.3Y-4.18
X6.33Y-4.65
X6.3334Y-2.518
X6.3386Y-4.7008
X6.358Y-4.31
X6.3583Y-4.3543
T2
X5.45Y-3.14
T3
X5.6949Y-2.4173
X5.7949Y-2.5173
X5.8949Y-2.4173
T4
X5.682Y-3.488
X5.794Y-3.388
X5.794Y-3.606
X5.8917Y-2.2913
X6.044Y-3.146
X6.062Y-2.714
X6.122Y-3.096
T5
X6.169Y-2.52
X6.269Y-2.52
T6
X5.758Y-4.3003
X5.758Y-4.5995
X5.468Y-4.805
X5.468Y-4.905
X5.568Y-4.805
X5.568Y-4.905
X5.668Y-4.805
X5.668Y-4.905
X5.768Y-4.805
X5.768Y-4.905
X5.868Y-4.805
X5.868Y-4.905
X5.968Y-4.805
X5.968Y-4.905
X6.068Y-4.805
X6.068Y-4.905
X6.168Y-4.805
X6.168Y-4.905
T7
X5.4951Y-2.379
T8
X5.2185Y-2.8898
X5.2185Y-4.0315
X6.3602Y-2.8898
X6.3602Y-4.0315
T9
X5.2362Y-4.9134
X6.3386Y-2.0394
T0
M30
