G04 #@! TF.GenerationSoftware,KiCad,Pcbnew,6.0.0-rc1-unknown-2086226~66~ubuntu18.04.1*
G04 #@! TF.CreationDate,2018-11-28T13:28:41-06:00*
G04 #@! TF.ProjectId,liger,6c696765-722e-46b6-9963-61645f706362,rev?*
G04 #@! TF.SameCoordinates,Original*
G04 #@! TF.FileFunction,Legend,Top*
G04 #@! TF.FilePolarity,Positive*
%FSLAX46Y46*%
G04 Gerber Fmt 4.6, Leading zero omitted, Abs format (unit mm)*
G04 Created by KiCad (PCBNEW 6.0.0-rc1-unknown-2086226~66~ubuntu18.04.1) date Wed 28 Nov 2018 01:28:41 PM CST*
%MOMM*%
%LPD*%
G01*
G04 APERTURE LIST*
%ADD10C,0.080000*%
%ADD11C,0.300000*%
%ADD12C,0.150000*%
%ADD13C,0.120000*%
G04 APERTURE END LIST*
D10*
X136428142Y-59049809D02*
X136113857Y-59049809D01*
X136271000Y-59049809D02*
X136271000Y-58499809D01*
X136218619Y-58578380D01*
X136166238Y-58630761D01*
X136113857Y-58656952D01*
X132237142Y-62351809D02*
X131922857Y-62351809D01*
X132080000Y-62351809D02*
X132080000Y-61801809D01*
X132027619Y-61880380D01*
X131975238Y-61932761D01*
X131922857Y-61958952D01*
D11*
X140135714Y-70478571D02*
X139992857Y-70407142D01*
X139921428Y-70264285D01*
X139921428Y-68978571D01*
X140707142Y-70478571D02*
X140707142Y-69478571D01*
X140707142Y-68978571D02*
X140635714Y-69050000D01*
X140707142Y-69121428D01*
X140778571Y-69050000D01*
X140707142Y-68978571D01*
X140707142Y-69121428D01*
X142064285Y-69478571D02*
X142064285Y-70692857D01*
X141992857Y-70835714D01*
X141921428Y-70907142D01*
X141778571Y-70978571D01*
X141564285Y-70978571D01*
X141421428Y-70907142D01*
X142064285Y-70407142D02*
X141921428Y-70478571D01*
X141635714Y-70478571D01*
X141492857Y-70407142D01*
X141421428Y-70335714D01*
X141350000Y-70192857D01*
X141350000Y-69764285D01*
X141421428Y-69621428D01*
X141492857Y-69550000D01*
X141635714Y-69478571D01*
X141921428Y-69478571D01*
X142064285Y-69550000D01*
X143350000Y-70407142D02*
X143207142Y-70478571D01*
X142921428Y-70478571D01*
X142778571Y-70407142D01*
X142707142Y-70264285D01*
X142707142Y-69692857D01*
X142778571Y-69550000D01*
X142921428Y-69478571D01*
X143207142Y-69478571D01*
X143350000Y-69550000D01*
X143421428Y-69692857D01*
X143421428Y-69835714D01*
X142707142Y-69978571D01*
X144064285Y-70478571D02*
X144064285Y-69478571D01*
X144064285Y-69764285D02*
X144135714Y-69621428D01*
X144207142Y-69550000D01*
X144350000Y-69478571D01*
X144492857Y-69478571D01*
X145992857Y-69478571D02*
X146350000Y-70478571D01*
X146707142Y-69478571D01*
X147564285Y-68978571D02*
X147707142Y-68978571D01*
X147850000Y-69050000D01*
X147921428Y-69121428D01*
X147992857Y-69264285D01*
X148064285Y-69550000D01*
X148064285Y-69907142D01*
X147992857Y-70192857D01*
X147921428Y-70335714D01*
X147850000Y-70407142D01*
X147707142Y-70478571D01*
X147564285Y-70478571D01*
X147421428Y-70407142D01*
X147350000Y-70335714D01*
X147278571Y-70192857D01*
X147207142Y-69907142D01*
X147207142Y-69550000D01*
X147278571Y-69264285D01*
X147350000Y-69121428D01*
X147421428Y-69050000D01*
X147564285Y-68978571D01*
X148707142Y-70335714D02*
X148778571Y-70407142D01*
X148707142Y-70478571D01*
X148635714Y-70407142D01*
X148707142Y-70335714D01*
X148707142Y-70478571D01*
X149278571Y-68978571D02*
X150278571Y-68978571D01*
X149635714Y-70478571D01*
X150850000Y-70335714D02*
X150921428Y-70407142D01*
X150850000Y-70478571D01*
X150778571Y-70407142D01*
X150850000Y-70335714D01*
X150850000Y-70478571D01*
X151492857Y-69121428D02*
X151564285Y-69050000D01*
X151707142Y-68978571D01*
X152064285Y-68978571D01*
X152207142Y-69050000D01*
X152278571Y-69121428D01*
X152350000Y-69264285D01*
X152350000Y-69407142D01*
X152278571Y-69621428D01*
X151421428Y-70478571D01*
X152350000Y-70478571D01*
D12*
G04 #@! TO.C,U12*
X130550000Y-104400000D02*
X130550000Y-71400000D01*
X163550000Y-71400000D02*
X130550000Y-71400000D01*
X163550000Y-104400000D02*
X163550000Y-71400000D01*
X163550000Y-104400000D02*
X130550000Y-104400000D01*
X159550000Y-75400000D02*
X134550000Y-75400000D01*
X159550000Y-75400000D02*
X159550000Y-100400000D01*
X134550000Y-100400000D02*
X134550000Y-75400000D01*
X159550000Y-100400000D02*
X134550000Y-100400000D01*
D13*
G04 #@! TO.C,U7*
X143415326Y-58402629D02*
G75*
G03X144192916Y-57625098I3774674J-2997371D01*
G01*
X142524144Y-57511961D02*
X143415098Y-58402916D01*
X143301961Y-56734144D02*
X142524144Y-57511961D01*
X144192916Y-57625098D02*
X143301961Y-56734144D01*
G04 #@! TO.C,PROG1*
X134924000Y-107248600D02*
X134824000Y-107248600D01*
X136424000Y-111648600D02*
X136424000Y-107248600D01*
X133324000Y-107248600D02*
X133324000Y-111648600D01*
X134924000Y-111648600D02*
X134824000Y-111648600D01*
G04 #@! TO.C,D1*
X156402600Y-65088000D02*
X156402600Y-65244000D01*
X156402600Y-62772000D02*
X156402600Y-62928000D01*
X159003730Y-65087837D02*
G75*
G02X156921639Y-65088000I-1041130J1079837D01*
G01*
X159003730Y-62928163D02*
G75*
G03X156921639Y-62928000I-1041130J-1079837D01*
G01*
X159634935Y-65086608D02*
G75*
G02X156402600Y-65243516I-1672335J1078608D01*
G01*
X159634935Y-62929392D02*
G75*
G03X156402600Y-62772484I-1672335J-1078608D01*
G01*
G04 #@! TO.C,D2*
X157199000Y-114577000D02*
X157199000Y-112117000D01*
X155729000Y-114577000D02*
X157199000Y-114577000D01*
X155729000Y-112117000D02*
X155729000Y-114577000D01*
G04 #@! TO.C,D4*
X138657000Y-109625000D02*
X138657000Y-107165000D01*
X138657000Y-107165000D02*
X137187000Y-107165000D01*
X137187000Y-107165000D02*
X137187000Y-109625000D01*
G04 #@! TO.C,D5*
X138657000Y-118133000D02*
X138657000Y-115673000D01*
X137187000Y-118133000D02*
X138657000Y-118133000D01*
X137187000Y-115673000D02*
X137187000Y-118133000D01*
G04 #@! TO.C,FACTORY1*
X159157200Y-110830000D02*
X159257200Y-110830000D01*
X160757200Y-115230000D02*
X160757200Y-110830000D01*
X157657200Y-110830000D02*
X157657200Y-115230000D01*
X159157200Y-115230000D02*
X159257200Y-115230000D01*
D12*
G04 #@! TO.C,LS1*
X153753200Y-113028400D02*
G75*
G03X153753200Y-113028400I-7500000J0D01*
G01*
D13*
G04 #@! TO.C,REBOOT1*
X134924000Y-118633600D02*
X134824000Y-118633600D01*
X133324000Y-114233600D02*
X133324000Y-118633600D01*
X136424000Y-118633600D02*
X136424000Y-114233600D01*
X134924000Y-114233600D02*
X134824000Y-114233600D01*
D12*
G04 #@! TO.C,U2*
X154786200Y-59554000D02*
X154786200Y-56554000D01*
X154786200Y-56554000D02*
X161586200Y-56554000D01*
X161586200Y-56554000D02*
X161586200Y-59554000D01*
X161586200Y-59554000D02*
X154786200Y-59554000D01*
G04 #@! TO.C,U3*
X138226400Y-62856800D02*
X138226400Y-59306800D01*
X138226400Y-59306800D02*
X140896400Y-59306800D01*
X140896400Y-59306800D02*
X140896400Y-62856800D01*
X140896400Y-62856800D02*
X138226400Y-62856800D01*
G04 #@! TO.C,U6*
X136399400Y-62076200D02*
X134599400Y-62076200D01*
X133409400Y-63276200D02*
X133399400Y-65076200D01*
X133399400Y-65076200D02*
X136399400Y-65076200D01*
X136399400Y-65076200D02*
X136399400Y-62076200D01*
X133409400Y-63276200D02*
X134599400Y-62076200D01*
G04 #@! TO.C,U8*
X133832800Y-58633400D02*
X133832800Y-60633400D01*
X135132800Y-58633400D02*
X133832800Y-58633400D01*
X135832800Y-60633400D02*
X133832800Y-60633400D01*
X135832800Y-59353400D02*
X135832800Y-60633400D01*
X135132800Y-58633400D02*
X135832800Y-59353400D01*
D13*
G04 #@! TO.C,D7*
X150716000Y-91396000D02*
X143416000Y-91396000D01*
X150716000Y-85896000D02*
X143416000Y-85896000D01*
X143416000Y-85896000D02*
X143416000Y-87046000D01*
G04 #@! TD*
G04 #@! TO.C,U7*
D12*
X160238095Y-51752380D02*
X160238095Y-52561904D01*
X160285714Y-52657142D01*
X160333333Y-52704761D01*
X160428571Y-52752380D01*
X160619047Y-52752380D01*
X160714285Y-52704761D01*
X160761904Y-52657142D01*
X160809523Y-52561904D01*
X160809523Y-51752380D01*
X161190476Y-51752380D02*
X161857142Y-51752380D01*
X161428571Y-52752380D01*
G04 #@! TO.C,U12*
X161011904Y-104752380D02*
X161011904Y-105561904D01*
X161059523Y-105657142D01*
X161107142Y-105704761D01*
X161202380Y-105752380D01*
X161392857Y-105752380D01*
X161488095Y-105704761D01*
X161535714Y-105657142D01*
X161583333Y-105561904D01*
X161583333Y-104752380D01*
X162583333Y-105752380D02*
X162011904Y-105752380D01*
X162297619Y-105752380D02*
X162297619Y-104752380D01*
X162202380Y-104895238D01*
X162107142Y-104990476D01*
X162011904Y-105038095D01*
X162964285Y-104847619D02*
X163011904Y-104800000D01*
X163107142Y-104752380D01*
X163345238Y-104752380D01*
X163440476Y-104800000D01*
X163488095Y-104847619D01*
X163535714Y-104942857D01*
X163535714Y-105038095D01*
X163488095Y-105180952D01*
X162916666Y-105752380D01*
X163535714Y-105752380D01*
G04 #@! TO.C,U7*
X146428095Y-55032380D02*
X146428095Y-55841904D01*
X146475714Y-55937142D01*
X146523333Y-55984761D01*
X146618571Y-56032380D01*
X146809047Y-56032380D01*
X146904285Y-55984761D01*
X146951904Y-55937142D01*
X146999523Y-55841904D01*
X146999523Y-55032380D01*
X147380476Y-55032380D02*
X148047142Y-55032380D01*
X147618571Y-56032380D01*
G04 #@! TO.C,PROG1*
X132876380Y-111710504D02*
X131876380Y-111710504D01*
X131876380Y-111329552D01*
X131924000Y-111234314D01*
X131971619Y-111186695D01*
X132066857Y-111139076D01*
X132209714Y-111139076D01*
X132304952Y-111186695D01*
X132352571Y-111234314D01*
X132400190Y-111329552D01*
X132400190Y-111710504D01*
X132876380Y-110139076D02*
X132400190Y-110472409D01*
X132876380Y-110710504D02*
X131876380Y-110710504D01*
X131876380Y-110329552D01*
X131924000Y-110234314D01*
X131971619Y-110186695D01*
X132066857Y-110139076D01*
X132209714Y-110139076D01*
X132304952Y-110186695D01*
X132352571Y-110234314D01*
X132400190Y-110329552D01*
X132400190Y-110710504D01*
X131876380Y-109520028D02*
X131876380Y-109329552D01*
X131924000Y-109234314D01*
X132019238Y-109139076D01*
X132209714Y-109091457D01*
X132543047Y-109091457D01*
X132733523Y-109139076D01*
X132828761Y-109234314D01*
X132876380Y-109329552D01*
X132876380Y-109520028D01*
X132828761Y-109615266D01*
X132733523Y-109710504D01*
X132543047Y-109758123D01*
X132209714Y-109758123D01*
X132019238Y-109710504D01*
X131924000Y-109615266D01*
X131876380Y-109520028D01*
X131924000Y-108139076D02*
X131876380Y-108234314D01*
X131876380Y-108377171D01*
X131924000Y-108520028D01*
X132019238Y-108615266D01*
X132114476Y-108662885D01*
X132304952Y-108710504D01*
X132447809Y-108710504D01*
X132638285Y-108662885D01*
X132733523Y-108615266D01*
X132828761Y-108520028D01*
X132876380Y-108377171D01*
X132876380Y-108281933D01*
X132828761Y-108139076D01*
X132781142Y-108091457D01*
X132447809Y-108091457D01*
X132447809Y-108281933D01*
X132876380Y-107139076D02*
X132876380Y-107710504D01*
X132876380Y-107424790D02*
X131876380Y-107424790D01*
X132019238Y-107520028D01*
X132114476Y-107615266D01*
X132162095Y-107710504D01*
G04 #@! TO.C,D1*
X159078704Y-67711580D02*
X159078704Y-66711580D01*
X159316800Y-66711580D01*
X159459657Y-66759200D01*
X159554895Y-66854438D01*
X159602514Y-66949676D01*
X159650133Y-67140152D01*
X159650133Y-67283009D01*
X159602514Y-67473485D01*
X159554895Y-67568723D01*
X159459657Y-67663961D01*
X159316800Y-67711580D01*
X159078704Y-67711580D01*
X160602514Y-67711580D02*
X160031085Y-67711580D01*
X160316800Y-67711580D02*
X160316800Y-66711580D01*
X160221561Y-66854438D01*
X160126323Y-66949676D01*
X160031085Y-66997295D01*
G04 #@! TO.C,D2*
X155725904Y-115768380D02*
X155725904Y-114768380D01*
X155964000Y-114768380D01*
X156106857Y-114816000D01*
X156202095Y-114911238D01*
X156249714Y-115006476D01*
X156297333Y-115196952D01*
X156297333Y-115339809D01*
X156249714Y-115530285D01*
X156202095Y-115625523D01*
X156106857Y-115720761D01*
X155964000Y-115768380D01*
X155725904Y-115768380D01*
X156678285Y-114863619D02*
X156725904Y-114816000D01*
X156821142Y-114768380D01*
X157059238Y-114768380D01*
X157154476Y-114816000D01*
X157202095Y-114863619D01*
X157249714Y-114958857D01*
X157249714Y-115054095D01*
X157202095Y-115196952D01*
X156630666Y-115768380D01*
X157249714Y-115768380D01*
G04 #@! TO.C,D4*
X137183904Y-106878380D02*
X137183904Y-105878380D01*
X137422000Y-105878380D01*
X137564857Y-105926000D01*
X137660095Y-106021238D01*
X137707714Y-106116476D01*
X137755333Y-106306952D01*
X137755333Y-106449809D01*
X137707714Y-106640285D01*
X137660095Y-106735523D01*
X137564857Y-106830761D01*
X137422000Y-106878380D01*
X137183904Y-106878380D01*
X138612476Y-106211714D02*
X138612476Y-106878380D01*
X138374380Y-105830761D02*
X138136285Y-106545047D01*
X138755333Y-106545047D01*
G04 #@! TO.C,D5*
X137183904Y-119324380D02*
X137183904Y-118324380D01*
X137422000Y-118324380D01*
X137564857Y-118372000D01*
X137660095Y-118467238D01*
X137707714Y-118562476D01*
X137755333Y-118752952D01*
X137755333Y-118895809D01*
X137707714Y-119086285D01*
X137660095Y-119181523D01*
X137564857Y-119276761D01*
X137422000Y-119324380D01*
X137183904Y-119324380D01*
X138660095Y-118324380D02*
X138183904Y-118324380D01*
X138136285Y-118800571D01*
X138183904Y-118752952D01*
X138279142Y-118705333D01*
X138517238Y-118705333D01*
X138612476Y-118752952D01*
X138660095Y-118800571D01*
X138707714Y-118895809D01*
X138707714Y-119133904D01*
X138660095Y-119229142D01*
X138612476Y-119276761D01*
X138517238Y-119324380D01*
X138279142Y-119324380D01*
X138183904Y-119276761D01*
X138136285Y-119229142D01*
G04 #@! TO.C,FACTORY1*
X161585771Y-116125238D02*
X161585771Y-116458571D01*
X162109580Y-116458571D02*
X161109580Y-116458571D01*
X161109580Y-115982380D01*
X161823866Y-115649047D02*
X161823866Y-115172857D01*
X162109580Y-115744285D02*
X161109580Y-115410952D01*
X162109580Y-115077619D01*
X162014342Y-114172857D02*
X162061961Y-114220476D01*
X162109580Y-114363333D01*
X162109580Y-114458571D01*
X162061961Y-114601428D01*
X161966723Y-114696666D01*
X161871485Y-114744285D01*
X161681009Y-114791904D01*
X161538152Y-114791904D01*
X161347676Y-114744285D01*
X161252438Y-114696666D01*
X161157200Y-114601428D01*
X161109580Y-114458571D01*
X161109580Y-114363333D01*
X161157200Y-114220476D01*
X161204819Y-114172857D01*
X161109580Y-113887142D02*
X161109580Y-113315714D01*
X162109580Y-113601428D02*
X161109580Y-113601428D01*
X161109580Y-112791904D02*
X161109580Y-112601428D01*
X161157200Y-112506190D01*
X161252438Y-112410952D01*
X161442914Y-112363333D01*
X161776247Y-112363333D01*
X161966723Y-112410952D01*
X162061961Y-112506190D01*
X162109580Y-112601428D01*
X162109580Y-112791904D01*
X162061961Y-112887142D01*
X161966723Y-112982380D01*
X161776247Y-113030000D01*
X161442914Y-113030000D01*
X161252438Y-112982380D01*
X161157200Y-112887142D01*
X161109580Y-112791904D01*
X162109580Y-111363333D02*
X161633390Y-111696666D01*
X162109580Y-111934761D02*
X161109580Y-111934761D01*
X161109580Y-111553809D01*
X161157200Y-111458571D01*
X161204819Y-111410952D01*
X161300057Y-111363333D01*
X161442914Y-111363333D01*
X161538152Y-111410952D01*
X161585771Y-111458571D01*
X161633390Y-111553809D01*
X161633390Y-111934761D01*
X161633390Y-110744285D02*
X162109580Y-110744285D01*
X161109580Y-111077619D02*
X161633390Y-110744285D01*
X161109580Y-110410952D01*
X162109580Y-109553809D02*
X162109580Y-110125238D01*
X162109580Y-109839523D02*
X161109580Y-109839523D01*
X161252438Y-109934761D01*
X161347676Y-110030000D01*
X161395295Y-110125238D01*
G04 #@! TO.C,LS1*
X151249142Y-106624380D02*
X150772952Y-106624380D01*
X150772952Y-105624380D01*
X151534857Y-106576761D02*
X151677714Y-106624380D01*
X151915809Y-106624380D01*
X152011047Y-106576761D01*
X152058666Y-106529142D01*
X152106285Y-106433904D01*
X152106285Y-106338666D01*
X152058666Y-106243428D01*
X152011047Y-106195809D01*
X151915809Y-106148190D01*
X151725333Y-106100571D01*
X151630095Y-106052952D01*
X151582476Y-106005333D01*
X151534857Y-105910095D01*
X151534857Y-105814857D01*
X151582476Y-105719619D01*
X151630095Y-105672000D01*
X151725333Y-105624380D01*
X151963428Y-105624380D01*
X152106285Y-105672000D01*
X153058666Y-106624380D02*
X152487238Y-106624380D01*
X152772952Y-106624380D02*
X152772952Y-105624380D01*
X152677714Y-105767238D01*
X152582476Y-105862476D01*
X152487238Y-105910095D01*
G04 #@! TO.C,REBOOT1*
X132876380Y-118981219D02*
X132400190Y-119314552D01*
X132876380Y-119552647D02*
X131876380Y-119552647D01*
X131876380Y-119171695D01*
X131924000Y-119076457D01*
X131971619Y-119028838D01*
X132066857Y-118981219D01*
X132209714Y-118981219D01*
X132304952Y-119028838D01*
X132352571Y-119076457D01*
X132400190Y-119171695D01*
X132400190Y-119552647D01*
X132352571Y-118552647D02*
X132352571Y-118219314D01*
X132876380Y-118076457D02*
X132876380Y-118552647D01*
X131876380Y-118552647D01*
X131876380Y-118076457D01*
X132352571Y-117314552D02*
X132400190Y-117171695D01*
X132447809Y-117124076D01*
X132543047Y-117076457D01*
X132685904Y-117076457D01*
X132781142Y-117124076D01*
X132828761Y-117171695D01*
X132876380Y-117266933D01*
X132876380Y-117647885D01*
X131876380Y-117647885D01*
X131876380Y-117314552D01*
X131924000Y-117219314D01*
X131971619Y-117171695D01*
X132066857Y-117124076D01*
X132162095Y-117124076D01*
X132257333Y-117171695D01*
X132304952Y-117219314D01*
X132352571Y-117314552D01*
X132352571Y-117647885D01*
X131876380Y-116457409D02*
X131876380Y-116266933D01*
X131924000Y-116171695D01*
X132019238Y-116076457D01*
X132209714Y-116028838D01*
X132543047Y-116028838D01*
X132733523Y-116076457D01*
X132828761Y-116171695D01*
X132876380Y-116266933D01*
X132876380Y-116457409D01*
X132828761Y-116552647D01*
X132733523Y-116647885D01*
X132543047Y-116695504D01*
X132209714Y-116695504D01*
X132019238Y-116647885D01*
X131924000Y-116552647D01*
X131876380Y-116457409D01*
X131876380Y-115409790D02*
X131876380Y-115219314D01*
X131924000Y-115124076D01*
X132019238Y-115028838D01*
X132209714Y-114981219D01*
X132543047Y-114981219D01*
X132733523Y-115028838D01*
X132828761Y-115124076D01*
X132876380Y-115219314D01*
X132876380Y-115409790D01*
X132828761Y-115505028D01*
X132733523Y-115600266D01*
X132543047Y-115647885D01*
X132209714Y-115647885D01*
X132019238Y-115600266D01*
X131924000Y-115505028D01*
X131876380Y-115409790D01*
X131876380Y-114695504D02*
X131876380Y-114124076D01*
X132876380Y-114409790D02*
X131876380Y-114409790D01*
X132876380Y-113266933D02*
X132876380Y-113838361D01*
X132876380Y-113552647D02*
X131876380Y-113552647D01*
X132019238Y-113647885D01*
X132114476Y-113743123D01*
X132162095Y-113838361D01*
G04 #@! TO.C,U2*
X159893095Y-55256180D02*
X159893095Y-56065704D01*
X159940714Y-56160942D01*
X159988333Y-56208561D01*
X160083571Y-56256180D01*
X160274047Y-56256180D01*
X160369285Y-56208561D01*
X160416904Y-56160942D01*
X160464523Y-56065704D01*
X160464523Y-55256180D01*
X160893095Y-55351419D02*
X160940714Y-55303800D01*
X161035952Y-55256180D01*
X161274047Y-55256180D01*
X161369285Y-55303800D01*
X161416904Y-55351419D01*
X161464523Y-55446657D01*
X161464523Y-55541895D01*
X161416904Y-55684752D01*
X160845476Y-56256180D01*
X161464523Y-56256180D01*
G04 #@! TO.C,U3*
X139446095Y-58126380D02*
X139446095Y-58935904D01*
X139493714Y-59031142D01*
X139541333Y-59078761D01*
X139636571Y-59126380D01*
X139827047Y-59126380D01*
X139922285Y-59078761D01*
X139969904Y-59031142D01*
X140017523Y-58935904D01*
X140017523Y-58126380D01*
X140398476Y-58126380D02*
X141017523Y-58126380D01*
X140684190Y-58507333D01*
X140827047Y-58507333D01*
X140922285Y-58554952D01*
X140969904Y-58602571D01*
X141017523Y-58697809D01*
X141017523Y-58935904D01*
X140969904Y-59031142D01*
X140922285Y-59078761D01*
X140827047Y-59126380D01*
X140541333Y-59126380D01*
X140446095Y-59078761D01*
X140398476Y-59031142D01*
G04 #@! TO.C,U6*
X134317495Y-65398580D02*
X134317495Y-66208104D01*
X134365114Y-66303342D01*
X134412733Y-66350961D01*
X134507971Y-66398580D01*
X134698447Y-66398580D01*
X134793685Y-66350961D01*
X134841304Y-66303342D01*
X134888923Y-66208104D01*
X134888923Y-65398580D01*
X135793685Y-65398580D02*
X135603209Y-65398580D01*
X135507971Y-65446200D01*
X135460352Y-65493819D01*
X135365114Y-65636676D01*
X135317495Y-65827152D01*
X135317495Y-66208104D01*
X135365114Y-66303342D01*
X135412733Y-66350961D01*
X135507971Y-66398580D01*
X135698447Y-66398580D01*
X135793685Y-66350961D01*
X135841304Y-66303342D01*
X135888923Y-66208104D01*
X135888923Y-65970009D01*
X135841304Y-65874771D01*
X135793685Y-65827152D01*
X135698447Y-65779533D01*
X135507971Y-65779533D01*
X135412733Y-65827152D01*
X135365114Y-65874771D01*
X135317495Y-65970009D01*
G04 #@! TO.C,U8*
X134999466Y-57520066D02*
X134999466Y-58086733D01*
X135032800Y-58153400D01*
X135066133Y-58186733D01*
X135132800Y-58220066D01*
X135266133Y-58220066D01*
X135332800Y-58186733D01*
X135366133Y-58153400D01*
X135399466Y-58086733D01*
X135399466Y-57520066D01*
X135832800Y-57820066D02*
X135766133Y-57786733D01*
X135732800Y-57753400D01*
X135699466Y-57686733D01*
X135699466Y-57653400D01*
X135732800Y-57586733D01*
X135766133Y-57553400D01*
X135832800Y-57520066D01*
X135966133Y-57520066D01*
X136032800Y-57553400D01*
X136066133Y-57586733D01*
X136099466Y-57653400D01*
X136099466Y-57686733D01*
X136066133Y-57753400D01*
X136032800Y-57786733D01*
X135966133Y-57820066D01*
X135832800Y-57820066D01*
X135766133Y-57853400D01*
X135732800Y-57886733D01*
X135699466Y-57953400D01*
X135699466Y-58086733D01*
X135732800Y-58153400D01*
X135766133Y-58186733D01*
X135832800Y-58220066D01*
X135966133Y-58220066D01*
X136032800Y-58186733D01*
X136066133Y-58153400D01*
X136099466Y-58086733D01*
X136099466Y-57953400D01*
X136066133Y-57886733D01*
X136032800Y-57853400D01*
X135966133Y-57820066D01*
G04 #@! TO.C,D7*
X146327904Y-92598380D02*
X146327904Y-91598380D01*
X146566000Y-91598380D01*
X146708857Y-91646000D01*
X146804095Y-91741238D01*
X146851714Y-91836476D01*
X146899333Y-92026952D01*
X146899333Y-92169809D01*
X146851714Y-92360285D01*
X146804095Y-92455523D01*
X146708857Y-92550761D01*
X146566000Y-92598380D01*
X146327904Y-92598380D01*
X147232666Y-91598380D02*
X147899333Y-91598380D01*
X147470761Y-92598380D01*
X151501714Y-90698380D02*
X150930285Y-90698380D01*
X151216000Y-90698380D02*
X151216000Y-89698380D01*
X151120761Y-89841238D01*
X151025523Y-89936476D01*
X150930285Y-89984095D01*
G04 #@! TD*
M02*
