M48
; DRILL file {KiCad 7.0.9-7.0.9~ubuntu23.04.1} date Wed 27 Dec 2023 07:27:40 AM CST
; FORMAT={-:-/ absolute / inch / decimal}
; #@! TF.CreationDate,2023-12-27T07:27:40-06:00
; #@! TF.GenerationSoftware,Kicad,Pcbnew,7.0.9-7.0.9~ubuntu23.04.1
; #@! TF.FileFunction,Plated,1,4,PTH
FMAT,2
INCH
; #@! TA.AperFunction,Plated,PTH,ViaDrill
T1C0.0157
; #@! TA.AperFunction,Plated,PTH,ViaDrill
T2C0.0236
; #@! TA.AperFunction,Plated,PTH,ViaDrill
T3C0.0276
; #@! TA.AperFunction,Plated,PTH,ComponentDrill
T4C0.0350
; #@! TA.AperFunction,Plated,PTH,ViaDrill
T5C0.0394
; #@! TA.AperFunction,Plated,PTH,ComponentDrill
T6C0.0394
; #@! TA.AperFunction,Plated,PTH,ViaDrill
T7C0.0492
; #@! TA.AperFunction,Plated,PTH,ComponentDrill
T8C0.0512
; #@! TA.AperFunction,Plated,PTH,ComponentDrill
T9C0.0618
; #@! TA.AperFunction,Plated,PTH,ComponentDrill
T10C0.1083
%
G90
G05
T1
X3.6112Y-3.252
X3.6132Y-2.4144
X3.624Y-3.0876
X3.7087Y-3.252
X3.7165Y-3.1781
X3.7195Y-3.1102
X3.878Y-3.5876
X3.9163Y-2.9183
X3.937Y-3.0531
X3.9469Y-2.6014
X3.9469Y-4.1319
X3.9627Y-3.6126
X3.9911Y-3.1407
X3.9951Y-2.6004
X4.0028Y-3.58
X4.003Y-3.06
X4.0276Y-3.6102
X4.0354Y-3.5226
X4.0354Y-3.6693
X4.0492Y-2.6053
X4.064Y-2.9557
X4.0945Y-2.6063
X4.0974Y-2.9124
X4.1211Y-2.6972
X4.1496Y-3.6309
X4.1575Y-3.5098
X4.1623Y-3.4807
X4.1693Y-3.69
X4.1742Y-2.9026
X4.19Y-3.8031
X4.2087Y-3.687
X4.2244Y-3.4724
X4.2283Y-3.8051
X4.248Y-3.3632
X4.25Y-3.4793
X4.2584Y-3.5149
X4.2677Y-2.4724
X4.2677Y-3.69
X4.2805Y-2.7313
X4.2819Y-2.9414
X4.2943Y-3.5069
X4.2972Y-2.627
X4.2985Y-3.0224
X4.3031Y-2.9144
X4.3041Y-3.2904
X4.3071Y-3.4715
X4.3081Y-3.8022
X4.3258Y-3.0418
X4.3307Y-3.5049
X4.333Y-3.4606
X4.3425Y-3.6811
X4.3484Y-2.8474
X4.3494Y-2.4734
X4.3573Y-3.4823
X4.3632Y-3.6112
X4.3809Y-2.4675
X4.3897Y-2.9008
X4.3927Y-3.0502
X4.4203Y-2.9144
X4.4341Y-2.6083
X4.4783Y-3.6201
X4.5335Y-3.0699
X4.7825Y-3.4429
X4.7835Y-3.7008
X4.7874Y-3.1545
X4.811Y-2.8169
X4.813Y-3.0148
X4.9872Y-2.8159
X4.9882Y-3.0138
X5.0236Y-3.1545
X5.125Y-3.0118
X5.1565Y-2.374
X5.1722Y-2.7598
X5.2992Y-2.7067
X5.2992Y-3.0197
X5.3012Y-3.128
X5.3524Y-2.7598
X5.4547Y-3.0187
X5.4921Y-2.7717
X5.6053Y-3.0157
X5.6093Y-2.7028
X5.6358Y-3.1506
X5.6604Y-2.7618
X5.687Y-3.7392
X5.7037Y-2.3553
X5.7153Y-3.757
X5.7249Y-3.4973
X5.7638Y-3.4242
X5.7874Y-2.4262
X5.8839Y-2.9646
X5.9075Y-2.7648
X5.9331Y-2.9449
X5.9439Y-2.7815
X6.0Y-3.002
X6.0384Y-2.9596
X6.0433Y-2.7244
X6.1389Y-2.9615
X6.1398Y-2.7215
X6.2323Y-3.0443
X6.2393Y-2.9577
X6.2402Y-2.7195
X6.3376Y-2.7244
X6.3389Y-2.9587
X6.3415Y-3.0413
X6.4596Y-3.002
X6.7717Y-4.2224
X6.7717Y-4.3563
X6.8593Y-4.8898
X6.86Y-3.3827
X6.8643Y-3.3495
X6.8711Y-4.3612
X6.872Y-3.3169
X6.873Y-4.2215
X6.881Y-3.2827
X6.9695Y-4.3632
X6.9707Y-4.2057
X7.0Y-3.6801
X7.003Y-3.4813
X7.0079Y-2.7106
X7.0079Y-2.8494
X7.0157Y-2.9577
X7.0335Y-3.5787
X7.0719Y-4.3642
X7.0965Y-2.9646
X7.1073Y-2.8514
X7.1093Y-2.7096
X7.1132Y-4.1703
X7.126Y-4.0856
X7.2096Y-2.7106
X7.2106Y-2.8484
X7.2283Y-2.9577
X7.2333Y-3.4577
X7.3061Y-3.2864
X7.3071Y-2.8524
X7.3091Y-2.7126
X7.3199Y-3.5384
X7.3248Y-3.4085
X7.3258Y-3.7087
X7.3297Y-2.9577
X7.3346Y-3.7579
X7.3415Y-3.3691
X7.4675Y-3.7569
X7.4695Y-3.7106
X7.5096Y-3.3113
X7.5217Y-3.5561
X7.6969Y-3.8583
X7.6978Y-3.6614
X7.6978Y-3.9537
X7.6988Y-3.8081
X7.6988Y-3.9085
X7.8327Y-3.9085
X7.8337Y-3.8071
X7.8346Y-3.8593
X7.8356Y-3.9557
X7.8494Y-3.4094
X7.8524Y-3.7087
X7.9222Y-3.315
X8.0965Y-4.0925
X8.0974Y-2.9144
X8.0984Y-2.75
X8.0994Y-4.4341
X8.1014Y-2.5728
X8.1348Y-4.0413
X8.1378Y-2.5187
X8.1703Y-2.9144
X8.1722Y-4.436
X8.2559Y-2.7648
X8.2628Y-4.4793
X8.2677Y-4.2825
X8.3219Y-2.9341
X8.3268Y-2.8386
T2
X3.5394Y-2.6142
X3.6929Y-2.5827
X3.7234Y-3.0404
X3.7431Y-2.8563
X3.749Y-2.7244
X3.7992Y-2.8317
X3.811Y-3.1181
X3.9616Y-2.1467
X4.06Y-2.0423
X4.062Y-2.2441
X4.1299Y-3.0256
X4.1339Y-3.0748
X4.1624Y-2.1417
X4.188Y-3.0827
X4.1919Y-3.0335
X4.4016Y-1.8356
X4.5305Y-1.8376
X4.8296Y-2.6517
X4.9183Y-2.6791
X5.1378Y-3.6496
X5.2244Y-3.4636
X5.2844Y-3.1634
X5.4045Y-3.1526
X5.8937Y-4.5551
X6.2579Y-4.3848
X6.6014Y-3.7756
X6.6033Y-3.5728
X6.6526Y-3.7638
X6.6585Y-3.3917
X6.7726Y-3.9961
X6.875Y-3.997
X6.9813Y-3.9951
X7.2923Y-3.5876
X7.9311Y-3.6713
T3
X3.5305Y-1.8425
X3.8445Y-1.8346
X5.0709Y-4.3061
X5.2087Y-4.248
X5.2608Y-3.9715
X5.2766Y-3.6398
X5.2963Y-4.2254
X5.3681Y-4.0827
X5.3691Y-4.1663
T4
X3.5187Y-3.8057
X3.5187Y-3.8857
X3.5187Y-3.9657
X3.5187Y-4.0457
X3.5888Y-3.7657
X3.5888Y-3.8457
X3.5888Y-3.9257
X3.5888Y-4.0057
X3.7785Y-3.6354
X3.7785Y-3.7256
X3.7785Y-4.0854
X3.7785Y-4.1756
T5
X3.9085Y-2.3661
X3.9498Y-4.2234
X3.9537Y-4.6644
X3.9931Y-2.3681
X4.0719Y-4.122
X4.188Y-4.4665
X4.1959Y-4.6594
X4.3169Y-4.123
X4.5069Y-4.6545
X4.5098Y-4.4665
X4.5128Y-4.2175
X4.6368Y-4.122
X4.7736Y-4.5266
X4.9459Y-2.3652
X4.9941Y-4.5236
X5.0522Y-4.4498
X5.247Y-2.5846
X5.3002Y-2.5098
X5.3632Y-3.8091
X5.3641Y-3.5531
X5.3641Y-3.6476
X5.626Y-3.5709
X5.6329Y-3.4724
X5.6398Y-3.6378
X5.6772Y-4.1437
X5.6831Y-4.2274
X5.753Y-4.2953
X5.8238Y-4.1437
X5.876Y-4.3022
X5.9281Y-4.156
X5.9596Y-4.3898
X6.0276Y-4.2854
X8.0915Y-4.2736
X8.3632Y-3.6171
T6
X8.6289Y-3.5276
X8.9439Y-3.5276
T7
X5.9114Y-3.8681
X5.9203Y-3.7539
X6.0246Y-3.8661
X6.0315Y-3.7411
X6.1447Y-3.751
X6.1516Y-3.8711
T8
X4.0612Y-5.1065
X4.2612Y-5.1065
X4.7618Y-5.0807
X4.7638Y-1.9941
X4.9618Y-5.0807
X4.9638Y-1.9941
X5.1618Y-5.0807
X5.1638Y-1.9941
X5.3618Y-5.0807
X5.3638Y-1.9941
X5.6811Y-1.9941
X5.6811Y-5.0807
X5.8811Y-1.9941
X5.8811Y-5.0807
X6.0811Y-1.9941
X6.0811Y-5.0807
X6.3972Y-1.9961
X6.3976Y-5.0807
X6.5972Y-1.9961
X6.5976Y-5.0807
X6.7972Y-1.9961
X6.7976Y-5.0807
X7.1102Y-5.0807
X7.1122Y-1.9961
X7.3102Y-5.0807
X7.3122Y-1.9961
X7.5102Y-5.0807
X7.5122Y-1.9961
X7.8287Y-1.9961
X7.8287Y-5.0807
X8.0287Y-1.9961
X8.0287Y-5.0807
X8.2287Y-1.9961
X8.2287Y-5.0807
X8.4287Y-1.9961
X8.4287Y-5.0807
X8.8524Y-3.9642
X8.8524Y-4.1642
X8.8524Y-4.3642
X8.8524Y-4.5642
X8.8524Y-4.7642
X8.8622Y-2.3096
X8.8622Y-2.5096
X8.8622Y-2.7096
X8.8622Y-2.9096
X8.8622Y-3.1096
T9
X3.5537Y-3.5854
X3.5537Y-4.2256
T10
X3.3406Y-1.9232
X3.3406Y-5.1516
X8.9311Y-1.9232
X8.9311Y-5.1516
T6
G00X3.4695Y-4.5915
M15
G01X3.4695Y-4.6781
M16
G05
G00X3.5719Y-4.8238
M15
G01X3.6585Y-4.8238
M16
G05
G00X3.7372Y-4.5915
M15
G01X3.7372Y-4.6781
M16
G05
T0
M30
