G04 #@! TF.GenerationSoftware,KiCad,Pcbnew,7.0.11+dfsg-1build4*
G04 #@! TF.CreationDate,2025-12-11T12:27:05-06:00*
G04 #@! TF.ProjectId,access-controller,61636365-7373-42d6-936f-6e74726f6c6c,rev?*
G04 #@! TF.SameCoordinates,Original*
G04 #@! TF.FileFunction,Soldermask,Top*
G04 #@! TF.FilePolarity,Negative*
%FSLAX46Y46*%
G04 Gerber Fmt 4.6, Leading zero omitted, Abs format (unit mm)*
G04 Created by KiCad (PCBNEW 7.0.11+dfsg-1build4) date 2025-12-11 12:27:05*
%MOMM*%
%LPD*%
G01*
G04 APERTURE LIST*
G04 Aperture macros list*
%AMRoundRect*
0 Rectangle with rounded corners*
0 $1 Rounding radius*
0 $2 $3 $4 $5 $6 $7 $8 $9 X,Y pos of 4 corners*
0 Add a 4 corners polygon primitive as box body*
4,1,4,$2,$3,$4,$5,$6,$7,$8,$9,$2,$3,0*
0 Add four circle primitives for the rounded corners*
1,1,$1+$1,$2,$3*
1,1,$1+$1,$4,$5*
1,1,$1+$1,$6,$7*
1,1,$1+$1,$8,$9*
0 Add four rect primitives between the rounded corners*
20,1,$1+$1,$2,$3,$4,$5,0*
20,1,$1+$1,$4,$5,$6,$7,0*
20,1,$1+$1,$6,$7,$8,$9,0*
20,1,$1+$1,$8,$9,$2,$3,0*%
G04 Aperture macros list end*
%ADD10RoundRect,0.260000X0.297500X0.260000X-0.297500X0.260000X-0.297500X-0.260000X0.297500X-0.260000X0*%
%ADD11RoundRect,0.260000X-0.297500X-0.260000X0.297500X-0.260000X0.297500X0.260000X-0.297500X0.260000X0*%
%ADD12RoundRect,0.260000X0.260000X-0.297500X0.260000X0.297500X-0.260000X0.297500X-0.260000X-0.297500X0*%
%ADD13RoundRect,0.260000X-0.260000X0.297500X-0.260000X-0.297500X0.260000X-0.297500X0.260000X0.297500X0*%
%ADD14RoundRect,0.250000X-0.250000X0.687500X-0.250000X-0.687500X0.250000X-0.687500X0.250000X0.687500X0*%
%ADD15RoundRect,0.250000X-0.687500X-0.250000X0.687500X-0.250000X0.687500X0.250000X-0.687500X0.250000X0*%
%ADD16RoundRect,0.337500X-0.387500X-0.337500X0.387500X-0.337500X0.387500X0.337500X-0.387500X0.337500X0*%
%ADD17RoundRect,0.337500X0.387500X0.337500X-0.387500X0.337500X-0.387500X-0.337500X0.387500X-0.337500X0*%
%ADD18RoundRect,0.337500X-0.337500X0.387500X-0.337500X-0.387500X0.337500X-0.387500X0.337500X0.387500X0*%
%ADD19RoundRect,0.337500X0.337500X-0.387500X0.337500X0.387500X-0.337500X0.387500X-0.337500X-0.387500X0*%
%ADD20RoundRect,0.318750X0.318750X0.356250X-0.318750X0.356250X-0.318750X-0.356250X0.318750X-0.356250X0*%
%ADD21RoundRect,0.335106X-0.589894X0.452394X-0.589894X-0.452394X0.589894X-0.452394X0.589894X0.452394X0*%
%ADD22RoundRect,0.335106X0.589894X-0.452394X0.589894X0.452394X-0.589894X0.452394X-0.589894X-0.452394X0*%
%ADD23RoundRect,0.294443X1.030557X1.080557X-1.030557X1.080557X-1.030557X-1.080557X1.030557X-1.080557X0*%
%ADD24RoundRect,0.200000X1.150000X-1.750000X1.150000X1.750000X-1.150000X1.750000X-1.150000X-1.750000X0*%
%ADD25RoundRect,0.337500X0.350000X0.337500X-0.350000X0.337500X-0.350000X-0.337500X0.350000X-0.337500X0*%
%ADD26RoundRect,0.337500X-0.350000X-0.337500X0.350000X-0.337500X0.350000X0.337500X-0.350000X0.337500X0*%
%ADD27RoundRect,0.250000X-0.975000X-0.250000X0.975000X-0.250000X0.975000X0.250000X-0.975000X0.250000X0*%
%ADD28RoundRect,0.200000X-0.400000X0.650000X-0.400000X-0.650000X0.400000X-0.650000X0.400000X0.650000X0*%
%ADD29RoundRect,0.200000X0.400000X-0.650000X0.400000X0.650000X-0.400000X0.650000X-0.400000X-0.650000X0*%
%ADD30RoundRect,0.200000X0.750000X-1.000000X0.750000X1.000000X-0.750000X1.000000X-0.750000X-1.000000X0*%
%ADD31RoundRect,0.200000X1.900000X-1.000000X1.900000X1.000000X-1.900000X1.000000X-1.900000X-1.000000X0*%
%ADD32RoundRect,0.200000X0.550000X-2.300000X0.550000X2.300000X-0.550000X2.300000X-0.550000X-2.300000X0*%
%ADD33RoundRect,0.200000X5.400000X-4.700000X5.400000X4.700000X-5.400000X4.700000X-5.400000X-4.700000X0*%
%ADD34RoundRect,0.200000X0.500000X-1.575000X0.500000X1.575000X-0.500000X1.575000X-0.500000X-1.575000X0*%
%ADD35C,5.400000*%
%ADD36RoundRect,0.200000X-1.300000X-1.300000X1.300000X-1.300000X1.300000X1.300000X-1.300000X1.300000X0*%
%ADD37C,3.000000*%
%ADD38RoundRect,0.255000X-0.255000X0.312500X-0.255000X-0.312500X0.255000X-0.312500X0.255000X0.312500X0*%
%ADD39RoundRect,0.200000X1.300000X1.300000X-1.300000X1.300000X-1.300000X-1.300000X1.300000X-1.300000X0*%
%ADD40RoundRect,0.255000X-0.312500X-0.255000X0.312500X-0.255000X0.312500X0.255000X-0.312500X0.255000X0*%
%ADD41RoundRect,0.200000X0.650000X-0.775000X0.650000X0.775000X-0.650000X0.775000X-0.650000X-0.775000X0*%
%ADD42C,2.700000*%
%ADD43C,1.900000*%
%ADD44RoundRect,0.200000X0.750000X-0.750000X0.750000X0.750000X-0.750000X0.750000X-0.750000X-0.750000X0*%
%ADD45C,3.650000*%
%ADD46RoundRect,0.200000X-1.250000X1.000000X-1.250000X-1.000000X1.250000X-1.000000X1.250000X1.000000X0*%
%ADD47RoundRect,0.200000X-1.250000X0.250000X-1.250000X-0.250000X1.250000X-0.250000X1.250000X0.250000X0*%
%ADD48C,1.300000*%
%ADD49O,2.100000X2.100000*%
%ADD50RoundRect,0.200000X0.850000X-0.850000X0.850000X0.850000X-0.850000X0.850000X-0.850000X-0.850000X0*%
%ADD51RoundRect,0.200000X1.300000X-1.300000X1.300000X1.300000X-1.300000X1.300000X-1.300000X-1.300000X0*%
%ADD52RoundRect,0.200000X0.325000X-0.780000X0.325000X0.780000X-0.325000X0.780000X-0.325000X-0.780000X0*%
%ADD53RoundRect,0.337500X-0.400000X-0.337500X0.400000X-0.337500X0.400000X0.337500X-0.400000X0.337500X0*%
%ADD54RoundRect,0.250000X0.300000X-0.250000X0.300000X0.250000X-0.300000X0.250000X-0.300000X-0.250000X0*%
%ADD55RoundRect,0.200000X1.850000X-0.550000X1.850000X0.550000X-1.850000X0.550000X-1.850000X-0.550000X0*%
%ADD56RoundRect,0.175000X-0.762500X-0.175000X0.762500X-0.175000X0.762500X0.175000X-0.762500X0.175000X0*%
%ADD57RoundRect,0.175000X-0.175000X-0.762500X0.175000X-0.762500X0.175000X0.762500X-0.175000X0.762500X0*%
%ADD58RoundRect,0.250000X0.687500X0.250000X-0.687500X0.250000X-0.687500X-0.250000X0.687500X-0.250000X0*%
%ADD59RoundRect,0.850000X-0.850000X-1.600000X0.850000X-1.600000X0.850000X1.600000X-0.850000X1.600000X0*%
%ADD60RoundRect,0.850000X-1.600000X-0.850000X1.600000X-0.850000X1.600000X0.850000X-1.600000X0.850000X0*%
%ADD61RoundRect,0.200000X-1.675000X1.675000X-1.675000X-1.675000X1.675000X-1.675000X1.675000X1.675000X0*%
%ADD62RoundRect,0.162500X-0.437500X0.162500X-0.437500X-0.162500X0.437500X-0.162500X0.437500X0.162500X0*%
%ADD63RoundRect,0.162500X-0.162500X0.437500X-0.162500X-0.437500X0.162500X-0.437500X0.162500X0.437500X0*%
%ADD64RoundRect,0.325000X0.325000X0.475000X-0.325000X0.475000X-0.325000X-0.475000X0.325000X-0.475000X0*%
%ADD65RoundRect,0.250000X0.250000X-0.687500X0.250000X0.687500X-0.250000X0.687500X-0.250000X-0.687500X0*%
%ADD66RoundRect,0.290000X-1.910000X-1.160000X1.910000X-1.160000X1.910000X1.160000X-1.910000X1.160000X0*%
%ADD67RoundRect,0.255000X0.255000X-0.312500X0.255000X0.312500X-0.255000X0.312500X-0.255000X-0.312500X0*%
%ADD68RoundRect,0.335106X-0.452394X-0.589894X0.452394X-0.589894X0.452394X0.589894X-0.452394X0.589894X0*%
%ADD69RoundRect,0.250000X-0.300000X0.250000X-0.300000X-0.250000X0.300000X-0.250000X0.300000X0.250000X0*%
%ADD70RoundRect,0.337500X-0.337500X0.350000X-0.337500X-0.350000X0.337500X-0.350000X0.337500X0.350000X0*%
%ADD71RoundRect,0.240000X0.240000X0.270000X-0.240000X0.270000X-0.240000X-0.270000X0.240000X-0.270000X0*%
%ADD72C,2.150000*%
%ADD73RoundRect,0.300000X0.300000X0.375000X-0.300000X0.375000X-0.300000X-0.375000X0.300000X-0.375000X0*%
%ADD74RoundRect,0.200000X-0.750000X-0.450000X0.750000X-0.450000X0.750000X0.450000X-0.750000X0.450000X0*%
%ADD75RoundRect,0.200000X0.450000X-0.750000X0.450000X0.750000X-0.450000X0.750000X-0.450000X-0.750000X0*%
%ADD76RoundRect,0.200000X0.750000X0.450000X-0.750000X0.450000X-0.750000X-0.450000X0.750000X-0.450000X0*%
%ADD77RoundRect,0.200000X0.450000X0.450000X-0.450000X0.450000X-0.450000X-0.450000X0.450000X-0.450000X0*%
%ADD78RoundRect,0.250000X-0.250000X-0.300000X0.250000X-0.300000X0.250000X0.300000X-0.250000X0.300000X0*%
%ADD79C,1.000000*%
%ADD80C,1.200000*%
%ADD81C,1.400000*%
%ADD82C,2.900000*%
G04 APERTURE END LIST*
D10*
X127947500Y-86000000D03*
X126752500Y-86000000D03*
D11*
X124252500Y-86000000D03*
X125447500Y-86000000D03*
X115805000Y-64650000D03*
X117000000Y-64650000D03*
X115900000Y-62400000D03*
X117095000Y-62400000D03*
X115850000Y-60450000D03*
X117045000Y-60450000D03*
D10*
X137702500Y-112950000D03*
X138897500Y-112950000D03*
D12*
X200700000Y-67150000D03*
X200700000Y-68345000D03*
D13*
X200650000Y-106202500D03*
X200650000Y-107397500D03*
D14*
X208562500Y-112662500D03*
X206662500Y-112662500D03*
X207612500Y-114537500D03*
X208600000Y-104075000D03*
X206700000Y-104075000D03*
X207650000Y-105950000D03*
X208700000Y-108500000D03*
X206800000Y-108500000D03*
X207750000Y-110375000D03*
X207600000Y-75850000D03*
X206650000Y-73975000D03*
X208550000Y-73975000D03*
D15*
X125362500Y-87550000D03*
X125362500Y-89450000D03*
X127237500Y-88500000D03*
D16*
X118650000Y-64900000D03*
X120400000Y-64900000D03*
X118700000Y-62700000D03*
X120450000Y-62700000D03*
X118650000Y-60600000D03*
X120400000Y-60600000D03*
D17*
X136000000Y-113200000D03*
X134250000Y-113200000D03*
D18*
X202400000Y-67452500D03*
X202400000Y-69202500D03*
D19*
X202250000Y-108250000D03*
X202250000Y-106500000D03*
D17*
X144475000Y-59300000D03*
X142725000Y-59300000D03*
X161800000Y-59300000D03*
X160050000Y-59300000D03*
D18*
X202400000Y-71250000D03*
X202400000Y-73000000D03*
D17*
X136000000Y-115800000D03*
X134250000Y-115800000D03*
D18*
X202350000Y-110725000D03*
X202350000Y-112475000D03*
D17*
X135897500Y-117900000D03*
X134147500Y-117900000D03*
D16*
X154975000Y-120250000D03*
X156725000Y-120250000D03*
D17*
X175502500Y-119800000D03*
X173752500Y-119800000D03*
D16*
X179300000Y-59500000D03*
X181050000Y-59500000D03*
X212400000Y-119800000D03*
X214150000Y-119800000D03*
D20*
X117112500Y-91900000D03*
X118687500Y-91900000D03*
D21*
X146175000Y-105250000D03*
X146175000Y-107325000D03*
D22*
X141179000Y-94435500D03*
X141179000Y-92360500D03*
D21*
X141075000Y-88275000D03*
X141075000Y-90350000D03*
D23*
X154250000Y-111510000D03*
X149150000Y-111510000D03*
D24*
X100400000Y-115550000D03*
X100400000Y-110150000D03*
D13*
X123900000Y-62905000D03*
X123900000Y-64100000D03*
D11*
X123800000Y-113000000D03*
X124995000Y-113000000D03*
D13*
X131740000Y-114483500D03*
X131740000Y-115678500D03*
D12*
X129700000Y-64102500D03*
X129700000Y-62907500D03*
D25*
X189762500Y-64750000D03*
X187937500Y-64750000D03*
X186000000Y-64800000D03*
X184175000Y-64800000D03*
X182362500Y-64800000D03*
X180537500Y-64800000D03*
X178662500Y-64800000D03*
X176837500Y-64800000D03*
D26*
X168330000Y-114700000D03*
X170155000Y-114700000D03*
X172192500Y-114650000D03*
X174017500Y-114650000D03*
X175905000Y-114650000D03*
X177730000Y-114650000D03*
X179605000Y-114700000D03*
X181430000Y-114700000D03*
D27*
X187975000Y-83995000D03*
X187975000Y-85265000D03*
X187975000Y-86535000D03*
X187975000Y-87805000D03*
X187975000Y-89075000D03*
X187975000Y-90345000D03*
X187975000Y-91615000D03*
X187975000Y-92885000D03*
X187975000Y-94155000D03*
X187975000Y-95425000D03*
X187975000Y-96695000D03*
X187975000Y-97965000D03*
X187975000Y-99235000D03*
X187975000Y-100505000D03*
X197275000Y-100505000D03*
X197275000Y-99235000D03*
X197275000Y-97965000D03*
X197275000Y-96695000D03*
X197275000Y-95425000D03*
X197275000Y-94155000D03*
X197275000Y-92885000D03*
X197275000Y-91615000D03*
X197275000Y-90345000D03*
X197275000Y-89075000D03*
X197275000Y-87805000D03*
X197275000Y-86535000D03*
X197275000Y-85265000D03*
X197275000Y-83995000D03*
D28*
X186890000Y-67450000D03*
X185610000Y-67450000D03*
X184350000Y-67450000D03*
X183080000Y-67450000D03*
X181800000Y-67450000D03*
X180530000Y-67450000D03*
X179270000Y-67450000D03*
X177990000Y-67450000D03*
X177990000Y-73750000D03*
X179270000Y-73750000D03*
X180530000Y-73750000D03*
X181800000Y-73750000D03*
X183080000Y-73750000D03*
X184350000Y-73750000D03*
X185610000Y-73750000D03*
X186890000Y-73750000D03*
D29*
X170705000Y-112250000D03*
X171985000Y-112250000D03*
X173245000Y-112250000D03*
X174515000Y-112250000D03*
X175795000Y-112250000D03*
X177065000Y-112250000D03*
X178325000Y-112250000D03*
X179605000Y-112250000D03*
X179605000Y-105950000D03*
X178325000Y-105950000D03*
X177065000Y-105950000D03*
X175795000Y-105950000D03*
X174515000Y-105950000D03*
X173245000Y-105950000D03*
X171985000Y-105950000D03*
X170705000Y-105950000D03*
D30*
X133949000Y-94596500D03*
X136249000Y-94596500D03*
D31*
X136249000Y-88296500D03*
D30*
X138549000Y-94596500D03*
D32*
X156450000Y-105562500D03*
X154750000Y-105562500D03*
D33*
X153050000Y-96412500D03*
D32*
X153050000Y-105562500D03*
X151350000Y-105562500D03*
X149650000Y-105562500D03*
D34*
X163850000Y-93775000D03*
X163850000Y-88725000D03*
X166390000Y-93775000D03*
X166390000Y-88725000D03*
X168930000Y-93775000D03*
X168930000Y-88725000D03*
X171470000Y-93775000D03*
X171470000Y-88725000D03*
X174010000Y-93775000D03*
X174010000Y-88725000D03*
X176550000Y-93775000D03*
X176550000Y-88725000D03*
D10*
X177302500Y-103550000D03*
X176107500Y-103550000D03*
D25*
X156047500Y-65100000D03*
X154222500Y-65100000D03*
D28*
X162287500Y-67850000D03*
X161007500Y-67850000D03*
X159747500Y-67850000D03*
X158477500Y-67850000D03*
X157197500Y-67850000D03*
X155927500Y-67850000D03*
X154667500Y-67850000D03*
X153387500Y-67850000D03*
X153387500Y-74150000D03*
X154667500Y-74150000D03*
X155927500Y-74150000D03*
X157197500Y-74150000D03*
X158477500Y-74150000D03*
X159747500Y-74150000D03*
X161007500Y-74150000D03*
X162287500Y-74150000D03*
D26*
X161735000Y-65100000D03*
X163560000Y-65100000D03*
D25*
X159820000Y-65100000D03*
X157995000Y-65100000D03*
X152397500Y-65100000D03*
X150572500Y-65100000D03*
D35*
X84850000Y-48850000D03*
X226850000Y-48850000D03*
X84850000Y-130850000D03*
X226850000Y-130850000D03*
D12*
X156675000Y-111332500D03*
X156675000Y-110137500D03*
D13*
X157875000Y-110085000D03*
X157875000Y-111280000D03*
D12*
X200750000Y-112745000D03*
X200750000Y-111550000D03*
D16*
X189472000Y-119200000D03*
X191222000Y-119200000D03*
D13*
X210950000Y-111242500D03*
X210950000Y-112437500D03*
D12*
X114987500Y-76597500D03*
X114987500Y-75402500D03*
D10*
X171955000Y-103650000D03*
X170760000Y-103650000D03*
X110795000Y-84447500D03*
X109600000Y-84447500D03*
D15*
X212485000Y-88550000D03*
X212485000Y-90450000D03*
X214360000Y-89500000D03*
D36*
X103155000Y-129705000D03*
D37*
X108235000Y-129705000D03*
D38*
X100000000Y-75632500D03*
X100000000Y-76767500D03*
D39*
X190810000Y-50700000D03*
D37*
X185730000Y-50700000D03*
X180650000Y-50700000D03*
D11*
X138280000Y-80020000D03*
X139475000Y-80020000D03*
X149730000Y-114485000D03*
X150925000Y-114485000D03*
D40*
X140925000Y-80020000D03*
X142060000Y-80020000D03*
D11*
X190200000Y-117500000D03*
X191395000Y-117500000D03*
D41*
X137950000Y-78100000D03*
X137950000Y-70140000D03*
X142450000Y-78100000D03*
X142450000Y-70140000D03*
D42*
X90265000Y-91070000D03*
X90265000Y-107330000D03*
D43*
X95975000Y-92340000D03*
X95975000Y-94630000D03*
X95975000Y-103770000D03*
X95975000Y-106060000D03*
X91155000Y-95648000D03*
X89375000Y-96664000D03*
X91155000Y-97680000D03*
X89375000Y-98696000D03*
X91155000Y-99712000D03*
X89375000Y-100728000D03*
X91155000Y-101744000D03*
D44*
X89375000Y-102760000D03*
D45*
X86835000Y-92850000D03*
X86835000Y-105550000D03*
D20*
X118687500Y-88400000D03*
X117112500Y-88400000D03*
D46*
X84325000Y-85250000D03*
X89825000Y-85250000D03*
X84325000Y-76450000D03*
X89825000Y-76450000D03*
D47*
X89825000Y-82450000D03*
X89825000Y-81650000D03*
X89825000Y-80850000D03*
X89825000Y-80050000D03*
X89825000Y-79250000D03*
D48*
X87225000Y-83050000D03*
X87225000Y-78650000D03*
D36*
X144300000Y-129050000D03*
D37*
X149380000Y-129050000D03*
X154460000Y-129050000D03*
D49*
X163355000Y-83455000D03*
X160815000Y-83455000D03*
X158275000Y-83455000D03*
X155735000Y-83455000D03*
D50*
X153195000Y-83455000D03*
D49*
X130335000Y-83455000D03*
X127795000Y-83455000D03*
X125255000Y-83455000D03*
D50*
X122715000Y-83455000D03*
D13*
X210900000Y-105992500D03*
X210900000Y-107187500D03*
D10*
X162997500Y-76250000D03*
X161802500Y-76250000D03*
D51*
X224850000Y-121010000D03*
D37*
X224850000Y-115930000D03*
X224850000Y-110850000D03*
X224850000Y-105770000D03*
X224850000Y-100690000D03*
D13*
X105250000Y-66700000D03*
X105250000Y-67895000D03*
D36*
X162500000Y-129050000D03*
D37*
X167580000Y-129050000D03*
X172660000Y-129050000D03*
D11*
X120270000Y-90147500D03*
X121465000Y-90147500D03*
D40*
X125407500Y-80120000D03*
X126542500Y-80120000D03*
D12*
X210480000Y-65797500D03*
X210480000Y-64602500D03*
D11*
X174602500Y-118200000D03*
X175797500Y-118200000D03*
D16*
X198850000Y-60400000D03*
X200600000Y-60400000D03*
D11*
X213252172Y-118200000D03*
X214447172Y-118200000D03*
D52*
X130350000Y-105925000D03*
X131300000Y-105925000D03*
X132250000Y-105925000D03*
X132250000Y-103225000D03*
X131300000Y-103225000D03*
X130350000Y-103225000D03*
D19*
X131350000Y-89675000D03*
X131350000Y-87925000D03*
D13*
X210480000Y-72505000D03*
X210480000Y-73700000D03*
D12*
X107150000Y-67847500D03*
X107150000Y-66652500D03*
D11*
X155852500Y-118450000D03*
X157047500Y-118450000D03*
D53*
X130462500Y-100925000D03*
X132187500Y-100925000D03*
D11*
X161005000Y-61000000D03*
X162200000Y-61000000D03*
D54*
X92700000Y-61400000D03*
X92700000Y-62800000D03*
D55*
X125325000Y-105675000D03*
X125315000Y-102675000D03*
D51*
X225100000Y-78985000D03*
D37*
X225100000Y-73905000D03*
X225100000Y-68825000D03*
X225100000Y-63745000D03*
X225100000Y-58665000D03*
D13*
X115075000Y-78980000D03*
X115075000Y-80175000D03*
D14*
X208555500Y-69852000D03*
X206655500Y-69852000D03*
X207605500Y-71727000D03*
D19*
X98950000Y-130650000D03*
X98950000Y-128900000D03*
D16*
X152550000Y-114500000D03*
X154300000Y-114500000D03*
D12*
X99425000Y-92422500D03*
X99425000Y-91227500D03*
D13*
X99100000Y-78602500D03*
X99100000Y-79797500D03*
X210850000Y-103390000D03*
X210850000Y-104585000D03*
D11*
X153550000Y-76200000D03*
X154745000Y-76200000D03*
D56*
X103987500Y-88187500D03*
X103987500Y-88687500D03*
X103987500Y-89187500D03*
X103987500Y-89687500D03*
X103987500Y-90187500D03*
X103987500Y-90687500D03*
X103987500Y-91187500D03*
X103987500Y-91687500D03*
X103987500Y-92187500D03*
X103987500Y-92687500D03*
X103987500Y-93187500D03*
X103987500Y-93687500D03*
D57*
X105400000Y-95100000D03*
X105900000Y-95100000D03*
X106400000Y-95100000D03*
X106900000Y-95100000D03*
X107400000Y-95100000D03*
X107900000Y-95100000D03*
X108400000Y-95100000D03*
X108900000Y-95100000D03*
X109400000Y-95100000D03*
X109900000Y-95100000D03*
X110400000Y-95100000D03*
X110900000Y-95100000D03*
D56*
X112312500Y-93687500D03*
X112312500Y-93187500D03*
X112312500Y-92687500D03*
X112312500Y-92187500D03*
X112312500Y-91687500D03*
X112312500Y-91187500D03*
X112312500Y-90687500D03*
X112312500Y-90187500D03*
X112312500Y-89687500D03*
X112312500Y-89187500D03*
X112312500Y-88687500D03*
X112312500Y-88187500D03*
D57*
X110900000Y-86775000D03*
X110400000Y-86775000D03*
X109900000Y-86775000D03*
X109400000Y-86775000D03*
X108900000Y-86775000D03*
X108400000Y-86775000D03*
X107900000Y-86775000D03*
X107400000Y-86775000D03*
X106900000Y-86775000D03*
X106400000Y-86775000D03*
X105900000Y-86775000D03*
X105400000Y-86775000D03*
D14*
X208630000Y-65475000D03*
X206730000Y-65475000D03*
X207680000Y-67350000D03*
D58*
X113200000Y-76800000D03*
X113200000Y-74900000D03*
X111325000Y-75850000D03*
D59*
X94925000Y-117725000D03*
X88125000Y-117725000D03*
D60*
X91825000Y-122525000D03*
D11*
X186352500Y-76000000D03*
X187547500Y-76000000D03*
D12*
X101175000Y-76872500D03*
X101175000Y-75677500D03*
D61*
X105580000Y-77500000D03*
D62*
X108030000Y-76000000D03*
X108030000Y-76500000D03*
X108030000Y-77000000D03*
X108030000Y-77500000D03*
X108030000Y-78000000D03*
X108030000Y-78500000D03*
X108030000Y-79000000D03*
D63*
X107080000Y-79950000D03*
X106580000Y-79950000D03*
X106080000Y-79950000D03*
X105580000Y-79950000D03*
X105080000Y-79950000D03*
X104580000Y-79950000D03*
X104080000Y-79950000D03*
D62*
X103130000Y-79000000D03*
X103130000Y-78500000D03*
X103130000Y-78000000D03*
X103130000Y-77500000D03*
X103130000Y-77000000D03*
X103130000Y-76500000D03*
X103130000Y-76000000D03*
D63*
X104080000Y-75050000D03*
X104580000Y-75050000D03*
X105080000Y-75050000D03*
X105580000Y-75050000D03*
X106080000Y-75050000D03*
X106580000Y-75050000D03*
X107080000Y-75050000D03*
D20*
X118687500Y-90100000D03*
X117112500Y-90100000D03*
D64*
X90900000Y-71100000D03*
X87600000Y-71100000D03*
D65*
X131300000Y-63702500D03*
X133200000Y-63702500D03*
X132250000Y-61827500D03*
D11*
X180202500Y-61200000D03*
X181397500Y-61200000D03*
D39*
X154460000Y-50650000D03*
D37*
X149380000Y-50650000D03*
X144300000Y-50650000D03*
D36*
X120950000Y-129050000D03*
D37*
X126030000Y-129050000D03*
X131110000Y-129050000D03*
X136190000Y-129050000D03*
D11*
X120300000Y-88547500D03*
X121495000Y-88547500D03*
D36*
X198850000Y-129050000D03*
D37*
X203930000Y-129050000D03*
X209010000Y-129050000D03*
X214090000Y-129050000D03*
D66*
X106517500Y-115950000D03*
X114517500Y-115950000D03*
D14*
X130240000Y-114881000D03*
X128340000Y-114881000D03*
X129290000Y-116756000D03*
D10*
X133225000Y-80070000D03*
X132030000Y-80070000D03*
D39*
X214090000Y-50700000D03*
D37*
X209010000Y-50700000D03*
X203930000Y-50700000D03*
X198850000Y-50700000D03*
D12*
X210600000Y-90170000D03*
X210600000Y-88975000D03*
D10*
X138745000Y-118150000D03*
X137550000Y-118150000D03*
D21*
X134550000Y-103712500D03*
X134550000Y-105787500D03*
D12*
X200800000Y-73347500D03*
X200800000Y-72152500D03*
D11*
X180855000Y-76050000D03*
X182050000Y-76050000D03*
D67*
X93450000Y-47967500D03*
X93450000Y-46832500D03*
D39*
X172650000Y-50700000D03*
D37*
X167570000Y-50700000D03*
X162490000Y-50700000D03*
D20*
X118687500Y-93700000D03*
X117112500Y-93700000D03*
D68*
X92950000Y-71100000D03*
X95025000Y-71100000D03*
D69*
X92700000Y-65600000D03*
X92700000Y-64200000D03*
D12*
X210950000Y-109932500D03*
X210950000Y-108737500D03*
D10*
X160345000Y-76250000D03*
X159150000Y-76250000D03*
D11*
X120297500Y-91547500D03*
X121492500Y-91547500D03*
D70*
X98500000Y-74790000D03*
X98500000Y-76615000D03*
D71*
X127475000Y-107825000D03*
X126515000Y-107825000D03*
D72*
X219175000Y-89600000D03*
X227175000Y-89600000D03*
D13*
X99100000Y-103700000D03*
X99100000Y-104895000D03*
D12*
X97400000Y-131000000D03*
X97400000Y-129805000D03*
D10*
X157595000Y-76250000D03*
X156400000Y-76250000D03*
X138795000Y-115950000D03*
X137600000Y-115950000D03*
D12*
X210630000Y-70975000D03*
X210630000Y-69780000D03*
D46*
X84375000Y-68250000D03*
X89875000Y-68250000D03*
X84375000Y-59450000D03*
X89875000Y-59450000D03*
D47*
X89875000Y-65450000D03*
X89875000Y-64650000D03*
X89875000Y-63850000D03*
X89875000Y-63050000D03*
X89875000Y-62250000D03*
D48*
X87275000Y-66050000D03*
X87275000Y-61650000D03*
D12*
X210950000Y-114937500D03*
X210950000Y-113742500D03*
D22*
X91400000Y-48932500D03*
X91400000Y-46857500D03*
D73*
X130700000Y-108050000D03*
X129050000Y-108050000D03*
D54*
X93200000Y-78400000D03*
X93200000Y-79800000D03*
D36*
X180600000Y-129050000D03*
D37*
X185680000Y-129050000D03*
X190760000Y-129050000D03*
D12*
X131677000Y-92704000D03*
X131677000Y-91509000D03*
D10*
X199795000Y-62100000D03*
X198600000Y-62100000D03*
D11*
X183702500Y-76000000D03*
X184897500Y-76000000D03*
D41*
X122250000Y-78100000D03*
X122250000Y-70140000D03*
X126750000Y-78100000D03*
X126750000Y-70140000D03*
D12*
X210480000Y-76295000D03*
X210480000Y-75100000D03*
D10*
X180000000Y-103550000D03*
X178805000Y-103550000D03*
D74*
X95925000Y-46660000D03*
X95925000Y-47930000D03*
X95925000Y-49200000D03*
X95925000Y-50470000D03*
X95925000Y-51740000D03*
X95925000Y-53010000D03*
X95925000Y-54280000D03*
X95925000Y-55550000D03*
X95925000Y-56820000D03*
X95925000Y-58090000D03*
X95925000Y-59360000D03*
X95925000Y-60630000D03*
X95925000Y-61900000D03*
X95925000Y-63170000D03*
D75*
X97690000Y-64420000D03*
X98960000Y-64420000D03*
X100230000Y-64420000D03*
X101500000Y-64420000D03*
X102770000Y-64420000D03*
X104040000Y-64420000D03*
X105310000Y-64420000D03*
X106580000Y-64420000D03*
X107850000Y-64420000D03*
X109120000Y-64420000D03*
X110390000Y-64420000D03*
X111660000Y-64420000D03*
D76*
X113425000Y-63170000D03*
X113425000Y-61900000D03*
X113425000Y-60630000D03*
X113425000Y-59360000D03*
X113425000Y-58090000D03*
X113425000Y-56820000D03*
X113425000Y-55550000D03*
X113425000Y-54280000D03*
X113425000Y-53010000D03*
X113425000Y-51740000D03*
X113425000Y-50470000D03*
X113425000Y-49200000D03*
X113425000Y-47930000D03*
X113425000Y-46660000D03*
D77*
X101775000Y-52980000D03*
X101775000Y-54380000D03*
X101775000Y-55780000D03*
X101775000Y-55780000D03*
X103175000Y-52980000D03*
X103175000Y-52980000D03*
X103175000Y-54380000D03*
X103175000Y-55780000D03*
X104575000Y-52980000D03*
X104575000Y-54380000D03*
X104575000Y-55780000D03*
D69*
X93200000Y-82600000D03*
X93200000Y-81200000D03*
D14*
X124790000Y-114906000D03*
X122890000Y-114906000D03*
X123840000Y-116781000D03*
D66*
X106567500Y-104700000D03*
X114567500Y-104700000D03*
D11*
X120300000Y-92947500D03*
X121495000Y-92947500D03*
D39*
X136240000Y-50650000D03*
D37*
X131160000Y-50650000D03*
X126080000Y-50650000D03*
X121000000Y-50650000D03*
D11*
X123700000Y-107900000D03*
X124895000Y-107900000D03*
D68*
X92962500Y-73750000D03*
X95037500Y-73750000D03*
D11*
X143550000Y-60950000D03*
X144745000Y-60950000D03*
X178150000Y-76050000D03*
X179345000Y-76050000D03*
D10*
X174655000Y-103600000D03*
X173460000Y-103600000D03*
D58*
X113237500Y-80550000D03*
X113237500Y-78650000D03*
X111362500Y-79600000D03*
D78*
X94100000Y-69200000D03*
X92700000Y-69200000D03*
D41*
X130100000Y-78100000D03*
X130100000Y-70140000D03*
X134600000Y-78100000D03*
X134600000Y-70140000D03*
D12*
X210480000Y-68400000D03*
X210480000Y-67205000D03*
D13*
X100400000Y-78602500D03*
X100400000Y-79797500D03*
D64*
X90950000Y-73650000D03*
X87650000Y-73650000D03*
D14*
X127550000Y-61765000D03*
X125650000Y-61765000D03*
X126600000Y-63640000D03*
D11*
X122677500Y-80120000D03*
X123872500Y-80120000D03*
D78*
X94100000Y-75700000D03*
X92700000Y-75700000D03*
D79*
X116100000Y-61650000D03*
X128050000Y-86850000D03*
X124350000Y-89450000D03*
X125350000Y-90300000D03*
D43*
X126850000Y-114900000D03*
D80*
X106475000Y-77050000D03*
D43*
X114625000Y-107125000D03*
D79*
X139200000Y-116750000D03*
D43*
X114550000Y-113450000D03*
D79*
X199000000Y-98025000D03*
X91722702Y-61377298D03*
X127600000Y-80125000D03*
X189000000Y-117500000D03*
X155700000Y-117400000D03*
X200700000Y-105000000D03*
D80*
X89900000Y-66400000D03*
X115075000Y-46675000D03*
D81*
X89675000Y-46800000D03*
D79*
X106900000Y-93650000D03*
X206625000Y-102650000D03*
X186300000Y-95450000D03*
X155950000Y-69125000D03*
X177056284Y-106825000D03*
X198950000Y-99275000D03*
X108400000Y-93725000D03*
X143775000Y-70150000D03*
X180575000Y-68825000D03*
X91725000Y-82600000D03*
X160000000Y-60900000D03*
X126675000Y-71525000D03*
X142375000Y-76600000D03*
D82*
X156250000Y-98325000D03*
D43*
X153100000Y-108850000D03*
D80*
X130500000Y-92700000D03*
D43*
X143250000Y-92400000D03*
D79*
X99475000Y-74125000D03*
D80*
X105000000Y-78100000D03*
D79*
X158500000Y-69075000D03*
X189675000Y-95425000D03*
X97300000Y-132100000D03*
X205775000Y-65350000D03*
X200720683Y-113685502D03*
D43*
X125625000Y-60075000D03*
D79*
X178000000Y-68850000D03*
X105600000Y-89150000D03*
D43*
X149250000Y-109275000D03*
D79*
X195525000Y-100425000D03*
D43*
X151375000Y-111500000D03*
D79*
X183125000Y-68850000D03*
D82*
X153025000Y-98200000D03*
D43*
X133275000Y-65650000D03*
D79*
X101552298Y-79597702D03*
D81*
X132300000Y-107900000D03*
D79*
X107300000Y-88200000D03*
X180675000Y-105925000D03*
X207525000Y-74025000D03*
D82*
X150150000Y-98250000D03*
D79*
X134600000Y-68750000D03*
D43*
X144350000Y-107375000D03*
D79*
X110825000Y-91725000D03*
X180100000Y-62200000D03*
X205725000Y-112625000D03*
X185650000Y-68900000D03*
X183150000Y-72350000D03*
D80*
X103125000Y-51875000D03*
D79*
X109400000Y-88175000D03*
X155927500Y-75222494D03*
D80*
X111800000Y-46625000D03*
X100625000Y-54525000D03*
D81*
X134525000Y-107325000D03*
D79*
X138850000Y-114050000D03*
X92050000Y-78425000D03*
D43*
X205525000Y-108550000D03*
D80*
X103175000Y-57000000D03*
D81*
X134025000Y-92450000D03*
D79*
X134681792Y-79392026D03*
X175600000Y-117100000D03*
X153375000Y-75175000D03*
D43*
X212425000Y-91875000D03*
X121250000Y-114975000D03*
D80*
X149700000Y-115700000D03*
D79*
X174574798Y-107225202D03*
X178000000Y-72375000D03*
X158477500Y-75125000D03*
X200750000Y-69400000D03*
X121296814Y-87628186D03*
D43*
X134625000Y-63750000D03*
D79*
X134600000Y-76700000D03*
D80*
X96364492Y-72060508D03*
D79*
X142350000Y-61400000D03*
D80*
X95075000Y-72550000D03*
D79*
X205650000Y-103950000D03*
X105400000Y-92225000D03*
D80*
X104900000Y-76850000D03*
D79*
X172000000Y-107250000D03*
X205675000Y-74025000D03*
X94200000Y-82600000D03*
X110300000Y-93500000D03*
D80*
X106375000Y-78300000D03*
D79*
X195500000Y-98000000D03*
X200900000Y-62100000D03*
D80*
X94825000Y-68972502D03*
D79*
X195550000Y-99275000D03*
D43*
X146125000Y-109100000D03*
D81*
X136375000Y-105825000D03*
D82*
X156075000Y-95275000D03*
D79*
X177875000Y-88425000D03*
X213147172Y-117100000D03*
D43*
X128325000Y-113025000D03*
D79*
X126700000Y-76550000D03*
D80*
X93800000Y-65600000D03*
D79*
X199025000Y-100475000D03*
D81*
X128800000Y-109375000D03*
D80*
X105725000Y-54400000D03*
D43*
X100325000Y-107275000D03*
D79*
X135950000Y-70100000D03*
D43*
X114475000Y-118225000D03*
D79*
X177025000Y-110825000D03*
D81*
X133625000Y-100875000D03*
D79*
X177800000Y-93475000D03*
D43*
X142900000Y-90700000D03*
D79*
X105900000Y-93725000D03*
D82*
X150375000Y-95350000D03*
D79*
X110057299Y-87900029D03*
X161007500Y-75149998D03*
X106025000Y-73725000D03*
X143150000Y-80025000D03*
D81*
X97650000Y-46600000D03*
D80*
X158950000Y-111375000D03*
D79*
X160975000Y-69200000D03*
X121500000Y-94000000D03*
X172000000Y-110650000D03*
X100000000Y-77549998D03*
X206700000Y-63975000D03*
X185600000Y-72450000D03*
D82*
X153200000Y-95025000D03*
D79*
X153500000Y-69200000D03*
X200800000Y-74375000D03*
X142475000Y-68650000D03*
X107950000Y-88375000D03*
X115050000Y-64850000D03*
X105723217Y-88410696D03*
X180525000Y-72425000D03*
X179625000Y-110850000D03*
X205700000Y-69850000D03*
D43*
X117775000Y-104700000D03*
D79*
X174525000Y-110775000D03*
D80*
X167675000Y-95900000D03*
X167725000Y-90750000D03*
X94575000Y-77225000D03*
X96606818Y-79296591D03*
D79*
X112275000Y-74025000D03*
X138550000Y-76675000D03*
X112625000Y-66250000D03*
X139500000Y-70400000D03*
D43*
X147925000Y-105250000D03*
X106375000Y-113450000D03*
X103425000Y-104700000D03*
D79*
X132850000Y-117400000D03*
D43*
X106575000Y-118350000D03*
D79*
X117850000Y-49950000D03*
D43*
X144200000Y-105250000D03*
D79*
X117750000Y-53950000D03*
D43*
X109650000Y-104725000D03*
X150575000Y-105562500D03*
D79*
X100250000Y-104950000D03*
D43*
X100425000Y-118475000D03*
D79*
X130975000Y-60300000D03*
D81*
X147600000Y-102400000D03*
X137400000Y-103700000D03*
D79*
X122250000Y-76575000D03*
X109150000Y-66725000D03*
X122200000Y-71550000D03*
X108400000Y-62800000D03*
X213200000Y-123750000D03*
X203750000Y-112400000D03*
X209950000Y-112350000D03*
X209950000Y-107850000D03*
X204250000Y-107050000D03*
X204800000Y-68650000D03*
X209150000Y-67800000D03*
X209100000Y-72550000D03*
X203525000Y-70292900D03*
X125333514Y-65882702D03*
X97200000Y-50400000D03*
X125100000Y-66700000D03*
X97200000Y-51700000D03*
X150100000Y-89900000D03*
X101978879Y-80900768D03*
X92175000Y-58400000D03*
X144700000Y-84900000D03*
X92500000Y-60100000D03*
X101100000Y-81200000D03*
X144228504Y-85607245D03*
X149000000Y-90000000D03*
X170700000Y-124100000D03*
X155850000Y-121550000D03*
X94400000Y-80725000D03*
X94475000Y-79000000D03*
X101475000Y-66050000D03*
X109075000Y-89075000D03*
X101672010Y-90930841D03*
X100651974Y-91761165D03*
X111575000Y-77475000D03*
X115150000Y-77975000D03*
X130175000Y-76500000D03*
D80*
X124925000Y-68050000D03*
D79*
X131375000Y-70100000D03*
D80*
X122673008Y-67351992D03*
D79*
X110450000Y-72325000D03*
X109875000Y-77261850D03*
X109950000Y-62150004D03*
X109300000Y-74025000D03*
X108759697Y-74710990D03*
X109182099Y-76769517D03*
X111497983Y-73680400D03*
X110844351Y-62089755D03*
X119500000Y-57300000D03*
X147000000Y-61625000D03*
X144350000Y-62050000D03*
X145169300Y-95427893D03*
X149450000Y-75300000D03*
X135550000Y-125350000D03*
X150108579Y-69775000D03*
X145412970Y-88830658D03*
X174550000Y-84250000D03*
X190742752Y-84107248D03*
X174243280Y-85919721D03*
X186050000Y-86575000D03*
X131150000Y-62150000D03*
X115200002Y-59450000D03*
X121000000Y-61800000D03*
X137250000Y-119250000D03*
X130800000Y-118750000D03*
X144450000Y-94975000D03*
X146400000Y-86975000D03*
X150700000Y-74800000D03*
X151004192Y-69775000D03*
X174778013Y-83380776D03*
X185575000Y-83475000D03*
X186475000Y-85575000D03*
X174352732Y-85076795D03*
X100250000Y-66075000D03*
X108162222Y-89279127D03*
X104000000Y-66200000D03*
X110000000Y-89025000D03*
X102850000Y-66175000D03*
X110675000Y-88450000D03*
X211375000Y-74525000D03*
D80*
X177325000Y-101475000D03*
X132700000Y-87975000D03*
D79*
X183600000Y-75125000D03*
X161075000Y-77250000D03*
D80*
X174625000Y-101525000D03*
D79*
X198975000Y-96700000D03*
X186075000Y-94200000D03*
X180250000Y-75300000D03*
X103225000Y-75075000D03*
D80*
X168975000Y-95600000D03*
D79*
X189725000Y-94250000D03*
X107400000Y-96650000D03*
X186175000Y-75125000D03*
X102300000Y-91700000D03*
D80*
X134225000Y-80225000D03*
D79*
X102500000Y-93200000D03*
X106425000Y-96600000D03*
X178200000Y-75125000D03*
X209700000Y-70225000D03*
X209875000Y-113775000D03*
D43*
X143075000Y-88200000D03*
D79*
X98500000Y-91125000D03*
D80*
X137275000Y-80075000D03*
D79*
X121600000Y-80125000D03*
D80*
X169125000Y-86150000D03*
X172025000Y-101500000D03*
D43*
X136249000Y-92650000D03*
D79*
X164075000Y-76250000D03*
X113750000Y-91950000D03*
D43*
X136225000Y-96750000D03*
X101425000Y-60150000D03*
D79*
X109425000Y-96575000D03*
X104675000Y-68509599D03*
X104075000Y-73975000D03*
D43*
X136249000Y-90250000D03*
D79*
X108725000Y-69375000D03*
X107900000Y-85425000D03*
X181000000Y-103775000D03*
D43*
X99275000Y-60100000D03*
D79*
X109109910Y-84025000D03*
X195550000Y-96725000D03*
X102500000Y-89475000D03*
X101675000Y-77725000D03*
X210000000Y-108775000D03*
X158300000Y-77325000D03*
X152400000Y-76250000D03*
D80*
X201450000Y-93250000D03*
X185225000Y-91125000D03*
D79*
X94200000Y-56500000D03*
X100050000Y-81050000D03*
X191050000Y-90325000D03*
X199450000Y-94200000D03*
X204800000Y-72700000D03*
X199375000Y-86600000D03*
X178650000Y-90900000D03*
X183725000Y-87825000D03*
X195525000Y-93000000D03*
X185925000Y-89875000D03*
M02*
