G04 #@! TF.GenerationSoftware,KiCad,Pcbnew,6.0.4-6f826c9f35~116~ubuntu20.04.1*
G04 #@! TF.CreationDate,2022-06-15T17:18:02-05:00*
G04 #@! TF.ProjectId,strike-controller,73747269-6b65-42d6-936f-6e74726f6c6c,rev?*
G04 #@! TF.SameCoordinates,Original*
G04 #@! TF.FileFunction,Soldermask,Bot*
G04 #@! TF.FilePolarity,Negative*
%FSLAX46Y46*%
G04 Gerber Fmt 4.6, Leading zero omitted, Abs format (unit mm)*
G04 Created by KiCad (PCBNEW 6.0.4-6f826c9f35~116~ubuntu20.04.1) date 2022-06-15 17:18:02*
%MOMM*%
%LPD*%
G01*
G04 APERTURE LIST*
G04 Aperture macros list*
%AMRoundRect*
0 Rectangle with rounded corners*
0 $1 Rounding radius*
0 $2 $3 $4 $5 $6 $7 $8 $9 X,Y pos of 4 corners*
0 Add a 4 corners polygon primitive as box body*
4,1,4,$2,$3,$4,$5,$6,$7,$8,$9,$2,$3,0*
0 Add four circle primitives for the rounded corners*
1,1,$1+$1,$2,$3*
1,1,$1+$1,$4,$5*
1,1,$1+$1,$6,$7*
1,1,$1+$1,$8,$9*
0 Add four rect primitives between the rounded corners*
20,1,$1+$1,$2,$3,$4,$5,0*
20,1,$1+$1,$4,$5,$6,$7,0*
20,1,$1+$1,$6,$7,$8,$9,0*
20,1,$1+$1,$8,$9,$2,$3,0*%
G04 Aperture macros list end*
%ADD10C,3.400000*%
%ADD11O,1.400000X1.700000*%
%ADD12O,2.100000X3.300000*%
%ADD13RoundRect,0.200000X0.750000X0.500000X-0.750000X0.500000X-0.750000X-0.500000X0.750000X-0.500000X0*%
%ADD14O,2.000000X1.600000*%
%ADD15O,1.600000X1.600000*%
%ADD16C,1.400000*%
%ADD17C,1.000000*%
%ADD18C,1.200000*%
G04 APERTURE END LIST*
D10*
X132525000Y-115900000D03*
X164490000Y-115900000D03*
X132500000Y-56950000D03*
X164480000Y-56940000D03*
D11*
X138667100Y-111025500D03*
X139454500Y-112219300D03*
X140267300Y-111025500D03*
X141080100Y-112244700D03*
X141867500Y-111025500D03*
D12*
X136635100Y-116080100D03*
X143924900Y-116080100D03*
D13*
X150940000Y-84260000D03*
X150940000Y-87460000D03*
X146040000Y-87460000D03*
X146040000Y-84260000D03*
D14*
X151030000Y-60310000D03*
D15*
X148490000Y-62850000D03*
X145950000Y-60310000D03*
D16*
X159750000Y-100830000D03*
X149810000Y-100920000D03*
D17*
X161010000Y-61750000D03*
X161540000Y-65660000D03*
X153980000Y-72810000D03*
X151720831Y-71418054D03*
X160120000Y-73280000D03*
X153380000Y-71700000D03*
X158140000Y-64980000D03*
X153850000Y-69120000D03*
X149830000Y-72130000D03*
X150020000Y-79600000D03*
X151110000Y-65510000D03*
X155720133Y-65322333D03*
X145170000Y-62970000D03*
X162737263Y-66044796D03*
X146560000Y-59080000D03*
X139670000Y-60560000D03*
X144630000Y-70930000D03*
X145140000Y-72140000D03*
X142190000Y-71880000D03*
X153210000Y-76090000D03*
X158190000Y-71860000D03*
X154961452Y-72015558D03*
X137540000Y-70610000D03*
X154168090Y-76514500D03*
X154450000Y-81480000D03*
X144340000Y-79820000D03*
X139060000Y-74350000D03*
X148800000Y-80940000D03*
X138370000Y-71260000D03*
X139120000Y-70820000D03*
X152454273Y-75793488D03*
X147930000Y-71870000D03*
X136560000Y-61850000D03*
X136660000Y-63030000D03*
X135548556Y-62553490D03*
X136741858Y-60759392D03*
X152990000Y-79830000D03*
X150870000Y-83060000D03*
X154360486Y-69904367D03*
X162380000Y-66820000D03*
X158680000Y-68300000D03*
X160619446Y-65761912D03*
X155453302Y-74442840D03*
X159680000Y-72570000D03*
X150210000Y-71370000D03*
X156470000Y-66350000D03*
X159960000Y-66670000D03*
X162640000Y-68830000D03*
X162700000Y-73140000D03*
X140203279Y-76294253D03*
X144401693Y-73983489D03*
X143400000Y-80500000D03*
X148639400Y-81712159D03*
X142450000Y-76220000D03*
X153410000Y-91420000D03*
X140390000Y-81060000D03*
X141570000Y-91690000D03*
X146420000Y-96540000D03*
X156500000Y-96150000D03*
X150270000Y-96590000D03*
X149830000Y-93680000D03*
X150570000Y-93280000D03*
X152170000Y-90160000D03*
X149076179Y-80243237D03*
X147730000Y-91560000D03*
X147510000Y-93440000D03*
X148840000Y-66020000D03*
X149040000Y-75280000D03*
X156090000Y-72880000D03*
X158363767Y-72623767D03*
X155993918Y-71182905D03*
X156440000Y-74880000D03*
X152220000Y-91100000D03*
X152000000Y-92700000D03*
D18*
X162050000Y-88450000D03*
X162020000Y-93440000D03*
X138535980Y-102257502D03*
X156140000Y-103200000D03*
X161765500Y-78880000D03*
D17*
X151760000Y-116380000D03*
D18*
X138570000Y-93230000D03*
D17*
X147360000Y-104960000D03*
X133330000Y-62795500D03*
X134889052Y-63264500D03*
X148249794Y-75158430D03*
D16*
X143210000Y-64010000D03*
X146100000Y-90770000D03*
D17*
X136180000Y-112770000D03*
X144330000Y-105050000D03*
X138195500Y-79433387D03*
X150730000Y-109920000D03*
D18*
X164810000Y-102040000D03*
X139380000Y-64280000D03*
D17*
X148380000Y-116380000D03*
D18*
X164655679Y-65779155D03*
D16*
X142840000Y-87440000D03*
D18*
X154320000Y-91960000D03*
D17*
X150790000Y-63060000D03*
X144720000Y-97000000D03*
D18*
X161710000Y-111750000D03*
X162818074Y-59712672D03*
X139560000Y-59230000D03*
D16*
X146970000Y-71140000D03*
D17*
X138720000Y-76400000D03*
D18*
X158950000Y-113940000D03*
D17*
X136450000Y-107680000D03*
D18*
X165040000Y-100120000D03*
D17*
X147220000Y-109910000D03*
D18*
X157940000Y-104610000D03*
D17*
X131200000Y-111100000D03*
X146370177Y-101046969D03*
X148870000Y-91725989D03*
X145076270Y-102866270D03*
X156440000Y-98860000D03*
X131510000Y-104570000D03*
X141060000Y-103800000D03*
D16*
X164870000Y-79200000D03*
D18*
X161773056Y-79913056D03*
D17*
X139280000Y-65580000D03*
D16*
X144960000Y-65350000D03*
D18*
X165265500Y-62985089D03*
D16*
X164580000Y-108910000D03*
D18*
X157924814Y-62923341D03*
D16*
X149920000Y-65590000D03*
X164840000Y-80400000D03*
X164300000Y-93890000D03*
X145160000Y-75590000D03*
X152079175Y-74457059D03*
X163620000Y-65410000D03*
D18*
X157900000Y-59270000D03*
D16*
X157990398Y-63970793D03*
X154518216Y-64515500D03*
D17*
X141620000Y-96730000D03*
X146700000Y-101720000D03*
X148170000Y-105480000D03*
X147960000Y-111230000D03*
X141170000Y-100360000D03*
X145710000Y-99670000D03*
X139600000Y-81570000D03*
X163274500Y-74580000D03*
X160470000Y-72500000D03*
X165660000Y-95770000D03*
X149690000Y-57400000D03*
D18*
X142240000Y-79020000D03*
X142260000Y-80400000D03*
D17*
X153330000Y-57350000D03*
X155160000Y-59340000D03*
X149560000Y-90620000D03*
D18*
X140610000Y-98740000D03*
X139850000Y-93330000D03*
X131390000Y-102290000D03*
D16*
X156230000Y-100920000D03*
D17*
X161900000Y-90950000D03*
X150640000Y-97760000D03*
D16*
X153420000Y-100910000D03*
D17*
X142000000Y-99530000D03*
X138647649Y-81430116D03*
X138110000Y-91920000D03*
X137397793Y-79486930D03*
G36*
X140430557Y-111849953D02*
G01*
X140430969Y-111852057D01*
X140404044Y-111921117D01*
X140382137Y-112087507D01*
X140382100Y-112094710D01*
X140382100Y-112394576D01*
X140400888Y-112549831D01*
X140400103Y-112551670D01*
X140398117Y-112551911D01*
X140397006Y-112550709D01*
X140395252Y-112545497D01*
X140395160Y-112545075D01*
X140388576Y-112484471D01*
X140361886Y-112420237D01*
X140304952Y-112380801D01*
X140235735Y-112378405D01*
X140176192Y-112413823D01*
X140146170Y-112470895D01*
X140141038Y-112493853D01*
X140139684Y-112495325D01*
X140137732Y-112494889D01*
X140137103Y-112493156D01*
X140152463Y-112376493D01*
X140152500Y-112369290D01*
X140152500Y-112069424D01*
X140132337Y-111902806D01*
X140114171Y-111854731D01*
X140114494Y-111852757D01*
X140116529Y-111852084D01*
X140179820Y-111867981D01*
X140347523Y-111868860D01*
X140428639Y-111849385D01*
X140430557Y-111849953D01*
G37*
G36*
X140950394Y-110719490D02*
G01*
X140952562Y-110725932D01*
X140992422Y-110782935D01*
X141056494Y-110809226D01*
X141124612Y-110796701D01*
X141175245Y-110749244D01*
X141184237Y-110726471D01*
X141185803Y-110725227D01*
X141187663Y-110725961D01*
X141188080Y-110727466D01*
X141169537Y-110868307D01*
X141169500Y-110875510D01*
X141169500Y-111175376D01*
X141189663Y-111341994D01*
X141215770Y-111411084D01*
X141215447Y-111413058D01*
X141213412Y-111413731D01*
X141167580Y-111402219D01*
X140999877Y-111401340D01*
X140918761Y-111420815D01*
X140916843Y-111420247D01*
X140916431Y-111418143D01*
X140943356Y-111349083D01*
X140965263Y-111182693D01*
X140965300Y-111175490D01*
X140965300Y-110875624D01*
X140946512Y-110720368D01*
X140947297Y-110718529D01*
X140949283Y-110718288D01*
X140950394Y-110719490D01*
G37*
G36*
X139350194Y-110719490D02*
G01*
X139352362Y-110725932D01*
X139392222Y-110782935D01*
X139456294Y-110809226D01*
X139524412Y-110796701D01*
X139575045Y-110749244D01*
X139584037Y-110726471D01*
X139585603Y-110725227D01*
X139587463Y-110725961D01*
X139587880Y-110727466D01*
X139569337Y-110868307D01*
X139569300Y-110875510D01*
X139569300Y-111175376D01*
X139589463Y-111341994D01*
X139607629Y-111390069D01*
X139607306Y-111392043D01*
X139605271Y-111392716D01*
X139541980Y-111376819D01*
X139374277Y-111375940D01*
X139332110Y-111386064D01*
X139330192Y-111385496D01*
X139329780Y-111383392D01*
X139343156Y-111349083D01*
X139365063Y-111182693D01*
X139365100Y-111175490D01*
X139365100Y-110875624D01*
X139346312Y-110720368D01*
X139347097Y-110718529D01*
X139349083Y-110718288D01*
X139350194Y-110719490D01*
G37*
G36*
X147696565Y-105327209D02*
G01*
X147696471Y-105328672D01*
X147693780Y-105334404D01*
X147672057Y-105473916D01*
X147688634Y-105600685D01*
X147687867Y-105602532D01*
X147685884Y-105602791D01*
X147684773Y-105601631D01*
X147682220Y-105594653D01*
X147682110Y-105594185D01*
X147676013Y-105538959D01*
X147649210Y-105474770D01*
X147592195Y-105435425D01*
X147526000Y-105432336D01*
X147468528Y-105445498D01*
X147466617Y-105444909D01*
X147466170Y-105442960D01*
X147467556Y-105441618D01*
X147557775Y-105417021D01*
X147678092Y-105343147D01*
X147693178Y-105326480D01*
X147695082Y-105325867D01*
X147696565Y-105327209D01*
G37*
G36*
X147843766Y-104832872D02*
G01*
X147846552Y-104840244D01*
X147846667Y-104840711D01*
X147854192Y-104902887D01*
X147881664Y-104966786D01*
X147939088Y-105005532D01*
X148005314Y-105007928D01*
X148055468Y-104995887D01*
X148057386Y-104996455D01*
X148057853Y-104998400D01*
X148056485Y-104999755D01*
X147966658Y-105025428D01*
X147847251Y-105100768D01*
X147838226Y-105110987D01*
X147836330Y-105111623D01*
X147834831Y-105110299D01*
X147834755Y-105109331D01*
X147857853Y-104972039D01*
X147857998Y-104960131D01*
X147839915Y-104833863D01*
X147840660Y-104832006D01*
X147842639Y-104831723D01*
X147843766Y-104832872D01*
G37*
G36*
X141539136Y-99706576D02*
G01*
X141577229Y-99793151D01*
X141668081Y-99901232D01*
X141780680Y-99976185D01*
X141781568Y-99977977D01*
X141780460Y-99979642D01*
X141779152Y-99979805D01*
X141722265Y-99967571D01*
X141657432Y-99991929D01*
X141616058Y-100047473D01*
X141611266Y-100116790D01*
X141616291Y-100133694D01*
X141632451Y-100176461D01*
X141632128Y-100178435D01*
X141630257Y-100179142D01*
X141628759Y-100177996D01*
X141589523Y-100091703D01*
X141497359Y-99984740D01*
X141388174Y-99913970D01*
X141387265Y-99912189D01*
X141388352Y-99910511D01*
X141389662Y-99910332D01*
X141448377Y-99922317D01*
X141512952Y-99897281D01*
X141553739Y-99841310D01*
X141557807Y-99771932D01*
X141553519Y-99757507D01*
X141535427Y-99708068D01*
X141535771Y-99706098D01*
X141537649Y-99705411D01*
X141539136Y-99706576D01*
G37*
G36*
X139100937Y-92952179D02*
G01*
X139112089Y-92970026D01*
X139112282Y-92970428D01*
X139119983Y-92992543D01*
X139160437Y-93049125D01*
X139224783Y-93074743D01*
X139292791Y-93061501D01*
X139329034Y-93028533D01*
X139330988Y-93028107D01*
X139332334Y-93029586D01*
X139332228Y-93030777D01*
X139272394Y-93175231D01*
X139252017Y-93330000D01*
X139272394Y-93484769D01*
X139321135Y-93602441D01*
X139320874Y-93604424D01*
X139319026Y-93605189D01*
X139317576Y-93604242D01*
X139304334Y-93582377D01*
X139304147Y-93581972D01*
X139300208Y-93570133D01*
X139260549Y-93512992D01*
X139196565Y-93486476D01*
X139128379Y-93498768D01*
X139090028Y-93532686D01*
X139088068Y-93533085D01*
X139086743Y-93531586D01*
X139087117Y-93529970D01*
X139087867Y-93528992D01*
X139147606Y-93384769D01*
X139167983Y-93230000D01*
X139147606Y-93075231D01*
X139097393Y-92954004D01*
X139097654Y-92952021D01*
X139099502Y-92951256D01*
X139100937Y-92952179D01*
G37*
G36*
X153751688Y-91781549D02*
G01*
X153751632Y-91782927D01*
X153742394Y-91805231D01*
X153722017Y-91960000D01*
X153727175Y-91999171D01*
X153726410Y-92001019D01*
X153724427Y-92001280D01*
X153723337Y-92000180D01*
X153697661Y-91936513D01*
X153641136Y-91896478D01*
X153573506Y-91892907D01*
X153518531Y-91905497D01*
X153516620Y-91904908D01*
X153516173Y-91902959D01*
X153517559Y-91901617D01*
X153607775Y-91877021D01*
X153728092Y-91803147D01*
X153748301Y-91780820D01*
X153750205Y-91780207D01*
X153751688Y-91781549D01*
G37*
G36*
X148213766Y-91432871D02*
G01*
X148220432Y-91450511D01*
X148262353Y-91506015D01*
X148327350Y-91529940D01*
X148395022Y-91514915D01*
X148436355Y-91477840D01*
X148439933Y-91472749D01*
X148441747Y-91471907D01*
X148443383Y-91473057D01*
X148443379Y-91474749D01*
X148393780Y-91580393D01*
X148372057Y-91719905D01*
X148388635Y-91846674D01*
X148387868Y-91848521D01*
X148385885Y-91848780D01*
X148384774Y-91847620D01*
X148380734Y-91836582D01*
X148339395Y-91780642D01*
X148274654Y-91756036D01*
X148206827Y-91770352D01*
X148165108Y-91806993D01*
X148157117Y-91818114D01*
X148155294Y-91818937D01*
X148153670Y-91817770D01*
X148153693Y-91816075D01*
X148204407Y-91711402D01*
X148227853Y-91572039D01*
X148227998Y-91560131D01*
X148209915Y-91433862D01*
X148210660Y-91432005D01*
X148212639Y-91431722D01*
X148213766Y-91432871D01*
G37*
G36*
X153893767Y-91292873D02*
G01*
X153896552Y-91300245D01*
X153896667Y-91300712D01*
X153898438Y-91315340D01*
X153925910Y-91379239D01*
X153983324Y-91417977D01*
X154052829Y-91419532D01*
X154060248Y-91417271D01*
X154118279Y-91397517D01*
X154120241Y-91397905D01*
X154120886Y-91399798D01*
X154119689Y-91401258D01*
X154021010Y-91442131D01*
X153897163Y-91537163D01*
X153893095Y-91542464D01*
X153891247Y-91543229D01*
X153889660Y-91542011D01*
X153889536Y-91540914D01*
X153907853Y-91432039D01*
X153907998Y-91420131D01*
X153889916Y-91293864D01*
X153890661Y-91292007D01*
X153892640Y-91291724D01*
X153893767Y-91292873D01*
G37*
G36*
X151862792Y-90547681D02*
G01*
X151955614Y-90609470D01*
X152038503Y-90635366D01*
X152039858Y-90636837D01*
X152039262Y-90638746D01*
X152038457Y-90639198D01*
X152016658Y-90645428D01*
X151897251Y-90720768D01*
X151829210Y-90797809D01*
X151827314Y-90798445D01*
X151825815Y-90797121D01*
X151826075Y-90795335D01*
X151847469Y-90764895D01*
X151847790Y-90764538D01*
X151869858Y-90745287D01*
X151907269Y-90686646D01*
X151907039Y-90617375D01*
X151871795Y-90561250D01*
X151860338Y-90550825D01*
X151859730Y-90548920D01*
X151861076Y-90547441D01*
X151862792Y-90547681D01*
G37*
G36*
X150472407Y-83353103D02*
G01*
X150538081Y-83431232D01*
X150655614Y-83509470D01*
X150790380Y-83551573D01*
X150931551Y-83554161D01*
X151067775Y-83517021D01*
X151188092Y-83443147D01*
X151260888Y-83362723D01*
X151262792Y-83362110D01*
X151264275Y-83363452D01*
X151264258Y-83364727D01*
X151241836Y-83428626D01*
X151257876Y-83496002D01*
X151307830Y-83544043D01*
X151365061Y-83558057D01*
X151366505Y-83559441D01*
X151366030Y-83561383D01*
X151364585Y-83562000D01*
X150374448Y-83562000D01*
X150372716Y-83561000D01*
X150372716Y-83559000D01*
X150373885Y-83558081D01*
X150440897Y-83538405D01*
X150486252Y-83486062D01*
X150496118Y-83417444D01*
X150476409Y-83366210D01*
X150469216Y-83355505D01*
X150469080Y-83353510D01*
X150470740Y-83352395D01*
X150472407Y-83353103D01*
G37*
G36*
X139108659Y-81616048D02*
G01*
X139108987Y-81616912D01*
X139120365Y-81703916D01*
X139169661Y-81815951D01*
X139169443Y-81817939D01*
X139167612Y-81818744D01*
X139166551Y-81818294D01*
X139115185Y-81775594D01*
X139046432Y-81767141D01*
X138988155Y-81794227D01*
X138986163Y-81794050D01*
X138985320Y-81792236D01*
X138985829Y-81791071D01*
X139060493Y-81708582D01*
X139105204Y-81616299D01*
X139106859Y-81615176D01*
X139108659Y-81616048D01*
G37*
G36*
X139080056Y-81180996D02*
G01*
X139134040Y-81224924D01*
X139202882Y-81232657D01*
X139258655Y-81206022D01*
X139260649Y-81206178D01*
X139261511Y-81207983D01*
X139261016Y-81209151D01*
X139183784Y-81296599D01*
X139142737Y-81384027D01*
X139141096Y-81385170D01*
X139139286Y-81384320D01*
X139138947Y-81383461D01*
X139125613Y-81290351D01*
X139076973Y-81183375D01*
X139077167Y-81181384D01*
X139078987Y-81180556D01*
X139080056Y-81180996D01*
G37*
G36*
X142790937Y-80122180D02*
G01*
X142802088Y-80140025D01*
X142802281Y-80140427D01*
X142803618Y-80144266D01*
X142844073Y-80200847D01*
X142908419Y-80226465D01*
X142976448Y-80213219D01*
X143020641Y-80174611D01*
X143027471Y-80164893D01*
X143027792Y-80164536D01*
X143051707Y-80143673D01*
X143053670Y-80143288D01*
X143054985Y-80144795D01*
X143054521Y-80146504D01*
X142983784Y-80226599D01*
X142923780Y-80354404D01*
X142902057Y-80493916D01*
X142920365Y-80633916D01*
X142967697Y-80741488D01*
X142967479Y-80743476D01*
X142965648Y-80744281D01*
X142964206Y-80743408D01*
X142958912Y-80735529D01*
X142905420Y-80691062D01*
X142836681Y-80682611D01*
X142774129Y-80712740D01*
X142757976Y-80731481D01*
X142756088Y-80732140D01*
X142754573Y-80730834D01*
X142754874Y-80728957D01*
X142777869Y-80698990D01*
X142837606Y-80554769D01*
X142857983Y-80400000D01*
X142837606Y-80245231D01*
X142787393Y-80124005D01*
X142787654Y-80122022D01*
X142789502Y-80121257D01*
X142790937Y-80122180D01*
G37*
G36*
X143859085Y-79949473D02*
G01*
X143859968Y-79950884D01*
X143860365Y-79953916D01*
X143917229Y-80083151D01*
X144008081Y-80191232D01*
X144090223Y-80245911D01*
X144091111Y-80247703D01*
X144090003Y-80249368D01*
X144088161Y-80249334D01*
X144063183Y-80235772D01*
X143995182Y-80221148D01*
X143930349Y-80245506D01*
X143888975Y-80301050D01*
X143884183Y-80370366D01*
X143886213Y-80377194D01*
X143886282Y-80377524D01*
X143896100Y-80458660D01*
X143895315Y-80460499D01*
X143893329Y-80460740D01*
X143892134Y-80459184D01*
X143877964Y-80360235D01*
X143819523Y-80231703D01*
X143727359Y-80124740D01*
X143644823Y-80071243D01*
X143643914Y-80069462D01*
X143645001Y-80067784D01*
X143646847Y-80067797D01*
X143678576Y-80084597D01*
X143746728Y-80098508D01*
X143811304Y-80073472D01*
X143852091Y-80017501D01*
X143855988Y-79951027D01*
X143857088Y-79949356D01*
X143859085Y-79949473D01*
G37*
G36*
X149527185Y-79633132D02*
G01*
X149540365Y-79733916D01*
X149597229Y-79863151D01*
X149688081Y-79971232D01*
X149770226Y-80025913D01*
X149771114Y-80027705D01*
X149770006Y-80029370D01*
X149768164Y-80029336D01*
X149745831Y-80017210D01*
X149677830Y-80002586D01*
X149612997Y-80026944D01*
X149571591Y-80082530D01*
X149564810Y-80140178D01*
X149572278Y-80201891D01*
X149571493Y-80203730D01*
X149569507Y-80203971D01*
X149568312Y-80202415D01*
X149554143Y-80103472D01*
X149495702Y-79974940D01*
X149403538Y-79867977D01*
X149320999Y-79814478D01*
X149320090Y-79812697D01*
X149321177Y-79811019D01*
X149323023Y-79811032D01*
X149350889Y-79825787D01*
X149419042Y-79839699D01*
X149483617Y-79814663D01*
X149524443Y-79758641D01*
X149530930Y-79703497D01*
X149523214Y-79633610D01*
X149524018Y-79631779D01*
X149526006Y-79631560D01*
X149527185Y-79633132D01*
G37*
G36*
X142416140Y-79589837D02*
G01*
X142416905Y-79591685D01*
X142416051Y-79593075D01*
X142364338Y-79628435D01*
X142337379Y-79692229D01*
X142349189Y-79760475D01*
X142396152Y-79811644D01*
X142408905Y-79817685D01*
X142410042Y-79819330D01*
X142409186Y-79821137D01*
X142407788Y-79821475D01*
X142260000Y-79802017D01*
X142105231Y-79822394D01*
X142085593Y-79830528D01*
X142083610Y-79830267D01*
X142082845Y-79828419D01*
X142083676Y-79827045D01*
X142135524Y-79790519D01*
X142161591Y-79726355D01*
X142148829Y-79658281D01*
X142101146Y-79607762D01*
X142089092Y-79602052D01*
X142087955Y-79600407D01*
X142088811Y-79598600D01*
X142090209Y-79598262D01*
X142240000Y-79617983D01*
X142394769Y-79597606D01*
X142414157Y-79589576D01*
X142416140Y-79589837D01*
G37*
G36*
X153693767Y-75962873D02*
G01*
X153696552Y-75970245D01*
X153696667Y-75970712D01*
X153701259Y-76008655D01*
X153728730Y-76072555D01*
X153786143Y-76111294D01*
X153855571Y-76112848D01*
X153879914Y-76103411D01*
X153926283Y-76079478D01*
X153928280Y-76079572D01*
X153929198Y-76081349D01*
X153928267Y-76082946D01*
X153845341Y-76135268D01*
X153751874Y-76241099D01*
X153691870Y-76368904D01*
X153670147Y-76508416D01*
X153686724Y-76635185D01*
X153685957Y-76637032D01*
X153683974Y-76637291D01*
X153682863Y-76636131D01*
X153680310Y-76629153D01*
X153680200Y-76628685D01*
X153676817Y-76598040D01*
X153650014Y-76533851D01*
X153593013Y-76494515D01*
X153523601Y-76492233D01*
X153499174Y-76501411D01*
X153446737Y-76527784D01*
X153444740Y-76527669D01*
X153443841Y-76525882D01*
X153444792Y-76524293D01*
X153528092Y-76473147D01*
X153622844Y-76368466D01*
X153684407Y-76241402D01*
X153707853Y-76102039D01*
X153707998Y-76090131D01*
X153689916Y-75963864D01*
X153690661Y-75962007D01*
X153692640Y-75961724D01*
X153693767Y-75962873D01*
G37*
G36*
X152446057Y-75049291D02*
G01*
X152446956Y-75051078D01*
X152446135Y-75052581D01*
X152420996Y-75070846D01*
X152421916Y-75072112D01*
X152422125Y-75074102D01*
X152421593Y-75074812D01*
X152385200Y-75105738D01*
X152365050Y-75172000D01*
X152383922Y-75238637D01*
X152435881Y-75284543D01*
X152487532Y-75296181D01*
X152516834Y-75296335D01*
X152517310Y-75296395D01*
X152519659Y-75296985D01*
X152521095Y-75298377D01*
X152520608Y-75300317D01*
X152519160Y-75300925D01*
X152386689Y-75300116D01*
X152250931Y-75338916D01*
X152155955Y-75398841D01*
X152153957Y-75398920D01*
X152152890Y-75397229D01*
X152153573Y-75395643D01*
X152182492Y-75370415D01*
X152219902Y-75311774D01*
X152219672Y-75242517D01*
X152182033Y-75184379D01*
X152118730Y-75155724D01*
X152101785Y-75154540D01*
X152006075Y-75154540D01*
X152005659Y-75154496D01*
X151997460Y-75152753D01*
X151995974Y-75151415D01*
X151996390Y-75149459D01*
X151997907Y-75148797D01*
X152152134Y-75151220D01*
X152315609Y-75113780D01*
X152444060Y-75049176D01*
X152446057Y-75049291D01*
G37*
G36*
X155937069Y-74315713D02*
G01*
X155939854Y-74323085D01*
X155939969Y-74323552D01*
X155948421Y-74393389D01*
X155975893Y-74457288D01*
X156033306Y-74496027D01*
X156102608Y-74497577D01*
X156151590Y-74471434D01*
X156158154Y-74465708D01*
X156158552Y-74465438D01*
X156198188Y-74444981D01*
X156200186Y-74445075D01*
X156201103Y-74446852D01*
X156200172Y-74448449D01*
X156117251Y-74500768D01*
X156023784Y-74606599D01*
X155963780Y-74734404D01*
X155942057Y-74873916D01*
X155958634Y-75000685D01*
X155957867Y-75002532D01*
X155955884Y-75002791D01*
X155954773Y-75001631D01*
X155952220Y-74994653D01*
X155952110Y-74994185D01*
X155945032Y-74930072D01*
X155918229Y-74865883D01*
X155861228Y-74826547D01*
X155791943Y-74824271D01*
X155742691Y-74849900D01*
X155730792Y-74860062D01*
X155730392Y-74860328D01*
X155690042Y-74880622D01*
X155688045Y-74880507D01*
X155687146Y-74878720D01*
X155688097Y-74877131D01*
X155771394Y-74825987D01*
X155866146Y-74721306D01*
X155927709Y-74594242D01*
X155951155Y-74454879D01*
X155951300Y-74442971D01*
X155933218Y-74316704D01*
X155933963Y-74314847D01*
X155935942Y-74314564D01*
X155937069Y-74315713D01*
G37*
G36*
X147663146Y-71208833D02*
G01*
X147663901Y-71210616D01*
X147659301Y-71254385D01*
X147671813Y-71322806D01*
X147719129Y-71373384D01*
X147786468Y-71390400D01*
X147810401Y-71387104D01*
X147815457Y-71385890D01*
X147817375Y-71386458D01*
X147817842Y-71388403D01*
X147816474Y-71389758D01*
X147726658Y-71415428D01*
X147607251Y-71490768D01*
X147513784Y-71596599D01*
X147453780Y-71724404D01*
X147432057Y-71863916D01*
X147433076Y-71871705D01*
X147432309Y-71873552D01*
X147430326Y-71873811D01*
X147429247Y-71872735D01*
X147403204Y-71810366D01*
X147346203Y-71771030D01*
X147276766Y-71768749D01*
X147257647Y-71775422D01*
X147255682Y-71775049D01*
X147255023Y-71773161D01*
X147256089Y-71771747D01*
X147356260Y-71721366D01*
X147483786Y-71612448D01*
X147581649Y-71476259D01*
X147644202Y-71320650D01*
X147659932Y-71210125D01*
X147661166Y-71208551D01*
X147663146Y-71208833D01*
G37*
G36*
X138035427Y-70654545D02*
G01*
X138036132Y-70655800D01*
X138046047Y-70724067D01*
X138091478Y-70776345D01*
X138158130Y-70795812D01*
X138186607Y-70792420D01*
X138255461Y-70775889D01*
X138257379Y-70776457D01*
X138257846Y-70778402D01*
X138256478Y-70779757D01*
X138166658Y-70805428D01*
X138047251Y-70880768D01*
X137953784Y-70986599D01*
X137893780Y-71114404D01*
X137878249Y-71214149D01*
X137876995Y-71215706D01*
X137875018Y-71215399D01*
X137874297Y-71214149D01*
X137863565Y-71145330D01*
X137817590Y-71093531D01*
X137750848Y-71074794D01*
X137724955Y-71081103D01*
X137723036Y-71080542D01*
X137722532Y-71079606D01*
X137722302Y-71078603D01*
X137648520Y-71095500D01*
X137646609Y-71094911D01*
X137646162Y-71092962D01*
X137647548Y-71091620D01*
X137737775Y-71067021D01*
X137858092Y-70993147D01*
X137952844Y-70888466D01*
X138014407Y-70761402D01*
X138032181Y-70655755D01*
X138033454Y-70654213D01*
X138035427Y-70654545D01*
G37*
G36*
X153969677Y-69599351D02*
G01*
X153970203Y-69601280D01*
X153969768Y-69602095D01*
X153944270Y-69630966D01*
X153884266Y-69758771D01*
X153869091Y-69856231D01*
X153867837Y-69857788D01*
X153865860Y-69857481D01*
X153865132Y-69855662D01*
X153876842Y-69766716D01*
X153875667Y-69765815D01*
X153875522Y-69764877D01*
X153879971Y-69713371D01*
X153847673Y-69652090D01*
X153790444Y-69618685D01*
X153778976Y-69615676D01*
X153777555Y-69614269D01*
X153778062Y-69612334D01*
X153779521Y-69611741D01*
X153911551Y-69614161D01*
X153967743Y-69598841D01*
X153969677Y-69599351D01*
G37*
G36*
X154343832Y-69174016D02*
G01*
X154344539Y-69175840D01*
X154332213Y-69262452D01*
X154333412Y-69262622D01*
X154334986Y-69263856D01*
X154335121Y-69264795D01*
X154330688Y-69310552D01*
X154362339Y-69372159D01*
X154421722Y-69406821D01*
X154425875Y-69407864D01*
X154427311Y-69409256D01*
X154426824Y-69411196D01*
X154425376Y-69411804D01*
X154292902Y-69410995D01*
X154243786Y-69425032D01*
X154241845Y-69424546D01*
X154241296Y-69422623D01*
X154241753Y-69421767D01*
X154262844Y-69398466D01*
X154324407Y-69271402D01*
X154340587Y-69175226D01*
X154341860Y-69173684D01*
X154343832Y-69174016D01*
G37*
G36*
X160158581Y-65938486D02*
G01*
X160196675Y-66025063D01*
X160287527Y-66133144D01*
X160405060Y-66211382D01*
X160535158Y-66252027D01*
X160536513Y-66253498D01*
X160535917Y-66255407D01*
X160534620Y-66255935D01*
X160471850Y-66257758D01*
X160414699Y-66296878D01*
X160387769Y-66360687D01*
X160399651Y-66429147D01*
X160402785Y-66434498D01*
X160402930Y-66434802D01*
X160422449Y-66486457D01*
X160422126Y-66488431D01*
X160420255Y-66489138D01*
X160418757Y-66487992D01*
X160379523Y-66401703D01*
X160287359Y-66294740D01*
X160168879Y-66217945D01*
X160045504Y-66181048D01*
X160044131Y-66179594D01*
X160044704Y-66177678D01*
X160045998Y-66177134D01*
X160110205Y-66174596D01*
X160166943Y-66134880D01*
X160193203Y-66070792D01*
X160180604Y-66002450D01*
X160173041Y-65989537D01*
X160172889Y-65989213D01*
X160154872Y-65939978D01*
X160155216Y-65938008D01*
X160157094Y-65937321D01*
X160158581Y-65938486D01*
G37*
G36*
X149333076Y-65958943D02*
G01*
X149391628Y-66046078D01*
X149491742Y-66137174D01*
X149492350Y-66139079D01*
X149491004Y-66140558D01*
X149489724Y-66140537D01*
X149426962Y-66118144D01*
X149359505Y-66133830D01*
X149314510Y-66180129D01*
X149312586Y-66180674D01*
X149311152Y-66179280D01*
X149311276Y-66177863D01*
X149314407Y-66171402D01*
X149337853Y-66032039D01*
X149337998Y-66020131D01*
X149329436Y-65960342D01*
X149330181Y-65958485D01*
X149332160Y-65958202D01*
X149333076Y-65958943D01*
G37*
G36*
X150466012Y-65154041D02*
G01*
X150487239Y-65177616D01*
X150487485Y-65177954D01*
X150502765Y-65204419D01*
X150553105Y-65252418D01*
X150621112Y-65265526D01*
X150685547Y-65239730D01*
X150690422Y-65234586D01*
X150692340Y-65234017D01*
X150693791Y-65235393D01*
X150693684Y-65236812D01*
X150633780Y-65364404D01*
X150612057Y-65503916D01*
X150630365Y-65643916D01*
X150687229Y-65773151D01*
X150756477Y-65855531D01*
X150756826Y-65857500D01*
X150755295Y-65858787D01*
X150753600Y-65858297D01*
X150746710Y-65852027D01*
X150684154Y-65821603D01*
X150615384Y-65829792D01*
X150561754Y-65874031D01*
X150557173Y-65881344D01*
X150546705Y-65899476D01*
X150544973Y-65900476D01*
X150543241Y-65899476D01*
X150543117Y-65897730D01*
X150594202Y-65770650D01*
X150617847Y-65604509D01*
X150617999Y-65590113D01*
X150597837Y-65423506D01*
X150538557Y-65266626D01*
X150462878Y-65156512D01*
X150462721Y-65154518D01*
X150464369Y-65153385D01*
X150466012Y-65154041D01*
G37*
G36*
X149241230Y-65431652D02*
G01*
X149241727Y-65433251D01*
X149222053Y-65582691D01*
X149237240Y-65720251D01*
X149236436Y-65722082D01*
X149234448Y-65722301D01*
X149233737Y-65721776D01*
X149167359Y-65644740D01*
X149058624Y-65574262D01*
X149057715Y-65572481D01*
X149058802Y-65570803D01*
X149060112Y-65570624D01*
X149118991Y-65582642D01*
X149183566Y-65557606D01*
X149224457Y-65501492D01*
X149230985Y-65472900D01*
X149233981Y-65444397D01*
X149234068Y-65443988D01*
X149237842Y-65432372D01*
X149239328Y-65431034D01*
X149241230Y-65431652D01*
G37*
G36*
X139225233Y-64857607D02*
G01*
X139380000Y-64877983D01*
X139514926Y-64860219D01*
X139516774Y-64860984D01*
X139517035Y-64862967D01*
X139515805Y-64864104D01*
X139501105Y-64868880D01*
X139500668Y-64868970D01*
X139480440Y-64870811D01*
X139415751Y-64896375D01*
X139375327Y-64952613D01*
X139371726Y-65021778D01*
X139406101Y-65081934D01*
X139446840Y-65104511D01*
X139447654Y-65105865D01*
X139472028Y-65118770D01*
X139473091Y-65120465D01*
X139472155Y-65122232D01*
X139470519Y-65122454D01*
X139353607Y-65087490D01*
X139212416Y-65086628D01*
X139200672Y-65089984D01*
X139198731Y-65089498D01*
X139198182Y-65087575D01*
X139199126Y-65086327D01*
X139255018Y-65054235D01*
X139286901Y-64992751D01*
X139280481Y-64923793D01*
X139237696Y-64869122D01*
X139220386Y-64859919D01*
X139219326Y-64858223D01*
X139220265Y-64856457D01*
X139222091Y-64856305D01*
X139225233Y-64857607D01*
G37*
G36*
X135299956Y-62980184D02*
G01*
X135334170Y-63002960D01*
X135468936Y-63045063D01*
X135602235Y-63047506D01*
X135603948Y-63048538D01*
X135603911Y-63050538D01*
X135602645Y-63051455D01*
X135601176Y-63051792D01*
X135600698Y-63051843D01*
X135505237Y-63050344D01*
X135438197Y-63068889D01*
X135392024Y-63120515D01*
X135380943Y-63188381D01*
X135385150Y-63223146D01*
X135384365Y-63224985D01*
X135382379Y-63225226D01*
X135381184Y-63223670D01*
X135367016Y-63124735D01*
X135308574Y-62996201D01*
X135297333Y-62983154D01*
X135296960Y-62981190D01*
X135298475Y-62979884D01*
X135299956Y-62980184D01*
G37*
G36*
X136042389Y-62607508D02*
G01*
X136043095Y-62609332D01*
X136038001Y-62645121D01*
X136047998Y-62713954D01*
X136093429Y-62766232D01*
X136159910Y-62785650D01*
X136226428Y-62766014D01*
X136250940Y-62742464D01*
X136252882Y-62741985D01*
X136254268Y-62743427D01*
X136253825Y-62745230D01*
X136243784Y-62756599D01*
X136183780Y-62884404D01*
X136168604Y-62981870D01*
X136167350Y-62983427D01*
X136165373Y-62983120D01*
X136164645Y-62981301D01*
X136170433Y-62937338D01*
X136159715Y-62868613D01*
X136113740Y-62816814D01*
X136047058Y-62798094D01*
X135980739Y-62818428D01*
X135964878Y-62833667D01*
X135962936Y-62834146D01*
X135961550Y-62832704D01*
X135961692Y-62831353D01*
X136022963Y-62704892D01*
X136039143Y-62608718D01*
X136040416Y-62607176D01*
X136042389Y-62607508D01*
G37*
G36*
X135055740Y-62586608D02*
G01*
X135068921Y-62687406D01*
X135125785Y-62816641D01*
X135142768Y-62836844D01*
X135143117Y-62838813D01*
X135141586Y-62840100D01*
X135140149Y-62839809D01*
X135097931Y-62812445D01*
X134962659Y-62771990D01*
X134829763Y-62771178D01*
X134828037Y-62770167D01*
X134828049Y-62768167D01*
X134829309Y-62767233D01*
X134831223Y-62766774D01*
X134831699Y-62766719D01*
X134933403Y-62767251D01*
X135000243Y-62748005D01*
X135045882Y-62695889D01*
X135056560Y-62630487D01*
X135051769Y-62587086D01*
X135052573Y-62585255D01*
X135054561Y-62585036D01*
X135055740Y-62586608D01*
G37*
G36*
X136742740Y-62312158D02*
G01*
X136743266Y-62314087D01*
X136742698Y-62315039D01*
X136692056Y-62362369D01*
X136675055Y-62429510D01*
X136697052Y-62495180D01*
X136751370Y-62538781D01*
X136752095Y-62540645D01*
X136750843Y-62542205D01*
X136749545Y-62542257D01*
X136733607Y-62537490D01*
X136592416Y-62536628D01*
X136474694Y-62570273D01*
X136472753Y-62569787D01*
X136472204Y-62567864D01*
X136473227Y-62566573D01*
X136477297Y-62564473D01*
X136527617Y-62516448D01*
X136543914Y-62449134D01*
X136521231Y-62383696D01*
X136467756Y-62341683D01*
X136467012Y-62339826D01*
X136468248Y-62338254D01*
X136469588Y-62338201D01*
X136480380Y-62341573D01*
X136621551Y-62344161D01*
X136740806Y-62311648D01*
X136742740Y-62312158D01*
G37*
G36*
X136434649Y-61147073D02*
G01*
X136527472Y-61208862D01*
X136662238Y-61250965D01*
X136803409Y-61253553D01*
X136921939Y-61221237D01*
X136923873Y-61221747D01*
X136924399Y-61223676D01*
X136923364Y-61224954D01*
X136911819Y-61230761D01*
X136911366Y-61230924D01*
X136906577Y-61232021D01*
X136845895Y-61266020D01*
X136813368Y-61327165D01*
X136819067Y-61396241D01*
X136852107Y-61443975D01*
X136865196Y-61455636D01*
X136865824Y-61457535D01*
X136864494Y-61459028D01*
X136862778Y-61458807D01*
X136768879Y-61397945D01*
X136633607Y-61357490D01*
X136492416Y-61356628D01*
X136374692Y-61390274D01*
X136372751Y-61389788D01*
X136372202Y-61387865D01*
X136373225Y-61386574D01*
X136385117Y-61380436D01*
X136385567Y-61380268D01*
X136396341Y-61377682D01*
X136456661Y-61343047D01*
X136488544Y-61281563D01*
X136482118Y-61212540D01*
X136450518Y-61166889D01*
X136432195Y-61150217D01*
X136431587Y-61148312D01*
X136432933Y-61146833D01*
X136434649Y-61147073D01*
G37*
G36*
X146099136Y-59256577D02*
G01*
X146137229Y-59343151D01*
X146228081Y-59451232D01*
X146345614Y-59529470D01*
X146480380Y-59571573D01*
X146613680Y-59574016D01*
X146615393Y-59575048D01*
X146615356Y-59577048D01*
X146614090Y-59577965D01*
X146610366Y-59578818D01*
X146549683Y-59612821D01*
X146517158Y-59673967D01*
X146522864Y-59743099D01*
X146543355Y-59776484D01*
X146543408Y-59778483D01*
X146541704Y-59779529D01*
X146540231Y-59778939D01*
X146450025Y-59688101D01*
X146299812Y-59592773D01*
X146132222Y-59533097D01*
X145997681Y-59517053D01*
X145996080Y-59515855D01*
X145996317Y-59513869D01*
X145997918Y-59513067D01*
X146020524Y-59513067D01*
X146087263Y-59493471D01*
X146132618Y-59441128D01*
X146142484Y-59372510D01*
X146122775Y-59321276D01*
X146113649Y-59307695D01*
X146113431Y-59307267D01*
X146095427Y-59258069D01*
X146095771Y-59256099D01*
X146097649Y-59255412D01*
X146099136Y-59256577D01*
G37*
M02*
