G04 #@! TF.GenerationSoftware,KiCad,Pcbnew,6.0.4-6f826c9f35~116~ubuntu20.04.1*
G04 #@! TF.CreationDate,2022-06-15T17:18:02-05:00*
G04 #@! TF.ProjectId,strike-controller,73747269-6b65-42d6-936f-6e74726f6c6c,rev?*
G04 #@! TF.SameCoordinates,Original*
G04 #@! TF.FileFunction,Copper,L1,Top*
G04 #@! TF.FilePolarity,Positive*
%FSLAX46Y46*%
G04 Gerber Fmt 4.6, Leading zero omitted, Abs format (unit mm)*
G04 Created by KiCad (PCBNEW 6.0.4-6f826c9f35~116~ubuntu20.04.1) date 2022-06-15 17:18:02*
%MOMM*%
%LPD*%
G01*
G04 APERTURE LIST*
G04 Aperture macros list*
%AMRoundRect*
0 Rectangle with rounded corners*
0 $1 Rounding radius*
0 $2 $3 $4 $5 $6 $7 $8 $9 X,Y pos of 4 corners*
0 Add a 4 corners polygon primitive as box body*
4,1,4,$2,$3,$4,$5,$6,$7,$8,$9,$2,$3,0*
0 Add four circle primitives for the rounded corners*
1,1,$1+$1,$2,$3*
1,1,$1+$1,$4,$5*
1,1,$1+$1,$6,$7*
1,1,$1+$1,$8,$9*
0 Add four rect primitives between the rounded corners*
20,1,$1+$1,$2,$3,$4,$5,0*
20,1,$1+$1,$4,$5,$6,$7,0*
20,1,$1+$1,$6,$7,$8,$9,0*
20,1,$1+$1,$8,$9,$2,$3,0*%
G04 Aperture macros list end*
G04 #@! TA.AperFunction,SMDPad,CuDef*
%ADD10RoundRect,0.160000X0.197500X0.160000X-0.197500X0.160000X-0.197500X-0.160000X0.197500X-0.160000X0*%
G04 #@! TD*
G04 #@! TA.AperFunction,SMDPad,CuDef*
%ADD11RoundRect,0.237500X0.300000X0.237500X-0.300000X0.237500X-0.300000X-0.237500X0.300000X-0.237500X0*%
G04 #@! TD*
G04 #@! TA.AperFunction,SMDPad,CuDef*
%ADD12RoundRect,0.250000X-0.337500X-0.475000X0.337500X-0.475000X0.337500X0.475000X-0.337500X0.475000X0*%
G04 #@! TD*
G04 #@! TA.AperFunction,SMDPad,CuDef*
%ADD13RoundRect,0.250000X0.337500X0.475000X-0.337500X0.475000X-0.337500X-0.475000X0.337500X-0.475000X0*%
G04 #@! TD*
G04 #@! TA.AperFunction,SMDPad,CuDef*
%ADD14RoundRect,0.237500X0.237500X-0.287500X0.237500X0.287500X-0.237500X0.287500X-0.237500X-0.287500X0*%
G04 #@! TD*
G04 #@! TA.AperFunction,SMDPad,CuDef*
%ADD15RoundRect,0.237500X-0.287500X-0.237500X0.287500X-0.237500X0.287500X0.237500X-0.287500X0.237500X0*%
G04 #@! TD*
G04 #@! TA.AperFunction,SMDPad,CuDef*
%ADD16R,1.100000X1.100000*%
G04 #@! TD*
G04 #@! TA.AperFunction,SMDPad,CuDef*
%ADD17R,0.900000X0.800000*%
G04 #@! TD*
G04 #@! TA.AperFunction,SMDPad,CuDef*
%ADD18R,0.800000X0.900000*%
G04 #@! TD*
G04 #@! TA.AperFunction,SMDPad,CuDef*
%ADD19RoundRect,0.160000X-0.160000X0.197500X-0.160000X-0.197500X0.160000X-0.197500X0.160000X0.197500X0*%
G04 #@! TD*
G04 #@! TA.AperFunction,SMDPad,CuDef*
%ADD20RoundRect,0.160000X-0.197500X-0.160000X0.197500X-0.160000X0.197500X0.160000X-0.197500X0.160000X0*%
G04 #@! TD*
G04 #@! TA.AperFunction,SMDPad,CuDef*
%ADD21RoundRect,0.160000X0.160000X-0.197500X0.160000X0.197500X-0.160000X0.197500X-0.160000X-0.197500X0*%
G04 #@! TD*
G04 #@! TA.AperFunction,SMDPad,CuDef*
%ADD22R,2.000000X1.500000*%
G04 #@! TD*
G04 #@! TA.AperFunction,SMDPad,CuDef*
%ADD23R,2.000000X3.800000*%
G04 #@! TD*
G04 #@! TA.AperFunction,SMDPad,CuDef*
%ADD24R,1.700000X1.000000*%
G04 #@! TD*
G04 #@! TA.AperFunction,SMDPad,CuDef*
%ADD25R,0.900000X2.000000*%
G04 #@! TD*
G04 #@! TA.AperFunction,SMDPad,CuDef*
%ADD26R,2.000000X0.900000*%
G04 #@! TD*
G04 #@! TA.AperFunction,SMDPad,CuDef*
%ADD27R,5.000000X5.000000*%
G04 #@! TD*
G04 #@! TA.AperFunction,SMDPad,CuDef*
%ADD28RoundRect,0.155000X0.212500X0.155000X-0.212500X0.155000X-0.212500X-0.155000X0.212500X-0.155000X0*%
G04 #@! TD*
G04 #@! TA.AperFunction,SMDPad,CuDef*
%ADD29RoundRect,0.237500X-0.237500X0.287500X-0.237500X-0.287500X0.237500X-0.287500X0.237500X0.287500X0*%
G04 #@! TD*
G04 #@! TA.AperFunction,SMDPad,CuDef*
%ADD30RoundRect,0.200000X0.600000X-0.200000X0.600000X0.200000X-0.600000X0.200000X-0.600000X-0.200000X0*%
G04 #@! TD*
G04 #@! TA.AperFunction,SMDPad,CuDef*
%ADD31RoundRect,0.250000X1.250000X-0.800000X1.250000X0.800000X-1.250000X0.800000X-1.250000X-0.800000X0*%
G04 #@! TD*
G04 #@! TA.AperFunction,ComponentPad*
%ADD32C,3.000000*%
G04 #@! TD*
G04 #@! TA.AperFunction,SMDPad,CuDef*
%ADD33RoundRect,0.200000X-0.600000X0.200000X-0.600000X-0.200000X0.600000X-0.200000X0.600000X0.200000X0*%
G04 #@! TD*
G04 #@! TA.AperFunction,SMDPad,CuDef*
%ADD34RoundRect,0.250000X-1.250000X0.800000X-1.250000X-0.800000X1.250000X-0.800000X1.250000X0.800000X0*%
G04 #@! TD*
G04 #@! TA.AperFunction,SMDPad,CuDef*
%ADD35RoundRect,0.150000X-0.587500X-0.150000X0.587500X-0.150000X0.587500X0.150000X-0.587500X0.150000X0*%
G04 #@! TD*
G04 #@! TA.AperFunction,ComponentPad*
%ADD36O,1.000000X1.300000*%
G04 #@! TD*
G04 #@! TA.AperFunction,ComponentPad*
%ADD37O,1.700000X2.900000*%
G04 #@! TD*
G04 #@! TA.AperFunction,SMDPad,CuDef*
%ADD38RoundRect,0.150000X-0.150000X0.587500X-0.150000X-0.587500X0.150000X-0.587500X0.150000X0.587500X0*%
G04 #@! TD*
G04 #@! TA.AperFunction,SMDPad,CuDef*
%ADD39R,3.700000X1.100000*%
G04 #@! TD*
G04 #@! TA.AperFunction,SMDPad,CuDef*
%ADD40RoundRect,0.250000X-0.475000X0.337500X-0.475000X-0.337500X0.475000X-0.337500X0.475000X0.337500X0*%
G04 #@! TD*
G04 #@! TA.AperFunction,SMDPad,CuDef*
%ADD41RoundRect,0.140000X-0.170000X0.140000X-0.170000X-0.140000X0.170000X-0.140000X0.170000X0.140000X0*%
G04 #@! TD*
G04 #@! TA.AperFunction,SMDPad,CuDef*
%ADD42RoundRect,0.237500X-0.300000X-0.237500X0.300000X-0.237500X0.300000X0.237500X-0.300000X0.237500X0*%
G04 #@! TD*
G04 #@! TA.AperFunction,SMDPad,CuDef*
%ADD43R,0.650000X1.560000*%
G04 #@! TD*
G04 #@! TA.AperFunction,SMDPad,CuDef*
%ADD44R,1.400000X1.200000*%
G04 #@! TD*
G04 #@! TA.AperFunction,SMDPad,CuDef*
%ADD45R,1.270000X0.325000*%
G04 #@! TD*
G04 #@! TA.AperFunction,ComponentPad*
%ADD46O,1.600000X1.200000*%
G04 #@! TD*
G04 #@! TA.AperFunction,ComponentPad*
%ADD47O,1.200000X1.200000*%
G04 #@! TD*
G04 #@! TA.AperFunction,ViaPad*
%ADD48C,1.000000*%
G04 #@! TD*
G04 #@! TA.AperFunction,ViaPad*
%ADD49C,0.600000*%
G04 #@! TD*
G04 #@! TA.AperFunction,ViaPad*
%ADD50C,0.800000*%
G04 #@! TD*
G04 #@! TA.AperFunction,Conductor*
%ADD51C,0.250000*%
G04 #@! TD*
G04 #@! TA.AperFunction,Conductor*
%ADD52C,1.000000*%
G04 #@! TD*
G04 #@! TA.AperFunction,Conductor*
%ADD53C,0.500000*%
G04 #@! TD*
G04 #@! TA.AperFunction,Conductor*
%ADD54C,0.400000*%
G04 #@! TD*
G04 #@! TA.AperFunction,Conductor*
%ADD55C,0.200000*%
G04 #@! TD*
G04 APERTURE END LIST*
D10*
X159847500Y-116880000D03*
X158652500Y-116880000D03*
D11*
X140582500Y-97180000D03*
X138857500Y-97180000D03*
D12*
X161692500Y-100110000D03*
X163767500Y-100110000D03*
D13*
X149207500Y-103690000D03*
X147132500Y-103690000D03*
D14*
X154220000Y-107640000D03*
X154220000Y-105890000D03*
D15*
X147820000Y-97430000D03*
X149570000Y-97430000D03*
D16*
X164840000Y-64130000D03*
X162040000Y-64130000D03*
X144990000Y-66660000D03*
X147790000Y-66660000D03*
X143897500Y-75382500D03*
X143897500Y-72582500D03*
X151450000Y-75290000D03*
X151450000Y-72490000D03*
D17*
X164070000Y-61780000D03*
X164070000Y-59880000D03*
X162070000Y-60830000D03*
X135340000Y-65840000D03*
X135340000Y-63940000D03*
X133340000Y-64890000D03*
X145770000Y-68930000D03*
X145770000Y-70830000D03*
X147770000Y-69880000D03*
X164530000Y-68660000D03*
X164530000Y-66760000D03*
X162530000Y-67710000D03*
X133340000Y-59990000D03*
X133340000Y-61890000D03*
X135340000Y-60940000D03*
X150870000Y-68820000D03*
X150870000Y-70720000D03*
X152870000Y-69770000D03*
D18*
X158250000Y-73940000D03*
X156350000Y-73940000D03*
X157300000Y-75940000D03*
D17*
X139630000Y-73480000D03*
X139630000Y-75380000D03*
X141630000Y-74430000D03*
D18*
X158230000Y-70440000D03*
X156330000Y-70440000D03*
X157280000Y-72440000D03*
D17*
X147300000Y-72970000D03*
X147300000Y-74870000D03*
X149300000Y-73920000D03*
D19*
X165650000Y-60025000D03*
X165650000Y-61220000D03*
D20*
X134455000Y-67420000D03*
X135650000Y-67420000D03*
D10*
X133090000Y-67430000D03*
X131895000Y-67430000D03*
D21*
X144285000Y-70042500D03*
X144285000Y-68847500D03*
X165860000Y-68297500D03*
X165860000Y-67102500D03*
X161260000Y-68167500D03*
X161260000Y-66972500D03*
D19*
X131890000Y-60445000D03*
X131890000Y-61640000D03*
D21*
X149407500Y-69847500D03*
X149407500Y-68652500D03*
X135210000Y-58017500D03*
X135210000Y-56822500D03*
D10*
X140785000Y-72000000D03*
X139590000Y-72000000D03*
D19*
X131740000Y-63840000D03*
X131740000Y-65035000D03*
X153420000Y-73872500D03*
X153420000Y-75067500D03*
X145940000Y-72820000D03*
X145940000Y-74015000D03*
D22*
X157950000Y-103220000D03*
D23*
X151650000Y-100920000D03*
D22*
X157950000Y-100920000D03*
X157950000Y-98620000D03*
D24*
X146930000Y-112565000D03*
X153230000Y-112565000D03*
X146930000Y-116365000D03*
X153230000Y-116365000D03*
X145770000Y-106100000D03*
X152070000Y-106100000D03*
X152070000Y-109900000D03*
X145770000Y-109900000D03*
D25*
X138600000Y-95000000D03*
X139870000Y-95000000D03*
X141140000Y-95000000D03*
X142410000Y-95000000D03*
X143680000Y-95000000D03*
X144950000Y-95000000D03*
X146220000Y-95000000D03*
X147490000Y-95000000D03*
X148760000Y-95000000D03*
X150030000Y-95000000D03*
X151300000Y-95000000D03*
X152570000Y-95000000D03*
X153840000Y-95000000D03*
X155110000Y-95000000D03*
D26*
X156110000Y-92215000D03*
X156110000Y-90945000D03*
X156110000Y-89675000D03*
X156110000Y-88405000D03*
X156110000Y-87135000D03*
X156110000Y-85865000D03*
X156110000Y-84595000D03*
X156110000Y-83325000D03*
X156110000Y-82055000D03*
X156110000Y-80785000D03*
D25*
X155110000Y-78000000D03*
X153840000Y-78000000D03*
X152570000Y-78000000D03*
X151300000Y-78000000D03*
X150030000Y-78000000D03*
X148760000Y-78000000D03*
X147490000Y-78000000D03*
X146220000Y-78000000D03*
X144950000Y-78000000D03*
X143680000Y-78000000D03*
X142410000Y-78000000D03*
X141140000Y-78000000D03*
X139870000Y-78000000D03*
X138600000Y-78000000D03*
D27*
X146100000Y-87500000D03*
D21*
X155100000Y-113200000D03*
X155100000Y-112005000D03*
D28*
X139705000Y-98550000D03*
X138570000Y-98550000D03*
X145537500Y-104210000D03*
X144402500Y-104210000D03*
D19*
X153970000Y-109272500D03*
X153970000Y-110467500D03*
D21*
X154810000Y-71547500D03*
X154810000Y-70352500D03*
D29*
X155302500Y-114870000D03*
X155302500Y-116620000D03*
D30*
X160570000Y-94700000D03*
X160570000Y-93450000D03*
X160570000Y-92200000D03*
X160570000Y-90950000D03*
X160570000Y-89700000D03*
X160570000Y-88450000D03*
D31*
X163470000Y-97250000D03*
X163470000Y-85900000D03*
D30*
X137960000Y-65555000D03*
X137960000Y-64305000D03*
X137960000Y-63055000D03*
X137960000Y-61805000D03*
X137960000Y-60555000D03*
X137960000Y-59305000D03*
D31*
X140860000Y-56755000D03*
X140860000Y-68105000D03*
D16*
X149980000Y-66690000D03*
X152780000Y-66690000D03*
D32*
X132525000Y-115900000D03*
X164490000Y-115900000D03*
X132500000Y-56950000D03*
X164480000Y-56940000D03*
D33*
X159370000Y-59250000D03*
X159370000Y-60500000D03*
X159370000Y-61750000D03*
X159370000Y-63000000D03*
X159370000Y-64250000D03*
X159370000Y-65500000D03*
D34*
X156470000Y-56700000D03*
X156470000Y-68050000D03*
D30*
X160550000Y-80110000D03*
X160550000Y-78860000D03*
X160550000Y-77610000D03*
X160550000Y-76360000D03*
X160550000Y-75110000D03*
X160550000Y-73860000D03*
D31*
X163450000Y-71310000D03*
X163450000Y-82660000D03*
D10*
X146070000Y-97790000D03*
X144875000Y-97790000D03*
D19*
X154770000Y-73855000D03*
X154770000Y-75050000D03*
D35*
X133222500Y-69150000D03*
X133222500Y-71050000D03*
X135097500Y-70100000D03*
D36*
X138667100Y-111025500D03*
X139454500Y-112219300D03*
X140267300Y-111025500D03*
X141080100Y-112244700D03*
X141867500Y-111025500D03*
D37*
X136635100Y-116080100D03*
X143924900Y-116080100D03*
D28*
X133560000Y-107960000D03*
X132425000Y-107960000D03*
D19*
X152810000Y-58400000D03*
X152810000Y-59595000D03*
D35*
X144635000Y-62040000D03*
X144635000Y-63940000D03*
X146510000Y-62990000D03*
D19*
X137940000Y-74365000D03*
X137940000Y-75560000D03*
D38*
X148330000Y-99460000D03*
X146430000Y-99460000D03*
X147380000Y-101335000D03*
D10*
X159792500Y-115492500D03*
X158597500Y-115492500D03*
D39*
X162910000Y-107330000D03*
X162900000Y-104330000D03*
D35*
X150755000Y-62040000D03*
X150755000Y-63940000D03*
X152630000Y-62990000D03*
D21*
X147760000Y-60355000D03*
X147760000Y-59160000D03*
D10*
X143537500Y-97800000D03*
X142342500Y-97800000D03*
D40*
X163230000Y-109645000D03*
X163230000Y-111720000D03*
D21*
X144440000Y-59505000D03*
X144440000Y-58310000D03*
D10*
X133505000Y-102290000D03*
X132310000Y-102290000D03*
D11*
X140072500Y-101090000D03*
X138347500Y-101090000D03*
D41*
X159040000Y-107120000D03*
X159040000Y-108080000D03*
D42*
X161927500Y-102110000D03*
X163652500Y-102110000D03*
D43*
X157990000Y-112470000D03*
X158940000Y-112470000D03*
X159890000Y-112470000D03*
X159890000Y-109770000D03*
X158940000Y-109770000D03*
X157990000Y-109770000D03*
D28*
X133480000Y-106480000D03*
X132345000Y-106480000D03*
D21*
X149090000Y-60375000D03*
X149090000Y-59180000D03*
D10*
X139770000Y-99720000D03*
X138575000Y-99720000D03*
D44*
X134800000Y-111090000D03*
X132600000Y-111090000D03*
X132600000Y-112790000D03*
X134800000Y-112790000D03*
D28*
X133540000Y-109410000D03*
X132405000Y-109410000D03*
D38*
X144650000Y-99505000D03*
X142750000Y-99505000D03*
X143700000Y-101380000D03*
D45*
X135280500Y-102985000D03*
X135280500Y-103635000D03*
X135280500Y-104285000D03*
X135280500Y-104935000D03*
X135280500Y-105585000D03*
X135280500Y-106235000D03*
X135280500Y-106885000D03*
X135280500Y-107535000D03*
X135280500Y-108185000D03*
X135280500Y-108835000D03*
X142519500Y-108835000D03*
X142519500Y-108185000D03*
X142519500Y-107535000D03*
X142519500Y-106885000D03*
X142519500Y-106235000D03*
X142519500Y-105585000D03*
X142519500Y-104935000D03*
X142519500Y-104285000D03*
X142519500Y-103635000D03*
X142519500Y-102985000D03*
D20*
X132330000Y-103760000D03*
X133525000Y-103760000D03*
X132340000Y-105120000D03*
X133535000Y-105120000D03*
D46*
X151030000Y-60310000D03*
D47*
X148490000Y-62850000D03*
X145950000Y-60310000D03*
D48*
X159750000Y-100830000D03*
X149810000Y-100920000D03*
D49*
X161010000Y-61750000D03*
X161540000Y-65660000D03*
X153980000Y-72810000D03*
X151720831Y-71418054D03*
X160120000Y-73280000D03*
X153380000Y-71700000D03*
X158140000Y-64980000D03*
X153850000Y-69120000D03*
X149830000Y-72130000D03*
X150020000Y-79600000D03*
X151110000Y-65510000D03*
X155720133Y-65322333D03*
X145170000Y-62970000D03*
X162737263Y-66044796D03*
X146560000Y-59080000D03*
X139670000Y-60560000D03*
X144630000Y-70930000D03*
X145140000Y-72140000D03*
X142190000Y-71880000D03*
X153210000Y-76090000D03*
X158190000Y-71860000D03*
X154961452Y-72015558D03*
X137540000Y-70610000D03*
X154168090Y-76514500D03*
X154450000Y-81480000D03*
X144340000Y-79820000D03*
X139060000Y-74350000D03*
X148800000Y-80940000D03*
X138370000Y-71260000D03*
X139120000Y-70820000D03*
X152454273Y-75793488D03*
X147930000Y-71870000D03*
X136560000Y-61850000D03*
X136660000Y-63030000D03*
X135548556Y-62553490D03*
X136741858Y-60759392D03*
X152990000Y-79830000D03*
X150870000Y-83060000D03*
X154360486Y-69904367D03*
X162380000Y-66820000D03*
X158680000Y-68300000D03*
X160619446Y-65761912D03*
X155453302Y-74442840D03*
X159680000Y-72570000D03*
X150210000Y-71370000D03*
X156470000Y-66350000D03*
X159960000Y-66670000D03*
X162640000Y-68830000D03*
X162700000Y-73140000D03*
X140203279Y-76294253D03*
X144401693Y-73983489D03*
X143400000Y-80500000D03*
X148639400Y-81712159D03*
X142450000Y-76220000D03*
X153410000Y-91420000D03*
X140390000Y-81060000D03*
X141570000Y-91690000D03*
X146420000Y-96540000D03*
X156500000Y-96150000D03*
X150270000Y-96590000D03*
X149830000Y-93680000D03*
X150570000Y-93280000D03*
X152170000Y-90160000D03*
X149076179Y-80243237D03*
X147730000Y-91560000D03*
X147510000Y-93440000D03*
X148840000Y-66020000D03*
X149040000Y-75280000D03*
X156090000Y-72880000D03*
X158363767Y-72623767D03*
X155993918Y-71182905D03*
X156440000Y-74880000D03*
X152220000Y-91100000D03*
X152000000Y-92700000D03*
D50*
X162050000Y-88450000D03*
X162020000Y-93440000D03*
X138535980Y-102257502D03*
X156140000Y-103200000D03*
X161765500Y-78880000D03*
D49*
X151760000Y-116380000D03*
D50*
X138570000Y-93230000D03*
D49*
X147360000Y-104960000D03*
X133330000Y-62795500D03*
X134889052Y-63264500D03*
X148249794Y-75158430D03*
D48*
X143210000Y-64010000D03*
X146100000Y-90770000D03*
D49*
X136180000Y-112770000D03*
X144330000Y-105050000D03*
X138195500Y-79433387D03*
X150730000Y-109920000D03*
D50*
X164810000Y-102040000D03*
X139380000Y-64280000D03*
D49*
X148380000Y-116380000D03*
D50*
X164655679Y-65779155D03*
D48*
X142840000Y-87440000D03*
D50*
X154320000Y-91960000D03*
D49*
X150790000Y-63060000D03*
X144720000Y-97000000D03*
D50*
X161710000Y-111750000D03*
X162818074Y-59712672D03*
X139560000Y-59230000D03*
D48*
X146970000Y-71140000D03*
D49*
X138720000Y-76400000D03*
D50*
X158950000Y-113940000D03*
D49*
X136450000Y-107680000D03*
D50*
X165040000Y-100120000D03*
D49*
X147220000Y-109910000D03*
D50*
X157940000Y-104610000D03*
D49*
X131200000Y-111100000D03*
X146370177Y-101046969D03*
X148870000Y-91725989D03*
X145076270Y-102866270D03*
X156440000Y-98860000D03*
X131510000Y-104570000D03*
X141060000Y-103800000D03*
D48*
X164870000Y-79200000D03*
D50*
X161773056Y-79913056D03*
D49*
X139280000Y-65580000D03*
D48*
X144960000Y-65350000D03*
D50*
X165265500Y-62985089D03*
D48*
X164580000Y-108910000D03*
D50*
X157924814Y-62923341D03*
D48*
X149920000Y-65590000D03*
X164840000Y-80400000D03*
X164300000Y-93890000D03*
X145160000Y-75590000D03*
X152079175Y-74457059D03*
X163620000Y-65410000D03*
D50*
X157900000Y-59270000D03*
D48*
X157990398Y-63970793D03*
X154518216Y-64515500D03*
D49*
X141620000Y-96730000D03*
X146700000Y-101720000D03*
X148170000Y-105480000D03*
X147960000Y-111230000D03*
X141170000Y-100360000D03*
X145710000Y-99670000D03*
X139600000Y-81570000D03*
X163274500Y-74580000D03*
X160470000Y-72500000D03*
X165660000Y-95770000D03*
X149690000Y-57400000D03*
D50*
X142240000Y-79020000D03*
X142260000Y-80400000D03*
D49*
X153330000Y-57350000D03*
X155160000Y-59340000D03*
X149560000Y-90620000D03*
D50*
X140610000Y-98740000D03*
X139850000Y-93330000D03*
X131390000Y-102290000D03*
D48*
X156230000Y-100920000D03*
D49*
X161900000Y-90950000D03*
X150640000Y-97760000D03*
D48*
X153420000Y-100910000D03*
D49*
X142000000Y-99530000D03*
X138647649Y-81430116D03*
X138110000Y-91920000D03*
X137397793Y-79486930D03*
D51*
X139870000Y-78000000D02*
X139870000Y-76627532D01*
X139870000Y-76627532D02*
X140203279Y-76294253D01*
D52*
X157950000Y-100920000D02*
X159660000Y-100920000D01*
X159660000Y-100920000D02*
X159750000Y-100830000D01*
X151650000Y-100920000D02*
X149810000Y-100920000D01*
D51*
X161777967Y-66234501D02*
X161607967Y-66234501D01*
X162114501Y-65897967D02*
X161777967Y-66234501D01*
X160289520Y-66340480D02*
X159960000Y-66670000D01*
X165650000Y-60025000D02*
X165070489Y-60604511D01*
X163910000Y-67670000D02*
X163660000Y-67420000D01*
X162814796Y-66044796D02*
X162737263Y-66044796D01*
X163660000Y-66890000D02*
X162814796Y-66044796D01*
X165292500Y-67670000D02*
X163910000Y-67670000D01*
X161607967Y-66234501D02*
X161501988Y-66340480D01*
X165860000Y-67102500D02*
X165292500Y-67670000D01*
X160610489Y-65752955D02*
X160619446Y-65761912D01*
X163705489Y-60604511D02*
X163140000Y-61170000D01*
X163660000Y-67420000D02*
X163660000Y-66890000D01*
X159591072Y-61750000D02*
X160610489Y-62769417D01*
X165070489Y-60604511D02*
X163705489Y-60604511D01*
X161010000Y-61750000D02*
X161010000Y-65130000D01*
X163140000Y-64679022D02*
X162114501Y-65704521D01*
X161010000Y-65130000D02*
X161540000Y-65660000D01*
X162114501Y-65704521D02*
X162114501Y-65897967D01*
X160610489Y-62769417D02*
X160610489Y-65752955D01*
X161501988Y-66340480D02*
X160289520Y-66340480D01*
X163140000Y-61170000D02*
X163140000Y-64679022D01*
X153729968Y-73872500D02*
X153420000Y-73872500D01*
X151466549Y-73753451D02*
X148760000Y-76460000D01*
X152825480Y-71957948D02*
X152805499Y-71937967D01*
X152295332Y-71656021D02*
X152290980Y-71660373D01*
X152290980Y-71660373D02*
X152290980Y-73196995D01*
X152290980Y-73196995D02*
X151734524Y-73753451D01*
X153420000Y-74844504D02*
X152825480Y-74249984D01*
X155115006Y-66350000D02*
X154630495Y-65865489D01*
X156470000Y-66350000D02*
X155115006Y-66350000D01*
X151955489Y-65865489D02*
X151955489Y-70840244D01*
X158230000Y-70440000D02*
X157455489Y-71214511D01*
X153980000Y-72810000D02*
X153980000Y-72300000D01*
X152805499Y-71937967D02*
X152805499Y-71462033D01*
X154630495Y-65865489D02*
X151955489Y-65865489D01*
X153740000Y-69230000D02*
X153850000Y-69120000D01*
X160550000Y-73710000D02*
X160120000Y-73280000D01*
X153980000Y-72300000D02*
X153380000Y-71700000D01*
X152805499Y-71462033D02*
X153740000Y-70527532D01*
X151720831Y-71418054D02*
X151720831Y-72219169D01*
X154810000Y-71547500D02*
X154810000Y-71864106D01*
X152825480Y-74249984D02*
X152825480Y-71957948D01*
X157455489Y-71214511D02*
X156845489Y-71214511D01*
X154554501Y-73047967D02*
X153729968Y-73872500D01*
X151734524Y-73753451D02*
X151466549Y-73753451D01*
X153740000Y-70527532D02*
X153740000Y-69230000D01*
X156845489Y-71214511D02*
X155012033Y-73047967D01*
X154810000Y-71864106D02*
X154961452Y-72015558D01*
X148760000Y-76460000D02*
X148760000Y-78000000D01*
X151955489Y-70840244D02*
X152295332Y-71180087D01*
X155012033Y-73047967D02*
X154554501Y-73047967D01*
X152295332Y-71180087D02*
X152295332Y-71656021D01*
X159370000Y-65500000D02*
X158660000Y-65500000D01*
X158660000Y-65500000D02*
X158140000Y-64980000D01*
X155160000Y-62761072D02*
X155160000Y-59340000D01*
X151110000Y-65510000D02*
X151330000Y-65290000D01*
X157953429Y-65554501D02*
X157902033Y-65554501D01*
X151330000Y-65290000D02*
X155687800Y-65290000D01*
X157565499Y-65217967D02*
X157565499Y-65166571D01*
X157565499Y-65166571D02*
X155160000Y-62761072D01*
X160629021Y-71281560D02*
X160629021Y-68287250D01*
D53*
X159370000Y-64250000D02*
X158269605Y-64250000D01*
D51*
X157902033Y-65554501D02*
X157565499Y-65217967D01*
X155687800Y-65290000D02*
X155720133Y-65322333D01*
D53*
X159370000Y-63000000D02*
X158001473Y-63000000D01*
D51*
X160629021Y-68287250D02*
X159859022Y-67517252D01*
D53*
X158269605Y-64250000D02*
X157990398Y-63970793D01*
D51*
X162090489Y-72743028D02*
X160629021Y-71281560D01*
X159859022Y-67460094D02*
X157953429Y-65554501D01*
X160771072Y-77610000D02*
X162090489Y-76290583D01*
D53*
X158001473Y-63000000D02*
X157924814Y-62923341D01*
D51*
X159859022Y-67517252D02*
X159859022Y-67460094D01*
X162090489Y-76290583D02*
X162090489Y-72743028D01*
X160328928Y-75110000D02*
X159070000Y-73851072D01*
X154808619Y-70352500D02*
X154360486Y-69904367D01*
X158381832Y-69386826D02*
X154929294Y-69386826D01*
X154929294Y-69386826D02*
X154087967Y-68545499D01*
X153612033Y-68545499D02*
X152870000Y-69287532D01*
D53*
X151450000Y-75290000D02*
X152079175Y-74660825D01*
D51*
X158904511Y-70759505D02*
X158904511Y-69715489D01*
X158710494Y-69715488D02*
X158381832Y-69386826D01*
X159000489Y-71985482D02*
X159000489Y-70855483D01*
X159000489Y-70855483D02*
X158904511Y-70759505D01*
X152870000Y-69287532D02*
X152870000Y-69770000D01*
X158904511Y-69715489D02*
X158710494Y-69715488D01*
D53*
X152079175Y-74660825D02*
X152079175Y-74457059D01*
D51*
X159070000Y-73851072D02*
X159070000Y-72054994D01*
X159070000Y-72054994D02*
X159000489Y-71985482D01*
X154087967Y-68545499D02*
X153612033Y-68545499D01*
X149830000Y-72130000D02*
X149407500Y-71707500D01*
X149407500Y-71707500D02*
X149407500Y-69847500D01*
X144519511Y-79999511D02*
X144340000Y-79820000D01*
X147859511Y-79999511D02*
X144519511Y-79999511D01*
X148800000Y-80940000D02*
X147859511Y-79999511D01*
X144950000Y-78000000D02*
X144950000Y-79250000D01*
X144950000Y-79250000D02*
X145300000Y-79600000D01*
X145300000Y-79600000D02*
X150020000Y-79600000D01*
X148840000Y-67174511D02*
X148840000Y-66020000D01*
X148530000Y-67484511D02*
X148840000Y-67174511D01*
X148530000Y-74549022D02*
X148530000Y-67484511D01*
X149040000Y-75280000D02*
X149040000Y-75059022D01*
D53*
X147961364Y-74870000D02*
X148249794Y-75158430D01*
D51*
X149040000Y-75059022D02*
X148530000Y-74549022D01*
D53*
X147300000Y-74870000D02*
X147961364Y-74870000D01*
X147790000Y-66660000D02*
X147790000Y-65610000D01*
D51*
X145170000Y-62970000D02*
X138045000Y-62970000D01*
D53*
X147790000Y-65610000D02*
X148709501Y-64690499D01*
X148709501Y-64690499D02*
X154343217Y-64690499D01*
X154343217Y-64690499D02*
X154518216Y-64515500D01*
D51*
X137960000Y-60555000D02*
X139665000Y-60555000D01*
X146560000Y-59080000D02*
X147680000Y-59080000D01*
X139665000Y-60555000D02*
X139670000Y-60560000D01*
X144440000Y-59505000D02*
X144440000Y-61845000D01*
X144440000Y-61845000D02*
X144635000Y-62040000D01*
X143770000Y-74390000D02*
X143937989Y-74557989D01*
X144776511Y-73983489D02*
X144401693Y-73983489D01*
X145940000Y-72820000D02*
X144776511Y-73983489D01*
X144639660Y-73408988D02*
X144163726Y-73408988D01*
X143770000Y-73802714D02*
X143770000Y-74390000D01*
X144285000Y-70042500D02*
X144285000Y-70585000D01*
X144285000Y-70585000D02*
X144630000Y-70930000D01*
X145140000Y-72140000D02*
X145140000Y-72908648D01*
X145140000Y-72908648D02*
X144639660Y-73408988D01*
X144163726Y-73408988D02*
X143770000Y-73802714D01*
X143937989Y-74557989D02*
X145437989Y-74557989D01*
X145437989Y-74557989D02*
X147490000Y-76610000D01*
X147490000Y-76610000D02*
X147490000Y-78000000D01*
X140760000Y-71370000D02*
X141640000Y-71370000D01*
X134565489Y-65115489D02*
X134615489Y-65165489D01*
X134000000Y-63840000D02*
X134565489Y-64405489D01*
X147810000Y-71990000D02*
X147930000Y-71870000D01*
X134615489Y-65165489D02*
X136064511Y-65165489D01*
X152570000Y-78000000D02*
X152570000Y-75909215D01*
X152570000Y-75909215D02*
X152454273Y-75793488D01*
X136660000Y-66696783D02*
X140933706Y-70970489D01*
X140933706Y-70970489D02*
X143600489Y-70970489D01*
X155110000Y-76750000D02*
X154874500Y-76514500D01*
X144184511Y-71554511D02*
X146204511Y-71554511D01*
X155110000Y-78000000D02*
X155110000Y-76750000D01*
X136064511Y-65165489D02*
X136064511Y-66674511D01*
X136660000Y-63030000D02*
X136660000Y-66696783D01*
X134565489Y-64405489D02*
X134565489Y-65115489D01*
X142150000Y-71880000D02*
X142190000Y-71880000D01*
X136064511Y-66674511D02*
X140760000Y-71370000D01*
X154874500Y-76514500D02*
X154168090Y-76514500D01*
X131740000Y-63840000D02*
X134000000Y-63840000D01*
X141980000Y-71710000D02*
X142150000Y-71880000D01*
X143600489Y-70970489D02*
X144184511Y-71554511D01*
X146204511Y-71554511D02*
X146640000Y-71990000D01*
X141640000Y-71370000D02*
X141980000Y-71710000D01*
X146640000Y-71990000D02*
X147810000Y-71990000D01*
X153210000Y-76090000D02*
X153360000Y-75940000D01*
X153360000Y-75940000D02*
X157300000Y-75940000D01*
X131740000Y-65035000D02*
X131145480Y-64440480D01*
X134540000Y-62640000D02*
X135462046Y-62640000D01*
X131145480Y-64440480D02*
X131145480Y-63244520D01*
X131145480Y-63244520D02*
X131430000Y-62960000D01*
X131430000Y-62960000D02*
X132270000Y-62960000D01*
X135462046Y-62640000D02*
X135548556Y-62553490D01*
X132270000Y-62960000D02*
X132730000Y-63420000D01*
X133760000Y-63420000D02*
X134540000Y-62640000D01*
X132730000Y-63420000D02*
X133760000Y-63420000D01*
X158190000Y-71860000D02*
X157860000Y-71860000D01*
X157860000Y-71860000D02*
X157280000Y-72440000D01*
X138370000Y-71260000D02*
X138114501Y-71004501D01*
X139120000Y-70820000D02*
X139120000Y-70740014D01*
X136055970Y-69125970D02*
X137540000Y-70610000D01*
X138114501Y-70299508D02*
X136541452Y-68726459D01*
X133222500Y-70637139D02*
X133222500Y-71050000D01*
X137850000Y-71732468D02*
X136390000Y-70272468D01*
X138114501Y-71004501D02*
X138114501Y-70299508D01*
X134334158Y-69525481D02*
X133222500Y-70637139D01*
X137850000Y-73140000D02*
X137850000Y-71732468D01*
X136541452Y-68726459D02*
X134386459Y-68726459D01*
X135890487Y-69525481D02*
X134334158Y-69525481D01*
X133246530Y-69125970D02*
X136055970Y-69125970D01*
X139060000Y-74350000D02*
X137850000Y-73140000D01*
X136390000Y-70024994D02*
X135890487Y-69525481D01*
X139120000Y-70740014D02*
X135799986Y-67420000D01*
X136390000Y-70272468D02*
X136390000Y-70024994D01*
X134386459Y-68726459D02*
X133090000Y-67430000D01*
X153875499Y-81088527D02*
X155290004Y-79674022D01*
X157830000Y-74680000D02*
X157590978Y-74680000D01*
X158270000Y-77274994D02*
X158270000Y-75120000D01*
X155870973Y-79674021D02*
X158270000Y-77274994D01*
X137275499Y-73700499D02*
X137275499Y-72277999D01*
X137940000Y-74365000D02*
X137275499Y-73700499D01*
X147427241Y-80500000D02*
X148639400Y-81712159D01*
X149414501Y-80581559D02*
X149076179Y-80243237D01*
X153875499Y-89444501D02*
X153875499Y-81088527D01*
X137275499Y-72277999D02*
X135097500Y-70100000D01*
X158270000Y-75120000D02*
X157830000Y-74680000D01*
X157280000Y-74369022D02*
X157280000Y-72440000D01*
X152220000Y-91100000D02*
X153875499Y-89444501D01*
X156110000Y-80785000D02*
X155145000Y-80785000D01*
X157590978Y-74680000D02*
X157280000Y-74369022D01*
X155145000Y-80785000D02*
X154450000Y-81480000D01*
X155290004Y-79674022D02*
X155870973Y-79674021D01*
X143400000Y-80500000D02*
X147427241Y-80500000D01*
X149414501Y-89875499D02*
X149414501Y-80581559D01*
X147730000Y-91560000D02*
X149414501Y-89875499D01*
X135650000Y-60940000D02*
X136560000Y-61850000D01*
X134166467Y-61165489D02*
X134696477Y-61695499D01*
X132364511Y-61165489D02*
X134166467Y-61165489D01*
X135340000Y-63715448D02*
X134889052Y-63264500D01*
X137755608Y-60759392D02*
X136741858Y-60759392D01*
X131890000Y-61640000D02*
X132364511Y-61165489D01*
X136249508Y-62424501D02*
X136797967Y-62424501D01*
X134696477Y-61695499D02*
X135520506Y-61695499D01*
X135520506Y-61695499D02*
X136249508Y-62424501D01*
X136797967Y-62424501D02*
X137417468Y-61805000D01*
X133340000Y-62785500D02*
X133330000Y-62795500D01*
X133340000Y-61890000D02*
X133340000Y-62785500D01*
X150870000Y-83060000D02*
X151150000Y-82780000D01*
X151150000Y-82780000D02*
X151150000Y-81670000D01*
X151150000Y-81670000D02*
X152990000Y-79830000D01*
X162380000Y-66820000D02*
X161412500Y-66820000D01*
X159400000Y-69645985D02*
X159400000Y-71820000D01*
X159799510Y-68587727D02*
X159799511Y-71629511D01*
X159069993Y-69315978D02*
X159400000Y-69645985D01*
X160470000Y-72300000D02*
X160470000Y-72500000D01*
X158680000Y-69120000D02*
X158875978Y-69315978D01*
X154201783Y-62990000D02*
X159799510Y-68587727D01*
X158250000Y-72737534D02*
X158363767Y-72623767D01*
X159799511Y-71629511D02*
X160470000Y-72300000D01*
X158875978Y-69315978D02*
X159069993Y-69315978D01*
X152630000Y-62990000D02*
X154201783Y-62990000D01*
X159400000Y-71820000D02*
X159680000Y-72100000D01*
X155453302Y-74442840D02*
X155377160Y-74442840D01*
X158250000Y-73940000D02*
X158250000Y-72737534D01*
X159680000Y-72100000D02*
X159680000Y-72570000D01*
X158680000Y-68300000D02*
X158680000Y-69120000D01*
X155377160Y-74442840D02*
X154770000Y-75050000D01*
X150870000Y-68820000D02*
X149575000Y-68820000D01*
X150860000Y-70720000D02*
X150210000Y-71370000D01*
D53*
X150730000Y-72490000D02*
X151450000Y-72490000D01*
X149300000Y-73920000D02*
X150730000Y-72490000D01*
X161745500Y-78860000D02*
X161765500Y-78880000D01*
D51*
X166040000Y-93620000D02*
X166040000Y-77520000D01*
X161810000Y-95240000D02*
X164420000Y-95240000D01*
X162640000Y-68830000D02*
X162640000Y-67820000D01*
X153170000Y-96850000D02*
X160200000Y-96850000D01*
X152570000Y-96250000D02*
X153170000Y-96850000D01*
X166040000Y-77520000D02*
X163274500Y-74754500D01*
X156110000Y-82055000D02*
X161263217Y-82055000D01*
X160200000Y-96850000D02*
X161810000Y-95240000D01*
D53*
X160550000Y-78860000D02*
X161745500Y-78860000D01*
D51*
X152570000Y-95000000D02*
X152570000Y-96250000D01*
X162700000Y-80618217D02*
X162700000Y-73140000D01*
X161263217Y-82055000D02*
X162700000Y-80618217D01*
X164420000Y-95240000D02*
X166040000Y-93620000D01*
X163274500Y-74754500D02*
X163274500Y-74580000D01*
X142450000Y-76220000D02*
X142450000Y-75250000D01*
X142450000Y-75250000D02*
X141630000Y-74430000D01*
X159149511Y-94140489D02*
X157140000Y-96150000D01*
X156840000Y-94170000D02*
X156000000Y-93330000D01*
X159909022Y-92200000D02*
X159149511Y-92959511D01*
X156840000Y-94170000D02*
X158170000Y-94170000D01*
X156000000Y-93330000D02*
X154450000Y-93330000D01*
X153410000Y-92290000D02*
X154450000Y-93330000D01*
X160348928Y-89700000D02*
X158750000Y-91298928D01*
X158750000Y-91298928D02*
X158750000Y-93590000D01*
X159149511Y-92959511D02*
X159149511Y-94140489D01*
X153410000Y-92290000D02*
X153410000Y-91420000D01*
X158750000Y-93590000D02*
X158170000Y-94170000D01*
X157140000Y-96150000D02*
X156500000Y-96150000D01*
X151300000Y-96430000D02*
X151300000Y-95000000D01*
X160430000Y-97270000D02*
X152140000Y-97270000D01*
X161930000Y-95770000D02*
X160430000Y-97270000D01*
X152140000Y-97270000D02*
X151300000Y-96430000D01*
X165660000Y-95770000D02*
X161930000Y-95770000D01*
D54*
X150310000Y-97430000D02*
X150640000Y-97760000D01*
X149570000Y-97430000D02*
X150310000Y-97430000D01*
D51*
X150270000Y-96590000D02*
X146470000Y-96590000D01*
X146470000Y-96590000D02*
X146420000Y-96540000D01*
X140250000Y-81200000D02*
X140390000Y-81060000D01*
X141570000Y-91690000D02*
X140250000Y-90370000D01*
X140250000Y-90370000D02*
X140250000Y-81200000D01*
X150395499Y-93105499D02*
X150570000Y-93280000D01*
X149404501Y-93105499D02*
X150395499Y-93105499D01*
X148760000Y-93750000D02*
X149404501Y-93105499D01*
X148760000Y-95000000D02*
X148760000Y-93750000D01*
X150030000Y-95000000D02*
X150030000Y-93880000D01*
X150030000Y-93880000D02*
X149830000Y-93680000D01*
X151595499Y-90184501D02*
X150054011Y-91725989D01*
X150054011Y-91725989D02*
X148870000Y-91725989D01*
X155110000Y-78655992D02*
X151595499Y-82170493D01*
X152170000Y-82160985D02*
X155056474Y-79274511D01*
X151595499Y-82170493D02*
X151595499Y-90184501D01*
X152170000Y-90160000D02*
X152170000Y-82160985D01*
X155056474Y-79274511D02*
X155705489Y-79274511D01*
X157300000Y-77680000D02*
X157300000Y-75940000D01*
X155705489Y-79274511D02*
X157300000Y-77680000D01*
X147490000Y-93460000D02*
X147510000Y-93440000D01*
X147490000Y-95000000D02*
X147490000Y-93460000D01*
X152870000Y-69770000D02*
X152870000Y-66780000D01*
X154770000Y-73855000D02*
X155115000Y-73855000D01*
X155115000Y-73855000D02*
X156090000Y-72880000D01*
X156330000Y-70846823D02*
X155993918Y-71182905D01*
X156330000Y-70440000D02*
X156330000Y-70846823D01*
X156350000Y-73940000D02*
X156350000Y-74790000D01*
X156350000Y-74790000D02*
X156440000Y-74880000D01*
X144950000Y-94270978D02*
X146520978Y-92700000D01*
X151377043Y-92300489D02*
X140270489Y-92300489D01*
X153840000Y-95000000D02*
X153840000Y-93727532D01*
X152237967Y-92125499D02*
X151552033Y-92125499D01*
X146520978Y-92700000D02*
X152000000Y-92700000D01*
X151552033Y-92125499D02*
X151377043Y-92300489D01*
X139600000Y-91630000D02*
X139600000Y-81570000D01*
X153840000Y-93727532D02*
X152237967Y-92125499D01*
X140270489Y-92300489D02*
X139600000Y-91630000D01*
D53*
X164740000Y-102110000D02*
X164810000Y-102040000D01*
X139355000Y-64305000D02*
X139380000Y-64280000D01*
D51*
X132600000Y-109605000D02*
X132405000Y-109410000D01*
D53*
X163230000Y-111720000D02*
X161740000Y-111720000D01*
X145770000Y-70830000D02*
X146660000Y-70830000D01*
X139630000Y-75490000D02*
X138720000Y-76400000D01*
X138600000Y-96922500D02*
X138857500Y-97180000D01*
D51*
X144875000Y-97790000D02*
X144875000Y-97155000D01*
X132425000Y-107960000D02*
X133059520Y-107325480D01*
X150750000Y-109900000D02*
X150730000Y-109920000D01*
X132600000Y-111090000D02*
X132600000Y-109605000D01*
D53*
X138600000Y-93260000D02*
X138570000Y-93230000D01*
D51*
X136450000Y-107680000D02*
X136450000Y-108000000D01*
D53*
X164530000Y-66760000D02*
X164530000Y-65904834D01*
D51*
X133971123Y-107325480D02*
X134180643Y-107535000D01*
D53*
X137960000Y-64305000D02*
X139355000Y-64305000D01*
D51*
X153230000Y-116365000D02*
X151775000Y-116365000D01*
D53*
X138347500Y-101090000D02*
X138347500Y-102069022D01*
X162010000Y-93450000D02*
X162020000Y-93440000D01*
X158940000Y-112470000D02*
X158940000Y-113930000D01*
X160570000Y-88450000D02*
X162050000Y-88450000D01*
D52*
X146100000Y-87500000D02*
X146100000Y-90770000D01*
D54*
X147132500Y-103690000D02*
X147132500Y-104732500D01*
D53*
X163767500Y-100110000D02*
X165030000Y-100110000D01*
D51*
X134180643Y-107535000D02*
X135280500Y-107535000D01*
X147210000Y-109900000D02*
X147220000Y-109910000D01*
D53*
X161200489Y-111240489D02*
X161710000Y-111750000D01*
D51*
X152070000Y-109900000D02*
X150750000Y-109900000D01*
X137060000Y-108610000D02*
X137060000Y-111890000D01*
X151775000Y-116365000D02*
X151760000Y-116380000D01*
D53*
X138600000Y-79028887D02*
X138195500Y-79433387D01*
X158940000Y-111415978D02*
X159115489Y-111240489D01*
D51*
X132405000Y-109410000D02*
X132405000Y-107980000D01*
X136160000Y-112790000D02*
X136180000Y-112770000D01*
X144875000Y-97155000D02*
X144720000Y-97000000D01*
D53*
X158597500Y-115492500D02*
X158597500Y-114292500D01*
X160570000Y-93450000D02*
X162010000Y-93450000D01*
X146660000Y-70830000D02*
X146970000Y-71140000D01*
X165030000Y-100110000D02*
X165040000Y-100120000D01*
D51*
X132600000Y-111090000D02*
X131210000Y-111090000D01*
D53*
X139485000Y-59305000D02*
X139560000Y-59230000D01*
D51*
X136450000Y-108000000D02*
X137060000Y-108610000D01*
D53*
X158940000Y-112470000D02*
X158940000Y-111415978D01*
D51*
X132425000Y-107960000D02*
X132425000Y-106560000D01*
D53*
X138857500Y-98262500D02*
X138570000Y-98550000D01*
D54*
X147132500Y-104732500D02*
X147360000Y-104960000D01*
D51*
X136305000Y-107535000D02*
X136450000Y-107680000D01*
D53*
X164070000Y-59880000D02*
X162985402Y-59880000D01*
X159115489Y-111240489D02*
X161200489Y-111240489D01*
X163652500Y-102110000D02*
X164740000Y-102110000D01*
D51*
X150755000Y-63095000D02*
X150790000Y-63060000D01*
D52*
X146100000Y-87500000D02*
X142900000Y-87500000D01*
D51*
X150755000Y-63940000D02*
X150755000Y-63095000D01*
D53*
X138347500Y-102069022D02*
X138535980Y-102257502D01*
D51*
X134800000Y-112790000D02*
X136160000Y-112790000D01*
D53*
X138600000Y-78000000D02*
X138600000Y-79028887D01*
X154575000Y-92215000D02*
X154320000Y-91960000D01*
X138600000Y-95000000D02*
X138600000Y-93260000D01*
D51*
X137060000Y-111890000D02*
X136180000Y-112770000D01*
D53*
X156110000Y-92215000D02*
X154575000Y-92215000D01*
D51*
X133059520Y-107325480D02*
X133971123Y-107325480D01*
D53*
X138600000Y-78000000D02*
X138600000Y-76520000D01*
X158597500Y-114292500D02*
X158950000Y-113940000D01*
D51*
X131210000Y-111090000D02*
X131200000Y-111100000D01*
D53*
X164530000Y-65904834D02*
X164655679Y-65779155D01*
X161740000Y-111720000D02*
X161710000Y-111750000D01*
X138857500Y-97180000D02*
X138857500Y-98262500D01*
X137960000Y-59305000D02*
X139485000Y-59305000D01*
X138600000Y-76520000D02*
X138720000Y-76400000D01*
D51*
X148365000Y-116365000D02*
X148380000Y-116380000D01*
X135280500Y-107535000D02*
X136305000Y-107535000D01*
D53*
X156160000Y-103220000D02*
X156140000Y-103200000D01*
D51*
X145770000Y-109900000D02*
X147210000Y-109900000D01*
D53*
X143280000Y-63940000D02*
X143210000Y-64010000D01*
X157950000Y-103220000D02*
X157950000Y-104600000D01*
D54*
X144402500Y-104977500D02*
X144330000Y-105050000D01*
D51*
X146930000Y-116365000D02*
X148365000Y-116365000D01*
D53*
X158940000Y-113930000D02*
X158950000Y-113940000D01*
X162985402Y-59880000D02*
X162818074Y-59712672D01*
X157950000Y-104600000D02*
X157940000Y-104610000D01*
X157950000Y-103220000D02*
X156160000Y-103220000D01*
D52*
X142900000Y-87500000D02*
X142840000Y-87440000D01*
D54*
X144402500Y-104210000D02*
X144402500Y-104977500D01*
D53*
X144635000Y-63940000D02*
X143280000Y-63940000D01*
X138600000Y-95000000D02*
X138600000Y-96922500D01*
D51*
X146125499Y-103194501D02*
X146125499Y-101482033D01*
X145770000Y-104442500D02*
X145537500Y-104210000D01*
X145537500Y-103782500D02*
X146125499Y-103194501D01*
X146220480Y-101196666D02*
X146370177Y-101046969D01*
X145537500Y-104210000D02*
X145537500Y-103782500D01*
X145770000Y-106100000D02*
X145770000Y-104442500D01*
X145770000Y-106100000D02*
X152070000Y-106100000D01*
X146125499Y-101482033D02*
X146220480Y-101387052D01*
X152070000Y-107372500D02*
X152070000Y-106100000D01*
X146220480Y-101387052D02*
X146220480Y-101196666D01*
X153970000Y-109272500D02*
X152070000Y-107372500D01*
X136190000Y-108453179D02*
X135921821Y-108185000D01*
X133785000Y-108185000D02*
X133560000Y-107960000D01*
X136190000Y-109700000D02*
X136190000Y-108453179D01*
X135280500Y-108185000D02*
X133785000Y-108185000D01*
X135921821Y-108185000D02*
X135280500Y-108185000D01*
X134800000Y-111090000D02*
X136190000Y-109700000D01*
X133510000Y-109080000D02*
X133755000Y-108835000D01*
X133760000Y-111730000D02*
X133760000Y-109630000D01*
X133760000Y-109630000D02*
X133540000Y-109410000D01*
X133755000Y-108835000D02*
X135280500Y-108835000D01*
X133540000Y-109410000D02*
X133540000Y-109110000D01*
X132700000Y-112790000D02*
X133760000Y-111730000D01*
X133540000Y-109110000D02*
X133510000Y-109080000D01*
X132060000Y-105120000D02*
X131510000Y-104570000D01*
X140072500Y-101090000D02*
X140072500Y-101884522D01*
X165390000Y-105890000D02*
X163830000Y-104330000D01*
X165390000Y-112450000D02*
X165390000Y-105890000D01*
X159802500Y-116752500D02*
X163275000Y-113280000D01*
X164560000Y-113280000D02*
X165390000Y-112450000D01*
D53*
X160202500Y-98620000D02*
X157950000Y-98620000D01*
D51*
X144766570Y-103175970D02*
X145076270Y-102866270D01*
X140072500Y-101884522D02*
X141822978Y-103635000D01*
X143825893Y-103175970D02*
X144766570Y-103175970D01*
X141822978Y-103635000D02*
X142519500Y-103635000D01*
D53*
X161692500Y-100110000D02*
X160202500Y-98620000D01*
D51*
X156440000Y-98860000D02*
X157710000Y-98860000D01*
X143366863Y-103635000D02*
X143825893Y-103175970D01*
D53*
X162900000Y-104330000D02*
X162900000Y-103082500D01*
X161927500Y-102110000D02*
X161927500Y-100345000D01*
D51*
X141225000Y-103635000D02*
X141060000Y-103800000D01*
D53*
X162900000Y-103082500D02*
X161927500Y-102110000D01*
D51*
X142519500Y-103635000D02*
X141225000Y-103635000D01*
X163275000Y-113280000D02*
X164560000Y-113280000D01*
X142519500Y-103635000D02*
X143366863Y-103635000D01*
X132340000Y-105120000D02*
X132060000Y-105120000D01*
X132330000Y-103760000D02*
X131380000Y-103760000D01*
X130880000Y-105130000D02*
X131595480Y-105845480D01*
X131380000Y-103760000D02*
X130880000Y-104260000D01*
X134375000Y-105585000D02*
X135280500Y-105585000D01*
X133480000Y-106480000D02*
X134375000Y-105585000D01*
X132845480Y-105845480D02*
X133480000Y-106480000D01*
X131595480Y-105845480D02*
X132845480Y-105845480D01*
X130880000Y-104260000D02*
X130880000Y-105130000D01*
X156040000Y-114132500D02*
X155302500Y-114870000D01*
X155285000Y-112005000D02*
X156040000Y-112760000D01*
X156040000Y-112760000D02*
X156040000Y-114132500D01*
X154720000Y-109494504D02*
X153970000Y-110244504D01*
X154220000Y-107640000D02*
X154720000Y-108140000D01*
X154720000Y-108140000D02*
X154720000Y-109494504D01*
X147820000Y-97430000D02*
X146430000Y-97430000D01*
X146430000Y-97430000D02*
X146070000Y-97790000D01*
D53*
X159370000Y-60500000D02*
X161740000Y-60500000D01*
X162070000Y-60830000D02*
X162070000Y-64100000D01*
X161740000Y-60500000D02*
X162070000Y-60830000D01*
X163490000Y-94700000D02*
X160570000Y-94700000D01*
X144990000Y-66660000D02*
X144990000Y-65380000D01*
X164840000Y-64130000D02*
X164840000Y-63410589D01*
X159890000Y-109770000D02*
X163105000Y-109770000D01*
X160550000Y-80110000D02*
X161576112Y-80110000D01*
X158940000Y-109770000D02*
X159890000Y-109770000D01*
X139255000Y-65555000D02*
X139280000Y-65580000D01*
X143897500Y-75382500D02*
X144952500Y-75382500D01*
X161576112Y-80110000D02*
X161773056Y-79913056D01*
X163230000Y-109645000D02*
X163845000Y-109645000D01*
X163845000Y-109645000D02*
X164580000Y-108910000D01*
X157920000Y-59250000D02*
X157900000Y-59270000D01*
X159370000Y-59250000D02*
X157920000Y-59250000D01*
X164840000Y-63410589D02*
X165265500Y-62985089D01*
X144952500Y-75382500D02*
X145160000Y-75590000D01*
X149980000Y-65650000D02*
X149920000Y-65590000D01*
X144990000Y-65380000D02*
X144960000Y-65350000D01*
X149980000Y-66690000D02*
X149980000Y-65650000D01*
X137960000Y-65555000D02*
X139255000Y-65555000D01*
X164840000Y-64190000D02*
X163620000Y-65410000D01*
X164300000Y-93890000D02*
X163490000Y-94700000D01*
X147790000Y-66660000D02*
X147790000Y-69860000D01*
X142050000Y-74430000D02*
X143897500Y-72582500D01*
X141630000Y-74430000D02*
X142050000Y-74430000D01*
D51*
X147960000Y-111230000D02*
X147960000Y-111535000D01*
X153230000Y-112565000D02*
X154465000Y-112565000D01*
X146700000Y-101720000D02*
X146995000Y-101720000D01*
X141140000Y-95000000D02*
X141140000Y-96250000D01*
X146930000Y-112565000D02*
X153230000Y-112565000D01*
X141140000Y-96250000D02*
X141620000Y-96730000D01*
X148044520Y-105354520D02*
X148170000Y-105480000D01*
X146995000Y-101720000D02*
X147380000Y-101335000D01*
X154465000Y-112565000D02*
X155100000Y-113200000D01*
X147960000Y-111535000D02*
X146930000Y-112565000D01*
X148044520Y-101999520D02*
X148044520Y-105354520D01*
X147380000Y-101335000D02*
X148044520Y-101999520D01*
D53*
X157094511Y-108761467D02*
X158735978Y-107120000D01*
X157990000Y-112470000D02*
X157094511Y-111574511D01*
X158735978Y-107120000D02*
X159040000Y-107120000D01*
X157094511Y-111574511D02*
X157094511Y-108761467D01*
D55*
X139454500Y-112219300D02*
X139454500Y-109836676D01*
X136502824Y-106885000D02*
X135280500Y-106885000D01*
X139454500Y-109836676D02*
X136502824Y-106885000D01*
X140267300Y-111025500D02*
X140267300Y-110094483D01*
X140267300Y-110094483D02*
X136407817Y-106235000D01*
X136407817Y-106235000D02*
X135280500Y-106235000D01*
D51*
X139260480Y-103022502D02*
X141822978Y-105585000D01*
X141822978Y-105585000D02*
X142519500Y-105585000D01*
X138575000Y-99720000D02*
X139260480Y-100405480D01*
X141150480Y-100340480D02*
X139195480Y-100340480D01*
X145920000Y-99460000D02*
X145710000Y-99670000D01*
X139260480Y-100405480D02*
X139260480Y-103022502D01*
X141170000Y-100360000D02*
X141150480Y-100340480D01*
X139195480Y-100340480D02*
X138575000Y-99720000D01*
X146430000Y-99460000D02*
X145920000Y-99460000D01*
X146904671Y-100472468D02*
X147917139Y-99460000D01*
X143793460Y-98055960D02*
X143793460Y-99986321D01*
X147917139Y-99460000D02*
X148330000Y-99460000D01*
X144324159Y-100517020D02*
X146087658Y-100517020D01*
X143537500Y-97800000D02*
X143793460Y-98055960D01*
X146087658Y-100517020D02*
X146132210Y-100472468D01*
X143793460Y-99986321D02*
X144324159Y-100517020D01*
X146132210Y-100472468D02*
X146904671Y-100472468D01*
X143393949Y-101073949D02*
X143700000Y-101380000D01*
X143991377Y-103575480D02*
X145179526Y-103575480D01*
X143700000Y-105939500D02*
X143700000Y-103866857D01*
X145684501Y-103070505D02*
X145684501Y-102662033D01*
X144402468Y-101380000D02*
X143700000Y-101380000D01*
X142519500Y-106235000D02*
X143404500Y-106235000D01*
X145179526Y-103575480D02*
X145684501Y-103070505D01*
X143404500Y-106235000D02*
X143700000Y-105939500D01*
X143700000Y-103866857D02*
X143991377Y-103575480D01*
X143393949Y-98811088D02*
X143393949Y-101073949D01*
X145684501Y-102662033D02*
X144402468Y-101380000D01*
X142382861Y-97800000D02*
X143393949Y-98811088D01*
X144650000Y-99505000D02*
X144192980Y-99047980D01*
X143589504Y-96880000D02*
X142290496Y-96880000D01*
X141425499Y-99404501D02*
X141110000Y-99720000D01*
X144192980Y-97483476D02*
X143589504Y-96880000D01*
X142290496Y-96880000D02*
X141425499Y-97744997D01*
X144192980Y-99047980D02*
X144192980Y-97483476D01*
X141110000Y-99720000D02*
X139770000Y-99720000D01*
X141425499Y-97744997D02*
X141425499Y-99404501D01*
D53*
X165090000Y-61780000D02*
X165650000Y-61220000D01*
X164070000Y-61780000D02*
X165090000Y-61780000D01*
D51*
X133340000Y-64890000D02*
X133340000Y-67180000D01*
X133340000Y-67180000D02*
X133090000Y-67430000D01*
X134455000Y-66725000D02*
X135340000Y-65840000D01*
X134455000Y-67420000D02*
X134455000Y-66725000D01*
D53*
X144285000Y-68847500D02*
X145687500Y-68847500D01*
X161260000Y-68167500D02*
X162072500Y-68167500D01*
X162072500Y-68167500D02*
X162530000Y-67710000D01*
X164530000Y-68660000D02*
X165497500Y-68660000D01*
X165497500Y-68660000D02*
X165860000Y-68297500D01*
D51*
X135340000Y-60940000D02*
X135340000Y-58147500D01*
X131890000Y-60445000D02*
X132885000Y-60445000D01*
X132885000Y-60445000D02*
X133340000Y-59990000D01*
X153550000Y-60680000D02*
X153550000Y-59140000D01*
X153550000Y-59140000D02*
X152810000Y-58400000D01*
X152630000Y-61600000D02*
X153550000Y-60680000D01*
X152630000Y-62990000D02*
X152630000Y-61600000D01*
X139630000Y-73480000D02*
X139630000Y-72040000D01*
X147760000Y-60355000D02*
X148354520Y-59760480D01*
X148354520Y-59760480D02*
X148354520Y-58735480D01*
X148354520Y-58735480D02*
X149690000Y-57400000D01*
X146510000Y-62990000D02*
X146510000Y-61605000D01*
X146510000Y-61605000D02*
X147760000Y-60355000D01*
X146985000Y-72970000D02*
X145940000Y-74015000D01*
X135280500Y-104935000D02*
X133720000Y-104935000D01*
X138410044Y-80855295D02*
X138865339Y-80400000D01*
X142240000Y-79020000D02*
X142240000Y-78170000D01*
X136165500Y-104935000D02*
X137480000Y-103620500D01*
X135280500Y-104935000D02*
X136165500Y-104935000D01*
X137480000Y-103620500D02*
X137480000Y-81785297D01*
X138865339Y-80400000D02*
X142260000Y-80400000D01*
X138410002Y-80855295D02*
X138410044Y-80855295D01*
X137480000Y-81785297D02*
X138410002Y-80855295D01*
X137080489Y-81619815D02*
X138974805Y-79725499D01*
X134050000Y-104285000D02*
X133525000Y-103760000D01*
X143680000Y-79250000D02*
X143680000Y-78000000D01*
X135731806Y-102290000D02*
X137080489Y-100941317D01*
X138974805Y-79725499D02*
X143204501Y-79725499D01*
X133505000Y-102290000D02*
X135731806Y-102290000D01*
X135280500Y-104285000D02*
X134050000Y-104285000D01*
X143204501Y-79725499D02*
X143680000Y-79250000D01*
X137080489Y-100941317D02*
X137080489Y-81619815D01*
X133525000Y-103760000D02*
X133525000Y-102310000D01*
X150920000Y-57350000D02*
X149090000Y-59180000D01*
X153330000Y-57350000D02*
X150920000Y-57350000D01*
X140785000Y-72000000D02*
X140785000Y-77645000D01*
X140785000Y-77645000D02*
X141140000Y-78000000D01*
X154470000Y-57570000D02*
X153560000Y-56660000D01*
X160771072Y-76360000D02*
X161650490Y-75480582D01*
X161650490Y-75480582D02*
X161650490Y-72868022D01*
X144790000Y-58310000D02*
X144440000Y-58310000D01*
X153560000Y-56660000D02*
X146440000Y-56660000D01*
X160229511Y-68452734D02*
X154470000Y-62693223D01*
X146440000Y-56660000D02*
X144790000Y-58310000D01*
X160229511Y-71447043D02*
X160229511Y-68452734D01*
X161650490Y-72868022D02*
X160229511Y-71447043D01*
X154470000Y-62693223D02*
X154470000Y-57570000D01*
D53*
X157990000Y-109770000D02*
X157990000Y-108815978D01*
X159040000Y-108080000D02*
X162160000Y-108080000D01*
X157990000Y-108815978D02*
X158725978Y-108080000D01*
X162160000Y-108080000D02*
X162910000Y-107330000D01*
X158725978Y-108080000D02*
X159040000Y-108080000D01*
D51*
X158607500Y-116677500D02*
X159792500Y-115492500D01*
X159890000Y-115395000D02*
X159890000Y-112470000D01*
D53*
X139870000Y-95000000D02*
X139870000Y-93350000D01*
D52*
X157950000Y-100920000D02*
X156230000Y-100920000D01*
D53*
X139870000Y-96467500D02*
X140582500Y-97180000D01*
D51*
X137165000Y-60555000D02*
X137960000Y-60555000D01*
X156570000Y-115352500D02*
X156570000Y-108740895D01*
D53*
X139870000Y-93350000D02*
X139850000Y-93330000D01*
X132310000Y-102290000D02*
X131390000Y-102290000D01*
X139705000Y-98550000D02*
X140420000Y-98550000D01*
D51*
X136280000Y-59670000D02*
X137165000Y-60555000D01*
D53*
X139870000Y-95000000D02*
X139870000Y-96467500D01*
X160570000Y-90950000D02*
X161900000Y-90950000D01*
X140420000Y-98550000D02*
X140610000Y-98740000D01*
D51*
X131895000Y-67430000D02*
X131895000Y-65190000D01*
D52*
X149207500Y-103690000D02*
X149207500Y-103362500D01*
D51*
X155302500Y-116620000D02*
X156570000Y-115352500D01*
D53*
X140582500Y-97180000D02*
X140582500Y-97672500D01*
X151745000Y-59595000D02*
X151030000Y-60310000D01*
D52*
X151650000Y-100920000D02*
X153410000Y-100920000D01*
D53*
X152810000Y-59595000D02*
X151745000Y-59595000D01*
D51*
X154220000Y-106390895D02*
X154220000Y-105890000D01*
D52*
X153410000Y-100920000D02*
X153420000Y-100910000D01*
D51*
X154220000Y-105890000D02*
X151650000Y-103320000D01*
X135210000Y-56822500D02*
X136280000Y-57892500D01*
X136280000Y-57892500D02*
X136280000Y-59670000D01*
D52*
X149207500Y-103362500D02*
X151650000Y-100920000D01*
D51*
X151650000Y-103320000D02*
X151650000Y-100920000D01*
D53*
X140582500Y-97672500D02*
X139705000Y-98550000D01*
D51*
X156570000Y-108740895D02*
X154220000Y-106390895D01*
X137397793Y-76102207D02*
X137397793Y-79486930D01*
X138110000Y-81967765D02*
X138647649Y-81430116D01*
X137940000Y-75560000D02*
X137397793Y-76102207D01*
X138110000Y-91920000D02*
X138110000Y-81967765D01*
X142750000Y-99505000D02*
X142025000Y-99505000D01*
X142025000Y-99505000D02*
X142000000Y-99530000D01*
X150755000Y-62040000D02*
X149090000Y-60375000D01*
M02*
