G04 #@! TF.GenerationSoftware,KiCad,Pcbnew,6.0.4-6f826c9f35~116~ubuntu20.04.1*
G04 #@! TF.CreationDate,2022-06-15T17:18:02-05:00*
G04 #@! TF.ProjectId,strike-controller,73747269-6b65-42d6-936f-6e74726f6c6c,rev?*
G04 #@! TF.SameCoordinates,Original*
G04 #@! TF.FileFunction,Copper,L4,Bot*
G04 #@! TF.FilePolarity,Positive*
%FSLAX46Y46*%
G04 Gerber Fmt 4.6, Leading zero omitted, Abs format (unit mm)*
G04 Created by KiCad (PCBNEW 6.0.4-6f826c9f35~116~ubuntu20.04.1) date 2022-06-15 17:18:02*
%MOMM*%
%LPD*%
G01*
G04 APERTURE LIST*
G04 #@! TA.AperFunction,ComponentPad*
%ADD10C,3.000000*%
G04 #@! TD*
G04 #@! TA.AperFunction,ComponentPad*
%ADD11O,1.000000X1.300000*%
G04 #@! TD*
G04 #@! TA.AperFunction,ComponentPad*
%ADD12O,1.700000X2.900000*%
G04 #@! TD*
G04 #@! TA.AperFunction,SMDPad,CuDef*
%ADD13R,1.500000X1.000000*%
G04 #@! TD*
G04 #@! TA.AperFunction,ComponentPad*
%ADD14O,1.600000X1.200000*%
G04 #@! TD*
G04 #@! TA.AperFunction,ComponentPad*
%ADD15O,1.200000X1.200000*%
G04 #@! TD*
G04 #@! TA.AperFunction,ViaPad*
%ADD16C,1.000000*%
G04 #@! TD*
G04 #@! TA.AperFunction,ViaPad*
%ADD17C,0.600000*%
G04 #@! TD*
G04 #@! TA.AperFunction,ViaPad*
%ADD18C,0.800000*%
G04 #@! TD*
G04 #@! TA.AperFunction,Conductor*
%ADD19C,0.250000*%
G04 #@! TD*
G04 #@! TA.AperFunction,Conductor*
%ADD20C,0.500000*%
G04 #@! TD*
G04 #@! TA.AperFunction,Conductor*
%ADD21C,1.000000*%
G04 #@! TD*
G04 #@! TA.AperFunction,Conductor*
%ADD22C,0.400000*%
G04 #@! TD*
G04 APERTURE END LIST*
D10*
X132525000Y-115900000D03*
X164490000Y-115900000D03*
X132500000Y-56950000D03*
X164480000Y-56940000D03*
D11*
X138667100Y-111025500D03*
X139454500Y-112219300D03*
X140267300Y-111025500D03*
X141080100Y-112244700D03*
X141867500Y-111025500D03*
D12*
X136635100Y-116080100D03*
X143924900Y-116080100D03*
D13*
X150940000Y-84260000D03*
X150940000Y-87460000D03*
X146040000Y-87460000D03*
X146040000Y-84260000D03*
D14*
X151030000Y-60310000D03*
D15*
X148490000Y-62850000D03*
X145950000Y-60310000D03*
D16*
X159750000Y-100830000D03*
X149810000Y-100920000D03*
D17*
X161010000Y-61750000D03*
X161540000Y-65660000D03*
X153980000Y-72810000D03*
X151720831Y-71418054D03*
X160120000Y-73280000D03*
X153380000Y-71700000D03*
X158140000Y-64980000D03*
X153850000Y-69120000D03*
X149830000Y-72130000D03*
X150020000Y-79600000D03*
X151110000Y-65510000D03*
X155720133Y-65322333D03*
X145170000Y-62970000D03*
X162737263Y-66044796D03*
X146560000Y-59080000D03*
X139670000Y-60560000D03*
X144630000Y-70930000D03*
X145140000Y-72140000D03*
X142190000Y-71880000D03*
X153210000Y-76090000D03*
X158190000Y-71860000D03*
X154961452Y-72015558D03*
X137540000Y-70610000D03*
X154168090Y-76514500D03*
X154450000Y-81480000D03*
X144340000Y-79820000D03*
X139060000Y-74350000D03*
X148800000Y-80940000D03*
X138370000Y-71260000D03*
X139120000Y-70820000D03*
X152454273Y-75793488D03*
X147930000Y-71870000D03*
X136560000Y-61850000D03*
X136660000Y-63030000D03*
X135548556Y-62553490D03*
X136741858Y-60759392D03*
X152990000Y-79830000D03*
X150870000Y-83060000D03*
X154360486Y-69904367D03*
X162380000Y-66820000D03*
X158680000Y-68300000D03*
X160619446Y-65761912D03*
X155453302Y-74442840D03*
X159680000Y-72570000D03*
X150210000Y-71370000D03*
X156470000Y-66350000D03*
X159960000Y-66670000D03*
X162640000Y-68830000D03*
X162700000Y-73140000D03*
X140203279Y-76294253D03*
X144401693Y-73983489D03*
X143400000Y-80500000D03*
X148639400Y-81712159D03*
X142450000Y-76220000D03*
X153410000Y-91420000D03*
X140390000Y-81060000D03*
X141570000Y-91690000D03*
X146420000Y-96540000D03*
X156500000Y-96150000D03*
X150270000Y-96590000D03*
X149830000Y-93680000D03*
X150570000Y-93280000D03*
X152170000Y-90160000D03*
X149076179Y-80243237D03*
X147730000Y-91560000D03*
X147510000Y-93440000D03*
X148840000Y-66020000D03*
X149040000Y-75280000D03*
X156090000Y-72880000D03*
X158363767Y-72623767D03*
X155993918Y-71182905D03*
X156440000Y-74880000D03*
X152220000Y-91100000D03*
X152000000Y-92700000D03*
D18*
X162050000Y-88450000D03*
X162020000Y-93440000D03*
X138535980Y-102257502D03*
X156140000Y-103200000D03*
X161765500Y-78880000D03*
D17*
X151760000Y-116380000D03*
D18*
X138570000Y-93230000D03*
D17*
X147360000Y-104960000D03*
X133330000Y-62795500D03*
X134889052Y-63264500D03*
X148249794Y-75158430D03*
D16*
X143210000Y-64010000D03*
X146100000Y-90770000D03*
D17*
X136180000Y-112770000D03*
X144330000Y-105050000D03*
X138195500Y-79433387D03*
X150730000Y-109920000D03*
D18*
X164810000Y-102040000D03*
X139380000Y-64280000D03*
D17*
X148380000Y-116380000D03*
D18*
X164655679Y-65779155D03*
D16*
X142840000Y-87440000D03*
D18*
X154320000Y-91960000D03*
D17*
X150790000Y-63060000D03*
X144720000Y-97000000D03*
D18*
X161710000Y-111750000D03*
X162818074Y-59712672D03*
X139560000Y-59230000D03*
D16*
X146970000Y-71140000D03*
D17*
X138720000Y-76400000D03*
D18*
X158950000Y-113940000D03*
D17*
X136450000Y-107680000D03*
D18*
X165040000Y-100120000D03*
D17*
X147220000Y-109910000D03*
D18*
X157940000Y-104610000D03*
D17*
X131200000Y-111100000D03*
X146370177Y-101046969D03*
X148870000Y-91725989D03*
X145076270Y-102866270D03*
X156440000Y-98860000D03*
X131510000Y-104570000D03*
X141060000Y-103800000D03*
D16*
X164870000Y-79200000D03*
D18*
X161773056Y-79913056D03*
D17*
X139280000Y-65580000D03*
D16*
X144960000Y-65350000D03*
D18*
X165265500Y-62985089D03*
D16*
X164580000Y-108910000D03*
D18*
X157924814Y-62923341D03*
D16*
X149920000Y-65590000D03*
X164840000Y-80400000D03*
X164300000Y-93890000D03*
X145160000Y-75590000D03*
X152079175Y-74457059D03*
X163620000Y-65410000D03*
D18*
X157900000Y-59270000D03*
D16*
X157990398Y-63970793D03*
X154518216Y-64515500D03*
D17*
X141620000Y-96730000D03*
X146700000Y-101720000D03*
X148170000Y-105480000D03*
X147960000Y-111230000D03*
X141170000Y-100360000D03*
X145710000Y-99670000D03*
X139600000Y-81570000D03*
X163274500Y-74580000D03*
X160470000Y-72500000D03*
X165660000Y-95770000D03*
X149690000Y-57400000D03*
D18*
X142240000Y-79020000D03*
X142260000Y-80400000D03*
D17*
X153330000Y-57350000D03*
X155160000Y-59340000D03*
X149560000Y-90620000D03*
D18*
X140610000Y-98740000D03*
X139850000Y-93330000D03*
X131390000Y-102290000D03*
D16*
X156230000Y-100920000D03*
D17*
X161900000Y-90950000D03*
X150640000Y-97760000D03*
D16*
X153420000Y-100910000D03*
D17*
X142000000Y-99530000D03*
X138647649Y-81430116D03*
X138110000Y-91920000D03*
X137397793Y-79486930D03*
D19*
X142514043Y-73983489D02*
X140203279Y-76294253D01*
X144401693Y-73983489D02*
X142514043Y-73983489D01*
X144340000Y-79820000D02*
X144340000Y-77070000D01*
X140250000Y-77040000D02*
X139720000Y-77040000D01*
X144340000Y-77070000D02*
X142660000Y-75390000D01*
X142660000Y-75390000D02*
X141920000Y-75390000D01*
X141920000Y-75390000D02*
X140270000Y-77040000D01*
X140270000Y-77040000D02*
X140250000Y-77040000D01*
X159570000Y-60310000D02*
X161010000Y-61750000D01*
X151030000Y-60310000D02*
X159570000Y-60310000D01*
X157120000Y-65900000D02*
X158840000Y-65900000D01*
X160619446Y-66960554D02*
X160619446Y-65761912D01*
X161777967Y-65085499D02*
X162737263Y-66044796D01*
X155720133Y-65322333D02*
X156542333Y-65322333D01*
X156542333Y-65322333D02*
X157120000Y-65900000D01*
X161540000Y-65980000D02*
X162380000Y-66820000D01*
X158840000Y-65900000D02*
X159654501Y-65085499D01*
X159654501Y-65085499D02*
X161777967Y-65085499D01*
X158680000Y-68300000D02*
X159280000Y-68300000D01*
X159280000Y-68300000D02*
X160619446Y-66960554D01*
X161540000Y-65660000D02*
X161540000Y-65980000D01*
X155420000Y-77390000D02*
X155420000Y-76100000D01*
X153570490Y-74125484D02*
X153570490Y-73222958D01*
X154780000Y-77180000D02*
X154780000Y-76100000D01*
X155880000Y-71860000D02*
X155724442Y-72015558D01*
X155680000Y-75670000D02*
X157730000Y-75670000D01*
X152002777Y-71700000D02*
X151720831Y-71418054D01*
X153170978Y-74050978D02*
X152580000Y-73460000D01*
X155724442Y-72015558D02*
X154961452Y-72015558D01*
X153395499Y-72576969D02*
X154360486Y-71611982D01*
X153380000Y-71700000D02*
X152002777Y-71700000D01*
X153980000Y-73970000D02*
X155680000Y-75670000D01*
X153920808Y-74600808D02*
X153920808Y-74475802D01*
X153220000Y-75180000D02*
X153220000Y-74339986D01*
X154780000Y-76100000D02*
X154600000Y-75920000D01*
X152990000Y-79830000D02*
X154742591Y-78077409D01*
X150020000Y-79600000D02*
X152370000Y-79600000D01*
X153980000Y-73970000D02*
X153980000Y-72810000D01*
X153370000Y-78600000D02*
X153370000Y-78590000D01*
X153395499Y-73047967D02*
X153395499Y-72576969D01*
X154742591Y-78077409D02*
X154742591Y-78067409D01*
X152580000Y-73460000D02*
X151160000Y-73460000D01*
X153170978Y-74290963D02*
X153170978Y-74050978D01*
X158190000Y-71860000D02*
X155880000Y-71860000D01*
X154360486Y-71611982D02*
X154360486Y-69904367D01*
X154742591Y-78067409D02*
X155420000Y-77390000D01*
X153370000Y-78590000D02*
X154780000Y-77180000D01*
X151160000Y-73460000D02*
X149830000Y-72130000D01*
X153220000Y-74339986D02*
X153170978Y-74290963D01*
X160120000Y-73280000D02*
X157730000Y-75670000D01*
X155420000Y-76100000D02*
X153920808Y-74600808D01*
X152370000Y-79600000D02*
X153370000Y-78600000D01*
X154600000Y-75920000D02*
X153960000Y-75920000D01*
X153920808Y-74475802D02*
X153570490Y-74125484D01*
X153960000Y-75920000D02*
X153220000Y-75180000D01*
X153570490Y-73222958D02*
X153395499Y-73047967D01*
X153850000Y-66380000D02*
X155490000Y-64740000D01*
D20*
X154518216Y-64515500D02*
X155062923Y-63970793D01*
X155062923Y-63970793D02*
X157990398Y-63970793D01*
D19*
X153850000Y-69120000D02*
X153850000Y-66380000D01*
X155490000Y-64740000D02*
X157900000Y-64740000D01*
X157900000Y-64740000D02*
X158140000Y-64980000D01*
X160020000Y-69180000D02*
X155084853Y-69180000D01*
X152320293Y-75793488D02*
X152454273Y-75793488D01*
X162380000Y-66820000D02*
X160020000Y-69180000D01*
X147930000Y-71870000D02*
X148396805Y-71870000D01*
X148396805Y-71870000D02*
X152320293Y-75793488D01*
X155084853Y-69180000D02*
X154360486Y-69904367D01*
X156790000Y-66670000D02*
X156470000Y-66350000D01*
X159960000Y-66670000D02*
X156790000Y-66670000D01*
X149750000Y-62070000D02*
X148940000Y-61260000D01*
X148930000Y-61250000D02*
X147640000Y-61250000D01*
X146360000Y-62970000D02*
X145170000Y-62970000D01*
X149750000Y-64150000D02*
X149750000Y-62070000D01*
X146900000Y-61990000D02*
X146900000Y-62430000D01*
X146900000Y-62430000D02*
X146360000Y-62970000D01*
X151110000Y-65510000D02*
X149750000Y-64150000D01*
X147640000Y-61250000D02*
X146900000Y-61990000D01*
X148940000Y-61260000D02*
X148930000Y-61250000D01*
X151030000Y-60310000D02*
X147790000Y-60310000D01*
X147790000Y-60310000D02*
X146560000Y-59080000D01*
X139670000Y-60560000D02*
X142060000Y-60560000D01*
X142060000Y-60560000D02*
X143540000Y-59080000D01*
X143540000Y-59080000D02*
X146560000Y-59080000D01*
X144902033Y-72714501D02*
X144922033Y-72714501D01*
X144630000Y-70930000D02*
X145140000Y-71440000D01*
X146720000Y-73700000D02*
X149390000Y-73700000D01*
X152910000Y-76430000D02*
X153210000Y-76130000D01*
X152120000Y-76430000D02*
X152910000Y-76430000D01*
X149390000Y-73700000D02*
X152120000Y-76430000D01*
X145140000Y-71440000D02*
X145140000Y-72140000D01*
X144067532Y-71880000D02*
X144902033Y-72714501D01*
X145744501Y-72724501D02*
X146720000Y-73700000D01*
X153210000Y-76130000D02*
X153210000Y-76090000D01*
X144932033Y-72724501D02*
X145744501Y-72724501D01*
X142190000Y-71880000D02*
X144067532Y-71880000D01*
X144922033Y-72714501D02*
X144932033Y-72724501D01*
X140030000Y-70880000D02*
X140030000Y-71610000D01*
X137950000Y-70200000D02*
X139350000Y-70200000D01*
X144410000Y-73230000D02*
X144450000Y-73190000D01*
X137540000Y-70610000D02*
X137950000Y-70200000D01*
X149115006Y-74350000D02*
X151925006Y-77160000D01*
X139350000Y-70200000D02*
X140030000Y-70880000D01*
X146610000Y-74350000D02*
X149115006Y-74350000D01*
X144450000Y-73190000D02*
X145450000Y-73190000D01*
X152952468Y-77160000D02*
X153597968Y-76514500D01*
X151925006Y-77160000D02*
X152952468Y-77160000D01*
X145450000Y-73190000D02*
X146610000Y-74350000D01*
X153597968Y-76514500D02*
X154168090Y-76514500D01*
X140030000Y-71610000D02*
X141650000Y-73230000D01*
X141650000Y-73230000D02*
X144410000Y-73230000D01*
X139720000Y-77040000D02*
X139360000Y-76680000D01*
X149340000Y-81480000D02*
X148800000Y-80940000D01*
X139360000Y-75800000D02*
X138910000Y-75350000D01*
X154450000Y-81480000D02*
X149340000Y-81480000D01*
X138910000Y-74500000D02*
X139060000Y-74350000D01*
X153410000Y-91420000D02*
X153410000Y-84140000D01*
X138910000Y-75350000D02*
X138910000Y-74500000D01*
X153410000Y-84140000D02*
X151540000Y-82270000D01*
X139360000Y-76680000D02*
X139360000Y-75800000D01*
X149040000Y-75280000D02*
X149040000Y-80207058D01*
X149197241Y-82270000D02*
X148639400Y-81712159D01*
X149040000Y-80207058D02*
X149076179Y-80243237D01*
X151540000Y-82270000D02*
X149197241Y-82270000D01*
X137540000Y-77690000D02*
X137540000Y-74150000D01*
X137540000Y-74150000D02*
X138430000Y-73260000D01*
X138430000Y-73260000D02*
X138430000Y-71320000D01*
X138430000Y-71320000D02*
X138370000Y-71260000D01*
X138010000Y-77290000D02*
X138010000Y-74560000D01*
X138010000Y-74560000D02*
X139120000Y-73450000D01*
X139120000Y-73450000D02*
X139120000Y-70820000D01*
X135548556Y-61952694D02*
X135548556Y-62553490D01*
X136660000Y-61950000D02*
X136660000Y-63030000D01*
X136560000Y-61850000D02*
X136660000Y-61950000D01*
X136741858Y-60759392D02*
X135548556Y-61952694D01*
X150940000Y-84260000D02*
X150940000Y-83130000D01*
X150940000Y-83130000D02*
X150870000Y-83060000D01*
X156090000Y-72880000D02*
X158107534Y-72880000D01*
X157850000Y-73950000D02*
X159230000Y-72570000D01*
X158107534Y-72880000D02*
X158363767Y-72623767D01*
X155946142Y-73950000D02*
X157850000Y-73950000D01*
X159680000Y-72570000D02*
X159230000Y-72570000D01*
X155946142Y-73950000D02*
X155453302Y-74442840D01*
X160470000Y-72500000D02*
X161194500Y-72500000D01*
X162700000Y-73140000D02*
X162700000Y-68890000D01*
X162700000Y-68890000D02*
X162640000Y-68830000D01*
X161194500Y-72500000D02*
X163274500Y-74580000D01*
X143400000Y-80500000D02*
X143400000Y-77170000D01*
X143400000Y-77170000D02*
X142450000Y-76220000D01*
X150710000Y-96150000D02*
X150270000Y-96590000D01*
X156500000Y-96150000D02*
X150710000Y-96150000D01*
X139220000Y-79890000D02*
X139220000Y-78500000D01*
X138010000Y-77290000D02*
X139220000Y-78500000D01*
X140390000Y-81060000D02*
X139220000Y-79890000D01*
X146420000Y-96540000D02*
X141570000Y-91690000D01*
X152000000Y-91320000D02*
X152220000Y-91100000D01*
X152000000Y-92700000D02*
X152000000Y-91320000D01*
X148720000Y-90650000D02*
X148720000Y-86940000D01*
X149830000Y-93680000D02*
X149470000Y-93320000D01*
X149470000Y-93320000D02*
X149470000Y-91400000D01*
X149470000Y-91400000D02*
X148720000Y-90650000D01*
X148720000Y-86940000D02*
X146040000Y-84260000D01*
X151600000Y-92250000D02*
X151600000Y-90730000D01*
X150570000Y-93280000D02*
X151600000Y-92250000D01*
X151600000Y-90730000D02*
X152170000Y-90160000D01*
X147510000Y-93440000D02*
X147510000Y-91780000D01*
X147510000Y-91780000D02*
X147730000Y-91560000D01*
X148840000Y-66020000D02*
X148490000Y-65670000D01*
X148490000Y-65670000D02*
X148490000Y-62850000D01*
X148870000Y-98630000D02*
X148870000Y-91725989D01*
X146370177Y-101046969D02*
X146453031Y-101046969D01*
X146453031Y-101046969D02*
X148870000Y-98630000D01*
D21*
X142860000Y-87460000D02*
X142840000Y-87440000D01*
X146040000Y-87460000D02*
X142860000Y-87460000D01*
D22*
X138667100Y-111025500D02*
X138667100Y-106192900D01*
D19*
X131510000Y-104570000D02*
X132280000Y-103800000D01*
X147454501Y-101857967D02*
X146446198Y-102866270D01*
X146446198Y-102866270D02*
X145076270Y-102866270D01*
X147454501Y-101660492D02*
X147454501Y-101857967D01*
X132280000Y-103800000D02*
X141060000Y-103800000D01*
X156440000Y-98860000D02*
X150254993Y-98860000D01*
X150254993Y-98860000D02*
X147454501Y-101660492D01*
D22*
X138667100Y-106192900D02*
X141060000Y-103800000D01*
D20*
X164300000Y-93890000D02*
X165360000Y-92830000D01*
X165360000Y-92830000D02*
X165360000Y-80920000D01*
X164580000Y-108910000D02*
X165890000Y-107600000D01*
X164300000Y-96450000D02*
X165890000Y-98040000D01*
X165890000Y-107600000D02*
X165890000Y-98040000D01*
X164300000Y-96450000D02*
X164300000Y-93890000D01*
X164840000Y-79230000D02*
X164870000Y-79200000D01*
X165360000Y-80920000D02*
X164840000Y-80400000D01*
X164840000Y-80400000D02*
X164840000Y-79230000D01*
D19*
X143190000Y-98300000D02*
X145310000Y-98300000D01*
X146490000Y-99830000D02*
X145680000Y-100640000D01*
X148170000Y-111020000D02*
X147960000Y-111230000D01*
X145640000Y-101720000D02*
X146700000Y-101720000D01*
X145310000Y-98300000D02*
X146490000Y-99480000D01*
X145620000Y-100700000D02*
X145620000Y-101700000D01*
X146490000Y-99480000D02*
X146490000Y-99830000D01*
X141620000Y-96730000D02*
X143190000Y-98300000D01*
X145620000Y-101700000D02*
X145640000Y-101720000D01*
X148170000Y-105480000D02*
X148170000Y-111020000D01*
X145680000Y-100640000D02*
X145620000Y-100700000D01*
X145710000Y-99670000D02*
X145020000Y-100360000D01*
X145020000Y-100360000D02*
X141170000Y-100360000D01*
X138820000Y-80790000D02*
X138820000Y-78970000D01*
X137540000Y-77690000D02*
X138820000Y-78970000D01*
X139600000Y-81570000D02*
X138820000Y-80790000D01*
X165940000Y-60030000D02*
X165940000Y-95490000D01*
X165430000Y-59520000D02*
X165940000Y-60030000D01*
X160650000Y-56520000D02*
X163650000Y-59520000D01*
X150570000Y-56520000D02*
X160650000Y-56520000D01*
X163650000Y-59520000D02*
X165430000Y-59520000D01*
X165940000Y-95490000D02*
X165660000Y-95770000D01*
X149690000Y-57400000D02*
X150570000Y-56520000D01*
X142260000Y-79040000D02*
X142240000Y-79020000D01*
X142260000Y-80400000D02*
X142260000Y-79040000D01*
X155160000Y-59180000D02*
X153330000Y-57350000D01*
X155160000Y-59340000D02*
X155160000Y-59180000D01*
D20*
X150940000Y-84260000D02*
X149560000Y-85640000D01*
X149560000Y-85640000D02*
X149560000Y-90620000D01*
D19*
X139210000Y-98000000D02*
X141030000Y-98000000D01*
X141310000Y-98280000D02*
X141030000Y-98000000D01*
X137800000Y-96590000D02*
X139210000Y-98000000D01*
X137800000Y-96590000D02*
X137800000Y-92290000D01*
X141390000Y-98920000D02*
X141390000Y-98360000D01*
X142000000Y-99530000D02*
X141390000Y-98920000D01*
X141390000Y-98360000D02*
X141310000Y-98280000D01*
X137397793Y-80180260D02*
X137397793Y-79486930D01*
X137800000Y-92230000D02*
X138110000Y-91920000D01*
X137800000Y-92290000D02*
X137800000Y-92230000D01*
X138647649Y-81430116D02*
X137397793Y-80180260D01*
M02*
