M48
; DRILL file {KiCad 6.0.4-6f826c9f35~116~ubuntu20.04.1} date Wed 15 Jun 2022 05:18:05 PM CDT
; FORMAT={-:-/ absolute / inch / decimal}
; #@! TF.CreationDate,2022-06-15T17:18:05-05:00
; #@! TF.GenerationSoftware,Kicad,Pcbnew,6.0.4-6f826c9f35~116~ubuntu20.04.1
; #@! TF.FileFunction,Plated,1,4,PTH
FMAT,2
INCH
; #@! TA.AperFunction,Plated,PTH,ViaDrill
T1C0.0157
; #@! TA.AperFunction,Plated,PTH,ViaDrill
T2C0.0236
; #@! TA.AperFunction,Plated,PTH,ComponentDrill
T3C0.0276
; #@! TA.AperFunction,Plated,PTH,ComponentDrill
T4C0.0787
%
G90
G05
T1
X5.1654Y-4.374
X5.1728Y-4.0272
X5.1776Y-4.1169
X5.2492Y-2.4723
X5.3106Y-2.4907
X5.3366Y-2.4627
X5.3614Y-4.4398
X5.372Y-4.2394
X5.3764Y-2.435
X5.3803Y-2.4815
X5.3835Y-2.3921
X5.4094Y-3.1294
X5.415Y-2.7799
X5.4374Y-3.6189
X5.4408Y-3.1273
X5.4476Y-2.8055
X5.4542Y-4.0259
X5.4555Y-3.6705
X5.4586Y-3.2059
X5.4614Y-3.0079
X5.4748Y-2.9272
X5.4772Y-2.7882
X5.4835Y-2.5819
X5.4874Y-2.5307
X5.4945Y-2.3319
X5.4961Y-3.2114
X5.4988Y-2.3843
X5.5059Y-3.6744
X5.5198Y-3.0037
X5.5272Y-3.1913
X5.5358Y-3.8874
X5.5535Y-4.0866
X5.5579Y-3.9512
X5.5736Y-3.6098
X5.5756Y-3.8083
X5.5906Y-3.9185
X5.598Y-2.8299
X5.6Y-3.111
X5.6008Y-3.1654
X5.6083Y-3.0008
X5.6457Y-3.1693
X5.6823Y-4.1358
X5.6827Y-3.1425
X5.6851Y-2.9127
X5.6941Y-2.7925
X5.6976Y-3.8189
X5.7117Y-4.0499
X5.7142Y-2.8402
X5.7154Y-2.4791
X5.7366Y-3.924
X5.7626Y-3.9782
X5.7646Y-3.8008
X5.7701Y-2.326
X5.7756Y-4.0047
X5.7961Y-4.3272
X5.8016Y-4.1323
X5.8075Y-3.6787
X5.8161Y-3.6047
X5.824Y-2.8295
X5.8252Y-4.3791
X5.8335Y-4.1528
X5.8366Y-2.959
X5.8417Y-4.5819
X5.8519Y-3.217
X5.8583Y-3.1866
X5.8598Y-2.5992
X5.861Y-3.6113
X5.8677Y-2.9638
X5.8691Y-3.1592
X5.8882Y-3.5677
X5.8933Y-2.2598
X5.8988Y-2.8398
X5.8988Y-3.6882
X5.9063Y-3.1339
X5.9138Y-2.8098
X5.9161Y-3.8028
X5.928Y-3.6724
X5.9307Y-3.8488
X5.9343Y-4.3276
X5.9366Y-2.4827
X5.9398Y-3.2701
X5.9492Y-2.5791
X5.9733Y-2.8117
X5.9748Y-4.5819
X5.9843Y-3.6496
X5.9909Y-3.5496
X5.9929Y-3.5866
X6.0021Y-2.984
X6.0232Y-3.1429
X6.0319Y-2.9957
X6.0366Y-2.2579
X6.0386Y-2.8228
X6.0398Y-3.5992
X6.0571Y-2.7213
X6.0622Y-2.8665
X6.0696Y-3.0124
X6.0756Y-3.6205
X6.0772Y-2.7521
X6.0807Y-3.2079
X6.1008Y-2.8353
X6.1087Y-2.3362
X6.1202Y-2.9308
X6.1307Y-2.5717
X6.1415Y-2.8025
X6.1453Y-2.8693
X6.1472Y-4.063
X6.1591Y-2.948
X6.1591Y-3.8921
X6.1602Y-2.6122
X6.1614Y-3.7854
X6.2165Y-2.3335
X6.2175Y-2.4773
X6.2181Y-4.1185
X6.226Y-2.5583
X6.228Y-2.8291
X6.2348Y-2.8592
X6.2472Y-2.689
X6.2579Y-4.4858
X6.2866Y-2.8571
X6.2976Y-2.6248
X6.3039Y-2.885
X6.3177Y-2.8543
X6.3236Y-2.5891
X6.339Y-2.4311
X6.3598Y-2.585
X6.3665Y-4.3996
X6.3687Y-3.1055
X6.369Y-3.1462
X6.374Y-3.5807
X6.3787Y-3.6787
X6.3799Y-3.4823
X6.3929Y-2.6307
X6.4031Y-2.7098
X6.4055Y-2.8795
X6.407Y-2.6002
X6.4102Y-2.3509
X6.4281Y-2.9362
X6.4825Y-2.5897
X6.4886Y-4.0173
X6.4976Y-3.9417
X6.5065Y-2.4797
X6.522Y-3.7705
T2
X5.6236Y-3.4425
X5.6382Y-2.5201
X5.7071Y-2.5728
X5.715Y-2.976
X5.752Y-3.5736
X5.7862Y-2.8008
X5.898Y-3.9732
X5.9024Y-2.5823
X5.9874Y-2.9314
X6.0402Y-3.9728
X6.0834Y-2.54
X6.1508Y-3.9732
X6.2201Y-2.5185
X6.2894Y-3.9697
X6.4417Y-2.5752
X6.4685Y-3.6965
X6.4795Y-4.2878
X6.4898Y-3.1654
X6.4909Y-3.1181
T3
X5.4593Y-4.3711
X5.4903Y-4.4181
X5.5223Y-4.3711
X5.5543Y-4.4191
X5.5853Y-4.3711
X5.7461Y-2.3744
X5.8461Y-2.4744
X5.9461Y-2.3744
T4
X5.2165Y-2.2421
X5.2175Y-4.563
X6.4756Y-2.2417
X6.476Y-4.563
T3
G00X5.3793Y-4.5937
M15
G01X5.3793Y-4.5465
M16
G05
G00X5.6663Y-4.5937
M15
G01X5.6663Y-4.5465
M16
G05
T0
M30
